<svg width="58" height="64" viewBox="0 0 58 64" fill="none" xmlns="http://www.w3.org/2000/svg">
<path d="M49.4317 18.8708L53.5032 15.0751L49.4968 11.3389L45.1413 15.3994C41.1624 12.7706 36.5192 11.1505 31.6667 10.6977V5.2828H37.3334V0H20.3333V5.2828H26V10.6977C21.1475 11.1505 16.5043 12.7706 12.5254 15.3994L8.16985 11.3389L4.16352 15.0751L8.23502 18.8708C4.43452 22.6221 1.89583 27.3291 0.932473 32.4103C-0.0308848 37.4916 0.623277 42.7246 2.81417 47.4631C5.00507 52.2017 8.63674 56.2382 13.2607 59.0743C17.8847 61.9103 23.2984 63.4217 28.8334 63.4217C34.3683 63.4217 39.782 61.9103 44.406 59.0743C49.03 56.2382 52.6616 52.2017 54.8525 47.4631C57.0434 42.7246 57.6976 37.4916 56.7342 32.4103C55.7709 27.3291 53.2322 22.6221 49.4317 18.8708ZM28.8334 58.1108C24.3503 58.1108 19.9679 56.8715 16.2404 54.5496C12.5129 52.2276 9.60767 48.9274 7.89208 45.0662C6.17649 41.205 5.72762 36.9562 6.60222 32.8571C7.47681 28.7581 9.6356 24.9928 12.8056 22.0376C15.9756 19.0823 20.0144 17.0698 24.4113 16.2544C28.8082 15.4391 33.3657 15.8576 37.5075 17.4569C41.6493 19.0563 45.1894 21.7647 47.68 25.2397C50.1706 28.7148 51.5 32.8003 51.5 36.9796C51.4933 42.582 49.103 47.9532 44.8536 51.9147C40.6043 55.8762 34.8429 58.1045 28.8334 58.1108Z" fill="white"/>
<path d="M28.8333 21.1318V36.9802H11.8333C11.8333 40.1148 12.8303 43.1789 14.6983 45.7851C16.5663 48.3914 19.2213 50.4227 22.3276 51.6223C25.434 52.8218 28.8521 53.1356 32.1498 52.5241C35.4475 51.9126 38.4766 50.4032 40.8541 48.1868C43.2316 45.9703 44.8507 43.1464 45.5066 40.0721C46.1626 36.9978 45.8259 33.8112 44.5392 30.9153C43.2525 28.0194 41.0736 25.5442 38.2779 23.8028C35.4823 22.0613 32.1955 21.1318 28.8333 21.1318Z" fill="white"/>
</svg>
