<svg width="55" height="55" viewBox="0 0 55 55" fill="none" xmlns="http://www.w3.org/2000/svg">
<g clip-path="url(#clip0_2658_166881)">
<g clip-path="url(#clip1_2658_166881)">
<path d="M36.1012 17.9408C36.0127 17.862 35.943 17.8 35.9121 17.7691C35.2611 17.1196 34.6695 16.4265 34.0908 15.7132C33.3134 14.7549 32.5515 13.8592 31.305 13.5069C30.023 13.1444 28.6798 13.4514 27.4351 13.7963C26.5256 14.0483 25.6135 14.3244 24.7049 14.6146C24.7787 14.4802 24.8554 14.3476 24.9266 14.2118C25.3421 13.419 24.9413 12.6683 24.1697 12.351C22.374 11.6124 20.7329 12.7121 19.2795 13.7184C17.6005 14.8807 15.8644 16.1378 14.7959 17.9117C14.461 18.4678 15.1029 18.9485 15.6101 18.7259C16.9168 18.1534 18.0618 17.2887 19.2492 16.5062C19.6844 16.2195 20.5674 15.5297 21.4322 15.0619C21.1261 15.4909 20.7917 15.899 20.4083 16.2698C19.2339 17.406 20.4774 19.087 21.8971 18.8274C24.2706 18.3934 26.6018 17.5262 28.9812 17.1702C30.4876 16.9446 30.6478 17.5251 31.3671 18.6795C31.8893 19.5172 32.4694 20.3138 33.0828 21.0868C34.1743 22.4624 35.5463 24.1602 37.507 23.8744C39.6268 23.5653 40.4034 20.9804 40.4198 19.1626C40.4413 16.8496 37.0771 16.0798 36.1012 17.9408Z" fill="#E0DFE6"/>
<path d="M40.9363 28.9364C40.9245 28.7279 40.8783 28.5218 40.7963 28.3275C40.5505 27.745 39.9459 27.2662 39.2887 27.2571C39.287 27.2563 39.2855 27.2551 39.2834 27.2545C39.0261 27.146 38.7565 27.1228 38.481 27.1924C37.58 27.4197 37.0043 28.5409 37.2807 29.414C37.4065 29.8115 37.6441 30.1635 37.9714 30.4178C37.8517 30.7689 37.7709 31.1406 37.7062 31.5199C37.4136 31.5328 37.1187 31.6687 36.9055 31.8484C35.3271 33.1768 35.8746 35.9338 35.4908 37.7866C35.0921 39.7123 33.8909 42.0632 31.7097 42.3114C29.5767 42.5539 26.9227 41.2481 24.962 40.4889C22.8084 39.655 20.7821 38.5626 18.5671 37.9098C18.4174 37.8657 18.2869 38.0395 18.3654 38.1721C18.742 38.8075 19.1825 39.3941 19.6709 39.939C19.4601 40.228 19.3933 40.6497 19.5562 40.9749C22.3164 46.4789 30.7076 47.9414 35.9713 45.597C38.7633 44.3535 40.3517 42.0764 40.9465 39.131C41.292 37.4199 41.4885 35.6506 41.659 33.9137C41.8434 32.0312 42.1101 30.4646 40.9363 28.9364Z" fill="#E0DFE6"/>
<path d="M30.4294 33.011C30.2009 32.4696 29.6701 31.9797 29.0509 31.9797C28.9238 31.9797 28.7771 32.0094 28.6554 32.0453C28.643 32.0488 28.6769 32.0456 28.7254 32.0397C28.3131 32.0953 27.9159 32.3041 27.6548 32.6363C27.4951 32.8398 27.7627 32.5861 27.765 32.5752C27.7477 32.6619 27.3978 32.8769 27.311 32.9645C27.2669 33.0089 27.2002 33.0659 27.1658 33.1171C27.1017 33.1744 27.1158 33.1653 27.2075 33.0898C27.2202 33.0803 27.2278 33.0748 27.2375 33.0674C27.2084 33.1603 26.9646 33.2571 26.8432 33.3629C26.5253 33.3512 26.2372 33.4341 26.0243 33.719C25.8029 34.0154 25.7423 34.4494 25.9499 34.7767C26.4571 35.5765 27.3469 36.0996 28.3049 35.9708C28.9403 35.8855 29.5849 35.6235 29.9856 35.1046C30.4467 34.5082 30.7431 33.7549 30.4294 33.011Z" fill="#E0DFE6"/>
<path d="M24.4938 26.3286C23.7984 25.6297 22.9775 25.4297 22.0165 25.5356C20.7724 25.6726 19.5751 26.3348 19.5377 27.7283C19.5118 28.6886 20.3249 29.3094 21.2017 29.3923C20.6898 29.3438 21.0844 29.4064 21.4719 29.4152C21.5637 29.4173 21.6587 29.4085 21.751 29.4087C22.1691 29.4108 22.5631 29.3444 22.9633 29.23C23.7426 29.0071 24.3312 28.5645 24.6894 27.8435C24.939 27.3401 24.904 26.7409 24.4938 26.3286Z" fill="#E0DFE6"/>
<path d="M32.1844 24.6736C31.9868 24.4175 31.7043 24.1922 31.3796 24.1184C30.9536 24.0214 30.5804 24.0876 30.1861 24.2746C29.8997 24.4104 29.6501 24.5886 29.4548 24.8412C29.336 24.9947 29.2255 25.1523 29.1146 25.3111C28.9796 25.5043 28.9141 25.8207 28.9141 26.0521C28.9141 26.3788 29.032 26.686 29.2293 26.9416C29.5704 27.3829 30.2167 27.6561 30.7724 27.4676C30.9583 27.4047 31.1412 27.3417 31.3223 27.2653C31.6181 27.1406 31.8513 26.9468 32.0633 26.7072C32.579 26.1253 32.6731 25.3061 32.1844 24.6736Z" fill="#E0DFE6"/>
<path d="M52.1487 4.90689C51.954 4.28028 51.0857 4.29028 50.8861 4.90689C50.2136 6.9852 50.0151 9.39313 49.2668 11.4782C49.2235 11.4726 49.1815 11.4676 49.1359 11.4609C48.367 11.3471 47.9965 11.1298 47.3637 10.7019C46.5077 10.123 45.732 9.89772 44.7249 10.3403C42.779 11.1962 40.6107 13.588 40.4004 15.7104C40.3331 16.3896 41.1447 16.681 41.6542 16.4299C42.7016 15.9139 43.4655 14.9923 44.4162 14.329C44.6561 14.1614 45.5356 13.8359 45.5377 13.5786C45.802 13.8085 46.0878 14.1367 46.2978 14.2511C46.9773 14.6213 47.8983 14.8224 48.761 14.7603C49.1735 15.4496 49.9692 15.8909 50.8793 15.6231C52.9138 15.0238 52.8938 13.0643 52.9056 11.2677C52.9197 9.16878 52.7753 6.92316 52.1487 4.90689Z" fill="#E0DFE6"/>
<path d="M10.5405 10.4457C10.2465 9.74914 9.53344 9.44275 8.80686 9.59477C8.57368 9.64358 8.36991 9.70974 8.15172 9.80913C8.08939 9.84294 8.02499 9.87323 7.96089 9.90351C7.95589 9.9041 7.93648 9.91057 7.89473 9.92616C7.61009 10.0364 7.22754 10.242 7.01965 10.3222C6.60828 10.4813 6.29307 10.7668 6.23808 11.2294C6.19074 11.6284 6.36422 12.1324 6.75913 12.3164C7.24342 12.5423 7.73065 12.7466 8.27552 12.7378C8.85714 12.7284 9.46022 12.6205 9.93922 12.2806C10.5417 11.8533 10.8414 11.1588 10.5405 10.4457Z" fill="#E0DFE6"/>
<path d="M19.3627 7.32223C18.8005 6.62035 18.0592 5.90582 17.2918 5.42917C17.1635 5.35301 17.0318 5.2845 16.898 5.2204C16.898 5.1807 16.8983 5.14218 16.8963 5.09425C17.0645 4.65554 16.9515 4.0601 16.8292 3.62638C16.7001 3.16767 16.0662 2.81746 15.6342 3.14032C14.186 4.223 13.3563 6.10959 14.6445 7.60099C15.2293 8.27817 15.8845 8.87332 16.4481 9.57109C17.0374 10.3009 17.6864 11.0707 18.7123 11.1028C20.8591 11.1698 20.2043 8.37256 19.3627 7.32223Z" fill="#E0DFE6"/>
<path d="M19.4287 43.575C17.6047 43.7829 16.3983 44.8756 14.9886 45.9973C13.8739 46.8845 12.324 47.8213 12.3593 49.4121C12.3704 49.914 12.5183 50.4207 12.7727 50.8547C13.2129 51.6051 14.5199 52.1473 12.4513 52.0556C11.1587 51.9982 10.2889 51.6568 9.02656 52.2102C8.62313 52.3869 8.86013 52.973 9.2368 52.9865C10.9064 53.0465 12.2002 54.43 13.9642 54.1253C15.0198 53.943 15.904 53.2238 16.2498 52.2114C16.4124 51.735 16.4362 51.3007 16.3374 50.7976C16.1516 49.8526 15.9102 50.161 16.939 49.7017C18.384 49.0566 20.3111 47.7346 20.9877 46.292C21.4994 45.2005 20.9219 43.4048 19.4287 43.575Z" fill="#E0DFE6"/>
<path d="M52.9792 51.3915C52.8322 49.2762 52.5173 47.1484 52.183 45.0551C51.7966 42.6354 47.7955 43.6155 48.4333 46.089C48.8229 47.6007 49.6459 49.7472 49.6659 51.4621C46.8719 52.4151 43.4736 51.3101 40.6643 51.8902C40.0533 52.0164 39.7443 52.9747 40.2703 53.3825C42.9647 55.4708 48.1895 55.5208 51.3493 54.4267C52.8243 53.9159 53.0798 52.8391 52.9792 51.3915Z" fill="#E0DFE6"/>
<path d="M35.5385 25.7007C35.4011 25.7007 35.2632 25.6566 35.1468 25.5651C32.5148 23.4986 31.161 20.5367 30.2965 18.0108C26.8083 19.8845 22.7157 21.043 17.8149 21.5476C17.6058 21.5667 17.4059 21.4885 17.2703 21.3324C17.1348 21.1762 17.0836 20.9636 17.1336 20.7628C17.3271 19.9853 17.5591 19.2546 17.8281 18.5748C15.9633 19.7072 14.1934 21.2271 12.5486 23.1102C12.3636 23.321 12.0622 23.3871 11.8064 23.2698C11.5509 23.1534 11.4027 22.8826 11.4418 22.6044C12.4956 15.0745 19.2945 9.09391 26.9203 8.98893C33.4607 8.90807 40.127 13.1232 40.2408 21.3715C40.2494 21.9919 40.2179 22.7888 40.1473 23.7406C40.1214 24.0902 39.8233 24.3569 39.4669 24.3266C39.1173 24.3004 38.855 23.9961 38.8809 23.6462C38.9488 22.7314 38.9794 21.9722 38.9711 21.3885C38.8688 13.9739 32.8391 10.1901 26.9376 10.2583C20.8012 10.3427 15.0688 14.7978 13.2069 20.5743C15.0118 18.8315 16.9442 17.4718 18.9743 16.5191C19.226 16.4 19.5254 16.4606 19.7127 16.6656C19.9003 16.8705 19.9326 17.174 19.7923 17.4136C19.3245 18.2152 18.929 19.1426 18.6118 20.18C23.2362 19.6104 27.0811 18.414 30.3415 16.533C30.5079 16.4365 30.7088 16.4209 30.8875 16.4903C31.0666 16.5597 31.2048 16.7064 31.2633 16.8896C32.0599 19.3831 33.3105 22.5091 35.931 24.5666C36.2068 24.7833 36.2548 25.182 36.0383 25.4581C35.9128 25.6172 35.7266 25.7007 35.5385 25.7007Z" fill="url(#paint0_linear_2658_166881)"/>
<path d="M37.3023 30.8855C37.0094 30.8855 36.7459 30.6817 36.6821 30.3836C36.6089 30.041 36.8271 29.7031 37.1699 29.6296C38.6913 29.3035 41.2383 28.3705 41.2028 25.7882C41.1878 24.7017 40.7799 24.2948 39.7516 24.3171C38.9989 24.3274 38.1512 24.6412 37.4837 25.1563C37.2064 25.3707 36.8077 25.3195 36.5933 25.0419C36.379 24.7641 36.4304 24.3653 36.708 24.1513C37.5981 23.4644 38.701 23.0621 39.734 23.0477C41.4748 23.0092 42.4477 23.991 42.4724 25.7712C42.5074 28.3188 40.6717 30.1774 37.436 30.8717C37.3911 30.8811 37.3461 30.8855 37.3023 30.8855Z" fill="url(#paint1_linear_2658_166881)"/>
<path d="M30.1008 44.0133C20.7769 44.0142 13.6804 36.8865 13.5487 27.3342C13.5108 24.5949 14.0706 21.7062 15.1668 18.9807C15.298 18.6554 15.6685 18.4972 15.9928 18.6284C16.318 18.7595 16.4756 19.1289 16.3451 19.4544C15.3109 22.0255 14.7831 24.7439 14.8187 27.3168C14.9416 36.2314 21.617 42.8792 30.3369 42.7418C37.4801 42.643 37.7259 38.684 38.0659 33.2036C38.1376 32.0471 38.2117 30.8516 38.3576 29.631C38.399 29.2828 38.716 29.0329 39.063 29.0758C39.4111 29.117 39.6596 29.4334 39.6181 29.7812C39.4767 30.9659 39.4038 32.1433 39.3332 33.2821C38.9945 38.7408 38.6745 43.8966 30.3542 44.0115C30.2698 44.013 30.1849 44.0133 30.1008 44.0133Z" fill="url(#paint2_linear_2658_166881)"/>
<path d="M40.723 15.2377C40.5613 15.2377 40.3995 15.1763 40.2757 15.0533C40.027 14.8061 40.0255 14.4044 40.2725 14.1556L45.4418 8.94809C45.6791 8.70874 46.062 8.69756 46.3142 8.92074L49.4452 11.7036L50.572 1.79045L41.2264 2.3012C41.5113 2.72286 41.7907 3.14599 42.0644 3.56177C42.512 4.23955 42.9742 4.94114 43.445 5.60862C43.6467 5.89414 43.579 6.28904 43.2944 6.49193C42.4005 7.12766 41.5363 7.84307 40.7006 8.53466C39.6488 9.40504 38.5615 10.3054 37.3797 11.0802C37.0859 11.2731 36.6928 11.1911 36.5005 10.8976C36.3082 10.6044 36.3902 10.211 36.6831 10.019C37.8061 9.28242 38.8658 8.40499 39.8908 7.55696C40.5877 6.98005 41.304 6.38696 42.0512 5.82798C41.6939 5.30634 41.3449 4.77677 41.0044 4.26101C40.5313 3.54354 40.042 2.80167 39.5412 2.09743C39.4074 1.90895 39.3866 1.66224 39.4868 1.45377C39.5874 1.24558 39.7932 1.10826 40.024 1.09532L51.253 0.481947C51.4386 0.476948 51.6212 0.544872 51.7497 0.680427C51.8779 0.816276 51.9396 1.00211 51.9185 1.18765L50.5685 13.0627C50.5417 13.2982 50.3859 13.4996 50.1648 13.5843C49.9436 13.6687 49.6931 13.6228 49.5161 13.4658L45.9199 10.2695L41.1735 15.0498C41.0497 15.1751 40.8862 15.2377 40.723 15.2377Z" fill="url(#paint3_linear_2658_166881)"/>
<path d="M50.6628 53.3788C50.6463 53.3788 50.6302 53.378 50.6137 53.3768L39.0022 52.4746C38.7563 52.4555 38.5437 52.2962 38.457 52.065C38.3703 51.8345 38.4252 51.574 38.5976 51.3979C39.5312 50.444 40.49 49.4395 41.6633 48.1878L37.1332 43.3251C36.8942 43.0684 36.9086 42.6668 37.165 42.4277C37.4217 42.1881 37.823 42.2025 38.0624 42.4595L42.9965 47.7558C43.2238 47.9996 43.2235 48.3783 42.9959 48.6218C42.0326 49.6533 41.2137 50.519 40.4486 51.3138L49.9077 52.0486C49.7713 51.1485 49.6522 50.1899 49.5475 49.1422C49.3899 47.5656 49.2814 45.963 49.1767 44.4134C49.1388 43.8521 49.1006 43.2905 49.0603 42.7282C48.9138 42.9003 48.7686 43.0717 48.6248 43.2416C48.1152 43.8444 47.588 44.4672 47.0378 45.0553C46.9117 45.1906 46.7341 45.2653 46.5485 45.2558C46.3639 45.2485 46.1922 45.1609 46.0772 45.0162L40.8023 38.372C40.5844 38.0976 40.6303 37.6983 40.9049 37.4801C41.1796 37.2622 41.5789 37.3081 41.7968 37.5824L46.6073 43.6418C46.9637 43.2396 47.3133 42.8259 47.6556 42.4218C48.1237 41.8687 48.6074 41.2968 49.1114 40.749C49.2823 40.5635 49.5469 40.4973 49.7848 40.5782C50.0233 40.6599 50.1906 40.8755 50.2115 41.1266C50.2994 42.1951 50.3717 43.2622 50.4438 44.3273C50.5478 45.8672 50.6555 47.4588 50.8113 49.0155C50.9448 50.3511 51.1009 51.5355 51.2888 52.6376C51.3218 52.8302 51.2638 53.0277 51.1321 53.1718C51.011 53.3044 50.8404 53.3788 50.6628 53.3788Z" fill="url(#paint4_linear_2658_166881)"/>
<path d="M14.7257 53.3292C14.6919 53.3292 14.6581 53.3268 14.6243 53.3209L3.53347 51.5273C3.36057 51.4996 3.20708 51.4011 3.10887 51.2562C3.01095 51.1112 2.97714 50.9321 3.01536 50.7613L5.34773 40.3983C5.40242 40.1557 5.59355 39.9672 5.83702 39.9163C6.08078 39.8654 6.33102 39.961 6.47863 40.161L8.54194 42.9638C9.24059 42.4136 9.81074 41.8952 10.3656 41.3915C11.4789 40.38 12.5304 39.425 14.3337 38.4802C14.6445 38.3173 15.028 38.4373 15.1909 38.7481C15.3538 39.0589 15.2335 39.4423 14.9233 39.6052C13.2637 40.4744 12.3166 41.3351 11.2195 42.3316C10.5132 42.9732 9.7831 43.6366 8.79188 44.3708C8.65662 44.4714 8.48784 44.5131 8.31935 44.4887C8.15262 44.4634 8.00266 44.3729 7.90269 44.2373L6.28132 42.0346L4.40267 50.3817L13.3105 51.8225L11.258 48.9888C11.0581 48.713 11.1116 48.3286 11.3795 48.1178L18.181 42.758C18.4565 42.541 18.8556 42.5886 19.0726 42.8632C19.2896 43.139 19.2422 43.5378 18.9667 43.7548L12.6439 48.7377L15.2403 52.3221C15.3908 52.5303 15.4014 52.8084 15.2665 53.0275C15.1494 53.2168 14.9436 53.3292 14.7257 53.3292Z" fill="url(#paint5_linear_2658_166881)"/>
<path d="M12.5392 14.4278C12.3225 14.4278 12.1117 14.3169 11.9929 14.1173L9.2356 9.48196C8.72278 9.90274 8.21556 10.3441 7.72038 10.7749C7.38753 11.0642 7.05378 11.3544 6.7171 11.6402C6.53185 11.7973 6.27339 11.8349 6.05021 11.7373C5.82791 11.6388 5.68059 11.4224 5.67177 11.1798L5.28363 0.657668C5.27658 0.46595 5.35656 0.281584 5.50123 0.155439C5.6456 0.0292934 5.83967 -0.0227526 6.02816 0.00871025L16.5782 1.86443C16.8108 1.9053 17.0016 2.07232 17.0734 2.29756C17.1448 2.52279 17.0854 2.76862 16.9193 2.93652L14.5025 5.37415L18.9597 9.46402C19.2181 9.70131 19.2355 10.1027 18.9982 10.3614C18.7621 10.6199 18.3601 10.6364 18.1013 10.4L13.1576 5.86403C13.0305 5.747 12.9564 5.5838 12.952 5.4109C12.9479 5.23859 13.0144 5.07158 13.1358 4.94925L15.1624 2.90505L6.58155 1.39543L6.89206 9.81276C7.57895 9.21496 8.28936 8.59747 9.018 8.02967C9.1615 7.91734 9.34616 7.87383 9.52582 7.90617C9.70489 7.93999 9.86074 8.04908 9.95395 8.2058L13.0844 13.4686C13.2637 13.77 13.1646 14.1593 12.8632 14.3387C12.7612 14.3993 12.6495 14.4278 12.5392 14.4278Z" fill="url(#paint6_linear_2658_166881)"/>
<path d="M18.9247 28.8735C18.9123 28.8735 18.9 28.8732 18.8873 28.8723C18.5374 28.8523 18.2701 28.5524 18.2901 28.2022C18.408 26.1524 19.5942 24.0629 21.6337 24.0347C22.0124 24.0367 22.4256 24.262 22.7478 24.6727C23.0548 25.0641 23.2274 25.5481 23.2342 26.0362C23.2471 26.9666 22.7784 27.4862 21.9154 27.4982C21.0112 27.4941 20.3452 27.0151 20.1852 26.2338C19.7912 26.8531 19.593 27.6617 19.5577 28.2748C19.5383 28.6127 19.2587 28.8735 18.9247 28.8735ZM21.6713 25.3702C21.6549 25.3879 21.6372 25.4049 21.6184 25.4211C21.4884 25.5325 21.4152 25.6934 21.4176 25.863C21.4193 25.9927 21.4158 26.2238 21.8978 26.2288C21.921 26.2285 21.9401 26.2277 21.956 26.2265C21.9613 26.1891 21.9657 26.1336 21.9645 26.0542C21.9601 25.7398 21.7937 25.4914 21.6713 25.3702Z" fill="url(#paint7_linear_2658_166881)"/>
<path d="M27.4204 26.8744C27.3525 26.8744 27.2831 26.8636 27.2148 26.84C26.8832 26.7268 26.7061 26.366 26.8194 26.0341C27.1772 24.9873 28.0155 22.5346 30.1994 22.5046C31.061 22.5114 31.6017 22.8278 31.8993 23.111C32.2592 23.4535 32.4777 23.9272 32.4838 24.3774C32.4897 24.7935 32.3054 25.2049 31.9781 25.5054C31.7376 25.7262 31.3065 25.9914 30.6175 26.0008C30.0353 26.0029 29.6775 25.7665 29.4808 25.5615C29.2291 25.2995 29.0876 24.939 29.082 24.5468C29.0812 24.4744 29.0853 24.4018 29.0941 24.3286C28.7071 24.7585 28.361 25.4495 28.0208 26.4448C27.9308 26.7089 27.6844 26.8744 27.4204 26.8744ZM30.6269 23.8202C30.6181 23.9334 30.5787 24.0454 30.507 24.1439C30.4067 24.2816 30.3502 24.4221 30.3517 24.5294C30.3526 24.5974 30.3694 24.6544 30.3961 24.682C30.4276 24.715 30.5023 24.7279 30.5996 24.7317C30.8248 24.7288 31.0092 24.6715 31.1189 24.5706C31.1897 24.5056 31.2144 24.4359 31.2139 24.3956C31.213 24.3312 31.1721 24.1725 31.0233 24.031C30.921 23.9328 30.7869 23.8622 30.6269 23.8202Z" fill="url(#paint8_linear_2658_166881)"/>
<path d="M26.3487 34.9827C26.1106 34.9827 25.5613 34.8942 25.2955 34.1291C25.1776 33.7891 25.1485 33.4128 25.1449 33.1564C25.1379 32.6421 25.227 32.1066 25.3128 31.5885C25.399 31.0698 25.4884 30.5335 25.481 30.0227C25.4757 29.6496 25.4202 29.3235 25.3102 29.0259C25.189 28.6969 25.3575 28.332 25.6866 28.2108C26.015 28.0894 26.3805 28.2579 26.5019 28.5869C26.6622 29.0221 26.7436 29.4858 26.7507 30.0054C26.7595 30.6293 26.6607 31.2227 26.5655 31.7967C26.4852 32.2807 26.409 32.7379 26.4146 33.1384C26.4181 33.3869 26.4514 33.5686 26.4837 33.6783C26.8189 33.5507 27.4458 33.1008 27.7707 32.8679C27.993 32.7088 28.2036 32.5583 28.3871 32.4401C28.6817 32.2495 29.0745 32.3351 29.2645 32.6297C29.4542 32.9244 29.3692 33.3175 29.0743 33.5072C28.9064 33.6154 28.7138 33.7539 28.5103 33.8997C27.7743 34.4275 27.013 34.973 26.362 34.9821C26.3579 34.9827 26.3535 34.9827 26.3487 34.9827Z" fill="url(#paint9_linear_2658_166881)"/>
<path d="M30.0663 38.9074C29.6314 38.9074 29.1994 38.82 28.7819 38.6483C28.4576 38.5148 28.3032 38.144 28.4367 37.8197C28.5705 37.4957 28.9413 37.3416 29.2656 37.4745C29.5379 37.5865 29.8216 37.6389 30.0948 37.6374C30.9561 37.6259 31.8097 37.0543 32.3228 36.1463C32.4957 35.8417 32.8832 35.7337 33.1879 35.9061C33.4931 36.0784 33.6007 36.4656 33.4284 36.7711C32.6936 38.0705 31.4233 38.8894 30.1124 38.9071C30.0972 38.9068 30.0819 38.9074 30.0663 38.9074Z" fill="url(#paint10_linear_2658_166881)"/>
<path d="M5.59295 16.1784C5.25186 16.1784 4.97016 15.9075 4.95899 15.5647L4.93194 14.7158C4.92135 14.3653 5.19716 14.0727 5.54767 14.0624C5.89317 14.0409 6.19104 14.3273 6.20133 14.6778L6.22809 15.5226C6.23955 15.8731 5.96492 16.1666 5.61441 16.1781C5.60736 16.1784 5.60001 16.1784 5.59295 16.1784Z" fill="url(#paint11_linear_2658_166881)"/>
<path d="M6.29083 30.9545C5.95533 30.9545 5.6751 30.6916 5.65746 30.3526L5.57807 28.8376C5.55954 28.4874 5.82859 28.1887 6.17851 28.1702C6.52636 28.1613 6.82746 28.4204 6.84599 28.7706L6.92538 30.2861C6.94361 30.6363 6.67456 30.9351 6.32435 30.9533C6.31318 30.9542 6.30201 30.9545 6.29083 30.9545ZM6.03207 26.031C5.69657 26.031 5.41634 25.7681 5.3987 25.4291L5.32078 23.913C5.30313 23.5628 5.57248 23.2646 5.92239 23.2467C6.26701 23.2326 6.57106 23.4981 6.5887 23.8486L6.66662 25.3629C6.68485 25.7131 6.4158 26.0119 6.06559 26.0301C6.05442 26.0307 6.04325 26.031 6.03207 26.031ZM5.78949 21.1063C5.45222 21.1063 5.1714 20.8411 5.15552 20.5003C5.13229 19.9948 5.10995 19.4888 5.08848 18.9824C5.07349 18.6322 5.34548 18.3361 5.69568 18.3211C6.05413 18.3035 6.34229 18.5781 6.35699 18.9286C6.37846 19.4332 6.4008 19.9375 6.42403 20.4421C6.43991 20.7923 6.1691 21.0893 5.81889 21.1051C5.80919 21.106 5.79919 21.1063 5.78949 21.1063Z" fill="url(#paint12_linear_2658_166881)"/>
<path d="M6.50314 35.2066C6.16616 35.2066 5.88535 34.9417 5.86917 34.6015L5.82889 33.7555C5.81184 33.4056 6.08206 33.1077 6.43227 33.091C6.77777 33.0727 7.08005 33.3438 7.09681 33.6943L7.13739 34.5421C7.15386 34.8923 6.88334 35.1898 6.53283 35.206C6.52313 35.206 6.51284 35.2066 6.50314 35.2066Z" fill="url(#paint13_linear_2658_166881)"/>
<path d="M20.0746 2.77917C20.0663 2.77917 20.0581 2.77917 20.0499 2.77888L19.2015 2.74506C18.8513 2.73007 18.5793 2.43367 18.5943 2.08375C18.6093 1.73325 18.9084 1.46361 19.2554 1.47626L20.0984 1.51007C20.4486 1.5233 20.7218 1.81853 20.7085 2.16903C20.6956 2.51041 20.4142 2.77917 20.0746 2.77917Z" fill="url(#paint14_linear_2658_166881)"/>
<path d="M25.9429 2.89479C25.9426 2.89479 25.942 2.89479 25.942 2.89479C25.3374 2.89361 24.7335 2.88891 24.1286 2.88126C23.7778 2.87656 23.4976 2.58869 23.502 2.23819C23.5067 1.88769 23.7931 1.61775 24.1451 1.61158C24.7452 1.61952 25.3448 1.62393 25.9438 1.6251C26.2945 1.62598 26.578 1.91062 26.5774 2.26112C26.5768 2.61133 26.2928 2.89479 25.9429 2.89479ZM30.0054 2.85833C29.6608 2.85833 29.3779 2.58222 29.3708 2.23613C29.3638 1.88533 29.6425 1.5954 29.993 1.58835C30.5926 1.57629 31.1922 1.56188 31.7923 1.54453C32.156 1.51895 32.4354 1.81035 32.4454 2.16085C32.4554 2.51135 32.1796 2.80364 31.8291 2.81363C31.2248 2.83098 30.6214 2.84627 30.018 2.85833C30.0139 2.85833 30.0098 2.85833 30.0054 2.85833Z" fill="url(#paint15_linear_2658_166881)"/>
<path d="M35.8727 2.65725C35.536 2.65725 35.2555 2.39261 35.239 2.05299C35.222 1.70278 35.4922 1.40521 35.8421 1.38845L36.6857 1.3464C37.0345 1.33023 37.3341 1.59781 37.3523 1.94772C37.3703 2.29793 37.1009 2.59668 36.7507 2.61432L35.9039 2.65637C35.8933 2.65666 35.883 2.65725 35.8727 2.65725Z" fill="url(#paint16_linear_2658_166881)"/>
<path d="M49.0659 17.6776C48.7457 17.6776 48.4705 17.4362 48.4355 17.1104L48.3437 16.2709C48.3052 15.9222 48.5563 15.6084 48.9051 15.5699C49.2518 15.5323 49.5673 15.7828 49.6058 16.1312L49.6978 16.9749C49.7355 17.3233 49.4832 17.6362 49.1347 17.6738C49.1115 17.6764 49.0886 17.6776 49.0659 17.6776Z" fill="url(#paint17_linear_2658_166881)"/>
<path d="M50.3541 32.9203C50.0209 32.9203 49.7413 32.6606 49.721 32.3233C49.6895 31.8026 49.6569 31.2812 49.6231 30.7611C49.6004 30.4109 49.8657 30.1089 50.2156 30.086C50.5675 30.0636 50.8675 30.3285 50.8904 30.6782C50.9242 31.201 50.9569 31.7238 50.9883 32.2472C51.0095 32.5974 50.7428 32.8976 50.3929 32.9188C50.3799 32.92 50.367 32.9203 50.3541 32.9203ZM50.0065 27.8333C49.6778 27.8333 49.3996 27.5798 49.374 27.2467C49.334 26.7262 49.2932 26.206 49.2508 25.6856C49.2226 25.3362 49.4825 25.0301 49.8321 25.0016C50.1856 24.9772 50.4879 25.2333 50.5164 25.5832C50.5587 26.1052 50.6002 26.6274 50.6399 27.1502C50.6666 27.4998 50.4049 27.805 50.0553 27.8318C50.0391 27.8327 50.0227 27.8333 50.0065 27.8333ZM49.5772 22.7519C49.2532 22.7519 48.9765 22.5049 48.9459 22.1758C48.898 21.6569 48.8486 21.1373 48.798 20.6168C48.7639 20.2681 49.0191 19.9576 49.3681 19.9232C49.713 19.8879 50.0277 20.1443 50.0615 20.4936C50.1127 21.0155 50.1621 21.5378 50.2103 22.0585C50.2426 22.4078 49.9859 22.7169 49.6366 22.7492C49.6166 22.751 49.5969 22.7519 49.5772 22.7519Z" fill="url(#paint18_linear_2658_166881)"/>
<path d="M50.5849 37.2924C50.2476 37.2924 49.9668 37.0271 49.9509 36.6869L49.9109 35.8424C49.8939 35.4922 50.1641 35.1947 50.5143 35.1779C50.8557 35.1623 51.1621 35.4314 51.1788 35.7813L51.2191 36.6281C51.2353 36.9786 50.9645 37.2753 50.6143 37.2915C50.6046 37.2921 50.5943 37.2924 50.5849 37.2924Z" fill="url(#paint19_linear_2658_166881)"/>
<path d="M19.1946 52.5037C19.192 52.5037 19.1893 52.5037 19.187 52.5037L18.343 52.4955C17.9925 52.4932 17.7106 52.2065 17.7129 51.8563C17.7153 51.5069 17.999 51.2258 18.3477 51.2258C18.3492 51.2258 18.351 51.2258 18.3525 51.2258L19.2017 51.2341C19.5522 51.2382 19.8333 51.5258 19.8291 51.8763C19.825 52.2244 19.5416 52.5037 19.1946 52.5037Z" fill="url(#paint20_linear_2658_166881)"/>
<path d="M29.4923 52.6396C29.1445 52.6396 28.861 52.3594 28.8578 52.0106C28.8545 51.6601 29.1362 51.3734 29.4867 51.3699C30.1063 51.364 30.7264 51.3528 31.3466 51.3352C31.68 51.3134 31.9893 51.6004 31.9996 51.9509C32.0099 52.3014 31.7338 52.594 31.3833 52.604C30.7547 52.6225 30.1266 52.6337 29.4985 52.6396C29.4964 52.6396 29.4944 52.6396 29.4923 52.6396ZM25.2789 52.6161C25.2754 52.6161 25.2719 52.6161 25.2681 52.6161C24.6429 52.6058 24.0181 52.5934 23.3932 52.5805C23.0427 52.5731 22.7643 52.2832 22.7716 51.9324C22.7787 51.5819 23.0666 51.3102 23.4194 51.3108C24.0425 51.3237 24.6659 51.3361 25.2892 51.3464C25.6397 51.3523 25.9194 51.641 25.9135 51.9915C25.9079 52.3388 25.6247 52.6161 25.2789 52.6161Z" fill="url(#paint21_linear_2658_166881)"/>
<path d="M35.5716 52.3651C35.2464 52.3651 34.9691 52.1164 34.94 51.7862C34.9091 51.4368 35.1673 51.1287 35.5166 51.0981C35.7945 51.0737 36.0727 51.0469 36.3502 51.0178C36.6963 50.9849 37.0113 51.2345 37.0474 51.5835C37.0839 51.932 36.8307 52.2446 36.482 52.2807C36.197 52.3104 35.9127 52.3375 35.6281 52.3625C35.6093 52.3642 35.5904 52.3651 35.5716 52.3651Z" fill="url(#paint22_linear_2658_166881)"/>
</g>
</g>
<defs>
<linearGradient id="paint0_linear_2658_166881" x1="13.8361" y1="8.98779" x2="38.3217" y2="8.98779" gradientUnits="userSpaceOnUse">
<stop stop-color="#DC2430"/>
<stop offset="1" stop-color="#7B4397"/>
</linearGradient>
<linearGradient id="paint1_linear_2658_166881" x1="36.9619" y1="23.0466" x2="42.0721" y2="23.0466" gradientUnits="userSpaceOnUse">
<stop stop-color="#DC2430"/>
<stop offset="1" stop-color="#7B4397"/>
</linearGradient>
<linearGradient id="paint2_linear_2658_166881" x1="15.7199" y1="18.5823" x2="37.8843" y2="18.5823" gradientUnits="userSpaceOnUse">
<stop stop-color="#DC2430"/>
<stop offset="1" stop-color="#7B4397"/>
</linearGradient>
<linearGradient id="paint3_linear_2658_166881" x1="37.6903" y1="0.481689" x2="50.8875" y2="0.481689" gradientUnits="userSpaceOnUse">
<stop stop-color="#DC2430"/>
<stop offset="1" stop-color="#7B4397"/>
</linearGradient>
<linearGradient id="paint4_linear_2658_166881" x1="38.1575" y1="37.3425" x2="50.3422" y2="37.3425" gradientUnits="userSpaceOnUse">
<stop stop-color="#DC2430"/>
<stop offset="1" stop-color="#7B4397"/>
</linearGradient>
<linearGradient id="paint5_linear_2658_166881" x1="4.35073" y1="38.4075" x2="18.1282" y2="38.4075" gradientUnits="userSpaceOnUse">
<stop stop-color="#DC2430"/>
<stop offset="1" stop-color="#7B4397"/>
</linearGradient>
<linearGradient id="paint6_linear_2658_166881" x1="6.44005" y1="-0.000244141" x2="18.2399" y2="-0.000244141" gradientUnits="userSpaceOnUse">
<stop stop-color="#DC2430"/>
<stop offset="1" stop-color="#7B4397"/>
</linearGradient>
<linearGradient id="paint7_linear_2658_166881" x1="18.7012" y1="24.0347" x2="22.9048" y2="24.0347" gradientUnits="userSpaceOnUse">
<stop stop-color="#DC2430"/>
<stop offset="1" stop-color="#7B4397"/>
</linearGradient>
<linearGradient id="paint8_linear_2658_166881" x1="27.2601" y1="22.5046" x2="32.1041" y2="22.5046" gradientUnits="userSpaceOnUse">
<stop stop-color="#DC2430"/>
<stop offset="1" stop-color="#7B4397"/>
</linearGradient>
<linearGradient id="paint9_linear_2658_166881" x1="25.4963" y1="28.1714" x2="29.0842" y2="28.1714" gradientUnits="userSpaceOnUse">
<stop stop-color="#DC2430"/>
<stop offset="1" stop-color="#7B4397"/>
</linearGradient>
<linearGradient id="paint10_linear_2658_166881" x1="28.8155" y1="35.824" x2="33.1691" y2="35.824" gradientUnits="userSpaceOnUse">
<stop stop-color="#DC2430"/>
<stop offset="1" stop-color="#7B4397"/>
</linearGradient>
<linearGradient id="paint11_linear_2658_166881" x1="5.03971" y1="14.0613" x2="6.14198" y2="14.0613" gradientUnits="userSpaceOnUse">
<stop stop-color="#DC2430"/>
<stop offset="1" stop-color="#7B4397"/>
</linearGradient>
<linearGradient id="paint12_linear_2658_166881" x1="5.24109" y1="18.3203" x2="6.8037" y2="18.3203" gradientUnits="userSpaceOnUse">
<stop stop-color="#DC2430"/>
<stop offset="1" stop-color="#7B4397"/>
</linearGradient>
<linearGradient id="paint13_linear_2658_166881" x1="5.93729" y1="33.0901" x2="7.05077" y2="33.0901" gradientUnits="userSpaceOnUse">
<stop stop-color="#DC2430"/>
<stop offset="1" stop-color="#7B4397"/>
</linearGradient>
<linearGradient id="paint14_linear_2658_166881" x1="18.77" y1="1.47583" x2="20.568" y2="1.47583" gradientUnits="userSpaceOnUse">
<stop stop-color="#DC2430"/>
<stop offset="1" stop-color="#7B4397"/>
</linearGradient>
<linearGradient id="paint15_linear_2658_166881" x1="24.2473" y1="1.54297" x2="31.8494" y2="1.54297" gradientUnits="userSpaceOnUse">
<stop stop-color="#DC2430"/>
<stop offset="1" stop-color="#7B4397"/>
</linearGradient>
<linearGradient id="paint16_linear_2658_166881" x1="35.4145" y1="1.3457" x2="37.2122" y2="1.3457" gradientUnits="userSpaceOnUse">
<stop stop-color="#DC2430"/>
<stop offset="1" stop-color="#7B4397"/>
</linearGradient>
<linearGradient id="paint17_linear_2658_166881" x1="48.4533" y1="15.5662" x2="49.6108" y2="15.5662" gradientUnits="userSpaceOnUse">
<stop stop-color="#DC2430"/>
<stop offset="1" stop-color="#7B4397"/>
</linearGradient>
<linearGradient id="paint18_linear_2658_166881" x1="48.9778" y1="19.9199" x2="50.8432" y2="19.9199" gradientUnits="userSpaceOnUse">
<stop stop-color="#DC2430"/>
<stop offset="1" stop-color="#7B4397"/>
</linearGradient>
<linearGradient id="paint19_linear_2658_166881" x1="50.0193" y1="35.1772" x2="51.1325" y2="35.1772" gradientUnits="userSpaceOnUse">
<stop stop-color="#DC2430"/>
<stop offset="1" stop-color="#7B4397"/>
</linearGradient>
<linearGradient id="paint20_linear_2658_166881" x1="17.8892" y1="51.2258" x2="19.6881" y2="51.2258" gradientUnits="userSpaceOnUse">
<stop stop-color="#DC2430"/>
<stop offset="1" stop-color="#7B4397"/>
</linearGradient>
<linearGradient id="paint21_linear_2658_166881" x1="23.5405" y1="51.3108" x2="31.3847" y2="51.3108" gradientUnits="userSpaceOnUse">
<stop stop-color="#DC2430"/>
<stop offset="1" stop-color="#7B4397"/>
</linearGradient>
<linearGradient id="paint22_linear_2658_166881" x1="35.1136" y1="51.0149" x2="36.91" y2="51.0149" gradientUnits="userSpaceOnUse">
<stop stop-color="#DC2430"/>
<stop offset="1" stop-color="#7B4397"/>
</linearGradient>
<clipPath id="clip0_2658_166881">
<rect width="55" height="55" fill="white"/>
</clipPath>
<clipPath id="clip1_2658_166881">
<rect width="50" height="55.1337" fill="white" transform="translate(3)"/>
</clipPath>
</defs>
</svg>
