<svg width="55" height="55" viewBox="0 0 55 55" fill="none" xmlns="http://www.w3.org/2000/svg">
<g clip-path="url(#clip0_2658_166638)">
<path d="M11.6339 14.5522C11.2985 13.1914 11.516 11.8626 10.553 10.7421C10.4133 10.5793 10.2263 10.4778 10.0242 10.4224C9.8872 10.1693 9.71299 9.94904 9.4861 9.78555C9.31257 9.66036 9.00474 9.70847 8.86473 9.86581C8.54298 10.2275 8.42714 10.6995 8.33616 11.1793C8.32362 11.2244 8.31473 11.2696 8.31108 11.3149C8.2673 11.5546 8.22534 11.794 8.16286 12.02C7.92115 12.8972 7.37024 13.6866 7.18485 14.5641C7.05328 15.1873 7.42428 15.7731 7.93027 16.0118C7.92047 17.1059 6.85444 18.1491 7.03048 19.2186C6.2903 19.4733 5.58318 19.7875 4.96409 20.2894C4.62045 20.5681 4.80584 21.2207 5.23111 21.3009C6.7687 21.5905 8.52337 21.2172 10.0523 20.9571C11.2563 20.7523 12.0042 20.2107 12.2594 18.9557C12.5656 17.4486 11.9885 15.9911 11.6339 14.5522ZM9.71253 18.4451C9.68563 18.491 9.61494 18.5329 9.51734 18.5717C9.53809 18.2983 9.52692 18.0189 9.49522 17.7558C9.44574 17.3437 9.33697 16.9821 9.16162 16.6056C9.06425 16.3965 8.93542 16.2187 8.80225 16.0442C8.94636 15.9849 9.0866 15.8942 9.21521 15.7574C9.32284 16.1968 9.42887 16.6359 9.52738 17.0754C9.5764 17.294 9.85026 18.2093 9.71253 18.4451Z" fill="#E0DFE6"/>
<path d="M51.7268 12.3323C51.3745 12.0569 50.941 12.0626 50.6639 12.3376C50.3682 11.5481 49.7929 10.8921 48.9303 10.9327C48.806 10.9386 48.6427 11.0264 48.6238 11.1662C48.5622 11.6179 48.6714 11.9969 48.6899 12.4511C48.7266 13.3505 48.4019 13.8708 48.0156 14.6514C47.3605 15.9755 48.043 17.2739 47.5432 18.5458C47.1587 19.5241 47.9974 20.251 48.8646 20.3026C48.705 20.4444 48.5552 20.5992 48.4229 20.7748C48.302 20.9353 48.3853 21.2407 48.5663 21.3221C50.2435 22.0757 52.8405 20.6886 53.4176 18.9973C54.0399 17.1761 53.2685 13.5377 51.7268 12.3323ZM50.3723 19.1964C50.6651 18.4323 50.5018 17.789 50.3226 16.915C50.1751 16.1951 50.36 15.6814 50.5602 15.1293C50.7574 15.7826 51.0131 16.4327 51.1398 17.0874C51.3455 18.1507 50.9501 18.7262 50.3723 19.1964Z" fill="#E0DFE6"/>
<path d="M39.2281 15.2248C39.1165 14.8157 38.4094 14.7555 38.3378 15.2248C38.2995 15.4759 38.2646 15.7283 38.2311 15.9812C38.0717 15.2419 37.7951 14.5138 37.301 14.0699C37.9452 12.2913 35.1744 10.9755 33.884 10.4725C33.2469 10.2242 32.8077 11.2727 33.4177 11.5787C33.8231 11.7818 34.1777 12.0131 34.489 12.3006C34.2149 12.1189 33.9417 11.9038 33.6003 11.8341C32.9721 11.7059 32.3302 11.8783 31.7547 12.123C30.5838 12.6208 29.3688 13.3607 28.597 14.3866C28.3502 14.7147 28.7561 15.1154 29.095 15.0344C30.0919 14.7966 31.0188 14.3059 32.0342 14.1219C32.7336 13.9951 32.9103 14.0042 33.3924 14.4495C33.6952 14.7293 34.0206 14.8967 34.4235 14.9676C34.7138 15.0187 34.9721 14.9767 35.1917 14.8743C35.1195 15.8941 35.7584 16.953 35.7951 18.0252C35.8523 19.7049 35.262 21.252 34.1779 22.5224C32.4219 24.5797 29.3935 25.2122 28.2595 27.8236C27.1588 27.8653 26.064 27.923 25.0042 28.1855C24.9332 28.203 24.9006 28.2897 24.9367 28.3512C25.6447 29.5591 27.4498 29.5931 28.6952 29.768C30.0041 29.9515 31.3367 30.0261 32.6456 29.8546C32.7313 30.2778 33.1352 30.6009 33.6368 30.4844C35.926 29.9534 37.6629 28.1588 38.7348 26.0892C39.3355 25.1502 39.7238 24.0873 39.8141 22.955C40.29 20.3967 39.9076 17.7172 39.2281 15.2248ZM36.6395 23.6712C35.6161 25.1568 34.6823 26.6264 32.7202 27.267C31.8648 27.5461 30.9878 27.6685 30.1044 27.7346C30.436 27.5073 30.7687 27.2813 31.1189 27.0827C31.9528 26.61 32.8542 26.2853 33.7086 25.8559C34.9845 25.2147 36.0637 24.3001 36.8753 23.144C36.8021 23.3237 36.7241 23.4999 36.6395 23.6712Z" fill="#E0DFE6"/>
<path d="M46.4536 33.302C45.5292 33.0179 44.7724 33.206 43.8929 33.5953C43.5971 33.7262 43.0373 34.1387 42.6973 34.1209C42.156 34.0928 41.8078 33.6247 41.4578 33.2829C40.1094 31.9658 38.5771 30.3315 36.7686 29.6803C36.4555 29.5676 36.2277 29.8994 36.2765 30.1724C36.3239 30.4382 36.3999 30.7007 36.4874 30.9611C36.0679 31.1011 35.727 31.3928 35.6228 31.8481C35.607 31.917 35.6435 31.9943 35.7158 32.0121C36.225 32.138 36.6439 32.4 37.0504 32.7028C37.1626 32.7862 37.2883 32.8526 37.4182 32.9016C37.685 33.3481 37.9669 33.7807 38.2353 34.1939C38.9333 35.2683 39.7124 36.5047 40.8786 37.1224C43.0216 38.2575 46.5065 36.8531 47.127 34.488C47.262 33.9731 46.9571 33.4569 46.4536 33.302Z" fill="#E0DFE6"/>
<path d="M53.9914 29.5953C53.8024 29.2191 53.2743 29.2799 53.0704 29.5953C52.4844 30.501 52.2488 31.5887 52.0065 32.668C51.7647 32.2803 51.0912 32.3077 50.7947 32.7008C48.9675 35.125 47.5412 38.0027 44.812 39.5581C43.5216 40.2934 42.0898 40.7249 40.6026 40.7944C39.1929 40.8603 37.9497 40.3354 36.5836 40.1815C36.276 40.1468 36.1164 40.534 36.247 40.768C36.4735 41.1739 36.7626 41.5157 37.0973 41.8032C36.9473 41.7628 36.797 41.7245 36.6479 41.6796C36.0952 41.5136 35.6231 41.8292 35.4334 42.2859C35.1174 41.3811 34.8159 40.4271 34.4502 39.6887C34.2915 39.3683 33.8224 39.4094 33.653 39.6887C32.9119 40.9109 32.8692 42.3819 33.082 43.7611C33.2517 44.8611 33.7332 46.9256 35.0629 47.1254C35.65 47.2136 36.1469 47.0367 36.481 46.7183C36.8002 46.904 37.2556 46.8629 37.326 46.4064C37.433 45.7123 37.4512 45.01 37.4446 44.3063C41.3496 45.6443 45.9227 44.3181 49.056 41.7467C50.8976 40.2355 52.3015 38.2419 53.2323 36.0581C54.0475 34.1463 54.9895 31.5823 53.9914 29.5953Z" fill="#E0DFE6"/>
<path d="M30.8236 32.1772C30.7965 31.6767 30.664 31.2482 30.5434 30.762C30.4045 29.7938 29.0507 30.1534 28.9627 30.9759C28.8868 31.686 29.0587 32.1582 29.5084 32.4948C29.9432 34.278 29.0794 35.9193 28.0166 37.4763C27.3068 38.5163 26.3648 40.2915 27.3405 41.4002C27.4322 41.5044 27.6347 41.5345 27.7507 41.4531C28.5468 40.894 28.7775 39.8736 29.4413 39.1498C30.0898 38.4427 30.7149 37.8006 31.0806 36.8825C31.6213 35.5258 31.1814 33.756 30.8236 32.1772Z" fill="#E0DFE6"/>
<path d="M17.2314 36.199C16.8145 35.3119 16.117 35.1332 15.2494 34.7986C14.2346 34.4076 13.2172 34.0236 12.1995 33.64C11.7186 33.4588 11.6513 33.4417 11.3759 33.067C11.0947 32.6848 10.9953 31.9905 10.8316 31.554C10.5367 30.7685 10.2179 30.0796 9.67591 29.4295C9.45997 29.1705 9.01691 29.323 8.9387 29.624C8.92798 29.6655 8.92228 29.7072 8.91248 29.7487C8.70497 29.2165 8.45437 28.7199 8.1495 28.2919C7.99033 28.0684 7.60565 28.0693 7.53086 28.3728C7.32039 29.2263 7.35687 30.1307 7.30944 31.0059C7.25449 32.0185 7.14412 33.0264 7.1252 34.0411C7.11676 34.5004 7.38195 34.9512 7.77781 35.1788C7.84645 35.2182 7.91531 35.2579 7.98395 35.2973C8.26738 35.4604 8.6222 35.4633 8.90541 35.2973C8.9729 35.2579 9.0404 35.2182 9.10789 35.1788C9.2308 35.1067 9.34276 35.0089 9.4399 34.8967C9.57923 35.1069 9.75321 35.3028 9.9817 35.4807C10.8183 36.1317 12.0305 36.4222 13.0131 36.8003C14.1555 37.2399 15.4553 38.0936 16.6677 37.5851C17.2615 37.3359 17.5157 36.8037 17.2314 36.199Z" fill="#E0DFE6"/>
<path d="M20.7474 41.8228C20.6578 41.4981 20.4475 41.271 20.1908 41.1387C20.4799 40.6742 20.6493 40.1605 20.6445 39.6009C20.6404 39.1197 20.2899 38.5853 19.7935 38.4833C18.694 38.2571 18.2585 38.5766 17.534 39.371C16.7792 40.1983 15.9237 40.8452 14.8123 41.0986C12.4308 41.6415 10.7835 40.3965 8.93623 39.1469C8.74948 39.0206 8.45669 39.1859 8.47334 39.4125C8.61563 41.3711 10.2478 42.8669 12.0769 43.5604C12.086 43.6874 12.1558 43.8151 12.2921 43.865C14.1505 44.5477 15.8247 44.8806 17.8086 44.4966C19.2002 44.2278 21.2509 43.6477 20.7474 41.8228Z" fill="#E0DFE6"/>
<path d="M7.36223 15.4746C7.34946 15.4746 7.33691 15.4744 7.32369 15.4744C5.20759 15.4537 3.88184 13.7232 3.82256 12.0624C3.78835 11.1029 4.14635 10.1723 4.83089 9.44285C5.54143 8.68557 6.53152 8.23521 7.54738 8.20694C7.62628 8.20397 7.70632 8.20511 7.7875 8.21013C9.48926 8.31844 10.9459 9.93812 10.9717 11.7464C10.9858 12.7349 10.5776 13.7439 9.87988 14.4449C9.20902 15.1189 8.33932 15.4744 7.36223 15.4746ZM7.63244 9.19019C7.61328 9.19019 7.59778 9.19817 7.57497 9.19088C6.81952 9.21208 6.0814 9.54934 5.54895 10.1164C5.04547 10.653 4.78164 11.3316 4.80672 12.0271C4.84936 13.2258 5.80639 14.4745 7.33349 14.4896C8.23762 14.4921 8.84144 14.0926 9.18188 13.7501C9.69654 13.2331 9.99754 12.4891 9.98705 11.7603C9.96881 10.4678 8.91327 9.26818 7.72798 9.1927C7.69697 9.19065 7.66482 9.19019 7.63244 9.19019Z" fill="url(#paint0_linear_2658_166638)"/>
<path d="M3.69182 20.8988C3.59171 20.8988 3.49343 20.8682 3.41043 20.8103C3.30212 20.7351 3.22869 20.6192 3.20657 20.4893C3.14729 20.1408 3.11719 19.786 3.11719 19.4337C3.11719 17.3233 4.17888 15.3037 5.82182 14.2883C6.0519 14.146 6.35609 14.2165 6.49952 14.4486C6.64249 14.6796 6.57066 14.9833 6.33922 15.1263C5.22576 15.8145 4.10204 17.4132 4.10204 19.4337C4.10204 19.5658 4.10705 19.6982 4.11709 19.8303C5.25745 19.6348 6.42336 19.4891 7.55574 19.3475C8.61082 19.2157 9.69738 19.0798 10.7531 18.9045C10.4348 16.8974 9.73363 15.5021 8.75813 14.9505C8.52167 14.8169 8.43798 14.5165 8.57183 14.2796C8.70546 14.0425 9.00668 13.9604 9.24269 14.0933C10.1817 14.6242 11.3871 15.9492 11.7957 19.2477C11.8281 19.5074 11.6518 19.7468 11.3944 19.7929C10.1678 20.0131 8.90202 20.1714 7.67751 20.3244C6.38847 20.4856 5.05565 20.6523 3.78212 20.8904C3.75224 20.8958 3.72192 20.8988 3.69182 20.8988Z" fill="url(#paint1_linear_2658_166638)"/>
<path d="M48.4254 15.8348C47.6464 15.8348 46.8987 15.5212 46.3161 14.9498C45.7392 14.3838 45.4045 13.6373 45.3986 12.9019C45.3853 11.3415 46.4963 10.0219 47.9281 9.89831C48.001 9.89147 48.0792 9.88851 48.1511 9.88896C48.8135 9.89443 49.3377 10.0385 49.8508 10.3569C50.8698 10.9899 51.4278 11.9754 51.382 13.0611C51.3332 14.211 50.2897 15.8149 48.4562 15.8345C48.4459 15.8348 48.4357 15.8348 48.4254 15.8348ZM48.1451 10.8738C48.1007 10.8738 48.0567 10.8754 48.0133 10.8793C47.0898 10.9591 46.3738 11.8441 46.3829 12.8937C46.3868 13.3625 46.6199 13.8683 47.0057 14.2473C47.4077 14.6417 47.9146 14.8495 48.4459 14.8502C49.6697 14.8369 50.3659 13.7787 50.3978 13.0196C50.4288 12.2885 50.0501 11.64 49.3311 11.1935C48.9765 10.9737 48.6217 10.8779 48.1451 10.8738Z" fill="url(#paint2_linear_2658_166638)"/>
<path d="M44.5198 21.0967C44.3885 21.0967 44.2615 21.0443 44.1684 20.9492C44.0635 20.8425 44.0129 20.694 44.0309 20.5456C44.2765 18.5024 44.9681 15.8056 46.8699 14.561C47.0968 14.4123 47.4023 14.4755 47.5512 14.7033C47.7003 14.9306 47.6365 15.2357 47.4089 15.3846C45.9958 16.31 45.3692 18.3241 45.0938 20.0507C46.6576 19.8927 48.2656 19.7402 49.8465 19.7402C50.2542 19.7402 50.6414 19.7497 51.0177 19.7696C50.7607 16.6454 50.1795 15.497 49.7243 15.0889C49.5221 14.9071 49.5052 14.5959 49.6865 14.3934C49.868 14.1913 50.1788 14.1736 50.3819 14.3558C51.3057 15.1844 51.8329 17.0627 52.0413 20.2669C52.0506 20.4099 51.9971 20.5499 51.8951 20.6502C51.793 20.7506 51.6548 20.7987 51.5093 20.7896C50.9805 20.7458 50.4364 20.7246 49.8465 20.7246C48.2025 20.7246 46.5025 20.8974 44.8589 21.0643L44.5695 21.0935C44.5529 21.0958 44.5362 21.0967 44.5198 21.0967Z" fill="url(#paint3_linear_2658_166638)"/>
<path d="M28.4535 29.8988C24.8203 29.8988 22.283 26.832 21.2975 23.672C21.2635 23.6727 21.2302 23.6729 21.1972 23.6729C19.9686 23.6729 18.6426 22.8696 18.6426 21.5719C18.6426 20.6468 19.0533 19.7449 19.7312 19.145C19.6851 18.8971 19.6511 18.6408 19.6511 18.3854C19.6511 16.3405 21.2813 13.1926 23.443 11.0637C25.4139 9.12274 28.4229 8.43091 30.5821 8.43091C32.1719 8.43091 33.7209 8.77956 35.1871 9.46775C37.7387 10.6653 38.9272 12.9855 38.9272 16.7696C38.927 25.3895 32.1087 29.8988 28.4535 29.8988ZM21.661 22.6664C21.8813 22.6664 22.0771 22.814 22.1357 23.0297C22.9315 25.9587 25.1936 28.9142 28.4535 28.9142C31.6741 28.9142 37.9421 24.6275 37.9421 16.7694C37.9421 13.3661 36.9632 11.3889 34.768 10.3587C33.4343 9.73272 32.0255 9.4153 30.5816 9.4153C28.6179 9.4153 25.8925 10.0326 24.1337 11.7647C21.944 13.9214 20.6355 16.8244 20.6355 18.385C20.6355 18.6527 20.693 18.953 20.7548 19.2371C20.7968 19.4307 20.7192 19.6305 20.5573 19.7443C19.9923 20.1426 19.6272 20.86 19.6272 21.5714C19.6272 22.3602 20.6497 22.6879 21.1972 22.6879C21.3251 22.6879 21.4665 22.6815 21.617 22.668C21.6318 22.6671 21.6466 22.6664 21.661 22.6664Z" fill="url(#paint4_linear_2658_166638)"/>
<path d="M21.6171 21.5587C21.5277 21.5587 21.4376 21.5345 21.3564 21.4839C21.1259 21.3398 21.0559 21.0358 21.1998 20.8053C22.876 18.1235 23.1478 16.8091 23.3102 16.0238C23.6057 14.595 23.8223 14.5231 27.4386 13.323C28.815 12.8663 30.7003 12.2406 33.3347 11.3052C33.5899 11.2154 33.8715 11.3478 33.9629 11.6037C34.4851 13.0631 36.388 13.7916 37.893 14.1457C38.1577 14.208 38.3219 14.473 38.2594 14.7377C38.1972 15.0018 37.9322 15.1673 37.6675 15.1041C35.428 14.5772 33.9093 13.6423 33.236 12.3851C30.8143 13.2402 29.0537 13.8247 27.7489 14.2572C24.4555 15.3502 24.4555 15.3502 24.2752 16.2231C24.0991 17.0732 23.805 18.4958 22.0357 21.327C21.9413 21.4766 21.781 21.5587 21.6171 21.5587Z" fill="url(#paint5_linear_2658_166638)"/>
<path d="M29.482 23.869C29.0389 23.869 28.6066 23.7245 28.1608 23.4271C27.9346 23.2762 27.8732 22.9704 28.0242 22.7444C28.1751 22.5177 28.4809 22.4569 28.7069 22.6078C28.986 22.7941 29.2396 22.8844 29.482 22.8844C31.3675 22.8844 31.3675 22.1983 31.3675 21.9399C31.3675 21.3094 31.0034 20.8661 30.5421 20.3045C29.9604 19.5958 29.2359 18.7138 29.2359 17.2275C29.2359 15.6648 30.4347 14.3938 31.9084 14.3938C32.2908 14.3938 32.6755 14.4775 33.0524 14.6421C33.3014 14.7511 33.415 15.0412 33.306 15.2906C33.1974 15.539 32.9083 15.6539 32.6575 15.5442C32.4062 15.4343 32.154 15.3784 31.9084 15.3784C30.9776 15.3784 30.2205 16.208 30.2205 17.2275C30.2205 18.3615 30.7466 19.0016 31.303 19.6795C31.8188 20.3077 32.3521 20.9567 32.3521 21.9399C32.3524 22.8201 31.8541 23.869 29.482 23.869Z" fill="url(#paint6_linear_2658_166638)"/>
<path d="M27.2192 26.144C26.1985 26.144 25.3345 25.5979 25.0178 24.7526C24.9223 24.4981 25.0516 24.2142 25.306 24.1189C25.5605 24.0233 25.8444 24.1526 25.9397 24.4071C26.1481 24.9624 26.759 25.1594 27.2192 25.1594C27.3717 25.1594 27.5172 25.1398 27.652 25.1015C27.9126 25.0264 28.1856 25.1781 28.2606 25.4396C28.3354 25.7009 28.184 25.9737 27.9224 26.0482C27.6999 26.1116 27.4634 26.144 27.2192 26.144Z" fill="url(#paint7_linear_2658_166638)"/>
<path d="M26.7518 19.3408C26.5908 19.3408 26.3707 19.3408 26.197 19.162C26.0303 18.9898 26.0367 18.7848 26.0403 18.6745L26.0417 18.6063C26.0417 18.5757 26.0446 18.5463 26.0497 18.5176C26.0969 17.8618 26.4612 17.7195 26.7702 17.7195C27.203 17.7195 27.5421 18.0656 27.5421 18.5075C27.5419 18.9825 27.2021 19.3408 26.7518 19.3408Z" fill="url(#paint8_linear_2658_166638)"/>
<path d="M32.6487 18.2C32.5071 18.2 32.3375 18.1706 32.1929 18.0425C32.1407 17.9959 32.0978 17.9414 32.0654 17.881C31.9266 17.7941 31.834 17.6395 31.834 17.4633C31.834 17.1915 32.0545 16.971 32.3263 16.971C32.3578 16.971 32.3897 16.9664 32.4212 16.9625C32.456 16.9586 32.4907 16.9552 32.5247 16.9527C32.591 16.9399 32.6592 16.9406 32.7249 16.9545C33.048 16.9901 33.2851 17.1921 33.3989 17.5321C33.4489 17.6822 33.424 17.8475 33.3312 17.9761C33.2389 18.1043 33.0902 18.1806 32.9319 18.1806H32.8854C32.8745 18.1813 32.8567 18.1838 32.8373 18.1861C32.7869 18.192 32.7215 18.2 32.6487 18.2Z" fill="url(#paint9_linear_2658_166638)"/>
<path d="M25.36 17.1073C25.1797 17.1073 25.0054 17.0077 24.9192 16.8353C24.7977 16.592 24.8962 16.2964 25.1395 16.1747C25.8592 15.8151 26.6133 15.6545 27.5849 15.6545C27.8567 15.6545 28.0772 15.875 28.0772 16.1469C28.0772 16.4187 27.8567 16.6392 27.5849 16.6392C26.7631 16.6392 26.1636 16.7634 25.5801 17.0555C25.5089 17.0907 25.4339 17.1073 25.36 17.1073Z" fill="url(#paint10_linear_2658_166638)"/>
<path d="M36.5369 46.8645C36.3417 46.8645 36.1567 46.7475 36.0799 46.5548C35.2152 44.3931 35.0086 42.0878 34.8834 40.0966C34.8716 39.9062 34.9705 39.7259 35.1377 39.6342C35.305 39.5423 35.5098 39.5551 35.6646 39.6675C37.788 41.2124 40.1069 42.0287 42.37 42.0287C50.8018 42.0287 53.9274 27.798 54.0149 27.3294C54.0136 27.102 53.978 26.8346 53.0385 26.8346C51.8589 26.8346 51.3466 27.8244 50.7507 29.2225C50.32 30.234 49.9132 31.1892 48.9721 31.1892C48.0641 31.1892 47.8452 30.1886 47.6525 29.3055C47.4888 28.5564 47.3365 27.9663 47.0448 27.8586C46.7582 28.3074 46.4789 30.1239 46.4789 30.6812C46.4789 32.0236 46.8492 32.0776 47.3615 32.1526C47.7335 32.2071 48.5074 32.3207 48.5074 33.2946C48.5074 34.2434 46.9055 38.088 43.5264 38.088C40.6783 38.088 39.0794 35.5639 37.5333 33.1227C37.3423 32.821 37.1516 32.52 36.9589 32.2249C36.2391 31.121 35.1509 30.9126 30.1088 30.9126L28.9419 30.9135C25.9028 30.9135 23.3617 30.6663 23.0727 30.6372C20.6616 30.6474 19.9143 32.1702 19.0494 33.9328C18.1549 35.7559 17.1411 37.8223 14.0301 37.8223C10.679 37.8223 8.07538 34.6972 8.07538 33.9043C8.07538 33.8086 8.10434 33.7137 8.15679 33.6332C8.17252 33.6095 8.5417 33.0353 8.5417 32.1526C8.5417 31.3507 8.02202 28.9162 7.72331 28.2228C7.00479 28.3343 6.64884 28.9757 6.49515 29.3723C6.42697 29.5486 6.26347 29.6703 6.0749 29.6851C5.88609 29.6977 5.70595 29.6058 5.61086 29.4423C4.82052 28.0862 4.30814 26.9675 3.98388 25.8796C2.92515 26.0289 1.93506 26.3144 1.03161 26.7315C1.45278 28.911 3.83612 32.4956 5.77025 35.4043C6.83217 37.0014 7.74907 38.3807 8.23386 39.3496C9.57079 42.0235 12.0574 43.2414 13.8021 43.2414C16.1206 43.2414 18.1448 42.0308 20.1716 39.4317C20.3008 39.2664 20.5223 39.2016 20.7197 39.2689C20.9188 39.3375 21.0522 39.5243 21.0522 39.7345L21.052 46.2456C21.052 46.5174 20.8315 46.7379 20.5597 46.7379C20.2878 46.7379 20.0673 46.5174 20.0673 46.2456L20.0676 41.0899C18.6549 42.6467 16.6287 44.226 13.8023 44.226C11.6962 44.226 8.88556 42.8544 7.35345 39.7899C6.89602 38.8751 5.99486 37.5193 4.95072 35.9495C2.74433 32.6315 0.243549 28.8704 0.00252389 26.4957C-0.0179986 26.2932 0.0880342 26.0992 0.269544 26.0068C1.47763 25.3939 2.83143 25.0046 4.29332 24.8494C4.53571 24.8215 4.76123 24.9796 4.82211 25.2167C5.05926 26.1423 5.44144 27.0815 6.03522 28.1863C6.51157 27.5645 7.17627 27.2215 7.94586 27.2215C8.38778 27.2215 8.65959 27.546 9.10196 29.4671C9.3065 30.356 9.52678 31.5755 9.52678 32.1529C9.52678 32.9927 9.27549 33.6234 9.1088 33.949C9.48026 34.6003 11.424 36.8379 14.0305 36.8379C16.5277 36.8379 17.287 35.2907 18.1658 33.4994C19.0506 31.6963 20.053 29.6528 23.0976 29.6528C23.1149 29.6528 23.1323 29.6537 23.1491 29.6553C23.1751 29.6582 25.7833 29.9289 28.9419 29.9289L30.1088 29.928C35.3242 29.928 36.7717 30.135 37.7839 31.687C37.9784 31.9857 38.1714 32.2901 38.365 32.5957C39.8332 34.9138 41.2199 37.1031 43.5264 37.1031C46.2732 37.1031 47.5134 33.8159 47.5225 33.2937C47.5225 33.2027 47.5082 33.171 47.5082 33.1705C47.4854 33.1658 47.3248 33.142 47.2188 33.1265C46.6159 33.0381 45.494 32.8736 45.494 30.6807C45.494 30.6426 45.6251 26.856 46.9454 26.856C48.1252 26.856 48.408 28.1501 48.6143 29.0948C48.6923 29.4519 48.8373 30.1159 48.9819 30.2082C49.2619 30.2041 49.5716 29.4774 49.8448 28.836C50.3815 27.5757 51.1169 25.8493 53.0385 25.8493C54.6593 25.8493 54.9996 26.6681 54.9996 27.3552C54.9996 27.6552 54.1367 31.518 52.1921 35.2955C49.593 40.3441 46.1963 43.0127 42.37 43.0127C40.2001 43.0127 37.9946 42.3338 35.9374 41.0402C36.0719 42.7005 36.3221 44.5085 36.9941 46.1889C37.0951 46.4411 36.9722 46.7277 36.7197 46.8287C36.6598 46.8533 36.5977 46.8645 36.5369 46.8645Z" fill="url(#paint11_linear_2658_166638)"/>
<path d="M3.92763 29.9914C3.74726 29.9914 3.57304 29.8918 3.48685 29.7194C3.39815 29.5415 3.30648 29.3636 3.21436 29.1851C2.68579 28.1597 2.13944 27.0996 2.03135 25.9131C2.00672 25.6422 2.20648 25.4028 2.47714 25.3782C2.74234 25.3542 2.98747 25.5528 3.0121 25.824C3.1024 26.8189 3.58194 27.749 4.08975 28.7341C4.18347 28.916 4.27696 29.0975 4.36772 29.279C4.48926 29.5223 4.39075 29.8179 4.14744 29.9396C4.07653 29.9748 4.00151 29.9914 3.92763 29.9914Z" fill="url(#paint12_linear_2658_166638)"/>
<path d="M51.8288 30.8103C51.7996 30.8103 51.7697 30.8077 51.7401 30.8023C51.4728 30.7535 51.2952 30.4974 51.344 30.2297C51.4895 29.4291 51.8639 28.74 52.226 28.0732C52.4901 27.5873 52.7395 27.1281 52.8793 26.6629C52.9575 26.402 53.2339 26.2559 53.4922 26.3327C53.7529 26.4107 53.9006 26.6852 53.8224 26.9456C53.6539 27.5084 53.368 28.0347 53.0914 28.5434C52.7514 29.1694 52.4301 29.7604 52.3129 30.406C52.2691 30.644 52.0621 30.8103 51.8288 30.8103Z" fill="url(#paint13_linear_2658_166638)"/>
<path d="M27.9025 42.9923C27.7281 42.9923 27.5666 42.8999 27.4782 42.7496C25.3694 39.1632 23.0115 34.9602 21.7241 30.4544C21.6495 30.1928 21.8007 29.9204 22.0623 29.8458C22.3229 29.7717 22.5959 29.9222 22.6709 30.184C23.8418 34.2811 25.9397 38.156 27.9025 41.5256C28.5663 40.4085 29.265 39.3046 29.945 38.2308C31.5302 35.7259 33.1702 33.1358 34.3422 30.4051C34.4494 30.1554 34.7374 30.0392 34.9887 30.1472C35.2384 30.2542 35.354 30.5438 35.2468 30.7937C34.044 33.5959 32.383 36.2198 30.7768 38.7573C29.955 40.0557 29.1054 41.3981 28.3294 42.7455C28.2416 42.8976 28.0801 42.9916 27.9025 42.9923Z" fill="url(#paint14_linear_2658_166638)"/>
<path d="M28.2038 33.3338C27.5653 33.3338 25.9082 33.0746 25.9082 31.8911C25.9082 31.7764 25.9182 31.6533 25.9287 31.526C25.9381 31.4193 25.9479 31.3089 25.9479 31.199C25.9479 31.1206 25.9424 31.0554 25.9312 31.0004C25.8774 30.7341 26.0498 30.4741 26.3166 30.4203C26.5829 30.3688 26.8427 30.5389 26.8967 30.8057C26.9206 30.9256 26.9325 31.0545 26.9325 31.1993C26.9325 31.3375 26.9213 31.4759 26.9097 31.6099C26.9013 31.708 26.8926 31.8029 26.8926 31.8913C26.8926 32.0968 27.6154 32.3494 28.2035 32.3494C28.5022 32.3494 28.7501 32.2899 28.8493 32.2382V31.02C28.8493 30.7482 29.0698 30.5277 29.3416 30.5277C29.6134 30.5277 29.8339 30.7482 29.8339 31.02V32.3082C29.8342 32.9409 29.2096 33.3338 28.2038 33.3338Z" fill="url(#paint15_linear_2658_166638)"/>
<path d="M25.1273 38.3062C25.0721 38.3062 25.0165 38.2968 24.9615 38.2772C24.7054 38.1858 24.572 37.9042 24.6637 37.6481C24.915 36.9442 25.0753 36.2227 25.2452 35.459C25.4559 34.5122 25.6734 33.5329 26.0802 32.5838C26.1871 32.3334 26.477 32.2185 26.7267 32.3252C26.9766 32.4322 27.0924 32.7218 26.9852 32.9717C26.6147 33.8361 26.4163 34.7282 26.2063 35.6727C26.0373 36.432 25.8627 37.2176 25.5906 37.9794C25.5188 38.181 25.3295 38.3062 25.1273 38.3062Z" fill="url(#paint16_linear_2658_166638)"/>
<path d="M30.4305 38.3268C30.2283 38.3268 30.0388 38.2014 29.9667 37.9998C29.4404 36.5252 28.9531 34.9451 28.9531 33.3827C28.9531 33.208 28.9588 33.0336 28.9714 32.8589C28.9905 32.5878 29.2331 32.3817 29.4974 32.4029C29.7686 32.422 29.9729 32.6573 29.9535 32.9289C29.943 33.0799 29.9377 33.2313 29.9377 33.3827C29.9377 34.7167 30.3202 36.0609 30.8941 37.6689C30.9855 37.925 30.8517 38.2064 30.5956 38.2981C30.5416 38.3177 30.4855 38.3268 30.4305 38.3268Z" fill="url(#paint17_linear_2658_166638)"/>
<path d="M6.50455 37.6033C6.32418 37.6033 6.14997 37.5036 6.06378 37.3313C5.94224 37.088 6.04074 36.7924 6.28405 36.6707C7.27392 36.1758 8.14635 35.6069 8.87763 34.9805C9.08377 34.8029 9.39526 34.8277 9.57152 35.0341C9.74847 35.2405 9.72476 35.551 9.51793 35.728C8.726 36.4068 7.78584 37.0205 6.72437 37.5515C6.65414 37.5866 6.57866 37.6033 6.50455 37.6033Z" fill="url(#paint18_linear_2658_166638)"/>
<path d="M50.3217 37.9852C50.2658 37.9852 50.2093 37.9758 50.1536 37.9558C49.1692 37.5987 48.3148 37.0302 47.4882 36.48C47.2488 36.3204 47.008 36.1605 46.7631 36.0045C46.5339 35.8584 46.4662 35.5542 46.6121 35.3248C46.7585 35.0949 47.0627 35.0279 47.2919 35.1738C47.5423 35.3332 47.7883 35.4969 48.0337 35.66C48.8475 36.2018 49.6164 36.7132 50.4895 37.03C50.7449 37.1226 50.8769 37.4049 50.7844 37.6607C50.7118 37.8609 50.523 37.9852 50.3217 37.9852Z" fill="url(#paint19_linear_2658_166638)"/>
<path d="M12.363 11.1346C12.2528 11.1346 12.1416 11.0977 12.0499 11.0218C11.8403 10.8487 11.8107 10.5384 11.9838 10.3288C12.2688 9.98356 12.5716 9.64471 12.8838 9.3216C13.0733 9.12641 13.3848 9.12071 13.58 9.30951C13.7754 9.49855 13.7808 9.81026 13.592 10.0057C13.2974 10.3108 13.0115 10.6305 12.7426 10.9556C12.6453 11.0738 12.5046 11.1346 12.363 11.1346ZM43.2821 10.1977C43.161 10.1977 43.0397 10.1534 42.9449 10.0641C42.7736 9.90307 42.6037 9.74527 42.435 9.58976C42.2346 9.40574 42.2216 9.09425 42.4056 8.89427C42.5903 8.69361 42.9018 8.68152 43.1011 8.86486C43.2732 9.02288 43.4456 9.18341 43.6194 9.34691C43.8175 9.53321 43.8271 9.84469 43.6408 10.0428C43.5441 10.1457 43.4132 10.1977 43.2821 10.1977ZM15.4598 8.21521C15.3089 8.21521 15.1597 8.14589 15.0633 8.01523C14.9018 7.79632 14.9481 7.48826 15.167 7.32681C15.5232 7.0639 15.8965 6.80828 16.2777 6.56589C16.506 6.41949 16.8109 6.48699 16.9573 6.7173C17.1032 6.94669 17.0355 7.25088 16.8059 7.39682C16.4444 7.6269 16.0894 7.86998 15.7517 8.11921C15.6639 8.18374 15.5613 8.21521 15.4598 8.21521ZM40.5264 7.79723C40.4197 7.79723 40.3121 7.76257 40.2215 7.6912C39.877 7.41916 39.5306 7.15853 39.192 6.9175C38.9706 6.75994 38.9188 6.45233 39.0766 6.23091C39.2349 6.00904 39.5427 5.95774 39.7632 6.11553C40.1151 6.36613 40.4744 6.63635 40.8317 6.91864C41.0452 7.08716 41.0814 7.39682 40.9129 7.61002C40.8158 7.73316 40.6719 7.79723 40.5264 7.79723ZM19.142 6.07699C18.9541 6.07699 18.7746 5.96891 18.6926 5.78649C18.581 5.53839 18.6916 5.24697 18.9397 5.13547C19.3411 4.9551 19.7577 4.78225 20.1782 4.62127C20.4304 4.52458 20.7168 4.65114 20.8137 4.90562C20.9108 5.15941 20.7836 5.44399 20.5293 5.54113C20.1264 5.69505 19.7273 5.86082 19.3433 6.03344C19.2779 6.06331 19.2093 6.07699 19.142 6.07699ZM36.9592 5.47158C36.8841 5.47158 36.8084 5.45448 36.7371 5.41845C36.3556 5.22554 35.9665 5.04859 35.5812 4.89285C35.329 4.79092 35.2072 4.50406 35.3091 4.25209C35.4104 4.00012 35.6972 3.87813 35.9499 3.98005C36.361 4.14606 36.7756 4.33464 37.1819 4.54032C37.4246 4.663 37.5217 4.9592 37.3986 5.20183C37.3121 5.37285 37.1391 5.47158 36.9592 5.47158ZM23.1706 4.6915C22.9501 4.6915 22.7492 4.54214 22.6933 4.31867C22.6274 4.05485 22.7875 3.7876 23.0513 3.72147C23.4807 3.61407 23.9199 3.51579 24.3565 3.4296C24.6242 3.37692 24.8821 3.55022 24.935 3.81701C24.9877 4.08358 24.8142 4.34262 24.5476 4.39552C24.1271 4.47852 23.7039 4.57315 23.2905 4.67668C23.2504 4.68648 23.21 4.6915 23.1706 4.6915ZM32.9367 4.10707C32.9076 4.10707 32.8777 4.10456 32.848 4.09908C32.4378 4.02475 32.0151 3.96706 31.5912 3.92761C31.3203 3.90252 31.121 3.66287 31.1463 3.39243C31.1709 3.1213 31.4133 2.92064 31.6815 2.94755C32.1341 2.98927 32.5856 3.05084 33.0241 3.13065C33.2913 3.17899 33.469 3.43552 33.4202 3.70323C33.3771 3.94038 33.17 4.10707 32.9367 4.10707ZM27.3749 3.98461C27.1234 3.98461 26.9088 3.79262 26.8851 3.53722C26.8605 3.26678 27.0598 3.0269 27.3307 3.00204C27.7701 2.96191 28.2182 2.9309 28.6626 2.91015C28.9308 2.89829 29.1647 3.10694 29.1773 3.37875C29.19 3.65033 28.9805 3.88063 28.7087 3.89363C28.2788 3.91393 27.8456 3.94403 27.4205 3.98302C27.4055 3.98393 27.39 3.98461 27.3749 3.98461Z" fill="url(#paint20_linear_2658_166638)"/>
</g>
<defs>
<linearGradient id="paint0_linear_2658_166638" x1="4.41629" y1="8.20532" x2="10.4952" y2="8.20532" gradientUnits="userSpaceOnUse">
<stop stop-color="#DC2430"/>
<stop offset="1" stop-color="#7B4397"/>
</linearGradient>
<linearGradient id="paint1_linear_2658_166638" x1="3.84071" y1="14.0298" x2="11.2207" y2="14.0298" gradientUnits="userSpaceOnUse">
<stop stop-color="#DC2430"/>
<stop offset="1" stop-color="#7B4397"/>
</linearGradient>
<linearGradient id="paint2_linear_2658_166638" x1="45.8973" y1="9.88892" x2="50.9855" y2="9.88892" gradientUnits="userSpaceOnUse">
<stop stop-color="#DC2430"/>
<stop offset="1" stop-color="#7B4397"/>
</linearGradient>
<linearGradient id="paint3_linear_2658_166638" x1="44.6953" y1="14.2297" x2="51.508" y2="14.2297" gradientUnits="userSpaceOnUse">
<stop stop-color="#DC2430"/>
<stop offset="1" stop-color="#7B4397"/>
</linearGradient>
<linearGradient id="paint4_linear_2658_166638" x1="20.333" y1="8.43091" x2="37.5749" y2="8.43091" gradientUnits="userSpaceOnUse">
<stop stop-color="#DC2430"/>
<stop offset="1" stop-color="#7B4397"/>
</linearGradient>
<linearGradient id="paint5_linear_2658_166638" x1="22.554" y1="11.2771" x2="37.1295" y2="11.2771" gradientUnits="userSpaceOnUse">
<stop stop-color="#DC2430"/>
<stop offset="1" stop-color="#7B4397"/>
</linearGradient>
<linearGradient id="paint6_linear_2658_166638" x1="28.3919" y1="14.3938" x2="32.987" y2="14.3938" gradientUnits="userSpaceOnUse">
<stop stop-color="#DC2430"/>
<stop offset="1" stop-color="#7B4397"/>
</linearGradient>
<linearGradient id="paint7_linear_2658_166638" x1="25.2608" y1="24.0874" x2="28.0601" y2="24.0874" gradientUnits="userSpaceOnUse">
<stop stop-color="#DC2430"/>
<stop offset="1" stop-color="#7B4397"/>
</linearGradient>
<linearGradient id="paint8_linear_2658_166638" x1="26.1643" y1="17.7195" x2="27.4419" y2="17.7195" gradientUnits="userSpaceOnUse">
<stop stop-color="#DC2430"/>
<stop offset="1" stop-color="#7B4397"/>
</linearGradient>
<linearGradient id="paint9_linear_2658_166638" x1="31.9665" y1="16.9436" x2="33.3182" y2="16.9436" gradientUnits="userSpaceOnUse">
<stop stop-color="#DC2430"/>
<stop offset="1" stop-color="#7B4397"/>
</linearGradient>
<linearGradient id="paint10_linear_2658_166638" x1="25.1347" y1="15.6545" x2="27.8632" y2="15.6545" gradientUnits="userSpaceOnUse">
<stop stop-color="#DC2430"/>
<stop offset="1" stop-color="#7B4397"/>
</linearGradient>
<linearGradient id="paint11_linear_2658_166638" x1="4.5833" y1="24.8462" x2="51.3329" y2="24.8462" gradientUnits="userSpaceOnUse">
<stop stop-color="#DC2430"/>
<stop offset="1" stop-color="#7B4397"/>
</linearGradient>
<linearGradient id="paint12_linear_2658_166638" x1="2.2285" y1="25.3762" x2="4.26041" y2="25.3762" gradientUnits="userSpaceOnUse">
<stop stop-color="#DC2430"/>
<stop offset="1" stop-color="#7B4397"/>
</linearGradient>
<linearGradient id="paint13_linear_2658_166638" x1="51.5449" y1="26.3123" x2="53.6762" y2="26.3123" gradientUnits="userSpaceOnUse">
<stop stop-color="#DC2430"/>
<stop offset="1" stop-color="#7B4397"/>
</linearGradient>
<linearGradient id="paint14_linear_2658_166638" x1="22.8369" y1="29.8269" x2="34.3814" y2="29.8269" gradientUnits="userSpaceOnUse">
<stop stop-color="#DC2430"/>
<stop offset="1" stop-color="#7B4397"/>
</linearGradient>
<linearGradient id="paint15_linear_2658_166638" x1="26.2353" y1="30.4111" x2="29.5722" y2="30.4111" gradientUnits="userSpaceOnUse">
<stop stop-color="#DC2430"/>
<stop offset="1" stop-color="#7B4397"/>
</linearGradient>
<linearGradient id="paint16_linear_2658_166638" x1="24.834" y1="32.2854" x2="26.8658" y2="32.2854" gradientUnits="userSpaceOnUse">
<stop stop-color="#DC2430"/>
<stop offset="1" stop-color="#7B4397"/>
</linearGradient>
<linearGradient id="paint17_linear_2658_166638" x1="29.1173" y1="32.4014" x2="30.7915" y2="32.4014" gradientUnits="userSpaceOnUse">
<stop stop-color="#DC2430"/>
<stop offset="1" stop-color="#7B4397"/>
</linearGradient>
<linearGradient id="paint18_linear_2658_166638" x1="6.31825" y1="34.8618" x2="9.44487" y2="34.8618" gradientUnits="userSpaceOnUse">
<stop stop-color="#DC2430"/>
<stop offset="1" stop-color="#7B4397"/>
</linearGradient>
<linearGradient id="paint19_linear_2658_166638" x1="46.8917" y1="35.0967" x2="50.5287" y2="35.0967" gradientUnits="userSpaceOnUse">
<stop stop-color="#DC2430"/>
<stop offset="1" stop-color="#7B4397"/>
</linearGradient>
<linearGradient id="paint20_linear_2658_166638" x1="14.5297" y1="2.90967" x2="41.6476" y2="2.90967" gradientUnits="userSpaceOnUse">
<stop stop-color="#DC2430"/>
<stop offset="1" stop-color="#7B4397"/>
</linearGradient>
<clipPath id="clip0_2658_166638">
<rect width="55" height="44.2382" fill="white" transform="translate(0 2.90967)"/>
</clipPath>
</defs>
</svg>
