<svg width="55" height="55" viewBox="0 0 55 55" fill="none" xmlns="http://www.w3.org/2000/svg">
<g clip-path="url(#clip0_2658_166787)">
<path d="M22.689 50.1477C21.7493 49.8517 21.1986 50.379 20.5186 50.8981C20.388 50.9977 20.0542 51.0853 19.7577 51.1509C19.3424 51.2427 18.9685 51.3115 18.793 51.7701C18.357 52.9102 19.8442 53.8132 20.7876 53.8321C22.0823 53.8578 23.8496 53.0939 23.7755 51.5746C23.7421 50.888 23.3424 50.3532 22.689 50.1477Z" fill="#E0DFE6"/>
<path d="M51.6934 23.006C50.4359 24.3192 49.488 25.8672 48.5627 27.4303C48.466 27.434 48.3691 27.4428 48.273 27.4617C46.002 27.9088 44.1843 30.7074 42.4804 32.1866C40.425 33.9711 38.2488 35.6131 36.0955 37.2761C31.7938 40.5983 26.6884 43.84 23.6654 48.438C23.2966 48.9991 23.7772 49.7653 24.3913 49.8068C23.7243 50.5011 23.1113 51.2207 22.5911 51.9737C21.4313 53.6526 23.6606 55.5757 25.276 54.6586C27.0391 53.6576 28.4626 52.0395 29.9532 50.6766C31.2664 49.4757 32.5834 48.2787 33.9224 47.1064C36.8193 44.5704 39.8566 42.3135 42.9756 40.0667C48.2924 36.2368 52.7659 30.3075 52.7319 23.4361C52.7292 22.9189 52.0622 22.6207 51.6934 23.006Z" fill="#E0DFE6"/>
<path d="M15.4625 43.9855C13.5406 44.0662 11.6528 44.4523 9.72165 44.4855C7.93523 44.5163 6.15093 44.4218 4.36956 44.5909C3.48192 44.6751 2.69652 45.6272 3.27376 46.5008C4.32654 48.0944 6.80703 48.309 8.56717 48.468C10.9656 48.6847 13.6901 48.6451 15.9903 47.8855C18.0279 47.2124 17.8006 43.8875 15.4625 43.9855Z" fill="#E0DFE6"/>
<path d="M45.4808 38.2123C44.7106 37.1444 43.2425 37.0568 42.4884 38.2123C41.6597 39.4817 41.8658 40.6707 41.8483 42.1425C41.84 42.8292 41.634 43.7556 41.78 44.4329C41.7447 44.5848 41.7227 44.7056 41.7062 44.8123C41.549 44.8397 41.3932 44.8734 41.2349 44.8941C37.9974 45.4172 34.4294 45.1073 31.2981 46.0929C30.4787 46.3508 30.2249 47.5618 31.0488 48.0018C32.9255 49.0038 35.2026 49.2261 37.3068 49.2848C39.3104 49.3405 41.8902 49.4414 43.7767 48.6602C45.4639 47.9617 45.9075 46.5098 46.0445 44.8145C46.207 42.7946 46.7187 39.9278 45.4808 38.2123Z" fill="#E0DFE6"/>
<path d="M45.2524 13.0105C45.0612 10.9301 45.1276 7.88407 43.4697 6.38175C43.2371 6.17093 42.8547 6.13641 42.6258 6.38175C41.1129 8.00302 41.3577 10.9365 41.2797 13.0105C41.1711 15.9012 41.1522 18.8123 41.235 21.7041C41.315 24.491 45.5243 24.503 45.5728 21.7041C45.6233 18.8113 45.5168 15.8916 45.2524 13.0105Z" fill="#E0DFE6"/>
<path d="M10.7447 3.69163C10.2593 3.55808 9.68393 3.63295 9.24927 3.88732C8.603 4.26542 8.37571 4.85939 8.28809 5.56302C8.308 5.40318 8.35792 5.1504 8.28915 5.45522C8.27216 5.53063 8.25171 5.60471 8.23127 5.67905C8.18401 5.85005 8.12931 6.01839 8.08019 6.18832C8.0393 6.26107 7.99947 6.33701 7.96415 6.41189C7.82635 6.70476 7.74616 6.98223 7.72625 7.30669C7.69571 7.80242 8.09638 8.2469 8.54644 8.38417C9.19935 8.58305 9.88015 8.29602 10.4404 7.9689C11.0644 7.6046 11.482 7.11605 11.9045 6.54252C12.6623 5.5131 11.8575 3.99804 10.7447 3.69163Z" fill="#E0DFE6"/>
<path d="M17.9136 4.96019C17.1805 4.57279 16.3269 4.67555 15.7162 5.24376C15.4785 5.46494 15.3659 5.6816 15.2472 5.96306C15.1827 6.116 15.1485 6.27026 15.1235 6.42692L15.1355 6.33824C15.1243 6.4155 15.1121 6.4925 15.0996 6.56977C15.0439 6.91229 15.0218 7.15498 15.0861 7.50971C15.1039 7.60742 15.123 7.70487 15.144 7.80205C15.2603 8.33893 15.8277 8.72553 16.3582 8.72659C16.7833 8.72739 17.2012 8.64932 17.5674 8.42363C18.1024 8.09359 18.6098 7.65176 18.7468 7.00788C18.909 6.2453 18.6472 5.34785 17.9136 4.96019Z" fill="#E0DFE6"/>
<path d="M25.7085 5.92754C25.4461 5.47934 24.9321 5.05159 24.4167 4.93423C23.8634 4.80811 23.2423 4.83545 22.7514 5.15222C22.6056 5.2648 22.4598 5.37765 22.314 5.49023C22.0461 5.76 21.8608 6.07782 21.7583 6.44398C21.6925 6.6009 21.6635 6.77322 21.6197 6.94103C21.5108 7.14814 21.4017 7.35444 21.3579 7.58943C21.2467 8.18765 21.3101 8.7086 21.6882 9.19795C22.0161 9.62225 22.5721 9.97752 23.1374 9.92521C23.5506 9.88698 23.9645 9.82697 24.3137 9.58269C24.5415 9.42338 24.7701 9.25212 24.9748 9.06307C25.4044 8.66611 25.7626 8.15578 25.9267 7.59262C26.0818 7.05945 25.9875 6.40468 25.7085 5.92754Z" fill="#E0DFE6"/>
<path d="M32.2175 5.70339C31.5521 5.35184 30.7685 5.38344 30.1676 5.84783C29.5261 6.34329 29.2529 7.27049 29.5915 8.02483C29.618 8.14989 29.6446 8.27469 29.6711 8.39975C29.7529 8.78528 30.067 9.08585 30.4154 9.23268C30.8128 9.40049 31.1769 9.35058 31.5592 9.1679C31.6447 9.12701 31.7302 9.08612 31.8157 9.04523C32.0212 8.98469 32.2124 8.89494 32.4044 8.74678C32.7193 8.50357 32.9588 8.17645 33.0658 7.78799C33.2745 7.02887 32.9346 6.08229 32.2175 5.70339Z" fill="#E0DFE6"/>
<path d="M38.2308 6.31483C37.0142 5.57775 35.6112 6.6239 34.949 7.64376C34.6845 8.05133 34.7092 8.62406 34.949 9.03376C35.2076 9.47558 35.6436 9.68056 36.138 9.71588C36.567 9.74641 37.0086 9.65667 37.4228 9.5409C37.665 9.47319 37.9594 9.35424 38.179 9.2167C38.4252 9.06243 38.6312 8.85108 38.7884 8.60733C38.9705 8.32482 38.9896 8.02 39.0258 7.70111C39.0884 7.15095 38.6742 6.58354 38.2308 6.31483Z" fill="#E0DFE6"/>
<path d="M32.8923 14.9688C30.8632 14.2753 28.4114 14.5607 26.2904 14.6332C24.3721 14.6985 22.3682 14.6372 20.6027 15.4669C20.3234 15.5981 20.3269 16.0678 20.6027 16.2003C22.3541 17.0404 24.3851 17.0335 26.2904 17.226C28.4489 17.4443 30.7496 17.9572 32.8923 17.5364C34.273 17.265 34.0373 15.3605 32.8923 14.9688Z" fill="#E0DFE6"/>
<path d="M33.1683 20.4679C31.0753 19.8166 28.437 20.3808 26.2709 20.5781C24.3188 20.756 22.1055 20.7998 20.3257 21.6667C20.0588 21.7966 20.0368 22.2774 20.3257 22.4001C22.1477 23.1733 24.3143 23.1234 26.2709 23.2049C28.4509 23.2957 31.105 23.7447 33.1683 22.9909C34.3613 22.5552 34.4564 20.8688 33.1683 20.4679Z" fill="#E0DFE6"/>
<path d="M32.5897 26.5157C30.9448 25.5838 28.9839 25.9651 27.1531 26.0766C25.1944 26.1961 23.2479 26.3944 21.3144 26.73C20.6168 26.8511 20.632 27.991 21.3144 28.1243C23.2444 28.5016 25.1936 28.735 27.1531 28.8953C28.9911 29.0456 30.9182 29.458 32.5897 28.5571C33.3711 28.1357 33.3451 26.9438 32.5897 26.5157Z" fill="#E0DFE6"/>
<path d="M30.5315 31.9843C29.6184 30.8728 28.1737 31.1665 26.8671 31.2775C25.2957 31.4108 23.765 31.8125 22.1961 31.9567C21.2091 32.0475 21.1863 33.5883 22.1961 33.5174C23.7748 33.4064 25.3034 33.6828 26.8671 33.8769C28.255 34.0492 29.4145 34.4722 30.5315 33.4773C30.9866 33.0721 30.8764 32.4041 30.5315 31.9843Z" fill="#E0DFE6"/>
<path d="M25.356 37.5649C24.3569 36.0241 22.2635 37.0583 20.8177 37.1799C19.6088 37.2816 19.6064 38.96 20.8177 39.0619C22.2627 39.1835 24.3558 40.2193 25.356 38.6769C25.5602 38.362 25.5602 37.8801 25.356 37.5649Z" fill="#E0DFE6"/>
<path d="M50.98 23.4355C50.9651 23.4214 50.9513 23.4063 50.9386 23.3901C51.0103 23.483 51.0822 23.576 51.1539 23.6689C50.9226 23.3452 50.6831 23.1081 50.2891 22.995C50.1407 22.9522 49.9846 22.9461 49.8308 22.9326C49.7982 22.909 49.7676 22.8819 49.7339 22.8606C49.6463 22.8057 49.611 22.7627 49.8067 22.9305C49.4177 22.6047 48.7929 22.5189 48.4193 22.9374C48.0797 23.3176 47.9499 23.7531 48.051 24.2613C48.111 24.5629 48.2576 24.8281 48.4432 25.0682C48.7024 25.4038 49.047 25.672 49.4766 25.7474C49.979 25.8355 50.5485 25.7753 50.9173 25.3738C51.1085 25.1654 51.2187 24.9524 51.3106 24.6864C51.4582 24.2589 51.2872 23.7456 50.98 23.4355Z" fill="#E0DFE6"/>
<path d="M15.1841 45.6929C15.1661 45.6929 15.1483 45.6921 15.1302 45.6902C11.9947 45.3987 9.7516 45.3453 6.46446 45.3453C5.64612 45.3453 4.82779 45.3482 4.00946 45.3517L3.19006 45.3546C2.87648 45.3546 2.62158 45.1053 2.61521 44.7933C2.55388 41.8766 2.44129 38.9083 2.33243 36.0375C2.16914 31.7231 2 27.2615 2 22.8682C2 20.3737 2.03877 19.2088 2.07966 17.9752C2.12267 16.676 2.16728 15.3325 2.16728 12.2782L2.16568 10.1981C2.16568 8.12443 2.18029 6.38421 2.25171 4.63178C2.26393 4.32908 2.50953 4.08799 2.81223 4.08162C3.94494 4.05772 5.13659 4.02347 6.5627 3.97382C6.87362 3.94886 7.14445 4.2104 7.1556 4.52663C7.16649 4.84313 6.91929 5.10839 6.60279 5.1198C5.396 5.16202 4.35596 5.19282 3.37725 5.21619C3.32388 6.77267 3.3122 8.35171 3.3122 10.1984L3.31379 12.2785C3.31379 15.3516 3.26892 16.705 3.22538 18.0135C3.18502 19.237 3.14652 20.3928 3.14652 22.8682C3.14652 27.2398 3.31512 31.6901 3.47842 35.9942C3.58038 38.6853 3.68552 41.4621 3.74925 44.206L4.00521 44.2052C4.82487 44.2017 5.64479 44.1988 6.46446 44.1988C9.78717 44.1988 12.056 44.253 15.2364 44.5487C15.5519 44.578 15.7837 44.8573 15.7542 45.1725C15.7266 45.4701 15.4767 45.6929 15.1841 45.6929Z" fill="url(#paint0_linear_2658_166787)"/>
<path d="M8.77797 5.03945C8.47156 5.03945 8.21746 4.7973 8.20551 4.4885C8.1933 4.172 8.4397 3.90542 8.7562 3.8932C9.63454 3.85922 10.323 3.8239 10.9969 3.78939C11.7842 3.74903 12.5521 3.70999 13.5767 3.67441C13.8922 3.65716 14.1585 3.91099 14.1694 4.22749C14.1802 4.54399 13.9328 4.80925 13.6163 4.82013C12.5993 4.85518 11.837 4.89448 11.0556 4.93431C10.3772 4.96909 9.68446 5.00441 8.80054 5.03892C8.79311 5.03945 8.78541 5.03945 8.77797 5.03945Z" fill="url(#paint1_linear_2658_166787)"/>
<path d="M15.4636 4.76128C15.1545 4.76128 14.8999 4.5154 14.8909 4.20448C14.8818 3.88798 15.1312 3.62405 15.4477 3.61529C17.4 3.55953 19.123 3.53271 20.7153 3.53271L20.9848 3.53298C21.3013 3.53457 21.557 3.79186 21.5557 4.10863C21.5544 4.42433 21.2979 4.67976 20.9824 4.67976C20.98 4.67976 20.7153 4.6795 20.7153 4.6795C19.1341 4.67897 17.4218 4.70605 15.4636 4.76128Z" fill="url(#paint2_linear_2658_166787)"/>
<path d="M28.3842 4.91499C28.375 4.91499 28.3657 4.91473 28.3564 4.9142C26.4207 4.821 24.6906 4.75409 23.2146 4.71559C22.8981 4.70762 22.6482 4.44422 22.6564 4.12772C22.6644 3.81654 22.9196 3.56934 23.2292 3.56934C24.7291 3.6081 26.4677 3.67501 28.4119 3.76901C28.7281 3.78441 28.9721 4.05311 28.9567 4.36908C28.9416 4.67629 28.6883 4.91499 28.3842 4.91499Z" fill="url(#paint3_linear_2658_166787)"/>
<path d="M34.8841 5.28652C34.8717 5.28652 34.8589 5.28626 34.8462 5.28546C33.4631 5.19518 32.0346 5.10889 30.6201 5.03215C30.3039 5.01489 30.0615 4.74433 30.079 4.42836C30.0963 4.11213 30.3684 3.87794 30.6825 3.88723C32.1012 3.96476 33.5337 4.05106 34.9208 4.14133C35.2367 4.16178 35.4762 4.43473 35.4555 4.75097C35.4359 5.05366 35.1834 5.28652 34.8841 5.28652Z" fill="url(#paint4_linear_2658_166787)"/>
<path d="M41.5596 24.1199C41.5447 24.1199 41.5301 24.1196 41.515 24.118C41.1995 24.0939 40.9632 23.8183 40.9874 23.5026C41.1358 21.5722 41.208 19.4781 41.208 17.0998C41.208 14.8591 41.1451 12.5804 41.0843 10.3774C41.0423 8.85887 40.999 7.2939 40.9762 5.73981C39.7787 5.63732 38.3731 5.52845 36.8729 5.42251C36.5569 5.40021 36.319 5.12619 36.3413 4.81049C36.3636 4.49425 36.6405 4.25369 36.9533 4.27892C38.6813 4.40106 40.2856 4.52665 41.593 4.64241C41.8864 4.66843 42.1124 4.91218 42.1156 5.20664C42.1355 6.9219 42.1835 8.66239 42.23 10.3455C42.2913 12.5568 42.3543 14.8432 42.3543 17.0998C42.3543 19.5076 42.281 21.6307 42.1304 23.5905C42.1073 23.8913 41.8561 24.1199 41.5596 24.1199Z" fill="url(#paint5_linear_2658_166787)"/>
<path d="M6.65066 7.95147C6.35514 7.95147 6.10422 7.72445 6.07979 7.42442C6.01713 6.65334 6.00863 5.90086 6.00863 5.266C6.00863 5.03049 6.00996 4.79523 6.01129 4.55972C6.01262 4.32712 6.01394 4.09426 6.01394 3.8614C6.01394 2.97085 5.99589 2.01497 5.86658 1.05698C5.8241 0.743132 6.04395 0.454511 6.35779 0.412028C6.67403 0.368217 6.96052 0.589396 7.00274 0.90324C7.14161 1.92841 7.16073 2.93102 7.16073 3.8614C7.16073 4.09665 7.1594 4.33137 7.15807 4.56636C7.15674 4.79922 7.15542 5.03261 7.15542 5.26574C7.15542 5.87749 7.16338 6.60104 7.22286 7.33148C7.24835 7.64692 7.01336 7.92333 6.69792 7.94908C6.68173 7.95068 6.66606 7.95147 6.65066 7.95147Z" fill="url(#paint6_linear_2658_166787)"/>
<path d="M8.84284 7.81018C8.54758 7.81018 8.29693 7.58396 8.27224 7.28472C8.22232 6.68783 8.19922 6.05801 8.19922 5.30261C8.19922 4.70253 8.21382 4.10113 8.22896 3.50079C8.24356 2.91027 8.25816 2.32029 8.25816 1.73163C8.25816 1.46744 8.25524 1.20271 8.24781 0.938787C8.23878 0.622286 8.4881 0.358359 8.8046 0.349332C9.10597 0.330745 9.38503 0.589362 9.39379 0.905862C9.40176 1.18094 9.40468 1.45602 9.40468 1.73136C9.40468 2.32932 9.38981 2.92913 9.37494 3.52894C9.36034 4.11998 9.34573 4.71156 9.34573 5.30261C9.34573 6.02562 9.36751 6.6249 9.4145 7.18913C9.44079 7.50483 9.20634 7.78177 8.8909 7.80832C8.87497 7.80965 8.85877 7.81018 8.84284 7.81018Z" fill="url(#paint7_linear_2658_166787)"/>
<path d="M13.6347 8.01646C13.3179 8.01646 13.0614 7.7597 13.0614 7.4432C13.0614 5.25134 13.003 3.02787 12.8875 0.836001C12.8708 0.519766 13.1138 0.249998 13.43 0.23327C13.7388 0.222384 14.0157 0.459759 14.0325 0.775462C14.1488 2.98751 14.208 5.23089 14.208 7.4432C14.208 7.7597 13.9515 8.01646 13.6347 8.01646Z" fill="url(#paint8_linear_2658_166787)"/>
<path d="M15.3862 7.91003C15.0538 7.90153 14.8042 7.63761 14.8127 7.32137L14.8156 7.21915C14.8738 5.06737 14.9287 3.03535 14.9287 0.922867C14.9287 0.606367 15.1852 0.349609 15.502 0.349609C15.8188 0.349609 16.0753 0.606367 16.0753 0.922867C16.0753 3.05101 16.0203 5.09074 15.9619 7.25021L15.959 7.35217C15.9505 7.66336 15.6956 7.91003 15.3862 7.91003Z" fill="url(#paint9_linear_2658_166787)"/>
<path d="M21.0307 8.01624C20.7139 8.01624 20.4574 7.75949 20.4574 7.44299C20.4574 6.53889 20.4383 5.62683 20.42 4.7453C20.4017 3.86298 20.3828 2.95039 20.3828 2.04549C20.3828 1.59066 20.3876 1.1337 20.3993 0.674347C20.4072 0.357846 20.6714 0.0925919 20.9871 0.116489C21.3039 0.124454 21.5538 0.38785 21.5455 0.70435C21.5338 1.15334 21.5293 1.60048 21.5293 2.04576C21.5293 2.93897 21.5482 3.84545 21.5665 4.72167C21.5851 5.6093 21.6039 6.52721 21.6039 7.44325C21.6039 7.75949 21.3474 8.01624 21.0307 8.01624Z" fill="url(#paint10_linear_2658_166787)"/>
<path d="M23.158 7.49974C22.8487 7.49974 22.5938 7.25333 22.5853 6.94214C22.5802 6.76 22.5781 6.57758 22.5781 6.39464C22.5781 5.57923 22.6243 4.74948 22.6687 3.94708C22.7125 3.15875 22.7576 2.34333 22.7576 1.55554C22.7576 1.21514 22.7497 0.903949 22.7329 0.604442C22.7154 0.288208 22.9576 0.0176427 23.2735 0.000118393C23.59 -0.0107679 23.8601 0.224748 23.8776 0.540983C23.8954 0.861466 23.9041 1.19337 23.9041 1.55554C23.9041 2.3752 23.8579 3.20681 23.8133 4.01107C23.7695 4.79754 23.7244 5.61109 23.7244 6.39491C23.7244 6.56723 23.7265 6.73929 23.7313 6.91108C23.74 7.22731 23.4905 7.49097 23.158 7.49974Z" fill="url(#paint11_linear_2658_166787)"/>
<path d="M28.4859 8.07441C28.1835 8.07441 27.9304 7.83783 27.914 7.53222C27.7969 5.36212 27.7969 3.13441 27.7969 0.98024C27.7969 0.66374 28.0534 0.406982 28.3701 0.406982C28.6869 0.406982 28.9434 0.66374 28.9434 0.98024C28.9434 3.11954 28.9434 5.33158 29.0592 7.47035C29.0762 7.78658 28.8337 8.05662 28.5175 8.07388C28.5069 8.07414 28.4965 8.07441 28.4859 8.07441Z" fill="url(#paint12_linear_2658_166787)"/>
<path d="M30.752 8.13278C30.4589 8.13278 30.2088 7.90921 30.182 7.61129C30.0882 6.58081 30.0755 5.54024 30.0755 4.5695L30.0789 3.12241C30.0789 1.83889 30.0428 1.5123 30.0364 1.46503C30.0277 1.42547 30.0234 1.38485 30.0234 1.34369C30.0234 1.1018 30.0949 0.883545 30.2356 0.695291C30.4257 0.441454 30.7849 0.389146 31.038 0.579259C31.2809 0.760609 31.3388 1.09808 31.1766 1.34874C31.2008 1.56221 31.2254 2.02767 31.2254 3.12241L31.222 4.5695C31.222 5.51342 31.2342 6.52266 31.3237 7.50748C31.3524 7.82291 31.12 8.10171 30.8046 8.13039C30.7868 8.13198 30.7693 8.13278 30.752 8.13278Z" fill="url(#paint13_linear_2658_166787)"/>
<path d="M34.9485 8.19193C34.6466 8.19193 34.3936 7.95562 34.3768 7.65027C34.3243 6.70502 34.3184 5.76295 34.3126 4.85222C34.3057 3.73491 34.2985 2.57883 34.2032 1.43657C34.1769 1.12086 34.4114 0.843924 34.7268 0.817372C35.0444 0.797458 35.3194 1.02554 35.3457 1.34098C35.4448 2.52785 35.4522 3.7057 35.4591 4.84505C35.4647 5.74197 35.4705 6.66944 35.5215 7.58681C35.539 7.90304 35.2971 8.17361 34.9809 8.19113C34.97 8.1914 34.9594 8.19193 34.9485 8.19193Z" fill="url(#paint14_linear_2658_166787)"/>
<path d="M36.9851 8.07466C36.684 8.07466 36.4312 7.83968 36.4134 7.53486C36.3624 6.66741 36.3398 5.74154 36.3398 4.53183C36.3398 4.03531 36.3436 3.53905 36.347 3.04306C36.3507 2.54919 36.3542 2.05585 36.3542 1.56252C36.3542 1.24602 36.6107 0.989258 36.9274 0.989258C37.2442 0.989258 37.5007 1.24602 37.5007 1.56252C37.5007 2.05904 37.497 2.5553 37.4935 3.05129C37.4898 3.54515 37.4864 4.03849 37.4864 4.53183C37.4864 5.71791 37.5087 6.62333 37.5583 7.46768C37.5769 7.78392 37.3355 8.05501 37.0196 8.07334C37.0079 8.0744 36.9965 8.07466 36.9851 8.07466Z" fill="url(#paint15_linear_2658_166787)"/>
<path d="M26.7846 15.3747C24.4597 15.3747 22.364 15.3481 20.3779 15.2937C20.0614 15.2852 19.8118 15.0215 19.8205 14.705C19.829 14.3883 20.0935 14.1262 20.4092 14.1477C22.3849 14.2019 24.4703 14.2279 26.7846 14.2279C28.6154 14.2279 30.5568 14.2122 33.0803 14.1775C33.3998 14.1639 33.6571 14.4265 33.6616 14.743C33.6658 15.0595 33.4128 15.3197 33.096 15.3242C30.5672 15.359 28.6207 15.3747 26.7846 15.3747Z" fill="url(#paint16_linear_2658_166787)"/>
<path d="M33.1589 21.0701C31.784 21.051 30.4115 20.9982 29.0839 20.9467C27.4515 20.8832 25.7633 20.8179 24.1038 20.8179C22.8745 20.8179 21.7694 20.8529 20.7264 20.9254C20.4049 20.9538 20.1367 20.709 20.1147 20.3933C20.0929 20.0776 20.3311 19.8036 20.6468 19.7821C21.7168 19.7077 22.8474 19.6716 24.1038 19.6716C25.7856 19.6716 27.485 19.7372 29.1283 19.8012C30.4487 19.8524 31.8143 19.9053 33.1666 19.9239C33.4831 19.9284 33.7361 20.1886 33.7319 20.5051C33.7274 20.8187 33.4717 21.0701 33.1589 21.0701Z" fill="url(#paint17_linear_2658_166787)"/>
<path d="M31.5858 26.7957C29.5867 26.7957 27.5634 26.6653 25.6068 26.5392C24.195 26.4484 22.7349 26.3544 21.304 26.3109C20.9875 26.3016 20.7388 26.0369 20.7483 25.7204C20.7581 25.4039 21.0295 25.1367 21.3388 25.1649C22.7894 25.209 24.259 25.3035 25.6806 25.3951C28.0297 25.5462 30.4544 25.7007 32.8321 25.6306C33.1534 25.6208 33.4131 25.8698 33.4227 26.1863C33.4322 26.5028 33.1832 26.767 32.8669 26.7763C32.4397 26.7899 32.0127 26.7957 31.5858 26.7957Z" fill="url(#paint18_linear_2658_166787)"/>
<path d="M30.9889 32.3674C30.9687 32.3674 30.9485 32.3663 30.928 32.3645C29.2077 32.1831 27.4452 32.1603 25.7408 32.1383C24.1846 32.1181 22.5756 32.0976 20.9822 31.9577C20.6668 31.9301 20.4334 31.6521 20.4612 31.3366C20.4889 31.0209 20.7722 30.7881 21.0823 30.8157C22.6329 30.9516 24.2205 30.9721 25.7557 30.992C27.4861 31.0143 29.2755 31.0374 31.0483 31.2241C31.3632 31.2573 31.5916 31.5395 31.5584 31.8544C31.5273 32.1486 31.2785 32.3674 30.9889 32.3674Z" fill="url(#paint19_linear_2658_166787)"/>
<path d="M23.6626 37.835C22.9447 37.835 21.9962 37.8204 21.0239 37.706C20.7095 37.6691 20.4846 37.3842 20.5215 37.0701C20.5585 36.7554 20.8439 36.5257 21.158 36.5677C22.0711 36.6747 22.9763 36.6885 23.6629 36.6885C24.0628 36.6885 24.4627 36.6832 24.8625 36.6781C25.5906 36.6681 26.3184 36.6582 27.0462 36.6803C27.3627 36.6896 27.6117 36.9535 27.6024 37.27C27.5931 37.5865 27.3191 37.848 27.0125 37.826C26.3011 37.8055 25.5893 37.8151 24.8774 37.8241C24.4725 37.8297 24.0676 37.835 23.6626 37.835Z" fill="url(#paint20_linear_2658_166787)"/>
<path d="M11.2239 15.8271C10.4114 15.8271 9.79883 15.2531 9.79883 14.4921C9.79883 13.7893 10.1852 13.5434 10.3925 13.4117C10.4446 13.3785 10.4857 13.3522 10.5117 13.3262C10.6655 13.1725 10.8925 13.1188 11.0986 13.1879C11.4982 13.3212 12.5597 13.6748 12.5597 14.6612C12.5597 15.097 12.3861 15.8271 11.2239 15.8271ZM10.9496 14.4156C10.9475 14.4313 10.9453 14.4563 10.9453 14.4921C10.9453 14.6559 11.1198 14.6806 11.2239 14.6806C11.3139 14.6806 11.3739 14.6758 11.4132 14.6703C11.4132 14.6389 11.3906 14.5351 11.0109 14.3774C10.9881 14.3917 10.9682 14.4029 10.9496 14.4156Z" fill="url(#paint21_linear_2658_166787)"/>
<path d="M13.0598 21.4186C12.5282 21.4186 11.8472 20.9184 10.6892 20.0339C10.0541 19.5491 9.3972 19.0475 8.97848 18.8489C8.69225 18.7135 8.57011 18.3715 8.70579 18.0855C8.84147 17.7993 9.18319 17.6769 9.46916 17.8128C9.99701 18.063 10.6714 18.5775 11.3852 19.1229C11.9581 19.5608 12.8245 20.2222 13.0887 20.2739C13.4055 20.2739 13.6476 20.5296 13.6476 20.8464C13.6474 21.1629 13.3763 21.4186 13.0598 21.4186Z" fill="url(#paint22_linear_2658_166787)"/>
<path d="M9.57929 21.7572C9.41705 21.7572 9.25562 21.6884 9.14224 21.5554C8.93726 21.3137 8.96673 20.9521 9.20782 20.7474C9.99881 20.0751 10.7717 19.3229 11.5192 18.5953C11.8617 18.2616 12.2029 17.9294 12.5457 17.6047C12.7754 17.3867 13.1383 17.3968 13.356 17.6267C13.5738 17.8561 13.5642 18.2191 13.3343 18.4371C12.9952 18.7584 12.6575 19.0868 12.3187 19.4169C11.5574 20.1577 10.7704 20.9234 9.95048 21.6207C9.84268 21.7123 9.71072 21.7572 9.57929 21.7572Z" fill="url(#paint23_linear_2658_166787)"/>
<path d="M9.34474 29.4418C9.19312 29.4418 9.04178 29.3821 8.9292 29.2634C8.71094 29.034 8.7205 28.671 8.94991 28.4528C9.34819 28.0747 9.74647 27.7029 10.1426 27.3336C10.9193 26.6092 11.6526 25.9247 12.3749 25.2028C12.5987 24.979 12.9617 24.979 13.1855 25.2028C13.4093 25.4266 13.4093 25.7896 13.1855 26.0134C12.4495 26.7494 11.6744 27.4727 10.9248 28.1718C10.5313 28.539 10.1357 28.9081 9.73983 29.2844C9.62884 29.3898 9.48652 29.4418 9.34474 29.4418Z" fill="url(#paint24_linear_2658_166787)"/>
<path d="M13.1266 28.9188C13.0557 28.9188 12.9837 28.9058 12.9139 28.8776C11.5157 28.3182 10.6939 27.6315 9.96929 27.0253C9.44834 26.5899 8.99855 26.2136 8.4152 25.9601C8.12472 25.8337 7.9917 25.4962 8.11809 25.2057C8.24421 24.9152 8.58168 24.7825 8.87243 24.9083C9.60739 25.2278 10.1406 25.6738 10.7048 26.1457C11.3962 26.7237 12.111 27.3217 13.3398 27.8131C13.6337 27.9308 13.7766 28.2643 13.6592 28.5582C13.5695 28.7825 13.3541 28.9188 13.1266 28.9188Z" fill="url(#paint25_linear_2658_166787)"/>
<path d="M11.4782 33.7823C10.782 33.7823 10.1719 33.1955 10.1719 32.5264C10.1719 31.8416 10.7605 31.2476 11.342 31.0153C11.6357 30.8982 11.9697 31.0408 12.0871 31.3347C12.1256 31.4306 12.1362 31.5309 12.1227 31.6271C12.4575 31.7529 12.7671 32.0514 12.7671 32.7247C12.7671 33.3776 12.0982 33.7823 11.4782 33.7823Z" fill="url(#paint26_linear_2658_166787)"/>
<path d="M9.81171 40.0971C9.64948 40.0971 9.48804 40.0283 9.37466 39.895C9.16968 39.6537 9.19915 39.292 9.44025 39.087C10.2203 38.4238 10.9609 37.7464 11.7447 37.0295C12.114 36.6918 12.4855 36.3516 12.8633 36.0118C13.0986 35.8002 13.4613 35.8193 13.6729 36.0543C13.8848 36.2898 13.8657 36.6522 13.6304 36.8641C13.2552 37.2018 12.8859 37.5396 12.5187 37.8752C11.7617 38.5679 10.9789 39.284 10.1832 39.9603C10.0751 40.0522 9.94314 40.0971 9.81171 40.0971Z" fill="url(#paint27_linear_2658_166787)"/>
<path d="M13.2455 40.1559C13.1592 40.1559 13.0719 40.1365 12.9895 40.0953C11.9782 39.5895 11.1745 38.8556 10.397 38.1456C9.92943 37.7186 9.48787 37.3153 9.00409 36.9577C8.74946 36.7697 8.69556 36.4104 8.88381 36.1561C9.0718 35.9006 9.43105 35.8478 9.68542 36.0358C10.217 36.4285 10.7016 36.8711 11.1699 37.2989C11.9224 37.9863 12.6332 38.6358 13.502 39.0699C13.785 39.2117 13.8998 39.5558 13.7585 39.8391C13.6581 40.0398 13.4558 40.1559 13.2455 40.1559Z" fill="url(#paint28_linear_2658_166787)"/>
<path d="M20.6044 54.3507C19.1411 54.3507 17.7649 53.7684 16.7286 52.7108C15.8224 51.786 15.2812 50.6082 15.2812 49.5604C15.2812 48.8611 16.3736 46.0776 17.7445 44.8201C19.597 43.1216 20.2114 42.615 22.2482 40.9371C24.7115 38.9075 29.2965 35.1297 40.8001 25.3357C40.8447 25.298 40.8949 25.2669 40.9491 25.2444C44.3711 23.8018 46.7499 22.7408 48.4869 21.966C50.0012 21.2908 51.0949 20.803 51.9955 20.4581C52.2053 20.3782 52.4424 20.4276 52.6025 20.585C52.7626 20.7425 52.816 20.9788 52.7392 21.1896C52.2637 22.497 51.3638 24.3464 50.3222 26.4875C49.4529 28.2753 48.4673 30.3012 47.5677 32.3476C47.5276 32.4389 47.4644 32.518 47.3842 32.5775C39.8477 38.1614 32.7716 44.6096 25.9283 50.8453C24.9295 51.7555 23.9306 52.6654 22.9306 53.5727C22.3531 54.0961 21.5924 54.3507 20.6044 54.3507ZM41.4759 26.2658C30.015 36.0234 25.4382 39.7941 22.9774 41.8219C20.9589 43.4848 20.3495 43.9869 18.5193 45.665C17.3924 46.6984 16.4548 49.1279 16.4275 49.5674C16.4278 51.011 18.0934 53.2039 20.6041 53.2039C21.304 53.2039 21.7982 53.0512 22.1598 52.7233C23.1592 51.8168 24.1573 50.9072 25.1557 49.9972C31.983 43.7756 39.0416 37.3433 46.5792 31.7464C47.4705 29.7274 48.4365 27.7421 49.2909 25.9857C50.0169 24.4935 50.6727 23.1452 51.1559 22.0406C50.5325 22.3085 49.8111 22.6303 48.954 23.0124C47.2262 23.7832 44.8652 24.8363 41.4759 26.2658Z" fill="url(#paint29_linear_2658_166787)"/>
<path d="M23.6452 52.2687C23.5117 52.2687 23.3773 52.2225 23.2687 52.1277C21.7327 50.79 20.523 49.1894 19.5512 47.9027C18.8707 47.0021 18.2831 46.2246 17.8187 45.8529C17.5715 45.6554 17.5314 45.2945 17.7292 45.0476C17.9273 44.7999 18.2876 44.7603 18.535 44.9581C19.1112 45.419 19.7092 46.2103 20.4662 47.2116C21.4061 48.4555 22.5757 50.0035 24.022 51.2631C24.2607 51.4711 24.2857 51.833 24.0778 52.0719C23.9644 52.2018 23.8053 52.2687 23.6452 52.2687Z" fill="url(#paint30_linear_2658_166787)"/>
<path d="M25.1871 51.1393C25.0405 51.1393 24.8937 51.0832 24.7819 50.9715C22.7358 48.9254 21.5771 47.2523 20.7311 46.0307C20.2447 45.3278 19.8602 44.7729 19.4534 44.3425C19.236 44.1123 19.2463 43.7493 19.4765 43.5318C19.7067 43.3147 20.0697 43.325 20.2869 43.5549C20.7532 44.0488 21.1798 44.6646 21.6737 45.3777C22.5406 46.6297 23.6197 48.1877 25.5925 50.1606C25.8164 50.3844 25.8164 50.7474 25.5925 50.9712C25.4805 51.0832 25.3339 51.1393 25.1871 51.1393Z" fill="url(#paint31_linear_2658_166787)"/>
<path d="M45.3926 33.3159C44.6436 33.3159 44.3239 32.9816 44.3239 32.198C44.3239 31.5929 44.4893 31.1216 44.5987 30.8096C44.6008 30.8032 44.6032 30.7966 44.6056 30.7897C44.4935 30.7799 44.3329 30.7724 44.1038 30.7724C43.9413 30.7724 43.7785 30.7777 43.616 30.7825C43.4418 30.7878 43.2676 30.7929 43.0935 30.7929C42.5624 30.7929 42.0224 30.7586 41.7637 30.3476C41.5248 29.9676 41.7074 29.5869 41.8405 29.3089C42.085 28.7999 42.389 28.1661 40.2779 27.1107C39.9948 26.9689 39.8801 26.6247 40.0214 26.3414C40.1632 26.0587 40.5078 25.944 40.7906 26.0849C43.4033 27.3913 43.3948 28.6098 42.9474 29.6445C43.1221 29.6488 43.3646 29.6429 43.581 29.6363C43.7554 29.631 43.9293 29.6259 44.1038 29.6259C44.9194 29.6259 45.4122 29.6976 45.6796 30.0747C45.9417 30.4445 45.8028 30.8401 45.6804 31.189C45.5843 31.4631 45.4757 31.7724 45.4704 32.168C45.507 32.1672 45.5434 32.1662 45.579 32.1651C45.6475 32.163 45.7133 32.1608 45.7726 32.1608C46.0893 32.1608 46.3458 32.4176 46.3458 32.7341C46.3458 33.0506 46.0893 33.3074 45.7726 33.3074C45.7245 33.3074 45.6709 33.3092 45.6154 33.3111C45.5426 33.3137 45.4667 33.3159 45.3926 33.3159Z" fill="url(#paint32_linear_2658_166787)"/>
<path d="M49.5622 26.7064C49.5099 26.7064 49.4571 26.6993 49.4042 26.6844C48.1953 26.3392 47.2466 25.3239 46.5841 23.6676C46.4665 23.3739 46.6096 23.0401 46.9035 22.9225C47.1972 22.8049 47.5312 22.948 47.6486 23.2419C48.1727 24.5515 48.8692 25.3387 49.7194 25.5817C50.0237 25.6688 50.2 25.9858 50.1132 26.2904C50.0409 26.5426 49.8115 26.7064 49.5622 26.7064Z" fill="url(#paint33_linear_2658_166787)"/>
<path d="M22.5483 47.3752C22.3853 47.3752 22.2233 47.3061 22.1099 47.1718C21.9057 46.9299 21.936 46.5682 22.1779 46.3641C23.8247 44.9727 25.4284 43.5955 27.039 42.2132C28.7065 40.7815 30.4305 39.3012 32.1946 37.813C32.927 37.1954 33.8111 36.4758 34.7471 35.714C37.0122 33.8708 39.5801 31.7809 41.7234 29.7566C41.9536 29.5391 42.3163 29.5497 42.5337 29.7797C42.7512 30.0099 42.7408 30.3726 42.5106 30.5903C40.3366 32.6438 37.7517 34.7473 35.4709 36.603C34.5389 37.3619 33.6585 38.078 32.9341 38.6895C31.174 40.1745 29.4518 41.6532 27.7862 43.083C26.1734 44.468 24.567 45.8471 22.9182 47.24C22.8104 47.3308 22.6789 47.3752 22.5483 47.3752Z" fill="url(#paint34_linear_2658_166787)"/>
<path d="M33.8403 45.8027C33.5516 45.8027 33.3031 45.5853 33.271 45.2914C33.2367 44.9767 33.464 44.6939 33.7787 44.6594C35.1559 44.5094 36.538 44.49 37.5878 44.49C38.0984 44.49 38.6093 44.4953 39.1201 44.5001C39.7879 44.5073 40.4554 44.5136 41.1216 44.5086C41.1439 43.6114 41.1471 42.706 41.1506 41.825C41.1572 40.1238 41.1638 38.3653 41.3043 36.624C41.3298 36.3085 41.607 36.0754 41.9219 36.0988C42.2373 36.1243 42.4726 36.4007 42.4471 36.7164C42.3101 38.4131 42.3037 40.1496 42.2971 41.8287C42.2931 42.8977 42.2889 44.0028 42.2514 45.0941C42.2411 45.3986 41.9939 45.6418 41.689 45.6474C40.8314 45.6634 39.9701 45.6541 39.109 45.6458C38.6021 45.6405 38.0947 45.6357 37.5881 45.6357C36.5672 45.6357 35.2258 45.6543 33.9032 45.7985C33.8822 45.8017 33.861 45.8027 33.8403 45.8027Z" fill="url(#paint35_linear_2658_166787)"/>
</g>
<defs>
<linearGradient id="paint0_linear_2658_166787" x1="3.14639" y1="3.97217" x2="14.8396" y2="3.97217" gradientUnits="userSpaceOnUse">
<stop stop-color="#DC2430"/>
<stop offset="1" stop-color="#7B4397"/>
</linearGradient>
<linearGradient id="paint1_linear_2658_166787" x1="8.70213" y1="3.67358" x2="13.7721" y2="3.67358" gradientUnits="userSpaceOnUse">
<stop stop-color="#DC2430"/>
<stop offset="1" stop-color="#7B4397"/>
</linearGradient>
<linearGradient id="paint2_linear_2658_166787" x1="15.446" y1="3.53271" x2="21.1114" y2="3.53271" gradientUnits="userSpaceOnUse">
<stop stop-color="#DC2430"/>
<stop offset="1" stop-color="#7B4397"/>
</linearGradient>
<linearGradient id="paint3_linear_2658_166787" x1="23.1813" y1="3.56934" x2="28.5373" y2="3.56934" gradientUnits="userSpaceOnUse">
<stop stop-color="#DC2430"/>
<stop offset="1" stop-color="#7B4397"/>
</linearGradient>
<linearGradient id="paint4_linear_2658_166787" x1="30.5263" y1="3.88696" x2="35.0982" y2="3.88696" gradientUnits="userSpaceOnUse">
<stop stop-color="#DC2430"/>
<stop offset="1" stop-color="#7B4397"/>
</linearGradient>
<linearGradient id="paint5_linear_2658_166787" x1="36.841" y1="4.2771" x2="41.9533" y2="4.2771" gradientUnits="userSpaceOnUse">
<stop stop-color="#DC2430"/>
<stop offset="1" stop-color="#7B4397"/>
</linearGradient>
<linearGradient id="paint6_linear_2658_166787" x1="5.97495" y1="0.406494" x2="7.13386" y2="0.406494" gradientUnits="userSpaceOnUse">
<stop stop-color="#DC2430"/>
<stop offset="1" stop-color="#7B4397"/>
</linearGradient>
<linearGradient id="paint7_linear_2658_166787" x1="8.30066" y1="0.348389" x2="9.33536" y2="0.348389" gradientUnits="userSpaceOnUse">
<stop stop-color="#DC2430"/>
<stop offset="1" stop-color="#7B4397"/>
</linearGradient>
<linearGradient id="paint8_linear_2658_166787" x1="12.9968" y1="0.23291" x2="14.1199" y2="0.23291" gradientUnits="userSpaceOnUse">
<stop stop-color="#DC2430"/>
<stop offset="1" stop-color="#7B4397"/>
</linearGradient>
<linearGradient id="paint9_linear_2658_166787" x1="14.9177" y1="0.349609" x2="15.9911" y2="0.349609" gradientUnits="userSpaceOnUse">
<stop stop-color="#DC2430"/>
<stop offset="1" stop-color="#7B4397"/>
</linearGradient>
<linearGradient id="paint10_linear_2658_166787" x1="20.4846" y1="0.11499" x2="21.5225" y2="0.11499" gradientUnits="userSpaceOnUse">
<stop stop-color="#DC2430"/>
<stop offset="1" stop-color="#7B4397"/>
</linearGradient>
<linearGradient id="paint11_linear_2658_166787" x1="22.6886" y1="-0.000244141" x2="23.8157" y2="-0.000244141" gradientUnits="userSpaceOnUse">
<stop stop-color="#DC2430"/>
<stop offset="1" stop-color="#7B4397"/>
</linearGradient>
<linearGradient id="paint12_linear_2658_166787" x1="27.9021" y1="0.406982" x2="28.9758" y2="0.406982" gradientUnits="userSpaceOnUse">
<stop stop-color="#DC2430"/>
<stop offset="1" stop-color="#7B4397"/>
</linearGradient>
<linearGradient id="paint13_linear_2658_166787" x1="30.132" y1="0.464844" x2="31.2392" y2="0.464844" gradientUnits="userSpaceOnUse">
<stop stop-color="#DC2430"/>
<stop offset="1" stop-color="#7B4397"/>
</linearGradient>
<linearGradient id="paint14_linear_2658_166787" x1="34.3113" y1="0.816162" x2="35.4343" y2="0.816162" gradientUnits="userSpaceOnUse">
<stop stop-color="#DC2430"/>
<stop offset="1" stop-color="#7B4397"/>
</linearGradient>
<linearGradient id="paint15_linear_2658_166787" x1="36.4415" y1="0.989258" x2="37.478" y2="0.989258" gradientUnits="userSpaceOnUse">
<stop stop-color="#DC2430"/>
<stop offset="1" stop-color="#7B4397"/>
</linearGradient>
<linearGradient id="paint16_linear_2658_166787" x1="20.9738" y1="14.1465" x2="32.7389" y2="14.1465" gradientUnits="userSpaceOnUse">
<stop stop-color="#DC2430"/>
<stop offset="1" stop-color="#7B4397"/>
</linearGradient>
<linearGradient id="paint17_linear_2658_166787" x1="21.2482" y1="19.6716" x2="32.824" y2="19.6716" gradientUnits="userSpaceOnUse">
<stop stop-color="#DC2430"/>
<stop offset="1" stop-color="#7B4397"/>
</linearGradient>
<linearGradient id="paint18_linear_2658_166787" x1="21.8043" y1="25.1628" x2="32.5779" y2="25.1628" gradientUnits="userSpaceOnUse">
<stop stop-color="#DC2430"/>
<stop offset="1" stop-color="#7B4397"/>
</linearGradient>
<linearGradient id="paint19_linear_2658_166787" x1="21.3842" y1="30.8135" x2="30.8214" y2="30.8135" gradientUnits="userSpaceOnUse">
<stop stop-color="#DC2430"/>
<stop offset="1" stop-color="#7B4397"/>
</linearGradient>
<linearGradient id="paint20_linear_2658_166787" x1="21.108" y1="36.5627" x2="27.1303" y2="36.5627" gradientUnits="userSpaceOnUse">
<stop stop-color="#DC2430"/>
<stop offset="1" stop-color="#7B4397"/>
</linearGradient>
<linearGradient id="paint21_linear_2658_166787" x1="10.0289" y1="13.1582" x2="12.3756" y2="13.1582" gradientUnits="userSpaceOnUse">
<stop stop-color="#DC2430"/>
<stop offset="1" stop-color="#7B4397"/>
</linearGradient>
<linearGradient id="paint22_linear_2658_166787" x1="9.06683" y1="17.7573" x2="13.3145" y2="17.7573" gradientUnits="userSpaceOnUse">
<stop stop-color="#DC2430"/>
<stop offset="1" stop-color="#7B4397"/>
</linearGradient>
<linearGradient id="paint23_linear_2658_166787" x1="9.38147" y1="17.4475" x2="13.2127" y2="17.4475" gradientUnits="userSpaceOnUse">
<stop stop-color="#DC2430"/>
<stop offset="1" stop-color="#7B4397"/>
</linearGradient>
<linearGradient id="paint24_linear_2658_166787" x1="9.15331" y1="25.0349" x2="13.0479" y2="25.0349" gradientUnits="userSpaceOnUse">
<stop stop-color="#DC2430"/>
<stop offset="1" stop-color="#7B4397"/>
</linearGradient>
<linearGradient id="paint25_linear_2658_166787" x1="8.53948" y1="24.8608" x2="13.3249" y2="24.8608" gradientUnits="userSpaceOnUse">
<stop stop-color="#DC2430"/>
<stop offset="1" stop-color="#7B4397"/>
</linearGradient>
<linearGradient id="paint26_linear_2658_166787" x1="10.3881" y1="30.9744" x2="12.5941" y2="30.9744" gradientUnits="userSpaceOnUse">
<stop stop-color="#DC2430"/>
<stop offset="1" stop-color="#7B4397"/>
</linearGradient>
<linearGradient id="paint27_linear_2658_166787" x1="9.6201" y1="35.8647" x2="13.5147" y2="35.8647" gradientUnits="userSpaceOnUse">
<stop stop-color="#DC2430"/>
<stop offset="1" stop-color="#7B4397"/>
</linearGradient>
<linearGradient id="paint28_linear_2658_166787" x1="9.19211" y1="35.9233" x2="13.4824" y2="35.9233" gradientUnits="userSpaceOnUse">
<stop stop-color="#DC2430"/>
<stop offset="1" stop-color="#7B4397"/>
</linearGradient>
<linearGradient id="paint29_linear_2658_166787" x1="18.4056" y1="20.4204" x2="50.2743" y2="20.4204" gradientUnits="userSpaceOnUse">
<stop stop-color="#DC2430"/>
<stop offset="1" stop-color="#7B4397"/>
</linearGradient>
<linearGradient id="paint30_linear_2658_166787" x1="18.1548" y1="44.8323" x2="23.7777" y2="44.8323" gradientUnits="userSpaceOnUse">
<stop stop-color="#DC2430"/>
<stop offset="1" stop-color="#7B4397"/>
</linearGradient>
<linearGradient id="paint31_linear_2658_166787" x1="19.8355" y1="43.3755" x2="25.3295" y2="43.3755" gradientUnits="userSpaceOnUse">
<stop stop-color="#DC2430"/>
<stop offset="1" stop-color="#7B4397"/>
</linearGradient>
<linearGradient id="paint32_linear_2658_166787" x1="40.493" y1="26.0247" x2="45.9202" y2="26.0247" gradientUnits="userSpaceOnUse">
<stop stop-color="#DC2430"/>
<stop offset="1" stop-color="#7B4397"/>
</linearGradient>
<linearGradient id="paint33_linear_2658_166787" x1="46.8423" y1="22.8813" x2="49.8958" y2="22.8813" gradientUnits="userSpaceOnUse">
<stop stop-color="#DC2430"/>
<stop offset="1" stop-color="#7B4397"/>
</linearGradient>
<linearGradient id="paint34_linear_2658_166787" x1="23.7009" y1="29.6001" x2="41.3092" y2="29.6001" gradientUnits="userSpaceOnUse">
<stop stop-color="#DC2430"/>
<stop offset="1" stop-color="#7B4397"/>
</linearGradient>
<linearGradient id="paint35_linear_2658_166787" x1="34.0327" y1="36.0972" x2="41.8369" y2="36.0972" gradientUnits="userSpaceOnUse">
<stop stop-color="#DC2430"/>
<stop offset="1" stop-color="#7B4397"/>
</linearGradient>
<clipPath id="clip0_2658_166787">
<rect width="50.7749" height="54.8952" fill="white" transform="translate(2)"/>
</clipPath>
</defs>
</svg>
