<svg width="55" height="55" viewBox="0 0 55 55" fill="none" xmlns="http://www.w3.org/2000/svg">
<g clip-path="url(#clip0_2658_166579)">
<g clip-path="url(#clip1_2658_166579)">
<path d="M32.1566 18.4982C31.0202 18.2225 30.0429 18.8619 29.2655 19.617C29.0182 19.8571 28.79 20.111 28.5724 20.3724C27.363 21.2847 26.6052 22.7485 26.6035 24.3674C26.6027 25.3422 27.355 26.1937 28.3166 26.308C29.3622 26.4324 30.1071 25.8321 30.4846 24.8926C30.7038 24.347 31.0326 23.7933 31.3817 23.321C31.5068 23.1519 31.6466 22.9966 31.7901 22.843C31.9518 22.8611 32.117 22.8664 32.288 22.8408C33.3231 22.6852 33.8953 21.9064 34.0016 20.8997C34.1231 19.7484 33.2336 18.7595 32.1566 18.4982Z" fill="#E0DFE6"/>
<path d="M6.21277 18.7487C5.7485 19.6461 5.49708 20.627 5.08953 21.5489C4.69658 22.4378 4.25654 23.3069 3.90875 24.215C3.60969 24.9957 4.68584 25.8395 5.36904 25.3377C7.03145 24.1165 8.63273 22.0038 9.11986 19.9741C9.52575 18.2827 7.0711 17.0898 6.21277 18.7487Z" fill="#E0DFE6"/>
<path d="M51.8906 11.7213C49.6438 16.6017 47.3183 21.4606 44.2367 25.8806C41.1985 30.2383 37.4345 35.1735 32.6356 37.6364C31.6451 38.1447 31.5809 39.2088 32.0339 39.9883C32.0223 40.0784 32.0146 40.1712 32.0044 40.2623C31.8445 40.3474 31.701 40.4669 31.593 40.6148C31.601 40.5415 31.6093 40.468 31.6195 40.3948C31.8029 39.0909 30.7994 38.2009 29.6057 38.5421C29.4628 38.5019 29.3141 38.4851 29.1648 38.4895C32.3685 36.2149 35.3111 33.5623 37.8974 30.7565C40.7282 27.6856 43.2211 24.3206 45.3541 20.73C47.5243 17.077 49.8479 12.9299 50.8882 8.78419C51.1479 7.74934 49.8245 7.287 49.2435 8.0908C46.9659 11.241 45.2533 14.8115 43.052 18.0292C40.7238 21.4328 38.2204 24.7276 35.4055 27.7467C30.0912 33.4464 23.9281 37.5425 16.7313 40.4592C14.9147 41.1956 15.0659 43.643 16.44 44.2571C16.1693 44.5603 16.014 44.9221 16.1054 45.3572C15.8504 45.3991 15.5841 45.4236 15.3032 45.4263C15.1245 45.428 14.9513 45.4123 14.777 45.4002C14.378 44.9541 13.6865 44.8285 13.13 44.9714C13.0738 44.9858 13.0177 45.0003 12.9615 45.0147C11.808 44.5895 10.777 43.8625 9.87816 42.9532C9.14374 42.21 7.996 43.1515 8.46495 44.0437C9.26738 45.5704 10.4892 46.8203 11.9605 47.6494C11.9652 47.6568 11.9688 47.6648 11.9737 47.672C11.5659 48.0548 11.136 48.4152 10.6817 48.7404C9.77241 49.3914 8.76373 49.9281 7.77901 50.4546C7.30895 50.706 7.51658 51.493 8.05383 51.4691C9.63115 51.3986 13.3137 50.3524 14.8442 48.6564C17.5227 49.0756 21.3801 48.3414 22.7214 45.7356C22.9415 45.3079 22.9459 44.8051 22.7963 44.3598C23.1378 43.7213 23.0345 42.8827 22.4474 42.4515C24.038 41.6998 25.5864 40.8392 27.0847 39.8886C25.9449 40.7751 24.7115 41.4654 23.4908 42.2981C22.9712 42.6525 23.1229 43.4979 23.7753 43.5491C23.7703 43.561 23.7648 43.5717 23.7599 43.5836C23.3264 44.6721 24.619 45.8507 25.6682 45.4919C27.0445 45.0216 28.3635 44.4072 29.56 43.5781C30.2344 43.6251 31.0156 43.2074 31.2758 42.552C31.3036 42.4824 31.3259 42.4119 31.348 42.3414C31.3526 44.0575 31.6891 45.6499 32.0843 47.3779C32.1738 47.7692 32.409 48.0718 32.7149 48.2803C31.6608 48.8572 30.6314 49.4914 29.6005 50.0812C27.8364 51.0902 26.0958 52.0529 24.5584 53.3958C24.1322 53.7684 24.4651 54.5681 25.0296 54.5331C28.7799 54.3024 33.5036 52.5163 36.509 50.236C36.664 50.1184 36.789 49.976 36.8925 49.8213C37.9164 49.2589 38.9295 48.682 39.9376 48.1341C40.5437 47.8047 40.1229 46.8919 39.4791 47.0464C38.6643 47.2416 37.8288 47.4624 36.9936 47.7119C36.7138 47.192 36.1914 46.8607 35.4752 47.021C35.7751 44.8461 35.9348 42.4028 35.6605 40.1979C37.6292 39.1556 39.2582 37.3561 40.715 35.7534C42.704 33.5653 44.5451 31.188 46.1409 28.6979C49.3723 23.6556 51.9253 18.0752 52.8673 12.133C52.953 11.591 52.1662 11.1224 51.8906 11.7213Z" fill="#E0DFE6"/>
<path d="M23.7334 30.8763C22.4785 30.1273 21.2283 29.3687 19.9661 28.632C18.0495 27.5138 15.8014 30.2333 17.54 31.7762C18.2034 32.3647 18.8373 32.9898 19.3911 33.6843C19.4057 33.7024 19.4183 33.722 19.4329 33.7404C19.2746 33.6592 19.1174 33.5752 18.959 33.4901C18.4501 33.2161 17.9966 33.752 18.2141 34.235C18.9408 35.8473 22.5675 38.75 23.7777 36.064C24.0335 35.4962 24.0079 34.8942 23.8479 34.306C24.8508 33.4978 25.175 31.7368 23.7334 30.8763Z" fill="#E0DFE6"/>
<path d="M10.7853 29.5931C10.6689 29.5931 10.551 29.5625 10.4433 29.4986C10.1261 29.3097 10.0226 28.8992 10.2117 28.5819C16.8625 17.4305 25.9472 9.77221 35.7923 7.01712C36.1486 6.91744 36.517 7.12562 36.6162 7.48085C36.7159 7.83635 36.5082 8.20562 36.1525 8.30476C26.6395 10.967 17.8345 18.4117 11.36 29.267C11.235 29.4772 11.0131 29.5931 10.7853 29.5931Z" fill="url(#paint0_linear_2658_166579)"/>
<path d="M38.8926 7.39956C38.5765 7.39956 38.2954 7.17458 38.2359 6.85295C38.1687 6.49001 38.4085 6.14084 38.7715 6.07365C43.2556 5.24286 46.8894 4.95675 50.2082 5.17484C50.5766 5.19935 50.8558 5.5174 50.8316 5.88612C50.8074 6.25429 50.4857 6.53297 50.1209 6.50956C46.9167 6.2989 43.3872 6.5784 39.0152 7.38827C38.9742 7.39625 38.9329 7.39956 38.8926 7.39956Z" fill="url(#paint1_linear_2658_166579)"/>
<path d="M18.4418 43.4318C17.7883 43.4318 17.1175 43.3337 16.4368 43.1377C14.4054 42.5528 12.5202 41.1641 11.2637 39.3282C9.88463 37.3125 9.45946 35.0412 10.0669 32.9322C10.1462 32.6571 10.2437 32.3825 10.3569 32.116C10.5009 31.7764 10.8941 31.6184 11.2337 31.7621C11.5738 31.9067 11.7321 32.2994 11.5875 32.6392C11.4955 32.8559 11.4162 33.0787 11.3518 33.3025C10.8567 35.0206 11.2171 36.8928 12.3671 38.5729C13.435 40.1336 15.0946 41.3596 16.8066 41.8528C17.6897 42.107 18.5423 42.1615 19.3403 42.0139C33.2661 39.4339 46.1672 26.6088 50.7135 10.8254C50.9971 9.84043 51.2519 8.8345 51.4708 7.83601C51.5498 7.47528 51.9061 7.24451 52.2672 7.3263C52.6279 7.40506 52.8562 7.76166 52.7771 8.1224C52.5522 9.1487 52.29 10.1824 51.9984 11.1955C47.3174 27.4462 33.9881 40.6602 19.584 43.3285C19.21 43.3976 18.8289 43.4318 18.4418 43.4318Z" fill="url(#paint2_linear_2658_166579)"/>
<path d="M20.6461 42.0387C20.6114 42.0387 20.5765 42.0362 20.5415 42.0305C20.1477 41.9685 19.7523 41.8812 19.3665 41.7702C14.9801 40.5066 12.3751 36.3653 10.9619 33.1134C10.8146 32.7747 10.9699 32.3809 11.3086 32.2336C11.647 32.0874 12.0411 32.2419 12.1881 32.5806C13.487 35.5689 15.8505 39.3657 19.736 40.4853C20.0687 40.5806 20.4099 40.6564 20.7494 40.71C21.1143 40.767 21.3635 41.1096 21.3062 41.4745C21.2536 41.8038 20.9694 42.0387 20.6461 42.0387Z" fill="url(#paint3_linear_2658_166579)"/>
<path d="M30.6348 29.6628C30.0846 29.6628 29.5405 29.5863 29.0192 29.4312C25.7745 28.4663 23.9689 25.133 24.9082 21.8426C25.6685 19.1814 27.9687 17.3609 30.632 17.3122C31.1528 17.3061 31.6831 17.3656 32.2165 17.4994C35.1264 18.2272 37.717 21.2263 36.8282 24.8023C36.4033 26.5104 35.3277 27.9318 33.7991 28.805C32.808 29.3712 31.7101 29.6628 30.6348 29.6628ZM30.7339 18.6486C30.708 18.6486 30.6824 18.6491 30.6566 18.6494C28.5849 18.6868 26.792 20.1179 26.1942 22.2099C25.5581 24.4377 26.4654 27.2765 29.4006 28.1497C30.5734 28.498 31.9701 28.3099 33.1357 27.6438C34.344 26.9535 35.1947 25.8297 35.5303 24.479C36.2923 21.4141 33.8095 19.2761 31.8916 18.7964C31.4995 18.6981 31.1104 18.6486 30.7339 18.6486Z" fill="url(#paint4_linear_2658_166579)"/>
<path d="M24.2435 36.4888C24.1859 36.4888 24.1284 36.4813 24.0711 36.4662C20.567 35.4572 18.3561 32.4854 17.1144 30.169C16.9426 29.8477 17.0591 29.4478 17.3769 29.2697C18.0975 28.8657 18.7493 28.3119 19.3246 27.8232C19.4664 27.7025 19.6523 27.6472 19.8365 27.6689C20.0212 27.6907 20.1884 27.7887 20.2977 27.9394C21.7776 29.9708 24.1146 31.569 26.71 32.3244C26.9308 32.3888 27.1029 32.5615 27.1663 32.7826C27.2293 33.0031 27.1748 33.2413 27.0214 33.4123C26.5393 33.9504 26.0918 34.5345 25.6586 35.099C25.3629 35.4845 25.068 35.8689 24.7604 36.2437C24.6315 36.4015 24.4407 36.4888 24.2435 36.4888ZM18.6001 30.0859C19.7013 31.9727 21.4587 34.1468 24.0097 35.0442C24.208 34.7939 24.4027 34.5403 24.5974 34.2861C24.8493 33.9576 25.1062 33.6227 25.3744 33.2898C23.1258 32.4524 21.1048 31.0409 19.6561 29.2914C19.3287 29.5605 18.9787 29.8334 18.6001 30.0859Z" fill="url(#paint5_linear_2658_166579)"/>
<path d="M48.3591 19.4726C48.2635 19.4726 48.1666 19.4522 48.0746 19.409C43.3275 17.1725 39.7816 13.0926 38.3458 8.21521C38.2414 7.86081 38.4441 7.48906 38.7985 7.38469C39.1523 7.28143 39.5244 7.483 39.6285 7.8374C40.9563 12.3485 44.2426 16.1255 48.6444 18.1988C48.9784 18.3563 49.1216 18.7547 48.9643 19.089C48.8503 19.3308 48.6099 19.4726 48.3591 19.4726Z" fill="url(#paint6_linear_2658_166579)"/>
<path d="M47.4219 15.8311C47.288 15.8311 47.1531 15.7912 47.0355 15.708C46.7345 15.4943 46.6635 15.0768 46.8775 14.7756C47.7592 13.5328 48.2372 12.1238 48.6225 10.7866C48.7431 10.3683 48.8565 9.94697 48.9703 9.52428C49.0862 9.09332 49.2027 8.66099 49.3266 8.23141C49.4288 7.87674 49.7978 7.67131 50.1544 7.77402C50.509 7.87619 50.7139 8.24684 50.6118 8.60151C50.49 9.02366 50.3758 9.44855 50.2615 9.87207C50.1456 10.3022 50.0302 10.731 49.9076 11.1567C49.5097 12.5379 48.9683 14.14 47.9679 15.5497C47.8374 15.7331 47.6311 15.8311 47.4219 15.8311Z" fill="url(#paint7_linear_2658_166579)"/>
<path d="M38.53 29.5536C38.3642 29.5536 38.1982 29.4922 38.0687 29.3691C37.8014 29.1144 37.7912 28.6909 38.0459 28.4238C39.5577 26.8379 40.7946 24.904 41.9911 23.0342C42.405 22.3874 42.8192 21.7402 43.2452 21.1041C43.4503 20.7976 43.8658 20.715 44.1726 20.921C44.4794 21.1264 44.5614 21.5417 44.356 21.8485C43.9352 22.4766 43.5266 23.1154 43.1177 23.7551C41.887 25.678 40.6145 27.6673 39.0141 29.3468C38.8827 29.4839 38.7065 29.5536 38.53 29.5536Z" fill="url(#paint8_linear_2658_166579)"/>
<path d="M11.6862 28.1245C11.5975 28.1245 11.5069 28.1066 11.4202 28.0692C10.6318 27.7266 9.82195 27.435 9.01319 27.2017C6.14851 26.3765 3.32211 26.2894 0.838546 26.9498C0.481666 27.0478 0.115423 26.8322 0.0206958 26.4759C-0.074307 26.119 0.138279 25.7527 0.495159 25.658C3.21224 24.9352 6.2862 25.0255 9.38356 25.9171C10.2477 26.1661 11.1121 26.4778 11.953 26.8429C12.2917 26.99 12.4471 27.384 12.3 27.7227C12.1904 27.9744 11.9445 28.1245 11.6862 28.1245Z" fill="url(#paint9_linear_2658_166579)"/>
<path d="M14.8445 20.2054C13.127 20.2054 11.4371 19.9743 9.84574 19.5158C8.91608 19.2482 8.00681 18.8998 7.14408 18.4802C6.81198 18.3188 6.67347 17.9187 6.83511 17.5866C6.99648 17.2545 7.39659 17.1149 7.72869 17.2779C8.52258 17.6637 9.35943 17.9845 10.2156 18.2307C12.5983 18.9172 15.2262 19.0516 17.8155 18.6217C18.1809 18.5642 18.524 18.807 18.5846 19.1714C18.6455 19.5357 18.3993 19.8799 18.035 19.9405C16.9726 20.1175 15.9033 20.2054 14.8445 20.2054Z" fill="url(#paint10_linear_2658_166579)"/>
<path d="M1.67207 26.6949C1.52778 26.6949 1.38266 26.6484 1.26012 26.5525C0.9696 26.3248 0.918381 25.9043 1.14639 25.6141C4.42302 21.432 8.01412 16.3762 9.80541 10.5866C9.91445 10.2335 10.2895 10.0356 10.6417 10.1457C10.9945 10.2545 11.1919 10.6293 11.0828 10.982C9.22713 16.979 5.55066 22.1604 2.19885 26.4385C2.06695 26.6068 1.87061 26.6949 1.67207 26.6949Z" fill="url(#paint11_linear_2658_166579)"/>
<path d="M24.7538 53.0909C24.7282 53.0909 24.7023 53.0895 24.6761 53.0865C24.3091 53.0438 24.0464 52.7123 24.0888 52.3452C24.5786 48.1169 24.0855 44.8697 22.5814 42.4181C22.3881 42.1034 22.4867 41.6917 22.8014 41.4989C23.117 41.3056 23.5284 41.4039 23.7209 41.7192C25.3877 44.4357 25.9426 47.9621 25.4171 52.4994C25.3775 52.8398 25.0886 53.0909 24.7538 53.0909Z" fill="url(#paint12_linear_2658_166579)"/>
<path d="M32.1126 49.3014C31.7965 49.3014 31.5153 49.0764 31.4558 48.7548C30.779 45.1006 30.9172 41.4478 31.8557 38.1902C31.9672 37.8036 32.0911 37.4175 32.2244 37.0419C32.3475 36.6936 32.7291 36.5113 33.078 36.6349C33.4261 36.7586 33.6078 37.1408 33.4845 37.4886C33.3603 37.8394 33.2444 38.1998 33.1405 38.5603C32.2594 41.6194 32.1313 45.0604 32.7707 48.5114C32.8379 48.8743 32.5981 49.2235 32.2351 49.2907C32.1938 49.2981 32.1531 49.3014 32.1126 49.3014Z" fill="url(#paint13_linear_2658_166579)"/>
<path d="M24.0167 53.9656C23.8245 53.9656 23.6337 53.8832 23.5015 53.7235C23.2658 53.4393 23.3054 53.018 23.5896 52.782C27.7708 49.3176 33.3531 46.9439 40.6554 45.5268C41.0173 45.4572 41.3686 45.6932 41.4391 46.0558C41.5093 46.4185 41.2725 46.7693 40.9101 46.8398C33.8337 48.2131 28.4471 50.494 24.4427 53.8122C24.318 53.9149 24.1668 53.9656 24.0167 53.9656Z" fill="url(#paint14_linear_2658_166579)"/>
<path d="M36.9619 38.7544C36.7798 38.7544 36.5987 38.6803 36.4665 38.5349C36.2184 38.2615 36.2387 37.8388 36.5122 37.5907C40.0353 34.3928 43.3623 31.185 45.3485 27.1112C45.5102 26.7791 45.9111 26.6425 46.2424 26.8031C46.5742 26.965 46.7122 27.3654 46.5503 27.6972C44.4599 31.9841 41.0343 35.2916 37.411 38.5806C37.283 38.6968 37.1221 38.7544 36.9619 38.7544Z" fill="url(#paint15_linear_2658_166579)"/>
<path d="M49.1328 22.4752C49.0075 22.4752 48.8806 22.44 48.7677 22.3665C48.4587 22.1646 48.3717 21.7502 48.5741 21.4409C49.2206 20.4515 49.6012 19.382 50.0041 18.2499C50.1062 17.9627 50.2087 17.675 50.3155 17.3889C50.4447 17.0427 50.8296 16.8679 51.1758 16.9962C51.5219 17.1256 51.6973 17.5103 51.5685 17.8564C51.4641 18.1362 51.3641 18.4171 51.2639 18.6982C50.8525 19.8543 50.427 21.0496 49.6932 22.1723C49.5649 22.3687 49.3509 22.4752 49.1328 22.4752Z" fill="url(#paint16_linear_2658_166579)"/>
<path d="M52.1889 8.64847C51.8885 8.64847 51.5842 8.5989 51.2841 8.49867C49.9414 8.05037 49.205 6.56805 49.6082 5.12401C49.9103 4.04152 50.7766 3.24102 51.8687 3.03477C52.1058 2.98823 52.355 2.98906 52.6094 3.03532C53.3444 3.16888 54.0565 3.65022 54.5144 4.32378C54.9256 4.92794 55.082 5.61169 54.9553 6.24889C54.7824 7.12044 54.2669 7.86174 53.5413 8.28305C53.1233 8.52566 52.6615 8.64847 52.1889 8.64847ZM52.2327 4.33755C52.1939 4.33755 52.1564 4.34113 52.1212 4.34801C51.5289 4.45981 51.0607 4.89462 50.8966 5.48364C50.6637 6.31774 51.1368 7.03976 51.7079 7.23031C52.2236 7.4027 52.6251 7.26914 52.8702 7.12622C53.2637 6.89767 53.5457 6.48296 53.644 5.98839C53.7002 5.70504 53.6167 5.38065 53.4088 5.07526C53.1519 4.69828 52.7543 4.42016 52.3704 4.35049C52.3228 4.34168 52.2765 4.33755 52.2327 4.33755Z" fill="url(#paint17_linear_2658_166579)"/>
<path d="M14.7219 46.1619C14.4774 46.1619 14.2172 46.125 13.9366 46.0441C11.9792 45.4804 10.0004 44.1088 8.50654 42.2811C7.05919 40.51 6.39803 38.7476 6.73811 37.5671C7.00714 36.6338 7.81701 36.047 8.60016 35.4795C8.96778 35.2132 9.31475 34.9615 9.58131 34.6922C9.84098 34.4298 10.2645 34.4276 10.5267 34.687C10.7891 34.9464 10.7916 35.3699 10.5319 35.6323C10.1885 35.9796 9.77985 36.2756 9.38497 36.562C8.7574 37.0169 8.16453 37.4465 8.02326 37.9372C7.60442 39.392 10.514 43.6668 14.3067 44.7595C15.1201 44.9949 15.5577 44.5819 16.7029 43.2477C16.9557 42.9533 17.2272 42.6369 17.5293 42.3092C17.7794 42.0377 18.2026 42.0198 18.4741 42.2701C18.7456 42.5204 18.7633 42.9431 18.5129 43.2146C18.2222 43.5308 17.9608 43.8353 17.7174 44.1187C16.7872 45.2017 15.9627 46.1619 14.7219 46.1619Z" fill="url(#paint18_linear_2658_166579)"/>
<path d="M10.9462 44.049C10.7631 44.049 10.5805 43.9741 10.4483 43.827C10.2019 43.5525 10.2245 43.1298 10.499 42.8831C11.3766 42.0947 12.1821 41.2722 12.8278 40.5033C13.0649 40.2202 13.4871 40.1839 13.7699 40.4215C14.0527 40.6592 14.089 41.081 13.8517 41.3636C13.1663 42.1792 12.3159 43.0488 11.3929 43.8783C11.2648 43.9923 11.1051 44.049 10.9462 44.049Z" fill="url(#paint19_linear_2658_166579)"/>
<path d="M0.973092 54.8272C0.85248 54.8272 0.731317 54.7945 0.623371 54.7284C0.369755 54.5723 0.249418 54.2674 0.329 53.9802C0.610429 52.9638 0.857436 51.9086 1.09618 50.8884C1.36742 49.7301 1.64802 48.5323 1.98232 47.3708C2.79136 44.5623 3.76122 42.546 5.12733 40.8343C5.35781 40.5457 5.77858 40.4992 6.06689 40.7286C6.35548 40.9588 6.40257 41.3798 6.17236 41.6684C4.92108 43.2366 4.02502 45.1091 3.2672 47.7409C2.94199 48.8699 2.66552 50.0509 2.39813 51.1932C2.30148 51.606 2.20345 52.0243 2.10239 52.4442C3.48915 51.544 4.87068 51.0478 6.2189 50.5637C8.34889 49.799 10.361 49.0764 12.1071 46.7275C12.3272 46.4309 12.7468 46.3701 13.0426 46.5895C13.3389 46.8098 13.4006 47.229 13.1803 47.525C11.1932 50.198 8.8944 51.0238 6.67078 51.8221C4.93457 52.4458 3.13943 53.0905 1.4236 54.6532C1.2972 54.768 1.13556 54.8272 0.973092 54.8272Z" fill="url(#paint20_linear_2658_166579)"/>
<path d="M7.17956 47.9624C6.93173 47.9624 6.68196 47.9323 6.43275 47.8605C5.93846 47.7181 5.60692 47.484 5.41912 47.1445C5.23682 46.8141 5.21314 46.4285 5.34669 45.964C5.41113 45.7407 5.50393 45.5195 5.59398 45.3059C5.67824 45.1062 5.75755 44.9173 5.80739 44.7444C5.83603 44.6455 5.85145 44.5615 5.85393 44.4938C5.86687 44.1245 6.17363 43.8238 6.54593 43.8494C6.91493 43.8624 7.20352 44.1724 7.19002 44.5414C7.18341 44.7215 7.15147 44.9093 7.09199 45.115C7.02094 45.3626 6.92209 45.5972 6.82681 45.8241C6.74833 46.0105 6.67425 46.1862 6.63185 46.3338C6.60872 46.4148 6.60156 46.466 6.5999 46.4949C6.62937 46.5128 6.69023 46.5428 6.80285 46.5753C7.3401 46.7303 8.01255 46.4988 8.72521 46.2545C9.15038 46.1088 9.59043 45.9577 10.0426 45.8739C10.4077 45.8059 10.7544 46.0469 10.8219 46.4093C10.8891 46.7722 10.6492 47.1214 10.286 47.1883C9.93106 47.2541 9.556 47.383 9.1592 47.519C8.54402 47.7302 7.86854 47.9624 7.17956 47.9624ZM6.5999 46.5241H6.60431H6.5999Z" fill="url(#paint21_linear_2658_166579)"/>
<path d="M27.8529 26.3504C27.6786 26.3504 27.5046 26.2824 27.3735 26.148C26.2897 25.0327 26.4918 23.7674 26.738 22.9127C27.2664 21.0784 28.6388 19.8806 30.32 19.7861C30.6851 19.7696 31.004 20.0474 31.0249 20.4164C31.0456 20.7851 30.7636 21.1007 30.3949 21.1216C29.0838 21.1952 28.3098 22.2865 28.0228 23.2828C27.7645 24.1791 27.8513 24.7213 28.3324 25.2159C28.5896 25.481 28.5838 25.904 28.3189 26.1612C28.1892 26.2876 28.0212 26.3504 27.8529 26.3504Z" fill="url(#paint22_linear_2658_166579)"/>
</g>
</g>
<defs>
<linearGradient id="paint0_linear_2658_166579" x1="12.3275" y1="6.99219" x2="34.8729" y2="6.99219" gradientUnits="userSpaceOnUse">
<stop stop-color="#DC2430"/>
<stop offset="1" stop-color="#7B4397"/>
</linearGradient>
<linearGradient id="paint1_linear_2658_166579" x1="39.2753" y1="5.10449" x2="49.9925" y2="5.10449" gradientUnits="userSpaceOnUse">
<stop stop-color="#DC2430"/>
<stop offset="1" stop-color="#7B4397"/>
</linearGradient>
<linearGradient id="paint2_linear_2658_166579" x1="13.3799" y1="7.30981" x2="49.9264" y2="7.30981" gradientUnits="userSpaceOnUse">
<stop stop-color="#DC2430"/>
<stop offset="1" stop-color="#7B4397"/>
</linearGradient>
<linearGradient id="paint3_linear_2658_166579" x1="11.7736" y1="32.1785" x2="20.6205" y2="32.1785" gradientUnits="userSpaceOnUse">
<stop stop-color="#DC2430"/>
<stop offset="1" stop-color="#7B4397"/>
</linearGradient>
<linearGradient id="paint4_linear_2658_166579" x1="25.689" y1="17.3118" x2="36.1827" y2="17.3118" gradientUnits="userSpaceOnUse">
<stop stop-color="#DC2430"/>
<stop offset="1" stop-color="#7B4397"/>
</linearGradient>
<linearGradient id="paint5_linear_2658_166579" x1="17.8816" y1="27.6643" x2="26.5149" y2="27.6643" gradientUnits="userSpaceOnUse">
<stop stop-color="#DC2430"/>
<stop offset="1" stop-color="#7B4397"/>
</linearGradient>
<linearGradient id="paint6_linear_2658_166579" x1="39.2108" y1="7.35767" x2="48.3142" y2="7.35767" gradientUnits="userSpaceOnUse">
<stop stop-color="#DC2430"/>
<stop offset="1" stop-color="#7B4397"/>
</linearGradient>
<linearGradient id="paint7_linear_2658_166579" x1="47.0776" y1="7.74756" x2="50.3791" y2="7.74756" gradientUnits="userSpaceOnUse">
<stop stop-color="#DC2430"/>
<stop offset="1" stop-color="#7B4397"/>
</linearGradient>
<linearGradient id="paint8_linear_2658_166579" x1="38.412" y1="20.8076" x2="44.0286" y2="20.8076" gradientUnits="userSpaceOnUse">
<stop stop-color="#DC2430"/>
<stop offset="1" stop-color="#7B4397"/>
</linearGradient>
<linearGradient id="paint9_linear_2658_166579" x1="1.02783" y1="25.175" x2="11.5317" y2="25.175" gradientUnits="userSpaceOnUse">
<stop stop-color="#DC2430"/>
<stop offset="1" stop-color="#7B4397"/>
</linearGradient>
<linearGradient id="paint10_linear_2658_166579" x1="7.7531" y1="17.2097" x2="17.8054" y2="17.2097" gradientUnits="userSpaceOnUse">
<stop stop-color="#DC2430"/>
<stop offset="1" stop-color="#7B4397"/>
</linearGradient>
<linearGradient id="paint11_linear_2658_166579" x1="1.84632" y1="10.1152" x2="10.4389" y2="10.1152" gradientUnits="userSpaceOnUse">
<stop stop-color="#DC2430"/>
<stop offset="1" stop-color="#7B4397"/>
</linearGradient>
<linearGradient id="paint12_linear_2658_166579" x1="22.7429" y1="41.3999" x2="25.4" y2="41.3999" gradientUnits="userSpaceOnUse">
<stop stop-color="#DC2430"/>
<stop offset="1" stop-color="#7B4397"/>
</linearGradient>
<linearGradient id="paint13_linear_2658_166579" x1="31.2407" y1="36.5962" x2="33.3571" y2="36.5962" gradientUnits="userSpaceOnUse">
<stop stop-color="#DC2430"/>
<stop offset="1" stop-color="#7B4397"/>
</linearGradient>
<linearGradient id="paint14_linear_2658_166579" x1="24.8563" y1="45.5146" x2="40.2445" y2="45.5146" gradientUnits="userSpaceOnUse">
<stop stop-color="#DC2430"/>
<stop offset="1" stop-color="#7B4397"/>
</linearGradient>
<linearGradient id="paint15_linear_2658_166579" x1="37.1534" y1="26.7358" x2="45.9297" y2="26.7358" gradientUnits="userSpaceOnUse">
<stop stop-color="#DC2430"/>
<stop offset="1" stop-color="#7B4397"/>
</linearGradient>
<linearGradient id="paint16_linear_2658_166579" x1="48.727" y1="16.9541" x2="51.401" y2="16.9541" gradientUnits="userSpaceOnUse">
<stop stop-color="#DC2430"/>
<stop offset="1" stop-color="#7B4397"/>
</linearGradient>
<linearGradient id="paint17_linear_2658_166579" x1="49.9564" y1="3.00024" x2="54.6315" y2="3.00024" gradientUnits="userSpaceOnUse">
<stop stop-color="#DC2430"/>
<stop offset="1" stop-color="#7B4397"/>
</linearGradient>
<linearGradient id="paint18_linear_2658_166579" x1="7.65367" y1="34.4939" x2="17.8872" y2="34.4939" gradientUnits="userSpaceOnUse">
<stop stop-color="#DC2430"/>
<stop offset="1" stop-color="#7B4397"/>
</linearGradient>
<linearGradient id="paint19_linear_2658_166579" x1="10.5883" y1="40.2646" x2="13.7596" y2="40.2646" gradientUnits="userSpaceOnUse">
<stop stop-color="#DC2430"/>
<stop offset="1" stop-color="#7B4397"/>
</linearGradient>
<linearGradient id="paint20_linear_2658_166579" x1="1.38866" y1="40.583" x2="12.4451" y2="40.583" gradientUnits="userSpaceOnUse">
<stop stop-color="#DC2430"/>
<stop offset="1" stop-color="#7B4397"/>
</linearGradient>
<linearGradient id="paint21_linear_2658_166579" x1="5.72601" y1="43.8479" x2="10.4617" y2="43.8479" gradientUnits="userSpaceOnUse">
<stop stop-color="#DC2430"/>
<stop offset="1" stop-color="#7B4397"/>
</linearGradient>
<linearGradient id="paint22_linear_2658_166579" x1="26.9166" y1="19.7854" x2="30.7271" y2="19.7854" gradientUnits="userSpaceOnUse">
<stop stop-color="#DC2430"/>
<stop offset="1" stop-color="#7B4397"/>
</linearGradient>
<clipPath id="clip0_2658_166579">
<rect width="55" height="55" fill="white"/>
</clipPath>
<clipPath id="clip1_2658_166579">
<rect width="55" height="51.8269" fill="white" transform="translate(0 3)"/>
</clipPath>
</defs>
</svg>
