<svg width="55" height="55" viewBox="0 0 55 55" fill="none" xmlns="http://www.w3.org/2000/svg">
<path d="M35.5463 30.4357C35.2324 29.6784 34.3433 29.3761 33.634 29.7806C32.7798 30.2678 31.7153 30.5416 30.9694 31.1888C30.7086 31.4152 30.6723 31.7116 30.766 31.977C30.4849 32.0815 30.2173 32.2895 30.0002 32.633C28.648 34.7721 27.0554 36.516 24.6058 37.3358C23.4242 37.7312 22.2008 37.8871 20.9608 37.8357C19.7239 37.7843 18.53 37.3642 17.2999 37.3651C16.631 37.3656 16.3253 38.0776 16.5886 38.6113C15.8333 37.8219 14.863 37.0785 13.8844 36.8576C13.6724 36.8098 13.4217 36.96 13.4356 37.2049C13.4883 38.1307 13.8943 38.8841 14.3837 39.6541C14.4755 39.7986 15.0919 40.6196 15.0621 40.4868C15.1228 40.758 14.5472 41.6637 14.3687 42.0227C14.0756 42.4285 14.0561 42.8606 14.2009 43.2365C13.9941 43.1667 13.7872 43.0972 13.5825 43.0308C12.9073 42.8116 12.0951 42.4728 11.4023 42.7356C10.2542 42.1241 8.68665 43.2646 9.46045 44.7054C10.5114 46.6633 12.848 47.4827 13.7657 49.508C14.0723 50.1847 14.8194 50.3442 15.4442 50.1333C14.9215 51.3299 16.3183 52.678 17.3439 51.6139C18.9013 49.9979 21.2131 46.5755 20.6987 44.0551C23.6788 43.8692 26.8392 42.8839 29.0507 41.3585C31.5115 39.6615 34.2948 36.1837 32.8391 33.0084C32.7866 32.8942 32.6847 32.8375 32.5748 32.8244C32.5624 32.7966 32.5467 32.7709 32.5329 32.744C33.2711 32.7066 34.0444 32.4764 34.6725 32.2845C35.446 32.0477 35.8633 31.2 35.5463 30.4357ZM18.6935 40.1609C18.2569 40.3476 17.99 40.5337 17.801 40.9991C17.7848 41.0224 17.7712 41.0477 17.7567 41.0722C17.7267 41.076 17.6965 41.0805 17.6665 41.0845C17.7401 40.4709 17.637 39.8655 17.1713 39.278C17.1539 39.2561 17.1349 39.2338 17.1171 39.2116C17.5712 39.6163 18.1086 39.9262 18.6935 40.1609ZM16.7287 43.6909C16.7669 43.7147 16.8053 43.738 16.847 43.7573C16.84 43.823 16.8323 43.8885 16.8313 43.9556C16.8294 44.106 16.8733 44.2379 16.9449 44.3479C16.8763 44.3062 16.8039 44.266 16.7254 44.2284C16.6048 44.1708 16.4792 44.1189 16.356 44.0639C16.4909 43.9742 16.616 43.8485 16.7287 43.6909ZM17.7738 45.6931C17.7621 45.5233 17.7312 45.3596 17.6745 45.2044C17.778 45.1758 17.8736 45.1118 17.9479 45.0106C17.9467 45.0784 17.9436 45.1465 17.9303 45.2156C17.9001 45.3703 17.8429 45.5312 17.7738 45.6931ZM19.9193 40.8886C19.9146 40.876 19.9118 40.8632 19.9066 40.8506C19.8548 40.7218 19.7747 40.5925 19.6777 40.4768C20.4984 40.6773 21.3741 40.7563 22.2385 40.7408C21.4706 40.8096 20.6975 40.8444 19.9193 40.8886Z" fill="#E0DFE6"/>
<path d="M17.9785 24.9792C17.8534 24.6582 17.6577 24.3403 17.3234 24.1731C17.0356 24.0291 16.7386 23.9719 16.4144 24.013C16.0208 24.063 15.6808 24.268 15.4562 24.5568C15.2076 24.7522 15.0292 25.0191 14.9274 25.3085C14.8308 25.583 14.8224 25.953 14.9257 26.2275C15.0446 26.5433 15.2452 26.8594 15.5718 27.0225C15.9103 27.1918 16.2785 27.2474 16.6556 27.1567C17.1297 27.0426 17.5221 26.7296 17.7795 26.3432C17.8786 26.1945 17.9461 26.0239 17.9933 25.8542C18.0664 25.5902 18.0802 25.2403 17.9785 24.9792Z" fill="#E0DFE6"/>
<path d="M16.7282 28.8504C15.2068 28.526 13.9815 29.8326 12.9412 30.7647C11.8834 31.7125 10.4464 32.9331 10.0705 34.3465C9.95027 34.7984 10.3995 35.3485 10.8957 35.1625C12.174 34.6832 13.2252 33.4938 14.2821 32.6567C15.3041 31.8472 16.9805 31.1167 17.2358 29.7346C17.3035 29.3699 17.139 28.9379 16.7282 28.8504Z" fill="#E0DFE6"/>
<path d="M37.9902 12.9277C37.195 12.719 36.3261 13.0357 35.5488 13.4692C35.4322 13.2278 35.2219 13.028 34.9764 12.9471C33.2072 12.3634 31.1001 13.668 29.4311 14.2712C28.4006 14.6435 27.3704 15.0158 26.34 15.3882C25.5106 15.6878 24.4776 15.9109 23.8217 16.5601C22.7123 17.6582 22.6479 19.6811 22.3756 21.1349C21.946 23.4287 21.0962 24.7976 19.121 25.9148C18.6682 26.1708 18.8366 26.7924 19.2531 26.9587C22.9663 28.4415 24.2538 22.7018 24.7715 20.224C25.0523 18.8805 25.1298 18.6224 26.402 18.162C27.636 17.7153 28.8878 17.3137 30.1295 16.89C31.4093 16.4531 33.0648 16.1614 34.3073 15.4083C34.4324 15.5314 34.6015 15.6185 34.8083 15.6384C35.9804 15.7521 37.5913 15.8433 38.5094 14.9602C39.1551 14.3398 38.8312 13.1484 37.9902 12.9277Z" fill="#E0DFE6"/>
<path d="M36.3189 8.85072C36.1078 8.46573 35.6997 8.30048 35.3277 8.15976C35.019 8.04308 34.699 7.96677 34.3901 7.85157C34.0467 7.72349 33.7429 7.50201 33.4359 7.2949C32.8346 6.88984 32.0782 7.88576 32.6599 8.36737C33.1837 8.80092 33.6623 9.26891 34.1723 9.71658C34.7469 10.221 35.6888 10.825 36.2762 9.97472C36.4956 9.65712 36.507 9.19334 36.3189 8.85072Z" fill="#E0DFE6"/>
<path d="M35.8896 11.2045C33.4891 11.3785 31.1557 11.8288 28.8387 12.477C27.1862 12.9392 24.5612 13.3224 23.7273 15.0417C23.4772 15.5571 23.887 16.0991 24.4492 15.9846C28.2288 15.2154 32.0233 14.2199 35.8896 14.0467C37.7118 13.9646 37.7003 11.0732 35.8896 11.2045Z" fill="#E0DFE6"/>
<path d="M33.7443 9.17524C33.2382 8.9751 32.7284 8.79805 32.2155 8.63687C32.2505 8.32383 32.175 7.99096 31.9347 7.68935C31.8799 7.59325 31.8251 7.49738 31.7703 7.40127C31.7091 6.89066 31.4655 6.51254 30.9599 6.34553C27.4784 5.19438 23.5061 5.40431 20.0806 6.78896C19.6176 6.80739 19.1545 6.84588 18.6929 6.90956C15.7763 7.31287 10.5733 9.04274 9.86758 12.3583C9.79914 12.68 10.0755 13.0115 10.4223 12.9088C11.5683 12.5694 12.5274 11.7362 13.5355 11.0738C13.5953 11.0728 13.6571 11.0635 13.7213 11.0336C14.503 10.6714 15.3433 10.4029 16.1989 10.2541C16.2113 10.8739 16.6638 11.534 17.3632 11.6751C16.7861 11.9765 16.2605 12.3971 15.8207 12.9457C15.5921 13.231 15.5928 13.5571 15.7311 13.7976C15.7048 13.8074 15.6777 13.8141 15.6519 13.8246C14.864 14.1458 14.6538 15.1262 15.4146 15.6256C16.0206 16.0236 16.7692 16.1757 17.4062 16.5319C17.7249 16.7099 18.0316 16.9263 18.3135 17.1703C17.925 17.0145 17.4697 17.001 17.0918 17.1925C15.1615 18.171 13.0774 18.8757 11.0364 19.6469C10.6048 19.5041 10.1004 19.533 9.74105 19.746C9.2138 20.0583 8.79731 20.3893 8.41045 20.8437C8.76462 19.5692 9.18087 18.352 10.25 17.3982C10.6251 17.0635 10.8024 16.4197 10.6375 15.9441C10.6284 15.9177 10.6192 15.8911 10.61 15.8645C10.3605 15.1456 9.64205 14.7208 8.95582 14.8274C8.86222 14.7043 8.72911 14.6054 8.58166 14.5461C6.24193 13.6056 3.60354 16.778 3.08899 18.7378C2.97046 19.1894 2.9159 19.7602 2.93166 20.3718C2.86464 20.5557 2.83594 20.7698 2.85993 21.0164C2.91567 21.5937 3.00362 22.1533 3.1071 22.7063C3.06406 23.3683 3.07276 24.0275 3.23644 24.7392C3.52594 25.9984 4.11881 27.1999 4.8897 28.2351C5.33065 28.8274 5.84685 29.4518 6.49874 29.8299C7.03705 30.8558 7.6271 31.8568 8.28887 32.825C8.80578 33.5813 10.0564 33.9571 10.7462 33.139C11.9333 31.7315 13.1289 30.2888 15.0141 29.8752C16.4072 29.5696 16.4347 27.7408 15.3868 27.0462C14.428 26.4105 13.9962 25.16 13.5346 24.1598C13.496 24.0765 13.4594 23.9923 13.4213 23.909C14.3507 23.5699 15.2702 23.0019 16.0977 22.5745C16.657 22.2855 17.2073 21.9809 17.7484 21.6623C18.0979 22.2634 18.4069 22.8839 18.631 23.5997C19.0618 24.9757 21.1375 25.0597 21.5302 23.5997C22.1261 21.3854 22.6762 19.1582 23.2446 16.9366C23.3046 16.7019 23.3001 16.4712 23.2474 16.2555C23.8624 15.9865 24.2504 15.3509 24.2641 14.7451C27.1677 13.7943 30.1935 13.3094 33.2775 13.2926C34.3957 13.2865 34.939 12.1855 34.6946 11.3168C35.0886 10.4654 34.7233 9.56222 33.7443 9.17524ZM18.2453 13.8967C18.0367 13.823 17.8267 13.7626 17.6165 13.7169C17.8394 13.6541 18.0633 13.6063 18.2874 13.5727C18.267 13.6746 18.2557 13.7852 18.2453 13.8967Z" fill="#E0DFE6"/>
<path d="M32.5221 20.8498C32.1484 20.7382 31.8058 20.826 31.4697 21.0067C31.6424 20.914 31.5299 20.9638 31.4523 20.999C31.4209 21.0105 31.3681 21.0275 31.3261 21.0305C31.3006 21.0323 31.1822 21.0363 31.1625 21.0412C31.0558 21.03 30.9519 21.008 30.8426 21.0147C30.5582 21.0323 30.3328 21.1492 30.1637 21.3963C29.9549 21.7016 30.0689 22.134 30.2379 22.4201C30.4262 22.7391 30.8104 23.0008 31.1482 23.1079C31.9151 23.3508 33.0264 23.1398 33.2243 22.1696C33.3402 21.6017 33.0689 21.013 32.5221 20.8498Z" fill="#E0DFE6"/>
<path d="M52.9822 22.9153C52.5785 22.3854 51.911 22.252 51.3356 22.5717C50.9069 22.8097 50.5311 23.1429 50.1494 23.4541C50.1165 23.481 50.0835 23.5079 50.0508 23.5348C49.9749 23.3365 49.8942 23.1406 49.8098 22.9454C49.5991 22.4572 48.8939 22.6328 48.7684 23.0877C48.4849 24.1163 48.0004 25.9581 49.3942 26.3585C49.9974 26.5318 50.5564 26.1207 51.0592 25.8368C51.6944 25.4781 52.3156 25.1381 52.8825 24.6677C53.374 24.2595 53.3393 23.3839 52.9822 22.9153Z" fill="#E0DFE6"/>
<path d="M10.0035 35.999C9.8553 35.999 9.71296 35.9337 9.61595 35.8185C9.26736 35.4043 8.91314 34.989 8.5568 34.5715C4.96666 30.3632 1.25391 26.0116 1.25391 20.4085C1.25391 17.1921 2.68371 14.4115 5.18347 12.7495C7.09787 6.94367 12.69 4 21.8082 4C30.6417 4 34.1216 5.52157 36.5662 7.16596C36.7527 7.29113 36.8347 7.52425 36.7684 7.73947C36.702 7.95444 36.5152 8.10248 36.2787 8.09776L35.9898 8.09635C34.9908 8.09635 34.0486 8.1416 33.144 8.23353C35.2177 9.34213 37.347 10.9278 39.4939 12.9644C39.6419 13.1047 39.6919 13.3204 39.6208 13.512C39.5496 13.7037 39.3711 13.8338 39.1677 13.8427C33.9873 14.069 29.1766 15.0187 24.8663 16.6657C23.0099 20.9511 23.0134 23.0662 23.017 25.3035L23.0172 25.3775C23.0174 25.6247 22.8408 25.8364 22.5981 25.8796C21.6118 26.0542 20.6206 26.2727 19.6072 26.4997C19.4494 26.5358 19.2838 26.4927 19.1619 26.3856C19.0402 26.2784 18.9768 26.1195 18.9913 25.9576C19.0127 25.7204 19.0371 25.4093 19.0371 25.1038C19.0371 23.8083 18.0005 23.1016 17.468 23.1016C15.5835 23.1016 14.4301 24.6404 14.4301 25.4784C14.4301 25.5887 14.4374 25.699 14.4442 25.8093C14.4524 25.9408 14.4604 26.0724 14.4604 26.2039C14.4651 26.4542 15.1005 27.8433 16.8484 28.9984C17.002 29.1002 17.0889 29.2775 17.075 29.4618C17.0612 29.6461 16.9489 29.8083 16.7817 29.8856C13.8652 31.2349 11.6201 33.3038 10.4602 35.7114C10.3855 35.8668 10.2372 35.9733 10.0669 35.995C10.0458 35.9976 10.0244 35.999 10.0035 35.999ZM21.8082 5.01784C13.0919 5.01784 7.8049 7.78119 6.09416 13.231C6.05822 13.3456 5.98282 13.4439 5.88158 13.5082C3.58524 14.9666 2.26818 17.4818 2.26818 20.4085C2.26818 25.6353 5.85692 29.8418 9.32749 33.9094C9.52105 34.1361 9.7139 34.3624 9.90557 34.588C11.1179 32.4738 13.098 30.6453 15.5926 29.338C14.1325 28.1571 13.4461 26.8241 13.4461 26.2039C13.4461 26.0936 13.4389 25.9833 13.4321 25.873C13.4238 25.7414 13.4158 25.6099 13.4158 25.4784C13.4158 24.0944 14.9943 22.0837 17.468 22.0837C18.6876 22.0837 20.0514 23.3753 20.0514 25.1038C20.0514 25.1896 20.0498 25.2752 20.0469 25.3591C20.7032 25.2143 21.3527 25.0762 22.0022 24.9539C22.0039 22.7808 22.099 20.4375 24.0225 16.0613C24.0768 15.9378 24.178 15.8409 24.3035 15.7921C28.4306 14.189 33.004 13.2152 37.9145 12.8918C35.6222 10.8474 33.3681 9.34826 31.2021 8.42824C30.9949 8.34032 30.8702 8.12581 30.8958 7.90164C30.9214 7.67747 31.091 7.49691 31.3128 7.45825C32.3275 7.28123 33.374 7.16714 34.4806 7.11386C32.1741 5.94446 28.6791 5.01784 21.8082 5.01784Z" fill="url(#paint0_linear_2682_166880)"/>
<path d="M7.36212 41.5987C7.3326 41.5987 7.30285 41.596 7.27286 41.5904C6.99541 41.5398 6.81052 41.2662 6.8594 40.9794C7.11796 39.4636 7.72246 38.0233 8.30688 36.6303C8.58009 35.9795 8.83794 35.3651 9.06416 34.7412C9.16309 34.4686 9.45755 34.3303 9.7206 34.4327C9.98412 34.5348 10.1178 34.8389 10.0188 35.1118C9.78365 35.7606 9.50855 36.4166 9.2422 37.0505C8.68115 38.3873 8.10098 39.7695 7.86343 41.1629C7.81974 41.4187 7.60463 41.5987 7.36212 41.5987Z" fill="url(#paint1_linear_2682_166880)"/>
<path d="M30.5575 22.3998C30.346 22.3998 30.1491 22.2604 30.0788 22.0399C29.9906 21.7642 30.1335 21.4662 30.3979 21.3743C31.3336 21.049 32.3337 20.8991 33.3934 20.9317C33.4198 20.8369 33.4472 20.7419 33.4752 20.6444C33.6562 20.0186 33.8432 19.3715 33.8432 18.3005C33.8432 16.4278 33.0395 15.0119 32.6982 14.6804C32.5701 14.6797 32.442 14.6283 32.344 14.5264C32.1469 14.321 32.1469 13.9878 32.344 13.7824C32.4567 13.6647 32.6042 13.6001 32.7592 13.6001C33.6538 13.6001 34.8526 15.9241 34.8526 18.3007C34.8526 19.5268 34.6342 20.282 34.4416 20.9483C34.3769 21.1725 34.3156 21.3843 34.2693 21.5958C34.2137 21.8488 33.9916 22.0199 33.7412 22.0036C32.6661 21.9231 31.6499 22.0489 30.7172 22.3728C30.6641 22.3911 30.6104 22.3998 30.5575 22.3998Z" fill="url(#paint2_linear_2682_166880)"/>
<path d="M23.4837 41.5987C22.9665 41.5987 18.3811 41.547 16.6004 39.7586C16.404 39.5614 16.404 39.2415 16.6004 39.0443C16.7968 38.847 17.1153 38.847 17.3117 39.0443C18.368 40.1052 21.2516 40.5883 23.4837 40.5883C28.091 40.5883 30.7546 38.0681 31.6264 32.8838C31.6658 32.6498 31.8617 32.475 32.0975 32.4635C33.8015 32.3788 35.2121 31.8978 35.4202 31.3577C32.7771 28.0546 32.2224 25.6867 32.2224 24.2816C32.2224 23.9875 32.2326 23.6927 32.2431 23.3979C32.2531 23.1159 32.2634 22.8344 32.2634 22.5544C32.2634 22.0948 32.2347 21.7272 32.1732 21.3973C32.122 21.1231 32.3018 20.8592 32.5751 20.8077C32.85 20.7576 33.1109 20.9373 33.162 21.2115C33.2354 21.6042 33.2694 22.0307 33.2694 22.5544C33.2694 22.8464 33.2591 23.14 33.2486 23.4339C33.2386 23.7166 33.2284 23.9994 33.2284 24.2816C33.2284 25.5248 33.7451 27.6521 36.2067 30.7278C36.3805 30.9452 36.4525 31.0351 36.4525 31.2211C36.4525 32.9137 33.7216 33.3398 32.5481 33.4446C31.5202 38.8557 28.4722 41.5987 23.4837 41.5987Z" fill="url(#paint3_linear_2682_166880)"/>
<path d="M16.1954 44.7989C16.0916 44.7989 15.9865 44.7712 15.8933 44.713C15.6427 44.5566 15.575 44.2393 15.742 44.0046C16.139 43.4469 16.4379 42.8345 16.7544 42.1864C17.0749 41.5305 17.4058 40.8522 17.8511 40.2268C18.0181 39.9919 18.3561 39.9282 18.6074 40.0851C18.858 40.2415 18.9257 40.5588 18.7587 40.7935C18.3616 41.3512 18.0628 41.9633 17.7463 42.6114C17.426 43.2675 17.0949 43.9457 16.6495 44.5713C16.5445 44.7189 16.3717 44.7989 16.1954 44.7989Z" fill="url(#paint4_linear_2682_166880)"/>
<path d="M16.2692 51.1989C16.1294 51.1989 15.9944 51.1433 15.8958 51.0434C12.8107 47.9123 9.94986 45.9334 6.89292 44.8164C6.6239 44.7183 6.48698 44.4243 6.58709 44.1604C6.68695 43.8962 6.98653 43.761 7.25507 43.86C10.299 44.9724 13.1408 46.8817 16.1549 49.8467C16.3578 49.4962 16.5625 49.1479 16.7673 48.8003C17.3357 47.8348 17.9209 46.8406 18.4356 45.8309L6.34886 40.1698C6.08971 40.0484 5.97998 39.744 6.10342 39.4897C6.22711 39.2357 6.53776 39.128 6.79595 39.2487L19.3562 45.1314C19.6151 45.2526 19.7251 45.557 19.6017 45.8112C19.0179 47.0155 18.3312 48.1824 17.6668 49.311C17.3499 49.8493 17.032 50.389 16.723 50.9358C16.6432 51.0772 16.5 51.1731 16.3368 51.1944C16.3145 51.1974 16.2918 51.1989 16.2692 51.1989Z" fill="url(#paint5_linear_2682_166880)"/>
<path d="M30.6384 25.5993C30.1671 25.5993 29.6662 25.1333 29.6662 24.2697C29.6662 24.1324 29.6725 24.0111 29.6843 23.9025C29.551 24.0267 29.3995 24.1853 29.2278 24.3875C29.0506 24.5961 28.7632 24.5961 28.586 24.3875C28.4088 24.1789 28.4088 23.8406 28.586 23.632C29.3003 22.7911 29.8857 22.3994 30.4286 22.3994C31.0754 22.3994 31.6297 23.0943 31.6297 23.6634C31.6297 23.7377 31.6349 23.8122 31.64 23.8866C31.6467 23.9888 31.653 24.091 31.653 24.1935C31.6532 24.8847 31.2736 25.5993 30.6384 25.5993ZM30.7227 23.7092C30.6035 23.8678 30.5741 23.9319 30.5741 24.2697C30.5741 24.4474 30.6252 24.5239 30.6437 24.5315C30.6718 24.5167 30.7456 24.3813 30.7456 24.1937C30.7456 24.119 30.7403 24.0443 30.7353 23.9698C30.7294 23.8827 30.7242 23.7958 30.7227 23.7092Z" fill="url(#paint6_linear_2682_166880)"/>
<path d="M8.94688 21.5996C8.81513 21.5996 8.68544 21.5475 8.58972 21.4487C8.44074 21.2947 8.40838 21.0626 8.50984 20.8743C8.76095 20.4088 9.05178 19.8775 9.35524 19.3234C10.0177 18.1136 10.7554 16.7663 11.2467 15.7916C10.5955 15.5203 9.99176 15.2393 9.44591 14.9856C9.20627 14.8742 8.97833 14.7681 8.76302 14.6709C8.58329 14.5896 8.46921 14.41 8.47265 14.214C8.47609 14.0177 8.59637 13.8422 8.77886 13.7672C12.127 12.3906 14.8677 11.2699 16.9251 10.4364C17.1158 10.3588 17.3353 10.4074 17.4753 10.5576C17.6155 10.7078 17.6477 10.9287 17.5556 11.1122L17.2949 11.6339C16.6414 12.9435 15.9679 14.2927 15.2081 15.5817C15.9452 15.8815 16.6483 16.0919 17.3846 16.3122C17.7503 16.4217 18.1226 16.5331 18.5087 16.6581C18.7086 16.7229 18.8457 16.906 18.8507 17.115C18.8558 17.324 18.7274 17.5135 18.5307 17.5876L17.5028 17.9726C15.0483 18.8898 13.2754 19.5523 9.1638 21.55C9.09494 21.5834 9.02057 21.5996 8.94688 21.5996ZM10.2013 14.2489C10.7846 14.5187 11.4264 14.8089 12.107 15.0759C12.2348 15.1259 12.3358 15.2266 12.3861 15.3534C12.4366 15.4803 12.4318 15.6223 12.3728 15.7455C11.896 16.7446 11.0089 18.3649 10.2259 19.7946C10.188 19.8636 10.1506 19.932 10.1134 20C13.1548 18.5607 14.797 17.9315 16.8245 17.1732C15.9869 16.9213 15.1792 16.6657 14.2863 16.2576C14.1577 16.199 14.0604 16.0881 14.0191 15.9534C13.9778 15.8188 13.9966 15.6729 14.0705 15.5527C14.803 14.3626 15.4572 13.0926 16.0843 11.8417C14.4502 12.5068 12.4802 13.3126 10.2013 14.2489Z" fill="url(#paint7_linear_2682_166880)"/>
<path d="M35.5066 23.9994C35.3608 23.9994 35.2141 23.9526 35.0923 23.8562C34.8104 23.6338 34.7681 23.2315 34.997 22.9579C35.0956 22.8399 35.1991 22.7233 35.3054 22.6092C35.5489 22.3474 35.9651 22.3282 36.2339 22.5654C36.5027 22.8023 36.5231 23.2064 36.2789 23.4672C36.1882 23.5643 36.1009 23.6634 36.0165 23.7636C35.8871 23.9189 35.6978 23.9994 35.5066 23.9994Z" fill="url(#paint8_linear_2682_166880)"/>
<path d="M40.9247 28.7992C40.9016 28.7992 40.8781 28.7978 40.8543 28.7946C40.6169 28.7621 40.3728 28.7043 40.1286 28.6225C39.8624 28.5336 39.7192 28.2474 39.809 27.9829C39.8982 27.7187 40.1872 27.5762 40.4532 27.6656C40.6343 27.7261 40.8213 27.7706 40.9937 27.7942C41.2719 27.8323 41.4662 28.0872 41.4279 28.3636C41.3928 28.6164 41.1746 28.7992 40.9247 28.7992ZM42.7754 28.3327C42.6105 28.3327 42.4487 28.2532 42.3509 28.1068C42.1957 27.8744 42.26 27.561 42.4939 27.4069C42.6468 27.3064 42.7957 27.189 42.9358 27.0578C43.1403 26.867 43.4622 26.8766 43.6547 27.0796C43.8471 27.2828 43.8372 27.6022 43.6328 27.7933C43.4507 27.9633 43.2564 28.1164 43.0559 28.2485C42.9693 28.3056 42.8717 28.3327 42.7754 28.3327ZM38.7064 27.5646C38.5497 27.5646 38.3952 27.493 38.2956 27.3576C38.1342 27.1383 38.0089 26.9016 37.9232 26.6537C37.832 26.39 37.9736 26.1028 38.2393 26.0125C38.5055 25.922 38.7942 26.0628 38.8852 26.3264C38.9374 26.4779 39.0152 26.6245 39.1165 26.7618C39.282 26.987 39.2328 27.3029 39.006 27.4673C38.9158 27.533 38.8107 27.5646 38.7064 27.5646ZM44.3331 26.317C44.2826 26.317 44.2313 26.3095 44.1807 26.2936C43.9126 26.2101 43.7637 25.9267 43.8478 25.6606C43.9037 25.4841 43.9362 25.3131 43.9442 25.1527C43.9583 24.8742 44.1953 24.6591 44.4777 24.6738C44.7582 24.6878 44.9742 24.9247 44.9601 25.2032C44.9476 25.449 44.9 25.7046 44.8183 25.963C44.75 26.1788 44.5493 26.317 44.3331 26.317ZM38.5533 25.1118C38.4781 25.1118 38.4021 25.0952 38.33 25.0601C38.0779 24.9376 37.9734 24.6352 38.0968 24.3845C38.2101 24.1547 38.3554 23.9379 38.5288 23.7401C38.7132 23.5296 39.0345 23.5072 39.246 23.6902C39.458 23.8731 39.4806 24.1921 39.2962 24.4023C39.181 24.534 39.0847 24.6773 39.0102 24.8284C38.9221 25.008 38.7412 25.1118 38.5533 25.1118ZM44.0589 23.7966C43.861 23.7966 43.6731 23.6814 43.5909 23.4891C43.5183 23.3201 43.4363 23.1547 43.3464 22.9974C43.2766 23.0035 43.2067 23.0098 43.1372 23.0168C42.8607 23.0437 42.6089 22.8419 42.5808 22.5643C42.553 22.287 42.757 22.0396 43.0366 22.012C43.2587 21.99 43.4813 21.9722 43.7037 21.9577C43.9793 21.9409 44.2259 22.1504 44.2443 22.4289C44.2461 22.4591 44.2454 22.489 44.2421 22.5182C44.3467 22.7032 44.4426 22.8964 44.5271 23.0942C44.6371 23.3507 44.5168 23.6472 44.2582 23.7564C44.1929 23.7836 44.1253 23.7966 44.0589 23.7966ZM40.541 23.5448C40.334 23.5448 40.1397 23.4185 40.0638 23.2144C39.9668 22.9525 40.1017 22.6625 40.3653 22.5659C40.5733 22.4899 40.7968 22.4198 41.03 22.3576C41.3016 22.2867 41.5802 22.4448 41.6533 22.714C41.726 22.9833 41.5654 23.2602 41.2943 23.3327C41.0903 23.3872 40.896 23.448 40.717 23.5135C40.6588 23.5347 40.5994 23.5448 40.541 23.5448ZM46.3422 22.9153C46.1307 22.912 45.9275 22.9106 45.7239 22.9106C45.4429 22.9106 45.1989 22.6847 45.1989 22.4058C45.1989 22.1268 45.41 21.9009 45.691 21.9009H45.7239C45.9329 21.9009 46.1416 21.9023 46.3503 21.9056C46.6313 21.9102 46.8553 22.1399 46.8508 22.4184C46.8463 22.6945 46.6192 22.9153 46.3422 22.9153ZM36.9603 21.9229C36.7888 21.9229 36.6216 21.8368 36.5257 21.6811C36.3794 21.443 36.455 21.1325 36.6948 20.9873C36.895 20.8659 37.1018 20.7537 37.3084 20.6538C37.5609 20.5315 37.8652 20.6363 37.9882 20.8872C38.1109 21.1379 38.0056 21.44 37.7531 21.562C37.5753 21.6479 37.3975 21.7444 37.2246 21.8492C37.1421 21.899 37.0505 21.9229 36.9603 21.9229ZM42.4805 21.7777C42.3771 21.7777 42.273 21.7465 42.1828 21.6818C42.0287 21.5709 41.8653 21.4725 41.6973 21.3888C41.4465 21.2637 41.3449 20.9604 41.4707 20.7111C41.5967 20.4621 41.902 20.3613 42.1533 20.4864C42.37 20.5944 42.5804 20.7214 42.7789 20.8638C43.0065 21.0272 43.0573 21.3432 42.8929 21.5688C42.7935 21.7052 42.6381 21.7777 42.4805 21.7777ZM39.3909 21.0488C39.1384 21.0488 38.9193 20.8622 38.887 20.607C38.8519 20.3304 39.0493 20.0778 39.328 20.043C39.5576 20.0142 39.7889 19.9995 40.0151 19.9995L40.0412 20.5044V21.0092C39.8318 21.0095 39.6431 21.0214 39.4552 21.0448C39.4335 21.0474 39.4121 21.0488 39.3909 21.0488Z" fill="url(#paint9_linear_2682_166880)"/>
<path d="M48.6505 22.3996C48.6322 22.3996 48.6141 22.399 48.5955 22.398C48.4648 22.3904 48.3343 22.3832 48.2042 22.3765C47.8736 22.3598 47.6266 22.1726 47.6522 21.9584C47.6781 21.7443 47.9659 21.5836 48.2976 21.6009C48.4328 21.6077 48.5682 21.6151 48.7042 21.6234C49.0345 21.6429 49.2779 21.832 49.2478 22.0458C49.2195 22.2477 48.9575 22.3996 48.6505 22.3996Z" fill="url(#paint10_linear_2682_166880)"/>
<path d="M49.7963 25.5993C49.7234 25.5993 49.65 25.5848 49.5803 25.5552C49.3799 25.4697 49.25 25.2743 49.25 25.0579V24.9142C49.25 24.0736 49.254 23.2337 49.2581 22.3933C49.2611 21.7759 49.2639 21.1582 49.2654 20.54C49.2659 20.3234 49.3968 20.1275 49.5986 20.0427C49.8001 19.9577 50.033 20.0004 50.1909 20.1508C51.0399 20.9594 51.9841 21.6949 52.9977 22.3367C53.1526 22.435 53.2473 22.6035 53.2498 22.7858C53.2521 22.9681 53.1617 23.1394 53.0096 23.2415C51.8804 23.9978 50.9524 24.7208 50.1724 25.4514C50.0684 25.5482 49.9335 25.5993 49.7963 25.5993ZM50.3539 21.7526C50.3529 21.968 50.3519 22.1832 50.3509 22.3986C50.3486 22.8846 50.3463 23.3701 50.3446 23.8561C50.7703 23.5066 51.2316 23.1565 51.7325 22.8016C51.2559 22.4711 50.7954 22.1207 50.3539 21.7526Z" fill="url(#paint11_linear_2682_166880)"/>
<defs>
<linearGradient id="paint0_linear_2682_166880" x1="4.45381" y1="4" x2="37.0928" y2="4" gradientUnits="userSpaceOnUse">
<stop stop-color="#DC2430"/>
<stop offset="1" stop-color="#7B4397"/>
</linearGradient>
<linearGradient id="paint1_linear_2682_166880" x1="7.11822" y1="34.3989" x2="9.83814" y2="34.3989" gradientUnits="userSpaceOnUse">
<stop stop-color="#DC2430"/>
<stop offset="1" stop-color="#7B4397"/>
</linearGradient>
<linearGradient id="paint2_linear_2682_166880" x1="30.4527" y1="13.6001" x2="34.5326" y2="13.6001" gradientUnits="userSpaceOnUse">
<stop stop-color="#DC2430"/>
<stop offset="1" stop-color="#7B4397"/>
</linearGradient>
<linearGradient id="paint3_linear_2682_166880" x1="18.1197" y1="20.7993" x2="35.1192" y2="20.7993" gradientUnits="userSpaceOnUse">
<stop stop-color="#DC2430"/>
<stop offset="1" stop-color="#7B4397"/>
</linearGradient>
<linearGradient id="paint4_linear_2682_166880" x1="15.917" y1="39.999" x2="18.637" y2="39.999" gradientUnits="userSpaceOnUse">
<stop stop-color="#DC2430"/>
<stop offset="1" stop-color="#7B4397"/>
</linearGradient>
<linearGradient id="paint5_linear_2682_166880" x1="7.18603" y1="39.1992" x2="18.7457" y2="39.1992" gradientUnits="userSpaceOnUse">
<stop stop-color="#DC2430"/>
<stop offset="1" stop-color="#7B4397"/>
</linearGradient>
<linearGradient id="paint6_linear_2682_166880" x1="28.7198" y1="22.3994" x2="31.4397" y2="22.3994" gradientUnits="userSpaceOnUse">
<stop stop-color="#DC2430"/>
<stop offset="1" stop-color="#7B4397"/>
</linearGradient>
<linearGradient id="paint7_linear_2682_166880" x1="9.31781" y1="10.3999" x2="18.1575" y2="10.3999" gradientUnits="userSpaceOnUse">
<stop stop-color="#DC2430"/>
<stop offset="1" stop-color="#7B4397"/>
</linearGradient>
<linearGradient id="paint8_linear_2682_166880" x1="34.9829" y1="22.3994" x2="36.3429" y2="22.3994" gradientUnits="userSpaceOnUse">
<stop stop-color="#DC2430"/>
<stop offset="1" stop-color="#7B4397"/>
</linearGradient>
<linearGradient id="paint9_linear_2682_166880" x1="37.3178" y1="19.9995" x2="46.1575" y2="19.9995" gradientUnits="userSpaceOnUse">
<stop stop-color="#DC2430"/>
<stop offset="1" stop-color="#7B4397"/>
</linearGradient>
<linearGradient id="paint10_linear_2682_166880" x1="47.7837" y1="21.5996" x2="49.1437" y2="21.5996" gradientUnits="userSpaceOnUse">
<stop stop-color="#DC2430"/>
<stop offset="1" stop-color="#7B4397"/>
</linearGradient>
<linearGradient id="paint11_linear_2682_166880" x1="49.5833" y1="19.9995" x2="52.9832" y2="19.9995" gradientUnits="userSpaceOnUse">
<stop stop-color="#DC2430"/>
<stop offset="1" stop-color="#7B4397"/>
</linearGradient>
</defs>
</svg>
