<svg width="55" height="56" viewBox="0 0 55 56" fill="none" xmlns="http://www.w3.org/2000/svg">
<g clip-path="url(#clip0_2682_169193)">
<g clip-path="url(#clip1_2682_169193)">
<path d="M22.3599 31.5798C21.235 30.7018 19.8747 29.8553 18.4605 29.369C18.8442 29.1727 19.2231 28.9817 19.3077 28.9196C19.6202 28.6906 19.8584 28.4031 20.019 28.0642C21.0934 27.5699 21.9643 26.8884 22.1177 25.5098C22.3163 23.7231 21.7793 21.6794 21.5689 19.9029C21.3154 17.7638 21.0665 15.6244 20.8268 13.4835C20.976 12.874 20.4292 12.3809 19.8565 12.2705C20.0979 11.8723 20.333 11.4705 20.5318 11.0478C20.7575 10.5678 20.2958 10.0326 19.8259 10.304C18.2972 11.1874 17.1251 12.5463 16.2345 14.1057C15.936 14.6284 15.6736 15.3531 14.9975 15.4771C14.6443 15.5418 14.1281 15.299 13.7611 15.2598C13.0271 15.1813 12.3456 15.2382 11.7144 15.679C7.99621 18.2779 13.2703 22.8308 11.4071 25.6753C10.8193 26.5726 11.6592 27.6247 12.5113 27.666C12.3394 28.2898 12.4043 28.9646 12.8411 29.605C13.6526 30.7941 15.3108 29.9343 14.9741 28.6511C14.5802 27.5927 16.1782 27.4308 16.8306 27.1935C17.5592 26.9284 18.2007 26.5603 18.7813 26.0236C19.5122 25.3478 19.9495 24.6076 20.2023 23.7634C20.2393 24.1969 20.2592 24.6248 20.244 25.0383C20.1894 26.5055 18.3053 26.7849 17.2635 27.5028C16.62 27.9459 16.1343 28.4692 15.7661 29.1189C15.696 29.187 15.6255 29.251 15.5554 29.3235C15.1332 29.7594 15.0488 30.6878 15.5554 31.1081C16.4116 31.8184 17.3841 32.3414 18.3063 32.9501C19.2016 33.5409 20.0735 34.4441 21.1085 34.7084C22.9886 35.1885 23.7962 32.7006 22.3599 31.5798ZM17.7025 16.4101C18.1499 15.6725 18.4148 14.8156 18.8119 14.0465C18.8709 14.4883 18.9291 14.9302 18.9885 15.372C18.8104 15.3611 18.6319 15.4269 18.4886 15.6112C18.0597 16.1617 17.705 16.8185 17.1224 17.2018C17.0906 17.2226 17.057 17.2377 17.0247 17.2567C17.2568 17.0495 17.48 16.7771 17.7025 16.4101ZM19.9428 21.8775C19.4332 22.8571 18.4881 23.8195 17.5841 24.3888C16.6814 24.9574 15.6635 25.0279 14.6937 25.3894C14.5306 25.4502 14.3701 25.5287 14.2127 25.6169C14.4214 24.8397 14.4223 24.008 14.245 23.1279C14.0598 22.2091 13.6644 21.3821 13.3563 20.508C13.2022 20.0705 12.7903 19.0665 12.92 18.6038C13.1127 17.9171 13.6217 17.9985 14.078 18.0086C13.7357 18.3624 13.7379 19.034 14.3348 19.1964C15.6119 19.5439 17.06 19.6409 18.2654 18.976C18.6689 18.7535 19.0541 18.4354 19.3459 18.0554C19.3933 18.4162 19.4431 18.7764 19.49 19.1372C19.6027 20.0068 19.7877 20.9366 19.9428 21.8775Z" fill="#E0DFE6"/>
<path d="M32.4944 38.2047C31.6113 36.3198 29.0586 36.2414 27.328 36.0636C25.0678 35.8316 22.7953 36.0088 20.534 36.1241C18.1679 36.2446 15.8086 36.1938 13.4444 36.0489C11.4256 35.9254 8.87823 35.2485 6.92548 35.8832C6.67038 35.9661 6.59551 36.3064 6.77306 36.5163C7.01767 36.8053 7.30374 37.0598 7.61908 37.2855C7.29155 37.2668 6.96426 37.2486 6.63624 37.2381C6.37846 37.2299 6.25847 37.6574 6.50064 37.7873C12.9374 41.2397 21.0518 41.0764 27.9816 40.0377C28.215 40.0026 28.3965 39.912 28.5394 39.7904C28.5928 39.8013 28.6469 39.808 28.7001 39.82C29.8059 40.0639 30.6724 40.617 31.7774 40.1369C32.5183 39.815 32.8778 39.0228 32.4944 38.2047Z" fill="#E0DFE6"/>
<path d="M47.3319 34.0915C47.3374 33.8643 47.3028 33.6364 47.2048 33.41C47.1136 33.1991 46.8569 33.0796 46.6478 33.077C45.3385 33.0622 44.6013 35.0801 43.8939 36.0248C42.8637 37.4002 41.8087 38.741 40.695 40.0448C40.4129 40.3749 40.7678 40.8981 41.1569 40.6686C42.6727 39.7747 44.1149 38.6468 45.2884 37.3001C45.2971 37.2903 45.3067 37.2797 45.3157 37.2696C44.0764 39.1622 42.4823 40.6081 40.3578 41.8412C37.4117 43.5512 33.648 45.9515 30.1499 45.225C28.5312 44.8889 27.0814 43.9918 25.6216 43.2311C24.641 42.7201 23.4641 41.9887 22.3204 42.2539C21.7061 42.3962 21.2927 42.7393 21.0262 43.2016C21.0369 42.8961 21.0441 42.5801 21.0359 42.2482C21.023 41.725 20.5217 41.4753 20.0949 41.6854C17.8172 42.8065 18.0163 46.4643 19.0748 48.3784C19.6526 49.4232 20.7407 49.2579 21.3257 48.596C21.3741 48.7257 21.4223 48.8468 21.4692 48.9575C21.6127 49.2959 22.0706 49.1523 22.1657 48.8625C22.4493 47.9986 22.6357 47.1694 22.786 46.2708C22.854 45.8208 22.9273 45.3717 23.0057 44.9235C22.8468 44.5732 23.037 44.6185 23.5766 45.0596C24.9536 45.5727 26.2053 46.5005 27.5663 47.0785C30.5539 48.3477 33.416 48.0382 36.3557 46.773C41.063 44.7468 48.3718 41.3403 48.5764 35.1176C48.5985 34.4462 47.9003 33.9932 47.3319 34.0915Z" fill="#E0DFE6"/>
<path d="M52.4926 36.665C51.7902 35.0267 50.7573 33.4662 49.5144 32.2308C48.1678 30.892 46.9577 30.3631 45.3565 29.8118C45.5938 29.0335 45.7141 28.1687 46.0028 27.4541C46.5844 26.0154 47.2945 24.6395 47.8185 23.1732C48.3203 21.7694 48.5022 20.4491 48.4315 19.1545C48.7564 18.3 48.9543 17.3978 48.9485 16.4449C48.9256 12.6477 45.2103 9.04481 41.5914 9.41041C41.395 9.43013 41.2483 9.68763 41.4177 9.85228C42.9385 11.3276 44.7123 12.2195 45.4603 14.4244C46.1642 16.4991 45.3291 18.2011 44.1768 19.8649C42.1313 22.8186 39.4071 26.1761 41.1929 30.0304C41.5145 30.7245 42.0577 30.9843 42.6039 30.9483C42.6306 30.9943 42.6501 31.0433 42.6805 31.0875C43.1419 31.7595 43.8762 31.8649 44.485 31.3326C44.6591 31.1803 44.8016 31.0025 44.9234 30.8086C45.9367 31.6998 46.8888 32.4957 47.684 33.7198C48.4752 34.9375 49.1469 36.2429 49.6634 37.6145C50.1759 38.9754 50.5414 40.397 50.6991 41.8539C50.8146 42.9212 51.0113 45.1098 50.6767 45.8668C50.2305 46.8763 50.7365 48.4086 52.0026 48.3026C52.0485 48.2987 52.0944 48.295 52.1403 48.291C52.6715 48.2466 53.301 48.008 53.5393 47.4452C54.8825 44.2734 53.7809 39.6703 52.4926 36.665Z" fill="#E0DFE6"/>
<path d="M47.4558 41.2057C47.4973 40.6166 46.6055 40.4879 46.4879 41.0659C46.162 42.6688 45.6823 44.1999 45.4159 45.8276C45.2986 46.5442 45.5912 47.1595 46.2542 47.4035C46.4743 47.4844 46.6718 47.4775 46.8925 47.4035C47.3443 47.2523 47.8405 46.7287 47.7737 46.1683C47.5829 44.5666 47.3425 42.8153 47.4558 41.2057Z" fill="#E0DFE6"/>
<path d="M3.5767 40.1994C3.47253 39.6642 2.77886 39.7974 2.61433 40.1994C1.95373 41.8156 1.62963 43.7299 1.59022 45.4733C1.5555 46.9968 3.93139 46.9955 3.9697 45.4733C4.01324 43.7458 3.90714 41.8981 3.5767 40.1994Z" fill="#E0DFE6"/>
<path d="M36.4826 26.5717C36.4513 24.558 36.5278 21.3637 35.2467 19.813C34.8935 19.3856 34.167 19.4631 33.928 20.0063C33.4966 20.9861 33.5671 21.9573 33.6093 23.0268C33.6471 23.9863 33.6467 24.9451 33.6432 25.9046C33.3513 25.8442 33.064 25.7635 32.7859 25.6404C32.6948 25.6001 32.6155 25.7364 32.6623 25.8234C32.9362 26.3326 33.275 26.6793 33.6717 26.9665C33.8496 27.9474 34.7588 28.32 35.4964 28.0945C35.5328 28.1272 35.5718 28.1554 35.6061 28.1913C36.0404 28.6459 36.0383 29.0535 36.1392 29.6785C36.3275 30.8418 37.9676 30.8086 38.1777 29.6785C38.4379 28.277 37.5409 27.1439 36.4826 26.5717Z" fill="#E0DFE6"/>
<path d="M8.46826 30.5385C8.4507 30.5385 8.43339 30.5377 8.41559 30.5357C8.12637 30.5054 7.91519 30.2313 7.94348 29.9239C7.96567 29.6864 7.97713 29.4546 7.97713 29.235C7.97713 27.6914 6.94611 26.1629 5.75218 24.393C4.17468 22.0543 2.38672 19.4038 2.38672 15.8196C2.38672 13.0324 3.37288 10.6937 5.23887 9.05666C6.86393 7.63119 9.0362 6.84619 11.3553 6.84619C13.352 6.84619 15.555 7.50454 17.4988 8.08545C18.7983 8.47368 20.0256 8.84041 21.0371 8.97145C21.1944 8.99166 21.3349 9.08619 21.4192 9.22889C21.5036 9.37133 21.5229 9.54693 21.4717 9.70647C20.5304 12.6483 18.9738 15.2027 16.9703 17.0941C16.6114 17.4331 16.0856 17.4546 15.5289 17.4769C14.3652 17.5238 13.8911 17.6504 13.8911 18.7322C13.8911 19.6734 14.6793 20.274 15.354 20.5022C15.5384 20.5643 15.6759 20.7293 15.7115 20.9313C15.7476 21.1333 15.6762 21.34 15.5257 21.4695C13.948 22.8263 13.1808 24.136 13.1808 25.4735C13.1808 25.6838 13.2001 25.8979 13.2381 26.11C13.2922 26.4136 13.1047 26.7062 12.8191 26.764C12.5329 26.822 12.2578 26.6223 12.2034 26.3191C12.1529 26.038 12.1276 25.7534 12.1276 25.4735C12.1276 23.9848 12.817 22.5746 14.2299 21.1817C13.3637 20.6221 12.8379 19.7257 12.8379 18.7325C12.8379 16.4666 14.5625 16.3972 15.4886 16.3596C15.7623 16.3488 16.1756 16.3319 16.2729 16.2568C17.9948 14.6309 19.366 12.4691 20.2612 9.97581C19.3284 9.79452 18.295 9.48555 17.2132 9.16233C15.2433 8.57365 13.2062 7.96502 11.3548 7.96502C7.54258 7.96502 3.4392 10.4233 3.4392 15.8204C3.4392 19.0451 5.12255 21.5407 6.60739 23.7424C7.85301 25.5887 9.02937 27.333 9.02937 29.2358C9.02937 29.4922 9.01645 29.761 8.9906 30.035C8.96451 30.323 8.73553 30.5385 8.46826 30.5385Z" fill="url(#paint0_linear_2682_169193)"/>
<path d="M14.9387 31.3847C14.6812 31.3847 14.4525 31.1916 14.4043 30.9159C14.3736 30.7379 14.332 30.4685 14.332 30.1875C14.332 28.8041 15.557 28.1406 16.8542 27.4384C18.5067 26.5434 20.3776 25.5303 20.4111 22.8477C20.3937 22.7953 20.3665 22.719 20.3322 22.6215C20.0135 21.7125 19.166 19.2982 19.166 16.7624C19.166 16.3293 19.1748 15.8963 19.1841 15.4632C19.1929 15.0381 19.2018 14.6127 19.2018 14.1873C19.2018 13.8713 19.4454 13.6155 19.7457 13.6155C20.046 13.6155 20.2896 13.8713 20.2896 14.1873C20.2896 14.6212 20.2808 15.0548 20.2715 15.4881C20.2627 15.9129 20.2539 16.3378 20.2539 16.7624C20.2539 19.094 21.0525 21.369 21.3528 22.2256C21.4682 22.5545 21.4995 22.643 21.4995 22.7738C21.4995 26.2092 19.1023 27.5073 17.3523 28.455C16.1543 29.1039 15.4202 29.5346 15.4202 30.1875C15.4202 30.3327 15.4368 30.4934 15.4746 30.7096C15.5287 31.0203 15.333 31.3182 15.0377 31.3752C15.0042 31.3815 14.9715 31.3847 14.9387 31.3847Z" fill="url(#paint1_linear_2682_169193)"/>
<path d="M0.607083 45.7692C0.347169 45.7692 0.123909 45.5574 0.0965369 45.2723C0.0298922 44.5758 -0.00390625 43.8678 -0.00390625 43.1675C-0.00390625 39.8122 0.791071 36.6202 2.23441 34.1793C2.38674 33.9213 2.70449 33.8457 2.9437 34.0098C3.18314 34.1742 3.25359 34.5165 3.10103 34.7742C1.7617 37.0395 1.02409 40.0202 1.02409 43.1675C1.02409 43.8302 1.05622 44.5002 1.11906 45.1587C1.1481 45.4628 0.942687 45.7349 0.660399 45.7662C0.642548 45.7682 0.624697 45.7692 0.607083 45.7692Z" fill="url(#paint2_linear_2682_169193)"/>
<path d="M20.9837 33.9231C20.8746 33.9231 20.7647 33.8836 20.6712 33.8024C18.657 32.0427 15.7579 30.0233 11.1782 30.0233C9.99841 30.0233 8.88472 30.2572 7.8693 30.7187C7.60572 30.8386 7.30565 30.6914 7.2007 30.3891C7.09551 30.0871 7.22455 29.7447 7.48908 29.6247C8.62591 29.1079 9.86722 28.8462 11.1782 28.8462C16.0666 28.8462 19.1537 30.9951 21.2968 32.8671C21.5227 33.0647 21.5657 33.4341 21.393 33.6922C21.2918 33.8438 21.1385 33.9231 20.9837 33.9231Z" fill="url(#paint3_linear_2682_169193)"/>
<path d="M31.3442 40.6924C29.3578 40.6924 27.6172 40.0373 25.701 38.5679C25.4661 38.3877 25.41 38.0342 25.5756 37.7787C25.7411 37.523 26.0661 37.4622 26.301 37.6421C28.0308 38.9683 29.5859 39.56 31.3442 39.56C33.6838 39.56 34.6318 38.7042 36.5209 36.9993C37.2094 36.3783 37.989 35.6744 38.9869 34.879C39.2182 34.6939 39.5444 34.7487 39.7147 35.0007C39.8845 35.253 39.8343 35.6073 39.6026 35.7922C38.63 36.5677 37.8629 37.26 37.186 37.8708C35.2361 39.6302 34.0595 40.6924 31.3442 40.6924Z" fill="url(#paint4_linear_2682_169193)"/>
<path d="M29.4864 40.6923C29.2175 40.6923 28.9866 40.4715 28.9583 40.1747C28.8911 39.4719 28.7048 38.8409 27.1915 38.8321C27.1539 38.8385 27.0894 38.851 27.0005 38.8682C24.6224 39.3224 22.3906 39.5529 20.3668 39.5529C20.179 39.5529 1.58984 39.2802 1.58984 33.2106C1.58984 30.3006 5.41688 28.8462 6.32009 28.8462C6.51531 28.8462 6.69477 28.9622 6.78758 29.1486C6.80481 29.1812 8.98789 33.0646 19.7447 33.0646C23.8165 33.0646 26.6325 31.8984 29.1174 30.869C31.0639 30.0629 32.7447 29.3667 34.6383 29.3667C35.4381 29.3667 36.2377 29.4576 37.0107 29.5453C37.5072 29.602 38.0208 29.66 38.5195 29.6918C38.8127 29.7106 39.0362 29.9838 39.0187 30.302C39.0015 30.6201 38.7548 30.8594 38.4572 30.8444C37.9343 30.811 37.4088 30.7511 36.9004 30.6936C36.1545 30.6089 35.3827 30.5212 34.6383 30.5212C32.9407 30.5212 31.3445 31.1824 29.4962 31.9478C26.9254 33.0125 24.0124 34.219 19.7447 34.219C9.98293 34.219 6.85183 31.0984 6.07096 30.0389C5.15249 30.2581 2.65283 31.4067 2.65283 33.2106C2.65283 37.121 15.8266 38.3981 20.3668 38.3981C22.3291 38.3981 24.4991 38.1736 26.8161 37.7308C27.0534 37.6854 27.0965 37.6773 27.16 37.6773C28.9283 37.6773 29.8625 38.4551 30.0159 40.055C30.0464 40.372 29.8342 40.656 29.5423 40.6889C29.5233 40.6915 29.5046 40.6923 29.4864 40.6923Z" fill="url(#paint5_linear_2682_169193)"/>
<path d="M6.0783 37.3078C6.01146 37.3078 5.94368 37.2923 5.87848 37.2591C5.6203 37.1283 5.50097 36.775 5.61159 36.4699C6.01593 35.3545 6.65939 34.5189 7.2812 33.7107C7.78462 33.0569 8.26004 32.4394 8.59659 31.7006C8.72933 31.4086 9.03718 31.2998 9.28477 31.4562C9.53189 31.6135 9.62462 31.9779 9.49118 32.2702C9.09554 33.1395 8.55517 33.8413 8.03292 34.52C7.44147 35.2883 6.88274 36.014 6.54595 36.9435C6.4631 37.1712 6.27553 37.3078 6.0783 37.3078Z" fill="url(#paint6_linear_2682_169193)"/>
<path d="M29.0642 49.1539C28.8444 49.1539 28.666 48.8971 28.666 48.58V45.497C28.666 45.1799 28.8444 44.9231 29.0642 44.9231C29.284 44.9231 29.4624 45.1799 29.4624 45.497V48.58C29.4624 48.8971 29.284 49.1539 29.0642 49.1539Z" fill="url(#paint7_linear_2682_169193)"/>
<path d="M20.6244 47.4614C20.601 47.4614 20.5773 47.4598 20.5534 47.4565C20.2651 47.4158 20.0631 47.1388 20.1019 46.8379C20.1163 46.7265 20.1231 46.5958 20.1231 46.4391C20.1231 46.0311 20.0743 45.5386 20.0228 45.0173C19.9655 44.4378 19.9062 43.8388 19.9062 43.2782C19.9062 41.5939 20.5185 40.7398 21.726 40.7398C22.9205 40.7398 23.8823 41.3463 24.9003 41.9884C26.2724 42.8537 27.8274 43.8344 30.5138 43.8344C38.3733 43.8344 46.6853 36.136 46.7263 31.9681C46.5909 31.6414 45.3876 30.7927 44.4543 30.7927C43.6925 30.7927 43.4976 31.3196 43.2607 32.4382C43.0985 33.2044 42.8965 34.1584 41.9842 34.1584C41.861 34.1584 41.7418 34.1133 41.6471 34.031C41.2576 33.6924 41.1097 33.1914 40.9795 32.7496C40.8509 32.3149 40.7773 32.121 40.6794 32.121C40.246 32.121 39.763 32.5931 39.763 33.2704C39.763 33.6918 39.8425 33.7933 39.9745 33.9609C40.1421 34.1745 40.3723 34.4667 40.3723 35.1002C40.3723 35.4042 40.1365 35.6503 39.8457 35.6503C39.5549 35.6503 39.319 35.4042 39.319 35.1002C39.319 34.8609 39.2793 34.8099 39.1607 34.6593C38.9231 34.3571 38.7099 34.0236 38.7099 33.2704C38.7099 31.9245 39.7286 31.0204 40.6797 31.0204C41.5715 31.0204 41.821 31.8656 41.9859 32.4252C42.0216 32.5457 42.0577 32.6678 42.0974 32.7799C42.1482 32.5982 42.1972 32.3674 42.2326 32.2005C42.4311 31.2623 42.7633 29.6921 44.4543 29.6921C45.7671 29.6921 47.7796 30.8961 47.7796 31.937C47.7796 37.0691 38.5187 44.9347 30.5138 44.9347C27.5342 44.9347 25.7718 43.8232 24.356 42.9304C23.3898 42.3214 22.6268 41.8401 21.7257 41.8401C21.4206 41.8401 20.9593 41.8401 20.9593 43.2782C20.9593 43.782 21.0154 44.3525 21.0703 44.9044C21.1244 45.4548 21.1759 45.9743 21.1759 46.4391C21.1759 46.6455 21.1659 46.8241 21.1449 46.9849C21.1098 47.2608 20.8839 47.4614 20.6244 47.4614Z" fill="url(#paint8_linear_2682_169193)"/>
<path d="M40.1409 40.6924C40.0427 40.6924 39.9439 40.6572 39.8589 40.5844C38.5175 39.4287 37.4258 37.8862 37.4258 37.1459C37.4258 37.0101 37.4523 36.8803 37.5048 36.76C37.6211 36.4937 37.9033 36.3857 38.1356 36.5185C38.347 36.64 38.4441 36.9201 38.3718 37.1707C38.453 37.463 39.1337 38.6099 40.4233 39.7206C40.6308 39.8994 40.6731 40.238 40.5174 40.4766C40.4251 40.6179 40.284 40.6924 40.1409 40.6924Z" fill="url(#paint9_linear_2682_169193)"/>
<path d="M41.4772 30.5385C41.2423 30.5385 41.0287 30.37 40.9693 30.118C40.8404 29.5709 40.7749 29.0274 40.7749 28.5024C40.7749 26.2471 42.2964 24.6581 43.9071 22.9759C45.6872 21.117 47.5277 19.1948 47.5277 16.17C47.5277 11.074 44.5382 8.80153 37.8344 8.80153C35.8313 8.80153 33.7135 9.03271 31.0394 9.54747C31.4116 10.4992 31.5997 11.5287 31.5997 12.618C31.5997 15.478 30.3192 18.2247 29.1295 20.1588C29.5051 20.5074 29.9067 21.1776 29.9067 22.4496C29.9067 22.5885 29.9043 22.727 29.9023 22.8647C29.8999 22.9949 29.898 23.1244 29.898 23.2531C29.898 25.3028 30.9749 25.6637 32.3383 26.1202C33.6465 26.5581 35.2744 27.1035 35.2744 29.5699C35.2744 29.8763 35.0398 30.1245 34.7506 30.1245C34.4613 30.1245 34.2267 29.8763 34.2267 29.5699C34.2267 27.9925 33.4303 27.6491 32.0222 27.1777C30.6089 26.7043 28.8502 26.1156 28.8502 23.2531C28.8502 23.1179 28.8526 22.9818 28.8546 22.8452C28.857 22.7139 28.8589 22.5819 28.8589 22.4493C28.8589 21.0753 28.2965 20.8863 28.2727 20.8791C28.0261 20.8285 27.8691 20.605 27.8691 20.3394C27.8691 20.219 27.9034 20.1023 27.9677 20.0022C29.1472 18.1866 30.5517 15.4335 30.5517 12.6178C30.5517 11.4501 30.3034 10.3658 29.8135 9.3954C29.7351 9.24 29.7313 9.05429 29.8028 8.89529C29.8744 8.73629 30.0137 8.62275 30.177 8.58961C33.2376 7.96903 35.5989 7.69238 37.834 7.69238C45.0614 7.69238 48.575 10.4655 48.575 16.17C48.575 19.659 46.4858 21.8405 44.6426 23.7655C43.1291 25.3457 41.8222 26.7107 41.8222 28.5024C41.8222 28.937 41.8771 29.3903 41.9853 29.8494C42.0556 30.1466 41.8846 30.4476 41.6038 30.5218C41.5618 30.5331 41.5191 30.5385 41.4772 30.5385Z" fill="url(#paint10_linear_2682_169193)"/>
<path d="M50.4696 47.4615C50.209 47.4615 49.9914 47.2296 49.9765 46.9299C49.9418 46.2141 49.9228 45.4672 49.9045 44.7446C49.8054 40.8237 49.7029 36.7692 47.1397 34.0512C46.94 33.8393 46.929 33.4836 47.115 33.2561C47.301 33.0284 47.6138 33.0164 47.8133 33.2277C50.6787 36.2662 50.7922 40.7534 50.8924 44.7123C50.9114 45.4602 50.929 46.1666 50.9636 46.8676C50.9787 47.178 50.77 47.4433 50.4975 47.4605C50.4879 47.461 50.4787 47.4615 50.4696 47.4615Z" fill="url(#paint11_linear_2682_169193)"/>
<path d="M38.9959 26.3077C37.9441 26.3077 36.9172 25.8605 35.9641 25.377C35.7129 25.2495 35.6007 24.9422 35.7077 24.6748C35.8705 24.268 35.9535 23.8134 35.9535 23.3235C35.9535 22.5698 35.7615 21.7239 35.3836 20.8094C35.3548 20.739 35.3391 20.6595 35.3391 20.5851C35.3391 20.3804 35.4533 20.1907 35.6291 20.0965C35.6633 20.078 36.4729 19.6364 36.4729 19.0099C36.4729 18.5715 36.1674 17.32 34.8104 17.32C34.2215 17.32 33.9951 17.4447 33.9205 17.4856C33.6182 17.653 33.3989 17.5412 33.2957 17.4605C33.1113 17.316 33.0475 17.1032 33.1059 16.8274C33.1265 16.7296 33.1698 16.5257 33.1698 16.1064C33.1698 14.7726 32.5143 13.6507 31.3241 12.9472C31.0697 12.7969 30.9813 12.4622 31.1266 12.1991C31.2723 11.9362 31.5967 11.8456 31.8501 11.9951C33.3628 12.8891 34.2301 14.3876 34.2301 16.1064C34.2301 16.1607 34.2294 16.2123 34.2284 16.2616C34.3929 16.2379 34.5857 16.2232 34.8104 16.2232C36.6885 16.2232 37.5333 17.8526 37.5333 19.0096C37.5333 19.8779 36.9528 20.4792 36.5247 20.8045C36.8496 21.6979 37.0142 22.5436 37.0142 23.3233C37.0142 23.7697 36.9596 24.1969 36.8518 24.5994C37.5635 24.9371 38.2992 25.2109 38.9961 25.2109C39.3151 25.2109 39.6081 25.156 39.8927 25.043C40.1641 24.9343 40.4725 25.075 40.5779 25.3579C40.6827 25.6406 40.5464 25.9578 40.2731 26.0665C39.8706 26.2267 39.4411 26.3077 38.9959 26.3077Z" fill="url(#paint12_linear_2682_169193)"/>
<path d="M28.6752 18.6922C28.6456 18.6922 28.6158 18.6894 28.5859 18.684C28.3006 18.6321 28.109 18.3455 28.1578 18.0434C28.1622 18.0157 28.1639 17.9879 28.1639 17.9604C28.1639 17.7937 28.1022 17.5913 28.0367 17.3769C27.9582 17.1197 27.8691 16.8285 27.8691 16.5208C27.8691 15.8293 28.3317 15.3076 28.945 15.3076C29.2849 15.3076 29.5323 15.5632 30.1488 16.5513L30.1704 16.5857C30.3309 16.8405 30.2654 17.185 30.0242 17.3545C29.7844 17.5243 29.458 17.4555 29.2973 17.2001L29.2737 17.1621C29.1256 16.9248 29.013 16.7548 28.928 16.633C28.9472 16.7499 28.9897 16.8899 29.0346 17.0358C29.1181 17.3091 29.2128 17.6188 29.2128 17.9604C29.2128 18.0509 29.2062 18.1413 29.1917 18.2312C29.1472 18.5014 28.9258 18.6922 28.6752 18.6922Z" fill="url(#paint13_linear_2682_169193)"/>
<path d="M34.5209 16.9999C34.5092 16.9999 34.4977 16.9997 34.4859 16.9987C33.5998 16.9367 32.6778 16.812 31.7854 16.6915C30.9094 16.5731 30.0031 16.4504 29.1489 16.3906C28.864 16.3708 28.6485 16.1126 28.6671 15.814C28.6863 15.5151 28.9343 15.2855 29.2173 15.3093C30.1035 15.3713 31.0257 15.496 31.9178 15.6165C32.7939 15.7349 33.7001 15.8576 34.5544 15.9174C34.8396 15.9372 35.0548 16.1954 35.0359 16.494C35.0175 16.7806 34.7905 16.9999 34.5209 16.9999Z" fill="url(#paint14_linear_2682_169193)"/>
<path d="M4.19687 46.6154C3.942 46.6154 3.70876 46.4427 3.6401 46.1806C3.23721 44.6471 3.18164 43.1369 3.18164 41.7335C3.18164 41.3733 3.18565 41.013 3.18966 40.653C3.19366 40.2971 3.19767 39.9412 3.19767 39.5853C3.19767 39.2619 3.45602 39 3.77448 39C4.09295 39 4.3513 39.2619 4.3513 39.5853C4.3513 39.9455 4.34729 40.3058 4.34328 40.6658C4.33901 41.0217 4.33527 41.3776 4.33527 41.7335C4.33527 43.0575 4.38603 44.4758 4.75472 45.8791C4.837 46.1914 4.65373 46.5121 4.34622 46.5953C4.29599 46.6089 4.24603 46.6154 4.19687 46.6154Z" fill="url(#paint15_linear_2682_169193)"/>
<path d="M46.809 47.4616C46.7592 47.4616 46.7083 47.4562 46.6577 47.4449C46.325 47.3707 46.1229 47.0697 46.2063 46.7728C46.4297 45.9756 46.5384 45.1198 46.5384 44.157C46.5384 42.9392 46.3627 41.6833 46.1925 40.4688C46.1499 40.1652 46.3915 39.8884 46.7313 39.8504C47.0723 39.8132 47.382 40.0277 47.4246 40.3313C47.5997 41.5794 47.7803 42.8701 47.7803 44.157C47.7803 45.2114 47.6595 46.1552 47.4108 47.0418C47.34 47.2935 47.087 47.4616 46.809 47.4616Z" fill="url(#paint16_linear_2682_169193)"/>
</g>
</g>
<defs>
<linearGradient id="paint0_linear_2682_169193" x1="3.97948" y1="6.84619" x2="20.2256" y2="6.84619" gradientUnits="userSpaceOnUse">
<stop stop-color="#DC2430"/>
<stop offset="1" stop-color="#7B4397"/>
</linearGradient>
<linearGradient id="paint1_linear_2682_169193" x1="14.9293" y1="13.6155" x2="21.0216" y2="13.6155" gradientUnits="userSpaceOnUse">
<stop stop-color="#DC2430"/>
<stop offset="1" stop-color="#7B4397"/>
</linearGradient>
<linearGradient id="paint2_linear_2682_169193" x1="0.261554" y1="33.9231" x2="2.96925" y2="33.9231" gradientUnits="userSpaceOnUse">
<stop stop-color="#DC2430"/>
<stop offset="1" stop-color="#7B4397"/>
</linearGradient>
<linearGradient id="paint3_linear_2682_169193" x1="8.35863" y1="28.8462" x2="20.5432" y2="28.8462" gradientUnits="userSpaceOnUse">
<stop stop-color="#DC2430"/>
<stop offset="1" stop-color="#7B4397"/>
</linearGradient>
<linearGradient id="paint4_linear_2682_169193" x1="26.675" y1="34.7693" x2="38.8597" y2="34.7693" gradientUnits="userSpaceOnUse">
<stop stop-color="#DC2430"/>
<stop offset="1" stop-color="#7B4397"/>
</linearGradient>
<linearGradient id="paint5_linear_2682_169193" x1="4.709" y1="28.8462" x2="36.5244" y2="28.8462" gradientUnits="userSpaceOnUse">
<stop stop-color="#DC2430"/>
<stop offset="1" stop-color="#7B4397"/>
</linearGradient>
<linearGradient id="paint6_linear_2682_169193" x1="5.90214" y1="31.3848" x2="9.28675" y2="31.3848" gradientUnits="userSpaceOnUse">
<stop stop-color="#DC2430"/>
<stop offset="1" stop-color="#7B4397"/>
</linearGradient>
<linearGradient id="paint7_linear_2682_169193" x1="28.7324" y1="44.9231" x2="29.4093" y2="44.9231" gradientUnits="userSpaceOnUse">
<stop stop-color="#DC2430"/>
<stop offset="1" stop-color="#7B4397"/>
</linearGradient>
<linearGradient id="paint8_linear_2682_169193" x1="22.229" y1="29.6921" x2="45.9213" y2="29.6921" gradientUnits="userSpaceOnUse">
<stop stop-color="#DC2430"/>
<stop offset="1" stop-color="#7B4397"/>
</linearGradient>
<linearGradient id="paint9_linear_2682_169193" x1="37.6912" y1="36.4617" x2="40.3989" y2="36.4617" gradientUnits="userSpaceOnUse">
<stop stop-color="#DC2430"/>
<stop offset="1" stop-color="#7B4397"/>
</linearGradient>
<linearGradient id="paint10_linear_2682_169193" x1="29.5946" y1="7.69238" x2="47.1946" y2="7.69238" gradientUnits="userSpaceOnUse">
<stop stop-color="#DC2430"/>
<stop offset="1" stop-color="#7B4397"/>
</linearGradient>
<linearGradient id="paint11_linear_2682_169193" x1="47.3142" y1="33.0769" x2="50.6989" y2="33.0769" gradientUnits="userSpaceOnUse">
<stop stop-color="#DC2430"/>
<stop offset="1" stop-color="#7B4397"/>
</linearGradient>
<linearGradient id="paint12_linear_2682_169193" x1="31.853" y1="11.9231" x2="39.9761" y2="11.9231" gradientUnits="userSpaceOnUse">
<stop stop-color="#DC2430"/>
<stop offset="1" stop-color="#7B4397"/>
</linearGradient>
<linearGradient id="paint13_linear_2682_169193" x1="28.0682" y1="15.3076" x2="30.099" y2="15.3076" gradientUnits="userSpaceOnUse">
<stop stop-color="#DC2430"/>
<stop offset="1" stop-color="#7B4397"/>
</linearGradient>
<linearGradient id="paint14_linear_2682_169193" x1="29.1969" y1="15.3076" x2="34.6123" y2="15.3076" gradientUnits="userSpaceOnUse">
<stop stop-color="#DC2430"/>
<stop offset="1" stop-color="#7B4397"/>
</linearGradient>
<linearGradient id="paint15_linear_2682_169193" x1="3.31437" y1="39" x2="4.66822" y2="39" gradientUnits="userSpaceOnUse">
<stop stop-color="#DC2430"/>
<stop offset="1" stop-color="#7B4397"/>
</linearGradient>
<linearGradient id="paint16_linear_2682_169193" x1="46.3202" y1="39.8462" x2="47.6741" y2="39.8462" gradientUnits="userSpaceOnUse">
<stop stop-color="#DC2430"/>
<stop offset="1" stop-color="#7B4397"/>
</linearGradient>
<clipPath id="clip0_2682_169193">
<rect width="55" height="55" fill="white" transform="translate(0 0.5)"/>
</clipPath>
<clipPath id="clip1_2682_169193">
<rect width="54.1538" height="42.3077" fill="white" transform="translate(0 6.84619)"/>
</clipPath>
</defs>
</svg>
