<svg width="55" height="55" viewBox="0 0 55 55" fill="none" xmlns="http://www.w3.org/2000/svg">
<path d="M43.6517 43.8347C42.1419 42.3768 40.419 41.0043 38.7402 39.7424C38.224 39.3545 37.6749 39.0597 37.0983 38.8693C37.6533 37.869 37.1856 36.2022 35.6605 36.1481C31.4061 35.9968 27.1569 35.7636 22.9047 35.5633C22.176 35.5291 21.4453 35.5057 20.7146 35.4804C20.3896 35.3527 20.0233 35.3232 19.6624 35.4383C18.9056 35.4061 18.1496 35.3662 17.3966 35.2974C16.5781 35.2226 15.5891 35.1055 14.9617 34.5012C14.5937 34.1467 14.3759 33.6608 14.187 33.1602C15.162 32.9243 15.9837 32.5082 16.7704 31.8836C17.2251 31.5227 17.6537 30.9106 18.1073 30.3711C18.0173 30.9468 18.1927 31.5564 18.653 32.03C19.8235 33.2345 22.269 33.0446 23.7726 33.1132C28.7442 33.3398 33.7049 33.2488 38.677 33.1442C40.3858 33.1083 40.3378 30.36 38.677 30.5192C38.6155 30.5251 38.554 30.5293 38.4925 30.5349C38.7122 30.372 38.8593 30.1145 38.8398 29.7555C38.8108 29.2185 38.7818 28.6814 38.7525 28.1441C38.7245 27.624 38.3257 27.1492 37.7709 27.1625C35.1281 27.2255 31.7685 26.8562 29.2754 27.8152C28.9572 27.9374 28.9572 28.3414 29.2754 28.4642C29.2982 28.473 29.3221 28.4799 29.3452 28.4885C29.1708 29.1117 29.0003 29.7358 28.8227 30.3583C28.7784 30.513 28.7732 30.668 28.7968 30.8159C27.2371 30.7999 25.6788 30.7485 24.1195 30.7027C23.2486 30.6771 19.0466 31.1532 19.2009 29.5412C19.2051 29.497 19.1969 29.4581 19.1834 29.4219C19.2456 29.3919 19.3086 29.3661 19.3728 29.3457C20.3729 29.0268 21.2537 29.2108 22.1703 28.5434C22.8958 28.0152 23.2617 27.3059 23.2503 26.4134C23.2324 24.9798 20.9021 24.5404 20.6502 26.0615C20.523 26.8291 19.2638 26.6382 18.6665 26.7841C17.9117 26.9686 17.2969 27.3539 16.7997 27.9488C15.7133 29.2495 14.8107 30.6466 13.6733 31.9171C13.4588 31.6708 13.0091 31.8002 12.9153 32.1121C12.4174 33.7693 12.6774 35.6184 13.9523 36.8635C14.6222 37.5179 15.4609 37.8916 16.3522 38.118C15.2737 39.0435 14.1907 39.9636 13.091 40.8692C11.3322 42.3178 8.9399 43.7493 7.74671 45.7244C7.54916 46.0513 7.79813 46.5722 8.21169 46.5345C10.6175 46.3161 12.9761 44.5659 14.9135 43.2315C16.9286 41.8434 18.8958 40.2768 20.6913 38.5962C25.388 38.9178 30.0877 39.1886 34.7825 39.54C37.4368 41.2946 39.5963 43.8573 42.183 45.7379C43.3078 46.5549 44.625 44.7745 43.6517 43.8347ZM36.3277 30.2545C36.4958 30.5398 36.8586 30.715 37.1888 30.5337C37.2397 30.5698 37.2929 30.6028 37.3497 30.6294C36.7809 30.6705 36.2111 30.7012 35.6411 30.7278C35.9088 30.6377 36.1467 30.469 36.3277 30.2545ZM32.6269 30.161C32.7769 30.358 32.9666 30.5229 33.1784 30.625C33.6127 30.8343 34.0668 30.7736 34.4526 30.5593C34.5847 30.6525 34.7301 30.7216 34.89 30.761C34.0835 30.7905 33.2764 30.8082 32.4694 30.8178C32.5863 30.6186 32.6389 30.3873 32.6269 30.161ZM32.3078 29.0667C32.2879 29.1958 32.2883 29.3284 32.3112 29.4603C32.294 29.4436 32.279 29.4345 32.2652 29.4229C32.2266 29.3011 32.1882 29.1798 32.1506 29.0578C32.2022 29.0622 32.2556 29.0625 32.3078 29.0667Z" fill="#E0DFE6"/>
<path d="M38.7401 5.72093C38.3912 5.37208 37.6667 5.29753 37.3282 5.72093C36.6088 6.62013 36.29 7.66473 36.5387 8.8065C36.7261 9.66732 38.1206 9.4833 38.0812 8.59763C38.0542 7.98824 38.2647 7.51367 38.7403 7.13283C39.1612 6.79554 39.0916 6.07274 38.7401 5.72093Z" fill="#E0DFE6"/>
<path d="M54.9363 38.8118C54.7252 36.3349 54.3419 33.6137 53.5507 31.2428C53.5568 31.2034 53.5659 31.1665 53.5684 31.1244C53.8075 27.1264 53.6053 23.054 53.5197 19.0508C53.439 15.2707 53.4953 11.2951 52.6345 7.59493C52.5585 7.26846 52.0332 7.25813 51.9639 7.59493C51.1985 11.3083 51.3493 15.2759 51.3631 19.0508C51.3778 23.0562 51.2777 27.132 51.6165 31.1244C51.6615 31.6556 52.0104 31.9621 52.4008 32.0426C52.3518 32.6141 52.3713 33.1858 52.4219 33.7576C52.1914 33.8056 51.9826 33.9559 51.9124 34.2162C51.3887 36.1568 51.1045 38.2462 50.7771 40.2316C50.7237 40.5556 50.7842 40.84 50.9116 41.0781C50.7854 41.9431 50.5893 42.7781 49.7745 43.2579C48.4199 44.0552 46.6343 44.0468 45.1568 44.4565C44.6817 44.5883 44.693 45.271 45.1568 45.4083C46.9773 45.9478 49.9185 46.0775 51.6359 45.1165C51.7107 45.0747 51.7818 45.0275 51.8531 44.9812C51.6652 45.9208 53.0112 46.5907 53.6041 45.6474C54.8802 43.6163 55.1368 41.163 54.9363 38.8118Z" fill="#E0DFE6"/>
<path d="M31.4005 6.993C29.097 7.31454 26.781 7.64593 24.449 7.61542C22.8949 7.595 21.0505 7.07566 19.5695 7.74704C18.3883 8.28263 18.035 9.33682 17.9118 10.5438C17.6815 12.8003 17.6768 15.0944 17.666 17.3605C17.6645 17.6791 18.1819 17.7704 18.239 17.438C18.5347 15.7122 18.8617 13.992 19.2083 12.2755C19.3185 11.7296 19.3854 11.0661 19.5786 10.5386C19.9985 9.39193 20.8982 9.30016 21.9736 9.38652C25.2515 9.65 28.4606 9.71667 31.7523 9.59317C33.6403 9.52256 33.3379 6.72262 31.4005 6.993Z" fill="#E0DFE6"/>
<path d="M32.7169 23.2753C32.5388 22.352 32.5878 21.3564 32.339 20.4582C32.1612 19.8158 31.4541 19.3976 30.8044 19.5868C29.8068 19.8776 28.7951 19.6692 27.8093 19.9046C27.4954 19.9797 27.1628 20.281 27.1052 20.609C26.9414 21.5394 26.5131 22.7085 26.6666 23.7182C26.6083 23.7226 26.5507 23.729 26.4919 23.7327C25.6306 23.7861 25.3093 25.183 26.2742 25.3412C27.8253 25.5955 29.5684 25.7063 31.1018 25.2851C31.2986 25.2309 31.4531 25.1441 31.5756 25.0386C31.6273 25.0314 31.6805 25.0277 31.7294 25.0142C32.5142 24.7987 32.8621 24.0274 32.7169 23.2753Z" fill="#E0DFE6"/>
<path d="M49.0621 12.1495C49.0606 12.0174 49.0407 11.8976 49.0114 11.7849C49.1504 10.8436 48.8213 9.8485 48.0714 9.13923C47.0689 8.19107 45.3229 8.19771 44.4185 9.25043C44.1949 9.51071 44.3371 9.93461 44.7041 9.93977C45.3622 9.94937 46.0132 10.279 46.3899 10.8208C46.4607 10.9226 46.5151 11.0336 46.5606 11.1485C46.3151 11.3778 46.168 11.7111 46.2127 12.1493C46.4706 14.6727 46.8342 17.1604 47.4453 19.615C47.4025 19.6064 47.3626 19.5936 47.3171 19.5886C45.9453 19.4383 44.2576 19.6354 42.9498 20.0598C42.0375 20.3557 42.1859 21.5489 43.0265 21.7521C42.9926 22.1824 42.9505 22.613 42.8324 23.0086C42.6814 23.5149 43.015 24.0101 43.4908 24.168C44.5423 24.5169 45.8845 24.451 46.967 24.3061C47.5735 24.2249 48.1002 23.8433 48.1002 23.1729C48.1002 22.8277 47.8938 22.4373 47.589 22.2147C47.6025 22.1416 47.6074 22.0661 47.6042 21.9876C48.2896 21.8621 48.5666 21.2362 48.4606 20.6527C48.4963 20.6062 48.5251 20.5523 48.5359 20.4822C48.9637 17.7113 49.0934 14.9544 49.0621 12.1495Z" fill="#E0DFE6"/>
<path d="M37.4706 36.5946C37.4612 36.5946 37.4516 36.5944 37.4418 36.5939C31.0241 36.2517 22.8204 35.7766 16.0322 35.3537C14.6102 35.2654 13.4889 34.1251 13.4234 32.7014L13.3892 31.9402C13.3757 31.6472 13.6025 31.3987 13.8958 31.3857C14.1888 31.3741 14.437 31.5995 14.4501 31.8925L14.4843 32.6532C14.5251 33.5334 15.2184 34.2388 16.0979 34.2936C22.8839 34.716 31.0837 35.1911 37.4986 35.5331C37.7916 35.5488 38.0163 35.7988 38.0007 36.092C37.9855 36.3752 37.751 36.5946 37.4706 36.5946Z" fill="url(#paint0_linear_2682_167138)"/>
<path d="M51.4103 32.1127C51.1205 32.1127 50.8836 31.8802 50.8792 31.5899C50.8086 27.0311 50.7744 22.9229 50.7744 19.0296C50.7744 15.0244 50.8103 11.3144 50.8841 7.68738C50.9031 6.75374 50.1903 5.98099 49.2619 5.92835C47.661 5.83781 45.7723 5.73547 43.7028 5.62796C43.4098 5.6127 43.1847 5.36299 43.2 5.06999C43.2152 4.77698 43.4499 4.5472 43.7582 4.56712C45.8289 4.67439 47.7198 4.77722 49.3219 4.86776C50.8238 4.95263 51.9767 6.20069 51.9462 7.70903C51.8726 11.3287 51.8364 15.0315 51.8364 19.0296C51.8364 22.9172 51.8706 27.0203 51.9413 31.5734C51.9462 31.8666 51.712 32.108 51.4103 32.1127Z" fill="url(#paint1_linear_2682_167138)"/>
<path d="M13.5864 23.5295C13.2998 23.5295 13.0636 23.301 13.056 23.0124C12.9842 20.2983 12.9492 17.8179 12.9492 15.4293C12.9492 12.8434 13.1507 10.2595 13.3463 7.76019C13.3891 7.20862 13.4324 6.6568 13.4732 6.10473C13.5822 4.63993 14.8197 3.51292 16.2823 3.51907C20.1824 3.55868 25.8116 3.73827 33.0138 4.05244C33.3068 4.06523 33.5341 4.31322 33.5216 4.60623C33.5088 4.89924 33.2711 5.12508 32.9675 5.11376C25.7771 4.79984 20.1598 4.62074 16.2715 4.58138C15.3543 4.58113 14.6003 5.2818 14.5331 6.18346C14.492 6.73675 14.4487 7.2898 14.4054 7.84261C14.212 10.3215 14.0118 12.8848 14.0118 15.4291C14.0118 17.8081 14.0467 20.2794 14.1181 22.9841C14.1254 23.2776 13.8942 23.5217 13.5864 23.5295Z" fill="url(#paint2_linear_2682_167138)"/>
<path d="M0.83031 37.6867C0.660803 37.6867 0.493756 37.6056 0.391166 37.4547C0.225841 37.2124 0.288576 36.882 0.530905 36.7167C8.59393 31.2191 9.32707 27.7281 9.76523 25.6424C10.2853 23.1662 10.8002 22.3101 17.3835 22.3101C18.1771 22.3101 18.9762 22.3499 19.7492 22.3883C20.3758 22.4195 21.0236 22.4518 21.6561 22.4619C21.658 22.4601 21.6748 22.455 21.691 22.4508C21.7609 22.4331 21.8563 22.4087 21.9752 22.4087C22.6657 22.4087 23.899 23.0626 23.899 24.3658C23.899 25.6264 22.6606 27.502 19.2495 27.502C18.5545 27.502 17.8438 27.4425 17.1566 27.3852C16.5054 27.3308 15.8904 27.2794 15.3221 27.2794C15.0288 27.2794 14.7909 27.0417 14.7909 26.7482C14.7909 26.4547 15.0288 26.2171 15.3221 26.2171C15.9349 26.2171 16.5711 26.2702 17.2452 26.3268C17.9104 26.3824 18.5988 26.44 19.2495 26.44C21.8814 26.44 22.8367 25.1998 22.8367 24.366C22.8367 23.6688 22.0632 23.4718 21.9752 23.4715C21.982 23.4725 21.9673 23.4772 21.9523 23.4809C21.8834 23.4983 21.7801 23.5247 21.6539 23.5247C20.9886 23.5143 20.3315 23.4816 19.6963 23.4499C18.9366 23.412 18.1505 23.3729 17.3835 23.3729C11.3277 23.3729 11.2067 23.9498 10.8047 25.8613C10.3335 28.1036 9.54554 31.8566 1.12922 37.595C1.0377 37.657 0.933146 37.6867 0.83031 37.6867Z" fill="url(#paint3_linear_2682_167138)"/>
<path d="M39.0354 33.8383C39.0246 33.8383 39.014 33.838 39.003 33.8373C38.4639 33.8046 37.9252 33.7662 37.3854 33.7278C35.9969 33.6292 34.5611 33.5268 33.1408 33.5268C32.2428 33.5268 31.4204 33.5778 30.5497 33.6314C29.6442 33.6872 28.7076 33.7451 27.647 33.7451C20.5579 33.7451 18.6769 33.2392 17.8239 32.3651C17.2342 31.7612 17.2522 31.0167 17.2696 30.2968C17.2728 30.1667 17.2758 30.0324 17.2758 29.8939C17.2758 29.6127 17.2834 29.3312 17.2913 29.0481C17.2989 28.771 17.3068 28.4923 17.3068 28.2099C17.3068 27.9164 17.5447 27.6787 17.8379 27.6787C18.1312 27.6787 18.3691 27.9164 18.3691 28.2099C18.3691 28.5024 18.3612 28.791 18.3531 29.0776C18.3455 29.3507 18.3379 29.6223 18.3379 29.8939C18.3379 30.0412 18.3344 30.1842 18.3312 30.3224C18.315 30.9906 18.3192 31.352 18.5836 31.6231C19.3089 32.3659 22.0193 32.6827 27.6467 32.6827C28.6743 32.6827 29.5945 32.6259 30.4841 32.5708C31.3714 32.5159 32.2096 32.4643 33.1406 32.4643C34.5985 32.4643 36.0534 32.5678 37.4604 32.668C37.9965 32.7061 38.5318 32.7442 39.0672 32.7767C39.3602 32.7944 39.5831 33.0464 39.5651 33.3391C39.5484 33.6211 39.3142 33.8383 39.0354 33.8383Z" fill="url(#paint4_linear_2682_167138)"/>
<path d="M7.35339 45.1596C7.21242 45.1596 7.07145 45.1038 6.96714 44.9931C6.7659 44.7798 6.77549 44.4435 6.98855 44.2422C9.40814 41.9572 11.7106 40.5763 13.5605 39.4672C15.9764 38.0184 17.7216 36.9719 18.3362 34.8202C18.4169 34.538 18.7114 34.3756 18.9928 34.4553C19.275 34.5358 19.4383 34.8298 19.3576 35.1119C18.6277 37.6669 16.6327 38.8632 14.1069 40.3782C12.2069 41.5175 10.0537 42.8087 7.71824 45.0145C7.6154 45.1116 7.48452 45.1596 7.35339 45.1596Z" fill="url(#paint5_linear_2682_167138)"/>
<path d="M14.0436 40.3258C13.9492 40.3258 13.8542 40.301 13.7676 40.2483C11.5337 38.8883 8.34533 36.5844 6.45345 32.2921C6.33511 32.0236 6.45689 31.71 6.72555 31.5919C6.99346 31.4731 7.30689 31.5951 7.42596 31.8637C9.17713 35.8372 12.0302 37.9468 14.3204 39.341C14.5708 39.4935 14.6503 39.8202 14.4978 40.0709C14.3979 40.2353 14.2227 40.3258 14.0436 40.3258Z" fill="url(#paint6_linear_2682_167138)"/>
<path d="M13.174 31.9514C13.004 31.9514 12.8364 31.8729 12.7348 31.7248C12.5722 31.4876 12.619 31.1703 12.8514 31.0012C12.9476 30.9314 13.0798 30.8664 13.3696 30.7269C14.3472 30.2553 16.944 29.0026 16.944 27.31C16.944 27.2864 16.942 27.2627 16.9373 27.2391C16.8805 26.9513 17.068 26.672 17.3558 26.6152C17.6405 26.5581 17.9229 26.7456 17.9797 27.0337C17.9974 27.1235 18.0063 27.2162 18.0063 27.3097C18.0063 29.6695 15.0806 31.0807 13.8313 31.6835C13.6823 31.7553 13.5135 31.8367 13.4699 31.8648C13.3789 31.9233 13.2758 31.9514 13.174 31.9514Z" fill="url(#paint7_linear_2682_167138)"/>
<path d="M38.3934 10.1282C36.7845 10.1282 35.594 9.00215 35.5519 7.42664C35.5103 5.88459 36.6167 4.58143 38.0704 4.46014C38.1181 4.45596 38.1651 4.4535 38.2121 4.45202C38.9612 4.42792 39.721 4.72978 40.2957 5.27963C40.8544 5.81399 41.1675 6.50432 41.1771 7.22392C41.1976 8.71381 39.9045 10.0979 38.4643 10.1274C38.4407 10.1279 38.4171 10.1282 38.3934 10.1282ZM38.2958 5.51286C38.279 5.51286 38.2626 5.51311 38.2463 5.5136C38.2175 5.51458 38.189 5.5163 38.1602 5.51852C37.1626 5.60192 36.5909 6.5395 36.6137 7.3981C36.6403 8.38587 37.37 9.06562 38.3949 9.06562C38.4104 9.06562 38.4264 9.06562 38.4426 9.06538C39.2988 9.04766 40.1274 8.1428 40.1151 7.23819C40.1092 6.80594 39.9128 6.38303 39.5618 6.04746C39.2046 5.70598 38.7455 5.51286 38.2958 5.51286Z" fill="url(#paint8_linear_2682_167138)"/>
<path d="M17.3133 23.3727C17.0367 23.3727 16.8033 23.1582 16.7841 22.8777C16.7059 21.7359 16.668 20.5508 16.668 19.2543C16.668 16.6537 16.8249 14.0139 16.9767 11.4609C17.0242 10.6685 17.0712 9.87706 17.1138 9.08635C17.1868 7.72931 18.3121 6.667 19.6753 6.667C19.6773 6.667 19.9061 6.66725 19.9061 6.66725C22.3869 6.66725 24.9003 6.63256 27.3307 6.59885C29.074 6.57474 30.819 6.55039 32.5714 6.53809C32.8671 6.53809 33.1043 6.77328 33.1062 7.06555C33.1082 7.35905 32.872 7.59843 32.5788 7.60064C30.8283 7.61294 29.0858 7.63705 27.3452 7.66116C24.9111 7.69487 22.3941 7.7298 19.9058 7.7298L19.6758 7.72956C18.8762 7.72956 18.2172 8.35051 18.1746 9.14367C18.1318 9.93635 18.0848 10.73 18.0373 11.5242C17.8863 14.0616 17.7303 16.6854 17.7303 19.2546C17.7303 20.5267 17.7672 21.6882 17.8437 22.8054C17.8636 23.0981 17.6427 23.3515 17.3502 23.3717C17.3379 23.3722 17.3256 23.3727 17.3133 23.3727Z" fill="url(#paint9_linear_2682_167138)"/>
<path d="M48.3798 30.3677C48.0723 30.3598 47.8408 30.1158 47.8486 29.8225C47.9849 24.6416 48.1256 19.2848 48.1256 14.0175C48.1256 12.732 48.1173 11.4786 48.1008 10.2925C48.0914 9.60686 47.5647 9.04963 46.8759 8.99575C46.1356 8.93769 45.397 8.87274 44.6565 8.80779L44.2211 8.76966C43.9288 8.74407 43.7128 8.48649 43.7384 8.19422C43.764 7.90195 44.0179 7.68594 44.3138 7.71153L44.7495 7.74966C45.4868 7.81437 46.2219 7.87907 46.959 7.93664C48.1985 8.03357 49.1464 9.04003 49.1634 10.278C49.1798 11.469 49.1882 12.7271 49.1882 14.0177C49.1882 19.2988 49.047 24.663 48.9104 29.8508C48.9031 30.1389 48.6664 30.3677 48.3798 30.3677Z" fill="url(#paint10_linear_2682_167138)"/>
<path d="M42.4941 51.2627C42.2009 51.2627 41.963 51.025 41.963 50.7315C41.963 49.8641 42.0574 49.0163 42.1487 48.1966C42.24 47.3783 42.3261 46.6051 42.3261 45.8144C42.3261 43.8676 41.0493 43.0056 39.5709 42.0075C38.1096 41.0209 36.4531 39.9028 36.4531 37.5459C36.4531 36.1648 37.1708 35.547 37.695 35.096C38.0643 34.7782 38.2766 34.5821 38.3438 34.2544C38.5627 33.1845 38.6688 31.714 38.7812 30.157C39.0661 26.2118 39.3352 22.4854 41.453 22.4854C43.3463 22.4854 43.3992 27.8444 43.3992 27.8985C43.3992 28.7301 43.3471 29.5739 43.2969 30.3899C43.2477 31.1824 43.1972 32.0019 43.1972 32.7854C43.1972 33.0952 43.2049 33.3806 43.2209 33.6576C43.2376 33.9506 43.0135 34.2013 42.7205 34.218C42.4228 34.2347 42.1768 34.0106 42.1598 33.7178C42.1431 33.4207 42.1349 33.1158 42.1349 32.7854C42.1349 31.9689 42.1864 31.1327 42.2365 30.3243C42.2857 29.5245 42.3369 28.6973 42.3369 27.8983C42.3369 26.109 41.8414 23.7477 41.4227 23.5418C40.3237 23.5474 40.0332 27.5711 39.8411 30.2335C39.7262 31.8257 39.6177 33.3296 39.3849 34.4675C39.2418 35.1664 38.7883 35.5571 38.3878 35.9013C37.9007 36.3207 37.5157 36.6521 37.5157 37.5459C37.5157 39.3382 38.7436 40.1672 40.1656 41.1272C41.6761 42.1472 43.3884 43.3032 43.3884 45.8146C43.3884 46.6644 43.2949 47.5033 43.2044 48.3144C43.1166 49.1054 43.0253 49.9234 43.0253 50.7318C43.0253 51.0248 42.7874 51.2627 42.4941 51.2627Z" fill="url(#paint11_linear_2682_167138)"/>
<path d="M51.7728 46.4766C51.6668 46.4766 51.5595 46.4449 51.466 46.379C51.2267 46.2094 51.1701 45.8778 51.3396 45.6387C52.5298 43.9576 52.5286 42.1974 52.5271 40.334V40.1389C52.5271 35.5812 52.1802 32.9247 51.4963 32.2427C51.3012 32.0481 51.0914 32.0422 50.699 32.0407L50.6281 32.041C49.6475 32.041 49.2984 32.6223 49.1215 33.0595C48.9424 33.5016 48.6174 33.4893 48.4863 33.4629C48.0466 33.3766 48.0479 32.9441 48.0486 32.7362V32.6346C48.0486 32.5603 48.0545 32.4863 48.0611 32.412C48.0651 32.3684 48.0695 32.3249 48.0695 32.2808C48.0695 32.069 47.5937 31.5029 47.0913 31.5029C46.6684 31.5029 46.4015 31.8783 46.1646 32.2631C46.0428 32.4607 45.8167 32.8277 45.3945 32.7084C44.9468 32.5815 44.9468 32.1689 44.9468 31.4857C44.9468 31.032 44.8257 31.032 44.7859 31.032C43.9797 31.032 43.4178 31.9519 43.4178 32.7775C43.4178 33.071 43.1799 33.3087 42.8866 33.3087C42.5934 33.3087 42.3555 33.071 42.3555 32.7775C42.3555 31.4217 43.3319 29.9697 44.7859 29.9697C45.0238 29.9697 45.709 30.045 45.9353 30.8736C46.2249 30.6313 46.6037 30.4409 47.0913 30.4409C47.8589 30.4409 48.567 30.9612 48.9116 31.5536C49.4539 31.0992 50.0984 30.9789 50.6286 30.9789L50.6963 30.9787C51.142 30.9769 51.7313 30.9759 52.2472 31.4906C52.9112 32.1527 53.5899 33.6981 53.5899 40.1389V40.333C53.5917 42.281 53.5931 44.2952 52.2073 46.2523C52.103 46.3986 51.9391 46.4766 51.7728 46.4766Z" fill="url(#paint12_linear_2682_167138)"/>
<path d="M53.4816 50.6745C53.2051 50.6745 52.9719 50.46 52.9525 50.18C52.9438 50.0585 52.9406 49.9303 52.9406 49.7977C52.9406 49.5384 52.9537 49.2597 52.9677 48.9748C52.9812 48.6948 52.995 48.4087 52.995 48.1302C52.995 46.4403 52.995 46.3392 47.3641 46.3392C45.8558 46.3392 44.3548 46.4051 42.9028 46.535C42.6061 46.5594 42.3527 46.3456 42.3264 46.0533C42.3001 45.761 42.5158 45.5029 42.8081 45.4769C44.2913 45.344 45.8243 45.2769 47.3641 45.2769C52.7724 45.2769 54.0573 45.2769 54.0573 48.1304C54.0573 48.4257 54.0428 48.729 54.0285 49.0259C54.0157 49.2931 54.003 49.5546 54.003 49.7977C54.003 49.9047 54.0054 50.0083 54.0121 50.1067C54.0325 50.3995 53.8116 50.6531 53.519 50.6733C53.5065 50.6743 53.4942 50.6745 53.4816 50.6745Z" fill="url(#paint13_linear_2682_167138)"/>
<path d="M24.2415 12.9136C23.6629 12.9136 23.0796 12.8914 22.5152 12.8698C21.9612 12.8486 21.3882 12.827 20.83 12.827C20.5367 12.827 20.2988 12.5893 20.2988 12.2958C20.2988 12.0023 20.5367 11.7646 20.83 11.7646C21.4086 11.7646 21.9917 11.7868 22.5556 11.8084C23.5042 11.8444 24.5242 11.8712 25.3287 11.8183C25.6143 11.7949 25.8744 12.0198 25.894 12.313C25.9135 12.6058 25.6918 12.8589 25.3993 12.8784C25.0416 12.902 24.6625 12.9136 24.2415 12.9136Z" fill="url(#paint14_linear_2682_167138)"/>
<path d="M24.6036 15.8693C24.0599 15.8693 23.5258 15.8324 23.0092 15.797C22.276 15.7466 21.5909 15.6988 20.8654 15.7466C20.5756 15.764 20.3195 15.5448 20.3 15.2518C20.2806 14.959 20.5022 14.7059 20.7948 14.6865C21.5801 14.6338 22.3479 14.6862 23.0822 14.7369C23.8154 14.7873 24.4998 14.8353 25.2261 14.7871C25.5151 14.7642 25.7717 14.9888 25.7914 15.2818C25.8108 15.5746 25.5892 15.8277 25.2964 15.8472C25.0637 15.8629 24.8329 15.8693 24.6036 15.8693Z" fill="url(#paint15_linear_2682_167138)"/>
<path d="M25.1842 18.705C25.1497 18.705 25.1143 18.7016 25.0794 18.6944C24.4183 18.5621 23.745 18.4979 23.0214 18.4979C22.3584 18.4979 21.6538 18.5508 20.8026 18.6644C20.5125 18.7028 20.2448 18.4991 20.206 18.2083C20.1669 17.9175 20.3713 17.6503 20.6621 17.6114C21.5606 17.4914 22.3102 17.4355 23.0212 17.4355C23.8156 17.4355 24.5568 17.5066 25.2872 17.6528C25.5748 17.7103 25.7618 17.9901 25.704 18.2779C25.6538 18.5306 25.4322 18.705 25.1842 18.705Z" fill="url(#paint16_linear_2682_167138)"/>
<defs>
<linearGradient id="paint0_linear_2682_167138" x1="15.4397" y1="31.3853" x2="36.3607" y2="31.3853" gradientUnits="userSpaceOnUse">
<stop stop-color="#DC2430"/>
<stop offset="1" stop-color="#7B4397"/>
</linearGradient>
<linearGradient id="paint1_linear_2682_167138" x1="43.9282" y1="4.56592" x2="51.3636" y2="4.56592" gradientUnits="userSpaceOnUse">
<stop stop-color="#DC2430"/>
<stop offset="1" stop-color="#7B4397"/>
</linearGradient>
<linearGradient id="paint2_linear_2682_167138" x1="14.6636" y1="3.51904" x2="32.1506" y2="3.51904" gradientUnits="userSpaceOnUse">
<stop stop-color="#DC2430"/>
<stop offset="1" stop-color="#7B4397"/>
</linearGradient>
<linearGradient id="paint3_linear_2682_167138" x1="2.26551" y1="22.3101" x2="22.3257" y2="22.3101" gradientUnits="userSpaceOnUse">
<stop stop-color="#DC2430"/>
<stop offset="1" stop-color="#7B4397"/>
</linearGradient>
<linearGradient id="paint4_linear_2682_167138" x1="19.1222" y1="27.6787" x2="38.0793" y2="27.6787" gradientUnits="userSpaceOnUse">
<stop stop-color="#DC2430"/>
<stop offset="1" stop-color="#7B4397"/>
</linearGradient>
<linearGradient id="paint5_linear_2682_167138" x1="7.8686" y1="34.4351" x2="18.5412" y2="34.4351" gradientUnits="userSpaceOnUse">
<stop stop-color="#DC2430"/>
<stop offset="1" stop-color="#7B4397"/>
</linearGradient>
<linearGradient id="paint6_linear_2682_167138" x1="7.0888" y1="31.5464" x2="14.0308" y2="31.5464" gradientUnits="userSpaceOnUse">
<stop stop-color="#DC2430"/>
<stop offset="1" stop-color="#7B4397"/>
</linearGradient>
<linearGradient id="paint7_linear_2682_167138" x1="13.086" y1="26.605" x2="17.6484" y2="26.605" gradientUnits="userSpaceOnUse">
<stop stop-color="#DC2430"/>
<stop offset="1" stop-color="#7B4397"/>
</linearGradient>
<linearGradient id="paint8_linear_2682_167138" x1="36.0197" y1="4.45068" x2="40.8023" y2="4.45068" gradientUnits="userSpaceOnUse">
<stop stop-color="#DC2430"/>
<stop offset="1" stop-color="#7B4397"/>
</linearGradient>
<linearGradient id="paint9_linear_2682_167138" x1="18.0378" y1="6.53809" x2="32.0104" y2="6.53809" gradientUnits="userSpaceOnUse">
<stop stop-color="#DC2430"/>
<stop offset="1" stop-color="#7B4397"/>
</linearGradient>
<linearGradient id="paint10_linear_2682_167138" x1="44.1907" y1="7.70947" x2="48.8247" y2="7.70947" gradientUnits="userSpaceOnUse">
<stop stop-color="#DC2430"/>
<stop offset="1" stop-color="#7B4397"/>
</linearGradient>
<linearGradient id="paint11_linear_2682_167138" x1="37.032" y1="22.4854" x2="42.9362" y2="22.4854" gradientUnits="userSpaceOnUse">
<stop stop-color="#DC2430"/>
<stop offset="1" stop-color="#7B4397"/>
</linearGradient>
<linearGradient id="paint12_linear_2682_167138" x1="43.2917" y1="29.9697" x2="52.8411" y2="29.9697" gradientUnits="userSpaceOnUse">
<stop stop-color="#DC2430"/>
<stop offset="1" stop-color="#7B4397"/>
</linearGradient>
<linearGradient id="paint13_linear_2682_167138" x1="43.302" y1="45.2769" x2="53.2751" y2="45.2769" gradientUnits="userSpaceOnUse">
<stop stop-color="#DC2430"/>
<stop offset="1" stop-color="#7B4397"/>
</linearGradient>
<linearGradient id="paint14_linear_2682_167138" x1="20.7652" y1="11.7646" x2="25.5221" y2="11.7646" gradientUnits="userSpaceOnUse">
<stop stop-color="#DC2430"/>
<stop offset="1" stop-color="#7B4397"/>
</linearGradient>
<linearGradient id="paint15_linear_2682_167138" x1="20.7566" y1="14.6646" x2="25.4263" y2="14.6646" gradientUnits="userSpaceOnUse">
<stop stop-color="#DC2430"/>
<stop offset="1" stop-color="#7B4397"/>
</linearGradient>
<linearGradient id="paint16_linear_2682_167138" x1="20.6606" y1="17.4355" x2="25.3469" y2="17.4355" gradientUnits="userSpaceOnUse">
<stop stop-color="#DC2430"/>
<stop offset="1" stop-color="#7B4397"/>
</linearGradient>
</defs>
</svg>
