<svg width="55" height="55" viewBox="0 0 55 55" fill="none" xmlns="http://www.w3.org/2000/svg">
<g clip-path="url(#clip0_2682_168887)">
<g clip-path="url(#clip1_2682_168887)">
<path d="M43.0182 40.7446C41.417 40.149 39.5578 39.8776 37.8576 40.186C36.9531 40.3502 35.9933 41.0356 35.0875 41.0457C34.2978 41.0543 33.9819 40.4186 33.3318 40.0048C32.0828 39.2098 30.7435 39.4008 29.4996 40.107C27.5969 41.1869 26.3128 41.383 24.6695 39.7588C23.6731 38.774 22.6952 38.4211 21.3528 39.0585C19.9452 39.7268 18.0476 41.6139 16.4153 40.3909C15.5399 39.7349 15.3685 38.5628 14.0134 38.6869C13.8985 38.6975 13.7893 38.7216 13.6837 38.7544C13.4502 38.5429 13.1219 38.409 12.6886 38.415C12.016 38.4243 11.3769 38.3397 10.7279 38.1608C10.0481 37.9732 9.49318 37.6029 8.85434 37.3313C8.16922 37.04 7.49254 37.6386 7.83318 38.3365C8.13367 38.952 8.62316 39.4804 9.20547 39.9189C9.16992 39.9761 9.13693 40.0362 9.10931 40.1017C9.05919 40.2213 9.00165 40.3716 8.93234 40.5193C8.66459 40.7774 8.41908 41.05 8.19863 41.3297C8.16385 41.3707 8.12856 41.4105 8.0994 41.4548C8.08457 41.4747 8.06718 41.4938 8.0526 41.5137C7.80198 41.9681 7.81144 42.5509 8.15848 42.9934C8.6784 43.6568 9.56044 43.6449 10.1786 43.1284C10.5307 42.8338 10.8662 42.5685 11.2667 42.3203C11.7076 42.0469 12.1905 41.8614 12.6395 41.6058C12.7861 41.5223 12.8988 41.4216 12.9971 41.3148C13.3599 41.2393 13.6392 41.0309 13.8287 40.758C13.9781 40.9951 13.9888 41.413 14.1673 41.7347C14.5036 42.3414 15.0939 42.8029 15.7071 43.1133C17.0748 43.8053 18.6092 43.6366 19.9889 43.0914C20.7541 42.789 21.4175 42.3366 22.1387 41.9578C22.4458 41.7964 22.4934 41.7284 22.499 41.7133C22.4993 41.7224 22.5113 41.7511 22.6105 41.7858C22.8097 41.8558 23.3268 42.5184 23.4849 42.6445C24.5636 43.5052 25.9627 43.9699 27.3514 43.9551C28.112 43.947 28.8828 43.7746 29.5748 43.472C30.3868 43.117 31.0911 42.3558 31.9718 42.7802C32.6089 43.0871 32.9615 43.6935 33.6779 43.9435C34.34 44.1746 35.0885 44.1973 35.7747 44.0334C38.2177 43.4501 39.7084 42.2604 42.3423 43.1581C43.903 43.6895 44.5273 41.3058 43.0182 40.7446Z" fill="#E0DFE6"/>
<path d="M53.1528 28.3032C52.1174 29.8091 51.3669 31.4704 50.7573 33.2094C50.4474 34.0939 51.0255 34.7539 51.7298 34.9581C50.6497 37.266 48.9122 39.0604 47.0016 40.8584C45.4879 42.2831 47.482 45.0536 49.1963 43.8397C52.6282 41.4099 53.9969 37.0605 53.7244 32.8971C54.0492 31.7033 54.4647 30.5453 54.9539 29.407C55.5061 28.1225 53.9436 27.1529 53.1528 28.3032Z" fill="#E0DFE6"/>
<path d="M49.8752 25.6431C49.5688 23.6818 50.1532 21.6948 48.4932 20.1786C47.0624 18.8718 43.242 20.033 43.8656 17.015C44.0336 16.2024 42.8989 15.6208 42.4674 16.4243C42.0458 17.209 41.9405 18.2428 42.1003 19.2222C39.6265 19.164 37.0504 19.7421 34.5704 19.8626C31.9858 19.988 29.3927 20.0822 26.8089 19.9361C26.1055 19.8962 25.9264 21.0738 26.6398 21.1871C29.2843 21.6063 31.8955 22.0418 34.5701 22.219C37.2066 22.3936 40.1404 22.7208 42.7327 22.143C43.0357 22.0755 43.2668 21.9381 43.4369 21.761C43.9577 22.1207 44.5331 22.1337 45.2595 22.3201C46.2576 22.5762 46.5194 22.572 46.555 23.5993C46.5725 24.1101 46.5315 24.6251 46.4961 25.14C42.4653 25.2996 38.4319 25.418 34.3985 25.477C30.4515 25.5347 26.4535 25.4987 22.5349 26.0297C22.4897 26.0359 22.4482 26.0476 22.4079 26.0605C22.4877 25.4426 22.5569 24.8227 22.6379 24.2043C22.6712 24.1132 22.705 24.0222 22.7254 23.9154C22.8225 23.4074 22.9771 22.7792 23.1304 22.0933C23.635 22.2785 24.2785 22.2402 24.7633 22.0708C26.7722 21.3694 25.5717 18.3956 23.6206 19.3549C23.8364 19.2489 23.7594 19.2178 23.5935 19.2052C23.6859 17.7214 23.4531 16.3268 22.4053 15.5245C21.9642 15.1868 21.4526 15.0311 20.9026 15.0039C20.3811 14.9783 19.5644 15.322 19.2689 15.0947C18.9315 14.8353 18.5715 13.3921 18.3926 12.9863C17.9685 12.0239 17.5506 11.0551 17.0583 10.1264C16.6038 9.26873 15.5003 9.91583 15.617 10.7352C15.8516 12.3834 16.2305 14.0255 16.6278 15.6427C16.8699 16.6276 17.0857 17.6254 18.0952 18.0998C18.4569 18.2697 18.8657 18.347 19.2676 18.3359C19.5572 18.3051 19.844 18.257 20.1282 18.1918C20.654 18.0004 20.7513 18.0025 20.4206 18.1983C20.622 18.5736 20.2183 19.6443 20.1274 20.0597C20.0977 19.9598 20.0686 19.8626 20.0412 19.7729C19.6912 18.616 18.3962 18.5226 17.6546 19.0714C17.5147 19.0236 17.3655 18.983 17.1959 18.9582C14.2572 18.5278 11.0451 18.6713 8.07002 18.542C6.57524 18.4771 5.08123 18.4701 3.58515 18.459C2.66598 18.452 1.46778 18.2544 0.72542 18.9362C-0.626364 20.1779 0.177685 22.8472 0.954632 24.5009C0.843124 24.6364 0.805954 24.8216 0.928304 25.0006C1.93859 26.4774 3.73486 26.7259 5.40827 26.8198C8.10513 26.9709 10.8433 26.8196 13.5422 26.766C14.8501 26.7399 16.158 26.7141 17.4659 26.6879C18.3061 26.6711 19.2916 26.7598 19.9728 26.1707C20.068 26.0882 20.1525 25.9971 20.2289 25.9001C20.2991 26.4919 20.3974 27.0531 20.52 27.5512C20.7154 28.3458 22.0145 28.398 22.1772 27.5512C22.1784 27.5443 22.1795 27.5373 22.1808 27.5303C22.275 27.6206 22.3922 27.6873 22.5347 27.7137C30.4002 29.162 38.8253 28.5651 46.7785 28.3145C47.2924 28.2982 47.6765 28.0827 47.9323 27.7716C48.9596 27.8593 50.1054 27.116 49.8752 25.6431ZM10.6835 21.6624C10.652 22.4034 10.6208 23.1447 10.5893 23.8859C10.5846 23.9932 10.5929 24.0931 10.6102 24.1864C10.2762 24.1934 9.94476 24.203 9.61901 24.22C9.17917 24.2428 8.7383 24.2744 8.29743 24.3088C8.30569 24.1088 8.27394 23.9009 8.15727 23.7486C7.95206 23.4811 7.74711 23.2134 7.5419 22.946C7.36612 22.7166 7.19912 22.5384 6.90873 22.4582C6.65526 22.3884 6.31763 22.42 6.09255 22.5653C5.6509 22.8506 5.36232 23.5383 5.71259 24.0175C5.82539 24.1719 5.93819 24.3263 6.05099 24.481C5.31973 24.5278 4.58925 24.5573 3.86109 24.5436C3.86134 24.5296 3.86444 24.517 3.86418 24.503C3.85076 23.477 3.80636 22.3752 3.56063 21.3456C4.57118 21.3725 5.62509 21.515 6.5755 21.5222C7.95361 21.5329 9.33301 21.4925 10.7109 21.4555C10.6972 21.5228 10.6863 21.5916 10.6835 21.6624ZM16.7618 21.4403C16.3617 21.4206 16.2626 21.6588 16.4644 22.1554C16.4518 22.5976 16.4391 23.0399 16.4265 23.4822C16.4198 23.717 16.4711 23.9151 16.5573 24.084C15.4373 24.173 14.2828 24.1797 13.137 24.1771C13.153 24.0866 13.1594 23.9893 13.155 23.8856C13.1235 23.1444 13.0923 22.4034 13.0608 21.6622C13.0572 21.5742 13.043 21.4889 13.0223 21.4056C13.8628 21.3927 14.7035 21.3844 15.5452 21.3857L16.2928 21.3872C17.1304 21.3428 17.2868 21.3603 16.7618 21.4403Z" fill="#E0DFE6"/>
<path d="M47.652 32.0612C47.4962 32.0417 47.3301 32.0529 47.1644 32.0838C47.1009 31.9272 47.0119 31.7784 46.8904 31.6472C46.6181 31.353 46.2503 31.2242 45.8736 31.2507C45.9091 31.2457 45.9446 31.2408 45.98 31.2356C45.9661 31.2371 45.9527 31.2356 45.9388 31.2345C45.6482 31.213 45.3449 31.3582 45.1237 31.5371C45.082 31.5706 45.0481 31.6067 45.0126 31.6423C44.9357 31.6678 44.8606 31.7033 44.7887 31.7519C44.5617 31.9051 44.3943 32.102 44.2889 32.3635C44.0499 32.9567 44.2684 33.6193 44.7887 33.9608C45.0401 34.1257 45.3295 34.2023 45.6204 34.2028C45.5359 34.3202 45.4225 34.4202 45.2571 34.4898C44.8048 34.6797 44.2361 34.5231 43.7823 34.4218C43.4349 34.3441 42.9862 34.596 43.0237 35.0269C43.1554 36.5416 44.6064 37.3753 45.9689 37.2418C47.6639 37.0755 48.9988 35.4625 49.0442 33.7125C49.0658 32.8848 48.4175 32.1565 47.652 32.0612Z" fill="#E0DFE6"/>
<path d="M16.0898 15.5229C15.407 14.2062 14.9678 12.8406 14.5303 11.4177C14.3331 10.7765 13.8119 9.28876 12.8875 9.84184C11.9228 10.4193 12.0193 11.8446 12.0808 12.8688C12.1643 14.2619 12.4355 15.6514 12.8072 16.9875C13.5377 19.6097 17.3631 17.9779 16.0898 15.5229Z" fill="#E0DFE6"/>
<path d="M43.4806 44.1395C43.282 44.1395 43.09 44.0308 42.9905 43.8409C42.8483 43.567 42.9516 43.2284 43.2217 43.084C50.561 39.166 51.052 36.8228 51.795 33.2758C52.1972 31.3564 52.6893 29.0069 54.4023 25.9663C53.0381 25.9474 51.609 25.8613 50.0584 25.7059C49.729 26.0348 49.3923 26.3541 49.0645 26.6644C48.7082 27.0022 48.3522 27.3394 48.0065 27.6883C47.9099 27.7856 47.7817 27.8437 47.6459 27.8512C46.3272 27.9239 44.9194 27.9591 43.3419 27.9591C41.4725 27.9591 39.8853 27.9176 38.205 27.8735C36.2766 27.8232 34.0905 27.7659 31.1228 27.7659C29.5374 27.7659 27.9583 27.7783 26.3801 27.791C24.2528 27.8082 22.1261 27.8253 19.9891 27.8107C19.6864 27.8087 19.4414 27.5609 19.4394 27.2546L19.4317 26.2999C19.4247 25.4973 19.4183 24.6991 19.4183 23.8965C19.4183 20.9563 19.5647 19.6833 19.6823 18.661C19.6849 18.6379 19.6877 18.6153 19.6903 18.5928C18.5044 18.6065 17.3224 18.6151 16.1414 18.6234C12.4171 18.6496 8.56554 18.6765 4.74316 18.8887C3.91071 18.9347 3.07775 19.012 2.27171 19.0867C1.88598 19.1225 1.50077 19.158 1.11505 19.1907C1.27036 25.9821 2.43856 34.2237 9.42541 39.0885C9.61788 39.2223 9.70631 39.4644 9.64659 39.6932C9.44924 40.4473 9.2665 41.2611 9.2665 42.1034C9.2665 42.2139 9.26984 42.3252 9.27624 42.4375C9.29316 42.7465 9.05968 43.0108 8.75468 43.0282C8.452 43.038 8.18879 42.809 8.1711 42.5003C8.16393 42.3669 8.15982 42.2352 8.15982 42.1036C8.15982 41.2795 8.30437 40.5064 8.48045 39.7855C0.236214 33.7848 0.0698792 23.2251 -0.00188337 18.6836C-0.00649668 18.3868 0.218274 18.138 0.51045 18.1157C1.06482 18.0742 1.61713 18.0226 2.17098 17.9717C2.98651 17.896 3.82998 17.8179 4.68267 17.7704C8.5312 17.5567 12.3961 17.5297 16.1339 17.5035C17.5197 17.4936 18.9075 17.4843 20.301 17.4651C20.4627 17.4651 20.6104 17.5307 20.7152 17.6459C20.8218 17.7629 20.8741 17.9204 20.859 18.0791C20.8362 18.3154 20.8095 18.5463 20.7816 18.7904C20.6673 19.7845 20.525 21.0214 20.525 23.8965C20.525 24.6957 20.5314 25.4911 20.5383 26.2903L20.5417 26.6932C22.4888 26.7005 24.4302 26.6859 26.3714 26.6706C27.9522 26.6579 29.5346 26.6455 31.1228 26.6455C34.1051 26.6455 36.2982 26.7028 38.2335 26.7534C39.9065 26.7975 41.4869 26.8387 43.3419 26.8387C44.8161 26.8387 46.1384 26.8079 47.376 26.7435C47.6825 26.4395 47.9952 26.143 48.3084 25.8462C48.6913 25.4838 49.0873 25.1084 49.4602 24.7276C49.5781 24.607 49.7437 24.5476 49.9097 24.5647C51.7517 24.7569 53.4151 24.8503 54.9951 24.8503L55.3701 24.8485C55.5892 24.8451 55.7589 24.9562 55.8573 25.1344C55.9562 25.3123 55.9514 25.5308 55.845 25.7043C53.8228 28.997 53.3208 31.3938 52.8779 33.508C52.099 37.2256 51.5362 39.9113 43.7384 44.0749C43.6559 44.1185 43.5677 44.1395 43.4806 44.1395Z" fill="url(#paint0_linear_2682_168887)"/>
<path d="M45.9144 34.6744C45.8435 34.6744 45.7726 34.6708 45.7019 34.6627C44.8082 34.5621 43.8588 33.6848 43.8833 32.443C43.8992 31.612 44.3818 30.878 45.1133 30.5729C45.4849 30.418 45.8924 30.3492 46.2938 30.3788C47.3233 30.4509 48.0598 31.1061 48.1693 32.0469C48.2513 32.7461 48.0128 33.443 47.5163 33.9591C47.0765 34.416 46.4906 34.6744 45.9144 34.6744ZM46.1162 31.4929C45.9149 31.4929 45.7077 31.5342 45.5233 31.611C45.191 31.7495 44.9803 32.0769 44.9728 32.4654C44.9604 33.0761 45.4582 33.5081 45.8208 33.5489C46.1319 33.586 46.4836 33.4391 46.7422 33.1706C46.8959 33.0113 47.1446 32.6701 47.0876 32.1805C47.0218 31.6133 46.4581 31.5131 46.2192 31.4963C46.1849 31.4942 46.1505 31.4929 46.1162 31.4929Z" fill="url(#paint1_linear_2682_168887)"/>
<path d="M6.87162 19.186C6.59618 19.186 6.355 18.9839 6.31393 18.7022C5.78267 15.0956 5.1295 11.8271 4.3173 8.70984C4.27022 8.52976 4.31442 8.33787 4.43527 8.1969C4.55586 8.05593 4.74001 7.98584 4.92233 8.00238C7.99327 8.32579 10.1918 8.50115 13.0135 8.50115C13.7791 8.50115 14.4823 8.48724 15.1637 8.45836C15.4294 8.45101 15.6832 8.63739 15.7399 8.90804C16.2184 11.194 17.1883 15.2558 18.0447 18.2814C18.1297 18.5825 17.9558 18.8962 17.6557 18.9818C17.3534 19.0656 17.0429 18.892 16.9578 18.5915C16.1504 15.7372 15.2427 11.9692 14.7342 9.60841C14.1856 9.626 13.6183 9.63466 13.0138 9.63466C10.3972 9.63466 8.31397 9.48739 5.61238 9.2136C6.34218 12.133 6.93885 15.192 7.4314 18.5361C7.47744 18.8461 7.26425 19.1338 6.95559 19.1795C6.92681 19.1842 6.89935 19.186 6.87162 19.186Z" fill="url(#paint2_linear_2682_168887)"/>
<path d="M5.72191 14.0234C5.44209 14.0234 5.20016 13.7551 5.16615 13.3891C5.12929 12.9944 5.34864 12.6364 5.65624 12.5894C6.42148 12.4717 7.26434 12.4171 8.30889 12.4171C8.84025 12.4171 9.37291 12.4301 9.90557 12.4437C10.4312 12.4567 10.9569 12.4701 11.4807 12.4701C12.4798 12.4701 13.2804 12.4184 14.0004 12.3081C14.3026 12.2587 14.5868 12.5424 14.6232 12.9374C14.66 13.3317 14.4407 13.6897 14.1331 13.7371C13.3679 13.8548 12.525 13.9094 11.4804 13.9094C10.9491 13.9094 10.4164 13.8964 9.88376 13.8828C9.35785 13.8698 8.83246 13.8564 8.30863 13.8564C7.30951 13.8564 6.50896 13.9081 5.78888 14.0184C5.76656 14.0221 5.74398 14.0234 5.72191 14.0234Z" fill="url(#paint3_linear_2682_168887)"/>
<path d="M5.68966 15.7444C5.40827 15.7444 5.17454 15.442 5.16256 15.0553C5.15058 14.6583 5.37673 14.3236 5.66815 14.3066C6.91451 14.236 8.20536 14.1997 9.45368 14.1654C10.6964 14.1307 11.9811 14.0951 13.2167 14.0248C13.5216 13.9998 13.7538 14.3169 13.7663 14.7136C13.7783 15.1106 13.5521 15.4453 13.2607 15.4623C12.0144 15.5329 10.7235 15.5692 9.47519 15.6038C8.2325 15.6385 6.94751 15.6741 5.71216 15.7444C5.70458 15.7444 5.697 15.7444 5.68966 15.7444Z" fill="url(#paint4_linear_2682_168887)"/>
<path d="M9.39491 27.7905C7.64481 27.7905 5.87196 27.7042 4.15699 27.6205C3.23973 27.5758 2.31919 27.5308 1.39207 27.4977C1.09078 27.4871 0.853441 27.1586 0.861529 26.7643C0.869364 26.3769 1.11201 26.0696 1.40648 26.0696C2.35179 26.1027 3.27638 26.1477 4.19769 26.193C5.90229 26.2763 7.66478 26.3624 9.39491 26.3624C10.9446 26.3624 12.7091 26.2462 13.5571 26.19C13.8217 26.1728 13.9941 26.1622 14.0391 26.1622C14.6503 26.1622 15.2619 26.2092 15.8536 26.2542C16.4282 26.2985 17.0222 26.3438 17.5987 26.3438C18.1805 26.3438 18.6919 26.2969 19.161 26.2003C19.4572 26.1384 19.738 26.4047 19.7848 26.7944C19.8318 27.1841 19.6286 27.5497 19.3308 27.6109C18.8051 27.7197 18.2384 27.7723 17.5987 27.7723C16.99 27.7723 16.3796 27.7253 15.7897 27.6803C15.2137 27.636 14.6184 27.5907 14.0391 27.5907C13.9944 27.591 13.8419 27.6019 13.6117 27.6172C12.7551 27.6727 10.9724 27.7905 9.39491 27.7905Z" fill="url(#paint5_linear_2682_168887)"/>
<path d="M5.67446 24.3488C3.65898 24.3488 3.44141 23.2079 3.44141 22.7175C3.44141 21.7604 3.91548 21.4504 4.40117 21.215C4.51064 21.1621 4.60469 21.1165 4.66686 21.0605C4.77632 20.9623 4.92471 20.907 5.07985 20.907C6.55207 20.907 7.51129 21.4749 7.71184 22.4651C7.73319 22.5701 7.74373 22.6719 7.74373 22.7687C7.74346 23.406 7.08587 24.3488 5.67446 24.3488ZM5.28364 21.959C5.16769 22.0337 5.05417 22.0885 4.95579 22.1362C4.68226 22.2689 4.60848 22.3045 4.60848 22.7175C4.60848 22.9503 4.60848 23.3017 5.67446 23.3017C6.4099 23.3017 6.57639 22.8519 6.57639 22.7689C6.57639 22.7294 6.57098 22.6899 6.56342 22.652C6.45909 22.1384 5.8488 21.9859 5.28364 21.959Z" fill="url(#paint6_linear_2682_168887)"/>
<path d="M10.017 24.3488C8.94343 24.3488 7.74219 23.5954 7.74219 22.587C7.74219 21.9199 8.41766 21.03 9.25705 20.924C9.61025 20.8806 9.92527 20.9289 10.1856 20.9719C10.3498 20.9991 10.4917 21.0226 10.6389 21.0226C11.4008 21.0226 12.0445 21.7069 12.0445 22.5171C12.0448 23.561 11.1731 24.3488 10.017 24.3488ZM9.42738 21.9729C9.26151 21.9935 8.94621 22.364 8.94621 22.5867C8.94621 22.915 9.51687 23.2892 10.0173 23.2892C10.5023 23.2892 10.8413 22.9715 10.8413 22.5166C10.8413 22.272 10.6897 22.1 10.625 22.0799C10.3847 22.0801 10.1583 22.045 9.96318 22.0126C9.76079 21.9795 9.60468 21.9498 9.42738 21.9729Z" fill="url(#paint7_linear_2682_168887)"/>
<path d="M14.6005 24.3488C13.6345 24.3488 12.9062 23.6054 12.9062 22.6197C12.9062 21.8294 13.368 21.1621 14.0548 20.959C14.171 20.9243 14.2919 20.907 14.4133 20.907C15.0756 20.907 16.3481 21.6715 16.3481 22.7176C16.3481 23.7389 15.4596 24.3488 14.6005 24.3488ZM14.4065 21.9182C14.3956 21.9184 14.3793 21.9208 14.3626 21.9257C14.0822 22.0086 13.9545 22.3436 13.9545 22.6197C13.9545 22.9769 14.154 23.3374 14.6005 23.3374C14.9396 23.3374 15.3001 23.12 15.3001 22.7174C15.2999 22.3267 14.6192 21.9357 14.4065 21.9182Z" fill="url(#paint8_linear_2682_168887)"/>
<path d="M46.769 28.6512C46.4665 28.6512 46.2179 28.3962 46.212 28.0767C46.1957 27.1596 46.1655 26.2496 46.1359 25.3415C46.101 24.2912 46.0654 23.2108 46.052 22.1305C44.6415 22.2463 42.2637 22.3597 37.2436 22.3597C34.6598 22.3597 32.0358 22.3193 29.4982 22.2799C27.537 22.2496 25.5151 22.2181 23.5113 22.2056C23.5872 24.2481 23.6024 26.248 23.6063 27.9617C23.607 28.285 23.358 28.5481 23.0506 28.5489C22.7419 28.5489 22.4926 28.2877 22.4918 27.9649C22.4874 26.0914 22.4696 23.8754 22.3736 21.6439C22.3667 21.4833 22.4227 21.3273 22.5282 21.2115C22.633 21.0968 22.7786 21.0317 22.9303 21.0317C25.1324 21.0412 27.3602 21.0759 29.5148 21.109C32.0484 21.1483 34.6683 21.1887 37.2438 21.1887C43.0785 21.1887 45.3505 21.0298 46.5516 20.9102C46.707 20.8925 46.8626 20.949 46.9785 21.0593C47.0941 21.17 47.1607 21.3265 47.1613 21.4909C47.1656 22.7644 47.208 24.0541 47.2495 25.3013C47.2797 26.216 47.3097 27.1322 47.3264 28.0552C47.3324 28.378 47.0877 28.6452 46.769 28.6512Z" fill="url(#paint9_linear_2682_168887)"/>
<path d="M42.46 21.7673C42.1689 21.7673 41.923 21.549 41.9028 21.2643C41.7808 19.5413 41.6715 17.9702 41.5858 16.4039C38.8507 16.4344 36.074 16.3059 33.3903 16.1844C31.2752 16.0889 29.0938 15.9904 26.9416 15.9672C26.9543 16.4606 26.9701 16.9538 26.9857 17.4473C27.0201 18.5319 27.0559 19.6535 27.0559 20.7606L27.0541 21.1833C27.0517 21.4798 26.8018 21.7188 26.4948 21.7188C26.1816 21.7168 25.9332 21.473 25.9355 21.1748L25.9373 20.7606C25.9373 19.67 25.9021 18.5569 25.8674 17.4805C25.8459 16.7981 25.8241 16.1159 25.8106 15.4335C25.8078 15.2885 25.8661 15.1478 25.9715 15.0445C26.0767 14.9415 26.2202 14.8835 26.3699 14.8835C28.7332 14.8933 31.1273 15.0015 33.4426 15.1063C36.2854 15.2348 39.2256 15.3667 42.1067 15.3175C42.3922 15.3195 42.6603 15.5392 42.675 15.8304C42.7641 17.562 42.8833 19.2823 43.0185 21.1906C43.0395 21.4883 42.8069 21.7458 42.4989 21.7658C42.4859 21.767 42.4732 21.7673 42.46 21.7673Z" fill="url(#paint10_linear_2682_168887)"/>
<path d="M34.5629 21.7676C34.1917 21.7676 33.8788 21.5452 33.8534 21.2545L33.824 20.9182C33.6918 19.3929 33.5547 17.8152 33.5547 16.294C33.5547 15.9905 33.8735 15.7444 34.2665 15.7444C34.6595 15.7444 34.9783 15.9905 34.9783 16.294C34.9783 17.7785 35.1135 19.3374 35.2447 20.8449L35.274 21.1817C35.3001 21.4843 35.0033 21.7463 34.6107 21.7666C34.5949 21.7674 34.579 21.7676 34.5629 21.7676Z" fill="url(#paint11_linear_2682_168887)"/>
<path d="M30.5859 26.9302C30.3696 26.9302 30.1941 26.6808 30.1941 26.3733C30.1941 24.7733 30.1941 23.1189 30.1181 21.5008C30.1037 21.1941 30.267 20.9287 30.4832 20.9081C30.6938 20.8892 30.8855 21.1193 30.9002 21.4268C30.9777 23.082 30.9777 24.7553 30.9777 26.3733C30.9777 26.6805 30.8022 26.9302 30.5859 26.9302Z" fill="url(#paint12_linear_2682_168887)"/>
<path d="M39.1106 26.9302C38.8942 26.9302 38.7188 26.6937 38.7188 26.4021C38.7188 24.7659 38.7188 23.0736 38.7962 21.4019C38.8099 21.1111 38.9924 20.8919 39.2118 20.9078C39.428 20.9259 39.5919 21.1766 39.5784 21.468C39.5024 23.1066 39.5024 24.782 39.5024 26.4021C39.5024 26.6937 39.3269 26.9302 39.1106 26.9302Z" fill="url(#paint13_linear_2682_168887)"/>
<path d="M34.9831 44.9998C33.5723 44.9998 32.1965 44.3967 31.1996 43.362C30.0986 44.247 28.8222 44.6785 27.3155 44.6785C25.0186 44.6785 23.6763 43.5246 22.9962 42.6668C21.7233 43.789 20.3996 44.336 18.9667 44.336C17.25 44.336 15.6074 43.4922 14.5256 42.0927C13.0133 43.7012 10.9241 44.6428 8.80285 44.6428C7.00514 44.6428 5.44609 43.9533 4.41316 42.7013C4.22813 42.4768 4.27235 42.1538 4.51203 41.9803C4.75222 41.8078 5.0961 41.8482 5.2819 42.0729C6.10209 43.0674 7.35258 43.615 8.80285 43.615C10.8179 43.615 12.8113 42.603 14.1355 40.9081C14.2463 40.7662 14.426 40.6872 14.6138 40.6986C14.8011 40.71 14.9689 40.81 15.0594 40.964C15.9207 42.4321 17.3817 43.3082 18.9667 43.3082C20.2809 43.3082 21.462 42.7348 22.6836 41.5033C22.803 41.3829 22.9759 41.3244 23.1515 41.3427C23.3258 41.3624 23.4794 41.4595 23.5648 41.6031C24.0192 42.3678 25.1103 43.651 27.3152 43.651C28.7388 43.651 29.866 43.2061 30.8618 42.2505C30.9749 42.1422 31.1356 42.087 31.2952 42.097C31.4566 42.1084 31.605 42.186 31.6996 42.309C32.5017 43.3506 33.7288 43.9721 34.9829 43.9721C36.0679 43.9721 38.0936 43.0245 39.3794 41.614C39.4885 41.4943 39.6496 41.4262 39.8186 41.4341C39.9866 41.4405 40.1422 41.5183 40.2413 41.6459C40.575 42.0772 41.839 43.4844 44.0866 43.4844C45.3955 43.4844 46.5586 42.9724 47.79 42.4304C47.9483 42.3604 48.1062 42.2909 48.264 42.2226C48.5403 42.1036 48.8649 42.2167 48.9925 42.474C49.1193 42.732 48.9993 43.0371 48.7241 43.1561C48.5682 43.2235 48.4124 43.292 48.2566 43.3606C46.9701 43.9266 45.6403 44.5121 44.0863 44.5121C41.9109 44.5121 40.484 43.4415 39.7739 42.7258C38.3747 44.0318 36.3732 44.9998 34.9831 44.9998Z" fill="url(#paint14_linear_2682_168887)"/>
</g>
</g>
<defs>
<linearGradient id="paint0_linear_2682_168887" x1="4.6589" y1="17.4651" x2="52.1996" y2="17.4651" gradientUnits="userSpaceOnUse">
<stop stop-color="#DC2430"/>
<stop offset="1" stop-color="#7B4397"/>
</linearGradient>
<linearGradient id="paint1_linear_2682_168887" x1="44.2413" y1="30.3721" x2="47.8983" y2="30.3721" gradientUnits="userSpaceOnUse">
<stop stop-color="#DC2430"/>
<stop offset="1" stop-color="#7B4397"/>
</linearGradient>
<linearGradient id="paint2_linear_2682_168887" x1="5.44611" y1="8" x2="17.1484" y2="8" gradientUnits="userSpaceOnUse">
<stop stop-color="#DC2430"/>
<stop offset="1" stop-color="#7B4397"/>
</linearGradient>
<linearGradient id="paint3_linear_2682_168887" x1="5.95087" y1="12.3025" x2="13.9962" y2="12.3025" gradientUnits="userSpaceOnUse">
<stop stop-color="#DC2430"/>
<stop offset="1" stop-color="#7B4397"/>
</linearGradient>
<linearGradient id="paint4_linear_2682_168887" x1="5.87916" y1="14.0234" x2="13.1931" y2="14.0234" gradientUnits="userSpaceOnUse">
<stop stop-color="#DC2430"/>
<stop offset="1" stop-color="#7B4397"/>
</linearGradient>
<linearGradient id="paint5_linear_2682_168887" x1="2.43885" y1="26.0696" x2="18.5295" y2="26.0696" gradientUnits="userSpaceOnUse">
<stop stop-color="#DC2430"/>
<stop offset="1" stop-color="#7B4397"/>
</linearGradient>
<linearGradient id="paint6_linear_2682_168887" x1="3.79993" y1="20.907" x2="7.45691" y2="20.907" gradientUnits="userSpaceOnUse">
<stop stop-color="#DC2430"/>
<stop offset="1" stop-color="#7B4397"/>
</linearGradient>
<linearGradient id="paint7_linear_2682_168887" x1="8.10071" y1="20.907" x2="11.7577" y2="20.907" gradientUnits="userSpaceOnUse">
<stop stop-color="#DC2430"/>
<stop offset="1" stop-color="#7B4397"/>
</linearGradient>
<linearGradient id="paint8_linear_2682_168887" x1="13.1931" y1="20.907" x2="16.1187" y2="20.907" gradientUnits="userSpaceOnUse">
<stop stop-color="#DC2430"/>
<stop offset="1" stop-color="#7B4397"/>
</linearGradient>
<linearGradient id="paint9_linear_2682_168887" x1="24.4525" y1="20.907" x2="45.663" y2="20.907" gradientUnits="userSpaceOnUse">
<stop stop-color="#DC2430"/>
<stop offset="1" stop-color="#7B4397"/>
</linearGradient>
<linearGradient id="paint10_linear_2682_168887" x1="27.2447" y1="14.8835" x2="41.8726" y2="14.8835" gradientUnits="userSpaceOnUse">
<stop stop-color="#DC2430"/>
<stop offset="1" stop-color="#7B4397"/>
</linearGradient>
<linearGradient id="paint11_linear_2682_168887" x1="33.6981" y1="15.7444" x2="35.1609" y2="15.7444" gradientUnits="userSpaceOnUse">
<stop stop-color="#DC2430"/>
<stop offset="1" stop-color="#7B4397"/>
</linearGradient>
<linearGradient id="paint12_linear_2682_168887" x1="30.1889" y1="20.907" x2="30.9203" y2="20.907" gradientUnits="userSpaceOnUse">
<stop stop-color="#DC2430"/>
<stop offset="1" stop-color="#7B4397"/>
</linearGradient>
<linearGradient id="paint13_linear_2682_168887" x1="38.7905" y1="20.907" x2="39.5219" y2="20.907" gradientUnits="userSpaceOnUse">
<stop stop-color="#DC2430"/>
<stop offset="1" stop-color="#7B4397"/>
</linearGradient>
<linearGradient id="paint14_linear_2682_168887" x1="8.02751" y1="40.6975" x2="46.0601" y2="40.6975" gradientUnits="userSpaceOnUse">
<stop stop-color="#DC2430"/>
<stop offset="1" stop-color="#7B4397"/>
</linearGradient>
<clipPath id="clip0_2682_168887">
<rect width="55" height="55" fill="white"/>
</clipPath>
<clipPath id="clip1_2682_168887">
<rect width="55.9302" height="37" fill="white" transform="translate(0 8)"/>
</clipPath>
</defs>
</svg>
