<svg width="55" height="56" viewBox="0 0 55 56" fill="none" xmlns="http://www.w3.org/2000/svg">
<path d="M13.5852 11.4542C13.5786 11.343 13.5718 11.2314 13.5652 11.1201C13.7201 10.8621 13.8015 10.5322 13.7162 10.2022C13.7071 10.1674 13.6946 10.1411 13.6848 10.1086C13.6227 9.37634 13.2934 8.76065 12.7841 8.37607C12.3257 8.02985 11.7086 8.34655 11.5703 9.01685C11.5387 9.16944 11.5121 9.32233 11.4889 9.47522C11.3881 9.56229 11.3165 9.69924 11.3249 9.86984C11.3447 10.2704 11.3795 10.6685 11.4168 11.0667C11.4229 11.1576 11.432 11.2485 11.442 11.3391C11.4884 11.8255 11.5312 12.3128 11.5596 12.8019C11.5601 12.8403 11.5651 12.8816 11.5667 12.9206C11.571 13.0026 11.5783 13.0841 11.5812 13.1661C11.5837 13.2355 11.591 13.3001 11.6019 13.3603C11.6033 13.3701 11.6028 13.3786 11.6042 13.3887C11.6806 13.7305 11.8831 13.9214 12.1071 13.963C12.1306 14.1009 12.1554 14.2384 12.1779 14.3762C12.3621 15.5031 13.7983 15.2676 13.7396 14.1021C13.708 13.4713 13.668 12.8414 13.6302 12.2113C13.6154 11.9583 13.6004 11.7063 13.5852 11.4542Z" fill="#E0DFE6"/>
<path d="M29.8777 29.8245C27.7023 30.7863 25.2065 30.7437 22.8618 30.8718C20.3064 31.0115 17.7423 31.1192 15.1826 31.0466C11.4034 30.9392 6.11672 29.2054 2.65391 31.1954C2.24331 31.4312 2.42559 32.0438 2.89367 32.0544C5.43762 32.1114 7.78945 32.2104 10.3252 32.6055C12.7842 32.989 15.2497 33.1494 17.7404 33.1468C21.9794 33.1424 27.0394 33.386 30.9783 31.6512C32.2529 31.09 31.1467 29.2636 29.8777 29.8245Z" fill="#E0DFE6"/>
<path d="M32.3473 17.6714C32.2513 16.0062 31.6014 14.2462 31.2131 12.6411C30.7941 10.9098 30.4291 9.11512 29.7023 7.50432C29.5913 7.25833 29.2733 7.39779 29.2604 7.6349C29.1791 9.16237 29.4142 10.691 29.606 12.2044C29.7144 13.0583 29.8749 17.5176 30.6563 17.9082C29.4396 17.3 28.5056 19.0179 29.6068 19.8681C31.1459 21.0556 32.4447 19.3638 32.3473 17.6714Z" fill="#E0DFE6"/>
<path d="M38.5971 22.4499C37.9744 21.8825 37.5659 21.183 37.1182 20.4621C36.8729 20.0671 36.314 20.3158 36.4068 20.782C36.5904 21.7044 37.0549 22.5459 37.5098 23.3446C38.0513 24.2958 39.342 23.1288 38.5971 22.4499Z" fill="#E0DFE6"/>
<path d="M44.4669 5.76477C44.1292 5.46634 43.6756 5.83836 43.8562 6.21692C44.9592 8.52807 44.4345 10.6989 43.2745 12.6876C42.6962 12.3393 41.7512 12.4636 41.6143 13.2373C41.4629 14.092 41.3607 14.9453 41.2573 15.8068C41.1264 16.8981 42.7934 17.1764 43.3112 16.3408C45.1799 13.3251 47.8825 8.78372 44.4669 5.76477Z" fill="#E0DFE6"/>
<path d="M51.337 38.1882C51.3176 37.9904 51.2956 37.7926 51.2694 37.5945C51.4536 36.5687 51.3433 35.5179 50.7585 34.4896C51.1912 34.3356 51.5816 33.9112 51.6274 33.428C51.9483 30.0466 51.899 24.5731 49.3124 22.0608C49.142 21.8954 48.8781 22.0162 48.8662 22.2541C48.7745 24.0703 49.4807 25.9242 49.6487 27.7404C49.7841 29.2031 49.773 30.6547 49.6516 32.1072C49.3543 32.4028 49.2022 32.8798 49.4134 33.3929C49.4825 33.561 49.552 33.7289 49.6211 33.897C49.185 34.0414 48.8338 34.5201 48.917 35.121C49.048 36.0662 49.1179 37.0516 49.2459 38.0189C48.9579 38.8747 48.4204 39.6988 47.9506 40.4385C47.6165 40.9646 47.8862 41.4701 48.3076 41.6893C48.1332 41.9818 47.9596 42.2746 47.7919 42.5713C47.4805 43.1218 48.2678 43.8096 48.6661 43.2766C49.3137 42.4101 49.9219 41.5125 50.5478 40.6291C50.9668 40.5956 51.368 40.2762 51.3918 39.721C51.3953 39.6382 51.3924 39.5545 51.3937 39.4714C51.4106 39.4492 51.4265 39.426 51.4435 39.4038C51.7557 38.996 51.6476 38.4541 51.337 38.1882Z" fill="#E0DFE6"/>
<path d="M53.2278 38.3986C53.0377 38.182 52.7422 38.4115 52.7912 38.6727C53.0221 39.905 52.8807 41.226 52.2009 42.274C52.0161 42.5588 51.8 42.7793 51.5683 42.9701C51.2442 42.4072 50.2798 42.2987 49.9757 42.9776C49.719 43.5507 49.5459 44.1248 49.3837 44.7357C49.084 45.8632 50.3249 46.4081 51.0549 45.7854C51.7089 45.2276 52.472 45.0854 53.0604 44.3661C53.5222 43.8015 53.8404 43.1052 54.0244 42.3816C54.3848 40.9651 54.1778 39.4806 53.2278 38.3986Z" fill="#E0DFE6"/>
<path d="M40.421 47.2808C40.2757 46.4783 39.9554 45.7535 39.3376 45.1633C39.1318 44.9668 38.8545 44.7548 38.6022 44.6067C39.1685 43.2883 40.0274 42.2588 39.9172 40.5741C39.8153 39.0194 39.1875 37.8128 38.0582 36.7143C37.7146 36.3803 37.1605 36.805 37.3885 37.2028C38.1977 38.6147 38.45 40.2587 37.8742 41.7893C37.6985 42.2566 37.4321 42.6585 37.1528 43.049C36.6613 42.8927 36.1016 42.9754 35.8593 43.5114C35.3862 44.5576 35.5883 45.1272 36.0315 45.5728C36.1573 46.0365 36.6151 46.3369 37.0899 46.3847C37.5713 46.7397 38.0309 47.1622 38.2273 47.8526C38.6137 49.2127 40.6633 48.6214 40.421 47.2808Z" fill="#E0DFE6"/>
<path d="M25.7115 52.1431C25.2115 51.3768 24.6744 50.6368 24.127 49.9061C23.556 48.4449 22.7834 47.0937 21.7629 45.938C21.9534 45.866 22.1337 45.7285 22.2787 45.5062C22.2085 45.6325 22.4695 45.8971 22.8261 46.1782C22.6292 47.1416 23.1237 48.2755 24.447 48.2545C25.2772 48.2413 25.5668 47.4224 25.3595 46.7712C25.7303 46.2168 25.6328 45.2741 24.8564 44.9351C24.1573 44.6299 23.7591 43.9879 23.1836 43.6069C23.9236 41.371 23.7576 38.7919 22.4745 36.8074C22.2052 36.3908 21.4971 36.619 21.6718 37.1853C22.3925 39.5223 22.2862 41.8825 20.9399 43.853C20.8002 44.0028 20.6738 44.1789 20.5635 44.3869C20.2465 44.9841 20.4554 45.5194 20.8386 45.7977C20.5873 46.0368 20.4692 46.4635 20.6906 46.7765C20.234 47.1553 20.0254 48.0411 20.4567 48.6162C20.798 49.0712 21.1365 49.5323 21.4757 49.994C21.7142 50.5506 21.8802 51.1623 22.07 51.7021C22.405 52.6546 22.7837 53.5163 23.394 54.2885C23.9723 55.0201 24.8557 54.5021 25.0488 53.7328C25.6551 53.5726 26.1586 52.8282 25.7115 52.1431Z" fill="#E0DFE6"/>
<path d="M39.6266 53.8885C39.3716 51.1286 37.5629 48.7025 35.5197 47.0933C35.2607 46.8893 34.9832 46.8666 34.7352 46.9559C34.5924 46.9599 34.4675 47.0438 34.3906 47.1686C34.0189 47.5071 33.8247 48.1084 34.1012 48.5886C35.2835 50.6441 36.2684 52.777 37.1976 54.97C37.5563 55.8162 38.5912 55.5475 38.9339 54.875C39.3464 54.798 39.6812 54.4786 39.6266 53.8885Z" fill="#E0DFE6"/>
<path d="M53.0786 48.2687C52.731 47.771 52.2047 47.3527 51.6711 47.031C51.659 47.0117 51.6474 46.9924 51.6353 46.9731C51.6603 46.9028 51.6845 46.832 51.6995 46.7574C51.8444 46.0453 51.462 45.3751 50.775 45.216C50.1506 45.0714 49.7011 45.4983 49.6116 46.004C49.5675 46.011 49.5167 46.0196 49.452 46.0314C49.3561 46.0488 49.2462 46.1038 49.1433 46.1698C48.3689 46.0885 47.5808 46.1572 46.8077 46.3823C45.7524 46.6892 45.9174 48.5091 47.0738 48.4275C47.7887 48.3771 48.4576 48.4101 49.1588 48.567C49.4015 48.6212 49.6428 48.5893 49.8497 48.4908C50.0923 49.773 50.3997 51.035 50.7817 52.2861C51.1192 53.3923 52.707 52.941 52.454 51.8064C52.4525 51.7991 52.4507 51.7916 52.4491 51.7847C52.8734 51.7098 53.2574 51.3667 53.2842 50.8008C53.3236 49.968 53.5756 48.9802 53.0786 48.2687Z" fill="#E0DFE6"/>
<path d="M36.8024 37.1085C36.3448 36.1647 34.8456 36.6229 34.8792 37.6416C34.9082 38.5255 34.767 39.3761 34.4739 40.1571C34.2357 40.5964 33.9939 41.0341 33.7361 41.4612C33.6935 41.5317 33.6643 41.6027 33.6418 41.6734C33.2111 42.2447 32.6762 42.7462 32.0411 43.1497C30.888 43.8824 31.9544 45.7609 33.1072 45.016C34.3945 44.1842 35.4072 43.0374 36.0702 41.7072C37.0737 40.356 37.6373 38.8306 36.8024 37.1085Z" fill="#E0DFE6"/>
<path d="M20.6181 36.1258C20.5337 35.5138 19.613 35.6632 19.6315 36.271C19.6621 37.2902 19.8169 39.0466 19.6034 40.4444C19.3899 39.5823 18.215 39.558 17.8215 40.272C17.1938 41.4107 15.9205 43.2962 16.221 44.7316C16.4295 45.7282 17.3167 46.2933 18.2023 45.9423C18.6443 45.7672 18.8529 45.3976 18.8757 45.0201C19.0578 44.8989 19.2115 44.7242 19.2972 44.4942C19.3481 44.3578 19.3915 44.2224 19.4333 44.0874C19.6639 43.8916 20.2361 43.5918 20.3737 43.4352C20.7609 42.9944 20.8812 42.5019 20.9516 41.9038C21.1723 40.0265 20.8749 37.9842 20.6181 36.1258Z" fill="#E0DFE6"/>
<path d="M43.9912 27.2287C43.9163 27.3034 43.8414 27.3781 43.7665 27.4531C43.4847 27.7343 43.9256 28.2031 44.1905 27.9037C44.2608 27.8241 44.3311 27.7445 44.4017 27.6649C44.6577 27.3753 44.264 26.9567 43.9912 27.2287Z" fill="#E0DFE6"/>
<path d="M33.6575 26.047C32.7171 25.06 31.8101 24.2004 30.5797 25.2301C29.7979 25.8842 29.3186 26.3715 28.2294 26.0403C27.3094 25.7604 26.5869 25.0168 25.7869 24.5055C25.7713 24.4954 25.7554 24.4929 25.7395 24.4862C25.6737 24.378 25.5772 24.281 25.4358 24.2082C24.06 23.5009 22.8883 22.6971 21.6915 21.6948C21.6391 21.651 21.586 21.6204 21.5329 21.5955C21.3356 21.1584 20.7794 20.9197 20.3646 21.3569C19.1942 22.5898 18.2742 23.7898 16.6266 24.3251C14.6782 24.9582 12.7602 24.5579 10.9619 23.6258C10.6899 23.4847 10.343 23.8728 10.6137 24.1015C13.6122 26.6314 18.9248 26.4423 21.1818 22.8834C22.1142 24.0156 23.3813 25.0173 24.6313 25.66C25.0109 25.8552 25.37 25.7199 25.5976 25.4632C26.2654 26.5132 27.2195 27.4647 28.3685 27.8266C28.9456 28.0084 29.5851 28.0605 30.1776 27.9189C30.6923 27.7959 31.1486 27.2882 31.6031 27.0111C31.8077 27.2054 31.9986 27.4349 32.1762 27.6097C33.16 28.5777 34.6177 27.0546 33.6575 26.047Z" fill="#E0DFE6"/>
<path d="M22.4532 17.9973C22.2224 17.5328 21.5546 17.6391 21.2963 17.9973C20.8929 18.5571 20.3234 18.9673 19.6975 19.2805C19.0498 19.6047 19.6193 20.5042 20.2675 20.2059C20.6098 20.0483 20.9306 19.8584 21.2382 19.6512C21.5018 20.006 22.1115 20.1283 22.4031 19.6361C22.7162 19.1084 22.7234 18.5409 22.4532 17.9973Z" fill="#E0DFE6"/>
<path d="M42.8813 4.57624C42.5942 4.15432 42.1484 4.07648 41.7803 4.2063C41.7428 4.18513 41.7072 4.16202 41.6652 4.1447C40.775 3.77476 40.6461 2.87482 39.8919 2.41825C39.3241 2.07445 38.6903 2.24883 38.0785 2.39515C36.162 2.8531 34.1859 3.64164 32.5811 4.83588C32.1341 5.16868 32.3855 6.08182 32.9883 5.84171C34.6233 5.19068 36.4533 4.2041 38.2361 4.13012C39.0833 4.09491 39.0661 4.56303 39.607 5.13787C40.0445 5.60297 40.5695 5.87334 41.1558 6.07054C41.3095 6.12225 41.4497 6.13573 41.5765 6.12033C42.3491 8.03957 40.9057 9.20768 40.1436 11.0018C39.6328 12.2043 39.4387 13.4788 39.6466 14.7743C39.7189 15.2245 40.4351 15.2176 40.5133 14.7743C40.7187 13.6095 40.9358 12.5236 41.5466 11.5004C42.0616 10.6382 42.8218 9.96075 43.2549 9.04403C43.9421 7.58795 43.7712 5.88406 42.8813 4.57624Z" fill="#E0DFE6"/>
<path d="M9.75052 55.5C9.42806 55.5 9.15977 55.2335 9.14346 54.8905C9.12453 54.4871 9.0806 54.055 9.03457 53.5978C8.96645 52.9268 8.89648 52.233 8.89648 51.5464C8.89648 47.6785 11.548 47.1028 13.3024 46.7216C14.8085 46.3946 15.2467 46.1989 15.2467 45.5345C15.2467 45.0126 15.0426 44.8767 14.1693 44.5232C12.9907 44.0454 11.2093 43.3242 11.2093 39.7785C11.2093 35.2038 13.8087 33.1562 16.385 33.1562C20.1276 33.1562 22.1887 35.978 22.1887 41.1009C22.1887 42.9496 21.473 43.7981 20.9506 44.4173C20.6032 44.8293 20.4361 45.0431 20.4361 45.3947C20.4361 45.5542 20.479 45.652 20.4985 45.672C24.2126 45.8578 25.8818 49.2682 25.8818 52.5607C25.8818 52.9861 25.8542 53.4153 25.7989 53.8371C25.7529 54.1881 25.4436 54.428 25.1132 54.3853C24.7802 54.3368 24.5477 54.0132 24.5932 53.6627C24.6408 53.2986 24.665 52.9279 24.665 52.5607C24.665 50.0718 23.5538 47.1075 20.4219 46.9426C19.7139 46.9048 19.2196 46.2687 19.2196 45.3947C19.2196 44.5401 19.6565 44.0224 20.0413 43.5652C20.4993 43.0228 20.9719 42.4615 20.9719 41.1009C20.9719 36.6801 19.4285 34.439 16.385 34.439C14.5586 34.439 12.4257 35.8374 12.4257 39.7788C12.4257 42.4432 13.4844 42.8722 14.6057 43.3261C15.4329 43.6614 16.4632 44.0784 16.4632 45.5348C16.4632 47.3452 14.8466 47.6957 13.5478 47.978C11.7813 48.3617 10.113 48.7241 10.113 51.5464C10.113 52.1642 10.1795 52.8242 10.244 53.4616C10.2924 53.9377 10.3379 54.3872 10.3584 54.827C10.3749 55.1806 10.1169 55.4817 9.78103 55.4992C9.77078 55.4994 9.76052 55.5 9.75052 55.5Z" fill="url(#paint0_linear_2682_169021)"/>
<path d="M39.0361 52.9219C38.7397 52.9219 38.4825 52.6809 38.4448 52.3513C38.0525 48.9255 35.1122 47.101 34.0053 46.4145C33.5376 46.1243 33.2802 45.9642 33.2802 45.5438C33.2802 44.5967 33.9161 43.9184 34.5891 43.1999C35.4847 42.2443 36.5001 41.1611 36.5001 39.1401C36.5001 35.7034 33.9277 33.6002 32.5264 33.6002C29.6656 33.6002 28.3957 38.4568 28.3957 40.3022C28.3957 42.2119 28.8451 42.2443 29.5248 42.2939C30.114 42.3362 31.2101 42.4162 31.2101 44.1548C31.2101 46.2009 29.8124 46.6667 28.5794 47.0778C27.2145 47.5332 25.9252 47.9629 25.4428 50.1753C25.3662 50.5253 25.0448 50.7422 24.7241 50.6583C24.4037 50.5751 24.2056 50.2237 24.282 49.8732C24.9225 46.9344 26.8348 46.2967 28.2311 45.8315C29.5537 45.3905 30.0167 45.1476 30.0167 44.1551C30.0167 43.6364 30.0167 43.6364 29.4459 43.5946C28.3601 43.5157 27.2024 43.1903 27.2024 40.3025C27.2024 39.1072 27.5816 37.1453 28.4282 35.4555C29.4642 33.3891 30.8812 32.2969 32.5264 32.2969C34.5834 32.2969 37.6931 35.0263 37.6931 39.1404C37.6931 41.7103 36.3811 43.1103 35.4228 44.1326C35.0341 44.5471 34.6856 44.9188 34.5421 45.249C34.5589 45.2592 34.5765 45.2699 34.5943 45.2809C35.8433 46.0561 39.162 48.1151 39.6286 52.1892C39.6694 52.5465 39.4375 52.8723 39.1109 52.9168C39.0859 52.9202 39.0609 52.9219 39.0361 52.9219Z" fill="url(#paint1_linear_2682_169021)"/>
<path d="M39.5044 54.6406C39.2045 54.6406 38.9417 54.4092 38.8956 54.0866C38.8482 53.7546 38.8242 53.4254 38.8242 53.1075C38.8242 50.1311 40.8625 48.2795 42.5005 46.7918C43.4163 45.9601 44.2811 45.1746 44.2811 44.5814C44.2811 44.2677 44.2811 44.1378 43.7172 44.1378C43.6418 44.1378 43.5658 44.1395 43.4896 44.1417C43.4048 44.1434 43.3203 44.1457 43.2372 44.1457C41.4414 44.1457 40.7895 41.5521 40.7895 39.8084C40.7895 35.8335 43.8518 32.2969 46.2656 32.2969C50.088 32.2969 52.9706 34.7755 52.9706 38.0622C52.9706 40.3954 51.6314 41.7406 50.6538 42.7228C50.0808 43.2982 49.5859 43.7951 49.5859 44.2384C49.5859 44.99 49.8183 45.0876 51.0037 45.251C52.5954 45.47 55.0007 45.8009 55.0007 50.7128C55.0007 51.0533 54.9938 51.3931 54.9874 51.7333C54.9804 52.0636 54.974 52.3939 54.974 52.7236C54.974 53.0835 54.6979 53.3755 54.3576 53.3755C54.0172 53.3755 53.7411 53.0835 53.7411 52.7236C53.7411 52.3846 53.7481 52.0456 53.7545 51.7057C53.7614 51.3751 53.7678 51.0437 53.7678 50.7128C53.7678 46.9459 52.348 46.7503 50.8446 46.5435C49.793 46.3989 48.353 46.2005 48.353 44.2384C48.353 43.2357 49.0582 42.5275 49.8044 41.7775C50.7548 40.8227 51.7375 39.8352 51.7375 38.0619C51.7375 35.1639 48.918 33.6003 46.2654 33.6003C44.6284 33.6003 42.0219 36.4414 42.0219 39.8081C42.0219 41.0749 42.4843 42.8417 43.2367 42.8417C43.3108 42.8417 43.3859 42.84 43.4613 42.8377C43.5469 42.836 43.6324 42.8338 43.7167 42.8338C45.2798 42.8338 45.5132 43.9281 45.5132 44.5808C45.5132 45.7724 44.489 46.703 43.3028 47.7801C41.781 49.1628 40.0563 50.7294 40.0563 53.1069C40.0563 53.36 40.0755 53.6235 40.1142 53.8907C40.1651 54.2466 39.9337 54.5789 39.5968 54.6327C39.5662 54.6381 39.5353 54.6406 39.5044 54.6406Z" fill="url(#paint2_linear_2682_169021)"/>
<path d="M15.1263 45.1875C14.8129 45.1875 14.5586 44.897 14.5586 44.5389C14.5586 44.1808 14.8129 43.8902 15.1263 43.8902C15.5354 43.8902 15.96 43.794 16.4101 43.6917C16.8938 43.5823 17.3942 43.4688 17.9145 43.4688C18.3185 43.4688 18.6841 43.5372 19.0326 43.6777C19.3284 43.7969 19.4835 44.167 19.3789 44.5049C19.2749 44.8431 18.9502 45.0201 18.6549 44.9006C18.0924 44.6746 17.3807 44.7938 16.6307 44.9643C16.147 45.0739 15.6465 45.1875 15.1263 45.1875Z" fill="url(#paint3_linear_2682_169021)"/>
<path d="M15.1523 47.7656C14.857 47.7656 14.6007 47.5245 14.5632 47.1954C14.5226 46.8392 14.7537 46.5137 15.0796 46.4692C15.6992 46.3846 16.3245 46.3201 16.9298 46.2582C17.5258 46.1969 18.1419 46.1336 18.7436 46.0515C19.064 46.0095 19.3663 46.2599 19.4069 46.6167C19.4475 46.9728 19.2165 47.2983 18.8906 47.3428C18.2709 47.4275 17.6456 47.4919 17.0403 47.5538C16.4443 47.6151 15.8282 47.6784 15.2266 47.7606C15.2019 47.7639 15.1772 47.7656 15.1523 47.7656Z" fill="url(#paint4_linear_2682_169021)"/>
<path d="M34.562 44.3281C33.8696 44.3281 33.2107 44.2261 32.5732 44.1272C32.1348 44.0592 31.7205 43.9952 31.3076 43.9647C30.9693 43.9395 30.7134 43.6163 30.7357 43.2426C30.7586 42.8681 31.0637 42.5886 31.3891 42.6106C31.8466 42.6446 32.3025 42.7153 32.7436 42.7836C33.4604 42.8948 34.1949 43.0112 34.9348 42.959C35.2761 42.9356 35.5646 43.2195 35.5861 43.5931C35.6076 43.9668 35.3507 44.2891 35.0123 44.3129C34.8616 44.3237 34.7114 44.3281 34.562 44.3281Z" fill="url(#paint5_linear_2682_169021)"/>
<path d="M30.4934 46.9062C30.18 46.9062 29.9258 46.5651 29.9258 46.1446C29.9258 45.7242 30.18 45.383 30.4934 45.383C31.6955 45.383 32.9386 45.383 34.1448 45.1927C34.4562 45.144 34.7382 45.442 34.7748 45.8605C34.8114 46.278 34.5885 46.6567 34.2771 46.7057C33.0051 46.9062 31.7284 46.9062 30.4934 46.9062Z" fill="url(#paint6_linear_2682_169021)"/>
<path d="M45.8985 45.1875C45.582 45.1875 45.3162 44.8771 45.2961 44.4738C45.2752 44.0544 45.528 43.6926 45.8612 43.6663C46.4922 43.6162 47.1095 43.5915 47.7066 43.5672C48.2915 43.5428 48.8962 43.5184 49.5062 43.4704C49.8482 43.4431 50.1258 43.7634 50.1467 44.1828C50.1675 44.6025 49.9143 44.964 49.5816 44.9903C48.9537 45.0397 48.3396 45.0647 47.7455 45.0891C47.1578 45.1128 46.5497 45.1378 45.9366 45.1862C45.9236 45.1872 45.911 45.1875 45.8985 45.1875Z" fill="url(#paint7_linear_2682_169021)"/>
<path d="M46.0952 46.9062C45.7041 46.9062 45.345 46.8763 44.9973 46.8143C44.6658 46.7553 44.4396 46.4046 44.4919 46.0305C44.5442 45.6563 44.8565 45.4014 45.1864 45.4601C45.4708 45.5105 45.7682 45.5351 46.0952 45.5351C46.7117 45.5351 47.3292 45.4494 47.9825 45.3587C48.4784 45.2899 48.9914 45.219 49.5065 45.1882C49.8492 45.1713 50.1274 45.4592 50.1453 45.8369C50.1631 46.2149 49.9057 46.5377 49.5705 46.5579C49.0975 46.5861 48.6281 46.6513 48.1306 46.7201C47.4697 46.8117 46.7863 46.9062 46.0952 46.9062Z" fill="url(#paint8_linear_2682_169021)"/>
<path d="M30.8652 40.8906C30.8057 40.8906 30.7454 40.882 30.6856 40.8641C30.3391 40.7593 30.1389 40.3773 30.2376 40.0107C30.3417 39.6251 30.5776 39.3371 30.7674 39.1055C30.9058 38.9374 31.0485 38.7631 31.0485 38.6568C31.0485 38.2073 30.4728 37.7946 29.965 37.4304C29.7369 37.2669 29.5215 37.1122 29.3396 36.9442C29.0687 36.6929 29.0416 36.2565 29.2785 35.97C29.5158 35.6831 29.9272 35.6542 30.1987 35.9052C30.3194 36.0171 30.5024 36.1488 30.6963 36.2876C31.395 36.7887 32.3525 37.4749 32.3525 38.6568C32.3525 39.2783 32.0057 39.7018 31.7522 40.0104C31.642 40.1456 31.5162 40.2984 31.4917 40.3898C31.4099 40.6933 31.1489 40.8906 30.8652 40.8906Z" fill="url(#paint9_linear_2682_169021)"/>
<path d="M46.2871 44.3281C46.0424 44.3281 45.8131 44.1732 45.7166 43.9139C45.6448 43.7211 44.5724 39.5056 44.5724 38.8523C44.5724 38.3892 43.9072 37.9796 43.264 37.583C42.9389 37.3827 42.6025 37.1757 42.3073 36.9378C42.0328 36.7164 41.9768 36.2972 42.1831 36.0015C42.3898 35.7063 42.7789 35.6468 43.054 35.8679C43.2877 36.0564 43.5762 36.2345 43.8825 36.423C44.744 36.9537 45.8166 37.6139 45.8166 38.852C45.8456 39.3186 46.7494 43.0449 46.8752 43.428C46.9887 43.7711 46.8279 44.1558 46.5109 44.2842C46.4369 44.3137 46.3616 44.3281 46.2871 44.3281Z" fill="url(#paint10_linear_2682_169021)"/>
<path d="M1.39312 28C1.05771 28 0.785598 27.7097 0.785598 27.3519V27.3025C0.785598 27.1565 0.783497 27.0089 0.775618 26.8604C0.412104 19.8827 0 11.9736 0 4.30575L0.000787968 3.72318C0.00157593 3.55057 0.0667142 3.38524 0.182282 3.26419C0.295749 3.14482 0.448876 3.07812 0.608307 3.07812C3.93246 3.12072 7.30467 3.21179 10.5658 3.30006C15.0687 3.42195 19.7248 3.54777 24.2981 3.54777C25.5439 3.54777 26.7542 3.53852 27.8954 3.52003C28.2277 3.52003 28.4946 3.79015 28.5111 4.1351C28.5917 5.82537 28.6629 7.52544 28.7341 9.22579C28.8473 11.9147 28.9639 14.6948 29.1165 17.3862C29.1367 17.7435 28.882 18.0506 28.5471 18.0722C28.2009 18.0916 27.9241 17.8217 27.9041 17.4647C27.7507 14.7631 27.6336 11.9775 27.5209 9.28351C27.4584 7.79501 27.3959 6.3065 27.3271 4.82471C26.355 4.83788 25.3385 4.84405 24.2981 4.84405C19.7093 4.84405 15.0454 4.71795 10.5348 4.59606C7.47881 4.51367 4.32539 4.42849 1.21478 4.38309C1.2174 11.991 1.6274 19.8513 1.98882 26.7892C1.99748 26.9621 2.00037 27.1336 2.00037 27.3031V27.3524C2.00037 27.7097 1.72826 28 1.39312 28Z" fill="url(#paint11_linear_2682_169021)"/>
<path d="M30.1301 30.5781C28.7761 30.5425 27.4389 30.5051 26.103 30.4677C20.1433 30.302 13.9809 30.1299 7.92171 30.1299C5.32917 30.1299 2.94083 30.1599 0.620559 30.2224C0.447514 30.2255 0.295412 30.157 0.178391 30.0298C0.0613693 29.9031 -0.00303174 29.7291 0.000109776 29.5491C0.015032 28.7488 0.0205296 27.942 0.0228858 27.1411C0.0239329 26.7777 0.294889 26.4835 0.628413 26.4835C2.76046 26.4852 4.91842 26.5143 7.00517 26.5423C9.14637 26.5711 11.3601 26.6011 13.5369 26.6011C17.4421 26.6011 19.7739 26.5006 21.8305 26.4119C23.4589 26.342 24.8652 26.2812 26.7276 26.2812C27.9109 26.2812 28.9801 26.3129 29.9958 26.3783C30.3037 26.3979 30.549 26.6664 30.565 27.0019C30.5893 27.5089 30.6218 28.0196 30.654 28.5308C30.6823 28.9819 30.7111 29.4327 30.7344 29.8803C30.7438 30.064 30.6823 30.244 30.5644 30.3764C30.4511 30.5059 30.2938 30.5781 30.1301 30.5781ZM7.92197 28.8104C13.9964 28.8104 20.1666 28.9822 26.1339 29.1485C27.2499 29.1799 28.367 29.2107 29.4848 29.2409C29.4722 29.0352 29.4592 28.829 29.4461 28.6224C29.4259 28.3032 29.4058 27.9836 29.3874 27.6652C28.5552 27.6227 27.6798 27.6016 26.7279 27.6016C24.8893 27.6016 23.4945 27.6618 21.8789 27.7314C19.8108 27.8204 17.4664 27.9211 13.5372 27.9211C11.353 27.9211 9.13538 27.8912 6.99051 27.8624C5.10429 27.837 3.15943 27.8107 1.23132 27.8047C1.22923 28.1651 1.22609 28.5265 1.2219 28.8869C3.35473 28.8352 5.55379 28.8104 7.92197 28.8104Z" fill="url(#paint12_linear_2682_169021)"/>
<path d="M3.01985 47.7656C2.93659 47.7656 2.85178 47.7462 2.77109 47.7052C2.47325 47.5523 2.34322 47.1608 2.48044 46.8297C3.41149 44.5913 4.32686 42.3447 5.2394 40.106C6.58676 36.8005 7.97934 33.3823 9.38246 30.0962C9.52252 29.7674 9.87612 29.6259 10.1742 29.7828C10.4705 29.9388 10.5972 30.332 10.4566 30.6614C9.05815 33.937 7.66762 37.3494 6.32258 40.6493C5.40901 42.8911 4.49236 45.1408 3.56028 47.3826C3.45929 47.6236 3.24471 47.7656 3.01985 47.7656Z" fill="url(#paint13_linear_2682_169021)"/>
<path d="M16.176 34.0156C15.7295 34.0156 15.3672 33.7022 15.3672 33.316V30.4184C15.3672 30.0321 15.7295 29.7188 16.176 29.7188C16.6226 29.7188 16.9848 30.0321 16.9848 30.4184V33.316C16.9848 33.7022 16.6226 34.0156 16.176 34.0156Z" fill="url(#paint14_linear_2682_169021)"/>
<path d="M24.4657 39.1719C24.2605 39.1719 24.0601 39.0589 23.9457 38.8543C22.464 36.2063 21.0663 33.58 20.2459 30.5681C20.1505 30.2179 20.3343 29.8494 20.6565 29.7459C20.9766 29.6429 21.3172 29.842 21.4125 30.1925C22.191 33.0519 23.5466 35.5961 24.9849 38.166C25.1595 38.4784 25.0685 38.8852 24.7818 39.0755C24.6827 39.141 24.5738 39.1719 24.4657 39.1719Z" fill="url(#paint15_linear_2682_169021)"/>
<path d="M13.7178 25.4219C11.4791 25.4219 9.13228 24.361 7.40742 22.5613C5.73531 20.8162 4.82808 18.5581 4.85406 16.2028C4.90867 11.4821 8.70942 7.5242 13.3262 7.3792C13.4248 7.37584 13.5229 7.37528 13.6239 7.375C17.4902 7.38508 20.6241 9.51252 21.8015 12.9268C21.9176 13.2627 21.7535 13.6342 21.4351 13.7562C21.1191 13.878 20.7657 13.7061 20.6496 13.3694C19.6527 10.4791 16.9594 8.67862 13.6197 8.66966C13.5335 8.67022 13.4479 8.6705 13.3633 8.67302C9.39422 8.79787 6.12716 12.1825 6.0805 16.2182C6.05849 18.2185 6.83582 20.1444 8.26932 21.6403C9.80701 23.2446 11.894 24.1748 13.8633 24.125C15.8414 24.0765 17.7558 23.1489 19.1156 21.5796C19.3447 21.3162 19.732 21.298 19.9817 21.539C20.2317 21.78 20.2487 22.1898 20.0202 22.4538C18.4361 24.2817 16.2027 25.3628 13.8922 25.4199C13.8339 25.421 13.7758 25.4219 13.7178 25.4219Z" fill="url(#paint16_linear_2682_169021)"/>
<path d="M24.48 9.09375H22.4311C22.1036 9.09375 21.8379 8.70883 21.8379 8.23438C21.8379 7.75992 22.1036 7.375 22.4311 7.375H24.48C24.8075 7.375 25.0732 7.75992 25.0732 8.23438C25.0732 8.70883 24.8075 9.09375 24.48 9.09375Z" fill="url(#paint17_linear_2682_169021)"/>
<path d="M25.2886 10.8125C24.9427 10.8125 24.5778 10.7798 24.2244 10.7481C23.8754 10.7171 23.5458 10.6874 23.2396 10.6874C22.9122 10.6874 22.6465 10.3305 22.6465 9.8906C22.6465 9.45066 22.9122 9.09375 23.2396 9.09375C23.5853 9.09375 23.9502 9.12648 24.3031 9.15817C24.6521 9.18918 24.9819 9.21881 25.2886 9.21881C25.6161 9.21881 25.8818 9.57572 25.8818 10.0157C25.8818 10.4556 25.6161 10.8125 25.2886 10.8125Z" fill="url(#paint18_linear_2682_169021)"/>
<path d="M25.3209 13.3906H23.2074C22.8977 13.3906 22.6465 13.0057 22.6465 12.5312C22.6465 12.0568 22.8977 11.6719 23.2074 11.6719H25.3209C25.6305 11.6719 25.8818 12.0568 25.8818 12.5312C25.8818 13.0057 25.6305 13.3906 25.3209 13.3906Z" fill="url(#paint19_linear_2682_169021)"/>
<path d="M5.4763 17.6875C5.14977 17.6875 4.87551 17.4311 4.85476 17.098C4.83321 16.7513 5.094 16.4527 5.43778 16.431C6.381 16.3712 7.31938 16.3255 8.2556 16.2795C9.84004 16.202 11.474 16.1224 13.0911 15.9736C13.687 13.4916 14.2824 11.0642 14.9546 8.69045C15.0492 8.356 15.3951 8.16403 15.7249 8.25838C16.056 8.35382 16.2473 8.70214 16.153 9.03578C15.4474 11.526 14.8256 14.0841 14.1976 16.7048C14.1351 16.9648 13.9174 17.1565 13.6536 17.1826C11.8631 17.3623 10.0599 17.4504 8.31595 17.5358C7.38539 17.5812 6.45321 17.6266 5.51564 17.6861C5.50217 17.687 5.48924 17.6875 5.4763 17.6875Z" fill="url(#paint20_linear_2682_169021)"/>
<path d="M12.3842 16.8281C12.1638 16.8281 11.9549 16.6697 11.8681 16.409C11.7513 16.0584 11.6184 15.7145 11.49 15.3818C11.241 14.7366 10.9833 14.0694 10.8273 13.3202L10.753 12.9644C10.4766 11.631 10.2151 10.3717 9.75625 9.18027C9.62789 8.84584 9.74927 8.45034 10.0281 8.29594C10.3079 8.14154 10.6369 8.28759 10.766 8.62173C11.2691 9.92806 11.5554 11.3084 11.8323 12.6433L11.9058 12.9973C12.0366 13.6244 12.2614 14.2065 12.4991 14.8224C12.6337 15.1707 12.7726 15.531 12.9005 15.9144C13.0144 16.256 12.876 16.6435 12.5907 16.78C12.5229 16.8129 12.4529 16.8281 12.3842 16.8281Z" fill="url(#paint21_linear_2682_169021)"/>
<path d="M32.9793 30.5781C32.6468 30.5781 32.377 30.291 32.377 29.9372C32.377 29.5346 32.3788 29.13 32.3809 28.7235C32.383 28.3162 32.3848 27.9077 32.3848 27.4982C32.3848 26.7062 32.378 25.8009 32.3366 24.8729C31.5747 25.0189 30.9266 25.0431 30.3334 25.0431C27.7496 25.0431 23.0925 24.6379 20.9349 21.9246C20.3857 21.2346 19.6058 20.9567 18.7801 20.6624C17.1806 20.0924 15.3672 19.4462 15.3672 15.7552C15.3672 15.5951 15.3687 15.4349 15.3708 15.2742L15.3719 15.1406C15.3747 14.8724 15.5338 14.6346 15.7711 14.544C16.3275 14.332 16.9074 14.2245 17.4954 14.2245C19.6577 14.2245 21.3929 15.6114 21.8889 17.6614C24.3332 17.6905 26.5213 18.7679 28.6391 19.81C32.1533 17.3095 34.1406 16.7605 35.2218 16.4618C36.0011 16.2465 36.0011 16.2465 36.0011 15.4341C36.0011 15.1021 35.947 15.0486 35.359 14.7987C34.1117 14.2683 32.8944 13.4619 32.8944 10.0134C32.8944 7.82546 33.1829 6.22465 33.7761 5.11958C33.9419 4.812 34.3109 4.70642 34.5979 4.881C34.8869 5.05668 34.9869 5.4485 34.8221 5.75552C34.3351 6.66164 34.0987 8.05462 34.0987 10.0134C34.0987 12.8823 34.9663 13.2516 35.8058 13.6083C36.3966 13.8593 37.2054 14.2037 37.2054 15.4341C37.2054 17.0825 36.7443 17.3654 35.5241 17.7027C34.4854 17.9898 32.5522 18.5237 29.0419 21.0761C28.8667 21.2041 28.6419 21.223 28.4498 21.129L28.1334 20.9733C25.9943 19.92 23.788 18.8308 21.4231 18.9513C21.1078 18.961 20.838 18.7255 20.7974 18.3946C20.5524 16.4103 18.914 15.5061 17.4954 15.5061C17.1837 15.5061 16.8743 15.5457 16.572 15.6242C16.5718 15.6679 16.5718 15.7117 16.5718 15.7552C16.5718 18.5235 17.6586 18.9108 19.1627 19.4465C20.0652 19.7682 21.0882 20.1323 21.8546 21.0966C23.7672 23.5015 28.4214 23.7612 30.3337 23.7612C30.9771 23.7612 31.7471 23.7382 32.7478 23.4666C32.9207 23.4204 33.1045 23.4567 33.2493 23.5675C33.3941 23.6789 33.485 23.8524 33.4975 24.0424C33.5787 25.2628 33.5896 26.474 33.5896 27.4979C33.5896 27.9097 33.5875 28.3206 33.5857 28.7299C33.5836 29.1339 33.5818 29.5362 33.5818 29.9369C33.5813 30.291 33.3115 30.5781 32.9793 30.5781Z" fill="url(#paint22_linear_2682_169021)"/>
<path d="M39.5208 36.5938C39.2344 36.5938 38.9766 36.3828 38.9138 36.0741C37.0281 26.766 38.4091 24.965 40.3211 22.4717C41.0507 21.5203 41.8047 20.5362 42.4892 18.9338C42.6308 18.6035 42.999 18.4557 43.3115 18.6052C43.6243 18.7548 43.7635 19.1442 43.6221 19.4751C42.8716 21.2329 42.0294 22.3313 41.2866 23.3004C39.5294 25.5923 38.3685 27.1063 40.1295 35.799C40.2015 36.1543 39.9873 36.5034 39.652 36.5795C39.6079 36.5892 39.5644 36.5938 39.5208 36.5938Z" fill="url(#paint23_linear_2682_169021)"/>
<path d="M44.5255 9.09375C44.5182 9.09375 44.5109 9.09375 44.504 9.09319C42.7713 9.03164 41.2386 7.86853 40.6147 6.20235C39.4277 6.267 38.1572 6.29636 36.5721 6.29636C35.7376 6.29636 34.9026 6.28873 34.0654 6.28055C33.4332 6.27462 32.7992 6.26869 32.1638 6.26615C31.9453 6.2653 31.7436 6.14363 31.6318 5.94658C31.5206 5.74924 31.5157 5.50476 31.6197 5.30291C33.1662 2.29548 35.7739 0.5 38.5954 0.5C42.9935 0.5 45.2949 3.87217 45.2949 7.20313C45.2949 7.68164 45.2382 8.15366 45.1267 8.60536C45.055 8.89359 44.807 9.09375 44.5255 9.09375ZM41.057 4.86929C41.338 4.86929 41.587 5.06916 41.6582 5.35853C41.9543 6.55975 42.8903 7.47217 44.0236 7.72201C44.0429 7.55235 44.0523 7.38014 44.0523 7.20285C44.0523 3.65931 41.3071 1.80568 38.5954 1.80568C36.5457 1.80568 34.6159 2.96907 33.2758 4.96753C33.5431 4.96979 33.8102 4.97205 34.0772 4.97487C34.9101 4.98306 35.7416 4.99068 36.5723 4.99068C38.3466 4.99068 39.7182 4.9537 41.0191 4.8707C41.0317 4.86985 41.0446 4.86929 41.057 4.86929Z" fill="url(#paint24_linear_2682_169021)"/>
<path d="M48.7537 32.2969C48.4575 32.2969 48.2035 32.0473 48.1734 31.7131C48.1131 31.0422 48.0848 30.3351 48.0848 29.4876C48.0848 28.9055 48.0982 28.3257 48.111 27.7454C48.1244 27.1759 48.1373 26.6059 48.1373 26.0331C48.1373 19.9301 45.3329 18.914 43.0797 18.0973C41.7825 17.6271 40.4414 17.1412 40.4414 15.5549C40.4414 13.8985 41.2977 12.6088 42.1257 11.3617C42.8608 10.2545 43.5549 9.209 43.5925 8.00173C43.6039 7.6437 43.8799 7.35632 44.1963 7.37595C44.5188 7.38829 44.7708 7.68828 44.7597 8.04631C44.7099 9.65507 43.8741 10.9137 43.0658 12.131C42.3168 13.2589 41.609 14.3246 41.609 15.5546C41.609 16.1414 42.1393 16.3921 43.4418 16.8637C45.7768 17.7098 49.3052 18.9883 49.3052 26.0326C49.3052 26.6163 49.2918 27.1972 49.2787 27.7779C49.2658 28.347 49.2529 28.9159 49.2529 29.4873C49.2529 30.2906 49.2792 30.9567 49.3355 31.5836C49.3678 31.94 49.1335 32.2579 48.8128 32.2932C48.7928 32.296 48.7729 32.2969 48.7537 32.2969Z" fill="url(#paint25_linear_2682_169021)"/>
<path d="M45.3694 33.1562C45.349 33.1562 45.3286 33.1554 45.3085 33.1537C44.9268 33.1226 44.6437 32.805 44.6774 32.445C44.7017 32.1769 44.714 31.8947 44.714 31.5837C44.714 30.9202 44.6566 30.2268 44.6008 29.556C44.5435 28.8625 44.4844 28.1456 44.4844 27.4357C44.4844 27.2593 44.4874 27.0827 44.4958 26.9075C44.5129 26.5461 44.8415 26.2647 45.2197 26.282C45.6029 26.2981 45.8997 26.6038 45.8829 26.9647C45.8757 27.1212 45.8724 27.278 45.8724 27.4357C45.8724 28.0946 45.9271 28.7552 45.985 29.4541C46.0423 30.1501 46.102 30.869 46.102 31.5837C46.102 31.9332 46.0885 32.2519 46.06 32.5585C46.0288 32.8992 45.7254 33.1562 45.3694 33.1562Z" fill="url(#paint26_linear_2682_169021)"/>
<path d="M38.224 25.4219C38.0478 25.4219 37.8734 25.3385 37.7551 25.1786C36.791 23.8747 36.0414 22.4218 35.317 21.0163C34.9169 20.2405 34.5033 19.4388 34.063 18.682C33.8863 18.3787 33.9709 17.978 34.2514 17.7872C34.5316 17.5967 34.9021 17.6871 35.0788 17.9909C35.5362 18.7769 35.9573 19.594 36.3652 20.3844C37.0982 21.8062 37.7904 23.1488 38.692 24.3677C38.8991 24.6477 38.8573 25.056 38.5986 25.2799C38.4878 25.3756 38.3553 25.4219 38.224 25.4219Z" fill="url(#paint27_linear_2682_169021)"/>
<path d="M38.8473 20.2656C37.8193 20.2656 37.2051 19.2706 37.2051 18.3083C37.2051 17.9656 37.4995 17.6875 37.8625 17.6875C38.2254 17.6875 38.5199 17.9656 38.5199 18.3083C38.5199 18.6927 38.7393 19.0242 38.8473 19.0242C38.9524 19.0242 39.086 18.814 39.1386 18.5649C39.2096 18.2286 39.5567 18.0085 39.9119 18.078C40.2681 18.1451 40.4986 18.4721 40.4275 18.8084C40.2408 19.6936 39.6203 20.2656 38.8473 20.2656Z" fill="url(#paint28_linear_2682_169021)"/>
<path d="M37.097 22.8438C37.0022 22.8438 36.9055 22.8256 36.8128 22.7865C36.4591 22.6372 36.3 22.2436 36.457 21.9079C36.63 21.5388 36.8028 21.1907 36.9755 20.8417C37.1443 20.5017 37.3128 20.1616 37.481 19.8017C37.6383 19.4665 38.0511 19.3141 38.4066 19.4639C38.7602 19.6133 38.9196 20.0068 38.7623 20.3423C38.5893 20.7114 38.4166 21.0595 38.2438 21.4085C38.075 21.7485 37.9065 22.0886 37.7383 22.4485C37.6219 22.6965 37.3658 22.8438 37.097 22.8438Z" fill="url(#paint29_linear_2682_169021)"/>
<path d="M40.617 21.9844C40.4056 21.9844 40.1991 21.8681 40.0787 21.6561L38.9205 19.6155C38.7351 19.2885 38.8256 18.8576 39.1223 18.6529C39.4193 18.4487 39.81 18.5484 39.9965 18.8751L41.1544 20.9157C41.3398 21.2428 41.2493 21.6737 40.9526 21.8781C40.8484 21.9503 40.7319 21.9844 40.617 21.9844Z" fill="url(#paint30_linear_2682_169021)"/>
<defs>
<linearGradient id="paint0_linear_2682_169021" x1="10.3119" y1="33.1562" x2="24.7494" y2="33.1562" gradientUnits="userSpaceOnUse">
<stop stop-color="#DC2430"/>
<stop offset="1" stop-color="#7B4397"/>
</linearGradient>
<linearGradient id="paint1_linear_2682_169021" x1="25.5463" y1="32.2969" x2="38.6088" y2="32.2969" gradientUnits="userSpaceOnUse">
<stop stop-color="#DC2430"/>
<stop offset="1" stop-color="#7B4397"/>
</linearGradient>
<linearGradient id="paint2_linear_2682_169021" x1="40.1723" y1="32.2969" x2="53.9223" y2="32.2969" gradientUnits="userSpaceOnUse">
<stop stop-color="#DC2430"/>
<stop offset="1" stop-color="#7B4397"/>
</linearGradient>
<linearGradient id="paint3_linear_2682_169021" x1="14.963" y1="43.4688" x2="19.088" y2="43.4688" gradientUnits="userSpaceOnUse">
<stop stop-color="#DC2430"/>
<stop offset="1" stop-color="#7B4397"/>
</linearGradient>
<linearGradient id="paint4_linear_2682_169021" x1="14.963" y1="46.0469" x2="19.088" y2="46.0469" gradientUnits="userSpaceOnUse">
<stop stop-color="#DC2430"/>
<stop offset="1" stop-color="#7B4397"/>
</linearGradient>
<linearGradient id="paint5_linear_2682_169021" x1="31.1388" y1="42.6094" x2="35.2638" y2="42.6094" gradientUnits="userSpaceOnUse">
<stop stop-color="#DC2430"/>
<stop offset="1" stop-color="#7B4397"/>
</linearGradient>
<linearGradient id="paint6_linear_2682_169021" x1="30.3302" y1="45.1875" x2="34.4552" y2="45.1875" gradientUnits="userSpaceOnUse">
<stop stop-color="#DC2430"/>
<stop offset="1" stop-color="#7B4397"/>
</linearGradient>
<linearGradient id="paint7_linear_2682_169021" x1="45.6993" y1="43.4688" x2="49.8243" y2="43.4688" gradientUnits="userSpaceOnUse">
<stop stop-color="#DC2430"/>
<stop offset="1" stop-color="#7B4397"/>
</linearGradient>
<linearGradient id="paint8_linear_2682_169021" x1="44.9562" y1="45.1875" x2="49.7687" y2="45.1875" gradientUnits="userSpaceOnUse">
<stop stop-color="#DC2430"/>
<stop offset="1" stop-color="#7B4397"/>
</linearGradient>
<linearGradient id="paint9_linear_2682_169021" x1="29.3868" y1="35.7344" x2="32.1368" y2="35.7344" gradientUnits="userSpaceOnUse">
<stop stop-color="#DC2430"/>
<stop offset="1" stop-color="#7B4397"/>
</linearGradient>
<linearGradient id="paint10_linear_2682_169021" x1="42.463" y1="35.7344" x2="46.588" y2="35.7344" gradientUnits="userSpaceOnUse">
<stop stop-color="#DC2430"/>
<stop offset="1" stop-color="#7B4397"/>
</linearGradient>
<linearGradient id="paint11_linear_2682_169021" x1="2.42647" y1="3.07812" x2="27.1765" y2="3.07812" gradientUnits="userSpaceOnUse">
<stop stop-color="#DC2430"/>
<stop offset="1" stop-color="#7B4397"/>
</linearGradient>
<linearGradient id="paint12_linear_2682_169021" x1="2.56127" y1="26.2812" x2="28.6863" y2="26.2812" gradientUnits="userSpaceOnUse">
<stop stop-color="#DC2430"/>
<stop offset="1" stop-color="#7B4397"/>
</linearGradient>
<linearGradient id="paint13_linear_2682_169021" x1="3.0998" y1="29.7188" x2="9.9748" y2="29.7188" gradientUnits="userSpaceOnUse">
<stop stop-color="#DC2430"/>
<stop offset="1" stop-color="#7B4397"/>
</linearGradient>
<linearGradient id="paint14_linear_2682_169021" x1="15.502" y1="29.7188" x2="16.877" y2="29.7188" gradientUnits="userSpaceOnUse">
<stop stop-color="#DC2430"/>
<stop offset="1" stop-color="#7B4397"/>
</linearGradient>
<linearGradient id="paint15_linear_2682_169021" x1="20.6251" y1="29.7188" x2="24.7501" y2="29.7188" gradientUnits="userSpaceOnUse">
<stop stop-color="#DC2430"/>
<stop offset="1" stop-color="#7B4397"/>
</linearGradient>
<linearGradient id="paint16_linear_2682_169021" x1="6.26896" y1="7.375" x2="20.7065" y2="7.375" gradientUnits="userSpaceOnUse">
<stop stop-color="#DC2430"/>
<stop offset="1" stop-color="#7B4397"/>
</linearGradient>
<linearGradient id="paint17_linear_2682_169021" x1="22.1075" y1="7.375" x2="24.8575" y2="7.375" gradientUnits="userSpaceOnUse">
<stop stop-color="#DC2430"/>
<stop offset="1" stop-color="#7B4397"/>
</linearGradient>
<linearGradient id="paint18_linear_2682_169021" x1="22.9161" y1="9.09375" x2="25.6661" y2="9.09375" gradientUnits="userSpaceOnUse">
<stop stop-color="#DC2430"/>
<stop offset="1" stop-color="#7B4397"/>
</linearGradient>
<linearGradient id="paint19_linear_2682_169021" x1="22.9161" y1="11.6719" x2="25.6661" y2="11.6719" gradientUnits="userSpaceOnUse">
<stop stop-color="#DC2430"/>
<stop offset="1" stop-color="#7B4397"/>
</linearGradient>
<linearGradient id="paint20_linear_2682_169021" x1="5.79714" y1="8.23438" x2="15.4221" y2="8.23438" gradientUnits="userSpaceOnUse">
<stop stop-color="#DC2430"/>
<stop offset="1" stop-color="#7B4397"/>
</linearGradient>
<linearGradient id="paint21_linear_2682_169021" x1="9.97469" y1="8.23438" x2="12.7247" y2="8.23438" gradientUnits="userSpaceOnUse">
<stop stop-color="#DC2430"/>
<stop offset="1" stop-color="#7B4397"/>
</linearGradient>
<linearGradient id="paint22_linear_2682_169021" x1="17.187" y1="4.79688" x2="35.7495" y2="4.79688" gradientUnits="userSpaceOnUse">
<stop stop-color="#DC2430"/>
<stop offset="1" stop-color="#7B4397"/>
</linearGradient>
<linearGradient id="paint23_linear_2682_169021" x1="38.4874" y1="18.5469" x2="43.2999" y2="18.5469" gradientUnits="userSpaceOnUse">
<stop stop-color="#DC2430"/>
<stop offset="1" stop-color="#7B4397"/>
</linearGradient>
<linearGradient id="paint24_linear_2682_169021" x1="32.6908" y1="0.5" x2="44.3783" y2="0.5" gradientUnits="userSpaceOnUse">
<stop stop-color="#DC2430"/>
<stop offset="1" stop-color="#7B4397"/>
</linearGradient>
<linearGradient id="paint25_linear_2682_169021" x1="41.1828" y1="7.375" x2="48.7453" y2="7.375" gradientUnits="userSpaceOnUse">
<stop stop-color="#DC2430"/>
<stop offset="1" stop-color="#7B4397"/>
</linearGradient>
<linearGradient id="paint26_linear_2682_169021" x1="44.6192" y1="26.2812" x2="45.9942" y2="26.2812" gradientUnits="userSpaceOnUse">
<stop stop-color="#DC2430"/>
<stop offset="1" stop-color="#7B4397"/>
</linearGradient>
<linearGradient id="paint27_linear_2682_169021" x1="34.3751" y1="17.6875" x2="38.5001" y2="17.6875" gradientUnits="userSpaceOnUse">
<stop stop-color="#DC2430"/>
<stop offset="1" stop-color="#7B4397"/>
</linearGradient>
<linearGradient id="paint28_linear_2682_169021" x1="37.4747" y1="17.6875" x2="40.2247" y2="17.6875" gradientUnits="userSpaceOnUse">
<stop stop-color="#DC2430"/>
<stop offset="1" stop-color="#7B4397"/>
</linearGradient>
<linearGradient id="paint29_linear_2682_169021" x1="36.5987" y1="19.4062" x2="38.6612" y2="19.4062" gradientUnits="userSpaceOnUse">
<stop stop-color="#DC2430"/>
<stop offset="1" stop-color="#7B4397"/>
</linearGradient>
<linearGradient id="paint30_linear_2682_169021" x1="39.0264" y1="18.5469" x2="41.0889" y2="18.5469" gradientUnits="userSpaceOnUse">
<stop stop-color="#DC2430"/>
<stop offset="1" stop-color="#7B4397"/>
</linearGradient>
</defs>
</svg>
