<svg width="55" height="56" viewBox="0 0 55 56" fill="none" xmlns="http://www.w3.org/2000/svg">
<g clip-path="url(#clip0_2682_168829)">
<g clip-path="url(#clip1_2682_168829)">
<path d="M20.2879 40.8916C18.646 38.061 16.3857 35.9461 15.3562 32.7711C15.2251 32.3665 14.6938 32.3027 14.4617 32.6554C13.4029 34.2641 13.6684 35.9831 14.3861 37.654C14.0402 37.1669 13.6504 36.719 13.1875 36.3578C12.8867 36.1232 12.2628 36.2282 12.3157 36.715C12.4693 38.1328 13.1177 39.4704 13.5438 40.8259C13.9383 42.0814 14.0114 43.8029 14.7262 44.8991C15.5906 46.2244 17.7463 45.3977 17.3322 43.8129C17.0758 42.8316 16.6473 41.8575 16.1895 40.9225C16.5636 41.537 16.9165 42.1268 17.1918 42.6813C17.4707 43.2433 18.1392 43.54 18.7397 43.5593C19.2636 43.576 19.6804 43.4559 20.0074 43.0402C20.5092 42.4024 20.7202 41.6368 20.2879 40.8916Z" fill="#E0DFE6"/>
<path d="M54.2477 20.6198C55.2374 19.6593 55.041 17.4154 54.8206 16.2822C54.3973 14.1048 53.2152 12.9225 51.9503 11.2232C51.7038 10.8922 51.1436 11.2014 51.3865 11.5548C52.6203 13.3503 52.4392 16.2476 52.0865 18.2907C52.0696 18.3894 52.0547 18.4978 52.042 18.6108C51.421 18.5332 50.751 18.5883 50.2558 18.15C49.3022 17.3058 49.8163 15.9467 49.2029 14.997C48.5995 14.0627 47.5883 14.3289 46.6585 14.3811C45.1486 14.4658 43.8216 14.1391 42.3772 13.764C42.0545 13.6802 41.7277 14.0524 41.9252 14.3558C42.4961 15.2325 43.356 15.8062 44.3288 16.1809C44.9759 16.4301 45.6717 16.5482 46.3544 16.6436C46.5548 16.673 46.7565 16.6927 46.9582 16.7131C47.1809 18.7614 47.5418 20.7072 49.819 21.5973C50.7642 21.9668 51.8703 22.0661 52.7236 21.4268C52.7383 21.4158 52.7519 21.4035 52.7663 21.392C52.5125 22.08 52.4279 22.8083 52.199 23.5358C51.7875 24.8425 51.1004 25.8509 50.1507 26.8121C48.6965 28.2839 47.1931 29.7493 47.4659 31.995C47.5104 32.3618 48.0493 32.6346 48.251 32.209C49.3681 29.8522 51.9456 28.7398 53.3818 26.6054C54.4407 25.0316 55.5416 22.3664 54.2751 20.6492C54.2664 20.6382 54.2562 20.6303 54.2477 20.6198Z" fill="#E0DFE6"/>
<path d="M48.7951 37.609C48.1882 35.9399 47.5297 34.2955 46.7795 32.6882C46.5382 32.1711 45.8923 32.5021 45.8385 32.9487C45.7011 34.0903 45.6579 35.2227 45.7046 36.3563C45.5841 36.1629 45.4566 35.9733 45.3128 35.7937C45.077 35.4998 44.565 35.6685 44.4863 36.0167C44.0924 37.7572 44.5286 39.6809 44.7732 41.4232C44.9398 42.6105 44.8953 44.0266 45.6392 44.884C45.4584 45.2718 45.8165 45.6103 46.1852 45.445C46.2248 45.4273 46.2613 45.4025 46.2998 45.3818C46.3796 45.4198 46.4617 45.4561 46.5515 45.4866C47.6033 45.8451 48.5309 44.819 48.4468 43.8193C49.1112 43.8884 49.7839 43.5463 49.9743 42.7655C50.3962 41.0339 49.3845 39.2299 48.7951 37.609Z" fill="#E0DFE6"/>
<path d="M20.4948 22.3775C20.36 20.4257 20.0155 16.5332 17.6863 16.0117C17.5402 15.9789 17.3792 16.1459 17.4765 16.2928C18.6013 17.9893 18.6973 21.2677 18.1283 23.456C18.1021 23.1112 18.0315 22.76 17.9098 22.4046C17.7142 21.8338 16.9039 21.6294 16.5901 22.2269C16.0292 23.2947 15.4683 24.5575 14.6185 25.4098C13.7019 26.3291 12.4906 26.6667 11.8771 27.9073C11.4803 28.7095 11.1462 31.3204 12.1816 31.9923C12.0869 32.0759 12.0174 32.2021 11.9995 32.3722C11.9323 33.017 11.8344 33.6485 11.9066 34.2943C11.9951 35.0853 13.0146 35.0869 13.1031 34.2943C13.1753 33.6491 13.0776 33.0163 13.0102 32.3722C12.9995 32.2695 12.9681 32.1844 12.9254 32.1132C13.0728 32.0435 13.1657 31.8876 13.1812 31.7106C13.2863 30.506 12.6609 29.7072 13.9405 28.798C14.255 28.5747 14.5884 28.4006 14.9225 28.2305C14.5509 28.8063 14.2707 29.4499 14.1837 30.2436C13.968 32.215 17.0982 31.991 17.1202 30.4074C17.7354 29.0781 18.8471 28.164 19.5985 26.917C20.4102 25.5713 20.6021 23.9325 20.4948 22.3775Z" fill="#E0DFE6"/>
<path d="M13.763 14.8034C13.6055 14.3612 12.924 14.1573 12.683 14.6599C12.0564 15.9668 12.3839 17.4298 12.522 18.8185C12.5713 19.3144 13.3286 19.5157 13.4461 18.9458C13.7188 17.6255 14.2349 16.127 13.763 14.8034Z" fill="#E0DFE6"/>
<path d="M14.1341 9.46952C12.625 9.81868 11.3904 11.0228 10.1016 11.8491C8.91407 12.6106 7.25464 13.2693 6.24189 14.2372C5.45423 14.99 5.54426 16.6754 5.19236 17.7009C4.65445 19.2683 3.88826 20.7502 2.60221 21.8151C2.2759 22.0852 2.58279 22.5123 2.90796 22.5546C5.50884 22.8937 7.06201 18.8143 7.66801 16.8599C7.95685 15.9285 8.04688 15.8834 8.93921 15.463C9.79383 15.0607 10.6277 14.6257 11.4471 14.1559C12.8725 13.3383 14.5335 12.5779 15.4279 11.156C15.9846 10.2713 15.0683 9.25361 14.1341 9.46952Z" fill="#E0DFE6"/>
<path d="M43.1977 23.8226C42.6767 23.3288 42.1606 23.3949 41.5074 23.4602C41.076 23.5032 40.61 23.4844 40.1838 23.4049C39.7302 23.3202 39.1662 23.8233 39.5066 24.2859C40.1999 25.2273 42.1708 26.6137 43.1977 25.355C43.5599 24.9113 43.657 24.2578 43.1977 23.8226Z" fill="#E0DFE6"/>
<path d="M8.50571 29.1417C8.45858 29.1417 8.41123 29.136 8.36364 29.1239C5.938 28.5002 3.86836 27.0147 2.53541 24.9408C2.38849 24.7124 2.47188 24.4175 2.72161 24.2826C2.97064 24.1484 3.29267 24.2242 3.43983 24.4533C4.6344 26.3118 6.48342 27.642 8.64709 28.1983C8.92616 28.2701 9.08856 28.5354 9.01047 28.7911C8.94556 29.003 8.73488 29.1417 8.50571 29.1417Z" fill="url(#paint0_linear_2682_168829)"/>
<path d="M2.99269 21.7538C2.84275 21.7538 2.69374 21.6912 2.58904 21.5697C2.39946 21.3499 2.42674 21.0199 2.64944 20.8333C4.15069 19.5735 5.08343 17.594 5.08343 15.6673C5.08343 15.2998 5.04962 14.9369 4.98339 14.5887C4.93676 14.3455 5.06944 14.1036 5.30146 14.009C7.59648 13.0738 10.0321 11.9846 12.2938 10.3615C12.5293 10.1915 12.8616 10.2428 13.0332 10.4768C13.2053 10.7102 13.1528 11.0367 12.9164 11.2066C10.6927 12.8027 8.33241 13.8917 6.09033 14.8173C6.12484 15.0966 6.14233 15.3808 6.14233 15.6673C6.14233 17.8925 5.06688 20.1767 3.33547 21.6293C3.23567 21.713 3.11371 21.7538 2.99269 21.7538Z" fill="url(#paint1_linear_2682_168829)"/>
<path d="M2.37923 25.0373C0.977285 25.0373 0 24.0703 0 23.2024C0 22.1414 1.31108 21.4279 2.09435 21.0012C2.35633 20.8593 2.69109 20.9452 2.841 21.1955C2.99066 21.4458 2.8998 21.7641 2.6371 21.907C2.17533 22.1582 1.09417 22.7468 1.09417 23.2024C1.09417 23.4206 1.48918 23.9945 2.37898 23.9945C2.98223 23.9945 3.59704 23.7185 3.94626 23.2911C4.13111 23.0637 4.47575 23.0226 4.71411 23.1997C4.9527 23.3765 4.9956 23.7042 4.81003 23.9311C4.2533 24.6136 3.32205 25.0373 2.37923 25.0373Z" fill="url(#paint2_linear_2682_168829)"/>
<path d="M13.5095 24.2165C13.3445 24.2165 13.1825 24.137 13.0839 23.99C12.9272 23.7562 12.9907 23.4404 13.2257 23.2847C13.2993 23.2361 13.3767 23.1861 13.4562 23.1346C13.9543 22.8141 14.5745 22.4152 14.5745 21.9956C14.5745 21.3626 14.0135 20.8551 13.3639 20.2676C12.5301 19.5132 11.4922 18.5742 11.4922 17.0359C11.4922 16.0266 11.9374 15.1503 12.3111 14.5924C12.4678 14.3585 12.7849 14.2954 13.0199 14.4513C13.2549 14.6069 13.3184 14.9227 13.1618 15.1566C12.8666 15.5974 12.5146 16.2815 12.5146 17.0359C12.5146 18.1242 13.2612 18.7998 14.0518 19.5147C14.8115 20.2017 15.5967 20.912 15.5967 21.9954C15.5967 22.9686 14.6803 23.5582 14.0111 23.9887C13.9354 24.0373 13.862 24.0843 13.7925 24.1307C13.7056 24.1889 13.607 24.2165 13.5095 24.2165Z" fill="url(#paint3_linear_2682_168829)"/>
<path d="M9.07391 19.291C8.55668 19.291 8.20898 18.9165 8.20898 18.3595C8.20898 17.9428 8.47047 17.7312 8.71533 17.6725C8.77958 17.6571 8.84608 17.6492 8.91258 17.6492C9.49959 17.6492 9.85078 18.0993 9.85078 18.5348C9.85078 18.7272 9.78243 18.9086 9.65846 19.045C9.51417 19.2036 9.30645 19.291 9.07391 19.291ZM9.07001 18.3937C9.0464 18.3937 8.9877 18.4133 8.94747 18.4652C8.91976 18.5014 8.91689 18.533 8.91935 18.5397C8.91894 18.5397 8.94111 18.5429 8.94111 18.5433C9.02608 18.5227 9.08643 18.465 9.11762 18.4142C9.10161 18.4032 9.08376 18.3947 9.07001 18.3937Z" fill="url(#paint4_linear_2682_168829)"/>
<path d="M13.8294 16.8283C13.4137 16.8283 13.1348 16.5624 13.1348 16.1663C13.1348 16.0952 13.1444 16.0158 13.1565 15.9351C13.162 15.898 13.1692 15.8607 13.1692 15.8257C13.1692 15.7344 13.1963 15.6452 13.2471 15.5694C13.4098 15.3261 13.6626 15.1865 13.9401 15.1865C14.409 15.1865 14.7766 15.5292 14.7766 15.9669C14.7766 16.4337 14.3428 16.8283 13.8294 16.8283ZM13.8458 15.9624C13.8458 16.0455 13.9036 16.1117 13.9401 16.1117C13.9801 16.1117 14.0149 16.0897 14.0249 16.0783L13.8458 15.9624Z" fill="url(#paint5_linear_2682_168829)"/>
<path d="M10.2453 25.8581C9.36022 25.8581 8.61713 25.4713 8.25809 24.8235C8.14333 24.6161 8.23657 24.364 8.4663 24.2604C8.69644 24.1574 8.97576 24.2409 9.09073 24.4481C9.2889 24.8056 9.72049 25.0188 10.2455 25.0188C10.4552 25.0188 10.6687 24.9839 10.8636 24.9179C11.1038 24.8366 11.3724 24.946 11.4628 25.1634C11.553 25.3803 11.4313 25.6223 11.1907 25.7038C10.8921 25.8047 10.5654 25.8581 10.2453 25.8581Z" fill="url(#paint6_linear_2682_168829)"/>
<path d="M13.9961 32.4254C13.772 32.4254 13.5678 32.2747 13.5099 32.0488C13.4087 31.6512 13.3569 31.2348 13.3569 30.8113C13.3569 29.2992 14.0238 27.671 15.1428 26.4447C15.1618 26.4194 15.183 26.3952 15.2071 26.3732C16.7773 24.9298 17.7195 22.8606 17.8605 20.5476C18.0595 17.2721 16.4327 14.0166 13.7161 12.2545C13.5629 12.1551 13.4763 11.9806 13.4898 11.799C13.5355 11.188 13.6365 10.6459 13.7963 10.1572C12.5761 9.88731 11.3191 9.61811 10.1152 9.61811C8.25703 9.61899 1.00146 11.4722 1.00389 16.7068C1.00478 18.575 1.56905 20.3648 2.06017 21.7152C2.15455 21.9747 2.01972 22.2611 1.75935 22.3548C1.49921 22.4491 1.21099 22.3152 1.11662 22.0554C0.597208 20.628 0.000884759 18.7307 6.61685e-07 16.7075C-0.00265163 10.6461 7.96903 8.6207 10.1108 8.61938C11.4785 8.624 12.8285 8.91982 14.1431 9.21079L14.5838 9.308C14.7326 9.34055 14.8584 9.43842 14.926 9.5739C14.9936 9.70938 14.9956 9.86839 14.932 10.0056C14.722 10.4558 14.5856 10.9758 14.5173 11.5876C17.3785 13.5767 19.0768 17.0827 18.8624 20.6078C18.7073 23.1593 17.6667 25.451 15.9297 27.0684C14.943 28.1322 14.3608 29.5266 14.3608 30.811C14.3608 31.1517 14.4019 31.4856 14.4831 31.8029C14.5514 32.0702 14.3887 32.342 14.1201 32.41C14.0786 32.4205 14.037 32.4254 13.9961 32.4254Z" fill="url(#paint7_linear_2682_168829)"/>
<path d="M10.0974 33.2464C9.79923 33.2464 9.54765 33.033 9.52751 32.754C9.43333 31.4458 8.70782 30.1355 7.5862 29.2489C7.34646 29.0594 7.31901 28.7268 7.5245 28.5052C7.72999 28.2845 8.09035 28.258 8.33084 28.4483C9.68062 29.5153 10.5547 31.099 10.669 32.6838C10.6899 32.9747 10.4512 33.2257 10.1364 33.2453C10.1231 33.246 10.1105 33.2464 10.0974 33.2464Z" fill="url(#paint8_linear_2682_168829)"/>
<path d="M28.2306 42.2761C27.9652 42.2761 27.7437 42.0621 27.7302 41.7866C27.6842 40.8443 27.6573 39.9894 27.633 39.215C27.453 33.5118 27.4256 32.6351 21.1554 32.6351C17.6045 32.6351 14.0049 32.8212 10.524 33.0011C8.59533 33.1008 6.60066 33.204 4.62455 33.2753C4.34938 33.2907 4.1155 33.0626 4.10578 32.7785C4.09607 32.4941 4.31249 32.2556 4.58921 32.2454C6.55782 32.1744 8.54851 32.0716 10.4736 31.9719C13.9667 31.7915 17.5793 31.6045 21.1554 31.6045C28.1308 31.6045 28.4422 33.0515 28.6352 39.1814C28.6597 39.9503 28.6864 40.7991 28.7317 41.7349C28.7454 42.0195 28.5325 42.2612 28.256 42.2755C28.2476 42.2757 28.2392 42.2761 28.2306 42.2761Z" fill="url(#paint9_linear_2682_168829)"/>
<path d="M12.0018 36.53C10.4019 36.53 10.1663 34.9416 10.0107 33.8906C9.96746 33.6016 9.92706 33.3285 9.86889 33.1091C9.79337 32.8244 9.94638 32.5277 10.2114 32.4465C10.4748 32.3648 10.7516 32.5296 10.8276 32.8147C10.9022 33.0957 10.9492 33.4139 10.9951 33.722C11.1885 35.0245 11.3608 35.458 12.002 35.458C12.957 35.458 12.957 35.088 12.957 34.5764C12.957 34.405 12.9482 34.2246 12.9394 34.0417C12.9293 33.8339 12.9197 33.6236 12.9197 33.4177C12.9197 33.2206 12.9285 33.0494 12.9467 32.895C12.9814 32.6011 13.2305 32.3957 13.5036 32.4302C13.7769 32.4672 13.9703 32.7354 13.9359 33.0291C13.9229 33.1387 13.9168 33.2661 13.9168 33.4179C13.9168 33.6056 13.9262 33.7976 13.9352 33.9869C13.9446 34.189 13.9541 34.388 13.9541 34.5766C13.9539 35.0597 13.9539 36.53 12.0018 36.53Z" fill="url(#paint10_linear_2682_168829)"/>
<path d="M15.2536 46.3807C15.1901 46.3807 15.126 46.3678 15.0653 46.3418C13.6047 45.7125 12.0098 45.1118 10.1895 44.5043C9.94924 44.4241 9.80719 44.1683 9.86094 43.9128L9.94708 43.5059C10.5114 40.8365 11.0947 38.0761 11.3818 35.3409C11.4112 35.0619 11.6573 34.8614 11.9221 34.8911C12.1911 34.9215 12.3858 35.1719 12.3565 35.4507C12.0651 38.2254 11.4805 40.9983 10.9138 43.6805C12.4785 44.2119 13.8791 44.7411 15.1759 45.2908C15.6881 44.8757 16.2041 44.4663 16.7192 44.0585C17.0402 43.8037 17.361 43.5497 17.6796 43.2948C15.8457 41.0714 14.318 38.6171 13.1354 35.9928C13.0207 35.7387 13.1272 35.4366 13.3722 35.3179C13.6185 35.199 13.9089 35.3096 14.0237 35.5632C15.2395 38.2616 16.8319 40.7739 18.7566 43.0308C18.8462 43.1359 18.89 43.2745 18.8773 43.4137C18.8648 43.5533 18.7974 43.6811 18.6906 43.767C18.2359 44.1345 17.7759 44.4989 17.3148 44.8645C16.728 45.3297 16.1391 45.7961 15.5571 46.2716C15.4692 46.3436 15.3617 46.3807 15.2536 46.3807Z" fill="url(#paint11_linear_2682_168829)"/>
<path d="M30.1537 42.2761C30.1473 42.2761 30.1412 42.2761 30.1349 42.2757C29.8513 42.2659 29.6294 42.0307 29.6393 41.7509C29.6464 41.5528 29.6498 41.3544 29.6498 41.1557C29.6498 40.5922 29.6251 40.0133 29.6006 39.4534C29.5761 38.8819 29.5508 38.2914 29.5508 37.7049C29.5508 31.9856 30.8594 31.9668 43.3803 31.7868C45.9307 31.7502 49.1048 31.7046 52.8286 31.6055C53.1253 31.5876 53.3493 31.8187 53.3566 32.0984C53.3643 32.3782 53.1407 32.6118 52.8567 32.619C49.1261 32.7188 45.9484 32.7641 43.3953 32.801C30.5792 32.9852 30.5792 33.0737 30.5792 37.7049C30.5792 38.2697 30.6044 38.8495 30.6284 39.4101C30.6528 39.9805 30.6782 40.5705 30.6782 41.1554C30.6782 41.3661 30.6748 41.5764 30.6671 41.787C30.6574 42.0608 30.4291 42.2761 30.1537 42.2761Z" fill="url(#paint12_linear_2682_168829)"/>
<path d="M46.5024 32.4255C46.4721 32.4255 46.4414 32.4233 46.4104 32.4178C46.1203 32.3693 45.9264 32.1028 45.9767 31.8229C46.2386 30.3658 46.816 29.0943 47.6923 28.0438C47.7339 27.9939 47.785 27.952 47.8425 27.9201C49.9016 26.7823 51.5724 24.6162 52.3112 22.1268C52.3927 21.8537 52.6877 21.6961 52.9705 21.7737C53.2536 21.8521 53.4169 22.1372 53.3362 22.4103C52.533 25.116 50.715 27.4826 48.4619 28.7632C47.7341 29.6621 47.2513 30.7502 47.0265 31.9992C46.9819 32.2492 46.7566 32.4255 46.5024 32.4255Z" fill="url(#paint13_linear_2682_168829)"/>
<path d="M42.8746 32.4254C42.6039 32.4254 42.3792 32.2129 42.3676 31.9417C42.3193 30.8024 42.0296 29.9035 41.5054 29.2679C38.4076 28.0182 36.355 24.9533 36.1373 21.2354C35.9555 18.1371 37.1475 15.0716 39.3332 12.9885C39.234 12.8083 38.782 12.4505 38.558 12.2732C38.0461 11.8683 37.7081 11.6006 37.7081 11.2057C37.7081 10.9307 37.7081 10.4707 40.7775 9.52778C41.6668 9.25479 43.9254 8.61938 45.6847 8.61938C53.015 8.61938 53.199 14.5091 53.309 18.0286C53.3195 18.3607 53.3291 18.6751 53.3443 18.9646C53.3519 19.1172 53.3566 19.2687 53.3579 19.42C53.3606 19.6987 53.1353 19.927 52.855 19.9297C52.5722 19.9297 52.3455 19.7068 52.3428 19.4291C52.3415 19.2916 52.3375 19.1539 52.3305 19.0159C52.3151 18.7207 52.305 18.3992 52.2945 18.0595C52.1832 14.502 52.0308 9.62945 45.6847 9.62945C43.509 9.62945 40.0524 10.7463 38.9443 11.2854C39.0272 11.3537 39.1162 11.4242 39.1895 11.4821C39.7644 11.9368 40.3586 12.4071 40.3586 12.9845C40.3586 13.0401 40.3546 13.1002 40.3503 13.1549L40.3468 13.2105C40.3441 13.3489 40.2844 13.4884 40.1818 13.5818C38.1152 15.4631 36.982 18.3022 37.1504 21.1769C37.3478 24.5424 39.2031 27.2996 41.9925 28.3731C42.0678 28.402 42.1349 28.4487 42.1887 28.5086C42.9197 29.3269 43.3212 30.4677 43.382 31.899C43.3936 32.178 43.1761 32.4133 42.8962 32.4251C42.8891 32.4254 42.8817 32.4254 42.8746 32.4254Z" fill="url(#paint14_linear_2682_168829)"/>
<path d="M40.227 18.4702C40.2166 18.4702 40.2064 18.4698 40.1961 18.4698C39.7132 18.4596 39.3951 18.1201 39.4045 17.6248C39.41 17.333 39.5566 17.0776 39.8075 16.9249C39.8876 16.877 39.9768 16.8481 40.0757 16.8368C40.3593 16.7981 40.6335 16.8946 40.8216 17.0989C41.0158 17.3107 41.0886 17.6039 41.0219 17.9044C40.9747 18.1173 40.8083 18.4702 40.227 18.4702ZM40.163 17.7057C40.1716 17.7057 40.1847 17.7143 40.1945 17.7165C40.1969 17.7151 40.228 17.7073 40.2669 17.6844L40.2241 17.6127C40.1912 17.6403 40.1618 17.6795 40.163 17.7057ZM40.2264 17.6108L40.2701 17.6825C40.281 17.6747 40.293 17.6536 40.2932 17.6414C40.2888 17.6371 40.2661 17.6155 40.2413 17.5996C40.2364 17.6028 40.2315 17.6065 40.2264 17.6106L40.2102 17.584L40.2264 17.6108ZM40.2094 17.5822L40.0389 17.3035L40.2094 17.5822Z" fill="url(#paint15_linear_2682_168829)"/>
<path d="M42.4741 23.3956C42.4589 23.3956 42.4435 23.3949 42.4279 23.3936C41.3675 23.2975 40.2227 22.5811 40.2227 21.5907C40.2227 20.9294 40.666 20.5001 41.1356 20.046C41.7781 19.4243 42.5061 18.7197 42.5061 17.1374C42.5061 16.6067 42.3768 15.6657 41.512 15.3223C41.2559 15.2205 41.1312 14.9319 41.2336 14.6773C41.3363 14.4232 41.6266 14.2998 41.8838 14.4012C42.9151 14.8104 43.5062 15.8077 43.5062 17.1374C43.5062 19.1378 42.54 20.0731 41.8341 20.7559C41.455 21.1227 41.2228 21.3591 41.2228 21.5907C41.2228 21.9663 41.9356 22.3525 42.519 22.4052C42.7939 22.4301 42.9968 22.6717 42.9717 22.9446C42.9479 23.202 42.7298 23.3956 42.4741 23.3956Z" fill="url(#paint16_linear_2682_168829)"/>
<path d="M43.7626 26.6791C43.5365 26.6791 43.3145 26.6556 43.1032 26.6098C42.8082 26.5455 42.6289 26.2839 42.7018 26.0259C42.7752 25.7675 43.0736 25.61 43.3688 25.6745C43.4936 25.7019 43.6259 25.7157 43.7626 25.7157C44.2677 25.7157 44.7311 25.5332 44.9708 25.2389C45.1475 25.0225 45.4909 24.9727 45.7386 25.1269C45.9858 25.2816 46.0433 25.5822 45.8666 25.7991C45.4168 26.3503 44.6303 26.6791 43.7626 26.6791Z" fill="url(#paint17_linear_2682_168829)"/>
<path d="M45.9031 20.1118C45.6133 20.1118 45.1847 19.9197 45.1847 19.5079C45.1847 19.4853 45.1872 19.4582 45.1913 19.4309C45.1746 19.3758 45.1504 19.2956 45.1504 19.199C45.1504 19.0044 45.2608 18.7561 45.5673 18.6709C45.572 18.6666 45.5769 18.6624 45.5818 18.6583C45.6594 18.5923 45.8035 18.47 46.018 18.47C46.3768 18.47 46.7922 18.9481 46.7922 19.2602C46.7922 19.6821 46.3437 20.1118 45.9031 20.1118ZM45.9178 19.3558C45.9384 19.3619 45.9642 19.3669 45.9942 19.3691C46.0032 19.3515 46.0112 19.333 46.0176 19.3134C45.9827 19.2554 45.9394 19.221 45.917 19.2117C45.9086 19.2253 45.9066 19.2422 45.9066 19.2608C45.9066 19.2982 45.9115 19.3301 45.9178 19.3558ZM45.2093 19.3497C45.2085 19.3526 45.2073 19.3558 45.2064 19.359C45.2075 19.3558 45.2085 19.3526 45.2093 19.3497Z" fill="url(#paint18_linear_2682_168829)"/>
<path d="M52.35 20.112C50.6877 20.112 49.4624 18.3194 48.7944 14.9212C44.5769 14.8447 42.8409 13.7734 41.8941 13.1893C41.6898 13.0631 41.5132 12.9542 41.4142 12.9253C41.1439 12.8463 40.9875 12.5577 41.0646 12.2808C41.1421 12.004 41.4236 11.8449 41.6936 11.9229C41.9224 11.9902 42.1415 12.1252 42.419 12.2962C43.3119 12.8475 44.9749 13.8738 49.2168 13.8829C49.4626 13.8836 49.6728 14.0639 49.7167 14.3116C49.9688 15.7422 50.7303 19.0699 52.3497 19.0699C52.4123 19.0699 52.4752 19.0612 52.5384 19.0536C52.6417 19.041 52.7455 19.03 52.8495 19.03C53.1305 19.03 53.3584 19.2635 53.3584 19.5514C53.3584 19.8393 53.1305 20.0728 52.8495 20.0728C52.7851 20.0728 52.7208 20.0815 52.6567 20.0893C52.5543 20.1008 52.4515 20.112 52.35 20.112Z" fill="url(#paint19_linear_2682_168829)"/>
<path d="M51.3705 23.3955C51.1271 23.3955 50.9192 23.2081 50.8965 22.9588C50.8726 22.6947 51.0658 22.4612 51.3279 22.4371C53.0555 22.2789 54.0463 21.8533 54.0463 21.2692C54.0463 20.7608 53.2932 20.3036 52.6449 20.2493C52.3829 20.2271 52.1882 19.9951 52.2098 19.7307C52.2319 19.4662 52.461 19.2744 52.7242 19.2922C53.8181 19.3841 54.999 20.1662 54.999 21.2694C54.999 22.461 53.7929 23.1756 51.4141 23.3938C51.3996 23.3949 51.3851 23.3955 51.3705 23.3955Z" fill="url(#paint20_linear_2682_168829)"/>
<path d="M45.145 35.709C42.6855 35.709 42.6855 33.369 42.6855 32.2445V32.0907C42.6855 31.8222 42.9186 31.6045 43.206 31.6045C43.4934 31.6045 43.7264 31.8222 43.7264 32.0907V32.2445C43.7264 34.1312 44.0714 34.7367 45.1453 34.7367C45.5461 34.7367 45.7494 34.641 45.7494 34.1186C45.7494 33.9539 45.731 33.7696 45.7115 33.5745C45.6895 33.354 45.6669 33.126 45.6669 32.8934C45.6669 32.6365 45.6953 32.4138 45.7542 32.2136C45.8298 31.9548 46.1149 31.8013 46.3933 31.8734C46.6704 31.9443 46.8338 32.2117 46.7575 32.4706C46.724 32.5858 46.7073 32.7245 46.7073 32.8934C46.7073 33.0808 46.7277 33.2859 46.7476 33.4839C46.7683 33.6929 46.79 33.9087 46.79 34.1186C46.7898 35.1292 46.1901 35.709 45.145 35.709Z" fill="url(#paint21_linear_2682_168829)"/>
<path d="M45.4235 46.3807C45.3291 46.3807 45.2343 46.3555 45.1496 46.3034L43.6452 45.377C42.5885 44.7258 41.5315 44.0743 40.4745 43.4298C40.2648 43.3023 40.1716 43.0456 40.2505 42.8123C40.4845 42.1192 40.726 41.4279 40.9671 40.7369C41.5899 38.9528 42.2339 37.1078 42.7272 35.2763C42.8026 34.9965 43.0887 34.8313 43.3697 34.9062C43.6491 34.9819 43.8141 35.2705 43.7387 35.5508C43.2352 37.4191 42.5848 39.2826 41.9558 41.0842C41.762 41.6394 41.5684 42.1951 41.3781 42.7517C42.3167 43.3249 43.2553 43.9035 44.1937 44.4816L45.3595 45.1997C45.9906 44.6226 46.6482 44.066 47.2889 43.5249C46.303 40.8174 44.9975 36.6658 44.9975 36.3103C44.9975 36.0041 45.0794 35.7188 45.2345 35.4848C45.3951 35.2432 45.7204 35.1784 45.9611 35.3383C46.2019 35.4992 46.2672 35.825 46.1071 36.0671C46.0723 36.1192 46.0513 36.1916 46.0464 36.2733C46.1565 36.769 47.3023 40.5545 48.3985 43.5057C48.476 43.7137 48.4144 43.9477 48.2453 44.0907L48.0254 44.2768C47.2753 44.91 46.5 45.5649 45.7818 46.2391C45.6816 46.3324 45.5529 46.3807 45.4235 46.3807Z" fill="url(#paint22_linear_2682_168829)"/>
</g>
</g>
<defs>
<linearGradient id="paint0_linear_2682_168829" x1="3.01015" y1="24.2163" x2="8.59224" y2="24.2163" gradientUnits="userSpaceOnUse">
<stop stop-color="#DC2430"/>
<stop offset="1" stop-color="#7B4397"/>
</linearGradient>
<linearGradient id="paint1_linear_2682_168829" x1="3.35219" y1="10.2612" x2="12.4231" y2="10.2612" gradientUnits="userSpaceOnUse">
<stop stop-color="#DC2430"/>
<stop offset="1" stop-color="#7B4397"/>
</linearGradient>
<linearGradient id="paint2_linear_2682_168829" x1="0.410448" y1="20.9329" x2="4.59701" y2="20.9329" gradientUnits="userSpaceOnUse">
<stop stop-color="#DC2430"/>
<stop offset="1" stop-color="#7B4397"/>
</linearGradient>
<linearGradient id="paint3_linear_2682_168829" x1="11.8342" y1="14.3657" x2="15.323" y2="14.3657" gradientUnits="userSpaceOnUse">
<stop stop-color="#DC2430"/>
<stop offset="1" stop-color="#7B4397"/>
</linearGradient>
<linearGradient id="paint4_linear_2682_168829" x1="8.3458" y1="17.6492" x2="9.74132" y2="17.6492" gradientUnits="userSpaceOnUse">
<stop stop-color="#DC2430"/>
<stop offset="1" stop-color="#7B4397"/>
</linearGradient>
<linearGradient id="paint5_linear_2682_168829" x1="13.2716" y1="15.1865" x2="14.6671" y2="15.1865" gradientUnits="userSpaceOnUse">
<stop stop-color="#DC2430"/>
<stop offset="1" stop-color="#7B4397"/>
</linearGradient>
<linearGradient id="paint6_linear_2682_168829" x1="8.48262" y1="24.2163" x2="11.2737" y2="24.2163" gradientUnits="userSpaceOnUse">
<stop stop-color="#DC2430"/>
<stop offset="1" stop-color="#7B4397"/>
</linearGradient>
<linearGradient id="paint7_linear_2682_168829" x1="1.57338" y1="8.61938" x2="17.6219" y2="8.61938" gradientUnits="userSpaceOnUse">
<stop stop-color="#DC2430"/>
<stop offset="1" stop-color="#7B4397"/>
</linearGradient>
<linearGradient id="paint8_linear_2682_168829" x1="7.66035" y1="28.321" x2="10.4514" y2="28.321" gradientUnits="userSpaceOnUse">
<stop stop-color="#DC2430"/>
<stop offset="1" stop-color="#7B4397"/>
</linearGradient>
<linearGradient id="paint9_linear_2682_168829" x1="6.15771" y1="31.6045" x2="27.0905" y2="31.6045" gradientUnits="userSpaceOnUse">
<stop stop-color="#DC2430"/>
<stop offset="1" stop-color="#7B4397"/>
</linearGradient>
<linearGradient id="paint10_linear_2682_168829" x1="10.1916" y1="32.4255" x2="13.6805" y2="32.4255" gradientUnits="userSpaceOnUse">
<stop stop-color="#DC2430"/>
<stop offset="1" stop-color="#7B4397"/>
</linearGradient>
<linearGradient id="paint11_linear_2682_168829" x1="10.6021" y1="34.8882" x2="18.2775" y2="34.8882" gradientUnits="userSpaceOnUse">
<stop stop-color="#DC2430"/>
<stop offset="1" stop-color="#7B4397"/>
</linearGradient>
<linearGradient id="paint12_linear_2682_168829" x1="31.5346" y1="31.6045" x2="51.7697" y2="31.6045" gradientUnits="userSpaceOnUse">
<stop stop-color="#DC2430"/>
<stop offset="1" stop-color="#7B4397"/>
</linearGradient>
<linearGradient id="paint13_linear_2682_168829" x1="46.5844" y1="21.7539" x2="52.8643" y2="21.7539" gradientUnits="userSpaceOnUse">
<stop stop-color="#DC2430"/>
<stop offset="1" stop-color="#7B4397"/>
</linearGradient>
<linearGradient id="paint14_linear_2682_168829" x1="37.5557" y1="8.61938" x2="52.2087" y2="8.61938" gradientUnits="userSpaceOnUse">
<stop stop-color="#DC2430"/>
<stop offset="1" stop-color="#7B4397"/>
</linearGradient>
<linearGradient id="paint15_linear_2682_168829" x1="39.5411" y1="16.8284" x2="40.9366" y2="16.8284" gradientUnits="userSpaceOnUse">
<stop stop-color="#DC2430"/>
<stop offset="1" stop-color="#7B4397"/>
</linearGradient>
<linearGradient id="paint16_linear_2682_168829" x1="40.4963" y1="14.3657" x2="43.2873" y2="14.3657" gradientUnits="userSpaceOnUse">
<stop stop-color="#DC2430"/>
<stop offset="1" stop-color="#7B4397"/>
</linearGradient>
<linearGradient id="paint17_linear_2682_168829" x1="42.9592" y1="25.0374" x2="45.7502" y2="25.0374" gradientUnits="userSpaceOnUse">
<stop stop-color="#DC2430"/>
<stop offset="1" stop-color="#7B4397"/>
</linearGradient>
<linearGradient id="paint18_linear_2682_168829" x1="45.2872" y1="18.47" x2="46.6827" y2="18.47" gradientUnits="userSpaceOnUse">
<stop stop-color="#DC2430"/>
<stop offset="1" stop-color="#7B4397"/>
</linearGradient>
<linearGradient id="paint19_linear_2682_168829" x1="42.071" y1="11.9031" x2="52.5375" y2="11.9031" gradientUnits="userSpaceOnUse">
<stop stop-color="#DC2430"/>
<stop offset="1" stop-color="#7B4397"/>
</linearGradient>
<linearGradient id="paint20_linear_2682_168829" x1="51.2366" y1="19.291" x2="54.7254" y2="19.291" gradientUnits="userSpaceOnUse">
<stop stop-color="#DC2430"/>
<stop offset="1" stop-color="#7B4397"/>
</linearGradient>
<linearGradient id="paint21_linear_2682_168829" x1="43.0276" y1="31.6045" x2="46.5164" y2="31.6045" gradientUnits="userSpaceOnUse">
<stop stop-color="#DC2430"/>
<stop offset="1" stop-color="#7B4397"/>
</linearGradient>
<linearGradient id="paint22_linear_2682_168829" x1="40.9067" y1="34.8882" x2="47.8843" y2="34.8882" gradientUnits="userSpaceOnUse">
<stop stop-color="#DC2430"/>
<stop offset="1" stop-color="#7B4397"/>
</linearGradient>
<clipPath id="clip0_2682_168829">
<rect width="55" height="55" fill="white" transform="translate(0 0.5)"/>
</clipPath>
<clipPath id="clip1_2682_168829">
<rect width="55" height="37.7612" fill="white" transform="translate(0 8.61938)"/>
</clipPath>
</defs>
</svg>
