<svg width="55" height="55" viewBox="0 0 55 55" fill="none" xmlns="http://www.w3.org/2000/svg">
<g clip-path="url(#clip0_2692_167236)">
<path d="M51.5611 43.6747C50.8684 43.6642 50.2708 44.1173 49.5745 44.1672C48.6902 44.2306 47.8586 44.3007 47.1748 44.9164C47.1671 44.9233 47.1636 44.932 47.1562 44.9392C47.1393 44.9174 47.126 44.8954 47.1081 44.8737C46.3668 43.9767 45.1945 44.6236 44.5258 45.2194C43.1603 46.4364 42.0242 47.5437 40.2393 48.1379C38.6541 48.6657 36.9055 48.6895 35.274 48.3594C34.478 48.1983 33.6507 47.7899 32.8268 47.4746C33.2152 46.5873 32.6532 45.2665 31.5318 45.3821C31.0403 45.4327 30.5522 45.503 30.0663 45.5866C30.0216 45.4954 29.9681 45.4053 29.8952 45.3194C28.7517 43.9708 27.3455 43.1926 26.4198 41.5954C25.4322 39.8916 24.7425 37.6996 23.356 36.2862C23.3353 36.2652 23.3121 36.256 23.289 36.2471C23.4494 36.2369 23.6087 36.219 23.7647 36.1842C24.4091 36.0407 24.8198 35.3372 24.7257 34.712C24.6487 34.1998 24.3439 33.8538 23.9194 33.6766C23.8851 33.5731 23.845 33.4697 23.7915 33.3659C23.566 32.9271 23.2515 32.5144 22.9873 32.0976C22.447 31.2455 20.918 31.7769 21.2845 32.8154C21.3814 33.09 21.475 33.3664 21.5709 33.6424C21.5468 33.6411 21.5231 33.6418 21.499 33.6398C20.8897 33.5904 20.255 33.5025 19.6548 33.3912C19.3518 33.335 19.1285 33.6183 19.2651 33.8981C19.923 35.2447 21.5913 36.2885 23.1479 36.2558C23.1013 36.2796 23.0599 36.3174 23.039 36.3703C22.2355 38.3844 23.5317 44.1782 25.9112 46.5177C23.9974 46.9844 22.0759 47.4184 20.0826 47.4726C18.3253 47.5204 16.7897 47.0442 15.7014 45.5915C15.1419 44.8448 14.8465 43.8409 14.1643 43.2422C14.1441 43.1998 14.1282 43.1555 14.0998 43.1174C14.0832 43.0949 14.064 43.0768 14.0469 43.0553C14.4538 42.8208 14.7716 42.4114 14.8931 41.7941C15.3526 39.4574 14.7028 37.4702 13.9316 35.28C13.2596 33.3718 12.889 30.7297 11.5314 29.1962C11.3752 29.0195 11.1062 29.0934 10.9896 29.266C8.72876 32.6128 11.6145 37.1245 10.8571 40.6812C10.6589 41.6118 11.0404 42.3511 11.6383 42.8039C11.4089 42.9919 11.2164 43.2433 11.0901 43.5575C10.8354 44.1907 10.9336 44.7384 10.3403 45.2253C10.2352 45.3115 10.1163 45.3857 9.99226 45.4547C10.6459 44.8543 11.0456 44.0846 10.9614 43.0681C10.9164 42.5244 10.3797 42.1606 9.87105 42.4424C9.42866 42.6873 9.02028 42.8477 8.6656 43.2246C8.30171 43.6112 8.0125 44.0199 7.60258 44.3671C6.74158 45.0967 5.77958 45.3693 4.73318 45.7201C4.19132 45.9017 4.1949 46.6346 4.73318 46.8182C5.7269 47.1573 6.8564 47.0192 7.86725 46.664C7.8762 46.8719 7.98974 47.0642 8.24316 47.1077C9.42815 47.3117 10.5807 47.3455 11.6524 46.7006C12.0725 46.4476 12.4193 46.1231 12.6804 45.7155C12.9031 46.3487 13.2327 46.957 13.5332 47.4483C14.5348 49.0872 16.018 50.3228 17.9256 50.7013C20.1527 51.1431 22.5595 50.8273 24.7638 50.3906C26.9202 49.9633 29.215 49.4278 31.2695 48.545C31.7336 49.1892 32.4455 49.7226 33.0449 50.12C34.548 51.1163 36.4222 51.6351 38.2112 51.6571C41.5309 51.698 45.9453 49.9617 47.3461 46.7146C47.4088 46.5694 47.452 46.4298 47.4824 46.2929C47.5044 46.3019 47.5239 46.3157 47.5469 46.3226C48.4808 46.6082 49.5274 46.9218 50.514 46.8673C51.5957 46.8074 52.8551 46.1536 52.7957 44.9082C52.7627 44.2344 52.2557 43.6851 51.5611 43.6747Z" fill="#E0DFE6"/>
<path d="M53.1894 37.6653C53.0871 37.239 52.6632 37.094 52.2768 37.1472C51.0857 37.3106 50.4538 38.3611 49.4905 38.9794C48.4518 39.6461 47.2854 39.9026 46.1204 40.2406C45.6798 40.3685 45.5269 41.0597 45.9843 41.2814C48.2341 42.3705 53.9873 40.9912 53.1894 37.6653Z" fill="#E0DFE6"/>
<path d="M54.5902 31.2996C54.5158 30.647 53.8979 30.19 53.2661 30.5399C52.2654 31.0937 51.5413 31.9724 50.5056 32.4754C49.1631 33.1275 47.7101 33.2093 46.2886 33.5839C45.669 33.7473 45.6595 34.6894 46.2886 34.8484C48.7997 35.4829 55.0448 35.2852 54.5902 31.2996Z" fill="#E0DFE6"/>
<path d="M52.3794 26.6743C52.0636 25.6788 50.7897 25.975 50.1059 26.3048C48.9406 26.8672 47.8683 27.5555 46.6291 27.9501C45.6679 28.2562 46.066 29.6315 47.0419 29.4476C48.2407 29.2213 53.0574 28.8111 52.3794 26.6743Z" fill="#E0DFE6"/>
<path d="M42.3206 34.7868C42.2405 34.1946 41.8452 33.7126 41.2611 33.5573C40.2539 33.2896 39.3292 34.1644 38.682 34.8119C37.9031 35.5913 37.195 36.4728 36.48 37.3097C35.8993 37.9894 35.4351 39.1166 34.7296 39.6186C34.3312 39.9019 34.1645 40.4929 34.5685 40.868C35.9412 42.1428 37.6939 40.4891 38.7132 39.5429C39.857 38.4814 42.561 36.5633 42.3206 34.7868Z" fill="#E0DFE6"/>
<path d="M44.1155 25.3092C39.7208 22.8228 34.855 25.0253 31.2302 27.84C29.6545 29.0636 28.5669 30.6076 28.2797 32.6137C28.0105 34.4953 28.2061 37.2972 29.5639 38.7492C29.6851 38.8788 29.8874 38.8034 29.9388 38.6502C30.4469 37.1371 29.8688 35.4144 30.0314 33.8335C30.2413 31.7942 31.1463 30.3944 32.819 29.2365C34.2308 28.2591 35.7996 27.2946 37.459 26.8177C39.5236 26.2241 41.3011 26.6448 43.2246 27.4222C44.4538 27.9188 45.2325 25.9411 44.1155 25.3092Z" fill="#E0DFE6"/>
<path d="M33.048 18.2393C32.2854 18.1913 31.5464 18.4503 30.7867 18.4833C30.0645 18.5147 29.3498 18.435 28.6287 18.4981C28.3949 18.5186 28.1794 18.7254 28.1916 18.9548C26.8783 19.6511 26.2825 21.3762 25.7117 22.651C25.3309 23.5015 24.9568 24.3717 24.4952 25.1815C24.0608 25.9436 23.5422 26.668 23.5772 27.5735C23.5772 27.5761 23.578 27.5784 23.5782 27.5812C23.1108 28.074 22.674 28.6 22.1754 29.0899C21.2067 30.0409 20.0839 30.9457 18.8851 31.5834C18.5849 31.743 18.7201 32.2388 19.0592 32.2265C21.5747 32.1347 24.9466 30.8019 25.7899 28.2187C26.9711 27.5308 27.6945 25.8377 28.0858 24.6752C28.332 23.9441 28.6389 23.0875 28.8731 22.2096C28.9534 22.2781 29.0457 22.3364 29.1531 22.3796C29.5224 22.5282 30.0461 22.4881 30.322 22.1585C30.4987 21.9475 30.6629 21.7278 30.7258 21.4532C30.7828 21.2044 30.7731 21.0642 30.8033 20.8742C30.8046 20.8661 30.8051 20.8586 30.8063 20.8505C31.7014 21.1192 32.6467 21.1658 33.4057 20.8829C34.8206 20.3554 34.6096 18.3378 33.048 18.2393Z" fill="#E0DFE6"/>
<path d="M3.61654 48.4563C3.49635 48.4563 3.37795 48.4172 3.28053 48.3425C3.14295 48.2369 3.06265 48.0725 3.06444 47.8989C3.06623 47.7112 3.067 47.5237 3.067 47.3363C3.067 44.1012 2.82484 40.8321 2.59086 37.6704C2.4364 35.5861 2.27658 33.4304 2.18836 31.3082C2.17583 31.0034 2.41262 30.7464 2.71718 30.7333C3.03146 30.718 3.27899 30.9574 3.29203 31.2622C3.37949 33.3667 3.53854 35.513 3.69197 37.5886C3.92391 40.7168 4.16326 43.9493 4.17119 47.1703C6.92731 46.3551 8.97126 45.4478 10.684 44.2812C10.0284 39.2871 9.66348 33.8549 9.57091 27.7051C8.37109 27.7709 7.17101 27.8044 5.99471 27.8044C4.24202 27.8044 2.51516 27.7343 0.714915 27.5901C0.411123 27.5655 0.184301 27.2996 0.20885 26.9955C0.233399 26.6922 0.497555 26.47 0.803393 26.4895C2.57372 26.6311 4.27194 26.7002 5.99496 26.7002C7.33722 26.7002 8.7117 26.6559 10.0803 26.569C10.2286 26.5583 10.3792 26.6122 10.4905 26.7153C10.6015 26.8181 10.6656 26.9618 10.6674 27.1132C10.7464 33.5951 11.1247 39.272 11.823 44.4687C11.8504 44.6717 11.7629 44.8735 11.5962 44.9921C9.5791 46.4275 7.16385 47.4895 3.76537 48.4364C3.71576 48.4494 3.66615 48.4563 3.61654 48.4563Z" fill="url(#paint0_linear_2692_167236)"/>
<path d="M12.2166 27.1674C12.0279 27.1674 11.8435 27.0702 11.7407 26.8956C11.5857 26.6332 11.6732 26.2946 11.9358 26.1397C14.8761 24.4057 16.8377 21.8349 18.9143 19.1133C20.5919 16.9149 22.3261 14.6419 24.6145 12.8769C28.1166 10.175 32.4124 10.0538 36.5665 9.93616L37.5272 9.90803C37.6346 9.90445 37.7446 9.89934 37.8561 9.89448C38.0844 9.88451 38.3179 9.87402 38.5499 9.87402C40.3941 9.87402 41.4517 10.8355 41.4517 12.5117C41.4517 12.9956 41.362 13.4574 41.2615 13.9271C40.4792 17.5905 38.5614 17.8516 34.7402 18.3718C33.4404 18.5487 31.823 18.7689 29.8956 19.1637C28.6618 19.4179 27.6016 19.1185 26.9175 18.3204C26.7191 18.0889 26.7457 17.7401 26.9771 17.5417C27.209 17.3435 27.5568 17.3706 27.7558 17.6013C28.1813 18.0984 28.829 18.2559 29.6739 18.0815C31.6376 17.6795 33.2754 17.4568 34.5913 17.2775C38.4095 16.7582 39.5617 16.6012 40.1818 13.6967C40.2693 13.2873 40.3475 12.8879 40.3475 12.5117C40.3475 11.7978 40.1435 10.9785 38.5499 10.9785C38.3345 10.9785 38.1177 10.9884 37.9057 10.9979C37.7896 11.0033 37.675 11.0084 37.5628 11.012L36.5977 11.0403C32.4367 11.158 28.5071 11.2687 25.2889 13.7512C23.116 15.4272 21.4263 17.6417 19.7922 19.7833C17.7427 22.4694 15.623 25.2472 12.4966 27.091C12.4084 27.1431 12.312 27.1674 12.2166 27.1674Z" fill="url(#paint1_linear_2692_167236)"/>
<path d="M38.0598 48.8265C37.9831 48.8265 37.9067 48.8257 37.8297 48.8247C30.0219 48.6955 23.7182 42.0837 23.7778 34.0856C23.8046 30.2036 25.3021 26.6059 27.994 23.9562C30.7555 21.2369 34.5839 19.6992 38.4682 19.7309C39.2515 19.7373 40.0375 19.8079 40.805 19.9401C43.4759 20.4017 45.939 21.5056 47.9274 23.1325C48.1632 23.3256 48.1982 23.6733 48.0052 23.9096C47.8121 24.1454 47.4646 24.1799 47.2281 23.9874C45.3869 22.4809 43.1008 21.4576 40.6175 21.0287C39.9092 20.9062 39.1829 20.841 38.4595 20.8354C34.8449 20.7988 31.323 22.2283 28.7689 24.7433C26.2871 27.1861 24.907 30.5069 24.8822 34.0938C24.827 41.4886 30.6433 47.6018 37.8478 47.7207C40.6906 47.7652 43.4015 46.9035 45.7239 45.226C45.971 45.047 46.3159 45.1024 46.4947 45.3502C46.6734 45.5973 46.6177 45.9422 46.3704 46.121C43.9163 47.8933 41.0471 48.8265 38.0598 48.8265Z" fill="url(#paint2_linear_2692_167236)"/>
<path d="M38.1197 45.4118C38.0603 45.4118 38.001 45.411 37.9417 45.4102C31.9638 45.3115 27.1381 40.2509 27.1839 34.1298C27.2046 31.1586 28.351 28.4045 30.4121 26.3754C32.5028 24.3171 35.385 23.1416 38.3317 23.1416C38.3641 23.1416 38.3956 23.1416 38.4275 23.1419C39.0267 23.147 39.6284 23.2009 40.216 23.3022C41.298 23.4894 42.3408 23.8154 43.3148 24.2719C43.5912 24.4013 43.7102 24.7299 43.5808 25.0058C43.4514 25.282 43.1217 25.4011 42.8469 25.2717C41.9613 24.857 41.0128 24.5603 40.0281 24.3903C39.4993 24.2987 38.9577 24.2501 38.4181 24.2458C38.3894 24.2455 38.3603 24.2455 38.3314 24.2455C35.6719 24.2455 33.0723 25.3055 31.1864 27.162C29.336 28.984 28.3065 31.4614 28.2878 34.1374C28.2464 39.6553 32.5849 44.217 37.9591 44.3058C39.4921 44.3352 40.954 44.0074 42.3214 43.3476C42.5952 43.2146 42.9259 43.33 43.0586 43.6046C43.1913 43.8792 43.0762 44.2091 42.8016 44.3418C41.3315 45.052 39.7568 45.4118 38.1197 45.4118Z" fill="url(#paint3_linear_2692_167236)"/>
<path d="M48.5402 29.861C46.075 29.861 44.4336 29.2258 44.4336 26.1267C44.4336 24.0529 46.3149 22.8149 49.4659 22.8149C52.828 22.8149 53.5847 24.7006 53.5847 25.3611C53.5847 25.4435 53.5801 25.5253 53.5752 25.6051C53.5719 25.6585 53.5683 25.7104 53.5683 25.7598C53.5683 25.7605 53.5693 25.7963 53.5693 25.7971C53.5837 26.0002 53.5931 26.2111 53.5931 26.4234C53.5934 28.5456 52.7477 29.861 48.5402 29.861ZM49.4659 23.9189C48.5442 23.9189 45.5378 24.0782 45.5378 26.1265C45.5378 28.1911 46.1835 28.7565 48.5402 28.7565C52.4889 28.7565 52.4889 27.6232 52.4889 26.4231C52.4889 26.2377 52.4802 26.0528 52.4682 25.8754C52.4654 25.838 52.4641 25.7992 52.4641 25.7595C52.4641 25.6895 52.4682 25.615 52.4728 25.5386C52.4764 25.4808 52.4805 25.4207 52.4805 25.3611C52.4721 25.0755 51.9103 23.9189 49.4659 23.9189Z" fill="url(#paint4_linear_2692_167236)"/>
<path d="M48.3836 35.8085C45.1007 35.8085 43.6367 34.8628 43.6367 32.7422C43.6367 30.0241 46.5465 28.9171 49.2691 28.788C49.5827 28.7706 49.8325 29.0089 49.8468 29.3132C49.8616 29.6178 49.6261 29.8766 49.3216 29.8909C48.5567 29.9272 44.7407 30.2356 44.7407 32.7424C44.7407 33.4763 44.7406 34.7045 48.3833 34.7045C49.9174 34.7045 53.8984 34.2604 53.8984 32.2307C53.8984 31.2278 53.2241 30.017 52.3869 30.017C52.082 30.017 51.8348 29.7697 51.8348 29.4649C51.8348 29.1601 52.082 28.9128 52.3869 28.9128C53.9281 28.9128 55.0026 30.6614 55.0026 32.2307C55.0028 35.0551 50.8423 35.8085 48.3836 35.8085Z" fill="url(#paint5_linear_2692_167236)"/>
<path d="M47.6763 42.349C45.7011 42.349 43.3945 41.5632 43.3945 39.3487C43.3945 35.8592 47.8179 35.3797 50.4608 35.0936L50.8336 35.0527C51.0801 35.0253 51.32 35.0112 51.5455 35.0112C53.9283 35.0112 54.2497 36.4721 54.2497 37.9011C54.2497 41.532 49.3814 42.349 47.6763 42.349ZM51.5458 36.1157C51.3606 36.1157 51.1622 36.1272 50.9558 36.1504L50.5799 36.1914C47.375 36.5386 44.4987 37.0411 44.4987 39.3487C44.4987 41.1536 47.1456 41.2448 47.6763 41.2448C48.8316 41.2448 53.1455 40.6774 53.1455 37.9013C53.1455 36.466 52.8315 36.1157 51.5458 36.1157Z" fill="url(#paint6_linear_2692_167236)"/>
<path d="M48.9785 47.1701C47.8488 47.1701 45.2031 47.1701 45.2031 44.4877C45.2031 43.2827 46.0104 42.0082 47.2118 41.3155C47.4757 41.1636 47.8132 41.2536 47.9659 41.5183C48.118 41.7824 48.0273 42.12 47.7631 42.2724C46.9059 42.7662 46.3073 43.6776 46.3073 44.4877C46.3073 45.5113 46.7328 46.066 48.9783 46.066C50.5742 46.066 52.1845 45.3098 52.1845 43.6205C52.1845 42.9904 51.9216 42.2046 51.1846 41.8888C50.9043 41.7686 50.7744 41.4441 50.8946 41.1639C51.0146 40.8839 51.3401 40.7537 51.6196 40.8739C52.8519 41.4019 53.2889 42.6836 53.2889 43.6208C53.2892 45.7105 51.5165 47.1701 48.9785 47.1701Z" fill="url(#paint7_linear_2692_167236)"/>
<path d="M38.4074 36.0886C38.3854 36.0886 38.3637 36.0883 38.3417 36.0878C37.1399 36.0579 35.8163 35.0775 35.7746 33.5452C35.7426 32.4047 36.385 31.3841 37.4104 30.9451C37.4107 30.9451 37.4107 30.9451 37.4107 30.9451C37.6968 30.8226 37.9973 30.7556 38.3041 30.7464C38.9882 30.7154 39.7042 31.007 40.2519 31.522C40.7774 32.0163 41.0899 32.6607 41.1086 33.2905C41.1313 34.0505 40.8534 34.7604 40.3263 35.2897C39.819 35.7996 39.1227 36.0886 38.4074 36.0886ZM37.8449 31.96C37.2291 32.2239 36.8588 32.8195 36.878 33.5145C36.9051 34.4921 37.7835 34.9693 38.3691 34.9836C38.8007 34.9931 39.2337 34.8223 39.5438 34.5105C39.8548 34.198 40.0187 33.7766 40.0054 33.323C39.9954 32.9895 39.8049 32.6169 39.496 32.3267C39.16 32.0106 38.7381 31.8391 38.3389 31.8498C38.1699 31.8552 38.0037 31.892 37.8449 31.96Z" fill="url(#paint8_linear_2692_167236)"/>
<path d="M33.2244 41.2493C33.0748 41.2493 32.9562 41.1907 32.8309 41.1012C32.2752 40.7054 32.5475 40.0655 33.3564 38.1656C33.9422 36.7883 34.7452 34.9018 35.4016 32.6858C35.4885 32.3933 35.7977 32.2276 36.0877 32.313C36.3802 32.3997 36.547 32.707 36.4605 32.9991C35.7859 35.2757 34.9689 37.1956 34.3721 38.5977C34.2284 38.936 34.0821 39.279 33.9593 39.5815C35.0147 38.7386 36.9198 37.0151 39.1688 34.9798C39.3946 34.7758 39.7439 34.7921 39.9488 35.0187C40.1533 35.2448 40.1359 35.5941 39.9099 35.7986C35.085 40.1645 33.8678 41.249 33.2244 41.2493Z" fill="url(#paint9_linear_2692_167236)"/>
<path d="M17.6622 33.5058C17.5507 33.5058 17.4389 33.504 17.3264 33.4994C17.0216 33.4869 16.7848 33.2299 16.7974 32.9251C16.8099 32.6205 17.0702 32.3791 17.3717 32.396C20.1247 32.507 22.4822 31.0865 24.42 29.7023C24.6683 29.5253 25.0128 29.5829 25.1902 29.8306C25.3675 30.0789 25.3099 30.4237 25.0619 30.6009C23.1683 31.9534 20.6155 33.5058 17.6622 33.5058Z" fill="url(#paint10_linear_2692_167236)"/>
<path d="M29.3451 23.4171C29.0402 23.4171 28.793 23.1698 28.793 22.865C28.793 21.0141 29.5614 19.3123 30.9019 18.1958C31.1364 18.0007 31.4841 18.0322 31.6792 18.2667C31.8744 18.5009 31.8429 18.8489 31.6084 19.044C30.5209 19.9503 29.8972 21.3429 29.8972 22.865C29.8974 23.1695 29.6501 23.4171 29.3451 23.4171Z" fill="url(#paint11_linear_2692_167236)"/>
<path d="M34.2246 20.8717C34.1742 20.8717 34.1233 20.8648 34.0722 20.8504C33.7791 20.7663 33.6096 20.4607 33.6932 20.1674C33.7712 19.8948 33.8047 19.6227 33.8047 19.2581C33.8047 19.0957 33.7986 18.9336 33.7924 18.7679C33.7853 18.5825 33.7784 18.3932 33.7784 18.1971C33.7784 17.8923 34.0256 17.645 34.3305 17.645C34.6353 17.645 34.8826 17.8923 34.8826 18.1971C34.8826 18.3789 34.8895 18.5549 34.8956 18.727C34.9025 18.9062 34.9089 19.0821 34.9089 19.2583C34.9089 19.5729 34.8912 19.9951 34.755 20.4717C34.6857 20.7139 34.4647 20.8717 34.2246 20.8717Z" fill="url(#paint12_linear_2692_167236)"/>
<path d="M38.6849 20.5521C38.3801 20.5521 38.1328 20.3048 38.1328 20V17.5589C38.1328 17.2541 38.3801 17.0068 38.6849 17.0068C38.9897 17.0068 39.237 17.2541 39.237 17.5589V20C39.237 20.3048 38.9897 20.5521 38.6849 20.5521Z" fill="url(#paint13_linear_2692_167236)"/>
<path d="M19.6709 47.7137C15.0542 47.7137 14.3645 45.6754 14.1584 42.5096C13.0338 42.6434 12.0403 42.7444 11.0251 42.8027C10.7142 42.8193 10.4595 42.5874 10.4423 42.2833C10.4247 41.9788 10.6574 41.7179 10.9617 41.7006C12.1196 41.6338 13.257 41.5093 14.609 41.3428C14.7632 41.3231 14.9148 41.3699 15.032 41.4684C15.1496 41.5671 15.2207 41.7105 15.2278 41.8642C15.3979 45.3796 15.8027 46.6096 19.6707 46.6096C21.1993 46.6096 22.6628 46.3881 24.2122 46.1534C25.3778 45.9769 26.5832 45.7943 27.8091 45.7176C28.1208 45.6989 28.3755 45.9301 28.3947 46.2342C28.4136 46.5387 28.1827 46.8006 27.8782 46.8198C26.7006 46.8934 25.5194 47.0721 24.3774 47.245C22.8561 47.4754 21.2827 47.7137 19.6709 47.7137Z" fill="url(#paint14_linear_2692_167236)"/>
<path d="M22.8721 10.576C22.8013 10.576 22.7294 10.5624 22.6601 10.5335C22.3786 10.4164 22.2456 10.0929 22.363 9.81139C23.0389 8.18988 24.1796 7.06013 25.5758 6.63078C25.8676 6.54179 26.1765 6.70442 26.266 6.99594C26.3558 7.28746 26.1924 7.59662 25.9008 7.68612C24.4476 8.13337 23.6994 9.47589 23.3825 10.2364C23.2938 10.4484 23.0885 10.576 22.8721 10.576Z" fill="url(#paint15_linear_2692_167236)"/>
<path d="M19.7948 9.19521C19.7547 9.19521 19.7132 9.19086 19.6723 9.18166C19.3747 9.11415 19.1885 8.81828 19.256 8.52088C19.7258 6.45341 21.6114 4.99326 24.8606 4.18059C25.1572 4.10695 25.4566 4.28621 25.5303 4.58207C25.6042 4.87794 25.4247 5.17764 25.1288 5.25179C22.3164 5.95527 20.7029 7.13745 20.3331 8.76535C20.2745 9.02158 20.0472 9.19521 19.7948 9.19521Z" fill="url(#paint16_linear_2692_167236)"/>
<path d="M43.9988 10.0449C43.8116 10.0449 43.6285 9.94921 43.5249 9.7766C42.8565 8.6627 42.2177 7.71194 41.1705 7.36289C40.8811 7.26648 40.7251 6.95374 40.8215 6.66453C40.9174 6.37557 41.2306 6.21804 41.5198 6.31547C43.0396 6.82179 43.8673 8.20139 44.4716 9.20866C44.6286 9.47 44.544 9.80934 44.2821 9.96609C44.1934 10.0198 44.0954 10.0449 43.9988 10.0449Z" fill="url(#paint17_linear_2692_167236)"/>
<path d="M47.185 9.62206C46.9679 9.62206 46.7621 9.49343 46.6744 9.28016C46.0044 7.65304 45.012 5.69833 43.27 5.02119C42.9862 4.91047 42.8453 4.59057 42.9555 4.30621C43.0665 4.02185 43.3871 3.88146 43.6705 3.99168C45.8026 4.82122 46.9413 7.02909 47.6952 8.85977C47.8113 9.14182 47.6768 9.46428 47.395 9.58038C47.3262 9.60876 47.2546 9.62206 47.185 9.62206Z" fill="url(#paint18_linear_2692_167236)"/>
</g>
<defs>
<linearGradient id="paint0_linear_2692_167236" x1="1.17544" y1="26.4883" x2="11.0532" y2="26.4883" gradientUnits="userSpaceOnUse">
<stop stop-color="#DC2430"/>
<stop offset="1" stop-color="#7B4397"/>
</linearGradient>
<linearGradient id="paint1_linear_2692_167236" x1="14.1464" y1="9.87402" x2="39.4659" y2="9.87402" gradientUnits="userSpaceOnUse">
<stop stop-color="#DC2430"/>
<stop offset="1" stop-color="#7B4397"/>
</linearGradient>
<linearGradient id="paint2_linear_2692_167236" x1="25.8067" y1="19.7305" x2="46.5064" y2="19.7305" gradientUnits="userSpaceOnUse">
<stop stop-color="#DC2430"/>
<stop offset="1" stop-color="#7B4397"/>
</linearGradient>
<linearGradient id="paint3_linear_2692_167236" x1="28.5544" y1="23.1416" x2="42.5364" y2="23.1416" gradientUnits="userSpaceOnUse">
<stop stop-color="#DC2430"/>
<stop offset="1" stop-color="#7B4397"/>
</linearGradient>
<linearGradient id="paint4_linear_2692_167236" x1="45.1969" y1="22.8149" x2="52.9825" y2="22.8149" gradientUnits="userSpaceOnUse">
<stop stop-color="#DC2430"/>
<stop offset="1" stop-color="#7B4397"/>
</linearGradient>
<linearGradient id="paint5_linear_2692_167236" x1="44.5839" y1="28.7871" x2="54.2449" y2="28.7871" gradientUnits="userSpaceOnUse">
<stop stop-color="#DC2430"/>
<stop offset="1" stop-color="#7B4397"/>
</linearGradient>
<linearGradient id="paint6_linear_2692_167236" x1="44.2991" y1="35.0112" x2="53.526" y2="35.0112" gradientUnits="userSpaceOnUse">
<stop stop-color="#DC2430"/>
<stop offset="1" stop-color="#7B4397"/>
</linearGradient>
<linearGradient id="paint7_linear_2692_167236" x1="45.8769" y1="40.8291" x2="52.7498" y2="40.8291" gradientUnits="userSpaceOnUse">
<stop stop-color="#DC2430"/>
<stop offset="1" stop-color="#7B4397"/>
</linearGradient>
<linearGradient id="paint8_linear_2692_167236" x1="36.2181" y1="30.7441" x2="40.7541" y2="30.7441" gradientUnits="userSpaceOnUse">
<stop stop-color="#DC2430"/>
<stop offset="1" stop-color="#7B4397"/>
</linearGradient>
<linearGradient id="paint9_linear_2692_167236" x1="33.1684" y1="32.2905" x2="39.588" y2="32.2905" gradientUnits="userSpaceOnUse">
<stop stop-color="#DC2430"/>
<stop offset="1" stop-color="#7B4397"/>
</linearGradient>
<linearGradient id="paint10_linear_2692_167236" x1="17.5049" y1="29.5996" x2="24.7267" y2="29.5996" gradientUnits="userSpaceOnUse">
<stop stop-color="#DC2430"/>
<stop offset="1" stop-color="#7B4397"/>
</linearGradient>
<linearGradient id="paint11_linear_2692_167236" x1="29.0442" y1="18.0679" x2="31.6063" y2="18.0679" gradientUnits="userSpaceOnUse">
<stop stop-color="#DC2430"/>
<stop offset="1" stop-color="#7B4397"/>
</linearGradient>
<linearGradient id="paint12_linear_2692_167236" x1="33.775" y1="17.645" x2="34.8264" y2="17.645" gradientUnits="userSpaceOnUse">
<stop stop-color="#DC2430"/>
<stop offset="1" stop-color="#7B4397"/>
</linearGradient>
<linearGradient id="paint13_linear_2692_167236" x1="38.2248" y1="17.0068" x2="39.1634" y2="17.0068" gradientUnits="userSpaceOnUse">
<stop stop-color="#DC2430"/>
<stop offset="1" stop-color="#7B4397"/>
</linearGradient>
<linearGradient id="paint14_linear_2692_167236" x1="11.9376" y1="41.3384" x2="27.1988" y2="41.3384" gradientUnits="userSpaceOnUse">
<stop stop-color="#DC2430"/>
<stop offset="1" stop-color="#7B4397"/>
</linearGradient>
<linearGradient id="paint15_linear_2692_167236" x1="22.6512" y1="6.60645" x2="26.0259" y2="6.60645" gradientUnits="userSpaceOnUse">
<stop stop-color="#DC2430"/>
<stop offset="1" stop-color="#7B4397"/>
</linearGradient>
<linearGradient id="paint16_linear_2692_167236" x1="19.7676" y1="4.16406" x2="25.1266" y2="4.16406" gradientUnits="userSpaceOnUse">
<stop stop-color="#DC2430"/>
<stop offset="1" stop-color="#7B4397"/>
</linearGradient>
<linearGradient id="paint17_linear_2692_167236" x1="41.1061" y1="6.28662" x2="44.3" y2="6.28662" gradientUnits="userSpaceOnUse">
<stop stop-color="#DC2430"/>
<stop offset="1" stop-color="#7B4397"/>
</linearGradient>
<linearGradient id="paint18_linear_2692_167236" x1="43.3195" y1="3.9541" x2="47.4157" y2="3.9541" gradientUnits="userSpaceOnUse">
<stop stop-color="#DC2430"/>
<stop offset="1" stop-color="#7B4397"/>
</linearGradient>
<clipPath id="clip0_2692_167236">
<rect width="55" height="55" fill="white"/>
</clipPath>
</defs>
</svg>
