<svg width="55" height="55" viewBox="0 0 55 55" fill="none" xmlns="http://www.w3.org/2000/svg">
<path d="M9.80007 9.63244C9.66823 9.97728 9.56848 10.3071 9.36011 10.6178C9.33804 10.6667 9.30852 10.7098 9.27957 10.7531C9.02878 10.6364 8.29962 10.6447 8.10672 10.6231C7.60399 10.5664 7.17894 10.5883 6.67678 10.6556C5.52228 10.8106 5.08604 12.5676 5.96826 13.2576C7.23597 14.2493 9.22483 15.0401 10.8336 14.4802C12.3263 13.9606 13.4562 12.1314 13.7116 10.6778C14.1498 8.18584 10.715 7.2408 9.80007 9.63244Z" fill="#E0DFE6"/>
<path d="M11.6854 44.2135C10.7692 43.7516 9.84433 44.079 9.25158 44.7977C9.02996 45.0663 8.93038 45.4153 8.82406 45.7416C8.76543 45.7637 8.69838 45.7961 8.73794 45.7956C8.48827 45.8392 8.31462 45.8159 8.05121 45.7614C7.82006 45.7137 7.58918 45.65 7.36448 45.5804C7.05058 45.4833 6.54703 45.0899 7.23432 45.5971C6.59893 45.1282 5.75427 45.0386 5.12449 45.5971C4.02539 46.5716 4.79347 47.8085 5.78064 48.4905C6.7995 49.1943 8.0571 49.5972 9.34359 49.4791C10.5717 49.3664 11.7348 48.6908 12.3606 47.7045C13.0771 46.5744 13.0827 44.9179 11.6854 44.2135Z" fill="#E0DFE6"/>
<path d="M9.83597 26.6039C9.75445 24.6989 10.3037 21.8701 8.6828 20.4986C8.19677 20.0874 7.4405 20.0241 6.9601 20.4986C6.16942 21.2797 6.07351 21.928 6.0941 22.8213C5.04587 24.0759 4.85659 25.802 4.79115 27.3931C4.7446 28.5265 4.92203 29.545 4.1164 30.5035C3.43065 31.3191 2.56944 31.8497 2.01881 32.7823C1.99032 32.8305 1.97565 32.8779 1.96042 32.9253C1.10203 33.0129 0.687927 33.8065 1.04815 34.5456C2.41739 37.3541 8.47208 34.6221 9.54683 32.6979C10.4975 30.9968 9.91467 28.4397 9.83597 26.6039Z" fill="#E0DFE6"/>
<path d="M33.0913 3.01162C32.1127 2.38225 30.161 2.93393 29.9507 4.1576C29.9146 4.15524 29.8783 4.15289 29.8423 4.15053C29.3854 4.05087 28.8341 4.08357 28.3652 4.05846C27.2572 3.99934 26.1498 3.97135 25.0401 4.00379C24.0072 4.03387 22.9753 4.11313 21.953 4.25961C21.4681 4.32919 20.9946 4.41264 20.5183 4.52433C20.234 4.60254 19.9492 4.6784 19.6638 4.75269C19.1595 4.20703 18.1255 4.05244 17.7395 4.8411C17.2646 5.8113 17.2449 6.92014 18.1662 7.68735C19.4917 8.79122 21.6781 7.9471 23.2048 7.84325C25.4158 7.69311 27.6349 7.86758 29.8423 7.98921C31.3468 8.07214 32.569 7.86026 33.3218 6.51103C33.9283 5.42416 34.3758 3.83768 33.0913 3.01162Z" fill="#E0DFE6"/>
<path d="M43.7254 8.53007C43.3991 8.72262 43.1897 8.90437 42.9656 9.02158C43.1471 8.92676 42.7775 9.02422 42.8133 9.04476C42.5212 9.05003 42.2815 8.93308 41.9015 8.74369C40.7248 8.15761 39.0164 9.14275 39.5031 10.478C40.5075 13.2327 44.906 13.7239 46.4912 11.132C47.4756 9.52259 45.4716 7.49936 43.7254 8.53007Z" fill="#E0DFE6"/>
<path d="M54.0685 25.9407C53.986 23.7183 53.7844 20.9124 52.4208 19.0898C51.5121 17.8752 49.2501 18.0969 49.3192 19.9415C49.3783 21.5184 49.9457 23.0087 50.1116 24.5779C50.2943 26.3084 50.2361 28.0738 50.0211 29.798C49.9238 30.5773 49.7896 31.3515 49.6329 32.121C49.1181 32.0248 48.5607 32.0935 48.0562 32.1933C47.4154 32.3199 47.0177 32.5868 46.5837 32.9825C46.3836 32.9754 46.18 32.9792 45.9677 33.0018C45.1515 33.0875 44.6681 33.8443 45.0517 34.6199C45.8777 36.2899 48.2533 37.5958 50.1035 37.5829C52.4311 37.5667 52.9041 35.1461 53.3186 33.3041C53.8581 30.9047 54.1598 28.4033 54.0685 25.9407Z" fill="#E0DFE6"/>
<path d="M38.8251 48.0172C38.468 47.8925 37.7235 47.7031 37.5225 47.3688C36.8602 46.2679 35.3148 46.7259 35.2553 48.0258C35.2381 48.4001 35.2443 48.7617 35.2777 49.1083C30.5219 50.9734 24.686 51.5402 20.0287 49.6268C19.2587 49.3104 18.2675 50.133 18.3397 51.0033C18.6618 54.8782 24.6971 54.9784 27.4215 54.9988C31.5766 55.0302 35.5864 53.9868 39.32 52.068C41.0271 51.1902 40.3917 48.5636 38.8251 48.0172Z" fill="#E0DFE6"/>
<path d="M47.1103 44.5724C46.7419 44.9162 46.4447 45.5145 45.8955 45.5542C45.3133 45.5966 44.7743 45.0054 44.2721 44.7833C43.5377 44.4589 42.3676 44.642 42.2082 45.6103C41.8581 47.7362 43.85 49.3629 45.885 49.4918C47.7245 49.6085 50.0944 48.398 50.3918 46.4537C50.6718 44.6235 48.6429 43.1421 47.1103 44.5724Z" fill="#E0DFE6"/>
<path d="M39.8047 27.4977C39.8213 27.4784 39.842 27.4637 39.8581 27.4435C40.5758 26.5268 40.2074 25.4721 39.3508 24.8253C38.5791 24.2425 37.8088 23.6537 37.0018 23.1194C36.2342 22.6113 35.467 22.0691 34.5216 22.0018C33.8877 21.9565 33.5522 22.605 33.6487 23.1308C33.8152 24.0358 34.5789 24.7865 35.1611 25.4702C35.7917 26.2108 36.4721 26.91 37.1478 27.6111C36.9722 27.797 36.8278 28.0236 36.7412 28.3038C36.5645 28.876 35.5348 29.7731 35.1102 30.2594C34.4613 31.0027 33.7558 31.7542 32.939 32.3242C32.6876 32.4995 32.4279 32.6524 32.1621 32.7882C34.5626 31.1649 36.2849 28.1124 34.8928 25.4271C34.6077 24.8773 33.8968 24.4837 33.2745 24.5123C33.1666 24.5172 33.0588 24.5224 32.9509 24.5273C32.7219 24.5379 32.4937 24.5998 32.2821 24.699C31.6457 24.602 30.9305 24.8228 30.5504 25.3947C30.0302 26.1778 29.8568 27.2145 29.1271 27.86C28.4329 28.4744 27.2707 28.3861 26.436 28.1528C25.4845 27.8864 25.1786 29.2202 26.0391 29.5716C26.6398 29.8169 27.0685 30.2585 27.5985 30.5734C26.072 30.6849 24.5513 30.2299 23.0298 30.0138C22.662 29.6087 22.0101 29.7076 21.8192 30.2525C21.3042 31.7229 22.8672 32.6644 24.0377 33.2257C24.4888 33.4421 24.9676 33.6149 25.4605 33.7491C23.6295 33.6959 21.8043 33.4836 20.0839 32.8239C18.4938 32.2141 17.1649 30.9258 15.541 30.4638C15.0797 30.3327 14.742 30.6887 14.6905 31.1022C14.3963 33.4721 17.0429 35.3511 18.9527 36.2141C21.6992 37.4552 24.8713 37.6599 27.8499 37.5612C30.7645 37.4648 33.5245 36.8274 35.8321 34.9932C37.5447 33.6321 40.2569 31.0918 40.3335 28.783C40.3523 28.2204 40.1357 27.7921 39.8047 27.4977Z" fill="#E0DFE6"/>
<path d="M2.75195 33.917C2.76487 34.0164 2.77203 34.0704 2.77503 34.094C2.77595 34.0351 2.77041 33.9762 2.75195 33.917Z" fill="#E0DFE6"/>
<path d="M2.75195 33.9839C2.75195 33.9839 2.75195 33.9844 2.75195 33.9846C2.75433 34.003 2.7541 34.0001 2.75195 33.9839Z" fill="#E0DFE6"/>
<path d="M2.64177 33.5895C2.59722 33.5081 2.53928 33.4354 2.47465 33.369C2.37124 33.2626 2.25952 33.1959 2.13002 33.1426C2.02961 33.075 1.91996 33.0301 1.79278 33.0128C1.81493 33.0158 1.83271 33.0181 1.86272 33.0223C1.8394 33.016 1.81609 33.0167 1.79278 33.0128C1.76 33.0083 1.73991 33.0055 1.7226 33.0032C1.65589 32.9983 1.5751 33.0004 1.49431 33.0223C1.22701 33.1232 1.02503 33.2906 0.946087 33.5867C0.886994 33.8094 0.926697 34.0297 1.01257 34.2362C1.15568 34.5801 1.45692 34.8291 1.83986 34.8329C2.09239 34.8355 2.33615 34.7576 2.51666 34.5712C2.60992 34.4748 2.68886 34.3396 2.72395 34.2072C2.72972 34.171 2.73457 34.1345 2.73872 34.098C2.74726 34.0599 2.74842 34.022 2.74888 33.9839C2.74657 33.9668 2.74288 33.938 2.73664 33.891C2.7318 33.783 2.70017 33.6826 2.64177 33.5895Z" fill="#E0DFE6"/>
<path d="M1.72647 33.0038C1.69117 32.999 1.68912 32.9985 1.72647 33.0038V33.0038Z" fill="#E0DFE6"/>
<path d="M36.4202 48.3783C35.2148 48.2438 34.0569 48.9975 32.8285 49.0964C31.3474 49.2156 29.8339 49.1441 28.3486 49.1507C26.8791 49.157 25.4114 49.2014 23.9424 49.2479C22.5838 49.2912 21.1375 49.12 19.8105 49.4003C19.3571 49.4959 19.295 50.0543 19.557 50.3581C20.4828 51.4316 21.9024 51.6672 23.264 51.836C25.3153 52.0905 27.4039 52.133 29.4672 52.2163C31.8472 52.3121 36.809 53.0453 37.6352 49.9696C37.8661 49.1099 37.2232 48.4679 36.4202 48.3783Z" fill="#E0DFE6"/>
<path d="M13.5808 11.8526C12.5586 13.2623 11.5444 14.4568 9.79691 14.9563C8.19414 15.4144 6.35848 15.0656 4.73072 14.862C3.81234 14.7473 3.56407 15.9558 4.04413 16.5161C7.68771 20.7704 14.9804 17.8673 16.6219 13.1319C17.281 11.231 14.6115 10.4312 13.5808 11.8526Z" fill="#E0DFE6"/>
<path d="M51.9353 9.78568C51.7257 9.31389 51.0477 9.22101 50.6423 9.44759C49.8788 9.87418 49.5926 10.4443 49.1392 11.1652C48.4548 12.2526 47.6718 13.1324 46.5371 13.7707C44.5416 14.8932 42.2799 14.2151 40.3416 15.1332C40.0719 15.2609 40.0101 15.6404 40.1455 15.8793C41.5887 18.4281 45.9795 17.4823 48.0489 16.3511C50.1375 15.2099 53.0725 12.3466 51.9353 9.78568Z" fill="#E0DFE6"/>
<path d="M54.3626 44.9085C54.0207 44.5071 53.3586 44.483 52.9255 44.7236C52.1609 45.1482 52.0054 45.6375 51.6737 46.394C51.1892 47.4992 50.509 48.4237 49.4662 49.0661C48.4473 49.6938 47.2595 49.936 46.0791 50.0023C45.1014 50.0571 44.1053 49.7881 43.1652 50.0681C42.8595 50.159 42.7354 50.4418 42.7835 50.7388C43.2926 53.8854 48.8686 52.9591 50.8155 51.9857C52.9752 50.9062 56.4309 47.3384 54.3626 44.9085Z" fill="#E0DFE6"/>
<path d="M15.8431 48.897C15.7499 48.185 15.1479 47.471 14.3301 47.7474C12.554 48.3474 11.7425 50.2376 9.80794 50.8209C7.81739 51.4212 6.56835 50.7286 4.72637 50.242C4.45476 50.1702 4.18095 50.3319 4.09965 50.5971C3.26971 53.3026 7.55237 54.1476 9.37375 53.9723C11.6746 53.7506 16.2185 51.7692 15.8431 48.897Z" fill="#E0DFE6"/>
<path d="M26.3233 34.7227C22.1185 34.7227 15.5944 31.1299 12.0761 26.8771C11.896 26.6591 11.8935 26.3444 12.0711 26.1236C15.0424 22.4309 19.7627 17.5215 26.4227 17.5215C33.0509 17.5215 37.8757 21.8201 40.7553 25.4263C40.9254 25.6389 40.9295 25.94 40.7652 26.1573C38.3473 29.3564 33.2558 34.7227 26.3233 34.7227ZM13.3118 26.4885C16.6512 30.2811 22.6108 33.531 26.3236 33.531C32.4848 33.531 37.1464 28.856 39.53 25.8084C36.7857 22.488 32.36 18.7136 26.423 18.7136C21.8517 18.7134 17.6765 21.1866 13.3118 26.4885Z" fill="url(#paint0_linear_2682_166933)"/>
<path d="M26.6419 31.8244C26.5809 31.8244 26.5201 31.8236 26.4588 31.8217C24.1046 31.7587 20.669 29.7382 20.6141 26.2498C20.5663 23.2157 22.7506 20.6183 25.5862 20.337C25.6845 20.3265 25.7875 20.3185 25.8916 20.3133C26.748 20.273 27.466 20.2608 28.2881 20.4991C31.0443 21.2965 32.8352 23.4509 32.8498 25.9876C32.8584 27.4552 32.2097 28.9364 31.0709 30.0515C29.8989 31.1987 28.3322 31.8244 26.6419 31.8244ZM25.951 21.5038C25.8695 21.5082 25.7883 21.514 25.708 21.5226C23.2218 21.7696 21.7731 24.1106 21.8065 26.2313C21.8512 29.078 24.8334 30.5862 26.4906 30.6306C27.9249 30.6621 29.2552 30.1603 30.2363 29.2C31.1327 28.3228 31.664 27.1245 31.6574 25.9947C31.6433 23.5693 29.6553 22.1353 27.9567 21.6437C27.3094 21.4569 26.7159 21.4682 25.951 21.5038Z" fill="url(#paint1_linear_2682_166933)"/>
<path d="M26.5693 28.3977C26.55 28.3977 26.5307 28.3977 26.5108 28.3974C25.1356 28.3651 24.369 27.2776 24.3463 26.2709C24.3242 25.3067 24.9063 24.4477 25.7958 24.1339C26.1258 24.0171 26.4558 23.9619 26.7842 23.9799C27.941 24.0315 28.8586 24.9802 28.8733 26.1395C28.881 26.7233 28.6388 27.3019 28.2091 27.7272C27.7701 28.1609 27.1899 28.3977 26.5693 28.3977ZM26.6773 25.1687C26.5216 25.1687 26.3589 25.1985 26.1938 25.2573C25.7978 25.397 25.5285 25.8028 25.539 26.2436C25.5473 26.6215 25.821 27.1887 26.5392 27.2055C26.8521 27.2188 27.1501 27.0973 27.3702 26.8795C27.5709 26.6808 27.6842 26.4166 27.6806 26.1547C27.6748 25.7012 27.3103 25.1961 26.7306 25.1701C26.7135 25.169 26.6955 25.1687 26.6773 25.1687Z" fill="url(#paint2_linear_2682_166933)"/>
<path d="M27.6086 52.6889C24.2986 52.6889 20.971 52.0747 17.8411 50.8445C17.5387 50.7258 17.3873 50.3871 17.5003 50.0824C18.1031 48.4613 18.6571 46.8233 19.1475 45.2135C19.1961 45.0532 19.3099 44.921 19.4612 44.8492C19.6131 44.7771 19.7874 44.7716 19.9417 44.8348C24.8076 46.8065 30.311 46.807 35.0393 44.8376C35.3428 44.7115 35.6921 44.8547 35.8192 45.1583L37.6763 49.6126C37.7981 49.6744 37.8994 49.7774 37.9569 49.9132C38.0844 50.2165 37.9422 50.5657 37.6385 50.6938C34.4795 52.0231 31.0536 52.6889 27.6086 52.6889ZM18.8222 49.9422C24.5494 52.0419 30.9152 52.014 36.4916 49.8704L34.944 46.1584C30.253 47.949 24.9103 47.9539 20.0989 46.1736C19.7073 47.4234 19.2795 48.6862 18.8222 49.9422Z" fill="url(#paint3_linear_2682_166933)"/>
<path d="M51.4718 34.7714C51.4094 34.7714 51.3462 34.7618 51.2835 34.7408C51.157 34.6988 51.0537 34.6182 50.983 34.5169L46.355 32.9958C46.0421 32.8928 45.872 32.556 45.975 32.2436C47.3298 28.1242 47.2044 23.5951 45.6221 19.4903C45.5611 19.3333 45.5702 19.1574 45.6467 19.007C45.7226 18.8566 45.859 18.7456 46.022 18.7012C47.9321 18.1817 49.5073 17.7168 50.9786 17.2388C51.2846 17.1399 51.611 17.2989 51.722 17.5984C53.7266 23 53.8387 28.9542 52.0377 34.364C51.9543 34.6133 51.7218 34.7714 51.4718 34.7714ZM47.2854 32.0465L51.1208 33.3074C52.5546 28.518 52.4411 23.326 50.7955 18.5488C49.6299 18.9187 48.3872 19.2847 46.9612 19.6786C48.3582 23.6837 48.4723 28.0292 47.2854 32.0465Z" fill="url(#paint4_linear_2682_166933)"/>
<path d="M18.9283 7.3726C18.8335 7.3726 18.7396 7.35025 18.6538 7.30581C18.5129 7.23238 18.4066 7.10624 18.3591 6.9547C17.9871 5.76696 17.6861 4.55189 17.3945 3.37712C17.2702 2.87668 17.1465 2.37679 17.0173 1.87939C16.9372 1.57052 17.1142 1.25364 17.4191 1.16007C22.5243 -0.409145 28.1195 -0.385683 33.1753 1.22631C33.3285 1.27517 33.4558 1.3842 33.5276 1.52829C33.5994 1.67265 33.6099 1.83992 33.5564 1.99146L31.8337 6.89066C31.7268 7.19484 31.3977 7.3577 31.0903 7.26109C27.2918 6.0532 23.036 6.08273 19.1105 7.34362C19.0514 7.36322 18.9896 7.3726 18.9283 7.3726ZM18.3146 2.13858C18.3947 2.45519 18.4734 2.77262 18.5521 3.09032C18.7924 4.05945 19.0398 5.05619 19.3256 6.03222C23.1313 4.92839 27.1965 4.90161 30.8978 5.95852L32.2253 2.18302C27.7362 0.876312 22.8427 0.860578 18.3146 2.13858Z" fill="url(#paint5_linear_2682_166933)"/>
<path d="M46.1172 47.2162C45.788 47.2162 45.4892 47.1676 45.2139 47.0702C44.5624 46.8397 44.0035 46.4246 43.5967 45.8698C42.6006 44.5114 42.7793 42.6529 44.0041 41.6388C44.6641 41.0928 45.5964 40.8394 46.4952 40.9637C47.4159 41.0901 48.2184 41.5853 48.7539 42.3581C49.7201 43.7521 49.4705 45.509 48.1596 46.5355C47.7233 46.877 47.2118 47.0978 46.6794 47.1737C46.4822 47.2019 46.2953 47.2162 46.1172 47.2162ZM46.0352 42.1243C45.5607 42.1243 45.1012 42.2781 44.7646 42.5569C44.1164 43.0935 43.8621 44.2158 44.5586 45.1653C44.8234 45.5261 45.1874 45.7966 45.6115 45.9468C45.849 46.0309 46.1434 46.0472 46.511 45.9937C46.8366 45.9476 47.1522 45.8104 47.4242 45.5976C48.2347 44.9625 48.3783 43.9097 47.7735 43.0372C47.43 42.5417 46.9186 42.2248 46.3326 42.1445C46.2334 42.131 46.1343 42.1243 46.0352 42.1243Z" fill="url(#paint6_linear_2682_166933)"/>
<path d="M46.3682 51.0561C46.2991 51.0561 46.2301 51.055 46.1613 51.0525L46.1583 50.4563L46.1945 49.8615C46.2549 49.8631 46.3118 49.8642 46.3684 49.8642C46.7722 49.8642 47.1806 49.8184 47.5819 49.7281C47.9055 49.6536 48.2228 49.8573 48.2946 50.1783C48.3672 50.4996 48.1654 50.8184 47.8442 50.8908C47.3562 51.0001 46.86 51.0561 46.3682 51.0561ZM46.158 50.4563L46.1909 49.8612L46.158 50.4563ZM42.8715 50.0881C42.7577 50.0881 42.6429 50.0558 42.5412 49.9879C42.077 49.6787 41.6457 49.3174 41.2599 48.915C41.0321 48.677 41.0401 48.3 41.2778 48.0723C41.5159 47.8445 41.8934 47.8531 42.1209 48.0902C42.4465 48.43 42.8108 48.735 43.2029 48.9961C43.4768 49.1786 43.5511 49.5487 43.3683 49.8225C43.2529 49.9948 43.064 50.0881 42.8715 50.0881ZM50.7419 49.289C50.5847 49.289 50.4273 49.2269 50.3102 49.104C50.0832 48.8658 50.0921 48.4888 50.331 48.2616C50.6687 47.94 50.9617 47.5776 51.2017 47.1854C51.374 46.9041 51.7413 46.8172 52.0216 46.9875C52.3027 47.1594 52.3911 47.526 52.2196 47.807C51.9252 48.2881 51.5667 48.7317 51.1533 49.1247C51.0376 49.2343 50.8899 49.289 50.7419 49.289ZM39.9948 46.1075C39.7325 46.1075 39.4922 45.9333 39.4199 45.6678C39.2719 45.1237 39.1876 44.5651 39.1702 44.0072C39.1597 43.6782 39.4182 43.403 39.7471 43.3925C40.0871 43.3922 40.3519 43.6467 40.3621 43.9691C40.3767 44.4342 40.4472 44.9007 40.5706 45.3551C40.657 45.6728 40.4698 46.0004 40.1517 46.0865C40.0992 46.1009 40.0462 46.1075 39.9948 46.1075ZM52.5562 44.7751C52.2378 44.7751 51.9735 44.5237 51.9608 44.2029C51.9426 43.7422 51.8672 43.2779 51.7368 42.8228C51.6463 42.5065 51.8296 42.1769 52.1464 42.0861C52.4615 41.9955 52.7926 42.1785 52.8834 42.4954C53.0395 43.0414 53.13 43.6001 53.1524 44.1557C53.1657 44.4845 52.9094 44.7619 52.5802 44.7748C52.5722 44.7751 52.5645 44.7751 52.5562 44.7751ZM40.5811 41.253C40.4809 41.253 40.3801 41.2282 40.2867 41.1755C40.0006 41.0129 39.9001 40.6491 40.0628 40.3626C40.3458 39.8646 40.6902 39.4097 41.0859 39.0095C41.3173 38.7754 41.6954 38.7732 41.929 39.0048C42.1632 39.2364 42.1654 39.6134 41.9337 39.8475C41.6114 40.1729 41.3309 40.5445 41.1 40.9513C40.9904 41.1448 40.7885 41.253 40.5811 41.253ZM50.5789 40.2866C50.4259 40.2866 50.273 40.2281 50.1567 40.1114C49.8267 39.7807 49.4572 39.4887 49.0579 39.243C48.7776 39.0707 48.6898 38.7036 48.8626 38.4232C49.0355 38.143 49.4031 38.0555 49.6828 38.228C50.1619 38.5223 50.6054 38.8728 51.0015 39.2703C51.234 39.503 51.2331 39.8806 50.9998 40.113C50.8835 40.2287 50.7311 40.2866 50.5789 40.2866ZM44.5425 38.4428C44.2619 38.4428 44.0117 38.2438 43.9576 37.9578C43.8963 37.6346 44.1087 37.3227 44.4323 37.2614C44.9794 37.1579 45.5527 37.1181 46.105 37.141C46.4339 37.1543 46.6899 37.4317 46.6769 37.7607C46.6636 38.0895 46.3861 38.352 46.0569 38.3324C45.5864 38.3136 45.1122 38.3459 44.6544 38.4326C44.6171 38.4392 44.5792 38.4428 44.5425 38.4428Z" fill="url(#paint7_linear_2682_166933)"/>
<path d="M42.7644 11.6424C42.393 11.6424 42.0196 11.5637 41.6601 11.405C41.6592 11.4047 41.6139 11.3846 41.6139 11.3846C41.4005 11.2902 41.1796 11.1924 40.9584 10.9887C40.8581 10.8971 40.7606 10.7994 40.6706 10.6945C40.06 9.98373 39.7643 9.12943 39.8397 8.28975C39.9059 7.54724 40.2542 6.8845 40.8203 6.42381C41.4148 5.93994 42.2646 5.71801 43.0958 5.83394C43.9262 5.94849 44.6469 6.38682 45.1263 7.06806C45.5511 7.67256 45.7184 8.45012 45.5848 9.20202C45.445 9.98704 45.001 10.6743 44.3341 11.137C43.8511 11.4721 43.3104 11.6424 42.7644 11.6424ZM42.1433 10.3152C42.6412 10.5355 43.1922 10.4786 43.6536 10.1582C44.0582 9.87801 44.3266 9.46452 44.4103 8.9939C44.4887 8.55225 44.394 8.1004 44.1501 7.75398C43.7829 7.23174 43.285 7.06419 42.932 7.01534C42.4322 6.94661 41.9103 7.07385 41.5731 7.3485C41.2583 7.60465 41.0647 7.97619 41.0274 8.39602C40.9813 8.91247 41.176 9.4532 41.5758 9.91886C41.6349 9.98787 41.6987 10.0508 41.7647 10.1113C41.839 10.1792 41.9197 10.2164 42.0958 10.2943L42.1433 10.3152Z" fill="url(#paint8_linear_2682_166933)"/>
<path d="M42.0925 15.4481C42.0616 15.4481 42.0301 15.4459 41.9986 15.4407C41.443 15.3529 40.8931 15.1898 40.364 14.956L40.5852 14.402L40.839 13.8626L40.5852 14.402L40.8429 13.8646C41.2806 14.0578 41.731 14.1917 42.1847 14.2634C42.51 14.315 42.7321 14.62 42.6804 14.9452C42.634 15.2389 42.3805 15.4481 42.0925 15.4481ZM45.5016 14.9482C45.2779 14.9482 45.0633 14.8218 44.9617 14.606C44.8214 14.3084 44.9493 13.9534 45.2473 13.8129C45.5333 13.6782 45.8145 13.5162 46.0829 13.3302C46.2066 13.2441 46.3267 13.1543 46.4424 13.0622C46.7009 12.8557 47.0751 12.8985 47.2806 13.1549C47.4863 13.4122 47.4449 13.787 47.1878 13.9926C47.0511 14.1019 46.9094 14.2079 46.7622 14.3101C46.4389 14.5337 46.1003 14.7291 45.7548 14.8917C45.6731 14.93 45.5866 14.9482 45.5016 14.9482ZM37.9286 12.8146C37.7422 12.8146 37.5589 12.7276 37.4423 12.5639C37.1143 12.103 36.8334 11.6188 36.607 11.1247C36.4695 10.8252 36.6012 10.4716 36.9005 10.3347C37.2013 10.1981 37.5539 10.3289 37.6909 10.6281C37.8861 11.0541 38.1294 11.4733 38.4144 11.8733C38.6049 12.1413 38.5425 12.5134 38.2738 12.7044C38.1689 12.7787 38.0482 12.8146 37.9286 12.8146ZM48.8671 11.3403C48.7953 11.3403 48.7218 11.3276 48.6508 11.3C48.3443 11.1805 48.1921 10.8352 48.3112 10.5288C48.4824 10.0888 48.6011 9.62948 48.6641 9.16355C48.7083 8.83756 49.0104 8.60653 49.3349 8.6529C49.661 8.69679 49.8899 8.9971 49.8457 9.32337C49.7704 9.88205 49.6279 10.433 49.423 10.9602C49.3307 11.1962 49.1057 11.3403 48.8671 11.3403ZM36.5167 8.07131C36.5007 8.07131 36.4852 8.07103 36.4695 8.06938C36.1411 8.04371 35.8956 7.75719 35.9218 7.42872C35.9666 6.85762 36.0828 6.29729 36.2681 5.76345C36.3753 5.45182 36.7158 5.28703 37.0262 5.39523C37.3374 5.5026 37.5025 5.84212 37.3946 6.15292C37.2432 6.59125 37.1474 7.05194 37.1104 7.52174C37.0856 7.8342 36.8249 8.07131 36.5167 8.07131ZM48.782 6.41901C48.5534 6.41901 48.3352 6.28707 48.2366 6.06487C48.0958 5.74661 47.9243 5.44381 47.7266 5.16309C47.6556 5.06179 47.5824 4.96435 47.5081 4.87106C47.3032 4.61352 47.3457 4.23868 47.6031 4.03331C47.8616 3.8285 48.2358 3.87101 48.4412 4.12827C48.5304 4.24033 48.6174 4.35709 48.7022 4.47772C48.9441 4.82082 49.1545 5.19235 49.3269 5.58127C49.4605 5.88242 49.3247 6.23435 49.0236 6.36767C48.9447 6.40273 48.8626 6.41901 48.782 6.41901ZM38.8739 3.78075C38.6892 3.78075 38.5072 3.69491 38.3904 3.53398C38.1973 3.26734 38.2573 2.89498 38.5243 2.70176C38.972 2.37826 39.4787 2.10803 40.0307 1.89935C40.3378 1.78259 40.6827 1.93772 40.7993 2.24549C40.9161 2.55326 40.7609 2.89719 40.453 3.01367C39.9992 3.18564 39.5853 3.40563 39.223 3.66785C39.1172 3.74404 38.9949 3.78075 38.8739 3.78075ZM45.1882 3.05176C45.118 3.05176 45.0462 3.03934 44.9766 3.01284C44.5386 2.84668 44.0769 2.72992 43.6036 2.6656C43.2772 2.62088 43.0488 2.32057 43.0933 1.99486C43.1374 1.66859 43.439 1.43701 43.7643 1.48476C44.3271 1.56149 44.8775 1.70034 45.3997 1.8988C45.7076 2.01556 45.8625 2.35976 45.7454 2.66753C45.6551 2.90547 45.4287 3.05176 45.1882 3.05176Z" fill="url(#paint9_linear_2682_166933)"/>
<path d="M8.02861 47.3766C7.53927 47.3766 7.07036 47.2554 6.71247 46.9761C6.70667 46.9717 6.66911 46.9405 6.66331 46.9358L6.59731 46.8803C6.26178 46.599 5.91521 46.3084 5.65397 45.933C5.24692 45.3473 5.0989 44.4907 5.25797 43.642C5.41869 42.7857 5.86302 42.0741 6.51032 41.6383C7.69612 40.8406 9.32101 41.0854 10.29 42.2091C10.8998 42.9157 11.2077 43.8705 11.113 44.7632C11.029 45.5548 10.6358 46.2532 10.0059 46.7296C9.48311 47.1243 8.73418 47.3766 8.02861 47.3766ZM7.43074 46.0233L7.46692 46.0539C7.80355 46.3169 8.75047 46.1839 9.28593 45.7787C9.75319 45.4257 9.89237 44.963 9.92689 44.6373C9.98736 44.0662 9.78549 43.4493 9.38701 42.9872C8.81206 42.3212 7.86181 42.1658 7.1764 42.6267C6.66359 42.972 6.48851 43.5481 6.42996 43.8614C6.33137 44.3872 6.41091 44.9329 6.63293 45.2529C6.80332 45.4971 7.07533 45.7254 7.36336 45.9672L7.43074 46.0233Z" fill="url(#paint10_linear_2682_166933)"/>
<path d="M8.09297 51.6525C7.46527 51.6458 6.89971 51.5233 6.40512 51.2878L6.28831 51.2266C5.99752 51.0756 5.87491 50.7148 6.02348 50.4228C6.17149 50.131 6.51889 50.0084 6.81327 50.1561C6.8188 50.1589 6.84006 50.1696 6.84503 50.1727L6.93975 50.2226C7.25484 50.372 7.65195 50.4559 8.09876 50.4606C8.42822 50.4642 8.69222 50.7338 8.68863 51.0629C8.68587 51.39 8.41938 51.6525 8.09297 51.6525ZM11.4794 50.6469C11.2748 50.6469 11.0754 50.5415 10.9644 50.3521C10.7982 50.0681 10.8937 49.7029 11.1779 49.5364C11.6158 49.2803 12.0124 48.991 12.3562 48.6763C12.5992 48.4536 12.9756 48.4707 13.1985 48.7136C13.4208 48.9565 13.4042 49.3336 13.1612 49.5555C12.7553 49.9267 12.2905 50.2665 11.7802 50.5655C11.6854 50.6204 11.5819 50.6469 11.4794 50.6469ZM3.54859 49.3692C3.3956 49.3692 3.24261 49.3107 3.12635 49.1939C2.73394 48.8 2.38875 48.3178 2.10045 47.7602C1.94939 47.4682 2.06399 47.1085 2.35672 46.957C2.64778 46.8071 3.00871 46.92 3.16032 47.2131C3.39201 47.6619 3.66541 48.0453 3.97111 48.3526C4.20363 48.5858 4.2028 48.9631 3.96945 49.1953C3.85291 49.3115 3.70075 49.3692 3.54859 49.3692ZM14.5445 46.6812C14.4997 46.6812 14.4544 46.6763 14.4089 46.6658C14.0882 46.5912 13.8886 46.2708 13.9632 45.9503C14.0557 45.5534 14.1026 45.1391 14.1029 44.7189C14.1029 44.656 14.1018 44.5928 14.0998 44.5299C14.0885 44.2011 14.3467 43.9254 14.6759 43.9146C15.0004 43.8939 15.2804 44.1614 15.2914 44.4904C15.2942 44.5663 15.2953 44.6428 15.2953 44.7192C15.295 45.2301 15.2376 45.7353 15.1246 46.2205C15.0606 46.4955 14.8154 46.6812 14.5445 46.6812ZM1.80938 44.6392C1.48407 44.6392 1.21786 44.3781 1.21317 44.0518L1.21289 43.9637C1.21289 43.4139 1.26536 42.8707 1.36892 42.3498C1.43381 42.0271 1.74973 41.8182 2.06979 41.8811C2.39262 41.9454 2.60277 42.259 2.5387 42.5819C2.45033 43.0269 2.40532 43.4923 2.40532 43.964L2.4056 44.0349C2.41029 44.3637 2.14712 44.6345 1.80938 44.6392ZM13.6735 41.7243C13.4699 41.7243 13.2722 41.6203 13.1606 41.4328C12.9118 41.0141 12.6183 40.6188 12.2888 40.2567C12.0668 40.0135 12.0842 39.6367 12.328 39.4151C12.5708 39.1929 12.9475 39.2103 13.17 39.4543C13.5539 39.8752 13.896 40.3362 14.1855 40.8234C14.3539 41.1063 14.2608 41.472 13.9778 41.6401C13.8822 41.6976 13.777 41.7243 13.6735 41.7243ZM3.55412 39.9257C3.40389 39.9257 3.25366 39.8694 3.13768 39.7563C2.90212 39.5266 2.89742 39.149 3.12746 38.9135C3.53837 38.4926 4.00121 38.1318 4.50187 37.8412C4.78548 37.6764 5.15138 37.7725 5.31652 38.0573C5.48194 38.3416 5.38529 38.7065 5.1003 38.8716C4.69325 39.1081 4.3163 39.4024 3.9805 39.746C3.86396 39.8658 3.70904 39.9257 3.55412 39.9257ZM9.78689 38.4973C9.72475 38.4973 9.66124 38.4876 9.59855 38.4669C9.13986 38.314 8.66571 38.2185 8.18962 38.1829C7.86155 38.1581 7.6155 37.8718 7.64007 37.5434C7.66493 37.2152 7.94605 36.9681 8.27992 36.9941C8.85321 37.0374 9.42375 37.1522 9.9755 37.3355C10.2881 37.4396 10.4568 37.7771 10.3533 38.0893C10.2696 38.3394 10.0371 38.4973 9.78689 38.4973Z" fill="url(#paint11_linear_2682_166933)"/>
<path d="M1.829 34.4609C1.57549 34.4609 1.34076 34.2986 1.2604 34.0447C-0.343222 28.971 -0.41806 23.6647 1.04417 18.7003C1.13696 18.3845 1.46889 18.2046 1.78454 18.2973C2.10046 18.3901 2.28106 18.7213 2.188 19.0374C0.793423 23.7737 0.865775 28.8388 2.39787 33.6855C2.49673 33.9994 2.32303 34.3342 2.00905 34.4336C1.94912 34.4521 1.88837 34.4609 1.829 34.4609Z" fill="url(#paint12_linear_2682_166933)"/>
<path d="M6.52785 32.2305C5.32437 28.306 5.27991 24.2183 6.39668 20.395L1.78906 19L1.90394 18.6196L6.89126 20.1298L6.83383 20.32C5.68199 24.1219 5.70767 28.2 6.90839 32.1143L6.52785 32.2305Z" fill="url(#paint13_linear_2682_166933)"/>
<path d="M6.7196 32.7676C6.46443 32.7676 6.2286 32.6028 6.14989 32.3461C4.96327 28.4768 4.88263 24.4501 5.91047 20.6616L1.67566 19.3795C1.36057 19.284 1.18218 18.9517 1.27773 18.6364C1.37328 18.3209 1.70853 18.1446 2.02113 18.2387L6.81819 19.6914C7.13328 19.7869 7.31167 20.1193 7.21612 20.4345C6.08721 24.1603 6.11289 28.1585 7.29013 31.997C7.38651 32.3116 7.20949 32.6448 6.89468 32.7414C6.83641 32.7594 6.77787 32.7676 6.7196 32.7676Z" fill="url(#paint14_linear_2682_166933)"/>
<path d="M1.77183 34.2918C1.51612 34.2918 1.27918 34.1256 1.2013 33.8678C1.10631 33.5528 1.2847 33.2202 1.60034 33.1253C3.23655 32.632 4.87303 32.1222 6.512 31.6118L6.71028 32.1744L6.88757 32.7432C5.2243 33.2616 3.58423 33.7726 1.94415 34.2669C1.88727 34.2835 1.829 34.2918 1.77183 34.2918Z" fill="url(#paint15_linear_2682_166933)"/>
<path d="M7.37956 12.2682C7.2089 12.2682 7.02829 12.2546 6.83775 12.2168C6.24761 12.1012 5.71933 11.7768 5.30979 11.2794C4.71054 10.551 4.43108 9.68482 4.52303 8.83935C4.60837 8.05488 5.00078 7.35101 5.62847 6.8583C6.2581 6.36394 7.10203 6.1456 7.94236 6.2596C8.78573 6.37332 9.54267 6.80889 10.0199 7.45507C11.0046 8.78856 10.7503 10.6807 9.45236 11.6725C9.06575 11.9678 8.60457 12.1533 8.11855 12.2088L8.03239 12.219C7.83107 12.2425 7.61401 12.2682 7.37956 12.2682ZM7.50217 7.42167C7.07828 7.42167 6.67509 7.55251 6.36525 7.79569C5.99189 8.08855 5.75882 8.50508 5.70856 8.96825C5.65084 9.49933 5.83117 10.0368 6.23076 10.5223C6.46605 10.8082 6.74745 10.9849 7.06778 11.0476C7.33786 11.1008 7.58281 11.0716 7.89348 11.0351L7.98323 11.0247C8.25966 10.9929 8.51041 10.8924 8.72884 10.7254C9.41564 10.201 9.71278 9.04581 9.06078 8.1628C8.77441 7.77471 8.30854 7.51166 7.7833 7.44072C7.68913 7.42774 7.59496 7.42167 7.50217 7.42167Z" fill="url(#paint16_linear_2682_166933)"/>
<path d="M8.78717 15.8493C8.48754 15.8493 8.22188 15.6271 8.18653 15.3235C8.14843 14.9967 8.37294 14.7025 8.69963 14.6641L8.76922 15.2559L8.70957 14.6627C9.16798 14.61 9.60154 14.4982 10.0089 14.329C10.3124 14.202 10.6617 14.3472 10.7882 14.6511C10.9144 14.955 10.7702 15.3036 10.4659 15.4301C9.95612 15.6415 9.41486 15.7812 8.85648 15.8455C8.83329 15.848 8.81009 15.8493 8.78717 15.8493ZM5.42418 15.7367C5.36287 15.7367 5.29991 15.7273 5.23833 15.7069C4.70922 15.5336 4.20689 15.2774 3.74461 14.9454C3.4773 14.7532 3.41627 14.3812 3.60847 14.114C3.80095 13.8459 4.17348 13.7866 4.44024 13.9779C4.80366 14.2387 5.19718 14.4391 5.6103 14.5749C5.92319 14.6773 6.09357 15.0141 5.99057 15.3268C5.908 15.5777 5.67492 15.7367 5.42418 15.7367ZM12.7718 13.3218C12.6608 13.3218 12.5486 13.2911 12.4484 13.2263C12.1717 13.0474 12.0927 12.6784 12.2714 12.4021C12.5161 12.0244 12.716 11.6148 12.8659 11.1842C12.9739 10.874 13.3141 10.7089 13.6251 10.8179C13.936 10.9261 14.1004 11.2659 13.9915 11.5767C13.8104 12.0968 13.5685 12.5922 13.2727 13.0491C13.1587 13.226 12.967 13.3218 12.7718 13.3218ZM1.99104 12.4553C1.76929 12.4553 1.55693 12.3314 1.45393 12.1188C1.21284 11.6203 1.02837 11.1042 0.90659 10.585C0.831201 10.2648 1.03003 9.94403 1.35064 9.86868C1.67126 9.79222 1.99187 9.99206 2.06726 10.3125C2.16944 10.7464 2.32436 11.1798 2.52761 11.5994C2.67093 11.8958 2.54694 12.2519 2.25035 12.3954C2.1664 12.4366 2.07803 12.4553 1.99104 12.4553ZM13.6563 8.64781C13.379 8.64781 13.1311 8.45376 13.0728 8.17166C12.9825 7.73057 12.8367 7.29942 12.6403 6.89117C12.4978 6.59445 12.6229 6.23865 12.9198 6.09567C13.2158 5.95296 13.5726 6.07855 13.7157 6.375C13.954 6.8713 14.1307 7.39465 14.2412 7.93152C14.3072 8.25392 14.0995 8.56887 13.777 8.63539C13.7367 8.64367 13.6963 8.64781 13.6563 8.64781ZM1.63508 7.71622C1.57101 7.71622 1.50584 7.70601 1.44177 7.68392C1.13055 7.5771 0.964306 7.23842 1.07118 6.92706C1.25012 6.40509 1.4959 5.90769 1.8016 5.44838C1.98442 5.17374 2.35474 5.10031 2.6284 5.28221C2.90235 5.46494 2.97691 5.83482 2.79465 6.10864C2.54501 6.48293 2.3448 6.88814 2.19926 7.31322C2.11448 7.56054 1.88279 7.71622 1.63508 7.71622ZM10.9691 4.7343C10.86 4.7343 10.7498 4.70449 10.6506 4.64183C10.2707 4.40169 9.85837 4.20433 9.42453 4.05472C9.11331 3.94762 8.94789 3.60866 9.05504 3.29731C9.16218 2.9865 9.50075 2.82171 9.8128 2.92798C10.3342 3.10712 10.8307 3.34506 11.2883 3.63461C11.5666 3.81072 11.6498 4.17866 11.4733 4.45662C11.3601 4.63631 11.1668 4.7343 10.9691 4.7343ZM4.85033 4.23359C4.62002 4.23359 4.40075 4.09972 4.303 3.87503C4.17182 3.57306 4.31045 3.22195 4.61229 3.09084C5.10881 2.87498 5.63875 2.71875 6.18664 2.62573C6.50946 2.57053 6.81903 2.78859 6.87398 3.11347C6.92893 3.4378 6.71105 3.74557 6.38602 3.8005C5.93257 3.87779 5.49598 4.00642 5.08727 4.18418C5.01022 4.21758 4.92959 4.23359 4.85033 4.23359Z" fill="url(#paint17_linear_2682_166933)"/>
<defs>
<linearGradient id="paint0_linear_2682_166933" x1="14.3516" y1="17.5215" x2="38.9559" y2="17.5215" gradientUnits="userSpaceOnUse">
<stop stop-color="#DC2430"/>
<stop offset="1" stop-color="#7B4397"/>
</linearGradient>
<linearGradient id="paint1_linear_2682_166933" x1="21.633" y1="20.2905" x2="32.0341" y2="20.2905" gradientUnits="userSpaceOnUse">
<stop stop-color="#DC2430"/>
<stop offset="1" stop-color="#7B4397"/>
</linearGradient>
<linearGradient id="paint2_linear_2682_166933" x1="24.723" y1="23.9766" x2="28.5716" y2="23.9766" gradientUnits="userSpaceOnUse">
<stop stop-color="#DC2430"/>
<stop offset="1" stop-color="#7B4397"/>
</linearGradient>
<linearGradient id="paint3_linear_2682_166933" x1="19.1746" y1="44.791" x2="36.6343" y2="44.791" gradientUnits="userSpaceOnUse">
<stop stop-color="#DC2430"/>
<stop offset="1" stop-color="#7B4397"/>
</linearGradient>
<linearGradient id="paint4_linear_2682_166933" x1="46.2262" y1="17.2095" x2="52.7962" y2="17.2095" gradientUnits="userSpaceOnUse">
<stop stop-color="#DC2430"/>
<stop offset="1" stop-color="#7B4397"/>
</linearGradient>
<linearGradient id="paint5_linear_2682_166933" x1="18.3807" y1="0" x2="32.484" y2="0" gradientUnits="userSpaceOnUse">
<stop stop-color="#DC2430"/>
<stop offset="1" stop-color="#7B4397"/>
</linearGradient>
<linearGradient id="paint6_linear_2682_166933" x1="43.4854" y1="40.9326" x2="48.9141" y2="40.9326" gradientUnits="userSpaceOnUse">
<stop stop-color="#DC2430"/>
<stop offset="1" stop-color="#7B4397"/>
</linearGradient>
<linearGradient id="paint7_linear_2682_166933" x1="40.3352" y1="37.1348" x2="52.2207" y2="37.1348" gradientUnits="userSpaceOnUse">
<stop stop-color="#DC2430"/>
<stop offset="1" stop-color="#7B4397"/>
</linearGradient>
<linearGradient id="paint8_linear_2682_166933" x1="40.3116" y1="5.80371" x2="45.243" y2="5.80371" gradientUnits="userSpaceOnUse">
<stop stop-color="#DC2430"/>
<stop offset="1" stop-color="#7B4397"/>
</linearGradient>
<linearGradient id="paint9_linear_2682_166933" x1="37.0809" y1="1.47852" x2="48.9225" y2="1.47852" gradientUnits="userSpaceOnUse">
<stop stop-color="#DC2430"/>
<stop offset="1" stop-color="#7B4397"/>
</linearGradient>
<linearGradient id="paint10_linear_2682_166933" x1="5.68986" y1="41.1709" x2="10.7342" y2="41.1709" gradientUnits="userSpaceOnUse">
<stop stop-color="#DC2430"/>
<stop offset="1" stop-color="#7B4397"/>
</linearGradient>
<linearGradient id="paint11_linear_2682_166933" x1="2.38643" y1="36.9922" x2="14.3565" y2="36.9922" gradientUnits="userSpaceOnUse">
<stop stop-color="#DC2430"/>
<stop offset="1" stop-color="#7B4397"/>
</linearGradient>
<linearGradient id="paint12_linear_2682_166933" x1="0.202134" y1="18.2729" x2="2.2639" y2="18.2729" gradientUnits="userSpaceOnUse">
<stop stop-color="#DC2430"/>
<stop offset="1" stop-color="#7B4397"/>
</linearGradient>
<linearGradient id="paint13_linear_2682_166933" x1="2.21567" y1="18.6196" x2="6.5671" y2="18.6196" gradientUnits="userSpaceOnUse">
<stop stop-color="#DC2430"/>
<stop offset="1" stop-color="#7B4397"/>
</linearGradient>
<linearGradient id="paint14_linear_2682_166933" x1="1.75732" y1="18.2134" x2="6.91211" y2="18.2134" gradientUnits="userSpaceOnUse">
<stop stop-color="#DC2430"/>
<stop offset="1" stop-color="#7B4397"/>
</linearGradient>
<linearGradient id="paint15_linear_2682_166933" x1="1.65176" y1="31.6118" x2="6.50678" y2="31.6118" gradientUnits="userSpaceOnUse">
<stop stop-color="#DC2430"/>
<stop offset="1" stop-color="#7B4397"/>
</linearGradient>
<linearGradient id="paint16_linear_2682_166933" x1="5.01535" y1="6.22998" x2="10.2121" y2="6.22998" gradientUnits="userSpaceOnUse">
<stop stop-color="#DC2430"/>
<stop offset="1" stop-color="#7B4397"/>
</linearGradient>
<linearGradient id="paint17_linear_2682_166933" x1="2.00419" y1="2.61719" x2="13.3626" y2="2.61719" gradientUnits="userSpaceOnUse">
<stop stop-color="#DC2430"/>
<stop offset="1" stop-color="#7B4397"/>
</linearGradient>
</defs>
</svg>
