<svg width="56" height="55" viewBox="0 0 56 55" fill="none" xmlns="http://www.w3.org/2000/svg">
<g clip-path="url(#clip0_2682_168947)">
<path d="M22.1824 23.7637C23.3576 22.7165 24.5995 21.7631 25.8537 20.8184C26.8953 20.0337 28.0099 19.3954 28.7354 18.2868C29.3776 17.3052 28.3206 16.1839 27.3238 16.4108C27.0954 16.4627 26.8706 16.5383 26.6488 16.6302C26.7225 15.9989 26.1476 15.3327 25.3361 15.7098C22.3375 17.1031 20.0164 19.0397 18.5289 22.1012C17.7908 23.6207 15.9555 28.0453 17.6556 29.3366C17.6872 29.3606 17.7503 29.3614 17.7817 29.3366C18.2104 28.9987 18.3193 28.6567 18.3816 28.2278C18.4974 29.1944 18.4395 30.3301 17.7218 30.9214C17.072 31.4567 16.2359 31.3073 15.9527 30.5714C15.7751 30.1097 15.7286 29.5431 15.6851 29.0591C15.6023 28.1361 14.4412 27.7066 13.9244 28.5718C13.4542 29.3585 12.9937 30.1409 12.5794 30.9604C12.4473 31.2219 12.4074 31.567 12.5794 31.8251C12.6057 31.8646 12.7552 32.1733 12.8861 32.1916C12.951 32.2006 13.0157 32.2097 13.0806 32.2187C13.4967 32.2768 13.7763 32.1653 14.0274 31.8251C14.104 31.7213 14.1732 31.6137 14.2477 31.5089C14.564 32.3423 15.095 33.0478 16.0075 33.3815C17.9282 34.0841 19.8049 32.4293 20.4047 30.6615C20.6459 29.9507 20.7502 29.1825 20.7318 28.4219C22.2198 30.5712 24.1415 32.4902 25.9629 34.2219C27.4599 35.6451 29.7267 33.3193 28.2059 31.9301C25.7643 29.7005 23.3217 27.1556 20.535 25.3392C20.8569 24.7582 21.7165 24.179 22.1824 23.7637ZM20.6863 21.6337C21.6059 20.2864 22.7283 19.2372 24.0884 18.3991C23.6683 18.777 23.2687 19.161 22.8927 19.5087C22.1521 20.1935 21.4066 20.9015 20.6863 21.6337Z" fill="#E0DFE6"/>
<path d="M53.0754 27.2911C53.4868 26.7139 52.7959 25.7826 52.1339 26.0458C50.3527 26.754 48.8501 28.2948 47.3405 29.4784C45.6788 30.781 43.999 32.0629 42.3601 33.3945C40.7563 34.6974 39.1134 35.9851 37.6036 37.3997C36.8617 38.0947 36.0827 38.8049 35.4986 39.644C35.1614 39.4392 34.8045 39.2658 34.4648 39.1222C34.8606 39.015 35.2393 38.8696 35.5793 38.613C36.4147 37.9822 36.7424 36.8608 36.1521 35.9376C35.5151 34.9416 34.316 34.7883 33.2881 35.166C33.1439 35.219 33.1274 35.3924 33.2474 35.4815C33.6673 35.7932 34.9997 36.4079 34.5384 37.0415C34.2851 37.3893 33.1147 37.2593 32.6996 37.3537C31.8292 37.552 30.9503 38.0538 30.8939 39.0549C30.832 40.1558 31.7563 40.7319 32.5927 41.1962C33.5779 41.7427 34.4538 42.6672 35.5298 42.9428C35.4754 43.1253 35.438 43.3129 35.4238 43.5066C35.4203 43.5528 35.432 43.5979 35.4517 43.6401C34.6944 44.2688 34.2137 45.3562 33.4019 45.956C31.7081 47.2079 29.4632 47.8194 27.4134 47.3293C27.2302 47.2853 27.1104 47.5455 27.2826 47.6448C29.4013 48.8672 31.6774 49.3794 33.9678 48.2819C33.2704 49.0753 32.4297 49.7137 31.3979 50.0402C30.5372 50.3123 29.595 50.1239 28.7897 50.5222C28.7298 50.5519 28.7006 50.6369 28.7188 50.6996C29.2078 52.3795 31.8586 52.1109 33.0937 51.6553C35.3546 50.8212 36.7374 48.918 37.818 46.8254C38.0139 46.4459 38.0716 45.9322 37.818 45.5578C37.6438 45.3006 37.472 45.1285 37.3035 45.0227C37.4401 44.5503 37.4346 44.0586 37.2182 43.566C37.1867 43.4944 37.1406 43.4355 37.0869 43.3847C37.96 42.8588 38.7216 41.9846 39.4364 41.3498C40.9855 39.9743 42.5048 38.568 44.0399 37.1765C45.4884 35.8637 46.9541 34.5705 48.4362 33.2973C49.677 32.2312 51.9574 31.0318 52.2639 29.3327C52.3231 29.0052 52.201 28.6973 51.9547 28.5362C52.369 28.1514 52.7534 27.7432 53.0754 27.2911ZM38.2109 39.6113C37.8045 40.0344 37.313 40.4743 36.8557 40.9469C36.7392 40.7294 36.5837 40.5291 36.403 40.3443C37.3253 39.7324 38.2099 39.0244 39.1007 38.4079C39.4741 38.1495 39.8445 37.885 40.2142 37.6185C39.535 38.2698 38.8646 38.9308 38.2109 39.6113Z" fill="#E0DFE6"/>
<path d="M44.1472 20.6098C43.7426 20.2832 43.226 20.1335 42.7866 19.848C42.4352 19.6195 42.1075 19.3643 41.7555 19.1341C41.453 18.9364 41.0964 19.2092 41.0731 19.4891C40.991 20.4781 41.6765 21.8657 42.6384 22.3822C43.8292 23.0217 45.2237 21.4785 44.1472 20.6098Z" fill="#E0DFE6"/>
<path d="M46.819 17.6757C45.0299 15.998 43.4747 13.9295 41.8177 12.1016C40.508 10.6567 38.8565 8.2581 36.9287 7.80375C36.8422 7.78327 36.7202 7.84945 36.7334 7.96028C36.9941 10.1367 39.2943 12.2855 40.6065 13.8954C40.8584 14.2045 41.1106 14.5139 41.3625 14.8233C39.947 13.6619 38.6842 12.8454 38.3741 13.3124C37.7087 14.3145 39.3806 16.0973 39.9311 16.8098C41.1605 18.4021 42.4241 20.0285 43.9648 21.3004C45.2409 22.3541 46.949 20.9317 46.3037 19.597C47.03 19.4027 47.4613 18.2779 46.819 17.6757Z" fill="#E0DFE6"/>
<path d="M19.9845 45.0668C19.8327 45.0668 19.6813 45.0073 19.5667 44.8891C19.3398 44.6548 19.3427 44.2781 19.5735 44.0478C20.0548 43.5672 20.5323 43.096 21.0058 42.633C21.2387 42.4054 21.6098 42.4123 21.8346 42.649C22.0591 42.8857 22.052 43.2624 21.8188 43.4903C21.3486 43.9502 20.8736 44.4187 20.3952 44.8962C20.2815 45.01 20.133 45.0668 19.9845 45.0668Z" fill="url(#paint0_linear_2682_168947)"/>
<path d="M29.4657 35.5335C29.3173 35.5335 29.1699 35.4703 29.0643 35.347C28.8699 35.1196 28.8916 34.7734 29.1132 34.5737C29.8906 33.8735 30.6296 33.2132 31.3245 32.5922C34.674 29.5991 37.3194 27.2351 37.579 26.3014C37.7106 25.8289 37.7551 25.0185 37.8021 24.1602C37.929 21.848 38.0868 18.9704 40.1618 18.9704C41.1155 18.9704 41.4066 20.2393 41.7145 21.5828C41.8147 22.0198 41.968 22.6893 42.1171 23.0332C42.3479 22.788 42.6944 22.3906 43.0117 22.0264C45.1676 19.5533 47.2174 17.3335 48.6006 17.3335C49.3431 17.3335 49.7316 17.8365 49.7316 18.3334C49.7316 20.3027 47.4424 22.6553 45.7708 24.3732C45.3115 24.8452 44.9148 25.2528 44.6509 25.5662C44.4578 25.7951 44.1209 25.8205 43.8978 25.6228C43.6748 25.4251 43.65 25.0789 43.8427 24.85C44.1318 24.5067 44.5411 24.0859 45.015 23.5989C46.4366 22.1381 48.569 19.9469 48.6605 18.4331C48.6447 18.4311 48.6249 18.4293 48.6006 18.4293C47.5802 18.4293 44.9366 21.4623 43.8076 22.7571C42.6239 24.1151 42.4594 24.2887 42.1176 24.2887C41.2377 24.2887 40.9767 23.1509 40.6748 21.8341C40.5494 21.2867 40.3198 20.2857 40.1123 20.0683C39.0919 20.1416 38.9628 22.4957 38.8681 24.2222C38.8154 25.1827 38.7699 26.0126 38.6057 26.6026C38.2735 27.7954 36.2353 29.6567 32.0255 33.4185C31.3315 34.0387 30.5935 34.6983 29.8174 35.3975C29.7165 35.4888 29.5908 35.5335 29.4657 35.5335Z" fill="url(#paint1_linear_2682_168947)"/>
<path d="M45.9355 27.7333C45.7982 27.7333 45.6606 27.6791 45.5557 27.5709C45.346 27.3543 45.346 27.003 45.5557 26.7864C46.126 26.1972 46.7933 25.5538 47.4389 24.9317C49.0506 23.3781 51.2576 21.2508 51.2576 20.4504C51.2576 20.2846 51.2066 20.2034 51.181 20.1777C49.8855 20.2579 48.9538 21.2374 47.9682 22.274C47.8543 22.3937 47.7411 22.513 47.6277 22.6299C47.418 22.8465 47.078 22.8465 46.8684 22.6299C46.6587 22.4133 46.6587 22.062 46.8684 21.8454C46.9793 21.7305 47.0905 21.6136 47.2021 21.4964C48.247 20.3979 49.4308 19.1527 51.1613 19.0677C51.1701 19.0674 51.1977 19.0667 51.2064 19.0667C51.7595 19.0667 52.3318 19.5842 52.3318 20.4506C52.3318 21.647 50.7602 23.2481 48.1716 25.7434C47.5036 26.3876 46.8724 26.9958 46.3152 27.5714C46.2103 27.6791 46.073 27.7333 45.9355 27.7333Z" fill="url(#paint2_linear_2682_168947)"/>
<path d="M47.7094 29.4667C47.5564 29.4667 47.4035 29.4093 47.2902 29.2953C47.0716 29.0757 47.082 28.7298 47.3135 28.5224C48.1946 27.7327 48.9667 27.0563 49.6356 26.4705C51.6794 24.6795 52.9132 23.5986 52.9132 23.0374C52.9132 22.952 52.8524 22.8168 52.8016 22.7611C52.1066 22.7823 51.4984 23.2291 50.8552 23.7011C50.628 23.868 50.393 24.0405 50.1551 24.1909C49.8895 24.3581 49.5322 24.2905 49.3557 24.0392C49.1793 23.788 49.2506 23.4484 49.5157 23.281C49.7197 23.1518 49.9285 22.9986 50.1495 22.8363C50.8963 22.288 51.7427 21.6667 52.8532 21.6667C53.6341 21.6667 54.0661 22.4772 54.0661 23.0374C54.0661 24.077 52.9981 25.013 50.4176 27.2738C49.7517 27.8573 48.9827 28.5312 48.1049 29.3173C47.9938 29.4174 47.8512 29.4667 47.7094 29.4667Z" fill="url(#paint3_linear_2682_168947)"/>
<path d="M34.6694 44.2002C34.5147 44.2002 34.3614 44.1303 34.2554 43.9952C34.0669 43.7553 34.0994 43.4003 34.3279 43.2026C46.8114 32.3935 52.0556 27.4596 52.9136 26.3242C52.8458 26.2898 52.7542 26.2598 52.6648 26.2598C52.1276 26.2598 51.363 26.862 50.9954 27.1515C50.9699 27.1716 50.9423 27.1896 50.9135 27.2047C50.6487 27.3438 50.3239 27.2326 50.1913 26.9541C50.0684 26.6956 50.1501 26.3863 50.3748 26.2321C51.1047 25.6591 51.8865 25.1335 52.6643 25.1335C53.3412 25.1335 54.0661 25.6082 54.0661 26.3146C54.0661 26.7538 54.0661 27.5712 35.0096 44.0716C34.9103 44.1582 34.7896 44.2002 34.6694 44.2002Z" fill="url(#paint4_linear_2682_168947)"/>
<path d="M52.7495 30.3334C52.6167 30.3334 52.4853 30.2548 52.3966 30.1037C52.1203 29.6332 51.8444 29.1748 51.5671 28.7208C51.4094 28.4631 51.4373 28.0827 51.6289 27.871C51.8203 27.6589 52.1035 27.6961 52.261 27.954C52.542 28.4136 52.8219 28.8785 53.1015 29.3549C53.2553 29.6167 53.222 29.9966 53.0274 30.2033C52.9453 30.2909 52.8469 30.3334 52.7495 30.3334Z" fill="url(#paint5_linear_2682_168947)"/>
<path d="M28.4822 48.5334C28.3619 48.5334 28.2428 48.4813 28.1606 48.3803C28.0152 48.2016 28.041 47.9381 28.2184 47.7916L28.2503 47.7648C28.4262 47.6162 28.6882 47.6391 28.8356 47.8158C28.9832 47.9925 28.9607 48.2565 28.785 48.4053L28.7452 48.4387C28.668 48.5024 28.5747 48.5334 28.4822 48.5334Z" fill="url(#paint6_linear_2682_168947)"/>
<path d="M26.0775 51.1335C25.8966 51.1335 25.7175 51.0741 25.5964 50.9604C25.3869 50.7633 25.4326 50.4775 25.6979 50.3219C26.1625 50.0494 26.6161 49.7769 27.0645 49.5033C27.3256 49.3441 27.7111 49.3723 27.926 49.5663C28.1403 49.7602 28.1023 50.0468 27.8412 50.2063C27.3868 50.4834 26.9273 50.7593 26.4565 51.0356C26.3442 51.1015 26.2101 51.1335 26.0775 51.1335Z" fill="url(#paint7_linear_2682_168947)"/>
<path d="M42.2433 36.4001C42.092 36.4001 41.9417 36.3373 41.8321 36.2137C41.1416 35.4358 40.4802 34.611 39.8404 33.8136C38.6748 32.3607 37.4699 30.8584 36.0562 29.599C35.8246 29.3928 35.8004 29.0332 36.0016 28.7959C36.2029 28.5585 36.5542 28.5335 36.7855 28.7399C38.2692 30.0618 39.5043 31.6018 40.6987 33.0908C41.3297 33.8774 41.9824 34.6909 42.6541 35.4482C42.8605 35.6808 42.8437 36.041 42.6168 36.2522C42.5105 36.3513 42.3766 36.4001 42.2433 36.4001Z" fill="url(#paint8_linear_2682_168947)"/>
<path d="M35.5822 8.66665C35.429 8.66665 35.2759 8.60593 35.1614 8.48505C34.9376 8.24906 34.9446 7.87349 35.1771 7.64629C35.6488 7.18529 36.1245 6.71549 36.604 6.23691C36.834 6.00695 37.2034 6.01052 37.4305 6.24405C37.6567 6.47785 37.6534 6.85313 37.4234 7.08309C36.9406 7.56469 36.4619 8.03724 35.9876 8.50126C35.8742 8.61143 35.7281 8.66665 35.5822 8.66665Z" fill="url(#paint9_linear_2682_168947)"/>
<path d="M8.39654 33.7999C7.65286 33.7999 7.26367 33.296 7.26367 32.7982C7.26367 30.826 9.55641 28.4694 11.2303 26.7488C11.6906 26.2757 12.0882 25.8671 12.3525 25.5527C12.5455 25.3234 12.8832 25.2982 13.1069 25.496C13.3303 25.694 13.3551 26.0408 13.1621 26.2701C12.8725 26.6143 12.4623 27.0358 11.9871 27.5242C10.5637 28.9872 8.428 31.1821 8.33634 32.6981C8.3522 32.7001 8.37202 32.7019 8.39654 32.7019C9.41867 32.7019 12.0667 29.6637 13.1975 28.3666C14.3832 27.0063 14.5479 26.8324 14.8903 26.8324C15.7717 26.8324 16.0331 27.9721 16.3355 29.2912C16.4611 29.8396 16.691 30.8422 16.8989 31.0601C17.921 30.9866 18.0503 28.628 18.1452 26.8985L18.1524 26.7684C18.3583 23.0387 19.1891 22.3698 22.2803 19.8815C23.5021 18.8982 25.0224 17.6741 27.0511 15.8486L27.1774 15.7349C27.4002 15.5359 27.7383 15.5595 27.932 15.7881C28.1262 16.0166 28.1027 16.3631 27.8803 16.5624L27.7559 16.6745C25.7059 18.5194 24.1076 19.806 22.9408 20.7451C19.8709 23.2164 19.399 23.5962 19.2206 26.8304L19.2134 26.96C19.0866 29.2765 18.9283 32.1596 16.8498 32.1596C15.8946 32.1596 15.603 30.8885 15.2946 29.5429C15.1943 29.1049 15.0407 28.4345 14.8913 28.0901C14.6601 28.3356 14.3131 28.7337 13.9952 29.0985C11.8353 31.5762 9.78209 33.7999 8.39654 33.7999Z" fill="url(#paint10_linear_2682_168947)"/>
<path d="M5.79147 32.0668C5.23832 32.0668 4.66602 31.5493 4.66602 30.6832C4.66602 29.4869 6.23792 27.8856 8.82658 25.3902C9.49463 24.7463 10.1256 24.1381 10.6828 23.5626C10.8924 23.346 11.2324 23.346 11.4421 23.5626C11.6518 23.7792 11.6518 24.1304 11.4421 24.347C10.8718 24.9362 10.2047 25.5793 9.5593 26.2014C7.94736 27.7548 5.73998 29.8826 5.73998 30.6829C5.73998 30.8492 5.79122 30.9301 5.81659 30.9555C7.10818 30.8792 8.04137 29.898 9.02878 28.8597C9.1427 28.7397 9.25636 28.6205 9.36978 28.5033C9.57945 28.2867 9.91969 28.2867 10.1291 28.5033C10.3388 28.7199 10.3388 29.0711 10.1291 29.2877C10.0179 29.4029 9.90651 29.5198 9.79484 29.6374C8.75022 30.7356 7.56632 31.9802 5.83599 32.0655C5.82778 32.066 5.80017 32.0668 5.79147 32.0668Z" fill="url(#paint11_linear_2682_168947)"/>
<path d="M4.41114 29.4665C3.48514 29.4665 2.93164 28.7553 2.93164 28.0677C2.93164 27.8227 3.00173 27.5657 3.13467 27.3254C3.57431 26.5266 4.63485 25.5902 6.56016 23.89C7.23022 23.2981 8.00395 22.6151 8.88697 21.8179C9.11982 21.6074 9.48667 21.6179 9.70662 21.8402C9.92657 22.0629 9.9161 22.4136 9.68326 22.6239C8.79674 23.4244 8.02006 24.1105 7.34732 24.7046C5.5767 26.2686 4.50809 27.2122 4.16084 27.8425C4.11626 27.9236 4.09182 28.0032 4.09182 28.0679C4.09182 28.0708 4.10552 28.3581 4.41168 28.3581C4.72858 28.3581 5.24073 28.1414 5.71662 27.8058C5.85412 27.709 5.98867 27.6094 6.12161 27.511C6.34988 27.3421 6.58568 27.1677 6.8247 27.0152C7.09111 26.845 7.45098 26.9143 7.62877 27.169C7.80629 27.4237 7.73458 27.768 7.4679 27.9378C7.26299 28.0684 7.05324 28.2235 6.83114 28.3879C6.69095 28.4916 6.54889 28.5966 6.4044 28.6985C6.07649 28.9291 5.22596 29.4665 4.41114 29.4665Z" fill="url(#paint12_linear_2682_168947)"/>
<path d="M30.4096 1.73333C30.2324 1.73333 30.0569 1.67666 29.9358 1.5669C29.7214 1.37287 29.7594 1.08614 30.0208 0.92687C30.4751 0.649833 30.9346 0.373849 31.4053 0.0978646C31.6705 -0.0578241 32.0559 -0.0241161 32.2651 0.173076C32.4747 0.370057 32.4293 0.656153 32.1639 0.811842C31.6994 1.08424 31.2462 1.35665 30.7973 1.6301C30.6836 1.69941 30.546 1.73333 30.4096 1.73333Z" fill="url(#paint13_linear_2682_168947)"/>
<path d="M24.161 6.93332C24.0374 6.93332 23.9148 6.87964 23.8301 6.77588C23.6867 6.60021 23.7038 6.34402 23.8641 6.18899C23.871 6.18218 23.8776 6.17637 23.8841 6.17076C24.0715 6.01512 24.3482 6.03596 24.4984 6.22004C24.6484 6.40411 24.6301 6.66992 24.4484 6.82195C24.4466 6.82355 24.4319 6.83557 24.4319 6.83557C24.3526 6.90127 24.2566 6.93332 24.161 6.93332Z" fill="url(#paint14_linear_2682_168947)"/>
<path d="M4.33345 26C3.65651 26 2.93164 25.5253 2.93164 24.8191C2.93164 24.4456 2.93164 24.0591 8.58927 18.8965C11.6847 16.0719 12.5079 15.2963 12.7033 15.109C12.7291 15.0809 12.7582 15.053 12.7905 15.0245C12.852 14.9703 12.9221 14.933 12.9951 14.9121C13.2826 14.6855 13.966 14.1271 15.5879 12.7523C16.6875 11.8204 17.7175 10.8815 18.7138 9.97364C19.5228 9.23632 20.3592 8.47397 21.2212 7.72622L21.9877 7.06219C22.216 6.86398 22.5539 6.8984 22.7424 7.13835C22.9309 7.3783 22.8984 7.73326 22.6699 7.93096L21.9041 8.59472C21.0523 9.3336 20.2206 10.0913 19.4166 10.8241C18.4133 11.7386 17.3756 12.6843 16.2611 13.6289C15.1821 14.5433 14.3892 15.2066 13.904 15.5999C13.6911 15.7723 13.5096 15.9196 13.3475 16.0153C13.2387 16.1184 13.0584 16.2874 12.7689 16.5563C12.1773 17.105 11.1272 18.0724 9.29253 19.7465C5.52243 23.1872 4.40695 24.39 4.08611 24.8102C4.1539 24.8444 4.24479 24.8741 4.33345 24.8741C4.87107 24.8741 5.63517 24.2719 6.0027 23.9826C6.23538 23.799 6.56913 23.841 6.74966 24.081C6.9297 24.3212 6.89841 24.6654 6.67368 24.86C5.90982 25.4633 5.1199 26 4.33345 26Z" fill="url(#paint15_linear_2682_168947)"/>
<path d="M27.8068 51.1335C27.4506 51.1335 27.082 51.1335 22.1583 45.2353C19.4648 42.0088 18.7248 41.1505 18.546 40.9468C18.5191 40.9196 18.4922 40.8896 18.4651 40.8559C18.4134 40.7917 18.3778 40.7187 18.3579 40.6426C18.1418 40.3428 17.6092 39.6304 16.298 37.9396C15.4093 36.7932 14.5138 35.7194 13.6479 34.6807C12.9447 33.8372 12.2176 32.9653 11.5044 32.0667L10.8552 31.2478C10.6664 31.0097 10.699 30.6573 10.9278 30.4611C11.1564 30.2649 11.4952 30.2988 11.6838 30.5367L12.3325 31.355C13.0372 32.243 13.7598 33.11 14.4588 33.9483C15.3309 34.9942 16.2329 36.0761 17.1338 37.238C18.0059 38.3628 18.6385 39.1895 19.0136 39.6953C19.178 39.9172 19.3186 40.1065 19.4099 40.2752C19.5079 40.3886 19.6693 40.5766 19.9258 40.8787C20.4491 41.4951 21.3717 42.5902 22.9685 44.5029C26.2497 48.4333 27.3969 49.5962 27.7974 49.931C27.83 49.8605 27.8583 49.7655 27.8583 49.6734C27.8583 49.1129 27.284 48.316 27.0081 47.9331C26.83 47.6862 26.878 47.3359 27.1156 47.1508C27.3529 46.9657 27.6894 47.0154 27.8673 47.2626C28.4205 48.0302 28.9324 48.8535 28.9324 49.6736C28.9332 50.3778 28.4804 51.1335 27.8068 51.1335ZM18.4987 40.8458H18.5024H18.4987Z" fill="url(#paint16_linear_2682_168947)"/>
<path d="M20.6098 21.6665C20.4484 21.6665 20.2895 21.5898 20.1873 21.4446C19.4991 20.4695 18.6856 19.7884 17.7437 19C16.8423 18.2454 15.8205 17.3898 14.7529 16.1246C14.6151 15.9613 14.4763 15.7993 14.3355 15.6393C14.141 15.4182 14.1565 15.0756 14.3702 14.8745C14.5838 14.6726 14.9145 14.6892 15.109 14.9103C15.2546 15.0761 15.3983 15.2434 15.5407 15.4121C16.5487 16.6068 17.4908 17.3955 18.4017 18.1581C19.3588 18.9596 20.2631 19.7165 21.0318 20.8056C21.2023 21.0471 21.1512 21.3859 20.9181 21.5622C20.8249 21.6326 20.7168 21.6665 20.6098 21.6665Z" fill="url(#paint17_linear_2682_168947)"/>
<path d="M46.5504 35.5333C46.3999 35.5333 46.2497 35.4761 46.1359 35.3621C45.6457 34.8713 45.165 34.3845 44.6937 33.9022C44.4711 33.6745 44.4781 33.3122 44.7093 33.0933C44.9405 32.8742 45.3079 32.881 45.5308 33.1087C45.9994 33.5878 46.4774 34.0718 46.9646 34.5599C47.1896 34.7852 47.1864 35.1475 46.9573 35.369C46.8445 35.4788 46.6973 35.5333 46.5504 35.5333Z" fill="url(#paint18_linear_2682_168947)"/>
<path d="M37.9245 26.0002C37.7749 26.0002 37.6261 25.9373 37.5194 25.8142C36.7236 24.8952 35.9778 24.0256 35.2824 23.2148C32.336 19.7788 30.0088 17.0648 29.0896 16.7982C28.6248 16.6632 27.8272 16.6176 26.983 16.5694C24.7072 16.4395 21.8747 16.2774 21.8747 14.1491C21.8747 13.1709 23.1236 12.8726 24.4457 12.5565C24.8758 12.4538 25.5348 12.2965 25.8735 12.1436C25.6322 11.9069 25.2408 11.5512 24.8826 11.2258C22.4485 9.01477 20.2637 6.91233 20.2637 5.49354C20.2637 4.73202 20.7587 4.3335 21.2478 4.3335C23.1856 4.3335 25.501 6.68123 27.1918 8.39581C27.6564 8.86713 28.0578 9.27377 28.3663 9.54443C28.5916 9.74204 28.6165 10.0881 28.422 10.3169C28.2269 10.5457 27.8864 10.5708 27.6614 10.3734C27.3232 10.0769 26.9093 9.65706 26.4297 9.17103C24.992 7.71317 22.8354 5.52626 21.3457 5.43215C21.3437 5.44839 21.342 5.46868 21.342 5.49379C21.342 6.54045 24.3268 9.2517 25.6014 10.4097C26.938 11.6238 27.1089 11.7925 27.1089 12.1431C27.1089 13.0459 25.9891 13.3132 24.6925 13.6232C24.154 13.7518 23.1689 13.9873 22.955 14.2001C23.0272 15.2465 25.3444 15.3789 27.0437 15.4761C27.9891 15.5301 28.8054 15.5768 29.3861 15.7452C30.5601 16.0859 32.3924 18.1769 36.0957 22.4957C36.7901 23.3054 37.5344 24.1735 38.3292 25.0913C38.526 25.3183 38.5043 25.6646 38.2805 25.8642C38.1781 25.9553 38.0509 26.0002 37.9245 26.0002Z" fill="url(#paint19_linear_2682_168947)"/>
<path d="M30.1097 8.66673C29.9678 8.66673 29.8257 8.61425 29.7176 8.50929C29.1284 7.93898 28.485 7.27141 27.8627 6.62598C26.3095 5.01427 24.182 2.80712 23.3817 2.80712C23.2157 2.80712 23.1348 2.85811 23.1091 2.88373C23.1892 4.17932 24.1687 5.11077 25.2052 6.0967C25.3249 6.21037 25.4441 6.32378 25.561 6.4372C25.7776 6.64687 25.7776 6.98687 25.561 7.19654C25.3444 7.40622 24.9932 7.40622 24.7766 7.19654C24.6617 7.08562 24.5448 6.97444 24.4277 6.86276C23.3293 5.81814 22.0841 4.63423 21.9991 2.90388C21.9988 2.89542 21.998 2.86756 21.998 2.85886C21.998 2.3057 22.5155 1.7334 23.3819 1.7334C24.5782 1.7334 26.1792 3.30506 28.6741 5.8935C29.3183 6.56181 29.9267 7.19306 30.5023 7.7502C30.7189 7.95987 30.7189 8.29987 30.5023 8.50954C30.3936 8.6145 30.2517 8.66673 30.1097 8.66673Z" fill="url(#paint20_linear_2682_168947)"/>
<path d="M30.9857 6.93333C30.8406 6.93333 30.6955 6.87273 30.5881 6.75258C29.799 5.87176 29.1225 5.09988 28.5367 4.43132C26.7454 2.38694 25.6643 1.15289 25.1031 1.15289C25.0177 1.15289 24.8825 1.21376 24.8267 1.26422C24.848 1.95921 25.2948 2.56769 25.7671 3.21089C25.9337 3.43783 26.1062 3.67279 26.2566 3.91068C26.424 4.17554 26.3564 4.53358 26.1049 4.71006C25.853 4.88655 25.5141 4.81499 25.3467 4.55013C25.2175 4.34615 25.0643 4.13763 24.9022 3.91655C24.3539 3.16977 23.7324 2.32339 23.7324 1.21296C23.7324 0.431998 24.5428 0 25.1031 0C26.1429 0 27.0787 1.06825 29.3401 3.64902C29.9236 4.31491 30.5972 5.08359 31.3831 5.96094C31.5905 6.19242 31.5806 6.55714 31.3611 6.77581C31.2552 6.881 31.1202 6.93333 30.9857 6.93333Z" fill="url(#paint21_linear_2682_168947)"/>
<path d="M44.8613 20.8C44.706 20.8 44.5522 20.7305 44.4458 20.5961C34.1296 7.57159 29.4207 2.09998 28.3369 1.20473C28.304 1.27555 28.2753 1.37127 28.2753 1.46441C28.2753 2.02604 28.8508 2.82452 29.1271 3.2082C29.3056 3.45568 29.2575 3.80667 29.0195 3.99216C28.7825 4.17842 28.4445 4.12809 28.2664 3.88009C27.7121 3.11118 27.1992 2.28598 27.1992 1.46415C27.1992 0.757236 27.6528 0 28.3277 0C28.7471 0 29.5279 0 45.2762 19.8835C45.4654 20.1221 45.4327 20.4752 45.2034 20.6719C45.103 20.758 44.9816 20.8 44.8613 20.8Z" fill="url(#paint22_linear_2682_168947)"/>
<path d="M32.1003 18.1999C31.9679 18.1999 31.8347 18.1552 31.7269 18.0635C31.4896 17.8623 31.4648 17.5113 31.671 17.2797C32.9931 15.796 34.5331 14.5608 36.0221 13.3662C36.8087 12.7351 37.6222 12.0828 38.379 11.4111C38.6118 11.2044 38.972 11.2217 39.1832 11.4486C39.3947 11.6756 39.3776 12.0272 39.1447 12.2336C38.3668 12.9238 37.5423 13.5852 36.7449 14.2247C35.292 15.3902 33.7895 16.5956 32.5301 18.009C32.4175 18.1353 32.2593 18.1999 32.1003 18.1999Z" fill="url(#paint23_linear_2682_168947)"/>
<path d="M11.8696 18.1999C11.714 18.1999 11.5586 18.14 11.442 18.0208C10.9814 17.5497 10.5122 17.0743 10.0337 16.595C9.80383 16.3645 9.80686 15.9944 10.0406 15.768C10.2744 15.5412 10.6503 15.5442 10.8802 15.7747C11.3617 16.2569 11.8339 16.7354 12.2973 17.2094C12.5247 17.4421 12.5176 17.8125 12.2813 18.0365C12.1664 18.1457 12.0179 18.1999 11.8696 18.1999Z" fill="url(#paint24_linear_2682_168947)"/>
<path d="M35.7494 47.6666C33.8141 47.6666 31.5016 45.228 29.8131 43.4476C29.3488 42.9581 28.948 42.5352 28.6396 42.254C28.4146 42.0488 28.3897 41.6894 28.584 41.4517C28.7781 41.2138 29.1181 41.1877 29.3436 41.393C29.6814 41.701 30.095 42.1373 30.5739 42.6424C32.0095 44.1564 34.1633 46.4274 35.6509 46.5255C35.6528 46.5086 35.6546 46.4875 35.6546 46.4617C35.6546 45.3745 32.6736 42.5584 31.4006 41.3555C30.0658 40.0945 29.8952 39.9193 29.8952 39.5551C29.8952 38.6174 31.0135 38.3396 32.3084 38.0176C32.8462 37.8841 33.8301 37.6395 34.0436 37.4185C33.9715 36.3313 31.6571 36.194 29.96 36.0931L29.8323 36.0855C26.1725 35.8665 25.5162 34.9828 23.0745 31.695C22.1096 30.3954 20.9085 28.7784 19.1171 26.6207L18.6654 26.0776C18.4691 25.8418 18.4908 25.4821 18.714 25.2748C18.9375 25.0677 19.2778 25.0906 19.4741 25.3262L19.9269 25.8708C21.7374 28.0514 22.9999 29.7515 23.9217 30.9928C26.3466 34.2579 26.7193 34.7599 29.8929 34.9496L30.0201 34.9572C32.2932 35.0921 35.1223 35.2602 35.1223 37.4712C35.1223 38.4872 33.875 38.7971 32.5546 39.1254C32.125 39.2321 31.467 39.3954 31.1287 39.5543C31.3697 39.8002 31.7606 40.1696 32.1183 40.5076C34.5493 42.8042 36.7313 44.988 36.7313 46.4617C36.732 47.2527 36.2376 47.6666 35.7494 47.6666Z" fill="url(#paint25_linear_2682_168947)"/>
<path d="M33.6131 49.4001C32.4167 49.4001 30.8154 47.8283 28.3205 45.2397C27.6763 44.5717 27.0681 43.9405 26.4925 43.3834C26.2759 43.1737 26.2759 42.8337 26.4925 42.624C26.7091 42.4144 27.0604 42.4144 27.277 42.624C27.8662 43.1941 28.5096 43.8616 29.1316 44.507C30.6852 46.1187 32.8127 48.326 33.6131 48.326C33.7788 48.326 33.8597 48.275 33.8857 48.2494C33.8055 46.9541 32.826 46.0227 31.7898 45.037C31.67 44.9231 31.5506 44.8097 31.4336 44.696C31.217 44.4864 31.217 44.1464 31.4336 43.9367C31.6503 43.7271 32.0018 43.7271 32.2181 43.9367C32.333 44.0479 32.4499 44.1591 32.5673 44.2707C33.6658 45.3153 34.9104 46.4992 34.9957 48.2295C34.996 48.2382 34.9967 48.2658 34.9967 48.2745C34.9967 48.8276 34.4793 49.4001 33.6131 49.4001Z" fill="url(#paint26_linear_2682_168947)"/>
<path d="M31.8656 51.1333C31.6212 51.1333 31.3644 51.0632 31.1239 50.9305C30.3249 50.4906 29.3883 49.43 27.6881 47.5049C27.0963 46.8348 26.4134 46.0611 25.6162 45.178C25.406 44.9451 25.416 44.5783 25.6386 44.3583C25.8612 44.1381 26.2121 44.1491 26.4221 44.3817C27.2227 45.2682 27.9087 46.0449 28.5028 46.7177C30.0666 48.4884 31.0101 49.557 31.6404 49.9043C31.7216 49.9489 31.8014 49.9733 31.8659 49.9733C31.8687 49.9733 32.156 49.9596 32.156 49.6532C32.156 49.3365 31.9393 48.8241 31.6037 48.3479C31.5074 48.2112 31.4078 48.0769 31.3098 47.9443C31.1406 47.7157 30.9657 47.4794 30.8135 47.2401C30.6438 46.9737 30.7123 46.6135 30.9673 46.436C31.2222 46.2582 31.566 46.3302 31.7359 46.5969C31.8669 46.802 32.0222 47.0121 32.1865 47.2344C32.29 47.3744 32.3947 47.5159 32.4964 47.6601C32.7275 47.9881 33.2648 48.8386 33.2648 49.6532C33.2643 50.5798 32.5532 51.1333 31.8656 51.1333Z" fill="url(#paint27_linear_2682_168947)"/>
<path d="M5.07398 24.2665C4.94199 24.2665 4.81105 24.1899 4.72052 24.0417C4.44468 23.589 4.16991 23.1315 3.89514 22.6626C3.73882 22.3962 3.77266 22.0093 3.97065 21.7988C4.16843 21.5882 4.45611 21.6341 4.612 21.9005C4.88318 22.3628 5.15457 22.8144 5.4266 23.2611C5.58651 23.5238 5.55817 23.9115 5.36335 24.1269C5.27853 24.2209 5.17594 24.2665 5.07398 24.2665Z" fill="url(#paint28_linear_2682_168947)"/>
<path d="M19.0728 39.8667C18.9256 39.8667 18.7789 39.8018 18.6721 39.674C18.4709 39.4336 18.4872 39.0613 18.7084 38.8427C18.8739 38.6792 19.0412 38.5176 19.21 38.3576C20.4047 37.2236 21.1932 36.164 21.9558 35.1392C22.7573 34.0622 23.5145 33.045 24.6036 32.18C24.8451 31.9884 25.1842 32.0454 25.3602 32.3078C25.5368 32.5703 25.4839 32.9385 25.2426 33.1301C24.2676 33.9044 23.5864 34.8198 22.7977 35.8792C22.0429 36.8933 21.1877 38.0428 19.9222 39.2439C19.759 39.399 19.5969 39.5554 19.4367 39.7135C19.3331 39.816 19.2027 39.8667 19.0728 39.8667Z" fill="url(#paint29_linear_2682_168947)"/>
</g>
<defs>
<linearGradient id="paint0_linear_2682_168947" x1="19.6151" y1="42.4668" x2="21.8251" y2="42.4668" gradientUnits="userSpaceOnUse">
<stop stop-color="#DC2430"/>
<stop offset="1" stop-color="#7B4397"/>
</linearGradient>
<linearGradient id="paint1_linear_2682_168947" x1="30.665" y1="17.3335" x2="48.345" y2="17.3335" gradientUnits="userSpaceOnUse">
<stop stop-color="#DC2430"/>
<stop offset="1" stop-color="#7B4397"/>
</linearGradient>
<linearGradient id="paint2_linear_2682_168947" x1="45.9762" y1="19.0667" x2="51.8695" y2="19.0667" gradientUnits="userSpaceOnUse">
<stop stop-color="#DC2430"/>
<stop offset="1" stop-color="#7B4397"/>
</linearGradient>
<linearGradient id="paint3_linear_2682_168947" x1="47.7106" y1="21.6667" x2="53.6039" y2="21.6667" gradientUnits="userSpaceOnUse">
<stop stop-color="#DC2430"/>
<stop offset="1" stop-color="#7B4397"/>
</linearGradient>
<linearGradient id="paint4_linear_2682_168947" x1="35.7939" y1="25.1335" x2="52.7373" y2="25.1335" gradientUnits="userSpaceOnUse">
<stop stop-color="#DC2430"/>
<stop offset="1" stop-color="#7B4397"/>
</linearGradient>
<linearGradient id="paint5_linear_2682_168947" x1="51.6093" y1="27.7334" x2="53.0826" y2="27.7334" gradientUnits="userSpaceOnUse">
<stop stop-color="#DC2430"/>
<stop offset="1" stop-color="#7B4397"/>
</linearGradient>
<linearGradient id="paint6_linear_2682_168947" x1="28.1386" y1="47.6667" x2="28.8753" y2="47.6667" gradientUnits="userSpaceOnUse">
<stop stop-color="#DC2430"/>
<stop offset="1" stop-color="#7B4397"/>
</linearGradient>
<linearGradient id="paint7_linear_2682_168947" x1="25.6815" y1="49.4001" x2="27.8915" y2="49.4001" gradientUnits="userSpaceOnUse">
<stop stop-color="#DC2430"/>
<stop offset="1" stop-color="#7B4397"/>
</linearGradient>
<linearGradient id="paint8_linear_2682_168947" x1="36.443" y1="28.6001" x2="42.3363" y2="28.6001" gradientUnits="userSpaceOnUse">
<stop stop-color="#DC2430"/>
<stop offset="1" stop-color="#7B4397"/>
</linearGradient>
<linearGradient id="paint9_linear_2682_168947" x1="35.2147" y1="6.06665" x2="37.4247" y2="6.06665" gradientUnits="userSpaceOnUse">
<stop stop-color="#DC2430"/>
<stop offset="1" stop-color="#7B4397"/>
</linearGradient>
<linearGradient id="paint10_linear_2682_168947" x1="8.99701" y1="15.5999" x2="26.677" y2="15.5999" gradientUnits="userSpaceOnUse">
<stop stop-color="#DC2430"/>
<stop offset="1" stop-color="#7B4397"/>
</linearGradient>
<linearGradient id="paint11_linear_2682_168947" x1="5.24379" y1="23.4001" x2="11.1371" y2="23.4001" gradientUnits="userSpaceOnUse">
<stop stop-color="#DC2430"/>
<stop offset="1" stop-color="#7B4397"/>
</linearGradient>
<linearGradient id="paint12_linear_2682_168947" x1="3.50942" y1="21.6665" x2="9.40275" y2="21.6665" gradientUnits="userSpaceOnUse">
<stop stop-color="#DC2430"/>
<stop offset="1" stop-color="#7B4397"/>
</linearGradient>
<linearGradient id="paint13_linear_2682_168947" x1="30.0135" y1="0" x2="32.2235" y2="0" gradientUnits="userSpaceOnUse">
<stop stop-color="#DC2430"/>
<stop offset="1" stop-color="#7B4397"/>
</linearGradient>
<linearGradient id="paint14_linear_2682_168947" x1="23.8046" y1="6.06665" x2="24.5413" y2="6.06665" gradientUnits="userSpaceOnUse">
<stop stop-color="#DC2430"/>
<stop offset="1" stop-color="#7B4397"/>
</linearGradient>
<linearGradient id="paint15_linear_2682_168947" x1="4.59275" y1="6.93335" x2="21.5361" y2="6.93335" gradientUnits="userSpaceOnUse">
<stop stop-color="#DC2430"/>
<stop offset="1" stop-color="#7B4397"/>
</linearGradient>
<linearGradient id="paint16_linear_2682_168947" x1="12.2491" y1="30.3335" x2="27.7191" y2="30.3335" gradientUnits="userSpaceOnUse">
<stop stop-color="#DC2430"/>
<stop offset="1" stop-color="#7B4397"/>
</linearGradient>
<linearGradient id="paint17_linear_2682_168947" x1="14.777" y1="14.7332" x2="20.6703" y2="14.7332" gradientUnits="userSpaceOnUse">
<stop stop-color="#DC2430"/>
<stop offset="1" stop-color="#7B4397"/>
</linearGradient>
<linearGradient id="paint18_linear_2682_168947" x1="44.7479" y1="32.9333" x2="46.9579" y2="32.9333" gradientUnits="userSpaceOnUse">
<stop stop-color="#DC2430"/>
<stop offset="1" stop-color="#7B4397"/>
</linearGradient>
<linearGradient id="paint19_linear_2682_168947" x1="21.7803" y1="4.3335" x2="37.2503" y2="4.3335" gradientUnits="userSpaceOnUse">
<stop stop-color="#DC2430"/>
<stop offset="1" stop-color="#7B4397"/>
</linearGradient>
<linearGradient id="paint20_linear_2682_168947" x1="22.7203" y1="1.7334" x2="30.0869" y2="1.7334" gradientUnits="userSpaceOnUse">
<stop stop-color="#DC2430"/>
<stop offset="1" stop-color="#7B4397"/>
</linearGradient>
<linearGradient id="paint21_linear_2682_168947" x1="24.3824" y1="0" x2="31.0124" y2="0" gradientUnits="userSpaceOnUse">
<stop stop-color="#DC2430"/>
<stop offset="1" stop-color="#7B4397"/>
</linearGradient>
<linearGradient id="paint22_linear_2682_168947" x1="28.7159" y1="0" x2="44.1859" y2="0" gradientUnits="userSpaceOnUse">
<stop stop-color="#DC2430"/>
<stop offset="1" stop-color="#7B4397"/>
</linearGradient>
<linearGradient id="paint23_linear_2682_168947" x1="32.1812" y1="11.2666" x2="38.8112" y2="11.2666" gradientUnits="userSpaceOnUse">
<stop stop-color="#DC2430"/>
<stop offset="1" stop-color="#7B4397"/>
</linearGradient>
<linearGradient id="paint24_linear_2682_168947" x1="10.0799" y1="15.5999" x2="12.2899" y2="15.5999" gradientUnits="userSpaceOnUse">
<stop stop-color="#DC2430"/>
<stop offset="1" stop-color="#7B4397"/>
</linearGradient>
<linearGradient id="paint25_linear_2682_168947" x1="20.0479" y1="25.1333" x2="35.5179" y2="25.1333" gradientUnits="userSpaceOnUse">
<stop stop-color="#DC2430"/>
<stop offset="1" stop-color="#7B4397"/>
</linearGradient>
<linearGradient id="paint26_linear_2682_168947" x1="27.0523" y1="42.4668" x2="34.419" y2="42.4668" gradientUnits="userSpaceOnUse">
<stop stop-color="#DC2430"/>
<stop offset="1" stop-color="#7B4397"/>
</linearGradient>
<linearGradient id="paint27_linear_2682_168947" x1="26.1148" y1="44.2" x2="32.7448" y2="44.2" gradientUnits="userSpaceOnUse">
<stop stop-color="#DC2430"/>
<stop offset="1" stop-color="#7B4397"/>
</linearGradient>
<linearGradient id="paint28_linear_2682_168947" x1="3.94132" y1="21.6665" x2="5.41465" y2="21.6665" gradientUnits="userSpaceOnUse">
<stop stop-color="#DC2430"/>
<stop offset="1" stop-color="#7B4397"/>
</linearGradient>
<linearGradient id="paint29_linear_2682_168947" x1="19.109" y1="32.0667" x2="25.0024" y2="32.0667" gradientUnits="userSpaceOnUse">
<stop stop-color="#DC2430"/>
<stop offset="1" stop-color="#7B4397"/>
</linearGradient>
<clipPath id="clip0_2682_168947">
<rect width="51.1333" height="52" fill="white" transform="translate(2.93359)"/>
</clipPath>
</defs>
</svg>
