<svg width="55" height="55" viewBox="0 0 55 55" fill="none" xmlns="http://www.w3.org/2000/svg">
<g clip-path="url(#clip0_2682_167105)">
<path d="M18.171 7.32067C16.9283 5.29814 14.0745 7.37254 13.201 8.83898C12.3511 10.2661 11.8394 13.5692 13.8753 14.1427C14.069 14.1971 14.3219 14.1099 14.4159 13.9018C14.9299 12.7663 14.5331 11.4119 15.2312 10.3379C16.0018 9.15279 17.478 9.47744 18.171 8.31226C18.3356 8.03522 18.3405 7.59657 18.171 7.32067Z" fill="#E0DFE6"/>
<path d="M24.9372 7.85632C24.3609 7.07165 23.2201 7.75571 23.2089 8.63985C23.1823 10.7707 24.2591 12.6501 23.4537 14.7832C22.8552 16.368 21.4998 17.7164 20.1311 18.4831C18.6118 19.3342 16.8101 19.5725 15.1359 19.2353C13.8992 18.9862 12.7784 18.195 11.5073 18.2488C11.1938 18.2622 10.9346 18.5854 11.0297 18.9349C11.5911 20.9956 13.9486 21.7538 15.695 22.0479C17.8655 22.4133 20.1056 21.8507 21.98 20.6122C25.9031 18.0211 28.088 12.1453 24.9372 7.85632Z" fill="#E0DFE6"/>
<path d="M54.9481 12.1726C54.6356 10.4608 52.9356 9.12714 51.9177 7.91807C50.3685 6.07825 48.6831 4.46388 47.0701 2.71185C46.7415 2.35471 46.2467 2.80533 46.447 3.238C47.7363 6.02324 48.9998 8.49496 50.7505 10.9912C51.0383 11.4013 51.3271 11.8106 51.6268 12.2105C51.4919 12.2242 51.3568 12.2376 51.2219 12.2513C50.2979 12.3436 49.4492 12.3764 48.6193 12.6247C47.8331 11.9851 46.3985 12.3556 46.4071 13.7525C46.4451 19.769 46.3391 26.977 41.114 30.5629C36.5906 33.667 30.2764 33.9213 25.1484 34.9263C20.2545 35.8854 15.1494 36.5324 11.4104 40.4714C8.34611 43.6996 6.50214 48.1693 6.62922 52.8103C6.6563 53.7988 7.9581 54.0188 8.21486 53.0452C9.5 48.1707 11.4937 43.0426 15.7954 40.5381C18.3863 39.0297 21.4818 38.7573 24.3297 38.2265C27.3236 37.6688 30.3131 37.0745 33.3011 36.4802C37.9008 35.5653 42.7949 34.2753 45.7957 30.0122C48.6753 25.9213 49.1026 20.725 49.1271 15.718C51.6015 15.9677 55.5114 15.2591 54.9481 12.1726Z" fill="#E0DFE6"/>
<path d="M41.3239 12.4359C39.9714 12.1631 38.1612 11.7581 36.8597 12.3888C36.4761 12.5747 36.4165 13.263 36.723 13.5506C37.7196 14.4855 39.3933 14.7987 40.6323 15.1815C42.2648 15.686 42.952 12.7642 41.3239 12.4359Z" fill="#E0DFE6"/>
<path d="M52.51 47.3788C52.4035 46.4989 52.0006 45.7621 51.3993 45.181C51.0499 44.8432 50.4871 44.6842 49.9967 44.498C50.2314 44.0674 50.5082 43.6581 50.7014 43.1992C51.2051 42.0032 50.0892 40.3022 48.8783 41.2038C47.3106 42.3706 45.527 45.627 47.9098 46.9584C48.4942 47.285 49.6126 46.9236 49.6186 48.0694C49.6207 48.4909 48.1335 49.7946 47.8366 50.1424C47.3603 50.7007 46.6903 51.926 45.9018 51.944C45.1388 51.9617 43.9021 50.2156 43.4984 49.6279C43.0646 48.9963 42.1792 48.6685 41.6123 49.362C40.5493 50.6622 39.0803 51.9084 38.9472 53.7165C38.9126 54.1863 39.3576 54.412 39.7092 54.3519C40.7883 54.1674 41.6292 53.2574 42.393 52.3291C43.2862 53.4612 44.3838 54.4827 45.6468 54.8994C47.5119 55.5147 48.853 53.1833 49.9816 51.9152C51.1004 50.6582 52.7485 49.3506 52.51 47.3788Z" fill="#E0DFE6"/>
<path d="M20.7749 44.7399C20.5976 44.2671 20.1853 43.959 19.7142 43.959C19.1176 43.959 18.6591 44.4438 18.2442 44.8474C17.9221 45.1609 17.5984 45.4354 17.2247 45.6737C16.8484 45.914 16.3901 46.1103 16.1122 46.4843C15.8135 46.8862 15.8263 47.4531 16.2607 47.7447C17.6585 48.6838 21.5624 46.8403 20.7749 44.7399Z" fill="#E0DFE6"/>
<path d="M48.4894 46.9589C47.7998 47.2668 47.4863 47.4783 46.948 48.0503C46.0988 48.953 46.1938 49.4119 45.3243 48.4083C44.6251 47.6014 44.0741 46.6716 42.9009 46.7492C41.8536 46.8184 40.9497 47.9694 40.2471 48.6799C39.3841 49.5527 38.0914 50.4607 38.163 51.8656C38.1911 52.4186 38.7466 52.6469 39.1205 52.2997C39.8479 51.6242 42.376 49.1605 43.2788 49.7168C44.1191 50.2347 44.1827 51.4877 45.3504 51.8639C47.2709 52.483 49.1701 50.1466 49.8253 48.4214C50.1289 47.6225 49.2159 46.6346 48.4894 46.9589Z" fill="#E0DFE6"/>
<path d="M49.8446 40.3726C49.8313 40.3241 49.818 40.2757 49.8047 40.2272C49.7094 39.8798 49.4516 39.5517 49.1149 39.4722C49.0753 39.4628 49.036 39.4536 48.9964 39.4442C48.5881 39.3479 48.1071 39.422 47.8147 39.786C47.2605 40.4766 46.709 41.1797 46.2061 41.916C45.7736 42.549 45.3108 43.1689 45.2856 43.9906C45.2671 44.592 45.89 44.921 46.3407 44.6533C47.5691 43.9242 48.5641 42.7516 49.5321 41.666C49.8303 41.3317 49.9696 40.8283 49.8446 40.3726Z" fill="#E0DFE6"/>
<path d="M49.5041 7.45623C48.1294 6.26341 46.2266 8.18218 47.5268 9.62041C48.2594 10.4304 48.3839 10.1574 47.6149 10.5313C47.1813 10.7423 46.6503 10.6895 46.199 10.9307C45.411 11.3516 44.8811 12.0539 44.6477 12.9874C44.2779 14.4666 44.3287 16.1323 44.0311 17.6452C43.7738 18.9526 43.4381 20.2449 43.0024 21.4947C42.0046 24.3569 40.3811 27.08 38.0757 28.8726C35.545 30.8404 32.3961 31.5851 29.3899 32.1549C23.4502 33.2807 17.0373 33.3087 11.5455 36.359C6.47397 39.1756 4.98364 46.2279 4.86932 51.9888C4.85395 52.7674 5.85445 52.8609 6.06799 52.1663C7.14636 48.6549 7.68072 44.2074 9.61688 41.126C11.6437 37.9001 15.8293 36.9897 19.13 36.4351C25.3437 35.391 32.0508 35.7351 37.8049 32.5636C38.0887 32.4071 38.3645 32.2398 38.6343 32.0648C38.7426 32.3153 38.9322 32.5146 39.221 32.5687C41.1356 32.9262 42.6597 31.2667 43.7488 29.7308C44.9048 28.1004 45.3954 26.2717 45.9899 24.3507C46.1566 23.812 45.7902 23.3334 45.3417 23.2231C45.8597 21.8918 46.2714 20.5074 46.5813 19.1102C46.8992 17.6769 46.9381 16.1759 47.2503 14.7542C47.6206 13.0683 48.5638 13.7843 49.7505 13.082C52.0117 11.7444 51.1684 8.90044 49.5041 7.45623Z" fill="#E0DFE6"/>
<path d="M23.2541 13.2732C21.6943 13.554 20.5039 14.8628 19.1599 15.6894C17.6779 16.6006 15.9912 16.8925 14.5064 17.77C13.9551 18.0961 14.0991 19.0259 14.6777 19.2043C17.8154 20.1711 22.9427 18.2962 24.407 14.9141C24.807 13.9895 24.1523 13.1116 23.2541 13.2732Z" fill="#E0DFE6"/>
<path d="M6.3659 53.5605C6.06798 53.5605 5.81929 53.304 5.80471 52.9748C5.79273 52.7006 5.78648 52.4253 5.78648 52.1488C5.78648 49.4793 6.16798 47.1221 6.92005 45.1421C10.5643 35.5476 18.7326 34.6669 25.939 33.8902C28.9113 33.5701 31.7185 33.2672 34.1263 32.4187C39.3918 30.5626 45.4355 26.9251 45.4355 15.1731C45.4355 14.7914 45.4318 14.4098 45.4282 14.0295C45.4243 13.647 45.4206 13.2654 45.4206 12.8849L45.4214 12.5691C45.4225 12.2464 45.6508 11.9785 45.9454 11.9566C47.3498 11.8508 48.7328 11.7263 50.1468 11.5781L44.1667 1.66839L37.1846 11.4128L41.4842 11.5117C41.6387 11.5154 41.785 11.5883 41.8892 11.7135C41.9928 11.8389 42.0452 12.0056 42.0329 12.1743C42.0006 12.6375 41.9822 13.1038 41.9631 13.5721C41.9017 15.1078 41.8379 16.6951 41.3007 18.2781C39.2348 24.3662 33.8714 26.7145 29.4295 28.0797C28.4389 28.3842 27.01 28.5814 25.3554 28.8097C19.9656 29.5542 11.821 30.6783 5.74169 36.8741C2.63654 40.0387 1.12693 44.4751 1.12693 50.4358C1.12693 51.072 1.15766 51.7201 1.21808 52.3617C1.24985 52.6997 1.02511 53.0024 0.716523 53.0372C0.406112 53.066 0.131117 52.8266 0.0993471 52.4882C0.0345046 51.8045 0.00195312 51.1139 0.00195312 50.4355C0.00195312 44.1143 1.62875 39.3835 4.97478 35.9732C11.32 29.5071 19.6813 28.3522 25.2142 27.5887C26.8241 27.3663 28.2147 27.1745 29.1251 26.8943C35.4258 24.9576 38.7517 22.2522 40.246 17.8491C40.7218 16.4477 40.7791 15.0246 40.8395 13.5179C40.8501 13.2543 40.8608 12.9912 40.8738 12.7287L36.0359 12.6173C35.8229 12.6121 35.6307 12.4759 35.5396 12.265C35.4484 12.0546 35.4737 11.8055 35.6052 11.622L43.7636 0.236724C43.8753 0.0813865 44.0605 -0.00725558 44.229 0.00158013C44.4097 0.00956077 44.5761 0.112169 44.6756 0.277197L51.5994 11.7508C51.7078 11.9306 51.7223 12.1595 51.6382 12.3539C51.5536 12.5486 51.3828 12.6808 51.1869 12.7025C49.6122 12.8775 48.0888 13.0226 46.5461 13.1443C46.5477 13.4344 46.5506 13.7251 46.5532 14.0164C46.5573 14.4009 46.561 14.7866 46.561 15.1731C46.561 27.7195 40.1004 31.6061 34.4721 33.5901C31.9498 34.4791 29.084 34.788 26.0502 35.115C18.8209 35.8945 11.3455 36.7003 7.9591 45.6149C7.26432 47.4442 6.91172 49.6426 6.91172 52.1488C6.91172 52.4053 6.91719 52.6607 6.92865 52.9155C6.94375 53.255 6.70469 53.5434 6.39428 53.5597C6.38439 53.5602 6.37501 53.5605 6.3659 53.5605Z" fill="url(#paint0_linear_2682_167105)"/>
<path d="M16.1302 19.7782C16.062 19.7782 15.994 19.7771 15.9261 19.7751C11.6944 19.6554 8.1085 15.61 8.09574 10.9422C8.08246 6.21711 11.6691 2.12418 15.9281 2.00504C16.3393 1.99221 16.7576 2.01958 17.1643 2.08285C20.508 2.5996 23.19 4.81394 24.1639 7.8614C24.4131 8.6418 24.535 9.5362 24.5483 10.6763L24.5493 10.8479C24.5545 13.1095 23.6436 15.3814 22.0515 17.0842C20.4426 18.8034 18.295 19.7782 16.1302 19.7782ZM16.1164 3.23292C16.0633 3.23292 16.0099 3.23377 15.9568 3.2352C12.2938 3.33781 9.20874 6.86525 9.2202 10.9379C9.23114 14.9579 12.3155 18.4414 15.9555 18.5449C17.8846 18.5979 19.8229 17.7466 21.2658 16.2032C22.6426 14.7316 23.4296 12.7818 23.4251 10.8533L23.4241 10.688C23.4126 9.70208 23.3077 8.90915 23.1027 8.26728C22.2686 5.65647 19.9333 3.75366 17.0073 3.30132C16.7138 3.25601 16.4149 3.23292 16.1164 3.23292Z" fill="url(#paint1_linear_2682_167105)"/>
<path d="M16.2141 16.2119C16.1732 16.2119 16.1326 16.211 16.0917 16.2099C13.5561 16.1381 11.4077 13.7151 11.4004 10.919C11.3923 8.09015 13.5415 5.6398 16.093 5.56855C16.3415 5.56142 16.592 5.57738 16.8368 5.61501C18.8292 5.9234 20.4299 7.25047 21.014 9.07804C21.1648 9.55032 21.2385 10.0862 21.2461 10.7639L21.2468 10.8674C21.2502 12.2218 20.7054 13.5842 19.7531 14.6026C18.793 15.6299 17.5089 16.2119 16.2141 16.2119ZM16.2076 6.79785C16.179 6.79785 16.1506 6.79814 16.1219 6.79871C14.1662 6.85372 12.5189 8.73914 12.5251 10.9156C12.5306 13.0638 14.1774 14.9247 16.1212 14.98C17.1519 15.0074 18.1927 14.5505 18.9675 13.7225C19.7039 12.9347 20.1252 11.8946 20.1226 10.8691L20.1219 10.7793C20.1161 10.2458 20.0607 9.82223 19.9529 9.48448C19.5081 8.093 18.2539 7.07746 16.6797 6.83377C16.5243 6.80982 16.3657 6.79785 16.2076 6.79785Z" fill="url(#paint2_linear_2682_167105)"/>
<path d="M11.5609 23.7316C11.5385 23.7316 11.5161 23.7305 11.4935 23.7274C5.9545 23.0051 3.05664 16.9227 3.05664 11.2873C3.05664 10.8874 3.07122 10.4872 3.10013 10.097C3.12539 9.75839 3.39986 9.51014 3.70585 9.53323C4.01548 9.56087 4.2462 9.85787 4.22094 10.1962C4.19464 10.5536 4.1811 10.9204 4.1811 11.2873C4.1811 16.3798 6.7386 21.8682 11.6268 22.5052C11.9349 22.5451 12.1554 22.8512 12.1184 23.189C12.0843 23.5016 11.8416 23.7316 11.5609 23.7316Z" fill="url(#paint3_linear_2682_167105)"/>
<path d="M1.87231 12.4401C1.74262 12.4401 1.61268 12.3913 1.50669 12.2919C1.27102 12.0707 1.24393 11.6822 1.44601 11.424C2.01631 10.696 2.62203 9.95125 3.41056 9.00839C3.51368 8.88498 3.65847 8.81287 3.81107 8.80859C3.96524 8.81144 4.11133 8.86873 4.22044 8.98616C4.33762 9.11271 4.45585 9.24696 4.57512 9.38234C4.97225 9.83354 5.4225 10.3446 5.79046 10.4657C6.08759 10.5635 6.25634 10.9064 6.16702 11.2321C6.07796 11.5579 5.76442 11.7409 5.46677 11.6443C4.84777 11.4411 4.33346 10.8807 3.83946 10.3206C3.24806 11.0338 2.76187 11.6354 2.2999 12.2252C2.18819 12.3671 2.03064 12.4401 1.87231 12.4401Z" fill="url(#paint4_linear_2682_167105)"/>
<path d="M38.6321 53.5698C38.4949 53.5698 38.3571 53.5148 38.2493 53.405L34.6697 49.7625C34.5572 49.6479 34.4926 49.4883 34.4903 49.3207C34.4882 49.1525 34.5489 48.9909 34.6583 48.8732L38.4603 44.7794L34.9064 40.7418C34.7036 40.5115 34.696 40.1492 34.8887 39.9089C35.4491 39.2098 35.9637 38.6152 36.4616 38.04C36.9301 37.4985 37.373 36.9863 37.7874 36.4619C37.8874 36.3356 38.0301 36.2592 38.1824 36.2498C38.3405 36.245 38.4845 36.3005 38.5959 36.414L42.5162 40.4123L45.9679 36.6959C46.0752 36.5801 46.2177 36.5112 46.3724 36.5191C46.5237 36.5223 46.6674 36.5915 46.771 36.7124L50.0955 40.5673C50.3051 40.8102 50.2988 41.1918 50.0819 41.427L46.8947 44.8769L49.8465 47.887C49.9613 48.0044 50.0262 48.1686 50.0254 48.341C50.0246 48.5129 49.958 48.6768 49.8416 48.7925C49.4538 49.1787 49.0593 49.5578 48.6632 49.9383C47.8075 50.7597 46.9226 51.6091 46.1075 52.544C46.0018 52.6654 45.8552 52.7344 45.7023 52.7347C45.5482 52.7347 45.4018 52.6665 45.2961 52.5463L42.6185 49.5042L39.0269 53.3916C38.9181 53.5105 38.7754 53.5698 38.6321 53.5698ZM35.866 49.2993L38.6202 52.1016L42.2339 48.1908C42.3394 48.0765 42.4813 48.013 42.6292 48.013C42.7862 48.015 42.9297 48.0828 43.0341 48.2014L45.7052 51.2363C46.4323 50.4439 47.188 49.7183 47.9226 49.0128C48.1598 48.7854 48.3963 48.5582 48.6312 48.3294L45.7002 45.3406C45.5883 45.2263 45.5234 45.067 45.5213 44.8994C45.5192 44.7318 45.5797 44.5705 45.6883 44.4528L48.9015 40.9749L46.3479 38.0141L42.9216 41.7029C42.7076 41.9346 42.3641 41.9389 42.144 41.7145L38.2514 37.7447C37.9389 38.123 37.6152 38.4972 37.2783 38.8863C36.8921 39.3326 36.4957 39.7909 36.0775 40.2986L39.6563 44.3641C39.8701 44.6072 39.8654 44.9932 39.6457 45.23L35.866 49.2993Z" fill="url(#paint5_linear_2682_167105)"/>
<path d="M17.6016 48.5094C17.5784 48.5094 17.5558 48.5092 17.5329 48.5086C15.7446 48.4644 14.4072 46.9424 14.422 44.9683C14.4358 43.153 15.7821 41.617 17.4235 41.5438C17.5688 41.5381 17.7193 41.5429 17.8693 41.5609C19.3938 41.7458 20.5596 42.8301 20.8401 44.3233C20.8646 44.4524 20.8799 44.5932 20.8862 44.7414C20.9258 45.7162 20.5794 46.6881 19.9362 47.4078C19.3078 48.1104 18.4607 48.5094 17.6016 48.5094ZM17.543 42.7714C17.5186 42.7714 17.4943 42.7722 17.4701 42.7734C16.4352 42.8195 15.555 43.8291 15.5462 44.9786C15.5353 46.4553 16.5498 47.2533 17.5579 47.2779C18.1326 47.2927 18.7039 47.0259 19.1323 46.5471C19.5649 46.0631 19.7886 45.4409 19.7625 44.7956C19.7591 44.7189 19.7524 44.6445 19.7383 44.5727C19.5578 43.6105 18.7756 42.9093 17.7451 42.7842C17.6771 42.7759 17.6097 42.7714 17.543 42.7714Z" fill="url(#paint6_linear_2682_167105)"/>
<path d="M20.9349 44.8116C20.6789 44.8116 20.4479 44.6198 20.3878 44.3356C20.3175 44.0044 20.5057 43.6738 20.8081 43.5968C21.2721 43.4785 21.7349 43.3295 22.1833 43.1533C22.4765 43.0396 22.7979 43.2046 22.9026 43.5247C23.0073 43.8448 22.8554 44.1971 22.5633 44.3119C22.0742 44.5038 21.569 44.6665 21.0628 44.7956C21.0198 44.8065 20.9768 44.8116 20.9349 44.8116ZM25.3715 42.6773C25.1913 42.6773 25.0142 42.5827 24.9057 42.4069C24.7317 42.1255 24.7989 41.743 25.0562 41.5524C25.4489 41.2611 25.8351 40.941 26.203 40.601C26.4403 40.3815 26.7957 40.4143 26.9952 40.6739C27.1957 40.9336 27.1658 41.3218 26.9285 41.541C26.5304 41.9092 26.1127 42.2561 25.6866 42.5719C25.5898 42.6434 25.4804 42.6773 25.3715 42.6773ZM28.8592 38.9914C28.7436 38.9914 28.6272 38.9527 28.5269 38.872C28.2767 38.6713 28.2228 38.286 28.4066 38.0118C28.6884 37.5917 28.9543 37.1482 29.197 36.6941C29.354 36.4009 29.6988 36.3037 29.9665 36.4738C30.2345 36.6457 30.3246 37.0228 30.1678 37.3161C29.9053 37.8066 29.6181 38.2857 29.3131 38.7403C29.203 38.9045 29.0321 38.9914 28.8592 38.9914Z" fill="url(#paint7_linear_2682_167105)"/>
<path d="M31.374 27.3902C31.1068 27.3902 30.8696 27.1807 30.8214 26.8826C30.7381 26.3693 30.6266 25.8554 30.491 25.3546C30.4024 25.0288 30.572 24.6862 30.8699 24.5899C31.166 24.4921 31.4805 24.6785 31.5686 25.0046C31.7165 25.549 31.8376 26.1082 31.9284 26.6671C31.9829 27.0017 31.779 27.3215 31.4735 27.3805C31.4399 27.3871 31.4071 27.3902 31.374 27.3902ZM29.6777 22.4234C29.4855 22.4234 29.2985 22.3157 29.1933 22.1213C28.9527 21.6766 28.6848 21.2334 28.3973 20.8039C28.2134 20.53 28.2673 20.1444 28.5176 19.9437C28.7678 19.743 29.1204 19.8012 29.3035 20.0754C29.6131 20.5374 29.9017 21.0148 30.161 21.4945C30.3191 21.7869 30.2306 22.1643 29.9634 22.3373C29.8741 22.3957 29.7751 22.4234 29.6777 22.4234ZM26.6004 18.3105C26.4632 18.3105 26.3259 18.2561 26.2176 18.1458C25.8694 17.7915 25.4981 17.4398 25.1137 17.1006C24.8718 16.8871 24.834 16.4995 25.0288 16.2353C25.2244 15.9699 25.5783 15.9292 25.8194 16.1423C26.2246 16.5001 26.616 16.8706 26.9835 17.2445C27.2108 17.476 27.2241 17.8656 27.0124 18.1144C26.9015 18.2444 26.7512 18.3105 26.6004 18.3105Z" fill="url(#paint8_linear_2682_167105)"/>
</g>
<defs>
<linearGradient id="paint0_linear_2682_167105" x1="4.30949" y1="0.000976562" x2="48.2463" y2="0.000976563" gradientUnits="userSpaceOnUse">
<stop stop-color="#DC2430"/>
<stop offset="1" stop-color="#7B4397"/>
</linearGradient>
<linearGradient id="paint1_linear_2682_167105" x1="9.46684" y1="2.00195" x2="23.4524" y2="2.00195" gradientUnits="userSpaceOnUse">
<stop stop-color="#DC2430"/>
<stop offset="1" stop-color="#7B4397"/>
</linearGradient>
<linearGradient id="paint2_linear_2682_167105" x1="12.2209" y1="5.56689" x2="20.5904" y2="5.56689" gradientUnits="userSpaceOnUse">
<stop stop-color="#DC2430"/>
<stop offset="1" stop-color="#7B4397"/>
</linearGradient>
<linearGradient id="paint3_linear_2682_167105" x1="3.81213" y1="9.53174" x2="11.5181" y2="9.53174" gradientUnits="userSpaceOnUse">
<stop stop-color="#DC2430"/>
<stop offset="1" stop-color="#7B4397"/>
</linearGradient>
<linearGradient id="paint4_linear_2682_167105" x1="1.71724" y1="8.80859" x2="5.86557" y2="8.80859" gradientUnits="userSpaceOnUse">
<stop stop-color="#DC2430"/>
<stop offset="1" stop-color="#7B4397"/>
</linearGradient>
<linearGradient id="paint5_linear_2682_167105" x1="35.8034" y1="36.2495" x2="49.1982" y2="36.2495" gradientUnits="userSpaceOnUse">
<stop stop-color="#DC2430"/>
<stop offset="1" stop-color="#7B4397"/>
</linearGradient>
<linearGradient id="paint6_linear_2682_167105" x1="14.9608" y1="41.5415" x2="20.4581" y2="41.5415" gradientUnits="userSpaceOnUse">
<stop stop-color="#DC2430"/>
<stop offset="1" stop-color="#7B4397"/>
</linearGradient>
<linearGradient id="paint7_linear_2682_167105" x1="21.1957" y1="36.3901" x2="29.5867" y2="36.3901" gradientUnits="userSpaceOnUse">
<stop stop-color="#DC2430"/>
<stop offset="1" stop-color="#7B4397"/>
</linearGradient>
<linearGradient id="paint8_linear_2682_167105" x1="25.4904" y1="16.0059" x2="31.4684" y2="16.0059" gradientUnits="userSpaceOnUse">
<stop stop-color="#DC2430"/>
<stop offset="1" stop-color="#7B4397"/>
</linearGradient>
<clipPath id="clip0_2682_167105">
<rect width="55" height="55" fill="white"/>
</clipPath>
</defs>
</svg>
