<svg width="55" height="55" viewBox="0 0 55 55" fill="none" xmlns="http://www.w3.org/2000/svg">
<g clip-path="url(#clip0_2682_167205)">
<g clip-path="url(#clip1_2682_167205)">
<path d="M49.2245 41.3053C48.0654 41.8867 47.1788 43.0812 46.2923 44.0551C45.7033 44.7025 45.1519 45.3693 44.6426 46.0791C44.4793 45.3554 44.2978 44.5544 44.0747 43.7698C44.2864 43.8161 44.5131 43.7776 44.7282 43.605C45.7487 42.7852 46.7642 41.9945 47.8403 41.2647C48.4822 40.8294 48.6621 39.8969 48.1946 39.2341C47.7374 38.5855 46.8503 38.5073 46.3103 39.0941C45.4104 40.0717 44.471 40.9712 43.5042 41.8685C43.4757 41.8948 43.4552 41.9245 43.4309 41.953C43.2601 41.5762 43.0713 41.2244 42.8557 40.9203C42.701 40.7022 42.3677 40.7515 42.2064 40.9203C41.2459 41.9248 41.3063 43.3941 41.3245 44.7752C41.1845 44.5671 41.0162 44.3859 40.8238 44.2496C40.7823 43.1596 40.6633 42.069 40.5269 41.0078C40.931 40.8567 41.3254 40.6816 41.7029 40.4725C42.846 39.84 42.8322 38.6585 42.2662 37.8112C42.6487 37.7321 43.0331 37.6576 43.4115 37.57C45.264 37.1417 44.7877 34.4258 43.228 34.0629C43.3719 32.3634 43.2424 30.5487 43.2684 28.9004C43.2856 27.8138 41.7281 27.5445 41.5097 28.6399C41.1369 30.5085 40.4995 32.5588 40.3746 34.4982C38.5016 34.8811 36.6284 35.2634 34.7548 35.6512C35.2561 35.0014 35.294 34.0335 34.7216 33.4073C34.6419 33.3201 34.5447 33.2474 34.4415 33.1822C34.6031 33.0029 34.7509 32.8102 34.863 32.5897C35.6912 30.9589 34.0103 29.0004 32.4915 29.9941C32.3277 30.1013 32.1807 30.2222 32.0315 30.3533C32.0357 30.3497 31.8248 30.5515 31.7641 30.6148C31.703 30.6575 31.6092 30.7214 31.5646 30.7541C31.499 30.7747 31.2903 30.8596 31.2814 30.8623C31.1884 30.8926 31.096 30.9265 31.0011 30.9501C31.006 30.9462 30.9892 30.9453 30.9595 30.9465C30.8665 30.8723 30.7727 30.8256 30.6421 30.7702C30.6205 30.7611 30.5989 30.752 30.5773 30.7426C29.7879 30.4076 29.1917 31.2428 29.1031 31.9717C28.9249 33.4418 30.4392 34.1934 31.5366 34.2925C31.6507 34.3028 31.7686 34.3007 31.8859 34.2989C31.6927 34.4849 31.4838 34.6539 31.2277 34.7942C30.647 35.1126 30.0581 35.1517 29.4383 35.3119C29.0492 35.4125 28.8759 35.939 29.06 36.2989C28.9836 36.2768 28.905 36.2598 28.8241 36.2516C28.4411 36.2129 28.099 36.1971 27.7156 36.002C27.3143 35.7978 27.0082 35.4431 26.5792 35.3346C26.4156 35.2931 26.1892 35.3583 26.1125 35.5424C25.8069 36.2774 26.2036 37.045 26.6788 37.5903C26.7436 37.6649 26.8125 37.7358 26.8836 37.8045C26.8676 38.2065 27.1374 38.6588 27.5714 38.6982C28.0633 38.743 28.5604 38.7721 29.0575 38.8012C29.0586 38.8294 29.0569 38.8582 29.0614 38.8854C29.3952 40.9527 31.9975 41.3708 33.5566 41.5643C35.1221 41.7591 36.8246 41.8091 38.4565 41.5453C38.3466 42.6813 38.1554 43.7985 37.9829 44.9197C35.9015 45.9406 33.7229 45.725 31.3581 45.7519C28.2055 45.7877 25.0535 45.9246 21.9076 46.1512C19.0066 46.3599 16.127 46.6644 13.2492 47.1164C11.7056 47.359 9.7731 48.12 8.23446 47.6605C7.00111 47.2921 5.98669 46.0767 5.03317 45.1957C4.73314 44.9185 4.3008 45.1806 4.38079 45.6113C4.92191 48.5199 6.35316 50.7023 9.19517 51.0531C12.9024 51.5109 16.9667 50.5929 20.6765 50.3439C24.645 50.0776 28.616 49.9801 32.5915 49.9901C35.5506 49.9974 39.1183 50.1288 41.2697 47.4996C41.2922 47.472 41.3104 47.4429 41.3312 47.4148C41.2966 48.236 41.1859 49.0425 40.9066 49.8383C38.1446 49.7629 35.2619 50.2636 32.5461 50.4645C29.4062 50.6965 26.2692 50.961 23.1315 51.2258C19.99 51.4909 16.8532 51.7723 13.717 52.1013C11.0892 52.377 8.45035 52.8892 5.94877 51.6805C5.44613 51.4375 4.8635 51.9495 5.16354 52.5399C6.38526 54.9447 8.75481 55.5676 11.0928 55.7905C14.3766 56.1038 17.7982 55.6799 21.085 55.4997C24.6328 55.3055 28.1815 55.1234 31.7276 54.8923C35.3648 54.6551 39.314 54.8499 42.8646 53.9308C43.1508 53.8568 43.3844 53.7351 43.5745 53.5827C43.8851 53.3961 44.1597 53.0868 44.3581 52.6251C44.9352 51.2821 45.1237 49.8825 45.031 48.4614C45.0575 48.4514 45.0844 48.4433 45.1104 48.4305C46.2198 47.8792 47.2278 47.1915 48.248 46.4678C49.2536 45.7543 50.4357 45.1339 51.2002 44.106C52.3812 42.5186 50.9456 40.4419 49.2245 41.3053Z" fill="#E0DFE6"/>
<path d="M52.6487 26.9803C51.0813 24.6625 49.3461 22.491 47.6237 20.3116C45.989 18.2431 44.2727 15.4033 41.9804 14.1922C41.6856 14.0364 41.3745 14.2915 41.4406 14.6463C41.8112 16.629 43.093 18.3655 44.1216 20.0099C45.232 21.7854 46.3663 23.547 47.5102 25.2968C49.0314 27.624 53.3919 32.7725 51.5311 35.7753C51.3996 35.7556 51.2645 35.7489 51.1217 35.7698C50.6431 35.8401 50.3215 36.1119 50.0483 36.5375L49.1042 38.0083C48.7394 38.5766 48.9678 39.4142 49.4325 39.8072C49.9515 40.2458 50.6246 40.1643 51.1054 39.6981C51.4901 39.3252 51.8751 38.9523 52.2598 38.5793C52.4411 38.566 52.6291 38.5124 52.8181 38.3976C56.9488 35.8919 54.749 30.086 52.6487 26.9803Z" fill="#E0DFE6"/>
<path d="M39.34 15.7156C40.161 14.9349 39.683 13.1273 38.2583 13.436C31.1071 14.9858 24.196 14.6026 16.9761 14.635C12.2628 14.6562 6.03293 15.3766 4.70741 21.2277C4.61496 21.6357 5.18237 21.8081 5.28284 21.4012C6.09631 18.1137 10.5929 16.8895 13.2119 16.5548C15.8471 16.2179 18.5223 16.4481 21.1617 16.5978C26.8681 16.9216 32.5627 16.6914 38.2462 16.0858C38.0203 18.1116 37.7992 20.4394 38.2118 22.3688C38.1512 22.494 38.092 22.6194 38.03 22.7448C37.668 23.4767 37.9868 24.4198 38.7366 24.6458C39.4576 24.8633 40.2562 24.2428 40.2332 23.3979C40.2304 23.2952 40.2299 23.1941 40.2274 23.092C40.2351 23.0589 40.2454 23.0284 40.2509 22.9929C40.5936 20.7272 39.9381 18.0098 39.34 15.7156Z" fill="#E0DFE6"/>
<path d="M39.1241 9.90627C37.5409 7.23735 35.8827 4.48633 33.8638 2.18639C33.6033 1.88981 33.1223 2.19396 33.2308 2.58991C33.6449 4.10068 34.204 5.57541 34.8386 7.01378C32.3332 7.36974 29.83 7.91443 27.3527 8.39611C24.1423 9.02047 20.75 10.1074 17.4976 10.2407C17.2941 10.2489 17.1447 10.5476 17.319 10.7127C18.1859 11.5343 19.1082 11.4679 20.2314 11.4788C22.1954 11.4979 24.1595 11.3565 26.1174 11.2089C29.5194 10.9526 32.99 10.7524 36.3673 10.1926C36.5583 10.5649 36.7507 10.9348 36.9439 11.3016C37.757 12.8469 40.0092 11.3986 39.1241 9.90627Z" fill="#E0DFE6"/>
<path d="M14.4576 52.0875C12.1003 52.0875 9.7429 52.0648 7.44144 52.0133C4.02482 51.9367 1.24673 48.9518 1.11609 45.2177C0.972165 41.0913 0.77288 36.9026 0.579685 32.8525C0.369606 28.4447 0.15233 23.8866 0.00618849 19.3888C-0.0583022 17.4209 0.616221 15.4736 1.85677 14.0461C3.09648 12.6196 4.83967 11.785 6.6396 11.7562C13.8011 11.6408 21.1276 11.2348 28.2121 10.8416C32.1984 10.6208 36.3203 10.3921 40.3483 10.2191C40.6865 10.2009 40.9738 10.4887 40.994 10.8589C41.5053 20.0374 41.5036 20.79 41.5003 21.9287C41.4992 22.4168 41.4978 22.9702 41.5379 24.3226C41.5493 24.6988 41.2797 25.0133 40.9359 25.026C40.5816 25.0348 40.3043 24.7434 40.2935 24.3671C40.2523 22.9908 40.2536 22.4246 40.255 21.9251C40.2578 20.8396 40.26 20.1147 39.7881 11.6081C35.9616 11.7768 32.0572 11.9931 28.275 12.203C21.1793 12.5966 13.8423 13.0034 6.65786 13.1191C5.19063 13.1428 3.76935 13.8226 2.75908 14.9853C1.74799 16.1486 1.1983 17.7357 1.25061 19.3398C1.39647 23.827 1.61347 28.379 1.82355 32.7813C2.01647 36.8362 2.21631 41.0292 2.36079 45.165C2.46569 48.179 4.70875 50.5883 7.46663 50.6501C20.5798 50.9451 35.5796 50.2926 41.2016 49.9091C40.6937 41.4467 40.7018 40.9347 40.715 40.1004C40.7211 39.7335 40.7275 39.3173 40.6863 38.038C40.6741 37.6617 40.9428 37.3458 41.2863 37.3324C41.2941 37.3321 41.3018 37.3321 41.309 37.3321C41.6425 37.3321 41.919 37.6214 41.931 37.9892C41.9736 39.3052 41.9667 39.7405 41.9606 40.1246C41.9476 40.9165 41.9393 41.4403 42.4856 50.5001C42.508 50.8752 42.249 51.1993 41.906 51.2251C37.6862 51.5374 26.0997 52.0875 14.4576 52.0875Z" fill="url(#paint0_linear_2682_167205)"/>
<path d="M13.8472 47.5456H13.6726C13.3288 47.5456 13.0498 47.2402 13.0498 46.8639C13.0498 46.4877 13.3288 46.1823 13.6726 46.1823H13.8472C14.3042 46.1823 14.7972 46.176 15.3211 46.1641C15.6721 46.1641 15.9494 46.4601 15.9566 46.8315C15.9635 47.2078 15.6906 47.5192 15.3468 47.5274C14.8132 47.5395 14.3122 47.5456 13.8472 47.5456ZM9.94014 47.4874C9.92962 47.4874 9.91855 47.4868 9.90776 47.4865C9.22133 47.4474 8.65753 47.385 8.1845 47.2947C7.84572 47.2305 7.61848 46.8776 7.67771 46.5068C7.73611 46.136 8.05635 45.8839 8.39763 45.9521C8.82138 46.0324 9.3362 46.089 9.9717 46.1251C10.3155 46.1445 10.5795 46.465 10.5615 46.8406C10.5446 47.2054 10.2692 47.4874 9.94014 47.4874ZM19.0704 47.3859C18.7391 47.3859 18.4634 47.1005 18.449 46.7346C18.4335 46.3586 18.6995 46.0402 19.0433 46.0239C19.5797 45.9978 20.133 45.9688 20.6998 45.9382C21.0494 45.9248 21.3359 46.2096 21.3525 46.5849C21.3694 46.9612 21.1048 47.2808 20.7616 47.2993C20.1925 47.3299 19.6373 47.3587 19.0987 47.385C19.089 47.3859 19.0798 47.3859 19.0704 47.3859ZM24.4633 47.0851C24.135 47.0851 23.8602 46.8043 23.8419 46.4407C23.8234 46.0648 24.0863 45.7437 24.4298 45.7228L26.0883 45.6225C26.4406 45.6013 26.7254 45.89 26.7445 46.2653C26.7631 46.6413 26.5004 46.9627 26.1572 46.9836L24.4976 47.0842C24.4865 47.0845 24.4746 47.0851 24.4633 47.0851ZM29.8553 46.7585C29.527 46.7585 29.2522 46.4771 29.2339 46.1139C29.2154 45.7382 29.4783 45.4168 29.8221 45.3965L31.4817 45.2992C31.8288 45.282 32.1186 45.5686 32.1363 45.9439C32.154 46.3199 31.8905 46.6404 31.5473 46.6604L29.8891 46.7576C29.878 46.7579 29.8667 46.7585 29.8553 46.7585ZM35.2479 46.4595C34.9171 46.4595 34.6415 46.1748 34.6265 45.8091C34.6107 45.4335 34.8762 45.1142 35.2199 45.0975C35.7774 45.0696 36.3321 45.0424 36.8829 45.0175C37.2197 44.9918 37.5164 45.2947 37.5305 45.6707C37.5447 46.0463 37.2776 46.3641 36.9338 46.3795C36.3852 46.4044 35.8325 46.4304 35.2767 46.4586C35.267 46.4589 35.2576 46.4595 35.2479 46.4595ZM40.6441 46.2381C40.3081 46.2381 40.0313 45.9448 40.0221 45.5746C40.0127 45.1984 40.284 44.8851 40.6277 44.8754L41.584 44.8491C41.9358 44.8491 42.2132 45.1438 42.2212 45.5146C42.2289 45.8912 41.9569 46.2032 41.6131 46.212C41.6134 46.2123 40.6612 46.2375 40.6441 46.2381ZM5.53762 44.9487C5.27439 44.9487 5.03055 44.7655 4.9453 44.4771C4.79141 43.9557 4.68097 43.3283 4.6079 42.5594C4.57275 42.185 4.82102 41.8506 5.1634 41.8115C5.50689 41.7763 5.81135 42.0447 5.84678 42.4195C5.91044 43.0926 6.00289 43.6282 6.12966 44.0578C6.23594 44.4159 6.05631 44.8 5.72915 44.916C5.66577 44.9378 5.60072 44.9487 5.53762 44.9487ZM5.10306 39.0889C4.75847 39.0886 4.48002 38.7833 4.4803 38.407C4.48085 37.8387 4.48445 37.2322 4.48888 36.5848C4.49137 36.2086 4.77563 35.9135 5.11635 35.9086C5.46012 35.9114 5.73662 36.2189 5.73413 36.5954C5.7297 37.2392 5.72611 37.8423 5.72555 38.4079C5.72527 38.7842 5.44683 39.0889 5.10306 39.0889ZM5.13545 33.1825C4.79002 33.1815 4.51185 32.8759 4.51268 32.499L4.51296 31.9325C4.51296 31.5078 4.51047 31.094 4.50659 30.6911C4.503 30.3148 4.77867 30.0061 5.12244 30.0019C5.47036 30.0019 5.74825 30.3024 5.75212 30.6759C5.75627 31.084 5.75849 31.5026 5.75849 31.9325L5.75821 32.5027C5.75738 32.8786 5.47894 33.1825 5.13545 33.1825ZM5.04273 27.2772C4.70699 27.2772 4.43048 26.9849 4.42079 26.6156C4.40335 25.9709 4.38785 25.3635 4.379 24.7906C4.37318 24.4144 4.64748 24.1042 4.99124 24.0975C5.34663 24.0781 5.61844 24.3905 5.62453 24.7676C5.63338 25.335 5.64888 25.9373 5.66549 26.5756C5.67545 26.9518 5.40504 27.266 5.04273 27.2772ZM5.17586 21.3841C5.14071 21.3841 5.10528 21.381 5.0693 21.3744C4.73051 21.3104 4.503 20.9578 4.5614 20.5867C4.6782 19.8457 4.85507 19.2201 5.1014 18.6742C5.25419 18.3371 5.62868 18.1998 5.93618 18.3658C6.24424 18.5331 6.37046 18.9417 6.21795 19.2795C6.02503 19.7052 5.8847 20.2086 5.78894 20.8182C5.73662 21.1496 5.4734 21.3841 5.17586 21.3841ZM8.51526 17.2344C8.25287 17.2344 8.00902 17.052 7.92349 16.7645C7.81693 16.4064 7.99518 16.0217 8.32206 15.905C8.82166 15.7266 9.37412 15.5776 10.0104 15.4494C10.3487 15.3825 10.6736 15.6263 10.7356 15.9965C10.7976 16.367 10.574 16.7221 10.2357 16.7902C9.65395 16.9069 9.15463 17.0414 8.70873 17.2007C8.64424 17.2238 8.5792 17.2344 8.51526 17.2344ZM13.8298 16.3549C13.5032 16.3549 13.2289 16.0768 13.2087 15.7151C13.1877 15.3391 13.4487 15.0162 13.7921 14.9932C14.318 14.9577 14.8749 14.929 15.4636 14.9044C15.816 14.8805 16.0964 15.1834 16.1094 15.5597C16.1224 15.9359 15.8539 16.2522 15.5107 16.2665C14.9319 16.2901 14.3853 16.3189 13.8685 16.3534C13.8555 16.3546 13.8425 16.3549 13.8298 16.3549ZM19.2191 16.1798C18.8778 16.1798 18.5996 15.879 18.5963 15.5049C18.593 15.1286 18.8692 14.8202 19.213 14.8166C19.7477 14.8108 20.3018 14.8072 20.8767 14.8051C21.2216 14.8051 21.5003 15.1086 21.5014 15.4846C21.5025 15.8608 21.2249 16.1671 20.8806 16.1683C20.3093 16.1704 19.7574 16.1741 19.2191 16.1798ZM24.6133 16.165C24.2695 16.165 23.9911 15.8602 23.9905 15.484C23.9903 15.1077 24.269 14.8023 24.6127 14.802L26.2712 14.7999C26.6153 14.7999 26.8943 15.1044 26.8948 15.4806C26.8951 15.8569 26.6172 16.1625 26.2729 16.1632C26.2729 16.1628 24.6136 16.165 24.6133 16.165ZM30.0051 16.1535C29.6621 16.1535 29.3837 15.8499 29.3823 15.4746C29.3812 15.0983 29.6588 14.7917 30.0026 14.7902L31.6602 14.7817C32.0065 14.7817 32.2846 15.0844 32.2866 15.4594C32.2885 15.836 32.0112 16.1429 31.6674 16.145C31.6674 16.1453 30.0075 16.1535 30.0051 16.1535ZM35.3929 16.1095C35.0533 16.1095 34.7751 15.8108 34.7702 15.4379C34.7652 15.0617 35.04 14.752 35.3838 14.7466C36.5028 14.729 36.8231 14.7115 36.91 14.7045C36.9512 14.6948 36.9947 14.6899 37.039 14.6899C37.3827 14.6899 37.6617 14.9953 37.6617 15.3716C37.6617 16.0362 37.0442 16.0647 36.812 16.0753C36.5881 16.0853 36.1712 16.0977 35.3929 16.1095Z" fill="url(#paint1_linear_2682_167205)"/>
<path d="M30.0674 39.4256C26.7947 39.4256 24.0222 36.6388 23.7916 33.0144L23.6427 30.6709C23.5317 28.9259 24.0939 27.194 25.1861 25.9201C26.2702 24.6559 27.7972 23.9331 29.3802 23.9331C29.394 23.9331 29.407 23.9331 29.4209 23.9331C34.1522 23.9713 38.8415 23.7653 43.2232 23.5551C43.5582 23.5432 43.8446 23.8168 43.8712 24.1831C44.0533 26.7232 44.1903 29.3025 44.3224 31.7969C44.427 33.7624 44.5347 35.7945 44.6636 37.7918C44.6755 37.9733 44.6202 38.1526 44.5103 38.2893C44.4004 38.4262 44.2451 38.5092 44.0793 38.5201C42.7339 38.6077 41.3857 38.6922 40.0355 38.777C36.9043 38.9739 33.6667 39.1778 30.4909 39.4102C30.3492 39.4202 30.2078 39.4256 30.0674 39.4256ZM29.3804 25.2961C28.1399 25.2961 26.9436 25.8623 26.0945 26.8526C25.2392 27.8508 24.7986 29.2077 24.8852 30.5757L25.0341 32.9199C25.2276 35.9515 27.6411 38.2559 30.4079 38.0496C33.5898 37.8167 36.8304 37.6131 39.9644 37.4162C41.1036 37.3447 42.2415 37.2729 43.3777 37.2002C43.267 35.4186 43.1718 33.6212 43.079 31.8763C42.9586 29.6042 42.8341 27.2603 42.6758 24.9462C38.4512 25.1467 33.9502 25.3339 29.4123 25.2967C29.4015 25.2961 29.391 25.2961 29.3804 25.2961Z" fill="url(#paint2_linear_2682_167205)"/>
<path d="M31.374 35.905C29.2677 35.905 27.6172 34.0916 27.6172 31.7768C27.6172 30.4551 28.1486 29.1634 29.0753 28.2339C29.6729 27.6344 30.4249 27.2263 31.1387 27.1146C31.3156 27.087 31.4938 27.0728 31.6682 27.0728C34.2691 27.0728 35.6879 30.018 35.6879 31.5312C35.6882 33.2725 33.9677 35.905 31.374 35.905ZM31.6682 28.4357C31.5528 28.4357 31.434 28.4451 31.315 28.4636C30.8506 28.5363 30.328 28.8262 29.917 29.2382C29.2469 29.9104 28.8624 30.8359 28.8624 31.7765C28.8624 33.5727 30.1564 34.5418 31.3737 34.5418C33.3671 34.5418 34.4424 32.4045 34.4424 31.5309C34.4427 30.8102 33.578 28.4357 31.6682 28.4357Z" fill="url(#paint3_linear_2682_167205)"/>
<path d="M37.8573 11.6956C37.6566 11.6956 37.4596 11.5896 37.3397 11.3933C34.7875 7.22118 32.7473 3.73188 30.9549 0.471011C23.9708 4.382 17.6255 7.87583 11.0809 10.9459C10.7651 11.0931 10.399 10.9343 10.2633 10.5878C10.128 10.2418 10.2744 9.84102 10.5905 9.69288C17.2604 6.5644 23.7372 2.98453 30.9059 -1.03249C31.1987 -1.19699 31.5561 -1.08399 31.7243 -0.775294C33.5782 2.62251 35.6912 6.24812 38.3743 10.6344C38.5656 10.9474 38.4892 11.3706 38.2036 11.5799C38.097 11.6584 37.9766 11.6956 37.8573 11.6956Z" fill="url(#paint4_linear_2682_167205)"/>
<path d="M44.1731 41.9309C43.983 41.9309 43.795 41.8361 43.673 41.6559C43.4679 41.3535 43.5254 40.927 43.8014 40.7022C46.5609 38.4583 49.4243 36.4774 51.713 34.9475C48.6019 29.4703 45.2437 24.0937 41.9921 18.8882C41.3638 17.8824 40.736 16.8773 40.1102 15.8718C39.9165 15.5607 39.9898 15.1366 40.2741 14.9251C40.5592 14.7131 40.9458 14.7933 41.1393 15.1045C41.7651 16.1093 42.3923 17.1139 43.0203 18.119C46.3951 23.522 49.8851 29.1092 53.1027 34.8148C53.1899 34.9696 53.217 35.1556 53.1783 35.3322C53.1398 35.5089 53.038 35.6615 52.8962 35.7555C50.5511 37.3132 47.4826 39.4074 44.5443 41.797C44.4327 41.887 44.3027 41.9309 44.1731 41.9309Z" fill="url(#paint5_linear_2682_167205)"/>
<path d="M43.6229 46.7613C43.4076 46.7613 43.1983 46.6392 43.0835 46.4205C42.9116 46.0942 43.0137 45.6774 43.3113 45.4896C44.5809 44.6877 45.8632 43.9255 47.1038 43.1884C48.0196 42.644 48.961 42.0845 49.8849 41.5156C49.6895 41.2184 49.496 40.9185 49.302 40.6182C48.8422 39.9069 48.3667 39.1714 47.8774 38.4725C47.6681 38.1738 47.7196 37.746 47.9931 37.5173C48.2646 37.288 48.6562 37.3446 48.8658 37.6439C49.3698 38.3631 49.8522 39.1096 50.3186 39.8315C50.6438 40.3344 50.9679 40.8361 51.2993 41.3289C51.4047 41.4853 51.4435 41.6834 51.4072 41.8739C51.3704 42.0639 51.2613 42.2281 51.1072 42.3244C49.9815 43.0294 48.8206 43.7195 47.6983 44.3862C46.4652 45.1194 45.1898 45.8776 43.9343 46.6701C43.8358 46.7322 43.7286 46.7613 43.6229 46.7613Z" fill="url(#paint6_linear_2682_167205)"/>
<path d="M24.9686 9.32334C24.7192 9.32334 24.4842 9.15823 24.3881 8.88892C24.2636 8.53781 24.4225 8.14307 24.743 8.00644C25.4765 7.69441 26.1662 7.13276 26.8333 6.58928C27.8986 5.72135 29.0002 4.82373 30.3808 4.82373C31.0996 4.82373 31.4481 5.56352 31.7559 6.21605C31.9623 6.65441 32.1962 7.15124 32.4816 7.34603C32.773 7.54567 32.8619 7.96646 32.6798 8.28545C32.4974 8.60445 32.1126 8.7017 31.8215 8.50236C31.2463 8.10884 30.915 7.40541 30.6487 6.84072C30.5466 6.62381 30.3977 6.30785 30.3014 6.18849C29.3642 6.22666 28.4953 6.93433 27.5767 7.6823C26.8432 8.28 26.0848 8.898 25.1947 9.27699C25.1202 9.30879 25.0436 9.32334 24.9686 9.32334Z" fill="url(#paint7_linear_2682_167205)"/>
<path d="M44.4121 37.3935C44.2336 37.3935 44.0567 37.3101 43.9333 37.1481C43.7132 36.8594 43.749 36.4292 44.0133 36.1883C45.1082 35.1895 46.0324 34.5918 46.7081 34.1556C47.0477 33.936 47.428 33.6906 47.5569 33.5482C47.384 33.1538 46.2743 32.091 45.5276 31.3758C45.2685 31.1277 45.2422 30.6975 45.4689 30.4143C45.6956 30.1304 46.0889 30.1019 46.3474 30.35C48.1576 32.0835 48.8891 32.8214 48.8155 33.6915C48.7535 34.417 48.1612 34.7994 47.3411 35.3298C46.7031 35.7421 45.8284 36.3074 44.8107 37.2356C44.6939 37.3413 44.5525 37.3935 44.4121 37.3935ZM47.5758 33.6049H47.5802H47.5758Z" fill="url(#paint8_linear_2682_167205)"/>
</g>
</g>
<defs>
<linearGradient id="paint0_linear_2682_167205" x1="3.54237" y1="10.2183" x2="39.6546" y2="10.2183" gradientUnits="userSpaceOnUse">
<stop stop-color="#DC2430"/>
<stop offset="1" stop-color="#7B4397"/>
</linearGradient>
<linearGradient id="paint1_linear_2682_167205" x1="7.53244" y1="14.6899" x2="39.6985" y2="14.6899" gradientUnits="userSpaceOnUse">
<stop stop-color="#DC2430"/>
<stop offset="1" stop-color="#7B4397"/>
</linearGradient>
<linearGradient id="paint2_linear_2682_167205" x1="25.3819" y1="23.5547" x2="43.2628" y2="23.5547" gradientUnits="userSpaceOnUse">
<stop stop-color="#DC2430"/>
<stop offset="1" stop-color="#7B4397"/>
</linearGradient>
<linearGradient id="paint3_linear_2682_167205" x1="28.2897" y1="27.0728" x2="35.1499" y2="27.0728" gradientUnits="userSpaceOnUse">
<stop stop-color="#DC2430"/>
<stop offset="1" stop-color="#7B4397"/>
</linearGradient>
<linearGradient id="paint4_linear_2682_167205" x1="12.5685" y1="-1.10791" x2="36.5952" y2="-1.10791" gradientUnits="userSpaceOnUse">
<stop stop-color="#DC2430"/>
<stop offset="1" stop-color="#7B4397"/>
</linearGradient>
<linearGradient id="paint5_linear_2682_167205" x1="41.1014" y1="14.8066" x2="52.316" y2="14.8066" gradientUnits="userSpaceOnUse">
<stop stop-color="#DC2430"/>
<stop offset="1" stop-color="#7B4397"/>
</linearGradient>
<linearGradient id="paint6_linear_2682_167205" x1="43.7017" y1="37.3765" x2="50.8591" y2="37.3765" gradientUnits="userSpaceOnUse">
<stop stop-color="#DC2430"/>
<stop offset="1" stop-color="#7B4397"/>
</linearGradient>
<linearGradient id="paint7_linear_2682_167205" x1="25.0481" y1="4.82373" x2="32.2124" y2="4.82373" gradientUnits="userSpaceOnUse">
<stop stop-color="#DC2430"/>
<stop offset="1" stop-color="#7B4397"/>
</linearGradient>
<linearGradient id="paint8_linear_2682_167205" x1="44.2083" y1="30.1812" x2="48.4851" y2="30.1812" gradientUnits="userSpaceOnUse">
<stop stop-color="#DC2430"/>
<stop offset="1" stop-color="#7B4397"/>
</linearGradient>
<clipPath id="clip0_2682_167205">
<rect width="55" height="55" fill="white"/>
</clipPath>
<clipPath id="clip1_2682_167205">
<rect width="55.1484" height="57.012" fill="white" transform="translate(0 -1.10791)"/>
</clipPath>
</defs>
</svg>
