<svg width="55" height="56" viewBox="0 0 55 56" fill="none" xmlns="http://www.w3.org/2000/svg">
<g clip-path="url(#clip0_2682_168792)">
<path d="M20.5234 21.0478C18.3485 21.0147 16.6856 23.5997 14.8644 24.6138C12.3036 26.0395 9.76521 26.0095 6.99208 26.509C6.66188 26.5685 6.50876 27.1049 6.88285 27.2748C8.99374 28.2329 11.5438 27.8201 13.6333 27.1841C14.7709 26.8378 15.854 26.318 16.8687 25.6765C18.0852 24.9072 19.2806 23.1551 20.7217 22.9852C21.8722 22.8494 21.6613 21.065 20.5234 21.0478Z" fill="#E0DFE6"/>
<path d="M49.1481 25.5143C46.1607 26.1587 43.3592 26.8321 40.234 26.8034C37.614 26.7792 35.0674 26.2391 32.4839 25.7677C32.631 25.3907 32.2049 25.0042 31.8905 25.1204C31.8941 24.6425 31.2005 24.374 30.9433 24.8561C30.4945 25.6972 30.0232 26.518 29.6106 27.3824C29.3267 27.9767 28.7936 28.7165 29.1149 29.4394C29.1421 29.5002 29.1743 29.5561 29.2094 29.6088C28.7954 30.6076 30.4899 31.4449 30.8013 30.3921C31.1314 29.2751 31.5156 28.1732 31.9406 27.0946C37.3916 29.507 44.7895 29.3956 49.7675 27.1588C50.7213 26.7303 50.1586 25.2966 49.1481 25.5143Z" fill="#E0DFE6"/>
<path d="M34.3571 37.9335C34.7182 37.3832 34.5721 36.436 33.7447 36.3006C31.4179 35.92 28.8514 35.3601 26.8497 33.8657C26.2844 33.4435 25.8143 32.9467 25.4032 32.4023C25.0827 30.9004 24.7341 29.4279 24.6152 27.8929C24.4984 26.3821 24.58 24.8948 24.6473 23.4001C26.2974 22.7775 28.3056 21.723 29.0273 20.0411C29.1564 19.74 28.8527 19.4104 28.5668 19.5051C28.2471 19.6111 27.9437 19.7726 27.6441 19.9461C27.6325 19.9473 27.6233 19.9428 27.6115 19.9452C26.1676 20.2268 24.7571 20.6115 23.3768 21.105C23.3221 21.1096 23.2667 21.1194 23.2103 21.1386C23.1016 21.1756 23.0021 21.2223 22.9032 21.2723C22.835 21.307 22.777 21.337 22.7172 21.3689C22.0492 21.7246 22.4338 22.634 23.0398 22.8347C23.0836 23.0135 23.1708 23.1847 23.2898 23.3226C22.4915 25.8334 22.4911 28.8652 23.2026 31.5287C22.982 31.3864 22.679 31.4088 22.5735 31.7084C21.7258 34.1178 22.5574 35.9302 24.0982 37.1879C21.2327 39.2446 18.504 41.2899 15.1681 42.5336C14.0245 42.96 11.7699 43.0496 10.9177 43.9672C10.1394 44.8052 10.5491 46.0428 10.861 47.0954C11.2593 48.4404 13.065 47.7464 12.7165 46.4255C12.4013 45.2315 15.4339 44.7269 16.2067 44.4007C17.3229 43.9296 18.4095 43.3797 19.4501 42.7524C21.5562 41.4826 23.5706 39.8986 25.0465 37.8431C27.2606 39.1499 30.2926 39.6065 32.2718 39.2859C32.8374 39.1942 33.087 38.712 33.0588 38.2425C33.0812 38.2464 33.1034 38.2501 33.1259 38.254C32.8419 39.387 32.7616 40.5661 32.6338 41.7596C32.4787 43.209 31.962 44.7358 32.0961 46.1987C32.1571 46.863 33.1271 47.3243 33.4917 46.7114C34.8602 44.4114 34.4123 40.7324 34.3571 37.9335ZM23.685 33.0008C23.7096 33.0634 23.7317 33.1284 23.7572 33.1905C23.8939 33.5222 24.1692 33.7143 24.4621 33.7818C24.7683 34.2366 25.1244 34.6634 25.5446 35.0517C26.5532 35.9834 27.7877 36.6637 29.0894 37.1707C26.6387 36.856 24.4955 35.8154 23.685 33.0008Z" fill="#E0DFE6"/>
<path d="M36.0361 50.6572C34.7545 50.452 33.5553 49.8511 32.299 49.5544C31.6966 49.412 31.5426 49.9774 31.9519 50.3849C33.0195 51.4472 34.8233 52.0624 36.1884 52.425C37.6007 52.7997 37.5176 50.8942 36.0361 50.6572Z" fill="#E0DFE6"/>
<path d="M40.9672 49.6415C38.8202 46.3839 39.0884 42.4405 39.3107 38.7821C39.3458 38.2031 38.5963 38.0459 38.4754 38.6057C37.5913 42.7036 37.0314 46.9205 39.404 50.7737C40.1091 51.9186 41.707 50.7639 40.9672 49.6415Z" fill="#E0DFE6"/>
<path d="M38.2311 4.53295C38.0862 4.51685 37.9451 4.49137 37.8021 4.47139C37.4896 4.35102 37.041 3.98775 36.8597 3.87833C36.4533 3.63296 36.0404 3.39947 35.6233 3.17751C34.9192 2.80293 34.1393 2.3597 33.3846 2.1461C32.9546 2.02464 32.687 2.04318 32.3577 2.32027C32.1036 2.53398 31.9324 3.13202 31.8118 3.3454C31.585 3.74679 31.2824 4.1086 31.0169 4.47962C30.6667 4.96907 31.3617 5.60461 31.7556 5.1507C32.24 4.5919 32.7042 3.80312 33.5024 3.98403C33.5476 3.99429 33.5953 4.01172 33.6425 4.02725C33.3436 4.48909 33.3927 5.25936 34.0173 5.52231C35.2571 6.04459 36.5326 6.31432 37.8284 6.429C37.9597 6.45301 38.0934 6.4652 38.2302 6.46142C39.2483 6.43195 39.301 4.6515 38.2311 4.53295Z" fill="#E0DFE6"/>
<path d="M36.2572 12.8238C35.1209 13.5906 33.8606 14.702 33.4675 16.1585C33.2308 17.0361 34.4029 17.4862 34.8762 16.8939C35.2616 16.4119 35.4776 15.775 35.7584 15.2129C36.0637 14.6017 36.3957 14.001 36.753 13.426C36.982 13.0575 36.6259 12.575 36.2572 12.8238Z" fill="#E0DFE6"/>
<path d="M6.85084 25.7498C5.56621 25.076 4.89182 24.6105 4.77 23.9356C4.65421 23.295 5.08167 22.8709 5.57613 22.3797C5.93327 22.0252 6.37819 21.5837 6.79864 20.9419C6.98651 20.6547 7.36867 20.5991 7.65272 20.8156C7.95068 21.0427 8.24043 21.2307 8.51424 21.3743C10.2513 22.2854 10.8277 21.6145 12.0905 20.1446C13.3754 18.6492 15.1352 16.6007 19.0252 15.6993C21.3045 15.171 23.3645 15.0931 25.0197 15.0307C27.9355 14.9207 29.3655 14.7997 30.0023 13.2648C30.3929 12.3232 30.1115 11.8914 29.6006 11.1077C28.8745 9.99487 27.8807 8.47068 29.2315 5.21496L29.4251 4.74591C30.1616 2.95596 30.6063 1.87563 31.6357 1.5095C32.7716 1.10565 34.2576 1.72364 37.3748 3.35857C39.7191 4.58813 40.5042 5.90067 40.7502 6.78556C40.8479 7.13616 40.6673 7.48634 40.3447 7.57184C38.9974 7.92933 36.4301 8.16561 34.8793 7.35223C34.0098 6.89621 33.3844 6.16493 33.0212 5.17854C32.8938 4.83289 33.0479 4.46151 33.3653 4.34913C33.6826 4.23674 34.0432 4.42587 34.1706 4.77152C34.4105 5.42264 34.8015 5.88307 35.366 6.17915C36.3153 6.67709 38.0257 6.64366 39.2561 6.44252C38.9162 5.93343 38.2383 5.24016 36.8877 4.53179C34.3277 3.18906 32.806 2.50905 32.098 2.76091C31.5456 2.95744 31.1765 3.85412 30.5649 5.33979L30.37 5.8121C29.295 8.40303 29.9301 9.37684 30.6027 10.4078C31.1674 11.2739 31.8075 12.255 31.1408 13.8619C30.1891 16.1559 27.9635 16.2397 25.1458 16.3463C23.4554 16.4097 21.5394 16.4821 19.3653 16.9861C15.8326 17.8051 14.2786 19.6138 13.0299 21.0673C11.7257 22.5853 10.5991 23.8965 8.02717 22.5475C7.84991 22.4545 7.66905 22.3478 7.48544 22.2283C7.10908 22.7189 6.74054 23.0847 6.45324 23.37C6.31139 23.5106 6.14396 23.6765 6.04939 23.7929C6.19064 23.917 6.52865 24.1528 7.33715 24.5769C10.3812 26.1735 16.7661 21.4557 18.8642 19.9055C18.9602 19.8345 19.0755 19.7964 19.1964 19.7963C21.5951 19.7868 26.0688 19.6113 29.0836 18.5439C29.401 18.4316 29.7616 18.6207 29.889 18.9663C30.0163 19.312 29.8622 19.6834 29.5449 19.7958C26.4512 20.8912 21.98 21.0932 19.469 21.1116C15.278 24.1955 10.0999 27.4539 6.85084 25.7498Z" fill="url(#paint0_linear_2682_168792)"/>
<path d="M30.0737 5.87111C29.7616 5.70749 29.6045 5.34466 29.7226 5.06019C29.8407 4.77571 30.189 4.67784 30.5011 4.84146C31.3459 5.2843 32.4581 5.29475 32.8568 4.54533C33 4.27548 33.3574 4.20414 33.6618 4.39477C33.9629 4.58107 34.0906 4.95112 33.947 5.22106C33.249 6.53275 31.4297 6.58193 30.0737 5.87111Z" fill="url(#paint1_linear_2682_168792)"/>
<path d="M33.2952 25.5962C32.7647 25.3179 32.2682 24.9661 31.8192 24.5503C31.5587 24.3092 31.5189 23.8918 31.7306 23.619C31.9421 23.3458 32.3249 23.3203 32.5855 23.5618C32.9507 23.8999 33.3547 24.1861 33.7865 24.4126C36.1985 25.6777 51.1919 26.5548 52.2801 23.9321C52.3963 23.6519 52.4053 23.1843 52.3515 22.9889C52.1905 22.9492 51.8749 22.9345 51.6547 22.9242C51.1228 22.8995 50.5198 22.8716 50.0241 22.6116C48.754 21.9455 49.1484 20.7862 49.3169 20.2915C49.3566 20.1748 49.4129 20.0088 49.4282 19.913C49.4193 19.9073 49.4086 19.9014 49.3957 19.8946C49.1665 19.7744 49.0661 19.7858 48.4795 20.8189C47.7709 22.0674 46.7002 23.9543 43.8926 23.4857C42.1465 23.1944 40.5158 23.297 38.7891 23.4057C38.3304 23.4345 37.8719 23.4633 37.412 23.4842C37.1971 23.4943 36.9883 23.3794 36.8639 23.1813C36.4076 22.4567 35.7821 21.6463 35.1775 20.8626C33.5009 18.6899 31.917 16.6375 32.5856 15.026C32.9789 14.0781 33.7766 13.7348 34.5483 13.403C35.5102 12.9889 36.5054 12.5606 37.1771 10.9417C37.4948 10.1758 37.7156 9.27259 37.9291 8.39895C38.0746 7.80271 38.2253 7.18619 38.4073 6.60912C38.5145 6.26915 38.8594 6.09924 39.1775 6.23037C39.4903 6.3577 39.6664 6.74249 39.559 7.083C39.3905 7.61775 39.2518 8.18552 39.1049 8.7867C38.8794 9.70976 38.6461 10.6642 38.2889 11.5252C37.4263 13.6044 36.0449 14.1989 35.0364 14.6329C34.3105 14.9451 33.8903 15.1446 33.6973 15.6098C33.3402 16.4705 34.8677 18.4502 36.0954 20.041C36.6356 20.7409 37.1916 21.4617 37.6505 22.149C37.9901 22.1309 38.3288 22.1096 38.6681 22.0883C40.3815 21.9806 42.1535 21.8693 44.0273 22.1816C46.059 22.5206 46.7594 21.2865 47.437 20.0932C47.9291 19.2259 48.6032 18.0381 49.8864 18.7111C50.9734 19.2812 50.6129 20.3414 50.4589 20.794C50.4085 20.9421 50.3146 21.2176 50.335 21.2991C50.3346 21.2986 50.3475 21.3407 50.5147 21.4284C50.7763 21.5656 51.2433 21.5873 51.655 21.6062C52.1238 21.6279 52.5671 21.6484 52.9138 21.8302C53.7721 22.2804 53.6811 23.8178 53.3915 24.5157C51.7912 28.3731 35.6857 26.85 33.2952 25.5962Z" fill="url(#paint2_linear_2682_168792)"/>
<path d="M28.2019 30.3048C28.1763 30.2916 28.1514 30.277 28.1265 30.2606C27.788 30.0362 27.6629 29.598 27.8468 29.2812C29.3644 26.6736 30.5678 24.2976 31.5259 22.0178C31.7365 21.5164 31.9391 21.0108 32.1326 20.5009C32.264 20.1541 32.6645 20.0144 33.0267 20.1884C33.3809 20.3547 33.5763 20.7847 33.4449 21.1312C33.246 21.655 33.0385 22.1741 32.8222 22.6889C31.8436 25.0176 30.6172 27.4395 29.0733 30.0926C28.9025 30.3867 28.5258 30.4725 28.2019 30.3048Z" fill="url(#paint3_linear_2682_168792)"/>
<path d="M31.8756 45.8016C31.7979 45.7609 31.7272 45.7035 31.6688 45.6317C31.5414 45.4763 31.4859 45.2714 31.5181 45.0777C32.0046 42.1625 32.2853 39.8351 32.4079 37.6715C30.7173 37.8876 28.73 37.4187 27.4514 36.7483C22.3803 34.0894 20.8097 26.1975 21.9066 20.1222C21.9684 19.7794 22.284 19.574 22.6116 19.6633C22.9396 19.7509 23.1544 20.1021 23.0926 20.4449C22.083 26.0369 23.4336 33.2513 27.9255 35.6066C29.1787 36.2636 31.3313 36.7165 32.8523 36.2607C33.0406 36.2043 33.2504 36.2531 33.4107 36.3903C33.5714 36.528 33.6629 36.7367 33.6549 36.9475C33.5683 39.2189 33.3141 41.6007 32.8379 44.5832C33.3473 44.5859 33.8592 44.5997 34.3596 44.6134C34.874 44.6275 35.4014 44.6419 35.9224 44.6436C35.8648 42.2967 36.459 40.3626 36.9439 38.7831C37.7547 36.1432 38.1616 34.8181 35.5905 33.47C34.4656 32.8801 33.2705 32.3765 32.1149 31.8894C30.9364 31.3926 29.7176 30.8788 28.548 30.2655C27.6485 29.7939 26.8654 29.3099 26.1539 28.7858C25.8715 28.5778 25.7862 28.177 25.9632 27.8908C26.1404 27.6041 26.5157 27.54 26.795 27.7486C27.4526 28.2328 28.1811 28.6828 29.0219 29.1236C30.1445 29.7122 31.3384 30.2156 32.4929 30.7024C33.6728 31.1997 34.8923 31.7138 36.0645 32.3285C39.6443 34.2055 38.8914 36.6578 38.094 39.2542C37.5715 40.9559 36.979 42.8851 37.1575 45.2735C37.1836 45.626 36.9379 45.9157 36.607 45.9219C35.8749 45.9354 35.1306 45.9151 34.4105 45.8952C33.6673 45.8752 32.8992 45.8541 32.1671 45.8721C32.0663 45.8736 31.9661 45.8491 31.8756 45.8016Z" fill="url(#paint4_linear_2682_168792)"/>
<path d="M10.1157 48.5842C8.27674 47.6238 6.80542 46.768 5.48506 45.8905C5.33603 45.7915 5.22957 45.6321 5.19123 45.4509C5.15316 45.27 5.18679 45.0838 5.28413 44.9381C6.61384 42.9504 8.78412 41.614 11.0815 40.1987C14.6988 37.9706 18.799 35.4454 21.2127 29.6516C21.4212 29.1512 21.6097 28.6335 21.773 28.1125C21.8788 27.7751 22.2245 27.6076 22.5453 27.7388C22.8652 27.8708 23.0401 28.2499 22.9343 28.5873C22.7593 29.1455 22.5571 29.7005 22.3337 30.2368C19.7689 36.3933 15.499 39.0232 11.7312 41.3438C9.69462 42.5982 7.90556 43.7001 6.70088 45.1829C7.8276 45.9 9.08652 46.6177 10.6046 47.4106C10.6046 47.4106 15.0661 51.1697 10.1157 48.5842Z" fill="url(#paint5_linear_2682_168792)"/>
<path d="M12.0009 49.4991C11.8873 49.4396 11.7867 49.3457 11.7157 49.2226C11.6208 49.0572 11.5238 48.8921 11.4268 48.7269C10.5348 47.2039 9.61232 45.6293 9.88083 43.9452C9.92507 43.6663 10.1413 43.4663 10.4129 43.4519C15.9839 43.1578 21.1973 40.2806 25.0923 35.3502C25.3026 35.0841 25.6938 35.0664 25.9658 35.3085C26.238 35.5517 26.2882 35.9644 26.0782 36.2306C22.098 41.2689 16.7888 44.2697 11.0811 44.7221C11.1116 45.7868 11.7757 46.921 12.4738 48.1124C12.5723 48.2807 12.6711 48.4494 12.768 48.6177C12.9519 48.9371 12.8655 49.3315 12.5748 49.4987C12.3964 49.6015 12.1824 49.5942 12.0009 49.4991Z" fill="url(#paint6_linear_2682_168792)"/>
<path d="M11.5841 43.751C11.5609 43.7389 11.5379 43.725 11.5154 43.7097C11.0898 43.4185 10.7531 43.0521 10.4278 42.6981C10.1072 42.3493 9.80442 42.0195 9.42979 41.7702C9.1357 41.5747 9.02944 41.1792 9.19299 40.8875C9.35602 40.5955 9.72956 40.5186 10.0208 40.7133C10.5344 41.055 10.9265 41.4815 11.2721 41.8579C11.5568 42.1678 11.8255 42.4607 12.1213 42.6628C12.413 42.8624 12.5142 43.2588 12.3467 43.5478C12.1923 43.8144 11.8633 43.897 11.5841 43.751Z" fill="url(#paint7_linear_2682_168792)"/>
<path d="M31.5064 50.3412C31.4157 50.2937 31.3355 50.2208 31.2752 50.1277C31.16 49.9502 31.131 49.7225 31.198 49.5199C31.3331 49.1107 31.4292 48.6866 31.5309 48.238C31.6721 47.6152 31.818 46.9715 32.0795 46.3414C32.2145 46.0161 32.5633 45.8782 32.8589 46.0332C33.1546 46.1882 33.2847 46.5771 33.1496 46.9024C32.9329 47.4245 32.8063 47.9833 32.6719 48.5752C32.6329 48.7476 32.5934 48.9214 32.5512 49.0972C33.8202 49.1143 35.0765 49.2361 36.3095 49.4621C35.5131 48.6635 34.7493 47.7214 34.6285 46.334C34.5973 45.9751 34.8341 45.6606 35.1574 45.6319C35.4806 45.6035 35.7683 45.8708 35.7994 46.2298C35.898 47.3634 36.696 48.129 37.5409 48.9397C37.9373 49.3201 38.3469 49.7131 38.6958 50.157C38.8662 50.3731 38.8916 50.6849 38.7594 50.9263C38.6268 51.1679 38.3669 51.2837 38.1172 51.2122C36.0742 50.6279 33.9395 50.3564 31.7717 50.405C31.6791 50.4065 31.5884 50.3842 31.5064 50.3412Z" fill="url(#paint8_linear_2682_168792)"/>
<path d="M33.273 10.9927C33.0635 10.8831 32.9098 10.6607 32.8936 10.4065C32.8708 10.0481 33.1291 9.76132 33.4706 9.76679C33.7773 9.77156 33.8215 9.66532 33.8537 9.58791C33.9599 9.33272 33.9328 8.85183 33.9084 8.42796C33.895 8.19047 33.8812 7.94505 33.8883 7.71958C33.8995 7.36305 34.1862 7.10779 34.5285 7.14874C34.8711 7.18982 35.1393 7.51213 35.1282 7.8684C35.1228 8.03424 35.1343 8.23986 35.1468 8.45731C35.1787 9.02265 35.2151 9.66344 34.9976 10.1864C34.8276 10.595 34.4392 11.0792 33.5537 11.0655C33.4547 11.0637 33.3591 11.0378 33.273 10.9927Z" fill="url(#paint9_linear_2682_168792)"/>
</g>
<defs>
<linearGradient id="paint0_linear_2682_168792" x1="19.4491" y1="-6.04338" x2="40.6389" y2="2.74788" gradientUnits="userSpaceOnUse">
<stop stop-color="#DC2430"/>
<stop offset="1" stop-color="#7B4397"/>
</linearGradient>
<linearGradient id="paint1_linear_2682_168792" x1="30.9482" y1="2.96972" x2="34.0613" y2="4.262" gradientUnits="userSpaceOnUse">
<stop stop-color="#DC2430"/>
<stop offset="1" stop-color="#7B4397"/>
</linearGradient>
<linearGradient id="paint2_linear_2682_168792" x1="38.4551" y1="5.84839" x2="56.3982" y2="13.2927" gradientUnits="userSpaceOnUse">
<stop stop-color="#DC2430"/>
<stop offset="1" stop-color="#7B4397"/>
</linearGradient>
<linearGradient id="paint3_linear_2682_168792" x1="32.0576" y1="19.686" x2="33.6546" y2="20.3571" gradientUnits="userSpaceOnUse">
<stop stop-color="#DC2430"/>
<stop offset="1" stop-color="#7B4397"/>
</linearGradient>
<linearGradient id="paint4_linear_2682_168792" x1="23.9462" y1="20.3461" x2="42.6412" y2="28.1047" gradientUnits="userSpaceOnUse">
<stop stop-color="#DC2430"/>
<stop offset="1" stop-color="#7B4397"/>
</linearGradient>
<linearGradient id="paint5_linear_2682_168792" x1="14.9927" y1="23.7914" x2="22.9148" y2="27.0917" gradientUnits="userSpaceOnUse">
<stop stop-color="#DC2430"/>
<stop offset="1" stop-color="#7B4397"/>
</linearGradient>
<linearGradient id="paint6_linear_2682_168792" x1="16.5856" y1="30.3696" x2="26.0369" y2="34.2945" gradientUnits="userSpaceOnUse">
<stop stop-color="#DC2430"/>
<stop offset="1" stop-color="#7B4397"/>
</linearGradient>
<linearGradient id="paint7_linear_2682_168792" x1="9.69073" y1="40.5363" x2="12.7848" y2="41.8242" gradientUnits="userSpaceOnUse">
<stop stop-color="#DC2430"/>
<stop offset="1" stop-color="#7B4397"/>
</linearGradient>
<linearGradient id="paint8_linear_2682_168792" x1="33.492" y1="44.6626" x2="39.7183" y2="47.2471" gradientUnits="userSpaceOnUse">
<stop stop-color="#DC2430"/>
<stop offset="1" stop-color="#7B4397"/>
</linearGradient>
<linearGradient id="paint9_linear_2682_168792" x1="34.3251" y1="6.99607" x2="35.9057" y2="7.65345" gradientUnits="userSpaceOnUse">
<stop stop-color="#DC2430"/>
<stop offset="1" stop-color="#7B4397"/>
</linearGradient>
<clipPath id="clip0_2682_168792">
<rect width="55" height="55" fill="white" transform="translate(0 0.5)"/>
</clipPath>
</defs>
</svg>
