<svg width="21" height="21" viewBox="0 0 21 21" fill="none" xmlns="http://www.w3.org/2000/svg">
<path d="M19.7359 9.74101V5.26184C19.7286 4.79148 19.6571 4.32432 19.5234 3.8733C19.1816 2.68093 18.4252 1.64984 17.3904 0.965867C16.3557 0.281888 15.1106 -0.0100022 13.8797 0.142798C12.6487 0.295599 11.5128 0.88304 10.6767 1.79926C9.84055 2.71548 9.35916 3.90022 9.31927 5.13997V5.3983L9.30885 6.30455V16.6712H9.30469V16.7139C9.30469 17.2665 9.08519 17.7964 8.69449 18.1871C8.30379 18.5778 7.77389 18.7973 7.22135 18.7973C6.66882 18.7973 6.13892 18.5778 5.74821 18.1871C5.35751 17.7964 5.13802 17.2665 5.13802 16.7139C5.13802 16.7014 5.14115 16.6889 5.14219 16.6754H5.13802V14.6514H3.05469V16.7348H3.05677C3.05746 17.8393 3.49689 18.8983 4.27839 19.6788C5.05989 20.4593 6.11944 20.8974 7.22396 20.8967C8.32847 20.896 9.38748 20.4566 10.168 19.6751C10.9485 18.8936 11.3866 17.8341 11.3859 16.7296H11.388V15.7066H11.3932V7.34622L11.4036 5.3983V5.14101C11.4333 4.32097 11.7843 3.54548 12.3807 2.98192C12.9772 2.41837 13.7713 2.11193 14.5917 2.12874C15.4121 2.14556 16.193 2.48429 16.7659 3.07182C17.3387 3.65935 17.6576 4.44857 17.6536 5.26914V9.72226C17.2547 9.94797 16.9415 10.299 16.7624 10.7209C16.5833 11.1428 16.5484 11.6119 16.6631 12.0557C16.7778 12.4994 17.0357 12.8929 17.3968 13.1752C17.7579 13.4574 18.202 13.6126 18.6603 13.6168C19.1187 13.6209 19.5655 13.4737 19.9317 13.198C20.2978 12.9223 20.5627 12.5335 20.6854 12.0919C20.8081 11.6503 20.7816 11.1805 20.6101 10.7555C20.4387 10.3305 20.1318 9.97386 19.737 9.74101H19.7359Z" fill="#28272A"/>
<mask id="mask0_2496_141960" style="mask-type:alpha" maskUnits="userSpaceOnUse" x="0" y="1" width="8" height="14">
<rect y="1.10315" width="8" height="13" fill="#D9D9D9"/>
</mask>
<g mask="url(#mask0_2496_141960)">
<path d="M4.10208 3.66393C3.6946 3.66352 3.29103 3.74347 2.91448 3.89922C2.53794 4.05497 2.1958 4.28345 1.90766 4.57159C1.61953 4.85973 1.39104 5.20186 1.2353 5.57841C1.07955 5.95496 0.99959 6.35852 1 6.76601C1 9.09205 4.10208 12.5264 4.10208 12.5264C4.10208 12.5264 7.20417 9.09205 7.20417 6.76601C7.20458 6.35852 7.12462 5.95496 6.96887 5.57841C6.81312 5.20186 6.58464 4.85973 6.29651 4.57159C6.00837 4.28345 5.66623 4.05497 5.28969 3.89922C4.91314 3.74347 4.50957 3.66352 4.10208 3.66393ZM4.10208 7.8733C3.88308 7.8733 3.669 7.80836 3.48691 7.68669C3.30481 7.56502 3.16289 7.39208 3.07908 7.18975C2.99527 6.98742 2.97334 6.76478 3.01607 6.54999C3.05879 6.3352 3.16425 6.13789 3.31911 5.98304C3.47397 5.82818 3.67127 5.72272 3.88606 5.68C4.10086 5.63727 4.3235 5.6592 4.52583 5.74301C4.72816 5.82682 4.90109 5.96874 5.02276 6.15083C5.14443 6.33293 5.20938 6.54701 5.20938 6.76601C5.2091 7.0596 5.09235 7.34108 4.88475 7.54868C4.67716 7.75628 4.39567 7.87303 4.10208 7.8733ZM19.7354 10.741V6.26184C19.7281 5.79148 19.6566 5.32432 19.5229 4.8733C19.1811 3.68093 18.4247 2.64984 17.3899 1.96587C16.3551 1.28189 15.1101 0.989998 13.8791 1.1428C12.6482 1.2956 11.5123 1.88304 10.6762 2.79926C9.84003 3.71548 9.35864 4.90022 9.31875 6.13997V6.3983L9.30833 7.30455V17.6712H9.30417V17.7139C9.30417 18.2665 9.08467 18.7964 8.69397 19.1871C8.30327 19.5778 7.77337 19.7973 7.22083 19.7973C6.6683 19.7973 6.1384 19.5778 5.7477 19.1871C5.35699 18.7964 5.1375 18.2665 5.1375 17.7139C5.1375 17.7014 5.14063 17.6889 5.14167 17.6754H5.1375V15.6514H3.05417V17.7348H3.05625C3.05694 18.8393 3.49637 19.8983 4.27787 20.6788C5.05937 21.4593 6.11892 21.8974 7.22344 21.8967C8.32795 21.896 9.38696 21.4566 10.1675 20.6751C10.948 19.8936 11.3861 18.8341 11.3854 17.7296H11.3875V16.7066H11.3927V8.34622L11.4031 6.3983V6.14101C11.4328 5.32097 11.7838 4.54548 12.3802 3.98192C12.9767 3.41837 13.7708 3.11193 14.5912 3.12874C15.4116 3.14556 16.1925 3.48429 16.7653 4.07182C17.3382 4.65935 17.6571 5.44857 17.6531 6.26914V10.7223C17.2542 10.948 16.9409 11.299 16.7618 11.7209C16.5827 12.1428 16.5478 12.6119 16.6625 13.0557C16.7772 13.4994 17.0351 13.8929 17.3963 14.1752C17.7574 14.4574 18.2015 14.6126 18.6598 14.6168C19.1181 14.6209 19.565 14.4737 19.9311 14.198C20.2973 13.9223 20.5622 13.5335 20.6849 13.0919C20.8076 12.6503 20.7811 12.1805 20.6096 11.7555C20.4382 11.3305 20.1312 10.9739 19.7365 10.741H19.7354Z" fill="#FEC200"/>
</g>
</svg>
