<svg width="55" height="55" viewBox="0 0 55 55" fill="none" xmlns="http://www.w3.org/2000/svg">
<g clip-path="url(#clip0_2682_166997)">
<path d="M19.1873 45.1526C18.9241 43.5249 16.2818 44.0701 15.2289 44.1258C14.0522 44.1882 12.734 44.249 11.4814 44.4903C11.0246 43.0057 9.53977 41.3443 8.76747 40.8211C7.70264 40.0997 6.43085 39.7075 5.14695 39.6772C4.58892 39.6641 3.07989 39.7716 3.30855 40.7055C3.5617 41.7395 5.31454 42.1239 6.11436 42.6865C6.60778 43.0338 7.07419 43.4532 7.41996 43.9532C7.81117 44.5193 7.85003 45.0983 8.0898 45.7151C8.20287 46.0059 8.35784 46.2505 8.54334 46.4456C8.60669 46.5483 8.69957 46.6306 8.82122 46.6846C9.20586 46.9503 9.67859 47.0412 10.1824 46.9296C11.2108 47.017 12.2641 46.9529 13.2877 46.9667C14.7312 46.9862 16.2589 47.3027 17.6889 47.1199C18.7641 46.9824 19.3637 46.2424 19.1873 45.1526Z" fill="#E0DFE6"/>
<path d="M17.6408 31.9138C17.6683 31.8136 17.6853 31.7098 17.6805 31.6011C17.6555 31.0448 17.3158 30.6026 16.7873 30.4277C16.1954 30.2318 15.4506 30.4895 14.8918 30.7182C14.5372 30.8633 14.2215 31.1521 14.2217 31.5657C13.6483 31.5319 13.0736 31.4615 12.5774 31.4375C11.2698 31.3742 9.96141 31.2722 8.65732 31.1576C7.47917 31.0541 6.30001 30.8848 5.11555 30.9247C5.06861 30.562 4.88285 30.3146 4.67841 29.9896C4.42451 29.586 3.89449 29.6153 3.63479 29.9896C1.71815 32.7507 4.47928 33.8344 6.80504 34.1989C8.48065 34.4614 10.1719 34.6815 11.8642 34.796C13.4282 34.902 15.3532 35.185 16.8746 34.7324C18.2526 34.3228 18.34 32.7603 17.6408 31.9138Z" fill="#E0DFE6"/>
<path d="M18.8096 42.2881C18.4441 40.0971 18.5082 37.5591 17.4666 35.5589C17.2311 35.1066 16.4674 35.0834 16.2387 35.5589C15.21 37.6989 15.604 40.4081 15.8046 42.6949C15.848 43.1896 16.0542 43.7994 16.5623 44.0159C16.6706 44.0619 16.7786 44.1081 16.8866 44.154C17.3639 44.3572 17.7437 44.3128 18.1468 43.9915C18.2367 43.9198 18.3262 43.8484 18.4161 43.7767C18.8603 43.4223 18.8939 42.7921 18.8096 42.2881Z" fill="#E0DFE6"/>
<path d="M24.2342 14.3365C23.9119 13.3416 23.4592 12.4617 22.8259 11.6251C22.1419 10.7213 21.1316 10.0206 20.9509 8.83592C20.5938 6.49375 21.0125 4.33053 19.6978 2.17261C19.4608 1.78368 18.8695 1.86394 18.7395 2.29779C18.5643 2.88182 18.4846 3.46812 18.4445 4.05871C18.1721 3.2763 17.1737 2.78364 16.3822 3.26217C15.8507 3.58346 15.6684 3.91056 15.248 4.12786C14.9564 4.27854 14.5521 4.33684 14.1584 4.48222C13.6632 4.6652 13.4237 5.17098 13.6804 5.65734C14.0574 6.37134 14.7518 6.68532 15.4998 6.705C15.487 6.75826 15.4786 6.81353 15.4801 6.87183C15.4837 7.00257 15.4832 7.13331 15.5006 7.26303C15.522 7.42305 15.5851 7.55934 15.6528 7.70471C15.6732 7.74838 15.7017 7.78522 15.7325 7.8193C15.5215 7.94953 15.3588 8.15321 15.3037 8.43134C14.9489 10.2238 15.5039 12.0781 15.6021 13.8935C15.6922 15.558 15.5236 17.17 15.3769 18.826C15.1533 21.3481 14.7937 25.4057 16.4576 27.4932C16.6575 27.7439 17.0985 27.65 17.2393 27.3925C17.9672 26.0629 17.6974 24.4499 17.7082 22.9747C17.7176 21.7229 17.7882 20.4948 17.9117 19.2613C18.2569 19.9751 19.4391 20.156 19.9628 19.5491C20.9083 18.4532 21.7485 17.2011 21.7523 15.848C22.8133 16.7049 24.7562 15.9475 24.2342 14.3365ZM18.7885 13.9804C18.639 14.0063 18.502 14.0775 18.393 14.1792C18.401 13.8749 18.4051 13.569 18.4005 13.2636C18.5277 13.4948 18.6658 13.7345 18.7885 13.9804ZM17.2239 6.96698C17.1452 6.83574 17.0056 6.79536 16.8801 6.82489C16.8733 6.70021 16.8266 6.58007 16.755 6.47659C17.501 6.19164 18.1431 5.6591 18.4061 4.98775C18.3988 5.33075 18.3955 5.67551 18.3864 6.0233C18.3604 7.02024 18.1825 8.10904 18.2473 9.12566C17.9372 8.38919 17.6343 7.65045 17.2239 6.96698ZM18.529 16.5595C18.3877 16.7594 18.2693 16.9343 18.1678 17.1009C18.207 16.774 18.2423 16.4366 18.2743 16.0939C18.3874 16.1378 18.5512 16.157 18.5956 16.1585C18.6883 16.1617 18.7718 16.1469 18.8521 16.1252C18.7647 16.242 18.6587 16.3763 18.529 16.5595Z" fill="#E0DFE6"/>
<path d="M18.2812 1.21718C18.1099 0.687921 17.513 0.247504 16.9365 0.453705C16.8065 0.500144 16.6763 0.546584 16.5463 0.593023C16.0135 0.783324 15.5994 1.34085 15.7889 1.9269C15.9651 2.47155 16.5425 2.86376 17.1228 2.68431C17.2543 2.64368 17.386 2.60279 17.5178 2.56216C18.0632 2.39306 18.467 1.79136 18.2812 1.21718Z" fill="#E0DFE6"/>
<path d="M39.3417 32.1137C39.0555 30.6882 36.7795 30.7074 36.4791 32.1137C36.0054 34.3317 35.7696 36.3614 34.0128 38.0171C32.2122 39.7139 30.0987 38.1387 28.0612 37.7644C27.402 37.6433 26.6541 38.1877 26.8992 38.9264C27.8704 41.8529 32.6663 42.7784 35.0862 41.3168C37.9947 39.5602 40.0143 35.4634 39.3417 32.1137Z" fill="#E0DFE6"/>
<path d="M41.7738 36.9019C41.1292 36.2581 40.1608 36.7772 40.0896 37.5995C39.969 38.9965 40.3057 40.6721 39.6666 41.9689C38.9544 43.414 37.8775 42.725 36.7054 43.124C36.3371 43.2492 36.0913 43.5534 36.0789 43.9468C36.0418 45.1315 37.2876 45.7989 38.3242 45.9447C39.6795 46.1358 40.9748 45.651 41.9424 44.6884C44.0764 42.5658 43.8235 38.949 41.7738 36.9019Z" fill="#E0DFE6"/>
<path d="M27.2599 22.6715C26.93 23.2719 26.8409 24.1709 26.2672 24.5886C25.9144 24.8456 24.9341 25.0952 24.5303 24.8761C23.9528 24.5626 23.4544 25.1732 23.6911 25.715C24.0137 26.4528 24.1416 27.008 24.9319 27.4209C25.6221 27.7819 26.3836 27.8667 27.1453 27.72C28.9209 27.378 29.5768 25.9091 30.3077 24.4526C31.3198 22.4368 28.3621 20.6653 27.2599 22.6715Z" fill="#E0DFE6"/>
<path d="M52.2208 37.4593C52.0052 37.5217 51.8063 37.666 51.6075 37.7246C51.1466 37.8601 50.5303 37.8152 50.0487 37.8687C49.3112 37.951 48.5639 38.0037 47.8383 38.1579C47.6624 36.1762 47.4673 34.1954 47.2348 32.2197C47.0917 31.0057 47.0599 29.4856 46.8272 28.0669C53.5698 26.6798 57.8682 18.1117 53.8726 12.2422C53.4809 11.6665 52.327 11.7977 52.4151 12.6369C52.7273 15.605 52.4025 18.9052 50.5351 21.3471C49.7408 22.3857 48.7232 23.2461 47.5672 23.8553C46.7073 24.3084 45.6708 24.4091 44.8571 24.907C44.8467 24.9121 44.8371 24.9181 44.827 24.9239C44.6892 25.0105 44.556 25.1059 44.4336 25.2202C43.955 25.667 43.9101 26.3138 44.1039 26.8858C44.0769 27.1071 44.0593 27.3305 44.0497 27.5556C43.7748 26.9244 43.1605 26.5163 42.4129 26.4635C40.6225 26.3373 39.6672 24.7306 38.7091 23.4232C38.4325 23.0459 37.8306 22.9533 37.5734 23.4232C36.6607 25.09 37.2438 26.7813 38.4242 28.0387C38.1938 28.8935 38.2601 29.8677 38.2546 30.7274C38.2447 32.2437 38.272 33.7598 38.3013 35.2759C38.3424 37.4263 37.7432 41.1926 40.2593 42.0344C40.5437 42.1295 40.8143 42.1222 41.0563 42.044C41.1094 42.471 41.1745 42.8927 41.2345 43.3167C41.209 43.3112 41.1873 43.3019 41.1608 43.2973C38.559 42.8519 35.5674 43.582 32.9469 43.8533C30.5229 44.1042 27.7325 44.194 25.5163 45.2619C24.961 45.5294 25.1528 46.3532 25.6798 46.5127C28.0639 47.2346 30.8631 46.854 33.3199 46.7237C35.8077 46.592 38.7957 46.8749 41.1608 46.0741C41.3403 46.0133 41.4968 45.9128 41.6333 45.7904C41.6666 45.9734 41.6967 46.1584 41.7295 46.3416C40.9723 46.2217 40.3333 46.6094 39.517 46.941C38.1153 47.5107 36.6794 48.0109 35.2252 48.4269C32.1006 49.3208 28.8264 49.9349 25.6016 50.3324C24.8666 50.423 24.5007 51.6544 25.4055 51.7814C26.3933 51.9202 27.3691 52.0171 28.342 52.0678C28.0273 52.4035 28.0856 53.0539 28.5109 53.3005C31.983 55.3156 37.424 55.4344 41.1939 54.2028C42.7792 53.6849 44.2521 52.805 45.14 51.3531C45.5325 50.711 45.8737 49.8806 46.0812 49.019C47.3719 48.8102 47.9357 47.435 48.1467 45.7775C48.6691 45.8838 49.2095 45.9224 49.7426 45.9641C50.6951 46.0385 51.7783 46.2296 52.6488 45.7632C53.3658 45.379 53.6409 44.4242 53.3239 43.7029C52.9696 42.8968 52.2152 42.6164 51.3775 42.7476C50.3972 42.9013 49.2686 42.9654 48.2456 43.2249C48.2136 42.0876 48.1071 41.0167 48.0324 40.2651C49.0735 40.494 50.184 40.5634 51.2185 40.6482C52.3343 40.7396 53.7321 40.5488 53.9882 39.2255C54.1881 38.188 53.3388 37.136 52.2208 37.4593ZM38.9368 51.0313C37.9161 51.2332 36.8836 51.3341 35.847 51.3942C36.4768 51.2531 37.1032 51.0971 37.7241 50.925C38.3972 50.7382 39.0622 50.5305 39.721 50.2986C40.1591 50.1426 40.5942 49.9783 41.0263 49.8059C41.3521 49.7113 41.55 49.6416 41.6315 49.5939C41.7353 49.5992 41.8335 49.5919 41.9284 49.5778C41.2212 50.4914 40.0529 50.8104 38.9368 51.0313Z" fill="#E0DFE6"/>
<path d="M53.073 32.0396C53.021 31.9538 52.9479 31.867 52.8817 31.7918C52.5864 31.4563 52.1029 31.3882 51.6905 31.4768C51.1251 31.5984 50.7501 31.9833 50.2536 32.2428C49.8344 32.4619 49.3649 32.5598 48.8993 32.6246C48.4334 32.6898 48.1489 33.2599 48.2118 33.6779C48.2867 34.1766 48.6656 34.4643 49.1545 34.5102C50.4964 34.6359 52.2399 34.4391 53.0728 33.2753C53.3184 32.9326 53.283 32.3861 53.073 32.0396Z" fill="#E0DFE6"/>
<path d="M48.7264 16.6959C48.6033 15.1101 46.7732 14.6871 45.8606 15.9195C45.7336 16.0912 45.6526 16.2845 45.5483 16.4707C45.5282 16.5071 45.3775 16.731 45.3898 16.7325C45.2992 16.8337 45.1945 16.9324 45.0946 17.0187C44.9474 17.1461 45.0378 17.0904 44.8179 17.2095C44.2291 17.5285 43.1817 17.7693 43.3725 18.72C43.6198 19.9532 45.4547 19.9936 46.3691 19.6703C47.5586 19.2493 48.8329 18.0679 48.7264 16.6959Z" fill="#E0DFE6"/>
<path d="M38.8371 16.6252C35.8022 15.8468 31.7708 15.4314 28.9534 17.0876C28.497 17.3559 28.5692 18.1113 29.104 18.241C30.5361 18.5878 32.0378 18.5585 33.4959 18.7566C35.0281 18.9651 36.4879 19.3343 37.9674 19.7788C39.9865 20.3853 40.8777 17.1484 38.8371 16.6252Z" fill="#E0DFE6"/>
<path d="M31.6945 52.2409C28.3057 52.2409 25.0469 51.7897 22.0078 50.9C21.8223 50.8457 21.6795 50.6973 21.6325 50.5101C21.1833 48.7239 20.1599 47.462 18.8245 47.0473C18.6001 46.9774 18.4456 46.7719 18.4413 46.5372C18.3457 41.414 18.1344 38.4439 17.9482 35.8233C17.7768 33.4122 17.6289 31.3305 17.6289 28.2363C17.6289 25.5592 17.7294 22.8604 17.8265 20.2504L17.8346 20.0309C17.8427 19.8113 17.9817 19.6182 18.1874 19.541C19.6081 19.0067 20.6545 17.6955 21.3865 15.532C21.4506 15.3425 21.6131 15.2034 21.81 15.1694C27.6462 14.1626 33.912 14.1747 40.1235 15.2024C40.336 15.2375 40.5077 15.3945 40.5619 15.6027C40.9892 17.2445 42.0359 18.5675 43.3622 19.1419C43.5318 19.2154 43.6524 19.3696 43.683 19.5516L43.7125 19.729C43.9843 21.3516 44.2655 23.0297 44.3394 24.7318C44.6163 31.0948 44.8452 36.8321 44.8452 42.6113C44.8452 43.8157 44.8349 45.0034 44.8147 46.1417C44.8114 46.3227 44.7188 46.49 44.5673 46.5887C43.1037 47.5417 42.1883 48.8766 41.7686 50.6706C41.7217 50.8717 41.5649 51.029 41.364 51.0764C38.1112 51.8495 34.8582 52.2409 31.6945 52.2409ZM22.606 49.9381C28.1371 51.4969 34.4579 51.5456 40.7914 50.0911C41.282 48.2956 42.2688 46.8676 43.7302 45.8396C43.7471 44.7942 43.7557 43.7097 43.7557 42.6113C43.7557 36.8541 43.5272 31.1294 43.2511 24.7793C43.1817 23.1797 42.9165 21.5712 42.6555 20.0129C41.2497 19.301 40.1374 17.9181 39.6064 16.2223C33.7363 15.2872 27.8322 15.2759 22.3102 16.19C21.5268 18.3414 20.4107 19.7303 18.9108 20.4193C18.8156 22.9793 18.7187 25.623 18.7187 28.2363C18.7187 31.2919 18.8654 33.356 19.0355 35.7458C19.2179 38.3154 19.4244 41.2191 19.5236 46.1422C20.9645 46.7386 22.0667 48.0932 22.606 49.9381Z" fill="url(#paint0_linear_2682_166997)"/>
<path d="M19.3471 20.1296C19.0609 20.1296 18.8209 19.9065 18.8037 19.617C18.7858 19.3169 19.0147 19.0587 19.3153 19.0408L20.5679 18.9656C24.8482 18.7077 29.2741 18.4414 33.6376 18.4414C37.0138 18.4414 40.0258 18.5999 42.8462 18.9257C43.1451 18.9606 43.3594 19.2309 43.325 19.5295C43.2904 19.8285 43.0199 20.0431 42.7211 20.0085C39.9428 19.6874 36.9716 19.5312 33.6376 19.5312C29.3069 19.5312 24.8974 19.7965 20.6333 20.0534L19.3802 20.1286C19.3691 20.1294 19.3582 20.1296 19.3471 20.1296Z" fill="url(#paint1_linear_2682_166997)"/>
<path d="M30.3228 47.5468C26.545 47.5468 22.6744 47.4955 18.9017 46.9312C18.6041 46.8868 18.3989 46.6094 18.4436 46.3118C18.488 46.0145 18.7646 45.8081 19.0632 45.8535C23.1729 46.4683 27.445 46.4595 31.5741 46.4559L32.8578 46.4544C37.2006 46.4544 40.9016 46.1677 44.1726 45.5774C44.4684 45.5266 44.7521 45.721 44.8056 46.017C44.8591 46.3133 44.6622 46.5968 44.3659 46.6503C41.0306 47.252 37.2662 47.5442 32.8578 47.5442L31.5756 47.5458C31.1597 47.546 30.7415 47.5468 30.3228 47.5468Z" fill="url(#paint2_linear_2682_166997)"/>
<path d="M31.0184 39.7077C30.946 39.7077 30.874 39.7062 30.8016 39.7039C27.2916 39.5782 24.9164 36.4738 24.9005 33.6529C24.8821 30.393 27.4865 27.6251 30.7062 27.4825C30.8566 27.4762 31.0088 27.4754 31.1615 27.48C33.9443 27.5718 36.319 29.1818 37.2115 31.5813C37.3324 31.9068 37.4959 32.3892 37.5234 32.8202C37.639 34.6213 36.9899 36.3466 35.6957 37.6785C34.4345 38.9755 32.7407 39.7077 31.0184 39.7077ZM30.9661 28.5667C30.8957 28.5667 30.8256 28.5683 30.7554 28.5713C28.1568 28.6861 25.9752 31.0104 25.99 33.6466C26.0014 35.6571 27.6932 38.5023 30.8405 38.6146C32.3285 38.6711 33.8143 38.0497 34.9135 36.9188C35.9904 35.8108 36.5311 34.3798 36.4354 32.8896C36.415 32.5681 36.2453 32.111 36.1898 31.9606C35.441 29.9473 33.5004 28.6478 31.1251 28.569C31.0721 28.5672 31.0191 28.5667 30.9661 28.5667Z" fill="url(#paint3_linear_2682_166997)"/>
<path d="M43.8995 27.7684C43.846 27.7684 43.7917 27.7605 43.7382 27.7439C40.8895 26.8625 37.5625 24.6655 37.5625 21.3741C37.5625 20.7232 37.6955 20.0541 37.9582 19.3855C38.068 19.1049 38.384 18.9676 38.6647 19.0774C38.9448 19.1874 39.0829 19.5039 38.9726 19.7838C38.7601 20.3252 38.6523 20.8602 38.6523 21.3741C38.6523 24.0724 41.5654 25.931 44.0602 26.703C44.3477 26.7916 44.5087 27.0973 44.4199 27.3845C44.3477 27.6184 44.1322 27.7684 43.8995 27.7684Z" fill="url(#paint4_linear_2682_166997)"/>
<path d="M18.5577 37.3169C18.3989 37.3169 18.2417 37.2478 18.1337 37.115C17.9444 36.8808 17.9805 36.5378 18.2144 36.3483C19.5534 35.264 20.4607 33.5957 20.5258 32.0975C20.5261 31.7391 19.7886 30.6089 17.9631 29.8341C17.6859 29.7162 17.5567 29.3967 17.6743 29.1196C17.7922 28.8425 18.1127 28.7138 18.3888 28.8309C20.2288 29.612 21.6159 31.0087 21.6159 32.0801L21.6146 32.1422C21.5351 33.969 20.495 35.904 18.8999 37.1955C18.7995 37.2773 18.6783 37.3169 18.5577 37.3169Z" fill="url(#paint5_linear_2682_166997)"/>
<path d="M38.8686 44.0466C37.4954 44.0466 36.3642 42.9465 36.346 41.5942C36.3309 40.4597 36.8601 39.6505 37.9192 39.1884C38.1932 39.0688 38.4875 39.0054 38.7944 38.9996C39.4718 38.9787 40.1798 39.2656 40.6664 39.7467C41.1442 40.2184 41.3938 40.8458 41.3887 41.5603C41.3776 43.0234 40.3416 44.0456 38.8686 44.0466ZM38.8401 40.0892C38.8315 40.0892 38.823 40.0892 38.8146 40.0894C38.6516 40.0922 38.4971 40.1253 38.355 40.1873C37.8707 40.3983 37.4242 40.7131 37.4358 41.579C37.4472 42.4301 38.1882 42.9566 38.8686 42.9566C39.7447 42.9558 40.2926 42.418 40.2992 41.552C40.3022 41.133 40.1682 40.786 39.9007 40.5218C39.6286 40.2537 39.2245 40.0892 38.8401 40.0892Z" fill="url(#paint6_linear_2682_166997)"/>
<path d="M25.1437 47.4721C24.9153 47.4721 24.7028 47.3277 24.6268 47.0996C23.8272 44.7004 21.95 43.3791 19.34 43.3791C19.2007 43.3791 19.0621 43.3837 18.9248 43.3943C18.6217 43.422 18.3628 43.1931 18.3395 42.893C18.3163 42.5932 18.5409 42.3312 18.8408 42.308C19.0064 42.2951 19.1729 42.2891 19.34 42.2891C22.4113 42.2891 24.7151 43.9167 25.6606 46.7546C25.7557 47.0403 25.6015 47.3489 25.3158 47.4438C25.2588 47.4633 25.2007 47.4721 25.1437 47.4721Z" fill="url(#paint7_linear_2682_166997)"/>
<path d="M25.9947 26.1808C25.9402 26.1808 25.8854 26.1793 25.8306 26.1765C24.1565 26.0884 23.3777 24.6349 23.3597 23.6312C23.3499 23.0926 23.5357 22.6431 23.7434 22.1923C24.0031 21.6282 24.5452 21.23 25.311 21.0399C25.6514 20.9554 25.9177 20.9175 26.1875 20.9253C26.8725 20.9387 27.5613 21.2557 28.0771 21.7945C28.5789 22.3183 28.8575 22.9995 28.8421 23.6642C28.8275 24.3182 28.5448 24.933 28.0466 25.3954C27.5032 25.8991 26.763 26.1808 25.9947 26.1808ZM24.733 22.6481C24.5745 22.9924 24.4438 23.3026 24.4491 23.6112C24.4574 24.0688 24.8201 25.0322 25.8874 25.0882C26.4089 25.1152 26.9434 24.9317 27.3048 24.5966C27.5032 24.4123 27.742 24.0966 27.7523 23.639C27.7609 23.2619 27.5926 22.8642 27.2899 22.5484C26.9775 22.2223 26.5573 22.0227 26.1658 22.0151C26.0005 22.0088 25.8168 22.0371 25.5727 22.0979C25.2708 22.1726 24.8799 22.3289 24.733 22.6481Z" fill="url(#paint8_linear_2682_166997)"/>
<path d="M7.79079 28.669C7.77918 28.669 7.76706 28.6688 7.7552 28.668C7.45486 28.6486 7.2272 28.3896 7.24639 28.089C7.26027 27.8745 7.26632 27.6579 7.26632 27.4409C7.26632 26.4177 7.12574 25.3372 6.98971 24.2923C6.85064 23.2245 6.70703 22.1205 6.70703 21.0494C6.70703 17.5493 8.31273 16.0662 9.86542 14.6324C11.6703 12.9654 13.3751 11.391 12.6697 6.3874C12.6276 6.08933 12.8353 5.81372 13.1331 5.77182C13.4317 5.73068 13.7068 5.93714 13.7487 6.23546C14.5339 11.8042 12.4466 13.7319 10.6047 15.433C9.09791 16.8244 7.79685 18.026 7.79685 21.0494C7.79685 22.0499 7.9296 23.0708 8.07043 24.1515C8.21101 25.231 8.35614 26.3473 8.35614 27.4409C8.35614 27.6814 8.34932 27.9212 8.33393 28.1594C8.3155 28.4477 8.07599 28.669 7.79079 28.669Z" fill="url(#paint9_linear_2682_166997)"/>
<path d="M22.2505 15.7466C22.0943 15.7466 21.9393 15.68 21.8315 15.5505C21.2026 14.7959 20.6264 14.3797 20.0691 13.9779C18.4369 12.7998 17.5137 11.8884 17.5137 6.85727L17.5157 6.23211C17.5172 5.93227 17.7608 5.68896 18.0606 5.68896C18.3642 5.69048 18.607 5.93479 18.6055 6.23564L18.6035 6.85727C18.6035 11.5757 19.3952 12.1471 20.7069 13.094C21.2902 13.5153 21.9517 13.9923 22.6685 14.8529C22.861 15.0839 22.83 15.4276 22.5988 15.6202C22.4971 15.7053 22.3734 15.7466 22.2505 15.7466Z" fill="url(#paint10_linear_2682_166997)"/>
<path d="M14.7085 6.87153C13.9258 6.87153 13.1101 6.85841 12.2144 6.83115C11.9312 6.82257 11.7018 6.59845 11.6867 6.31527C11.649 5.60504 11.5925 4.88246 11.5377 4.18309C11.4461 3.0163 11.3515 1.80963 11.3399 0.599928C11.3371 0.307914 11.5645 0.0658734 11.8558 0.0504777C12.4951 0.0166576 13.178 0 13.9433 0C14.9417 0 15.9576 0.0282675 16.9399 0.0552731C17.4792 0.0704164 18.0176 0.0855597 18.5536 0.0956553C18.8504 0.101713 19.0879 0.343753 19.0879 0.640562L19.0877 0.821525C19.0877 2.43353 19.1016 4.30676 19.2671 6.1396C19.2803 6.28498 19.2343 6.42985 19.1397 6.54115C19.045 6.65246 18.9098 6.72136 18.7641 6.73196C17.4835 6.8256 16.157 6.87153 14.7085 6.87153ZM12.7457 5.75572C14.7865 5.80721 16.4939 5.78348 18.1359 5.68202C18.0193 4.121 18.0004 2.5625 17.9981 1.17411C17.6362 1.16528 17.2733 1.15543 16.9098 1.14509C15.9349 1.11808 14.9268 1.09007 13.9435 1.09007C13.4042 1.09007 12.9077 1.09865 12.44 1.11556C12.4688 2.11552 12.5478 3.12104 12.6243 4.09803C12.6667 4.64067 12.7103 5.19769 12.7457 5.75572Z" fill="url(#paint11_linear_2682_166997)"/>
<path d="M12.1379 4.02053C11.8785 4.02053 11.6488 3.83452 11.6021 3.57027C11.5499 3.27397 11.7475 2.99129 12.0441 2.9388C12.7177 2.81992 13.4542 2.76465 14.3615 2.76465C14.889 2.76465 15.4218 2.78307 15.9374 2.80049C16.7826 2.82951 17.6895 2.85147 18.3896 2.81084C18.6892 2.79216 18.9479 3.02183 18.9658 3.32243C18.9835 3.62302 18.7543 3.88071 18.454 3.89863C17.7122 3.94255 16.7693 3.91983 15.9003 3.89005C15.394 3.87263 14.8706 3.85471 14.3617 3.85471C13.5193 3.85471 12.8431 3.90469 12.2336 4.01246C12.2015 4.01801 12.1695 4.02053 12.1379 4.02053Z" fill="url(#paint12_linear_2682_166997)"/>
<path d="M2.86999 41.1629C2.58352 41.1629 2.34325 40.939 2.32659 40.6495C2.28596 39.9474 2.26526 39.2142 2.26526 38.4694L2.26451 37.7428C2.25971 35.5099 2.2582 34.674 2.78291 34.1646C3.21424 33.7454 3.81089 33.7649 4.71419 33.7924C4.99484 33.8012 5.31765 33.8115 5.68917 33.8115C7.0132 33.8115 8.35161 33.8466 9.64561 33.8807C10.9305 33.9143 12.2596 33.9496 13.5647 33.9496C15.2913 33.9496 16.7271 33.8893 18.083 33.7601C18.383 33.73 18.6486 33.9509 18.6773 34.2507C18.7059 34.5505 18.486 34.8166 18.1867 34.8451C16.7955 34.9778 15.3266 35.0394 13.5647 35.0394C12.2452 35.0394 10.9091 35.0043 9.61684 34.9703C8.32965 34.9364 6.99856 34.9014 5.68917 34.9014C5.30453 34.9014 4.97011 34.891 4.67986 34.8819C4.17004 34.866 3.64204 34.8489 3.54235 34.9465C3.34902 35.1343 3.35129 36.2844 3.35432 37.7407L3.35533 38.4694C3.35533 39.1932 3.37527 39.9055 3.41464 40.5862C3.43205 40.8868 3.20238 41.1442 2.90204 41.1616C2.89119 41.1626 2.88059 41.1629 2.86999 41.1629Z" fill="url(#paint13_linear_2682_166997)"/>
<path d="M14.4446 44.8315C13.4315 44.8315 12.404 44.7947 11.4106 44.7591C10.1315 44.7137 8.81305 44.6665 7.53723 44.6995C7.24345 44.6955 6.98652 44.4693 6.97869 44.1685C6.97112 43.8677 7.20887 43.6175 7.50946 43.6097C8.81457 43.5772 10.1545 43.6238 11.4495 43.67C12.4336 43.7051 13.4509 43.7417 14.4443 43.7417C16.0965 43.7417 17.4296 43.6392 18.6395 43.4192C18.9356 43.3649 19.2195 43.5615 19.2733 43.8576C19.3273 44.1539 19.1309 44.4373 18.8349 44.4911C17.5588 44.7235 16.1639 44.8315 14.4446 44.8315Z" fill="url(#paint14_linear_2682_166997)"/>
<path d="M2.95855 34.4691C2.94694 34.4691 2.93558 34.4688 2.92397 34.4681C2.62363 34.4491 2.39547 34.1907 2.41414 33.8901C2.42878 33.6551 2.43459 33.4224 2.43459 33.1912C2.43459 32.7723 2.41566 32.3457 2.39723 31.9336C2.37856 31.5149 2.35938 31.0818 2.35938 30.6499C2.35938 29.4004 2.39774 28.6041 2.9275 28.0836C3.56705 27.4557 4.65939 27.4764 7.05355 27.5178C9.30006 27.5582 12.6957 27.619 17.9514 27.2344C18.252 27.2126 18.5127 27.438 18.5347 27.7381C18.5567 28.0382 18.331 28.2994 18.0309 28.3214C12.726 28.7098 9.30031 28.6482 7.03411 28.6076C5.14473 28.5735 4.00495 28.5536 3.69123 28.8613C3.46711 29.0813 3.44919 29.7711 3.44919 30.6499C3.44919 31.0575 3.46711 31.4596 3.48604 31.8849C3.50497 32.3091 3.5244 32.7478 3.5244 33.1912C3.5244 33.4454 3.51809 33.7008 3.50194 33.9582C3.48377 34.247 3.244 34.4691 2.95855 34.4691Z" fill="url(#paint15_linear_2682_166997)"/>
<path d="M9.08259 31.176C6.41005 31.176 5.03226 30.9696 3.05606 28.9931C2.84329 28.7803 2.84329 28.4353 3.05606 28.2226C3.26882 28.0098 3.61384 28.0098 3.8266 28.2226C5.52972 29.9254 6.62054 30.0862 9.08259 30.0862C10.5351 30.0862 12.0323 29.9676 13.48 29.8535C14.9383 29.7382 16.446 29.619 17.9205 29.619C18.2216 29.619 18.4654 29.8631 18.4654 30.1639C18.4654 30.4648 18.2216 30.7088 17.9205 30.7088C16.4892 30.7088 15.0031 30.8262 13.566 30.9398C12.0969 31.0561 10.5782 31.176 9.08259 31.176Z" fill="url(#paint16_linear_2682_166997)"/>
<path d="M8.02612 46.3158C7.75935 46.3158 7.52614 46.1197 7.48728 45.8478C7.11349 43.2321 4.40157 41.0224 1.56498 41.0224C1.25101 41.0224 0.939813 41.0504 0.639975 41.1057C0.345186 41.1628 0.0599866 40.9649 0.00521831 40.6691C-0.0492976 40.3733 0.146051 40.0891 0.442103 40.0343C0.807057 39.9667 1.18488 39.9326 1.56523 39.9326C4.97197 39.9326 8.11269 42.5171 8.56649 45.6941C8.60914 45.9922 8.40193 46.2681 8.10411 46.3107C8.07786 46.314 8.05187 46.3158 8.02612 46.3158Z" fill="url(#paint17_linear_2682_166997)"/>
<path d="M45.1706 17.9638C45.1434 17.9638 45.1161 17.9636 45.0883 17.9623C43.8213 17.925 42.9226 17.0666 42.9027 15.8746C42.8898 15.0911 43.282 14.3713 43.9266 13.9953C44.2976 13.7792 44.7022 13.6578 45.0967 13.6447C45.7148 13.6235 46.3904 13.8981 46.8707 14.36C47.2836 14.7572 47.5125 15.2625 47.5151 15.7829C47.5183 16.3546 47.2909 16.8927 46.8752 17.2988C46.4343 17.7294 45.8319 17.9638 45.1706 17.9638ZM44.4758 14.9369C44.1712 15.1146 43.9859 15.4669 43.9925 15.8564C44.0046 16.5817 44.5831 16.8571 45.1204 16.8733C45.5156 16.8836 45.8682 16.7589 46.1138 16.5192C46.3162 16.3215 46.4268 16.0623 46.4252 15.7887C46.4237 15.5025 46.2559 15.2807 46.1151 15.1457C45.848 14.8885 45.4505 14.7249 45.1335 14.734C44.9185 14.7416 44.6911 14.8115 44.4758 14.9369Z" fill="url(#paint18_linear_2682_166997)"/>
<path d="M44.4196 24.0148C44.4093 24.0148 44.3989 24.0146 44.3883 24.014C44.1334 23.9994 43.8775 23.9764 43.6274 23.9449C43.3288 23.9073 43.1173 23.6347 43.1547 23.3364C43.192 23.0376 43.4649 22.8273 43.7632 22.8634C43.9886 22.8917 44.2195 22.9126 44.4497 22.9255C44.7503 22.9427 44.9799 23.2001 44.963 23.5007C44.9466 23.7907 44.7064 24.0148 44.4196 24.0148Z" fill="url(#paint19_linear_2682_166997)"/>
<path d="M47.7227 23.6652C47.4854 23.6652 47.2671 23.5093 47.199 23.2697C47.1167 22.9803 47.2845 22.6786 47.574 22.5964C48.0238 22.4684 48.4619 22.3033 48.8756 22.1067C49.1479 21.978 49.4727 22.0929 49.6017 22.3647C49.7309 22.6368 49.6153 22.9618 49.3435 23.0908C48.8753 23.3137 48.3801 23.4999 47.8723 23.6443C47.8224 23.6584 47.7721 23.6652 47.7227 23.6652ZM51.7563 21.1499C51.6294 21.1499 51.5019 21.106 51.3987 21.0159C51.1715 20.8183 51.1478 20.4743 51.3454 20.2471C51.6483 19.8996 51.9168 19.523 52.1435 19.1278C52.2934 18.8673 52.6268 18.7765 52.8873 18.9266C53.1485 19.0763 53.2386 19.4095 53.0887 19.6707C52.8267 20.127 52.5168 20.5619 52.1675 20.9632C52.0597 21.0863 51.9083 21.1499 51.7563 21.1499ZM53.5723 16.7778C53.5604 16.7778 53.5485 16.7776 53.5364 16.7768C53.2361 16.7574 53.0084 16.4979 53.0279 16.1978C53.0372 16.0535 53.042 15.9083 53.042 15.7617C53.042 15.7602 53.0417 15.7243 53.0417 15.7226C53.0402 15.4293 53.0152 15.1337 52.9675 14.8443C52.9183 14.5472 53.1195 14.2668 53.4163 14.2178C53.7116 14.1681 53.9935 14.3693 54.0427 14.6663C54.1 15.0129 54.1298 15.3667 54.1316 15.7178L54.1318 15.7609C54.1321 15.9308 54.1265 16.1001 54.1157 16.268C54.097 16.5565 53.8572 16.7778 53.5723 16.7778ZM52.1576 12.2868C51.9941 12.2868 51.8325 12.2136 51.7253 12.074C51.4514 11.7174 51.1352 11.3744 50.7859 11.0544C50.564 10.8507 50.5489 10.5062 50.7521 10.2841C50.9555 10.0628 51.3003 10.0469 51.5219 10.2503C51.9179 10.6132 52.277 11.0034 52.5895 11.4098C52.773 11.6485 52.728 11.9905 52.4895 12.174C52.3903 12.25 52.2735 12.2868 52.1576 12.2868ZM38.3179 11.8731C38.2053 11.8731 38.092 11.8383 37.9946 11.7666C37.7526 11.5879 37.7013 11.2465 37.88 11.0047C38.198 10.5736 38.5602 10.1778 38.9564 9.82728C39.1816 9.62789 39.5261 9.64859 39.7255 9.87473C39.9249 10.1001 39.9037 10.4444 39.6783 10.6438C39.3396 10.9431 39.0294 11.2823 38.7566 11.6515C38.6498 11.7964 38.4847 11.8731 38.3179 11.8731ZM48.3554 9.40427C48.2837 9.40427 48.2113 9.39014 48.1414 9.36036C47.7065 9.17435 47.2613 9.02266 46.8176 8.90909C46.5261 8.83463 46.3499 8.53757 46.4246 8.24606C46.4988 7.9543 46.7964 7.77814 47.0874 7.85335C47.5851 7.9808 48.0838 8.15066 48.5699 8.35863C48.8465 8.47675 48.975 8.79703 48.8566 9.0739C48.768 9.28061 48.5669 9.40427 48.3554 9.40427ZM42.2097 9.15593C41.9841 9.15593 41.7731 9.01484 41.6951 8.78971C41.5964 8.50527 41.7469 8.19483 42.0313 8.09615C42.5335 7.922 43.0451 7.78924 43.5519 7.70242C43.847 7.65093 44.1302 7.85082 44.1814 8.14738C44.2324 8.44394 44.033 8.7256 43.7364 8.77684C43.2882 8.85382 42.8349 8.97118 42.3887 9.12589C42.3294 9.14633 42.269 9.15593 42.2097 9.15593Z" fill="url(#paint20_linear_2682_166997)"/>
<path d="M36.8776 15.6423C36.8582 15.6423 36.8385 15.6413 36.8188 15.6391C36.5195 15.607 36.3029 15.3385 36.3352 15.0391C36.3627 14.7822 36.4021 14.5243 36.4521 14.2724C36.5109 13.9776 36.7981 13.7853 37.0929 13.8441C37.3879 13.9029 37.5798 14.1896 37.5212 14.4849C37.4775 14.7052 37.4432 14.9306 37.419 15.1555C37.3884 15.4354 37.1522 15.6423 36.8776 15.6423Z" fill="url(#paint21_linear_2682_166997)"/>
<path d="M47.4944 32.6825L47.3457 32.6823C47.1441 32.6823 46.9588 32.571 46.8644 32.3928C46.7698 32.2146 46.7814 31.9991 46.8945 31.832C47.1085 31.5155 47.3208 31.197 47.5328 30.8785C48.0698 30.0721 48.6254 29.2379 49.2091 28.4464C49.3119 28.3074 49.4744 28.2251 49.6473 28.2251C49.8204 28.2251 49.9829 28.3071 50.0857 28.4457C50.4913 28.9939 50.9297 29.5458 51.3537 30.0796C51.7999 30.6417 52.2613 31.2227 52.6923 31.8088C52.8175 31.9786 52.8332 32.2058 52.7325 32.3913C52.632 32.5768 52.4331 32.6835 52.2224 32.6757C51.7749 32.6502 51.2886 32.6379 50.7363 32.6379C50.1998 32.6379 49.6629 32.649 49.1263 32.6603C48.5824 32.6712 48.0385 32.6825 47.4944 32.6825ZM49.6586 29.6869C49.2417 30.2783 48.8358 30.8878 48.4401 31.4824C48.4174 31.5165 48.3947 31.5506 48.372 31.5846C48.616 31.5806 48.8601 31.5758 49.1041 31.5705C49.7815 31.5566 50.4832 31.5435 51.126 31.5503C50.9175 31.2835 50.7073 31.0185 50.5001 30.7573C50.222 30.4072 49.9378 30.0489 49.6586 29.6869Z" fill="url(#paint22_linear_2682_166997)"/>
<path d="M47.4943 38.2406L47.3419 38.2404C47.141 38.2389 46.9572 38.1271 46.8633 37.9491C46.7699 37.7714 46.7818 37.5564 46.8944 37.3901C47.1084 37.0736 47.3207 36.7551 47.5327 36.4366C48.0697 35.6302 48.6253 34.796 49.209 34.0045C49.3117 33.8655 49.4743 33.7832 49.6472 33.7832C49.8203 33.7832 49.9828 33.8652 50.0856 34.0038C50.4912 34.552 50.9296 35.104 51.3536 35.6378C51.7998 36.1998 52.2612 36.7808 52.6922 37.3669C52.8174 37.5367 52.8331 37.7639 52.7324 37.9494C52.6319 38.1349 52.433 38.2409 52.2223 38.2338C51.7748 38.2083 51.2885 38.196 50.7362 38.196C50.1997 38.196 49.6628 38.2071 49.1262 38.2184C48.5823 38.2293 48.0384 38.2406 47.4943 38.2406ZM49.6585 35.245C49.2416 35.8364 48.8357 36.4459 48.44 37.0405C48.4173 37.0746 48.3946 37.1087 48.3719 37.1427C48.6159 37.1387 48.86 37.1339 49.104 37.1286C49.7814 37.1147 50.4831 37.1014 51.1259 37.1084C50.9174 36.8416 50.7072 36.5766 50.5 36.3154C50.2219 35.9654 49.9377 35.607 49.6585 35.245Z" fill="url(#paint23_linear_2682_166997)"/>
<path d="M47.4944 43.7992L47.3457 43.799C47.1441 43.799 46.9588 43.6877 46.8644 43.5095C46.7698 43.3313 46.7814 43.1158 46.8945 42.9487C47.1085 42.6322 47.3208 42.3137 47.5328 41.9952C48.0698 41.1888 48.6254 40.3546 49.2091 39.5631C49.3119 39.4241 49.4744 39.3418 49.6473 39.3418C49.8204 39.3418 49.9829 39.4238 50.0857 39.5624C50.4913 40.1106 50.9297 40.6625 51.3537 41.1963C51.7999 41.7584 52.2613 42.3394 52.6923 42.9255C52.8175 43.0953 52.8332 43.3225 52.7325 43.508C52.632 43.6935 52.4331 43.8028 52.2224 43.7924C51.7749 43.7669 51.2886 43.7546 50.7363 43.7546C50.1998 43.7546 49.6629 43.7657 49.1263 43.777C48.5824 43.7879 48.0385 43.7992 47.4944 43.7992ZM49.6586 40.8036C49.2417 41.395 48.8358 42.0045 48.4401 42.5991C48.4174 42.6332 48.3947 42.6673 48.372 42.7013C48.616 42.6973 48.8601 42.6925 49.1041 42.6872C49.7815 42.6733 50.4832 42.6594 51.126 42.667C50.9175 42.4002 50.7073 42.1352 50.5001 41.874C50.222 41.5239 49.9378 41.1656 49.6586 40.8036Z" fill="url(#paint24_linear_2682_166997)"/>
</g>
<defs>
<linearGradient id="paint0_linear_2682_166997" x1="19.8969" y1="14.4229" x2="43.0308" y2="14.4229" gradientUnits="userSpaceOnUse">
<stop stop-color="#DC2430"/>
<stop offset="1" stop-color="#7B4397"/>
</linearGradient>
<linearGradient id="paint1_linear_2682_166997" x1="20.8466" y1="18.4414" x2="41.6936" y2="18.4414" gradientUnits="userSpaceOnUse">
<stop stop-color="#DC2430"/>
<stop offset="1" stop-color="#7B4397"/>
</linearGradient>
<linearGradient id="paint2_linear_2682_166997" x1="20.6356" y1="45.5693" x2="43.0559" y2="45.5693" gradientUnits="userSpaceOnUse">
<stop stop-color="#DC2430"/>
<stop offset="1" stop-color="#7B4397"/>
</linearGradient>
<linearGradient id="paint3_linear_2682_166997" x1="25.9534" y1="27.4771" x2="36.6942" y2="27.4771" gradientUnits="userSpaceOnUse">
<stop stop-color="#DC2430"/>
<stop offset="1" stop-color="#7B4397"/>
</linearGradient>
<linearGradient id="paint4_linear_2682_166997" x1="38.136" y1="19.0396" x2="43.9855" y2="19.0396" gradientUnits="userSpaceOnUse">
<stop stop-color="#DC2430"/>
<stop offset="1" stop-color="#7B4397"/>
</linearGradient>
<linearGradient id="paint5_linear_2682_166997" x1="17.9629" y1="28.7876" x2="21.3502" y2="28.7876" gradientUnits="userSpaceOnUse">
<stop stop-color="#DC2430"/>
<stop offset="1" stop-color="#7B4397"/>
</linearGradient>
<linearGradient id="paint6_linear_2682_166997" x1="36.766" y1="38.9985" x2="41.0526" y2="38.9985" gradientUnits="userSpaceOnUse">
<stop stop-color="#DC2430"/>
<stop offset="1" stop-color="#7B4397"/>
</linearGradient>
<linearGradient id="paint7_linear_2682_166997" x1="18.9505" y1="42.2891" x2="25.1986" y2="42.2891" gradientUnits="userSpaceOnUse">
<stop stop-color="#DC2430"/>
<stop offset="1" stop-color="#7B4397"/>
</linearGradient>
<linearGradient id="paint8_linear_2682_166997" x1="23.8163" y1="20.9243" x2="28.4772" y2="20.9243" gradientUnits="userSpaceOnUse">
<stop stop-color="#DC2430"/>
<stop offset="1" stop-color="#7B4397"/>
</linearGradient>
<linearGradient id="paint9_linear_2682_166997" x1="7.308" y1="5.7666" x2="13.4379" y2="5.7666" gradientUnits="userSpaceOnUse">
<stop stop-color="#DC2430"/>
<stop offset="1" stop-color="#7B4397"/>
</linearGradient>
<linearGradient id="paint10_linear_2682_166997" x1="17.9538" y1="5.68896" x2="22.4427" y2="5.68896" gradientUnits="userSpaceOnUse">
<stop stop-color="#DC2430"/>
<stop offset="1" stop-color="#7B4397"/>
</linearGradient>
<linearGradient id="paint11_linear_2682_166997" x1="12.0006" y1="0" x2="18.7407" y2="0" gradientUnits="userSpaceOnUse">
<stop stop-color="#DC2430"/>
<stop offset="1" stop-color="#7B4397"/>
</linearGradient>
<linearGradient id="paint12_linear_2682_166997" x1="12.2082" y1="2.76465" x2="18.4752" y2="2.76465" gradientUnits="userSpaceOnUse">
<stop stop-color="#DC2430"/>
<stop offset="1" stop-color="#7B4397"/>
</linearGradient>
<linearGradient id="paint13_linear_2682_166997" x1="3.63168" y1="33.7573" x2="17.5854" y2="33.7573" gradientUnits="userSpaceOnUse">
<stop stop-color="#DC2430"/>
<stop offset="1" stop-color="#7B4397"/>
</linearGradient>
<linearGradient id="paint14_linear_2682_166997" x1="8.00383" y1="43.4102" x2="18.462" y2="43.4102" gradientUnits="userSpaceOnUse">
<stop stop-color="#DC2430"/>
<stop offset="1" stop-color="#7B4397"/>
</linearGradient>
<linearGradient id="paint15_linear_2682_166997" x1="3.70744" y1="27.2329" x2="17.4577" y2="27.2329" gradientUnits="userSpaceOnUse">
<stop stop-color="#DC2430"/>
<stop offset="1" stop-color="#7B4397"/>
</linearGradient>
<linearGradient id="paint16_linear_2682_166997" x1="4.19389" y1="28.063" x2="17.4275" y2="28.063" gradientUnits="userSpaceOnUse">
<stop stop-color="#DC2430"/>
<stop offset="1" stop-color="#7B4397"/>
</linearGradient>
<linearGradient id="paint17_linear_2682_166997" x1="0.710757" y1="39.9326" x2="8.00032" y2="39.9326" gradientUnits="userSpaceOnUse">
<stop stop-color="#DC2430"/>
<stop offset="1" stop-color="#7B4397"/>
</linearGradient>
<linearGradient id="paint18_linear_2682_166997" x1="43.2867" y1="13.6436" x2="47.2076" y2="13.6436" gradientUnits="userSpaceOnUse">
<stop stop-color="#DC2430"/>
<stop offset="1" stop-color="#7B4397"/>
</linearGradient>
<linearGradient id="paint19_linear_2682_166997" x1="43.3015" y1="22.8594" x2="44.843" y2="22.8594" gradientUnits="userSpaceOnUse">
<stop stop-color="#DC2430"/>
<stop offset="1" stop-color="#7B4397"/>
</linearGradient>
<linearGradient id="paint20_linear_2682_166997" x1="39.1366" y1="7.69434" x2="53.0413" y2="7.69434" gradientUnits="userSpaceOnUse">
<stop stop-color="#DC2430"/>
<stop offset="1" stop-color="#7B4397"/>
</linearGradient>
<linearGradient id="paint21_linear_2682_166997" x1="36.432" y1="13.8335" x2="37.4517" y2="13.8335" gradientUnits="userSpaceOnUse">
<stop stop-color="#DC2430"/>
<stop offset="1" stop-color="#7B4397"/>
</linearGradient>
<linearGradient id="paint22_linear_2682_166997" x1="47.3006" y1="28.2251" x2="52.3986" y2="28.2251" gradientUnits="userSpaceOnUse">
<stop stop-color="#DC2430"/>
<stop offset="1" stop-color="#7B4397"/>
</linearGradient>
<linearGradient id="paint23_linear_2682_166997" x1="47.3006" y1="33.7832" x2="52.3985" y2="33.7832" gradientUnits="userSpaceOnUse">
<stop stop-color="#DC2430"/>
<stop offset="1" stop-color="#7B4397"/>
</linearGradient>
<linearGradient id="paint24_linear_2682_166997" x1="47.3006" y1="39.3418" x2="52.3986" y2="39.3418" gradientUnits="userSpaceOnUse">
<stop stop-color="#DC2430"/>
<stop offset="1" stop-color="#7B4397"/>
</linearGradient>
<clipPath id="clip0_2682_166997">
<rect width="55" height="55" fill="white"/>
</clipPath>
</defs>
</svg>
