<svg width="221" height="124" viewBox="0 0 221 124" fill="none" xmlns="http://www.w3.org/2000/svg">
<path style="mix-blend-mode:multiply" opacity="0.3" d="M220.441 77.5117C220.585 81.5147 171.458 91.8671 110.713 100.634C49.9678 109.401 0.606952 113.263 0.463248 109.26C0.319543 105.257 49.4467 94.9046 110.192 86.1379C170.938 77.3711 220.298 73.5087 220.441 77.5117Z" fill="url(#paint0_radial_2528_159550)"/>
<path d="M53.9567 20.5093C53.5319 20.569 53.0993 20.4906 52.7225 20.2856L52.2853 20.0478C50.5919 19.1265 51.0538 16.5787 52.9627 16.3104L166.087 0.412209C166.512 0.352529 166.944 0.430922 167.321 0.635823L167.757 0.873187C169.451 1.79432 168.989 4.34234 167.08 4.61065L53.9567 20.5093Z" fill="#A70063"/>
<path d="M53.238 95.7634C53.2352 97.2789 51.6134 98.2407 50.2822 97.5164L47.9409 96.2426C47.2962 95.8918 46.8954 95.2161 46.8967 94.4821L46.9238 79.7992C46.9266 78.2837 48.5483 77.3218 49.8795 78.046L52.2213 79.32C52.8661 79.6708 53.2669 80.3466 53.2656 81.0806L53.238 95.7634Z" fill="#13161C"/>
<path d="M53.9215 79.7964C53.4968 79.8561 53.0641 79.7777 52.6874 79.5727L52.2502 79.3349C50.5568 78.4136 51.0186 75.8658 52.9276 75.5975L166.052 59.6993C166.477 59.6396 166.909 59.718 167.286 59.9229L167.722 60.1603C169.416 61.0814 168.954 63.6295 167.045 63.8978L53.9215 79.7964Z" fill="#1B1E27"/>
<path d="M170.764 63.3755C171.969 63.2062 173.045 64.143 173.042 65.3598L173.014 80.5513C173.012 81.5469 172.278 82.3895 171.292 82.5281L55.517 98.7994C54.3121 98.9688 53.2364 98.0319 53.2387 96.8151L53.2672 81.6236C53.2691 80.628 54.0029 79.7854 54.9888 79.6468L170.764 63.3755Z" fill="#212630"/>
<path d="M63.7988 80.8903C64.6185 80.775 65.3503 81.4123 65.3487 82.2401L65.3294 92.4466C65.3282 93.1239 64.8288 93.6971 64.1581 93.7913C63.3385 93.9064 62.6069 93.2691 62.6084 92.4414L62.6277 82.2349C62.629 81.5577 63.1282 80.9846 63.7988 80.8903Z" fill="white"/>
<path d="M58.9706 81.7692C59.7903 81.6539 60.5222 82.2912 60.5206 83.119L60.5013 93.3255C60.5 94.0028 60.0007 94.576 59.33 94.6702C58.5103 94.7853 57.7787 94.148 57.7803 93.3203L57.7996 83.1138C57.8009 82.4366 58.3 81.8635 58.9706 81.7692Z" fill="white"/>
<path d="M91.9266 82.5542C92.6436 82.4534 93.2836 83.0109 93.2822 83.7349C93.2811 84.3272 92.8445 84.8286 92.2579 84.9111L71.5418 87.8227C70.8249 87.9234 70.1848 87.366 70.1862 86.642C70.1873 86.0496 70.6239 85.5483 71.2106 85.4658L91.9266 82.5542Z" fill="#CE007A"/>
<path d="M167.329 71.9526C168.046 71.8518 168.686 72.4093 168.685 73.1333C168.684 73.7257 168.247 74.227 167.661 74.3095L94.6434 84.5712C93.9264 84.672 93.2864 84.1146 93.2877 83.3906C93.2888 82.7982 93.7255 82.2968 94.3121 82.2143L167.329 71.9526Z" fill="white"/>
<path d="M93.7122 81.111C94.959 80.9357 95.9674 81.8681 95.9674 83.1974C95.9674 84.5267 94.9519 85.7432 93.7044 85.9185C92.457 86.0938 91.4492 85.1595 91.4492 83.8321C91.4492 82.5047 92.4654 81.285 93.7122 81.111Z" fill="#CE007A"/>
<path d="M170.798 4.08839C172.003 3.91904 173.079 4.85588 173.077 6.07265L172.975 60.795C172.973 61.7906 172.239 62.6333 171.253 62.7718L55.4779 79.0425C54.273 79.2119 53.1973 78.275 53.1996 77.0583L53.3016 22.3365C53.3035 21.3409 54.0373 20.4983 55.0233 20.3597L170.798 4.08839Z" fill="url(#paint1_linear_2528_159550)"/>
<path d="M53.2028 76.0048C53.2 77.5202 51.5784 78.4821 50.2471 77.7579L47.9059 76.4844C47.2611 76.1336 46.8602 75.4578 46.8616 74.7238L46.9621 20.5101C46.9649 18.9946 48.5866 18.0327 49.9178 18.757L52.2596 20.031C52.9044 20.3817 53.3052 21.0575 53.3039 21.7915L53.2028 76.0048Z" fill="#790048"/>
<path d="M126.1 25.0298C127.305 24.8604 128.381 25.7972 128.379 27.014L128.32 58.4812C128.318 59.4768 127.585 60.3195 126.599 60.458L98.5678 64.3978C97.3629 64.5671 96.2872 63.6303 96.2894 62.4135L96.3477 30.9458C96.3495 29.9501 97.0834 29.1075 98.0693 28.9689L126.1 25.0298Z" fill="white"/>
<path d="M105.732 38.2438C105.73 36.7713 107.265 35.8009 108.594 36.4352L120.972 42.3436C122.319 42.9865 122.512 44.8247 121.329 45.7342L108.98 55.2263C107.666 56.2363 105.764 55.3016 105.761 53.6443L105.732 38.2438Z" fill="#CE007A"/>
<defs>
<radialGradient id="paint0_radial_2528_159550" cx="0" cy="0" r="1" gradientUnits="userSpaceOnUse" gradientTransform="translate(108.581 90.3609) rotate(-7.9725) scale(111.697 7.40672)">
<stop/>
<stop offset="1" stop-color="white"/>
</radialGradient>
<linearGradient id="paint1_linear_2528_159550" x1="63.1858" y1="3.76758" x2="165.089" y2="3.76758" gradientUnits="userSpaceOnUse">
<stop stop-color="#DC2430"/>
<stop offset="1" stop-color="#7B4397"/>
</linearGradient>
</defs>
</svg>
