<svg width="55" height="55" viewBox="0 0 55 55" fill="none" xmlns="http://www.w3.org/2000/svg">
<path d="M19.7281 40.1702C19.6767 40.1677 19.656 40.168 19.6513 40.1699C19.5229 40.1526 19.4175 40.1501 19.2946 40.1481C19.2586 40.1272 19.2225 40.1063 19.1865 40.0857C18.9751 39.8611 18.7364 39.7458 18.4698 39.6462C18.1797 39.5375 17.837 39.6446 17.6054 39.8251C17.3383 40.0328 17.2558 40.2827 17.2145 40.6096C17.1446 41.1666 17.5761 41.7585 17.9602 42.1201C18.3696 42.5056 18.782 42.8639 19.352 42.969C20.1853 43.1228 20.9964 42.6872 21.1169 41.7843C21.2332 40.9131 20.5818 40.2114 19.7281 40.1702Z" fill="#E0DFE6"/>
<path d="M46.072 36.0404C45.4321 34.9215 43.564 35.6598 43.9679 36.9341C44.6789 39.1774 45.8858 41.6691 45.2352 44.0714C44.8703 45.4186 44.0171 46.2326 42.9544 46.7529C42.8648 46.614 42.7545 46.491 42.6305 46.3886C42.6225 46.3396 42.6212 46.2931 42.6083 46.2428C42.3759 45.3218 41.9739 44.4321 41.612 43.5557C41.2794 42.75 40.9639 41.9143 40.4829 41.185C41.3913 41.2769 42.3838 40.6872 42.1028 39.3642C41.8622 38.2305 41.4126 36.9839 40.1847 36.632C38.9147 36.2679 37.3093 36.6556 36.0166 36.7503C35.209 36.8092 35.2418 37.8923 36.0166 37.9916C36.8922 38.1036 37.7717 38.1994 38.6448 38.3284C39.3801 38.4369 39.382 38.6754 39.2127 39.3645C39.0761 39.9201 39.1908 40.3504 39.4377 40.655C39.0078 40.6999 38.6306 40.996 38.6711 41.5477C38.738 42.4605 38.9783 43.3416 39.1679 44.2345C39.3656 45.1652 39.4866 46.1236 39.736 47.0405C39.7687 47.1605 39.8116 47.2686 39.8621 47.3671C39.7521 47.4923 39.6527 47.625 39.5729 47.7672C39.5379 47.5785 39.5016 47.388 39.4658 47.1954C38.9862 44.6234 38.741 42.0031 38.1521 39.4534C37.9711 38.6686 36.9542 38.9476 36.8685 39.6284C36.6363 41.4723 36.7087 43.3097 36.8983 45.1539C37.0616 46.743 37.9326 49.0721 37.0345 50.4697C36.7311 50.9419 36.8502 51.4463 37.1544 51.8038C34.8185 52.6846 32.1536 52.9315 29.7614 53.4265C29.178 53.5473 29.264 54.367 29.7614 54.5322C32.6633 55.4958 36.2496 54.7977 39.1255 53.9851C41.7977 53.23 42.2847 51.5182 42.2776 49.1115C42.2951 49.0947 42.3123 49.0776 42.3298 49.0608C44.4765 49.0633 46.4342 48.2287 47.4772 45.9643C49.0116 42.6336 47.7853 39.0359 46.072 36.0404Z" fill="#E0DFE6"/>
<path d="M40.4026 9.0236C40.1451 8.37666 39.285 8.48233 39.211 9.18595C38.8196 12.908 39.5027 16.6837 37.4144 20.0378C37.2615 20.2832 37.1012 20.5202 36.9378 20.7535C37.1675 20.0884 37.3653 19.4393 37.5354 18.8441C38.3264 16.0752 38.6036 13.1859 38.2922 10.3208C38.2788 10.1975 38.2341 10.088 38.1701 9.99359C38.2619 9.75281 38.2936 9.49773 38.2693 9.24649C38.523 9.12018 38.774 8.987 39.019 8.83868C40.5913 7.88575 39.2176 5.68517 37.6105 6.41081C34.7411 7.70606 32.1197 8.96086 28.8887 8.89069C28.8254 8.88931 28.7661 8.89427 28.7109 8.9039C27.8788 8.58579 27.078 8.11002 26.3373 7.46198C25.7782 6.97271 24.7193 6.92483 24.3514 7.71982C23.3895 9.79712 22.3899 11.3263 20.2246 12.2671C19.5776 12.548 19.8889 13.7272 20.5925 13.6353C22.701 13.3598 24.7477 12.2401 25.8973 10.4542C29.0452 12.799 33.1628 13.1284 36.6909 11.2633C36.1526 13.4966 35.5004 15.6925 34.6114 17.8171C33.6151 20.1979 31.8728 22.3264 31.0614 24.7369C30.6315 26.014 31.8026 26.8043 32.8659 26.6533C32.861 26.6679 32.8539 26.6791 32.8492 26.6943C32.793 26.8781 32.7367 27.0616 32.6807 27.2454C32.5865 27.5534 32.5767 27.8371 32.6269 28.0927C32.592 28.0407 32.5559 27.9909 32.522 27.9356C32.2574 27.5038 31.9963 27.0726 31.7213 26.6472C31.4014 26.1522 30.8085 26.2248 30.5283 26.5883C30.3278 26.1533 29.5453 26.24 29.4705 26.7265C29.2053 28.4537 29.6016 29.9766 30.7836 31.2743C31.3446 31.8904 32.3358 31.7883 32.8615 31.2049C32.9495 31.1769 33.0371 31.1406 33.1232 31.0899C33.8311 30.6725 33.8669 29.8461 33.4709 29.2154C34.4377 29.7765 35.8942 29.5897 36.1671 28.2138C36.8095 24.9744 39.8367 22.8517 40.9519 19.7678C42.1514 16.452 41.6863 12.2498 40.4026 9.0236Z" fill="#E0DFE6"/>
<path d="M27.7967 26.735C27.7442 26.735 27.6912 26.7281 27.6385 26.7132C20.7289 24.7793 18.9031 20.2799 18.4978 18.901C17.7863 18.636 17.375 17.7491 17.375 16.417C17.375 15.1358 17.8385 14.6776 18.3544 14.2855C18.639 14.0689 18.7455 13.988 18.7455 13.5142C18.7455 12.6738 18.6603 11.7921 18.5702 10.8587C18.4798 9.92451 18.3864 8.95864 18.3864 8.03461C18.3864 2.24161 25.7081 0.291992 29.0484 0.291992C34.3734 0.291992 38.5483 3.24683 40.2165 8.19586C40.2697 8.35436 40.2544 8.52855 40.1739 8.67521C40.0933 8.82133 39.9551 8.927 39.7931 8.96525C38.5188 9.26739 37.461 9.63007 36.5275 9.9501C34.9428 10.4933 33.5739 10.9625 31.7815 10.9625C28.958 10.9625 26.977 9.70932 26.3475 7.52416C26.2568 7.20935 26.4365 6.87942 26.7493 6.78806C27.0614 6.6945 27.3892 6.87777 27.4801 7.19312C28.1274 9.43883 30.453 9.77427 31.7815 9.77427C33.3789 9.77427 34.6006 9.35545 36.1475 8.82518C36.9467 8.55138 37.8346 8.24732 38.8782 7.97076C36.5804 2.12769 31.2765 1.48075 29.0484 1.48075C26.5166 1.48075 19.5657 3.03412 19.5657 8.03516C19.5657 8.90168 19.6564 9.83838 19.7438 10.744C19.8328 11.6644 19.9248 12.6166 19.9248 13.5147C19.9248 14.5802 19.4278 14.9583 19.0648 15.2343C18.7573 15.4679 18.5543 15.6223 18.5543 16.4176C18.5543 17.1776 18.7436 17.7962 18.9763 17.7962C19.2598 17.7962 19.5031 17.9995 19.5559 18.2799C19.5968 18.491 20.6571 23.5264 27.954 25.5688C28.2678 25.6566 28.4516 25.9843 28.3645 26.3002C28.2918 26.563 28.055 26.735 27.7967 26.735Z" fill="url(#paint0_linear_2682_167065)"/>
<path d="M21.182 12.5107C20.9542 12.5107 20.7373 12.3772 20.6409 12.1533C20.5109 11.8522 20.6478 11.5027 20.9466 11.3715C22.8505 10.5374 23.6706 8.44609 24.4638 6.42328C24.623 6.01767 24.7795 5.61839 24.9417 5.23672C25.0704 4.9354 25.4178 4.79644 25.716 4.92467C26.0154 5.054 26.1541 5.4032 26.0257 5.70479C25.8676 6.076 25.7152 6.46483 25.5604 6.86026C24.7202 9.00305 23.7681 11.4317 21.4166 12.4617C21.3401 12.495 21.2604 12.5107 21.182 12.5107Z" fill="url(#paint1_linear_2682_167065)"/>
<path d="M30.884 26.9592C30.5847 26.9592 30.3285 26.7305 30.2979 26.4242C30.2654 26.0979 30.5019 25.8065 30.8261 25.774C34.0678 25.4471 36.1181 22.5506 36.9199 17.1635C37.0032 16.6046 37.2723 16.3844 37.5181 16.2224C37.6432 16.1395 37.8761 15.9857 37.8761 14.3817C37.8761 13.3083 37.7666 12.226 37.6609 11.1798C37.5834 10.4131 37.5031 9.62063 37.4659 8.8339C37.4506 8.50617 37.7016 8.22769 38.0269 8.21228C38.3582 8.201 38.6286 8.44949 38.6441 8.77749C38.6797 9.53203 38.7548 10.2739 38.8342 11.0595C38.9432 12.1352 39.0557 13.248 39.0557 14.3817C39.0557 16.2697 38.7427 16.8341 38.1654 17.2158C38.1432 17.2303 38.1209 17.2427 38.1009 17.2595C38.1026 17.2631 38.0941 17.2898 38.0867 17.3399C37.2073 23.249 34.7372 26.5742 30.9438 26.9559C30.9236 26.9583 30.904 26.9592 30.884 26.9592Z" fill="url(#paint2_linear_2682_167065)"/>
<path d="M25.2973 16.2728C24.3113 16.2728 23.7793 15.3204 23.7793 14.4242C23.7793 14.0962 24.0431 13.8301 24.369 13.8301C24.6948 13.8301 24.9586 14.0962 24.9586 14.4242C24.9586 14.6941 25.0791 15.0843 25.2973 15.0843C25.5065 15.0843 26.0268 14.8986 26.8052 14.3752C27.0758 14.1933 27.4421 14.2668 27.6229 14.5395C27.8037 14.8125 27.7305 15.1815 27.4598 15.3636C26.5629 15.9671 25.8353 16.2728 25.2973 16.2728Z" fill="url(#paint3_linear_2682_167065)"/>
<path d="M31.9674 16.106C31.0759 16.106 30.4201 15.5915 30.2557 14.7632C30.1918 14.4415 30.3988 14.1284 30.7184 14.0642C31.0382 14.0004 31.3485 14.2084 31.4121 14.5304C31.437 14.6561 31.4891 14.9181 31.9674 14.9181C32.2533 14.9181 32.5906 14.8149 32.8473 14.6484C33.1213 14.471 33.4859 14.551 33.6623 14.8268C33.8385 15.103 33.759 15.4704 33.4851 15.6479C33.0355 15.9387 32.4822 16.106 31.9674 16.106Z" fill="url(#paint4_linear_2682_167065)"/>
<path d="M28.8431 21.9236C28.6703 21.9236 28.4987 21.8474 28.3821 21.7007C28.1786 21.4442 28.2199 21.0705 28.4742 20.8655C28.6266 20.7425 28.6948 20.6184 28.6948 20.5499C28.6948 20.2874 28.5957 19.9902 28.4905 19.6754C28.3641 19.297 28.2207 18.8678 28.2207 18.3986C28.2207 18.1507 28.2614 17.9085 28.3417 17.6793C28.4501 17.37 28.7866 17.2074 29.0939 17.3169C29.4008 17.4258 29.5623 17.7651 29.4538 18.0747C29.4175 18.1784 29.4 18.2844 29.4 18.3989C29.4 18.6735 29.5011 18.9765 29.6084 19.2965C29.7332 19.6696 29.8744 20.0926 29.8744 20.5502C29.8744 21.007 29.639 21.4486 29.211 21.7934C29.1026 21.8812 28.9723 21.9236 28.8431 21.9236Z" fill="url(#paint5_linear_2682_167065)"/>
<path d="M25.9565 23.3301C25.8399 23.3301 25.7219 23.2952 25.6189 23.2226C24.9427 22.7457 24.5134 21.9719 24.4415 21.1007C24.4145 20.7735 24.6556 20.4865 24.9801 20.459C25.3089 20.4367 25.5897 20.6747 25.6168 21.0016C25.6596 21.5206 25.9071 21.9755 26.2955 22.2495C26.5623 22.4375 26.6273 22.8081 26.4405 23.077C26.3255 23.2421 26.1425 23.3301 25.9565 23.3301Z" fill="url(#paint6_linear_2682_167065)"/>
<path d="M17.6092 47.8958C17.5873 47.8958 17.5655 47.8947 17.5434 47.8923C17.0755 47.8397 16.615 47.8086 16.1699 47.7786C13.4045 47.592 10.793 47.4159 10.793 41.9512C10.793 29.7098 15.0312 28.3691 20.5717 27.8889C22.97 27.6809 25.0413 27.5015 26.207 25.5032C26.3722 25.2203 26.7336 25.1256 27.014 25.2921C27.2948 25.4583 27.3885 25.8224 27.2235 26.1052C25.7492 28.633 23.1685 28.8564 20.6728 29.073C16.3952 29.4439 11.9723 29.8273 11.9723 41.9515C11.9723 46.3048 13.4911 46.4074 16.2485 46.5934C16.7065 46.6243 17.1799 46.6565 17.6734 46.7115C17.997 46.7478 18.2305 47.0414 18.1942 47.3678C18.1612 47.671 17.9055 47.8958 17.6092 47.8958Z" fill="url(#paint7_linear_2682_167065)"/>
<path d="M41.271 47.5695C40.9656 47.5695 40.7075 47.3328 40.6835 47.021C40.6586 46.6939 40.9014 46.4082 41.2262 46.3832C43.7973 46.1837 45.0335 45.8339 45.0335 40.1117C45.0335 31.434 41.8221 31.109 38.4223 30.7648C35.8733 30.5072 32.9846 30.2147 32.0915 26.0287C32.0229 25.7076 32.2256 25.392 32.544 25.3229C32.8619 25.2541 33.176 25.4583 33.2446 25.7789C33.9574 29.119 35.9798 29.3234 38.5403 29.5826C42.8876 30.0224 46.2131 31.0768 46.2131 40.1117C46.2131 46.2049 44.7696 47.2998 41.3171 47.5675C41.3016 47.5692 41.2863 47.5695 41.271 47.5695Z" fill="url(#paint8_linear_2682_167065)"/>
<path d="M28.6027 33.8652C25.8483 33.8652 22.9338 32.5484 22.6321 29.6074C22.5987 29.281 22.8339 28.9888 23.1581 28.9552C23.4795 28.9238 23.7718 29.1586 23.8054 29.4852C24.0318 31.6899 26.3779 32.677 28.603 32.677C31.0963 32.677 32.838 31.5906 34.427 29.0438C34.6007 28.7656 34.9645 28.6822 35.24 28.857C35.5156 29.0314 35.5989 29.398 35.4255 29.6759C34.2085 31.6266 32.3332 33.8652 28.6027 33.8652Z" fill="url(#paint9_linear_2682_167065)"/>
<path d="M36.4661 51.3051C34.3208 51.3051 32.1511 51.2234 30.053 51.1447C27.9642 51.0657 25.8044 50.9845 23.6779 50.9845L23.307 50.9854C22.3497 50.9922 21.5659 50.2724 21.4776 49.3178C21.3222 47.6359 21.1898 45.9359 21.0614 44.2925C20.9339 42.6594 20.8019 40.9712 20.6484 39.3042C20.6009 38.7885 20.7716 38.2734 21.1163 37.8903C21.4585 37.5106 21.9466 37.2915 22.4557 37.2896C23.9786 37.2838 25.5012 37.2866 27.0244 37.2899C27.9079 37.2915 28.7915 37.2935 29.675 37.2935C32.0949 37.2935 34.956 37.2813 37.8282 37.1916C38.8201 37.1553 39.6622 37.9396 39.7124 38.9288C39.7646 39.9514 39.8039 40.972 39.8435 41.9915C39.9353 44.3679 40.0303 46.8253 40.2944 49.2424C40.3496 49.7487 40.1906 50.26 39.8577 50.645C39.522 51.033 39.0362 51.2638 38.5246 51.2779C37.8637 51.2963 37.1904 51.3051 36.4661 51.3051ZM23.6779 49.7963C25.8265 49.7963 27.9975 49.8781 30.097 49.9573C32.1842 50.0357 34.3429 50.1172 36.4661 50.1172C37.1795 50.1172 37.8418 50.1084 38.4913 50.0905C38.677 50.085 38.8464 50.0049 38.9679 49.8646C39.0864 49.7273 39.141 49.5525 39.1214 49.3726C38.8529 46.9136 38.757 44.4351 38.6645 42.0378C38.6254 41.0232 38.5861 40.0078 38.5342 38.9902C38.5164 38.6421 38.2275 38.3807 37.8642 38.3793C34.976 38.4698 32.1036 38.4819 29.6745 38.4819C28.7901 38.4819 27.906 38.48 27.0217 38.4781C25.5004 38.4753 23.9797 38.4726 22.4595 38.4781C22.2781 38.4789 22.1113 38.5538 21.9889 38.6891C21.8641 38.8276 21.8051 39.0073 21.8223 39.1944C21.9769 40.8696 22.1088 42.5625 22.2366 44.1995C22.3647 45.8393 22.4972 47.5347 22.6515 49.2083C22.6821 49.539 22.9656 49.7974 23.2977 49.7974C23.3007 49.7969 23.6779 49.7963 23.6779 49.7963Z" fill="url(#paint10_linear_2682_167065)"/>
<path d="M19.6583 43.7495C17.986 43.7495 17.207 43.0626 17.207 41.588C17.207 41.2743 17.2384 40.9564 17.269 40.6493C17.2961 40.3764 17.3217 40.1182 17.3217 39.8959C17.3217 39.8241 17.319 39.7547 17.3125 39.6892C17.2786 39.3629 17.5137 39.0706 17.8377 39.0362C18.1602 39.0065 18.4516 39.2393 18.4852 39.5654C18.4962 39.6703 18.5011 39.7811 18.5011 39.8956C18.5011 40.1771 18.4713 40.4773 18.4426 40.7674C18.4153 41.0456 18.3866 41.3331 18.3866 41.5877C18.3866 42.2269 18.4432 42.561 19.6585 42.561C20.048 42.561 20.4528 42.5026 20.8808 42.4407L20.9499 42.4305C21.2713 42.3846 21.5709 42.61 21.6171 42.9349C21.6632 43.2594 21.4393 43.5607 21.1167 43.6072L21.0479 43.6168C20.5975 43.6823 20.1319 43.7495 19.6583 43.7495Z" fill="url(#paint11_linear_2682_167065)"/>
<path d="M39.6088 41.9772C39.2928 41.9772 39.0311 41.7252 39.0199 41.4043C39.0082 41.0763 39.2627 40.8009 39.588 40.7893C40.6046 40.7524 41.3709 39.9214 41.3709 38.8554C41.3709 38.6749 41.3477 38.4932 41.3021 38.3155C41.2204 37.9979 41.4097 37.6738 41.7249 37.5915C42.0412 37.5103 42.3621 37.7002 42.4437 38.0177C42.5145 38.2924 42.5503 38.5744 42.5503 38.8557C42.5503 40.5472 41.2674 41.9184 39.6301 41.9772C39.623 41.9772 39.6159 41.9772 39.6088 41.9772Z" fill="url(#paint12_linear_2682_167065)"/>
<path d="M31.3898 46.6496C31.2885 46.6496 31.1874 46.6232 31.097 46.5712C30.3345 46.1317 29.5422 45.7641 28.7034 45.3741C28.2869 45.1807 27.8699 44.987 27.4564 44.7842C27.2982 44.7063 27.1827 44.5618 27.1415 44.3893C27.1002 44.2168 27.1374 44.0349 27.2431 43.8929L27.4315 43.6408C28.096 42.7528 28.7826 41.8346 29.2808 40.8373C29.4217 40.5553 29.7563 40.4323 30.0439 40.5605C30.7892 40.8888 31.5958 41.1841 32.582 41.4895C32.7363 41.5371 32.8647 41.6466 32.9365 41.7925C33.0086 41.938 33.0182 42.107 32.9633 42.26C32.6571 43.1106 32.4501 44.0442 32.2499 44.9471C32.157 45.3664 32.0641 45.7855 31.9615 46.1994C31.9167 46.3799 31.7905 46.5291 31.6206 46.602C31.5471 46.6336 31.4685 46.6496 31.3898 46.6496ZM28.6201 44.0261C28.8124 44.1166 29.0047 44.206 29.1972 44.2952C29.7907 44.5706 30.3987 44.853 30.9935 45.1631C31.0293 45.0049 31.0643 44.8464 31.0995 44.6876C31.2639 43.9457 31.433 43.1832 31.6605 42.4411C31.0834 42.2512 30.5634 42.0616 30.0742 41.8615C29.6402 42.632 29.1303 43.3406 28.6201 44.0261Z" fill="url(#paint13_linear_2682_167065)"/>
<path d="M30.0672 53.9541C28.8878 53.9541 27.02 53.9459 25.3998 53.7202C24.5308 53.5989 21.8867 53.2301 21.8867 51.523C21.8867 51.4085 21.8894 51.294 21.8919 51.1834C21.8941 51.0898 21.8963 50.9996 21.8963 50.9156C21.8963 50.5876 22.1601 50.3215 22.4859 50.3215C22.8118 50.3215 23.0756 50.5876 23.0756 50.9156C23.0756 51.0084 23.0734 51.1083 23.071 51.2115C23.0685 51.3127 23.066 51.4176 23.066 51.523C23.066 51.8331 23.7196 52.2866 25.5615 52.5433C27.1669 52.7673 29.0722 52.7648 30.2067 52.7662H30.3313C36.5458 52.7662 38.8619 51.8554 38.8619 51.2813C38.8619 51.1746 38.8578 51.0678 38.854 50.963C38.8496 50.8468 38.8455 50.7332 38.8455 50.6234C38.8455 50.2954 39.1093 50.0293 39.4351 50.0293C39.761 50.0293 40.0248 50.2954 40.0248 50.6234C40.0248 50.7186 40.0286 50.8177 40.0325 50.9181C40.0368 51.0381 40.0412 51.1594 40.0412 51.2813C40.0412 51.9423 40.0412 53.9544 30.3313 53.9544H30.207C30.1617 53.9541 30.115 53.9541 30.0672 53.9541Z" fill="url(#paint14_linear_2682_167065)"/>
<defs>
<linearGradient id="paint0_linear_2682_167065" x1="19.2811" y1="0.291992" x2="38.7229" y2="0.291992" gradientUnits="userSpaceOnUse">
<stop stop-color="#DC2430"/>
<stop offset="1" stop-color="#7B4397"/>
</linearGradient>
<linearGradient id="paint1_linear_2682_167065" x1="21.0486" y1="4.87695" x2="25.7082" y2="4.87695" gradientUnits="userSpaceOnUse">
<stop stop-color="#DC2430"/>
<stop offset="1" stop-color="#7B4397"/>
</linearGradient>
<linearGradient id="paint2_linear_2682_167065" x1="31.025" y1="8.21191" x2="38.4717" y2="8.21191" gradientUnits="userSpaceOnUse">
<stop stop-color="#DC2430"/>
<stop offset="1" stop-color="#7B4397"/>
</linearGradient>
<linearGradient id="paint3_linear_2682_167065" x1="24.1079" y1="13.8301" x2="27.4593" y2="13.8301" gradientUnits="userSpaceOnUse">
<stop stop-color="#DC2430"/>
<stop offset="1" stop-color="#7B4397"/>
</linearGradient>
<linearGradient id="paint4_linear_2682_167065" x1="30.5368" y1="14.0527" x2="33.5219" y2="14.0527" gradientUnits="userSpaceOnUse">
<stop stop-color="#DC2430"/>
<stop offset="1" stop-color="#7B4397"/>
</linearGradient>
<linearGradient id="paint5_linear_2682_167065" x1="28.3585" y1="17.2827" x2="29.7642" y2="17.2827" gradientUnits="userSpaceOnUse">
<stop stop-color="#DC2430"/>
<stop offset="1" stop-color="#7B4397"/>
</linearGradient>
<linearGradient id="paint6_linear_2682_167065" x1="24.6151" y1="20.4575" x2="26.4066" y2="20.4575" gradientUnits="userSpaceOnUse">
<stop stop-color="#DC2430"/>
<stop offset="1" stop-color="#7B4397"/>
</linearGradient>
<linearGradient id="paint7_linear_2682_167065" x1="12.169" y1="25.21" x2="26.2041" y2="25.21" gradientUnits="userSpaceOnUse">
<stop stop-color="#DC2430"/>
<stop offset="1" stop-color="#7B4397"/>
</linearGradient>
<linearGradient id="paint8_linear_2682_167065" x1="33.256" y1="25.3096" x2="45.2707" y2="25.3096" gradientUnits="userSpaceOnUse">
<stop stop-color="#DC2430"/>
<stop offset="1" stop-color="#7B4397"/>
</linearGradient>
<linearGradient id="paint9_linear_2682_167065" x1="23.7028" y1="28.7656" x2="34.6569" y2="28.7656" gradientUnits="userSpaceOnUse">
<stop stop-color="#DC2430"/>
<stop offset="1" stop-color="#7B4397"/>
</linearGradient>
<linearGradient id="paint10_linear_2682_167065" x1="22.2793" y1="37.1904" x2="38.9942" y2="37.1904" gradientUnits="userSpaceOnUse">
<stop stop-color="#DC2430"/>
<stop offset="1" stop-color="#7B4397"/>
</linearGradient>
<linearGradient id="paint11_linear_2682_167065" x1="17.575" y1="39.0337" x2="21.3287" y2="39.0337" gradientUnits="userSpaceOnUse">
<stop stop-color="#DC2430"/>
<stop offset="1" stop-color="#7B4397"/>
</linearGradient>
<linearGradient id="paint12_linear_2682_167065" x1="39.3138" y1="37.5728" x2="42.3149" y2="37.5728" gradientUnits="userSpaceOnUse">
<stop stop-color="#DC2430"/>
<stop offset="1" stop-color="#7B4397"/>
</linearGradient>
<linearGradient id="paint13_linear_2682_167065" x1="27.6145" y1="40.5098" x2="32.6069" y2="40.5098" gradientUnits="userSpaceOnUse">
<stop stop-color="#DC2430"/>
<stop offset="1" stop-color="#7B4397"/>
</linearGradient>
<linearGradient id="paint14_linear_2682_167065" x1="23.3996" y1="50.0293" x2="38.8309" y2="50.0293" gradientUnits="userSpaceOnUse">
<stop stop-color="#DC2430"/>
<stop offset="1" stop-color="#7B4397"/>
</linearGradient>
</defs>
</svg>
