<svg width="55" height="56" viewBox="0 0 55 56" fill="none" xmlns="http://www.w3.org/2000/svg">
<g clip-path="url(#clip0_2682_169119)">
<g clip-path="url(#clip1_2682_169119)">
<path d="M18.4903 22.8893C18.4295 22.7216 18.1892 22.729 18.1889 22.9343C18.1877 23.8625 18.179 24.7937 18.1624 25.7249C18.1353 25.6657 18.1123 25.6045 18.0833 25.5461C17.9382 25.2522 17.5128 25.318 17.4383 25.6393C16.8475 28.191 16.7438 30.7622 15.668 33.1756C15.1598 34.3157 14.5171 35.3498 13.7603 36.3049C13.0916 37.1492 12.187 37.7361 12.315 38.9694C12.3576 39.381 12.5429 39.7291 12.9207 39.8518C12.883 40.2134 13.1439 40.6919 13.4374 40.8428C15.9548 42.1382 19.1982 37.6255 19.9935 35.3243C21.318 31.4923 19.8002 26.4946 18.4903 22.8893Z" fill="#E0DFE6"/>
<path d="M14.463 42.1395C14.2124 41.8324 13.6891 41.8924 13.5197 42.2772C13.0051 43.4443 12.9964 45.3802 13.4633 46.549C13.8484 47.5127 15.4163 47.3203 15.552 46.24C15.712 44.9654 15.2531 43.107 14.463 42.1395Z" fill="#E0DFE6"/>
<path d="M5.29112 49.1473C4.86545 48.7125 4.19756 48.9217 4.02002 49.506C3.65386 50.7112 3.37918 52.1079 3.28475 53.3741C3.13991 55.3175 5.92433 55.6206 6.40017 53.8248C6.81895 52.2449 6.40386 50.2838 5.29112 49.1473Z" fill="#E0DFE6"/>
<path d="M20.794 47.5457C20.3412 45.6249 19.5099 43.4306 17.9853 42.1375C17.5181 41.7412 16.6926 41.9682 16.7117 42.6739C16.7323 43.4421 16.8503 44.2058 16.9953 44.9688C16.742 44.8502 16.3806 44.9884 16.4034 45.3275C16.4967 46.7105 16.6701 48.0878 16.7277 49.4736C16.7816 50.7651 16.4519 52.1994 16.9007 53.4194C17.165 54.138 18.2917 54.4991 18.6858 53.6566C18.7303 53.5612 18.7646 53.4595 18.8016 53.3595C19.3024 53.6852 19.9359 53.6002 20.398 53.1916C21.9138 51.8527 21.2063 49.2954 20.794 47.5457Z" fill="#E0DFE6"/>
<path d="M29.2467 44.0154C29.12 41.2738 29.3 37.7515 28.0581 35.2486C27.8721 34.8738 27.27 34.8857 27.0805 35.2486C25.8439 37.6184 25.9408 41.0163 25.7532 43.6299C25.6428 45.1676 25.5836 46.7155 25.522 48.2559C25.4612 49.7799 25.2307 51.5038 25.813 52.9345C26.27 54.0573 28.1973 54.7896 28.8252 53.328C29.9929 50.6109 29.3813 46.9278 29.2467 44.0154Z" fill="#E0DFE6"/>
<path d="M54.172 45.1119C53.365 43.6336 51.5836 41.9321 49.6974 41.0674C50.1577 41.0761 50.6183 41.0897 51.0779 41.0661C52.2356 41.0064 53.6346 40.9468 54.4883 39.9547C56.4197 37.7106 54.3626 34.5386 53.967 32.1619C53.6963 30.536 54.1188 28.8069 54.2144 27.1751C54.31 25.5402 54.2756 23.9067 54.0287 22.2885C53.6256 19.6427 52.3979 17.3978 50.3667 15.874C50.0047 15.6026 49.5496 16.1323 49.7724 16.5189C51.3204 19.208 51.5683 22.515 51.1469 25.5966C50.7623 28.4084 49.8211 31.0734 50.3549 33.9388C50.4663 34.5359 50.6384 35.1125 50.8022 35.694C50.8902 35.9742 50.9692 36.2573 51.0402 36.5429C50.1389 36.5385 48.6016 36.5355 48.041 36.5467C48.6929 34.7251 48.1691 32.3963 48.0302 30.5006C47.8786 28.4329 47.9233 26.1351 47.0997 24.2299C46.8313 23.6089 46.0632 23.8811 45.8803 24.4027C45.1839 26.3883 45.4318 28.7781 45.4227 30.8695C45.4145 32.7611 45.0341 35.223 45.9588 36.9009C44.4195 37.3776 43.0917 38.3958 43.5696 40.4521C43.8513 41.6645 45.2351 42.4061 46.292 41.9955C47.3355 43.4346 49.2689 44.2503 50.3403 45.6962C50.5315 45.954 50.7124 46.2677 50.8819 46.6131C50.1803 45.5527 49.3341 44.6298 48.2078 44.076C47.8388 43.8945 47.3483 44.2889 47.6057 44.7294C48.638 46.4972 49.4209 48.2543 50.0626 50.2324C50.5987 51.8844 50.9163 53.9078 52.3733 54.8653C52.7486 55.112 53.1317 55.0341 53.4071 54.7861C53.6259 54.8155 53.8597 54.7866 54.1012 54.6821C57.0958 53.3862 55.3969 47.3561 54.172 45.1119Z" fill="#E0DFE6"/>
<path d="M47.9172 49.4215C47.8074 48.707 46.8046 48.788 46.6454 49.4215C46.4716 50.1128 46.2625 50.794 46.0929 51.4861C45.8748 52.376 45.8006 53.0463 46.3529 53.8029C46.7145 54.2982 47.527 54.2163 47.9002 53.8029C48.8811 52.7165 48.1207 50.7456 47.9172 49.4215Z" fill="#E0DFE6"/>
<path d="M39.1577 35.7737C38.891 35.3256 38.3013 34.9185 37.7463 34.9777C37.3875 35.016 37.1336 35.0783 36.8129 35.2109C36.842 35.1985 36.8687 35.1872 36.9095 35.1699C36.7734 35.2266 36.637 35.2829 36.5009 35.3395C36.4014 35.3902 36.354 35.4119 36.3501 35.416C36.3341 35.4175 36.3176 35.4196 36.3014 35.4216C36.2933 35.4178 36.2614 35.4101 36.2014 35.3972C36.2148 35.4039 36.2224 35.4075 36.2328 35.4129C36.0886 35.357 35.9425 35.277 35.8017 35.2142C35.7619 35.1964 35.742 35.1885 35.7292 35.1836C35.7211 35.1779 35.7088 35.1697 35.6886 35.1573C35.3591 34.9525 34.7966 35.0647 34.6254 35.4314C34.145 36.4609 34.7039 37.4091 35.6143 37.9884C36.6752 38.6635 38.5604 38.727 39.158 37.3962C39.4014 36.8536 39.4786 36.3127 39.1577 35.7737Z" fill="#E0DFE6"/>
<path d="M44.5717 21.015C43.1896 20.5374 42.0668 19.5369 40.9406 18.5199C40.5591 18.1754 40.1188 18.7419 40.199 19.195C40.4753 20.756 41.3326 22.0835 42.3911 23.055C43.3831 23.9654 45.3882 25.3611 46.4454 23.835C47.5178 22.2864 45.4962 21.3345 44.5717 21.015Z" fill="#E0DFE6"/>
<path d="M15.9121 19.6378C14.5676 18.962 13.0507 19.4353 11.5909 19.6071C10.0597 19.7874 8.47491 19.8711 6.9682 20.1929C6.40085 20.3141 6.449 21.1141 6.9682 21.2608C8.53304 21.7031 10.2885 21.8042 11.91 21.8541C13.4296 21.9008 14.8874 22.0852 16.112 21.1419C16.6017 20.7647 16.4318 19.8989 15.9121 19.6378Z" fill="#E0DFE6"/>
<path d="M46.6998 44.3083C46.5868 43.7767 45.9446 43.5229 45.5169 43.7999C44.4099 44.5169 44.1237 46.2433 42.7994 46.6542C41.4584 47.0703 39.9323 46.6044 38.702 47.4391C38.4917 47.5819 38.5039 47.8733 38.702 48.0184C39.9235 48.9128 42.7331 49.2489 44.1242 48.5114C45.4753 47.7952 47.0566 45.9887 46.6998 44.3083Z" fill="#E0DFE6"/>
<path d="M10.0901 41.072C9.80274 41.072 9.5556 40.8502 9.52335 40.5509C9.41735 39.559 9.01055 39.4287 7.8491 39.198C6.09846 38.85 3.72903 38.3791 2.79463 33.0225C2.41744 33.1658 2.06218 33.2362 1.7212 33.2362C0.296737 33.2362 -0.00195312 32.0292 -0.00195312 31.0167C-0.00195312 28.5821 0.836758 27.1284 2.24113 27.1284C3.32725 27.1284 3.66321 27.4886 3.91406 27.8577C3.936 27.8897 3.9656 27.9335 3.9775 27.9446C4.25927 28.0895 4.37002 28.4383 4.22887 28.727C4.08798 29.0154 3.74304 29.1308 3.46021 28.9859C3.19905 28.8521 3.06557 28.6558 2.97728 28.5263C2.89058 28.3985 2.82186 28.2978 2.2406 28.2978C1.37096 28.2978 1.13888 30.0068 1.13888 31.0167C1.13888 32.0668 1.42145 32.0668 1.72067 32.0668C2.0709 32.0668 2.47612 31.932 2.95984 31.6541C3.12451 31.5596 3.32355 31.5545 3.49245 31.6403C3.66136 31.7259 3.77793 31.8916 3.8041 32.0828C4.52465 37.3462 6.40614 37.7202 8.06585 38.05C9.18527 38.2726 10.4543 38.5245 10.6573 40.4234C10.6917 40.7446 10.4654 41.0332 10.1522 41.0684C10.1318 41.0709 10.1107 41.072 10.0901 41.072Z" fill="url(#paint0_linear_2682_169119)"/>
<path d="M12.8531 41.0722C12.7894 41.0722 12.725 41.0602 12.6618 41.0356C12.3757 40.923 12.2295 40.5844 12.3351 40.2797C12.9773 38.4253 14.0396 37.8059 14.9771 37.2593C16.4073 36.425 17.7585 35.6371 17.7585 29.8065C17.7585 26.9677 17.3499 22.2055 14.6138 22.2055C14.3088 22.2055 14.0619 21.9422 14.0619 21.6169C14.0619 21.2917 14.3088 21.0283 14.6138 21.0283C17.3538 21.0283 18.8625 24.146 18.8625 29.8068C18.8625 36.3356 17.1567 37.3304 15.5069 38.2925C14.6284 38.8048 13.8698 39.2472 13.371 40.688C13.2887 40.925 13.0775 41.0722 12.8531 41.0722Z" fill="url(#paint1_linear_2682_169119)"/>
<path d="M4.66252 29.743C4.62112 29.743 4.57921 29.7379 4.53729 29.7277C4.23475 29.6529 4.04494 29.3251 4.11368 28.9956C4.27588 28.2184 4.48938 27.4482 4.69585 26.7036C5.13144 25.1316 5.54281 23.6466 5.54281 22.0295C5.54281 21.9629 5.54047 21.9094 5.53838 21.8669C5.53187 21.7139 5.52042 21.4575 5.71152 21.2415C5.90471 21.0237 6.14451 21.0276 6.31504 21.0285L6.40383 21.029C7.08546 21.029 7.71944 21.1854 8.33259 21.337C8.88014 21.4722 9.39748 21.6 9.89269 21.6C10.1749 21.6 10.4577 21.6144 10.7402 21.6289C11.005 21.6428 11.2697 21.6566 11.5343 21.6566C12.387 21.6566 13.3344 21.4407 13.9486 21.1064C14.2262 20.9559 14.5641 21.0778 14.7029 21.3801C14.8417 21.6824 14.7292 22.0499 14.4514 22.201C13.531 22.7019 12.3409 22.8801 11.5343 22.8801C11.252 22.8801 10.9693 22.8657 10.6868 22.8512C10.422 22.8373 10.1572 22.8235 9.89269 22.8235C9.27146 22.8235 8.66768 22.6744 8.08395 22.5305C7.59629 22.4101 7.1318 22.2953 6.66471 22.2622C6.628 23.9693 6.19345 25.5379 5.77245 27.0569C5.5626 27.8152 5.36394 28.5312 5.21059 29.2673C5.15096 29.5504 4.91924 29.743 4.66252 29.743Z" fill="url(#paint2_linear_2682_169119)"/>
<path d="M1.15826 28.0002C0.879697 28.0002 0.640454 27.7794 0.610836 27.4822C0.558238 26.9578 0.447425 26.4331 0.329974 25.8779C0.166819 25.1058 -0.00195312 24.3073 -0.00195312 23.5012C-0.00195312 21.716 1.20524 19.243 3.4723 19.243C3.7861 19.243 3.97607 19.0058 4.40068 18.3782C5.09543 17.3514 6.14534 15.7996 9.19677 15.7996C11.0109 15.7996 11.65 16.3403 12.2681 16.8631C12.288 16.88 12.308 16.8969 12.3276 16.9135C12.9052 16.2757 13.6842 15.885 14.4297 15.885C16.0924 15.885 18.0426 20.5185 18.0426 22.8951C18.0426 23.3528 18.0199 23.7904 18.0026 24.0798C17.9837 24.3987 17.7237 24.6401 17.4181 24.6214C17.1143 24.6015 16.8832 24.3269 16.9021 24.008C16.9184 23.7338 16.9399 23.3206 16.9399 22.8951C16.9399 20.5777 15.0798 17.1348 14.4241 17.0419C13.8887 17.0421 13.2524 17.4492 12.8822 18.0315C12.7132 18.297 12.371 18.3688 12.1177 18.192C11.9112 18.0475 11.7409 17.9034 11.5759 17.764C11.0428 17.313 10.6215 16.9566 9.19652 16.9566C6.71447 16.9566 5.96278 18.0679 5.29944 19.0481C4.8498 19.713 4.38485 20.4 3.47205 20.4C1.94493 20.4 1.1003 22.2338 1.1003 23.5012C1.1003 24.1805 1.2489 24.8832 1.40618 25.6273C1.52517 26.1898 1.64798 26.7713 1.70722 27.3608C1.73913 27.6786 1.51955 27.9635 1.21673 27.9967C1.19707 27.9994 1.17767 28.0002 1.15826 28.0002Z" fill="url(#paint3_linear_2682_169119)"/>
<path d="M12.6836 34.1003C12.1687 34.1003 11.5128 34.0694 11.0105 33.8276C10.7176 33.6866 10.5989 33.3436 10.7451 33.0613C10.8921 32.7794 11.2482 32.6659 11.5411 32.8058C11.8571 32.9582 12.4792 32.9582 12.6834 32.9582C13.1593 32.9582 13.5769 32.5638 13.5769 32.1141C13.5769 31.675 13.3747 31.5364 12.79 31.2002C11.892 30.6841 10.6621 29.9771 10.6621 27.3652C10.6621 25.8356 11.9159 24.7714 14.0163 24.5185C14.3408 24.4799 14.6379 24.7013 14.6785 25.0142C14.7192 25.3272 14.4887 25.6126 14.1636 25.6517C13.2991 25.7559 11.8486 26.1167 11.8486 27.365C11.8486 29.3282 12.6015 29.7612 13.3981 30.2191C14.0064 30.5688 14.7632 31.0039 14.7632 32.1136C14.7637 33.1907 13.8111 34.1003 12.6836 34.1003Z" fill="url(#paint4_linear_2682_169119)"/>
<path d="M8.15026 28.8714C7.94309 28.8714 7.75013 28.7949 7.60738 28.656C7.46131 28.514 7.38086 28.3184 7.38086 28.1052C7.38086 27.6982 7.65638 27.3975 7.74076 27.3151C7.86325 27.1955 8.02928 27.1284 8.20228 27.1284C8.37588 27.1284 8.54191 27.1958 8.6644 27.3157C8.89788 27.544 9.02128 27.801 9.02128 28.0588C9.02128 28.5447 8.57095 28.8714 8.15026 28.8714ZM8.15026 27.596C7.86778 27.596 7.71535 27.8343 7.71535 28.0585C7.71535 28.1554 7.74711 28.2204 7.75921 28.2372L8.20228 27.7661L8.6641 28.2168C8.67226 28.2059 8.68678 28.166 8.68678 28.1052C8.68678 27.9805 8.62781 27.8485 8.52921 27.7525C8.42669 27.653 8.28877 27.596 8.15026 27.596Z" fill="url(#paint5_linear_2682_169119)"/>
<path d="M13.9469 28.8714C13.4049 28.8714 13.1211 28.5175 13.1211 28.1681C13.1211 27.9316 13.2409 27.7351 13.3462 27.5615C13.3679 27.5259 13.3895 27.4911 13.4076 27.4577C13.5177 27.2557 13.7428 27.1284 13.9887 27.1284C14.2355 27.1287 14.4603 27.2565 14.5704 27.4585C14.6574 27.6191 14.7615 27.862 14.7615 28.1071C14.7618 28.5501 14.4193 28.8714 13.9469 28.8714ZM13.9469 27.6796C13.7476 27.6796 13.5812 27.8019 13.5057 27.9451L13.989 27.7243L14.3101 27.8714C14.2099 27.7505 14.0609 27.6796 13.9469 27.6796Z" fill="url(#paint6_linear_2682_169119)"/>
<path d="M10.4239 37.5863C9.5311 37.5863 8.61538 36.8751 8.24634 35.8951C8.11992 35.5588 8.25659 35.1695 8.55203 35.0253C8.84694 34.882 9.18956 35.0372 9.31625 35.3732C9.54107 35.9706 10.222 36.4063 10.6929 36.2065C10.9935 36.0777 11.3294 36.251 11.4426 36.5931C11.5558 36.9356 11.4038 37.3176 11.1029 37.4464C10.8865 37.5394 10.6579 37.5863 10.4239 37.5863Z" fill="url(#paint7_linear_2682_169119)"/>
<path d="M1.43907 53.2726C1.15754 53.2726 0.916296 53.0522 0.888322 52.7571C0.843153 52.2833 0.820312 51.7958 0.820312 51.308C0.820312 44.0311 4.93322 39.3291 11.2981 39.3291C19.3217 39.3291 19.5317 46.6865 19.6849 52.0589C19.6939 52.3744 19.4531 52.6375 19.1472 52.647C18.8495 52.66 18.5859 52.408 18.577 52.0925C18.3958 45.7348 17.7226 40.4722 11.2981 40.4722C6.76845 40.4722 1.92848 43.3189 1.92848 51.3083C1.92848 51.7588 1.94953 52.2087 1.9911 52.6457C2.02113 52.9598 1.79837 53.2393 1.49374 53.27C1.47551 53.2716 1.45729 53.2726 1.43907 53.2726Z" fill="url(#paint8_linear_2682_169119)"/>
<path d="M11.749 52.4013C10.9283 52.4013 10.2998 51.5502 9.20606 50.0697C8.75114 49.4539 8.23577 48.7562 7.59409 47.9612C6.95911 47.1748 6.45098 46.3171 5.95964 45.4874C5.41922 44.5753 4.90902 43.7137 4.24873 42.95C4.03897 42.7075 4.05214 42.3286 4.27792 42.1036C4.50344 41.8784 4.85683 41.8928 5.06608 42.135C5.7956 42.9786 6.35747 43.927 6.90099 44.8443C7.39233 45.6738 7.85629 46.4571 8.43701 47.1767C9.09472 47.9914 9.64108 48.7313 10.08 49.3255C10.7736 50.2645 11.4995 51.2373 11.7715 51.2021C12.282 51.1438 13.3783 48.7601 14.896 45.4607C15.2739 44.6393 15.6945 43.725 16.1662 42.7117C16.3044 42.4157 16.6397 42.2967 16.9146 42.4437C17.19 42.5916 17.3016 42.9514 17.1641 43.2474C16.6932 44.2585 16.2734 45.1711 15.8963 45.9911C13.7377 50.6842 13.0102 52.2651 11.8896 52.3929C11.8418 52.3985 11.795 52.4013 11.749 52.4013Z" fill="url(#paint9_linear_2682_169119)"/>
<path d="M11.37 44.558C9.23569 44.558 9.18679 43.023 9.15451 42.0067C9.14264 41.6345 9.13148 41.2828 9.04792 40.9894C8.95843 40.6754 9.10347 40.3359 9.37218 40.2316C9.64113 40.1269 9.93097 40.2968 10.0202 40.6108C10.1503 41.0668 10.1655 41.5426 10.1788 41.9626C10.2111 42.9791 10.2234 43.3597 11.37 43.3597C12.0973 43.3597 12.0973 42.9436 12.0973 42.6949C12.0973 42.4009 12.0306 42.0331 11.966 41.6778C11.9195 41.4213 11.8713 41.1559 11.8438 40.8989C11.8086 40.5702 12.0078 40.271 12.2886 40.2296C12.5723 40.191 12.8258 40.4214 12.8609 40.7498C12.883 40.9564 12.9246 41.1859 12.9689 41.4288C13.0444 41.8446 13.1225 42.2752 13.1225 42.6949C13.1223 43.8441 12.451 44.558 11.37 44.558Z" fill="url(#paint10_linear_2682_169119)"/>
<path d="M8.78659 48.044C8.72512 48.044 8.66255 48.0338 8.60107 48.0124C8.29342 47.9058 8.12694 47.5602 8.22949 47.2409C8.37774 46.7785 8.55048 46.3298 8.7175 45.8957C9.04747 45.0386 9.35921 44.2292 9.49195 43.3334C9.54119 43.0002 9.84314 42.769 10.1617 42.823C10.4824 42.8742 10.7022 43.1856 10.653 43.5188C10.5001 44.5525 10.1483 45.4659 9.80832 46.3487C9.64021 46.7853 9.48107 47.1979 9.3437 47.6261C9.26155 47.8824 9.0325 48.044 8.78659 48.044Z" fill="url(#paint11_linear_2682_169119)"/>
<path d="M14.278 48.044C14.1352 48.044 13.9935 47.962 13.8981 47.8047C13.2196 46.687 12.8128 45.3031 12.4192 43.9645L12.3332 43.672C12.2372 43.3475 12.3616 42.9827 12.6111 42.8578C12.8617 42.7318 13.1405 42.8949 13.2364 43.2197L13.3229 43.5139C13.6905 44.7638 14.0704 46.0563 14.6572 47.0232C14.8228 47.296 14.7872 47.6924 14.5776 47.9083C14.4891 47.9999 14.3831 48.044 14.278 48.044Z" fill="url(#paint12_linear_2682_169119)"/>
<path d="M6.05972 54.1441C5.84991 54.1441 5.6547 53.9858 5.58492 53.7353C5.23508 52.4827 5.02434 51.1557 4.92141 49.5585C4.90031 49.2297 5.10641 48.9422 5.3823 48.917C5.6554 48.8924 5.89836 49.1378 5.91969 49.4672C6.0159 50.9639 6.21157 52.2002 6.53452 53.3578C6.62192 53.6709 6.48027 54.0093 6.21783 54.1134C6.16544 54.1342 6.11211 54.1441 6.05972 54.1441Z" fill="url(#paint13_linear_2682_169119)"/>
<path d="M22.1956 54.1443C22.1807 54.1443 22.1659 54.1438 22.1508 54.1421C21.8572 54.115 21.6389 53.8289 21.6634 53.5033C21.7432 52.4421 21.8248 51.1902 21.8248 49.9525C21.8248 45.9834 21.0737 44.4854 20.4701 43.2814C20.0667 42.4767 19.6855 41.7165 19.6855 40.5078C19.6855 39.4173 20.1329 38.8643 21.0151 38.8643C21.8389 38.8643 22.4328 39.3916 22.8612 40.0899C22.857 39.5176 22.8545 38.8621 22.8545 38.1144C22.8545 36.4429 22.833 35.0862 22.7875 33.8453C22.7804 33.6556 22.8557 33.4742 22.99 33.3566C23.1237 33.239 23.3002 33.1996 23.4653 33.2514C25.0973 33.7609 26.3982 34.4008 27.4425 35.2085C27.5732 35.3096 27.6563 35.4702 27.6689 35.6464C27.7512 36.7819 27.8493 38.6675 27.8493 41.2018C27.8493 43.2167 27.7591 45.8445 27.5806 49.0119C27.5732 49.1429 27.5685 49.2248 27.5675 49.2487C27.5678 50.4858 27.742 51.8389 27.8822 52.9258C27.924 53.2492 27.7213 53.5491 27.4294 53.5951C27.1382 53.6395 26.8673 53.4167 26.8258 53.093C26.6809 51.9688 26.5008 50.5697 26.5008 49.2298C26.5008 49.2172 26.5057 49.1149 26.5156 48.9379C26.6926 45.7949 26.7823 43.1921 26.7823 41.2015C26.7823 38.907 26.7007 37.1568 26.6248 36.0241C25.8715 35.4787 24.9668 35.0177 23.8805 34.6264C23.9087 35.659 23.922 36.7893 23.922 38.1139C23.922 40.5599 23.9505 42.0141 23.966 42.7958C23.9838 43.7062 23.9912 44.083 23.4942 44.1475C22.9986 44.2099 22.9007 43.6903 22.8466 43.4108C22.3078 40.6306 21.5534 40.0471 21.0156 40.0471C20.8747 40.0471 20.8117 40.0756 20.8005 40.0855C20.7901 40.0995 20.7536 40.174 20.7536 40.5073C20.7536 41.4092 21.0262 41.953 21.4036 42.7059C22.0322 43.9592 22.8928 45.6759 22.8928 49.9519C22.8928 51.2332 22.8093 52.5155 22.7277 53.6011C22.7035 53.9105 22.4702 54.1443 22.1956 54.1443Z" fill="url(#paint14_linear_2682_169119)"/>
<path d="M26.7117 49.7869C25.976 49.7869 25.2885 49.6362 24.6238 49.4903C23.9769 49.3486 23.3662 49.2144 22.7257 49.2144C22.4035 49.2144 22.1426 48.9526 22.1426 48.6292C22.1426 48.3058 22.4035 48.0439 22.7257 48.0439C23.492 48.0439 24.1941 48.1979 24.8728 48.3467C25.5049 48.4855 26.1016 48.6162 26.7117 48.6162C26.8898 48.6162 27.0572 48.6053 27.2239 48.5831C27.5456 48.5422 27.8362 48.7655 27.8789 49.0859C27.9213 49.4063 27.6971 49.7007 27.3778 49.7432C27.1628 49.7723 26.9386 49.7869 26.7117 49.7869Z" fill="url(#paint15_linear_2682_169119)"/>
<path d="M25.2063 41.0724C24.8743 41.0724 24.6055 40.7964 24.6055 40.4557C24.6055 38.2737 24.7519 36.3616 25.0533 34.6101C25.1109 34.2747 25.4237 34.0514 25.7493 34.1099C26.0761 34.169 26.2943 34.489 26.2367 34.8243C25.9478 36.5041 25.8072 38.3462 25.8072 40.4554C25.8072 40.7964 25.5384 41.0724 25.2063 41.0724Z" fill="url(#paint16_linear_2682_169119)"/>
<path d="M37.0232 39.3292C35.4055 39.3292 33.8104 38.8952 32.2824 38.0391C32.1509 37.9654 32.0532 37.8382 32.011 37.6863C31.9687 37.5344 31.986 37.3707 32.0585 37.2324C33.0628 35.3196 33.5938 33.1929 33.5938 31.0822C33.5938 29.9821 33.4241 28.7944 33.2442 27.5368C33.0562 26.2195 32.8613 24.8576 32.8613 23.5307C32.8613 17.663 36.8108 14.4176 39.5404 14.4176C40.3724 14.4176 41.1421 14.7918 41.7978 15.1672C42.9263 13.9515 44.5771 13.1851 46.1233 13.1851C50.0471 13.1851 52.7813 18.8199 52.7813 23.877C52.7813 25.7221 52.4862 27.4759 51.8539 29.3792C52.0297 29.9027 52.2137 30.4253 52.3974 30.9477C53.1287 33.0263 53.8846 35.1758 54.1301 37.4063C54.1632 37.7078 53.9757 37.9863 53.6976 38.0488C51.9585 38.4394 49.8916 38.843 47.7462 38.8723C47.5933 38.8778 47.45 38.8101 47.3447 38.6941C47.2396 38.5783 47.1836 38.4212 47.1902 38.26C47.2406 37.0288 47.265 35.7189 47.265 34.2558C47.265 32.6711 47.2373 31.0996 47.1956 29.2276C47.1915 29.0477 47.265 28.8756 47.395 28.7612C47.5251 28.6465 47.6973 28.6025 47.8617 28.6403C48.0535 28.6851 48.2116 28.7145 48.3594 28.7145C48.8899 28.7145 49.4303 28.1415 49.4303 27.579C49.4303 26.8862 48.7757 26.4888 47.634 26.4888C47.5337 26.4888 47.4327 26.491 47.3312 26.4943C47.0429 26.5176 46.7935 26.2709 46.7668 25.9616C46.7376 25.6232 46.7068 25.2832 46.676 24.9429C46.6541 24.7024 46.6322 24.4619 46.6111 24.2222C43.853 24.2064 41.2589 22.6363 39.9984 20.3022C38.7549 21.7044 37.1001 22.7842 35.3472 23.319C35.0556 23.4068 34.7516 23.2274 34.6681 22.916C34.5846 22.6045 34.7538 22.2795 35.0454 22.1906C36.8596 21.637 38.5544 20.4319 39.6956 18.8843C39.817 18.7199 40.0101 18.6365 40.2055 18.6666C40.3997 18.6965 40.564 18.8346 40.6371 19.0292C41.5251 21.3959 43.9993 23.0486 46.6539 23.0486C46.7946 23.0486 46.9353 23.0437 47.0757 23.0342C47.3676 23.0116 47.6319 23.2503 47.6584 23.5677C47.6933 23.986 47.7314 24.4081 47.7698 24.8299C47.7846 24.9929 47.7994 25.1555 47.8141 25.3183C49.812 25.3821 50.5295 26.516 50.5295 27.5792C50.5295 28.8058 49.4553 29.9185 48.3095 29.8877C48.3428 31.4731 48.3642 32.8581 48.3642 34.2561C48.3642 35.4906 48.3469 36.6176 48.3116 37.6817C49.9593 37.6061 51.559 37.3169 52.9699 37.0114C52.6849 35.1016 52.017 33.2027 51.3689 31.3608C51.1598 30.7659 50.9504 30.1707 50.7524 29.5741C50.7099 29.4453 50.7104 29.3048 50.7545 29.1765C51.3878 27.3289 51.6827 25.6449 51.6827 23.8773C51.6827 19.3842 49.3051 14.3589 46.1236 14.3589C44.7412 14.3589 43.2527 15.1136 42.3322 16.2815C42.1624 16.4959 41.8744 16.5524 41.6452 16.4163C40.8577 15.9491 40.2025 15.5914 39.5407 15.5914C37.6558 15.5914 33.9602 17.9888 33.9602 23.531C33.9602 24.769 34.1485 26.0863 34.3304 27.3599C34.5086 28.6055 34.6925 29.8935 34.6925 31.0825C34.6925 33.1943 34.2091 35.3172 33.2893 37.2607C34.7383 37.9698 36.254 38.2608 37.755 38.1222C38.0568 38.0956 38.3234 38.3331 38.3499 38.656C38.3761 38.9789 38.1524 39.2632 37.8502 39.2914C37.5764 39.3164 37.2983 39.3292 37.0232 39.3292Z" fill="url(#paint17_linear_2682_169119)"/>
<path d="M39.3709 41.9436C39.3414 41.9436 39.3118 41.9415 39.2814 41.937C38.9613 41.8892 38.742 41.5981 38.7906 41.2869C38.909 40.5346 39.0186 39.7292 39.0186 38.9348C39.0186 36.3945 38.0317 35.6313 37.077 34.893C36.4674 34.4217 35.8371 33.9341 35.5472 33.0645C35.0499 31.5731 34.9631 30.0885 34.8789 28.6525C34.8094 27.4665 34.7437 26.3459 34.4655 25.2174C34.3901 24.911 34.5839 24.6033 34.8985 24.5298C35.2131 24.4569 35.5295 24.645 35.605 24.9512C35.9079 26.179 35.9796 27.4036 36.0491 28.5876C36.1327 30.014 36.2117 31.3609 36.662 32.7124C36.8428 33.2549 37.2678 33.5836 37.8061 33.9999C38.8685 34.8217 40.1907 35.8439 40.1907 38.9348C40.1907 39.8055 40.0748 40.6627 39.9494 41.4597C39.9051 41.7418 39.6554 41.9436 39.3709 41.9436Z" fill="url(#paint18_linear_2682_169119)"/>
<path d="M44.616 41.9437C44.4499 41.9437 44.2875 41.8521 44.1917 41.6848C43.9224 41.2137 43.4707 40.2796 43.4707 39.3135C43.4707 38.0162 44.2378 37.4578 44.9795 36.9179C45.5293 36.5174 46.1529 36.0637 46.6501 35.2234C46.8025 34.9654 47.1135 34.8945 47.3458 35.0643C47.5775 35.2341 47.6414 35.5807 47.4888 35.8382C46.8769 36.8721 46.1296 37.4162 45.5293 37.8531C44.7983 38.3853 44.4752 38.6485 44.4752 39.3133C44.4752 39.8118 44.6808 40.4574 45.0393 41.0846C45.1881 41.345 45.1193 41.6903 44.8851 41.8562C44.8016 41.9155 44.7083 41.9437 44.616 41.9437Z" fill="url(#paint19_linear_2682_169119)"/>
<path d="M39.0245 32.3574C38.172 32.3574 37.2593 31.7281 37.2593 30.7915C37.2593 30.6544 37.2799 30.5161 37.3209 30.3811C37.5375 29.6688 38.0217 29.4994 38.3422 29.3874C38.8089 29.224 39.5889 28.9513 39.8492 24.072C39.7623 24.016 39.525 23.9397 39.2276 23.9397C38.5944 23.9397 37.8304 24.2774 37.0181 24.9164C36.7666 25.1144 36.4036 25.069 36.2076 24.8138C36.0118 24.5593 36.0572 24.1921 36.3089 23.9941C37.3404 23.1827 38.3224 22.7712 39.2276 22.7712C40.2919 22.7712 41.0072 23.2745 41.0072 24.023C41.0072 24.036 41.0064 24.0661 41.0056 24.0791C40.7309 29.3649 39.8078 30.1108 38.7196 30.4912C38.4689 30.5789 38.4689 30.5789 38.4248 30.7242C38.4176 30.748 38.4141 30.7699 38.4141 30.7913C38.4141 30.9649 38.71 31.1889 39.0243 31.1889C39.0783 31.1889 39.1294 31.1822 39.1762 31.1687C39.4822 31.0802 39.8024 31.2601 39.8899 31.5707C39.9771 31.881 39.7992 32.204 39.4924 32.2925C39.3431 32.3358 39.1856 32.3574 39.0245 32.3574Z" fill="url(#paint20_linear_2682_169119)"/>
<path d="M37.7035 27.1287C37.234 27.1287 36.9062 26.7916 36.9062 26.3092C36.9062 26.2254 36.916 26.1349 36.9266 26.0477C36.9313 26.0107 36.9369 25.9753 36.9371 25.9442C36.9382 25.6364 37.1931 25.3857 37.5069 25.3857H37.8188C37.97 25.3857 38.1155 25.4447 38.2223 25.55C38.32 25.6457 38.5467 25.9088 38.5467 26.28C38.5464 26.7479 38.1682 27.1287 37.7035 27.1287ZM37.5066 26.0813C37.4475 26.1284 37.4069 26.1972 37.4069 26.2797C37.4069 26.3211 37.418 26.3431 37.418 26.3431L37.5066 26.2551V26.0813Z" fill="url(#paint21_linear_2682_169119)"/>
<path d="M43.4445 27.1287C42.9844 27.1287 42.6504 26.7236 42.6504 26.1651C42.6504 25.9576 42.7581 25.775 42.9209 25.6698C43.0512 25.4549 43.3084 25.339 43.5674 25.4035C44.1009 25.5364 44.2908 25.9191 44.2908 26.2326C44.2908 26.6566 43.9431 27.1287 43.4445 27.1287ZM43.8395 26.1853H43.8433H43.8395Z" fill="url(#paint22_linear_2682_169119)"/>
<path d="M41.4195 34.9718C41.0592 34.9718 40.7109 34.8372 40.4121 34.5821C40.1824 34.3861 40.1203 33.9883 40.2734 33.6941C40.4263 33.3998 40.7366 33.3198 40.9668 33.5164C41.1023 33.6321 41.2546 33.6908 41.4195 33.6908C41.8544 33.6908 42.3245 33.2809 42.5133 32.7375C42.6256 32.4145 42.9206 32.2695 43.1733 32.4125C43.4255 32.556 43.5392 32.9345 43.4271 33.2578C43.0767 34.2671 42.2511 34.9718 41.4195 34.9718Z" fill="url(#paint23_linear_2682_169119)"/>
<path d="M53.5727 54.1442C53.3037 54.1445 53.0661 53.9421 53.0204 53.6568C51.8344 46.2517 49.6795 42.2391 41.7027 42.2391C36.3218 42.2391 33.1094 45.921 33.1094 52.0877C33.1094 52.5513 33.1283 53.0311 33.166 53.5139C33.1909 53.8349 32.9611 54.1164 32.6524 54.1423C32.3388 54.1691 32.0732 53.9291 32.0485 53.6079C32.0085 53.0938 31.9883 52.5823 31.9883 52.0874C31.9883 45.2931 35.7106 41.0723 41.7027 41.0723C50.395 41.0723 52.901 45.814 54.1262 53.4647C54.1771 53.7824 53.9709 54.0829 53.6653 54.1358C53.6342 54.1415 53.6033 54.1442 53.5727 54.1442Z" fill="url(#paint24_linear_2682_169119)"/>
<path d="M40.8421 46.301C39.9373 46.301 39.1713 45.0643 38.5652 42.6257C38.4922 42.3317 38.6698 42.034 38.962 41.9606C39.2549 41.8856 39.5499 42.066 39.6231 42.3597C40.0062 43.9023 40.5029 44.8963 40.779 45.1494C41.3985 44.7185 43.3928 43.1823 44.1244 42.1702C44.3014 41.9253 44.6418 41.8706 44.886 42.0492C45.1295 42.2273 45.1832 42.5705 45.0062 42.8154C44.1663 43.9769 41.3068 46.301 40.8421 46.301Z" fill="url(#paint25_linear_2682_169119)"/>
<path d="M39.1163 48.044C37.3602 48.044 36.0859 46.6317 36.0859 44.6853C36.0859 44.1758 36.1806 43.6586 36.3595 43.189C36.4754 42.8841 36.8056 42.7359 37.0954 42.8579C37.3857 42.9799 37.5268 43.3259 37.4106 43.6307C37.2847 43.9612 37.2181 44.3262 37.2181 44.6856C37.2181 45.963 37.9986 46.855 39.116 46.855C39.4299 46.855 39.8349 46.513 39.987 46.3841C40.1126 46.2778 40.2427 46.1682 40.4535 46.1682C40.555 46.1682 40.6526 46.191 40.7433 46.2362C41.3079 46.5152 42.1618 46.8487 43.0144 46.8487C44.8116 46.8487 45.6162 45.2444 45.6162 43.6544L45.616 43.4099C45.616 43.0813 45.8693 42.8152 46.1822 42.8152C46.4951 42.8152 46.7484 43.0813 46.7484 43.4099L46.7487 43.6544C46.7487 46.2354 45.2132 48.038 43.0144 48.038C42.0902 48.038 41.196 47.7386 40.5374 47.4425C40.2298 47.6882 39.7095 48.044 39.1163 48.044ZM40.2597 47.3111C40.2605 47.3114 40.2618 47.312 40.2626 47.3125C40.2618 47.3122 40.2608 47.3117 40.2597 47.3111Z" fill="url(#paint26_linear_2682_169119)"/>
<path d="M40.3146 53.2728C39.9942 53.2728 39.7062 53.0937 39.6375 52.8327C39.4557 52.1411 39.3672 51.3825 39.3672 50.5131C39.3672 49.6947 39.4438 48.8738 39.5179 48.0801C39.5571 47.6587 39.5965 47.2404 39.6234 46.8265C39.6433 46.5206 39.9701 46.282 40.3511 46.3022C40.7331 46.3184 41.0266 46.5791 41.0064 46.8845C40.9788 47.3064 40.9387 47.7331 40.8986 48.1625C40.8264 48.9359 40.752 49.7358 40.752 50.5128C40.752 51.3045 40.8306 51.9887 40.9926 52.604C41.0715 52.9035 40.8319 53.1974 40.4576 53.2602C40.4098 53.2689 40.3617 53.2728 40.3146 53.2728Z" fill="url(#paint27_linear_2682_169119)"/>
<path d="M47.6968 53.2728C47.3135 53.2728 47.0032 53.0282 47.0032 52.7263C47.0032 52.3615 46.944 51.9902 46.882 51.5976C46.8171 51.1889 46.75 50.7662 46.75 50.3333C46.75 50.0314 47.0603 49.7869 47.4436 49.7869C47.8269 49.7869 48.1373 50.0314 48.1373 50.3333C48.1373 50.6981 48.196 51.0694 48.2584 51.462C48.3233 51.8708 48.3904 52.2935 48.3904 52.7263C48.3904 53.0282 48.0801 53.2728 47.6968 53.2728Z" fill="url(#paint28_linear_2682_169119)"/>
</g>
</g>
<defs>
<linearGradient id="paint0_linear_2682_169119" x1="0.886606" y1="27.1284" x2="9.94991" y2="27.1284" gradientUnits="userSpaceOnUse">
<stop stop-color="#DC2430"/>
<stop offset="1" stop-color="#7B4397"/>
</linearGradient>
<linearGradient id="paint1_linear_2682_169119" x1="12.8476" y1="21.0283" x2="18.425" y2="21.0283" gradientUnits="userSpaceOnUse">
<stop stop-color="#DC2430"/>
<stop offset="1" stop-color="#7B4397"/>
</linearGradient>
<linearGradient id="paint2_linear_2682_169119" x1="4.98817" y1="21.0283" x2="14.0515" y2="21.0283" gradientUnits="userSpaceOnUse">
<stop stop-color="#DC2430"/>
<stop offset="1" stop-color="#7B4397"/>
</linearGradient>
<linearGradient id="paint3_linear_2682_169119" x1="1.50176" y1="15.7996" x2="16.8397" y2="15.7996" gradientUnits="userSpaceOnUse">
<stop stop-color="#DC2430"/>
<stop offset="1" stop-color="#7B4397"/>
</linearGradient>
<linearGradient id="paint4_linear_2682_169119" x1="11.0039" y1="24.5142" x2="14.4898" y2="24.5142" gradientUnits="userSpaceOnUse">
<stop stop-color="#DC2430"/>
<stop offset="1" stop-color="#7B4397"/>
</linearGradient>
<linearGradient id="paint5_linear_2682_169119" x1="7.51756" y1="27.1284" x2="8.91192" y2="27.1284" gradientUnits="userSpaceOnUse">
<stop stop-color="#DC2430"/>
<stop offset="1" stop-color="#7B4397"/>
</linearGradient>
<linearGradient id="paint6_linear_2682_169119" x1="13.2578" y1="27.1284" x2="14.6521" y2="27.1284" gradientUnits="userSpaceOnUse">
<stop stop-color="#DC2430"/>
<stop offset="1" stop-color="#7B4397"/>
</linearGradient>
<linearGradient id="paint7_linear_2682_169119" x1="8.47262" y1="34.9719" x2="11.2613" y2="34.9719" gradientUnits="userSpaceOnUse">
<stop stop-color="#DC2430"/>
<stop offset="1" stop-color="#7B4397"/>
</linearGradient>
<linearGradient id="paint8_linear_2682_169119" x1="2.39238" y1="39.3291" x2="18.4275" y2="39.3291" gradientUnits="userSpaceOnUse">
<stop stop-color="#DC2430"/>
<stop offset="1" stop-color="#7B4397"/>
</linearGradient>
<linearGradient id="paint9_linear_2682_169119" x1="5.19322" y1="41.9436" x2="16.3481" y2="41.9436" gradientUnits="userSpaceOnUse">
<stop stop-color="#DC2430"/>
<stop offset="1" stop-color="#7B4397"/>
</linearGradient>
<linearGradient id="paint10_linear_2682_169119" x1="9.36324" y1="40.2007" x2="12.8491" y2="40.2007" gradientUnits="userSpaceOnUse">
<stop stop-color="#DC2430"/>
<stop offset="1" stop-color="#7B4397"/>
</linearGradient>
<linearGradient id="paint11_linear_2682_169119" x1="8.40427" y1="42.8152" x2="10.4958" y2="42.8152" gradientUnits="userSpaceOnUse">
<stop stop-color="#DC2430"/>
<stop offset="1" stop-color="#7B4397"/>
</linearGradient>
<linearGradient id="paint12_linear_2682_169119" x1="12.5058" y1="42.8152" x2="14.5974" y2="42.8152" gradientUnits="userSpaceOnUse">
<stop stop-color="#DC2430"/>
<stop offset="1" stop-color="#7B4397"/>
</linearGradient>
<linearGradient id="paint13_linear_2682_169119" x1="5.05662" y1="48.9153" x2="6.45098" y2="48.9153" gradientUnits="userSpaceOnUse">
<stop stop-color="#DC2430"/>
<stop offset="1" stop-color="#7B4397"/>
</linearGradient>
<linearGradient id="paint14_linear_2682_169119" x1="20.3691" y1="33.229" x2="27.3408" y2="33.229" gradientUnits="userSpaceOnUse">
<stop stop-color="#DC2430"/>
<stop offset="1" stop-color="#7B4397"/>
</linearGradient>
<linearGradient id="paint15_linear_2682_169119" x1="22.621" y1="48.0439" x2="27.5013" y2="48.0439" gradientUnits="userSpaceOnUse">
<stop stop-color="#DC2430"/>
<stop offset="1" stop-color="#7B4397"/>
</linearGradient>
<linearGradient id="paint16_linear_2682_169119" x1="24.7422" y1="34.1006" x2="26.1365" y2="34.1006" gradientUnits="userSpaceOnUse">
<stop stop-color="#DC2430"/>
<stop offset="1" stop-color="#7B4397"/>
</linearGradient>
<linearGradient id="paint17_linear_2682_169119" x1="33.8338" y1="13.1851" x2="52.6575" y2="13.1851" gradientUnits="userSpaceOnUse">
<stop stop-color="#DC2430"/>
<stop offset="1" stop-color="#7B4397"/>
</linearGradient>
<linearGradient id="paint18_linear_2682_169119" x1="34.9277" y1="24.5142" x2="39.8079" y2="24.5142" gradientUnits="userSpaceOnUse">
<stop stop-color="#DC2430"/>
<stop offset="1" stop-color="#7B4397"/>
</linearGradient>
<linearGradient id="paint19_linear_2682_169119" x1="43.8125" y1="34.9719" x2="47.2983" y2="34.9719" gradientUnits="userSpaceOnUse">
<stop stop-color="#DC2430"/>
<stop offset="1" stop-color="#7B4397"/>
</linearGradient>
<linearGradient id="paint20_linear_2682_169119" x1="36.496" y1="22.7712" x2="40.6791" y2="22.7712" gradientUnits="userSpaceOnUse">
<stop stop-color="#DC2430"/>
<stop offset="1" stop-color="#7B4397"/>
</linearGradient>
<linearGradient id="paint21_linear_2682_169119" x1="37.043" y1="25.3857" x2="38.4373" y2="25.3857" gradientUnits="userSpaceOnUse">
<stop stop-color="#DC2430"/>
<stop offset="1" stop-color="#7B4397"/>
</linearGradient>
<linearGradient id="paint22_linear_2682_169119" x1="42.7871" y1="25.3857" x2="44.1814" y2="25.3857" gradientUnits="userSpaceOnUse">
<stop stop-color="#DC2430"/>
<stop offset="1" stop-color="#7B4397"/>
</linearGradient>
<linearGradient id="paint23_linear_2682_169119" x1="40.4629" y1="32.3574" x2="43.2516" y2="32.3574" gradientUnits="userSpaceOnUse">
<stop stop-color="#DC2430"/>
<stop offset="1" stop-color="#7B4397"/>
</linearGradient>
<linearGradient id="paint24_linear_2682_169119" x1="33.8338" y1="41.0723" x2="52.6575" y2="41.0723" gradientUnits="userSpaceOnUse">
<stop stop-color="#DC2430"/>
<stop offset="1" stop-color="#7B4397"/>
</linearGradient>
<linearGradient id="paint25_linear_2682_169119" x1="39.0956" y1="41.9436" x2="44.6731" y2="41.9436" gradientUnits="userSpaceOnUse">
<stop stop-color="#DC2430"/>
<stop offset="1" stop-color="#7B4397"/>
</linearGradient>
<linearGradient id="paint26_linear_2682_169119" x1="36.9745" y1="42.8152" x2="46.0378" y2="42.8152" gradientUnits="userSpaceOnUse">
<stop stop-color="#DC2430"/>
<stop offset="1" stop-color="#7B4397"/>
</linearGradient>
<linearGradient id="paint27_linear_2682_169119" x1="39.5039" y1="46.301" x2="40.8982" y2="46.301" gradientUnits="userSpaceOnUse">
<stop stop-color="#DC2430"/>
<stop offset="1" stop-color="#7B4397"/>
</linearGradient>
<linearGradient id="paint28_linear_2682_169119" x1="46.8867" y1="49.7869" x2="48.2811" y2="49.7869" gradientUnits="userSpaceOnUse">
<stop stop-color="#DC2430"/>
<stop offset="1" stop-color="#7B4397"/>
</linearGradient>
<clipPath id="clip0_2682_169119">
<rect width="55" height="55" fill="white" transform="translate(0 0.5)"/>
</clipPath>
<clipPath id="clip1_2682_169119">
<rect width="55.7742" height="54.0312" fill="white" transform="translate(0 0.984375)"/>
</clipPath>
</defs>
</svg>
