<svg width="26" height="26" viewBox="0 0 26 26" fill="none" xmlns="http://www.w3.org/2000/svg">
<path d="M10.8352 20.5831C10.5821 20.5836 10.3368 20.4954 10.1419 20.3339C10.0322 20.243 9.94153 20.1313 9.87507 20.0053C9.8086 19.8792 9.76766 19.7413 9.75458 19.5994C9.74149 19.4575 9.75653 19.3144 9.79883 19.1784C9.84113 19.0423 9.90985 18.9159 10.0011 18.8064L14.8544 12.9998L10.1744 7.18227C10.0844 7.07146 10.0172 6.94396 9.97667 6.80709C9.93612 6.67022 9.92301 6.52669 9.93811 6.38474C9.95322 6.24279 9.99622 6.10523 10.0647 5.97996C10.1331 5.85468 10.2256 5.74417 10.3369 5.65477C10.449 5.55615 10.5803 5.48176 10.7225 5.43627C10.8647 5.39078 11.0147 5.37518 11.1632 5.39044C11.3118 5.4057 11.4555 5.45149 11.5855 5.52494C11.7155 5.59839 11.8289 5.69792 11.9186 5.81727L17.1511 12.3173C17.3104 12.5111 17.3975 12.7543 17.3975 13.0052C17.3975 13.2561 17.3104 13.4993 17.1511 13.6931L11.7344 20.1931C11.6257 20.3242 11.4877 20.4278 11.3314 20.4956C11.1752 20.5634 11.0052 20.5933 10.8352 20.5831Z" fill="#333333"/>
</svg>
