<svg width="104" height="116" viewBox="0 0 104 116" fill="none" xmlns="http://www.w3.org/2000/svg">
<path d="M49.7689 58.3273C48.5169 61.396 47.1602 64.4446 46.039 67.563C45.9698 67.7287 45.9408 67.8886 45.9277 68.0454C45.6258 68.4272 45.3115 68.802 44.9711 69.1595C43.8269 70.3612 45.5347 72.0092 46.7707 70.959C47.1637 70.6252 47.5331 70.2712 47.8871 69.9054C48.0688 69.9136 48.2494 69.9042 48.4216 69.8621C49.1059 71.4657 51.7745 71.8416 52.1344 69.7532C52.7589 66.1346 53.265 62.5047 53.6456 58.8524C53.896 56.4449 50.5308 56.4585 49.7689 58.3273Z" fill="#DEDEDE"/>
<path d="M83.2873 47.5952C81.3499 39.6938 70.2625 43.5373 64.8669 42.9519C61.9781 42.6387 62.0065 47.1524 64.8669 47.4691C70.5088 48.0936 77.3624 43.1532 81.6642 48.5399C82.3059 49.3432 83.4998 48.4606 83.2873 47.5952Z" fill="#DEDEDE"/>
<path d="M77.433 39.3717C75.3428 38.7099 73.1313 38.5341 71.1323 37.7717C71.4531 37.5722 71.6781 37.2413 71.6414 36.821C71.5839 36.1746 71.346 35.6389 71.0855 35.0534C70.6534 34.0832 68.9462 34.5508 69.0545 35.6033C69.0983 36.0272 69.1463 36.4208 69.2487 36.8103C67.6782 35.8514 66.0521 37.8611 66.8364 39.3445C67.6279 40.8415 69.2836 41.2891 70.8718 41.4246C72.9194 41.5987 75.1398 41.4874 77.1779 41.2618C78.2203 41.1458 78.5264 39.718 77.433 39.3717Z" fill="#DEDEDE"/>
<path d="M62.3794 33.0954C62.5665 32.2199 61.7993 31.6783 61.096 31.7487C60.1513 31.1378 59.1201 30.8401 57.9161 30.9366C57.166 30.997 56.4598 31.3817 56.0733 31.9914C54.7876 31.1242 53.5776 30.1345 52.3233 29.1974C51.4785 28.5658 50.4112 29.7758 50.9197 30.6009C50.0087 31.3403 49.6068 32.7752 50.6516 33.7561C52.5944 35.5793 54.6917 37.2089 56.9299 38.6533C58.0303 39.3637 59.4628 38.7374 59.9553 37.6393C60.4478 37.3332 60.7699 36.7585 60.8634 36.1381C61.2754 36.0842 61.6525 35.8315 61.791 35.3141C61.804 35.265 61.8176 35.2152 61.8307 35.1661C62.3593 34.6067 62.6262 33.8141 62.3794 33.0954Z" fill="#DEDEDE"/>
<path d="M44.2907 36.0818C44.1398 35.6177 43.8308 35.2098 43.2968 35.0879C42.6149 34.9328 41.6707 35.2957 41.5464 36.0818C41.4464 36.7164 41.2214 37.4178 41.2628 38.0536C41.3185 38.9161 41.9844 39.7513 42.9185 39.7093C43.8633 39.6667 44.5145 38.9812 44.5742 38.0536C44.6157 37.4149 44.3913 36.7181 44.2907 36.0818Z" fill="#DEDEDE"/>
<path d="M66.7293 10.5719C66.5333 9.19087 64.8019 8.8724 63.7813 9.3726C62.759 9.87399 61.8681 10.4458 61.0708 11.1283C60.4019 9.49691 59.8135 7.83352 58.8965 6.31633C58.5615 5.76167 57.6309 5.97537 57.6487 6.65434C57.7162 9.26723 58.565 11.7452 58.7568 14.3498C58.8699 15.8817 60.6736 16.7845 61.851 15.6313C62.1399 15.3484 62.4264 15.0856 62.7152 14.8352C62.3056 17.6043 61.0584 20.1 58.9161 22.234C56.8868 24.2556 60.0633 27.432 62.0588 25.3767C65.9882 21.3289 67.516 16.1108 66.7293 10.5719Z" fill="#DEDEDE"/>
<path d="M77.5999 103.283C76.2774 101.551 75.0207 99.769 73.6847 98.0488C73.001 97.1686 71.862 97.8322 71.659 98.7213C71.6276 98.2459 71.4323 97.7629 70.9931 97.3302C69.1095 95.4714 66.9683 95.0855 64.3963 95.6538C62.5541 96.0604 60.3698 96.8099 58.6614 97.6125C56.2072 98.7657 56.8992 97.7505 56.0201 95.3406C55.2287 93.1705 54.8771 92.1352 52.6122 91.857C49.1629 91.4337 44.4924 92.8467 41.1372 93.5275C40.2818 93.7009 40.4665 95.1103 41.3444 95.0583C43.2179 94.947 45.0879 94.8671 46.965 94.8558C48.0417 94.8493 50.5996 94.3923 51.4786 94.8274C53.074 95.6171 52.4382 99.5997 53.8926 101.37C57.6137 105.901 64.3862 97.2343 67.7598 100.563C69.2817 102.064 71.3932 100.772 71.6395 99.1593C71.6578 99.2854 71.6922 99.4121 71.7573 99.5352C72.1864 100.352 72.6363 101.158 73.0874 101.964C72.8394 102.107 72.6109 102.314 72.4297 102.618C69.0408 108.299 59.206 110.605 53.132 111.152C46.4222 111.756 39.9823 110.375 33.7336 108.022C32.7853 107.665 32.249 109.114 33.0629 109.613C40.0776 113.916 48.5307 115.106 56.6032 113.945C62.6258 113.079 71.1552 110.602 75.0219 105.33C76.2342 106.568 78.7708 104.817 77.5999 103.283Z" fill="#DEDEDE"/>
<path d="M95.0164 98.4532C91.9069 96.8011 87.466 98.3798 85.4818 95.2371C83.2602 91.7185 83.3064 86.6757 83.7663 82.7054C83.9137 81.4351 82.0153 81.3315 81.6436 82.4183C80.0477 87.0812 79.7404 92.7225 82.0568 97.2391C82.8849 98.854 84.0813 100.261 85.7476 101.036C88.1794 102.167 90.8615 101.311 93.3744 102.347C95.6131 103.271 97.1232 99.5726 95.0164 98.4532Z" fill="#DEDEDE"/>
<path d="M15.253 89.9572C14.3787 90.4692 13.6772 91.2849 12.8704 91.9024C12.0706 92.5144 11.2058 93.0312 10.4137 93.6504C9.52225 94.3471 10.4925 95.814 11.4917 95.502C12.4956 95.1889 13.4593 94.6496 14.3585 94.1109C15.2388 93.5841 16.3321 92.9998 16.9827 92.1989C17.9523 91.0067 16.7453 89.0829 15.253 89.9572Z" fill="#DEDEDE"/>
<path d="M100.303 38.5953C100.033 39.2654 99.7107 39.9639 99.3502 40.676C99.2815 40.6736 99.2176 40.6612 99.1465 40.6665C99.0317 40.6754 98.9169 40.6837 98.802 40.692C97.5056 40.7885 96.7746 41.6361 96.6911 42.7692C96.3407 43.0805 95.6416 44.503 95.3444 44.9043C94.3026 46.312 93.2092 47.6771 92.0413 48.9817C89.9203 51.3513 87.5803 53.5268 84.8638 55.202C83.3638 56.1266 81.7395 56.866 80.0506 57.394C78.4612 57.6101 76.8618 57.5349 75.2813 57.0886C74.2382 56.7944 73.4545 57.2946 73.0679 58.0274C72.3422 57.9339 71.5342 57.819 70.735 57.6995C71.2151 57.0601 71.2956 56.2018 70.4923 55.5341C69.8808 55.0238 69.2676 54.5153 68.6519 54.0098C67.4396 53.0094 65.804 53.9074 65.8798 55.2606C65.7768 55.3192 65.6809 55.3867 65.5856 55.4559C65.4684 55.405 65.3494 55.3689 65.2299 55.3612C65.0736 54.8196 64.9238 54.2762 64.7533 53.7393C64.4053 52.643 62.8691 53.1047 63.0568 54.2069C63.5647 57.1963 64.1697 60.1638 64.484 63.1827C64.5781 64.0861 64.9765 66.4687 65.0576 68.1652C64.8682 67.903 64.7196 67.5964 64.6551 67.2003C64.0785 65.2546 60.7825 65.5162 60.9719 67.6988C61.143 69.67 61.9563 71.3618 63.7748 72.2994C64.3017 72.5712 64.9114 72.7677 65.5187 72.8387C65.4607 73.1513 65.4512 73.4709 65.4986 73.7628L65.5371 73.999C65.5406 74.0191 65.5507 74.0362 65.5548 74.0564C65.2713 73.8634 64.9706 73.6793 64.6284 73.5147C60.1077 71.3375 53.3665 72.1035 48.4876 71.6388C47.631 71.5571 47.428 72.9991 48.2827 73.1519C51.8434 73.787 55.4496 74.3926 58.9705 75.2225C60.4291 75.5664 62.2387 75.8553 63.3368 76.9576C64.6426 78.2687 64.5325 79.9339 65.0215 81.5227C66.4499 86.1636 69.1675 86.6709 73.3272 85.9458C75.4926 85.5681 75.4612 85.7877 75.4802 88.0697C75.4908 89.33 75.1339 90.5962 75.1587 91.873C75.2102 94.4824 75.8951 97.0296 77.23 99.2778C79.4474 103.012 83.6675 106.359 88.145 106.333C90.0097 106.323 91.0823 103.416 89.165 102.567C85.9507 101.143 83.0726 100.227 81.1156 97.0065C78.9212 93.3938 79.8926 89.919 80.3543 86.0612C80.7065 83.1157 79.4841 80.8804 77.005 80.4708C78.2464 74.7987 78.8797 68.6743 76.8044 63.1383C76.4231 62.122 74.8213 62.2031 74.8254 63.4059C74.8402 68.1871 74.9326 72.7221 73.8031 77.2517C72.7252 77.4506 71.7597 78.4297 72.1741 79.6942C72.4038 80.2743 72.5577 80.8739 72.6595 81.4878C72.4517 81.5789 72.2818 81.6399 72.1853 81.6441C68.5537 81.798 69.132 80.0937 68.3743 78.0615C67.9978 77.0511 67.5817 76.1815 67.0205 75.4398C67.3893 75.538 67.7741 75.5552 68.1139 75.4617C70.4533 74.817 70.4651 71.8928 70.3733 69.8914C70.297 68.2209 69.9418 66.5752 69.5452 64.9551C69.4653 64.6289 68.9532 62.7157 68.6537 61.0677C68.826 61.1328 68.9953 61.1955 69.1468 61.2494C73.3154 62.7405 77.9717 62.5091 82.1503 61.1393C85.6511 60.2614 88.8773 58.2139 91.7287 55.6471C93.3501 54.188 94.9851 52.6075 96.4851 50.905C98.6682 48.6502 101.243 45.6662 101.388 43.3836C101.982 41.9558 102.416 40.467 102.621 38.9078C102.812 37.4782 100.754 37.4783 100.303 38.5953Z" fill="#DEDEDE"/>
<path d="M54.8402 52.4084C54.2328 51.3269 53.5781 50.2667 52.4054 49.7594C51.6619 49.438 50.851 49.4308 50.2401 50.0388C48.0652 52.2048 46.8807 56.0791 45.5186 58.8009C43.9908 61.8536 41.9509 65.0384 41.2684 68.4013C41.1044 69.2087 42.074 69.8888 42.708 69.2395C44.8095 67.0859 46.113 64.1901 47.5721 61.5784C48.7554 59.4604 49.9115 56.3194 51.4719 54.0842C51.5205 54.1535 51.569 54.2221 51.6175 54.2914C52.6174 56.4384 56.0335 54.5341 54.8402 52.4084Z" fill="#DEDEDE"/>
<path d="M62.2991 49.4931C61.9155 48.997 61.1175 48.6205 60.4853 48.8745C59.9827 49.0769 59.5553 49.2758 59.1718 49.6754C58.5017 50.3733 58.4265 51.604 59.1718 52.2883C59.9514 53.004 61.0045 52.9673 61.7847 52.2883C62.0528 52.0551 62.2843 51.7354 62.434 51.4092C62.7318 50.761 62.7561 50.085 62.2991 49.4931Z" fill="#DEDEDE"/>
<path d="M78.0567 57.7678C73.7473 57.7678 69.5799 56.6963 66.0039 54.6677C65.3806 54.3149 65.1621 53.5223 65.5155 52.8995C65.8701 52.278 66.6598 52.0584 67.2837 52.4118C70.4696 54.219 74.1954 55.1738 78.0567 55.1738C89.0381 55.1738 98.0003 48.4385 100.946 38.206C99.3091 38.5103 97.6457 38.6636 95.977 38.6636C88.5077 38.6636 85.0465 36.3555 81.3823 33.9125C76.8592 30.8959 71.7328 27.478 56.9979 27.2667C56.3136 27.2566 55.7548 26.7179 55.721 26.0348C55.7204 26.0129 55.7187 25.9419 55.7187 25.92C55.7187 25.2374 55.8477 24.6011 56.1028 24.0287C56.6492 22.7986 57.5892 21.9681 58.5837 21.0908C60.7065 19.2161 63.1134 17.0921 63.1134 9.8679C63.1134 3.11901 56.8079 2.59454 54.8757 2.59454C51.2607 2.59454 47.3981 4.3491 44.4863 7.20588C45.3162 7.22304 46.11 7.23192 46.8796 7.23547C47.3745 7.23725 47.8255 7.5208 48.0416 7.96595C48.2577 8.41169 48.2014 8.94149 47.8972 9.33041C46.9411 10.554 45.9644 12.2819 45.9644 15.8194C45.9644 20.2626 49.6701 22.196 51.2636 22.8199C51.7603 23.0152 52.161 23.5249 52.161 24.0589C52.161 25.7382 50.6646 28.9153 45.0001 28.9153C44.6296 28.9153 44.256 28.907 43.8831 28.8987C43.5273 28.891 43.1722 28.8827 42.8164 28.8827C38.9959 28.8827 34.8842 30.9652 34.8842 35.5369C34.8842 38.1989 35.8739 42.7031 39.5843 42.7031C39.9626 42.7031 40.3225 42.8688 40.5687 43.1559C40.8156 43.443 40.9233 43.8237 40.8659 44.1978C40.6617 45.5267 39.8815 46.4644 39.1936 47.2919C38.6709 47.92 38.2163 48.4664 38.1879 48.992C38.4448 49.0329 38.9344 49.0737 39.8661 49.0737C42.0599 49.0737 42.4754 48.3071 42.4754 46.8918C42.4754 45.3698 41.4815 43.7437 40.5208 42.1721C39.547 40.5797 38.6283 39.0762 38.6283 37.5235C38.6283 34.5732 41.2276 32.1248 44.5461 31.9502C45.263 31.9159 45.8721 32.4617 45.91 33.1773C45.9478 33.8924 45.3979 34.5033 44.6828 34.5412C42.7744 34.6418 41.2223 35.9802 41.2223 37.5241C41.2223 38.3469 41.9906 39.6042 42.7335 40.8189C43.8281 42.6102 45.0694 44.64 45.0694 46.8924C45.0694 48.6759 44.3928 51.6689 39.8661 51.6689C37.8629 51.6689 35.5922 51.6688 35.5922 49.0459C35.5922 47.5654 36.4458 46.5396 37.1993 45.6345C37.3722 45.4249 37.5385 45.226 37.6871 45.0307C33.9927 43.9267 32.2891 39.5989 32.2891 35.5381C32.2891 30.1791 36.7157 26.2893 42.8152 26.2893C43.1899 26.2893 43.5652 26.2976 43.9399 26.3065C44.2939 26.3142 44.6479 26.3225 44.9989 26.3225C47.6432 26.3225 48.8336 25.4795 49.3025 24.7804C47.1134 23.6782 43.3693 21.0316 43.3693 15.8206C43.3693 13.1065 43.8861 11.2075 44.5556 9.80279C43.6374 9.78503 42.6785 9.75898 41.6627 9.72346C41.1814 9.70689 40.7481 9.42453 40.5386 8.99062C40.3296 8.55672 40.3781 8.04231 40.6652 7.65576C44.1104 3.00477 49.6878 0 54.8757 0C61.4559 0 65.7073 3.87376 65.7073 9.86731C65.7073 18.2618 62.5818 21.0209 60.3004 23.0348C59.6078 23.6463 59.0336 24.1518 58.6755 24.7094C72.928 25.1581 78.1739 28.6548 82.8208 31.7537C86.437 34.1647 89.2926 36.069 95.9764 36.069C98.1358 36.069 100.285 35.7855 102.367 35.2255C102.802 35.1083 103.264 35.2255 103.592 35.5327C103.92 35.84 104.064 36.2952 103.974 36.7362C101.457 49.1193 90.7986 57.7678 78.0567 57.7678Z" fill="url(#paint0_linear_2493_14455)"/>
<path d="M40.4335 72.2852C38.3374 72.2852 36.9297 71.0853 36.9297 69.3C36.9297 69.1609 36.9528 69.0229 36.9966 68.8903C37.0546 68.7139 42.8883 50.986 43.665 32.8432C43.6963 32.1281 44.2841 31.5764 45.017 31.6024C45.7321 31.6338 46.2879 32.2382 46.2577 32.9545C45.5196 50.1816 40.3204 67.0138 39.5521 69.4184C39.6781 69.6616 40.1949 69.6912 40.4335 69.6912C42.1928 69.6912 46.0961 64.2784 50.5103 52.3943C50.7601 51.7218 51.506 51.3826 52.1779 51.6301C52.8492 51.8793 53.1913 52.6263 52.9421 53.2976C48.2633 65.8968 44.0545 72.2852 40.4335 72.2852Z" fill="url(#paint1_linear_2493_14455)"/>
<path d="M70.812 36.4512C70.4799 36.4512 70.1484 36.3245 69.8951 36.0712C66.3806 32.5573 61.5301 32.3537 56.3937 32.1376C54.6202 32.0636 52.7869 31.9867 51.0425 31.757C50.3321 31.6635 49.8313 31.0123 49.9254 30.302C50.019 29.5916 50.6737 29.092 51.3805 29.185C53.0113 29.3992 54.7078 29.4715 56.5026 29.546C61.909 29.7734 67.5 30.0078 71.7289 34.2373C72.2356 34.744 72.2356 35.5651 71.7289 36.0712C71.4756 36.3245 71.1441 36.4512 70.812 36.4512Z" fill="url(#paint2_linear_2493_14455)"/>
<path d="M60.5835 53.609C58.8301 53.609 54.2188 51.6052 54.2188 47.0933C54.2188 43.9731 56.3646 42.1505 58.2577 40.5427C59.8382 39.2007 61.2032 38.0417 61.2032 36.3676C61.2032 36.0131 61.1357 35.6526 60.9972 35.2666C60.7557 34.5918 61.1062 33.8495 61.7798 33.6074C62.457 33.3664 63.1969 33.7157 63.439 34.3899C63.6764 35.0529 63.7972 35.7183 63.7972 36.3676C63.7972 39.2422 61.7461 40.9837 59.937 42.5204C58.2606 43.9441 56.8127 45.1736 56.8127 47.0933C56.8127 49.9341 60.0241 51.015 60.5835 51.015C60.761 51.015 62.3179 50.9818 62.3179 49.8335C62.3179 49.5387 62.1983 49.3818 61.8272 48.9722C61.4252 48.5282 60.8173 47.8557 60.8173 46.8097C60.8173 46.2243 61.0487 45.9739 62.0231 44.9167C63.4888 43.3267 67.3827 39.1019 67.3827 36.5121C67.3827 35.607 67.0518 34.7634 66.371 33.9312C65.9176 33.3765 65.9993 32.5596 66.5533 32.1056C67.1092 31.6527 67.9249 31.7332 68.3789 32.2879C69.4385 33.5843 69.9766 35.0044 69.9766 36.5121C69.9766 40.1153 65.8927 44.5455 63.9304 46.6754C63.8155 46.7997 63.6954 46.9293 63.5864 47.0483C63.6421 47.1128 63.7013 47.1774 63.7504 47.2324C64.2133 47.7433 64.9112 48.5158 64.9112 49.834C64.9118 52.0219 63.0916 53.609 60.5835 53.609Z" fill="url(#paint3_linear_2493_14455)"/>
<path d="M58.7755 42.0002C58.2238 42.0002 57.7129 41.6474 57.5383 41.0939C57.182 39.9638 57.0156 38.7799 57.0156 37.3675C57.0156 36.3286 57.1068 35.3022 57.1956 34.3089C57.2494 33.6956 57.3045 33.083 57.3365 32.4697C57.3738 31.7546 57.9918 31.2053 58.6991 31.242C59.4154 31.2799 59.9642 31.8896 59.9269 32.6047C59.8931 33.2493 59.8357 33.8939 59.7789 34.5386C59.6913 35.5183 59.609 36.4435 59.609 37.3675C59.609 38.5076 59.7363 39.4429 60.0115 40.3119C60.227 40.995 59.8487 41.7237 59.1656 41.9398C59.0366 41.9806 58.9046 42.0002 58.7755 42.0002Z" fill="url(#paint4_linear_2493_14455)"/>
<path d="M62.7285 72.388C57.9378 72.388 55.3604 64.9566 53.2897 58.9855C52.5308 56.7953 51.6689 54.3114 51.1457 53.7881C50.6389 53.2814 50.6389 52.4604 51.1457 51.9543C51.6524 51.4475 52.4728 51.4475 52.9795 51.9543C53.8805 52.8552 54.5808 54.7915 55.741 58.1366C57.244 62.4721 59.7557 69.7135 62.6793 69.7934C62.6811 69.6644 62.6799 69.5188 62.6793 69.3956L62.6787 69.1162C62.6787 65.7563 61.8163 62.4076 60.9029 58.863C60.5187 57.3689 60.1203 55.8245 59.7977 54.2919C59.6497 53.591 60.0984 52.9026 60.7993 52.7552C61.5013 52.6131 62.1892 53.0559 62.336 53.7568C62.6468 55.2337 63.0375 56.7497 63.4151 58.2166C64.3291 61.7618 65.2733 65.4284 65.2733 69.1168L65.2739 69.3797C65.2798 70.2131 65.2851 71.0744 64.631 71.7321C63.9781 72.388 63.0375 72.388 62.7285 72.388Z" fill="url(#paint5_linear_2493_14455)"/>
<path d="M61.2829 20.4206C61.0302 20.4206 60.7756 20.3472 60.5519 20.1944C58.4528 18.7578 58.1012 16.5539 57.7904 14.6093C57.3198 11.662 57.009 9.71504 51.4985 9.71504C50.8355 9.71504 50.1624 9.73872 49.4935 9.7624C48.4854 9.79792 47.4874 9.83166 46.5355 9.79377C45.8204 9.76595 45.2622 9.16275 45.2901 8.44707C45.3179 7.73199 45.8903 7.16431 46.6368 7.2016C47.5253 7.23593 48.46 7.20338 49.4024 7.17023C50.1027 7.14596 50.8059 7.12109 51.4985 7.12109C59.2217 7.12109 59.8753 11.2133 60.3524 14.2009C60.6134 15.8359 60.839 17.2477 62.0158 18.0533C62.6077 18.4576 62.7587 19.2651 62.3544 19.8564C62.1028 20.2228 61.6967 20.4206 61.2829 20.4206Z" fill="url(#paint6_linear_2493_14455)"/>
<path d="M28.8862 79.7743C28.3801 79.7743 27.9 79.4771 27.6905 78.9829C26.2668 75.617 25.5725 71.9623 25.6281 68.1187C25.7193 61.8949 28.0652 55.9238 32.2349 51.3072C32.7144 50.7744 33.536 50.7336 34.0664 51.2136C34.5986 51.6943 34.6406 52.5142 34.16 53.0451C30.4123 57.1959 28.3026 62.562 28.2215 68.156C28.1705 71.6379 28.7957 74.9392 30.079 77.9712C30.3578 78.6318 30.0494 79.3925 29.39 79.6719C29.2254 79.7417 29.0543 79.7743 28.8862 79.7743Z" fill="url(#paint7_linear_2493_14455)"/>
<path d="M72.3691 82.0673C72.1536 82.0673 71.9369 82.0141 71.7357 81.9016C71.1106 81.5511 70.888 80.7609 71.2384 80.1358C73.196 76.6415 74.2195 72.6452 74.1964 68.5802C74.1745 64.4525 72.9983 60.4278 70.7951 56.9412C70.4115 56.335 70.5926 55.5341 71.1976 55.1517C71.802 54.7699 72.6047 54.9493 72.9871 55.5542C75.4502 59.4523 76.7661 63.9517 76.7904 68.5654C76.8158 73.0785 75.6781 77.5176 73.5009 81.4037C73.2641 81.8288 72.8225 82.0673 72.3691 82.0673Z" fill="url(#paint8_linear_2493_14455)"/>
<path d="M1.29838 110.523C1.20012 110.523 1.10067 110.512 1.00004 110.488C0.302712 110.324 -0.128824 109.626 0.0345561 108.928C2.82563 97.066 7.4926 95.9531 12.0341 95.83C14.1912 95.772 14.4676 95.7643 14.4676 93.696C14.4676 93.2473 14.4339 92.7779 14.4007 92.3025C14.3628 91.7562 14.3255 91.2033 14.3255 90.6634C14.3255 90.6439 14.3273 90.5681 14.3279 90.5486C14.3551 89.9448 14.7967 89.4398 15.3917 89.3315C17.65 88.9213 19.9077 88.8686 21.6232 88.8686C22.2068 88.8686 22.7899 88.8751 23.3718 88.884C33.2006 70.457 36.0438 69.8165 46.1147 70.1084C47.3069 70.1427 48.6584 70.1818 50.1312 70.1818C65.7588 70.1818 67.2742 70.6287 68.155 75.491C68.4149 76.9247 68.7316 78.6745 70.1647 81.0548C72.014 80.5416 73.9006 80.0704 75.7332 79.6128C77.1871 79.2487 78.6409 78.8859 80.0806 78.5017C80.4683 78.3969 80.8868 78.4804 81.2071 78.7278C81.5273 78.9747 81.7138 79.3559 81.712 79.7596C81.7079 80.8559 81.6777 81.9907 81.6463 83.1414C81.6114 84.4017 81.577 85.6809 81.577 86.9501C81.577 96.9648 85.3164 100.533 88.8149 100.533C89.5874 100.533 90.4286 100.329 91.3189 100.112C92.3086 99.8701 93.3321 99.6209 94.3976 99.6209C98.5774 99.6209 100.089 103.489 101.09 106.05C101.367 106.762 101.631 107.435 101.899 107.926C102.242 108.555 102.01 109.343 101.382 109.686C100.754 110.031 99.965 109.798 99.6222 109.169C99.2753 108.532 98.9829 107.785 98.6727 106.994C97.58 104.195 96.6334 102.215 94.397 102.215C93.6429 102.215 92.8118 102.417 91.9321 102.632C90.9323 102.875 89.8988 103.127 88.8143 103.127C84.0609 103.127 78.9825 98.8768 78.9825 86.9501C78.9825 85.6578 79.018 84.3544 79.0523 83.0716C79.0666 82.5229 79.0819 81.9788 79.0938 81.4402C78.1851 81.6734 77.2741 81.9013 76.3619 82.1292C74.2409 82.6596 72.0477 83.2077 69.9475 83.8121C69.4029 83.9702 68.8233 83.7553 68.5102 83.2871C66.3442 80.0479 65.8973 77.5848 65.6025 75.9539C65.2935 74.2473 65.2284 73.8927 63.8918 73.5032C61.7998 72.8953 57.2619 72.7763 50.1306 72.7763C48.6205 72.7763 47.2489 72.7366 46.0402 72.7023C36.9495 72.4413 35.0535 72.385 25.2903 90.8013C25.0607 91.2329 24.6108 91.4856 24.1224 91.4916C23.2907 91.4774 22.4572 91.4637 21.6226 91.4637C20.3043 91.4637 18.6474 91.4957 16.9603 91.7136C16.9686 91.8503 16.9787 91.987 16.9882 92.1238C17.0255 92.6601 17.061 93.1905 17.061 93.696C17.061 98.289 14.1959 98.3665 12.1039 98.4234C8.9944 98.508 5.12537 98.6122 2.55806 109.523C2.41955 110.12 1.88679 110.523 1.29838 110.523Z" fill="url(#paint9_linear_2493_14455)"/>
<path d="M75.0428 108.508C74.5781 108.508 74.1283 108.257 73.8962 107.818C72.5998 105.371 70.7583 103.247 68.9149 101.211C64.7404 103.224 59.8769 104.228 54.0852 104.278C53.527 104.248 53.0464 103.943 52.8575 103.43C52.0495 101.241 51.7328 98.8834 51.5747 96.7369C49.4751 96.7275 47.3423 96.5588 45.2775 96.3942C43.4815 96.2515 41.6287 96.1047 39.841 96.0698C36.3236 98.9597 33.1975 102.533 30.172 105.994L28.9431 107.396C28.4701 107.933 27.6503 107.986 27.1122 107.512C26.5741 107.039 26.522 106.219 26.9956 105.681L28.2186 104.286C31.4216 100.624 34.7336 96.8364 38.5766 93.7541C38.8069 93.5694 39.0934 93.4688 39.3882 93.4688C41.4209 93.4853 43.4863 93.6493 45.4823 93.8085C47.8934 94.0009 50.3784 94.1951 52.7539 94.1288C53.4791 94.1282 54.0509 94.6657 54.0876 95.3565C54.1924 97.3366 54.3871 99.5937 55.0039 101.667C60.3694 101.516 64.8257 100.465 68.6041 98.4625C69.1274 98.1819 69.7721 98.2985 70.1704 98.7354L70.2433 98.8147C72.3855 101.17 74.6006 103.605 76.1883 106.604C76.5233 107.238 76.283 108.022 75.6496 108.358C75.456 108.46 75.2482 108.508 75.0428 108.508Z" fill="url(#paint10_linear_2493_14455)"/>
<path d="M20.2801 89.3407C19.8587 89.3407 19.4449 89.1352 19.1957 88.757C18.6552 87.9354 18.1426 87.0906 17.6738 86.2471C17.3257 85.6208 17.5524 84.8311 18.1781 84.4831C18.8014 84.1368 19.5935 84.3599 19.9421 84.9874C20.3796 85.7747 20.8573 86.5632 21.3622 87.3298C21.7559 87.9282 21.5901 88.7327 20.9923 89.127C20.7732 89.2714 20.5246 89.3407 20.2801 89.3407ZM15.7611 79.767C15.2071 79.767 14.6939 79.4088 14.5222 78.8506C14.1723 77.7146 13.8728 76.5485 13.6301 75.3847C13.4839 74.6838 13.9344 73.9966 14.6358 73.8504C15.3326 73.7053 16.024 74.1552 16.1702 74.8561C16.3957 75.9412 16.6763 77.0292 17.0013 78.0888C17.2114 78.7737 16.8273 79.4988 16.1424 79.7095C16.0163 79.748 15.8878 79.767 15.7611 79.767ZM14.1173 68.6873C13.3987 68.6867 12.8191 68.1048 12.8203 67.3886C12.8221 66.1952 12.8783 64.9935 12.989 63.8173C13.0547 63.104 13.6858 62.5766 14.4008 62.647C15.1141 62.7139 15.638 63.3461 15.5711 64.0588C15.4687 65.1563 15.4154 66.2781 15.4143 67.3921C15.4131 68.1084 14.8324 68.6873 14.1173 68.6873ZM15.8008 57.6183C15.6735 57.6183 15.5439 57.6 15.416 57.5603C14.7323 57.3472 14.3493 56.6203 14.5624 55.9366C14.9147 54.8048 15.3249 53.6741 15.7836 52.5749C16.0595 51.9137 16.8196 51.6023 17.4802 51.8764C18.1414 52.1522 18.454 52.9117 18.1787 53.5729C17.7507 54.5982 17.3683 55.6519 17.0404 56.7067C16.8663 57.262 16.3543 57.6183 15.8008 57.6183ZM20.6981 47.5533C20.4441 47.5533 20.1878 47.4787 19.9623 47.3242C19.3727 46.917 19.2241 46.1101 19.6302 45.5194C20.3038 44.5415 21.0319 43.5831 21.792 42.6709C22.2514 42.1209 23.0682 42.0475 23.6194 42.5051C24.1693 42.9645 24.2433 43.782 23.7851 44.3325C23.0748 45.1837 22.3958 46.0782 21.7671 46.9916C21.5156 47.3574 21.1101 47.5533 20.6981 47.5533ZM28.3538 39.379C27.9702 39.379 27.5914 39.2103 27.3357 38.8865C26.8917 38.3241 26.987 37.5084 27.5488 37.0645C28.4787 36.3298 29.4555 35.6278 30.4547 34.9778C31.0543 34.5871 31.8588 34.7564 32.2489 35.3573C32.6402 35.9575 32.4703 36.7608 31.8694 37.1515C30.9371 37.7588 30.0243 38.4141 29.1577 39.0996C28.9197 39.2878 28.6356 39.379 28.3538 39.379Z" fill="url(#paint11_linear_2493_14455)"/>
<path d="M83.7496 87.848C83.5241 87.848 83.2962 87.79 83.0884 87.6663C82.4728 87.3004 82.2692 86.5048 82.635 85.8886C83.2015 84.9338 83.7301 83.9423 84.2054 82.9431C84.5127 82.2955 85.2899 82.0208 85.9334 82.328C86.581 82.6352 86.8556 83.4089 86.5484 84.0559C86.0393 85.1274 85.4734 86.1887 84.8661 87.2122C84.6234 87.6219 84.1918 87.848 83.7496 87.848ZM87.959 77.4716C87.8596 77.4716 87.759 77.4604 87.6577 77.4361C86.961 77.2703 86.5301 76.5712 86.6964 75.8739C86.9521 74.7995 87.1611 73.6967 87.318 72.5951C87.4192 71.8865 88.0685 71.3958 88.7854 71.494C89.4946 71.5953 89.9871 72.2523 89.8864 72.9615C89.7177 74.1413 89.494 75.3234 89.2193 76.4753C89.0778 77.0703 88.5457 77.4716 87.959 77.4716ZM88.8973 66.3121C88.2189 66.3121 87.6489 65.7852 87.6045 65.0985C87.5328 63.9863 87.4085 62.8698 87.2368 61.78C87.1256 61.0732 87.6086 60.4085 88.316 60.2972C89.0174 60.1859 89.6875 60.6689 89.7988 61.3763C89.9835 62.5443 90.1155 63.74 90.1931 64.9316C90.2392 65.6461 89.6976 66.2635 88.9819 66.3097C88.9541 66.3109 88.9257 66.3121 88.8973 66.3121Z" fill="url(#paint12_linear_2493_14455)"/>
<path d="M51.5414 115.742C40.5002 115.742 30.1085 112.115 21.489 105.252C20.929 104.805 20.8361 103.989 21.2824 103.429C21.7299 102.869 22.545 102.776 23.1056 103.221C31.2604 109.715 41.094 113.148 51.542 113.148C60.7937 113.148 69.7038 110.398 77.3092 105.193C77.9006 104.791 78.7074 104.94 79.1123 105.532C79.5166 106.123 79.3657 106.93 78.7737 107.335C70.735 112.835 61.3187 115.742 51.5414 115.742Z" fill="url(#paint13_linear_2493_14455)"/>
<path d="M85.3756 101.364C85.0512 101.364 84.7268 101.243 84.4753 101.001C83.9591 100.505 83.9443 99.6829 84.4415 99.1673C85.214 98.3652 85.9699 97.5223 86.6868 96.6616C87.1462 96.1099 87.9642 96.0377 88.5136 96.4952C89.0641 96.954 89.1387 97.7721 88.6799 98.322C87.9234 99.2307 87.1254 100.12 86.3097 100.967C86.0552 101.232 85.716 101.364 85.3756 101.364ZM92.1429 92.4238C91.9197 92.4238 91.6953 92.3669 91.4893 92.2468C90.8713 91.8851 90.6624 91.0913 91.0241 90.4727C91.5858 89.5119 92.1192 88.5151 92.6111 87.5105C92.9272 86.8665 93.7056 86.6013 94.3467 86.915C94.9902 87.2299 95.2571 88.0066 94.9422 88.6506C94.4219 89.712 93.8577 90.7663 93.264 91.7821C93.0225 92.1941 92.5886 92.4238 92.1429 92.4238ZM96.5997 82.1362C96.4771 82.1362 96.3528 82.1196 96.2297 82.0829C95.543 81.8793 95.1512 81.1571 95.3548 80.4698C95.6733 79.3972 95.9545 78.3033 96.19 77.2158C96.3422 76.5156 97.033 76.0716 97.7327 76.2237C98.433 76.3759 98.8769 77.0667 98.7248 77.7664C98.4756 78.9159 98.1784 80.0732 97.8422 81.2074C97.6759 81.7715 97.1591 82.1362 96.5997 82.1362ZM98.4744 71.0832C98.4531 71.0832 98.4324 71.0826 98.4111 71.0814C97.696 71.0471 97.1437 70.4385 97.178 69.7235C97.2141 68.9746 97.2319 68.2205 97.2331 67.461C97.2331 67.0946 97.2289 66.7264 97.2195 66.36C97.2029 65.6437 97.7682 65.0488 98.4845 65.031C99.2126 65.0346 99.7957 65.5798 99.8134 66.296C99.8229 66.6844 99.827 67.0733 99.827 67.4628C99.8264 68.2643 99.8069 69.0587 99.769 69.8484C99.7365 70.5427 99.1623 71.0832 98.4744 71.0832ZM97.6924 59.894C97.0827 59.894 96.5387 59.4619 96.4197 58.8409C96.2096 57.7405 95.9562 56.6377 95.6674 55.5639C95.4809 54.8725 95.8911 54.1603 96.5825 53.9745C97.2781 53.7886 97.986 54.1982 98.1719 54.8896C98.4774 56.0256 98.7455 57.1906 98.9681 58.3526C99.1025 59.0558 98.6413 59.736 97.9381 59.8709C97.8558 59.8863 97.7735 59.894 97.6924 59.894Z" fill="url(#paint14_linear_2493_14455)"/>
<path d="M13.5162 96.3511C13.1161 96.3511 12.7207 96.1664 12.4667 95.8171C11.7753 94.8664 11.1082 93.8737 10.4837 92.8674C10.1072 92.2583 10.2948 91.4591 10.9033 91.0815C11.5113 90.7056 12.311 90.8915 12.6893 91.5012C13.2789 92.453 13.9093 93.3913 14.564 94.2905C14.9855 94.87 14.8576 95.6816 14.2787 96.103C14.0484 96.27 13.7814 96.3511 13.5162 96.3511ZM8.05249 86.5578C7.54104 86.5578 7.05623 86.2535 6.85082 85.7515C6.40212 84.6546 5.9913 83.5317 5.62725 82.4152C5.40586 81.7345 5.7782 81.0022 6.46013 80.7803C7.14325 80.5583 7.87313 80.9324 8.09511 81.6131C8.43904 82.6698 8.82795 83.7318 9.25298 84.7706C9.52409 85.4336 9.20562 86.1907 8.54263 86.4619C8.38221 86.5276 8.21587 86.5578 8.05249 86.5578ZM5.07732 75.7439C4.4457 75.7439 3.89163 75.2822 3.79633 74.6387C3.62229 73.4732 3.4897 72.2851 3.40209 71.1065C3.34881 70.392 3.88512 69.7699 4.59961 69.7166C5.30878 69.6633 5.93743 70.1996 5.98953 70.9141C6.0724 72.0294 6.19789 73.1535 6.36187 74.2557C6.46723 74.9643 5.97946 75.6243 5.27089 75.7303C5.20578 75.7398 5.14066 75.7439 5.07732 75.7439ZM4.75352 64.5329C4.71445 64.5329 4.67598 64.5311 4.63691 64.5275C3.9236 64.4642 3.39617 63.8344 3.45951 63.1205C3.56428 61.9484 3.71346 60.7639 3.90466 59.5965C4.02009 58.8897 4.69373 58.4085 5.39461 58.5257C6.1014 58.6411 6.58089 59.3083 6.46546 60.0151C6.28491 61.1196 6.14284 62.242 6.04398 63.3501C5.98361 64.025 5.4171 64.5329 4.75352 64.5329ZM7.07458 53.5657C6.93547 53.5657 6.79399 53.5438 6.65488 53.4958C5.9765 53.2644 5.61541 52.5274 5.84746 51.849C6.22927 50.732 6.65725 49.6156 7.11898 48.5329C7.40016 47.8752 8.16082 47.5674 8.82144 47.8492C9.48029 48.1304 9.78692 48.8928 9.50515 49.5516C9.06769 50.5757 8.6622 51.6312 8.30111 52.689C8.11761 53.2271 7.61444 53.5657 7.07458 53.5657ZM11.9458 43.4687C11.706 43.4687 11.4645 43.403 11.2473 43.2645C10.6441 42.8785 10.4677 42.0764 10.8536 41.4726C11.4876 40.4811 12.1695 39.4985 12.8775 38.5525C13.3073 37.9783 14.1212 37.8635 14.693 38.2927C15.2667 38.7218 15.3833 39.5346 14.9529 40.1082C14.2834 41.0032 13.6388 41.9332 13.0385 42.8714C12.7917 43.2574 12.3726 43.4687 11.9458 43.4687ZM19.07 34.8096C18.729 34.8096 18.3874 34.6752 18.1329 34.4094C17.638 33.8921 17.6558 33.0704 18.1737 32.5755C19.0268 31.7604 19.9194 30.966 20.8287 30.2154C21.381 29.7584 22.1985 29.8372 22.6543 30.3895C23.1101 30.9417 23.0325 31.7592 22.4802 32.215C21.6195 32.926 20.7742 33.6784 19.9674 34.4503C19.7152 34.6906 19.3926 34.8096 19.07 34.8096ZM28.0357 28.0731C27.5882 28.0731 27.1525 27.8411 26.9116 27.4255C26.5535 26.8058 26.7654 26.0119 27.3852 25.6532C28.4081 25.0624 29.4641 24.5013 30.5243 23.988C31.1695 23.6755 31.9456 23.946 32.257 24.5895C32.5695 25.2347 32.3002 26.0096 31.6555 26.3221C30.6522 26.8087 29.6524 27.3391 28.6839 27.8997C28.4803 28.0175 28.2565 28.0731 28.0357 28.0731ZM38.3423 23.6577C37.7805 23.6577 37.2637 23.2901 37.0986 22.7248C36.8973 22.0376 37.2921 21.3171 37.9794 21.1159C39.1136 20.7838 40.2732 20.4908 41.4246 20.2463C42.1213 20.1013 42.8139 20.5429 42.9631 21.2443C43.1122 21.9452 42.6659 22.6336 41.965 22.7828C40.8758 23.0149 39.7795 23.2919 38.7069 23.6056C38.5856 23.6406 38.463 23.6577 38.3423 23.6577Z" fill="url(#paint15_linear_2493_14455)"/>
<defs>
<linearGradient id="paint0_linear_2493_14455" x1="38.265" y1="0" x2="99.2196" y2="0" gradientUnits="userSpaceOnUse">
<stop stop-color="#DC2430"/>
<stop offset="1" stop-color="#7B4397"/>
</linearGradient>
<linearGradient id="paint1_linear_2493_14455" x1="38.2708" y1="31.6016" x2="51.9506" y2="31.6016" gradientUnits="userSpaceOnUse">
<stop stop-color="#DC2430"/>
<stop offset="1" stop-color="#7B4397"/>
</linearGradient>
<linearGradient id="paint2_linear_2493_14455" x1="51.7636" y1="29.1738" x2="70.6293" y2="29.1738" gradientUnits="userSpaceOnUse">
<stop stop-color="#DC2430"/>
<stop offset="1" stop-color="#7B4397"/>
</linearGradient>
<linearGradient id="paint3_linear_2493_14455" x1="55.5319" y1="31.8125" x2="68.9261" y2="31.8125" gradientUnits="userSpaceOnUse">
<stop stop-color="#DC2430"/>
<stop offset="1" stop-color="#7B4397"/>
</linearGradient>
<linearGradient id="paint4_linear_2493_14455" x1="57.2703" y1="31.2402" x2="59.8683" y2="31.2402" gradientUnits="userSpaceOnUse">
<stop stop-color="#DC2430"/>
<stop offset="1" stop-color="#7B4397"/>
</linearGradient>
<linearGradient id="paint5_linear_2493_14455" x1="51.9747" y1="51.5742" x2="64.3077" y2="51.5742" gradientUnits="userSpaceOnUse">
<stop stop-color="#DC2430"/>
<stop offset="1" stop-color="#7B4397"/>
</linearGradient>
<linearGradient id="paint6_linear_2493_14455" x1="46.7301" y1="7.12109" x2="61.4282" y2="7.12109" gradientUnits="userSpaceOnUse">
<stop stop-color="#DC2430"/>
<stop offset="1" stop-color="#7B4397"/>
</linearGradient>
<linearGradient id="paint7_linear_2493_14455" x1="26.3641" y1="50.8789" x2="33.9034" y2="50.8789" gradientUnits="userSpaceOnUse">
<stop stop-color="#DC2430"/>
<stop offset="1" stop-color="#7B4397"/>
</linearGradient>
<linearGradient id="paint8_linear_2493_14455" x1="71.1102" y1="54.9512" x2="76.3777" y2="54.9512" gradientUnits="userSpaceOnUse">
<stop stop-color="#DC2430"/>
<stop offset="1" stop-color="#7B4397"/>
</linearGradient>
<linearGradient id="paint9_linear_2493_14455" x1="8.50481" y1="70.0645" x2="95.2538" y2="70.0645" gradientUnits="userSpaceOnUse">
<stop stop-color="#DC2430"/>
<stop offset="1" stop-color="#7B4397"/>
</linearGradient>
<linearGradient id="paint10_linear_2493_14455" x1="30.8108" y1="93.4688" x2="73.0283" y2="93.4688" gradientUnits="userSpaceOnUse">
<stop stop-color="#DC2430"/>
<stop offset="1" stop-color="#7B4397"/>
</linearGradient>
<linearGradient id="paint11_linear_2493_14455" x1="14.4569" y1="34.7676" x2="31.1501" y2="34.7676" gradientUnits="userSpaceOnUse">
<stop stop-color="#DC2430"/>
<stop offset="1" stop-color="#7B4397"/>
</linearGradient>
<linearGradient id="paint12_linear_2493_14455" x1="83.0983" y1="60.2812" x2="89.6796" y2="60.2812" gradientUnits="userSpaceOnUse">
<stop stop-color="#DC2430"/>
<stop offset="1" stop-color="#7B4397"/>
</linearGradient>
<linearGradient id="paint13_linear_2493_14455" x1="25.8616" y1="102.939" x2="75.4497" y2="102.939" gradientUnits="userSpaceOnUse">
<stop stop-color="#DC2430"/>
<stop offset="1" stop-color="#7B4397"/>
</linearGradient>
<linearGradient id="paint14_linear_2493_14455" x1="85.3905" y1="53.9297" x2="98.7771" y2="53.9297" gradientUnits="userSpaceOnUse">
<stop stop-color="#DC2430"/>
<stop offset="1" stop-color="#7B4397"/>
</linearGradient>
<linearGradient id="paint15_linear_2493_14455" x1="6.69789" y1="20.2188" x2="40.3523" y2="20.2188" gradientUnits="userSpaceOnUse">
<stop stop-color="#DC2430"/>
<stop offset="1" stop-color="#7B4397"/>
</linearGradient>
</defs>
</svg>
