<svg width="24" height="18" viewBox="0 0 24 18" fill="none" xmlns="http://www.w3.org/2000/svg">
<path d="M3.75 0C2.75544 0 1.80161 0.395088 1.09835 1.09835C0.395088 1.80161 0 2.75544 0 3.75V14.25C0 15.2446 0.395088 16.1984 1.09835 16.9016C1.80161 17.6049 2.75544 18 3.75 18H20.25C21.2446 18 22.1984 17.6049 22.9016 16.9016C23.6049 16.1984 24 15.2446 24 14.25V3.75C24 2.75544 23.6049 1.80161 22.9016 1.09835C22.1984 0.395088 21.2446 0 20.25 0H3.75ZM7.719 4.719C7.78867 4.64916 7.87143 4.59374 7.96255 4.55593C8.05367 4.51812 8.15135 4.49866 8.25 4.49866C8.34865 4.49866 8.44633 4.51812 8.53745 4.55593C8.62857 4.59374 8.71133 4.64916 8.781 4.719L12 7.9395L15.219 4.719C15.3598 4.57817 15.5508 4.49905 15.75 4.49905C15.9492 4.49905 16.1402 4.57817 16.281 4.719C16.4218 4.85983 16.5009 5.05084 16.5009 5.25C16.5009 5.44916 16.4218 5.64017 16.281 5.781L13.0605 9L16.281 12.219C16.4218 12.3598 16.5009 12.5508 16.5009 12.75C16.5009 12.9492 16.4218 13.1402 16.281 13.281C16.1402 13.4218 15.9492 13.5009 15.75 13.5009C15.5508 13.5009 15.3598 13.4218 15.219 13.281L12 10.0605L8.781 13.281C8.64037 13.4218 8.44955 13.501 8.25053 13.5012C8.05151 13.5013 7.86058 13.4224 7.71975 13.2817C7.57892 13.1411 7.49972 12.9503 7.49958 12.7513C7.49944 12.5523 7.57837 12.3613 7.719 12.2205L10.9395 9L7.719 5.781C7.64916 5.71133 7.59374 5.62857 7.55593 5.53745C7.51812 5.44633 7.49866 5.34865 7.49866 5.25C7.49866 5.15135 7.51812 5.05367 7.55593 4.96255C7.59374 4.87143 7.64916 4.78867 7.719 4.719Z" fill="url(#paint0_linear_1_87)"/>
<defs>
<linearGradient id="paint0_linear_1_87" x1="25.4996" y1="-1.50044" x2="-5.25042" y2="23.9995" gradientUnits="userSpaceOnUse">
<stop stop-color="#DC2430"/>
<stop offset="1" stop-color="#7B4397"/>
</linearGradient>
</defs>
</svg>
