<svg width="26" height="15" viewBox="0 0 26 15" fill="none" xmlns="http://www.w3.org/2000/svg">
<path d="M12.582 0C7.77413 0 3.41413 2.63041 0.196895 6.90288C-0.0656316 7.25292 -0.0656316 7.74194 0.196895 8.09197C3.41413 12.3696 7.77413 15 12.582 15C17.3898 15 21.7498 12.3696 24.967 8.09712C25.2296 7.74708 25.2296 7.25807 24.967 6.90803C21.7498 2.63041 17.3898 0 12.582 0ZM12.9269 12.7814C9.73535 12.9822 7.09979 10.3518 7.30055 7.15511C7.46527 4.51956 9.60152 2.38332 12.2371 2.2186C15.4286 2.01784 18.0641 4.64825 17.8634 7.84489C17.6935 10.4753 15.5573 12.6115 12.9269 12.7814ZM12.7673 10.3415C11.048 10.4496 9.62726 9.03397 9.7405 7.31469C9.82801 5.89396 10.9811 4.74605 12.4018 4.6534C14.1211 4.5453 15.5418 5.96088 15.4286 7.68017C15.3359 9.10604 14.1829 10.2539 12.7673 10.3415Z" fill="#9C9A9C"/>
</svg>
