<svg width="14" height="7" viewBox="0 0 14 7" fill="none" xmlns="http://www.w3.org/2000/svg">
<path d="M13.9982 0.993353C13.9987 0.761662 13.9175 0.537126 13.7687 0.358724C13.6849 0.258316 13.5821 0.175316 13.466 0.114479C13.3499 0.0536422 13.2229 0.0161631 13.0922 0.00418855C12.9615 -0.00778597 12.8297 0.00597954 12.7044 0.0446963C12.5791 0.0834131 12.4626 0.14632 12.3618 0.229815L7.01368 4.67222L1.65557 0.388473C1.5535 0.306104 1.43607 0.244593 1.31001 0.207475C1.18395 0.170357 1.05175 0.158365 0.921013 0.172187C0.790274 0.186009 0.663573 0.225373 0.548193 0.288017C0.432812 0.35066 0.331026 0.435349 0.248686 0.537213C0.157851 0.639811 0.0893352 0.75996 0.0474391 0.89012C0.00554292 1.02028 -0.00882891 1.15764 0.00522481 1.29359C0.0192785 1.42953 0.0614547 1.56112 0.129107 1.68009C0.196758 1.79907 0.288425 1.90286 0.398354 1.98496L6.38508 6.77442C6.56362 6.92027 6.78756 7 7.01867 7C7.24979 7 7.47373 6.92027 7.65227 6.77442L13.639 1.81639C13.7597 1.71691 13.8552 1.59055 13.9176 1.44755C13.98 1.30455 14.0076 1.14894 13.9982 0.993353Z" fill="#333333"/>
</svg>
