<svg width="16" height="10" viewBox="0 0 16 10" fill="none" xmlns="http://www.w3.org/2000/svg">
<path d="M15.5827 1.79199L8.58268 8.81283C8.49935 8.89616 8.40907 8.95505 8.31185 8.98949C8.21463 9.02449 8.11046 9.04199 7.99935 9.04199C7.88824 9.04199 7.78407 9.02449 7.68685 8.98949C7.58963 8.95505 7.49935 8.89616 7.41602 8.81283L0.395182 1.79199C0.200737 1.59755 0.103515 1.35449 0.103515 1.06283C0.103515 0.771159 0.207682 0.52116 0.416015 0.312826C0.624349 0.104493 0.867404 0.00032618 1.14518 0.000326168C1.42296 0.000326156 1.66602 0.104493 1.87435 0.312826L7.99935 6.43783L14.1243 0.312826C14.3188 0.118381 14.5582 0.0211586 14.8427 0.0211586C15.1277 0.0211586 15.3743 0.125325 15.5827 0.333659C15.791 0.541992 15.8952 0.785047 15.8952 1.06283C15.8952 1.3406 15.791 1.58366 15.5827 1.79199Z" fill="url(#paint0_linear_207_3270)"/>
<defs>
<linearGradient id="paint0_linear_207_3270" x1="0.103516" y1="9.56261" x2="17.8924" y2="9.56261" gradientUnits="userSpaceOnUse">
<stop stop-color="#DC2430"/>
<stop offset="1" stop-color="#7B4397"/>
</linearGradient>
</defs>
</svg>
