<svg width="227" height="221" viewBox="0 0 227 221" fill="none" xmlns="http://www.w3.org/2000/svg">
<path d="M3.50848 104.615L13.6754 71.5144L31.9221 45.06L47.6847 27.6072L56.8016 20.5646L87.9426 7.40137H114.461H138.636L170.686 21.2176L180.072 28.6443L194.798 45.188L212.647 71.5144L222.814 103.308L226.592 135.487L222.814 160.904L202.737 189.433L179.022 205.464L148.842 216.489L113.155 220.753L77.6988 216.105L48.3377 205.631L23.8423 189.394L4.03348 160.571L0 133.668L3.50848 104.615L13.6754 71.5144L31.9221 45.06L47.6847 27.6072L56.8016 20.5646L87.9426 7.40137H138.636L170.686 21.2176L180.072 28.6443" fill="url(#paint0_linear_198_3377)"/>
<path d="M37.9727 126.889L44.1573 116.85L56.0145 104.596L68.7807 85.8374L80.1129 83.4941L93.2761 91.4458L93.0584 96.222L92.559 100.025L92.3926 100.524L89.8957 108.988L86.8866 118.425C86.8866 118.425 84.9659 123.65 83.2244 125.289C81.483 126.928 83.2244 125.289 83.2244 125.289C83.2244 125.289 79.972 131.499 77.9361 132.639C75.9001 133.765 77.9361 132.639 77.9361 132.639L73.9922 135.929L68.7807 139.399L56.0145 147.121L43.8116 138.836L37.9727 126.889L44.1573 116.85L56.0145 104.596" fill="#1A1421"/>
<path d="M188.339 126.889L182.154 116.85L170.297 104.596L157.531 85.8374L146.198 83.4941L133.035 91.4458L133.253 96.222L133.752 100.025L133.919 100.524L136.416 108.988L139.425 118.425C139.425 118.425 141.345 123.65 143.087 125.289C143.087 125.289 144.828 126.928 143.087 125.289C143.087 125.289 146.339 131.499 148.375 132.639C148.375 132.639 150.411 133.765 148.375 132.639L152.319 135.929L157.531 139.399L170.297 147.121L182.5 138.836L188.339 126.889L182.154 116.85L170.297 104.596" fill="#1A1421"/>
<path d="M86.6518 168.461L89.9042 169.767L98.637 167.949L106.819 167.629C106.819 167.629 111.211 167.232 113.17 167.27C115.129 167.309 119.521 167.629 119.521 167.629L127.704 167.949L136.436 169.767L139.689 168.461L140.995 174.326L137.41 179.998L113.17 193.584L88.931 179.998L85.3457 174.326L86.6518 168.461L89.9042 169.767L98.637 167.949" fill="#504B59"/>
<path d="M85.3368 174.319L69.5742 190.735L77.0009 194.679L88.3971 199.429L101.138 200.607L113.149 200.134L125.172 200.607L137.913 199.429L156.736 190.735L140.973 174.319L137.388 179.979L121.472 188.558L113.149 193.565L104.838 188.558L95.0812 183.385L88.9221 179.979L85.3368 174.319L69.5742 190.735L85.3368 174.319Z" fill="url(#paint1_linear_198_3377)"/>
<path d="M69.5742 190.739L73.4669 194.094L79.3826 199.203L88.077 203.621L102.751 204.594H123.559L138.233 203.621L146.927 199.203L156.736 190.739L149.309 194.683L137.913 199.434L125.172 200.612L113.149 200.138L101.138 200.612L88.3971 199.434L77.0009 194.683L69.5742 190.739Z" fill="#27292A"/>
<path d="M113.152 176.141L120.617 178.753L128.825 173.695L136.418 169.764L139.671 168.458L135.535 176.371L126.943 181.941L121.475 188.561L113.152 193.568L104.842 188.561L99.3743 181.941L90.7824 176.371L86.6465 168.458L89.8989 169.764L97.4921 173.695L105.7 178.753L113.152 176.141Z" fill="#030405"/>
<path d="M170.688 21.2167L191.738 0.754883L214.339 10.9858L222.815 28.2465L225.671 49.1054L212.648 71.5136L194.799 45.1871L180.073 28.6435L170.688 21.2167Z" fill="#272530"/>
<path d="M56.7957 20.5632L35.2326 0.818359L12.6323 11.1133L3.96352 27.6058L1.03125 49.2969L13.6695 71.513L31.9162 45.0586L47.6787 27.6058L56.7957 20.5632Z" fill="#302F3B"/>
<path d="M53.9336 51.4473L68.7998 85.8406L86.9057 60.0392L53.9336 51.4473Z" fill="#D7D3D1"/>
<path d="M39.2249 79.5919L53.9374 51.4473L68.8037 85.8406L39.2249 79.5919Z" fill="#E1DDDB"/>
<path d="M56.0372 104.617L39.2246 79.5967L68.8034 85.8454L56.0372 104.617Z" fill="#BEBFBB"/>
<path d="M29.4453 104.617H56.0278L44.1707 116.858L37.986 126.897L29.4453 104.617Z" fill="#C0C0BF"/>
<path d="M53.9298 51.4473L13.6719 71.5122L39.2172 79.5919L53.9298 51.4473Z" fill="#D9D9D9"/>
<path d="M87.9457 7.40137L56.8047 20.5646L86.9085 32.6778L87.9457 7.40137Z" fill="#E8E7E5"/>
<path d="M114.456 7.40137L86.9004 32.6778L87.9376 7.40137H114.456Z" fill="#EDEDED"/>
<path d="M138.63 7.40137L139.283 33.2028L114.455 7.40137H138.63Z" fill="#EEEEEE"/>
<path d="M86.9004 32.6778L113.24 33.2028H139.284L114.456 7.40137L86.9004 32.6778Z" fill="#E9E7E8"/>
<path d="M170.691 21.2176L139.294 33.2028L138.641 7.40137L170.691 21.2176Z" fill="#E8E7E5"/>
<path d="M113.09 33.1992H139.288L140.594 60.5628L113.09 33.1992Z" fill="#E0E0DE"/>
<path d="M173.684 51.4459L139.291 33.1992L140.597 60.5628L173.684 51.4459Z" fill="#E1E1E0"/>
<path d="M86.9027 60.0391L93.2922 91.449L80.129 83.4973L68.7969 85.8405L86.9027 60.0391Z" fill="#D9D9D9"/>
<path d="M113.088 61.9982L93.2919 91.449L86.9023 60.0391L113.088 61.9982Z" fill="#D6D6D3"/>
<path d="M133.449 91.5242L140.594 60.5625L113.09 61.9966L133.449 91.5242Z" fill="#D6D6D3"/>
<path d="M157.945 85.9158L140.594 60.5625L133.449 91.5242L146.612 83.5981L157.945 85.9158Z" fill="#D9D9D9"/>
<path d="M173.681 51.4473L157.944 85.9175L140.594 60.5642L173.681 51.4473Z" fill="#E1DDDB"/>
<path d="M187.404 79.6721L157.953 85.9207L173.728 51.5273L187.404 79.6721Z" fill="#D7D3D1"/>
<path d="M212.656 71.5122L187.38 79.5919L173.691 51.4473L212.656 71.5122Z" fill="#D9D9D9"/>
<path d="M170.732 104.681L157.953 85.9222L187.378 79.5967L170.732 104.681Z" fill="#BEBFBB"/>
<path d="M222.813 103.308L212.646 71.5137L199.227 104.614L222.813 103.308Z" fill="#CECCD1"/>
<path d="M188.763 126.974L182.411 116.858L170.721 104.681L199.224 104.617L188.763 126.974Z" fill="#C0C0BF"/>
<path d="M226.589 135.485L222.811 103.307L212.645 134.973L226.589 135.485Z" fill="#B9B8BF"/>
<path d="M196.086 156.728L212.642 134.973L188.762 126.97L196.086 156.728Z" fill="#B3B3B2"/>
<path d="M222.811 160.903L226.589 135.486L212.645 134.974L222.811 160.903Z" fill="#B0AEB3"/>
<path d="M196.098 156.729L222.821 160.903L212.654 134.974L196.098 156.729Z" fill="#A4A2A2"/>
<path d="M202.743 189.435L222.821 160.906L196.098 156.731L202.743 189.435Z" fill="#A9A9A9"/>
<path d="M170.721 147.188L182.808 138.609L188.763 126.97L196.087 156.728L170.721 147.188Z" fill="#BCBEBB"/>
<path d="M179.025 174.325L196.094 156.731L202.74 189.435L179.025 174.325Z" fill="#B4B5B5"/>
<path d="M179.025 205.46V174.319L202.74 189.429L179.025 205.46Z" fill="#ACACAC"/>
<path d="M156.746 190.735L179.026 174.319V205.46L156.746 190.735Z" fill="#B2B0B6"/>
<path d="M157.944 139.468L170.723 147.189L145.152 153.527L157.944 139.468Z" fill="#C7C6C9"/>
<path d="M196.087 156.726L179.018 174.32L170.721 147.187L196.087 156.726Z" fill="#C7C6C9"/>
<path d="M145.152 153.525L170.723 147.187L179.021 174.32L145.152 153.525Z" fill="#C3C3C3"/>
<path d="M140.977 174.319H179.019L156.739 190.735L140.977 174.319Z" fill="#BBB9BE"/>
<path d="M145.152 153.53L139.672 168.461L140.978 174.325H179.021L145.152 153.53Z" fill="#CECCD1"/>
<path d="M127.684 167.936L145.149 153.53L139.669 168.461L136.416 169.767L127.684 167.936Z" fill="#DEDDE1"/>
<path d="M113.097 99.9147L93.3008 91.4508L113.097 62L133.456 91.5276L113.097 99.9147Z" fill="#CFCDCD"/>
<path d="M86.9023 118.419L113.088 99.9161L93.2791 91.4521C93.2791 91.4521 93.5352 97.8417 91.32 104.615C89.1176 111.389 86.9023 118.419 86.9023 118.419Z" fill="#D3D1D5"/>
<path d="M133.445 91.5303C133.445 91.5303 133.547 98.9058 135.621 104.937C137.606 110.686 139.821 118.497 139.821 118.497L113.072 99.9174L133.445 91.5303Z" fill="#D3D1D5"/>
<path d="M113.086 126.371L86.9004 118.419L113.086 99.916L139.835 118.496L113.086 126.371Z" fill="#DCDBE0"/>
<path d="M68.7969 139.404L113.101 126.369L86.9155 118.417C86.9155 118.417 82.4851 127.534 79.2327 131.311C75.9803 135.089 68.7969 139.404 68.7969 139.404Z" fill="#DDDDE4"/>
<path d="M158.047 139.535L113.09 126.372L139.839 118.497C139.839 118.497 142.477 123.568 146.971 129.496C151.465 135.425 158.047 139.535 158.047 139.535Z" fill="#DEDDE2"/>
<path d="M81.4375 153.525H145.154L113.091 126.366L81.4375 153.525Z" fill="#DDDCE1"/>
<path d="M158.047 139.529L145.153 153.525L113.09 126.366L158.047 139.529Z" fill="#DAD9DE"/>
<path d="M81.4351 153.525L113.088 126.366L68.7969 139.401L81.4351 153.525Z" fill="#DAD9DD"/>
<path d="M127.687 167.936L113.09 153.53H145.153L127.687 167.936Z" fill="#D0D0D3"/>
<path d="M98.6367 167.936L113.106 153.53L127.703 167.936C127.703 167.936 116.141 167.411 113.503 167.411C110.852 167.411 98.6367 167.936 98.6367 167.936Z" fill="#D9DBDC"/>
<path d="M81.4375 153.53L98.6342 167.936L113.091 153.53H81.4375Z" fill="#D0D0D3"/>
<path d="M86.649 168.461L81.4375 153.53L98.6342 167.936L89.9014 169.767L86.649 168.461Z" fill="#DEDDE2"/>
<path d="M13.6747 71.5137L3.50781 104.614H29.4373L13.6747 71.5137Z" fill="#CECCD1"/>
<path d="M37.9752 126.897L13.6719 134.977L29.4344 104.617L37.9752 126.897Z" fill="#CAC8C8"/>
<path d="M3.50781 104.617L13.6747 134.977L29.4373 104.617H3.50781Z" fill="#C8C6CC"/>
<path d="M0 133.671L3.50848 104.617L13.6754 134.977L0 133.671Z" fill="#BAB8BD"/>
<path d="M4.03348 160.574L0 133.671L13.6754 134.977L4.03348 160.574Z" fill="#B0AEB3"/>
<path d="M30.6138 156.204L13.6732 134.974L4.03125 160.57L30.6138 156.204Z" fill="#A4A2A2"/>
<path d="M37.9752 126.898L30.6125 156.208L13.6719 134.978L37.9752 126.898Z" fill="#B3B3B2"/>
<path d="M56.0217 147.117L30.6172 156.208L37.9799 126.898L43.8188 138.832L56.0217 147.117Z" fill="#BCBEBB"/>
<path d="M23.8401 189.396L4.03125 160.572L30.6138 156.206L23.8401 189.396Z" fill="#A9A9A9"/>
<path d="M47.7167 174.325L30.6096 156.206L23.8359 189.396L47.7167 174.325Z" fill="#B4B5B5"/>
<path d="M56.0293 147.113L81.4466 153.528L68.8084 139.404L56.0293 147.113Z" fill="#C7C6C9"/>
<path d="M47.7243 174.324L56.0217 147.114L30.6172 156.206L47.7243 174.324Z" fill="#C7C6C9"/>
<path d="M81.4374 153.529L47.7227 174.324L56.0201 147.114L81.4374 153.529Z" fill="#C3C3C3"/>
<path d="M85.3428 174.325H47.7227L81.4374 153.53L86.6489 168.461L85.3428 174.325Z" fill="#CECCD1"/>
<path d="M69.5802 190.735L47.7227 174.319H85.3428L69.5802 190.735Z" fill="#BBB9BE"/>
<path d="M48.3373 205.627L69.5802 190.735L47.7227 174.319L48.3373 205.627Z" fill="#B2B0B6"/>
<path d="M23.8359 189.39L47.7167 174.319L48.3313 205.627L23.8359 189.39Z" fill="#ACACAC"/>
<path d="M77.7049 216.105L48.3438 205.631L69.5867 190.739L77.7049 216.105Z" fill="#A4A2A7"/>
<path d="M179.019 205.465L148.838 216.489L156.738 190.739L179.019 205.465Z" fill="#A4A1A7"/>
<path d="M123.57 204.594L148.847 216.489L156.747 190.739L146.939 199.203L138.244 203.621L123.57 204.594Z" fill="#9C9A9C"/>
<path d="M113.152 220.755L123.563 204.596L148.839 216.491L113.152 220.755Z" fill="#A4A1A3"/>
<path d="M113.152 204.596H123.563L113.152 220.755V204.596Z" fill="#99999B"/>
<path d="M77.7031 216.107L102.762 204.596L113.159 220.755L77.7031 216.107Z" fill="#A4A1A3"/>
<path d="M69.5742 190.739L79.3826 199.203L88.077 203.621L102.751 204.594L77.6924 216.105L69.5742 190.739Z" fill="#9C9A9C"/>
<path d="M170.688 21.2167L191.738 0.754883L197.923 18.7455L170.688 21.2167Z" fill="#423E4F"/>
<path d="M214.331 10.9858L191.73 0.754883L197.915 18.7455L214.331 10.9858Z" fill="#333241"/>
<path d="M222.818 28.2432L214.341 10.9824L197.926 18.7421L222.818 28.2432Z" fill="#21202C"/>
<path d="M180.073 28.6461L197.923 18.748L170.688 21.2193L180.073 28.6461Z" fill="#343342"/>
<path d="M194.797 45.1857L222.814 28.2451L225.669 49.1039L194.797 45.1857Z" fill="#1D1B2D"/>
<path d="M197.921 18.748L194.797 45.1897L222.814 28.2491L197.921 18.748Z" fill="#272530"/>
<path d="M180.074 28.6461L197.924 18.748L194.8 45.1897L180.074 28.6461Z" fill="#302F3B"/>
<path d="M225.669 49.1077L212.647 71.5159L194.797 45.1895L225.669 49.1077Z" fill="#0A0B0D"/>
<path d="M56.7931 20.5632L35.2301 0.818359L28.6484 18.476L56.7931 20.5632Z" fill="#423E4F"/>
<path d="M12.6406 11.1133L35.2409 0.818359L28.6593 18.476L12.6406 11.1133Z" fill="#333241"/>
<path d="M47.6762 27.6083L28.6484 18.4785L56.7931 20.5657L47.6762 27.6083Z" fill="#343342"/>
<path d="M31.9136 45.0611L28.6484 18.4785L47.6762 27.6083L31.9136 45.0611Z" fill="#302F3B"/>
<path d="M12.6375 11.1182L3.96875 27.6106L28.6562 18.4809L12.6375 11.1182Z" fill="#21202C"/>
<path d="M31.9214 45.0611L3.96875 27.6083L28.6562 18.4785L31.9214 45.0611Z" fill="#272530"/>
<path d="M1.03125 49.3015L3.96352 27.6104L31.9162 45.0631L1.03125 49.3015Z" fill="#1D1B2D"/>
<path d="M13.6695 71.5169L1.03125 49.3008L31.9162 45.0625L13.6695 71.5169Z" fill="#0A0B0D"/>
<path d="M77.2598 89.538L80.128 83.4941L87.1834 87.7581L77.2598 89.538Z" fill="#4D4B61"/>
<path d="M81.6902 96.2227L77.2598 89.5387L87.1834 87.7588L81.6902 96.2227Z" fill="#464355"/>
<path d="M84.867 101.473L87.1846 87.7588L81.6914 96.2227L84.867 101.473Z" fill="#373547"/>
<path d="M93.2934 91.4465C93.2934 91.4465 93.1013 99.0397 92.4099 100.525C92.4099 100.525 91.6416 97.5288 90.4251 94.2124C89.5672 91.8947 88.53 89.4106 87.1855 87.7588L93.2934 91.4465Z" fill="#23222B"/>
<path d="M84.8691 101.478L92.4239 100.517C92.4239 100.517 89.7862 89.979 87.1996 87.751L84.8691 101.478Z" fill="#27252F"/>
<path d="M83.8203 106.499L84.8575 101.48L92.4122 100.52C92.4122 100.52 90.7989 107.127 89.9153 108.983L83.8203 106.499Z" fill="#18171D"/>
<path d="M71.8145 94.7702L72.1346 90.3782L77.2436 89.5459L81.6741 96.2299C81.6741 96.2299 77.9223 93.2464 76.104 93.1824C74.2858 93.1184 71.8145 94.7702 71.8145 94.7702Z" fill="#454156"/>
<path d="M68.8027 85.8457L66.0625 99.9181L71.8246 94.7706L72.1575 90.3786L68.8027 85.8457Z" fill="#302B3C"/>
<path d="M55.6309 115.757L62.1741 106.96L56.015 104.617L55.6309 115.757Z" fill="#313241"/>
<path d="M44.1643 116.858L55.6373 115.757L56.0214 104.617L44.1643 116.858Z" fill="#1E1F29"/>
<path d="M37.9727 126.898L48.7926 123.543L55.6303 115.758L44.1573 116.859L37.9727 126.898Z" fill="#121015"/>
<path d="M62.176 106.96L63.29 113.99L55.6328 115.757L62.176 106.96Z" fill="#3D3C4F"/>
<path d="M60.6503 121.541L55.6309 115.753L63.2881 113.986L60.6503 121.541Z" fill="#30313D"/>
<path d="M57.8172 128.038L48.8027 123.543L55.6404 115.758L57.8172 128.038Z" fill="#181720"/>
<path d="M43.8164 138.824L68.7983 139.4L56.0193 147.109L43.8164 138.824Z" fill="#030505"/>
<path d="M48.7926 123.539L43.8116 138.828L37.9727 126.894L48.7926 123.539Z" fill="#070809"/>
<path d="M57.8119 128.034L43.8164 138.828L48.7974 123.539L57.8119 128.034Z" fill="#0C0C10"/>
<path d="M68.7983 139.404L57.8119 128.033L43.8164 138.828L68.7983 139.404Z" fill="#110F16"/>
<path d="M69.4717 124.444L68.7931 139.4L57.8066 128.03L69.4717 124.444Z" fill="#15121E"/>
<path d="M60.6503 121.546L57.8077 128.038L55.6309 115.758L60.6503 121.546Z" fill="#1F1E2C"/>
<path d="M69.4717 124.445L60.6493 121.538L57.8066 128.03L69.4717 124.445Z" fill="#1B1926"/>
<path d="M63.2862 113.986L69.8934 117.764L60.6484 121.541L63.2862 113.986Z" fill="#23242E"/>
<path d="M69.4709 124.451L69.8934 117.767L60.6484 121.544L69.4709 124.451Z" fill="#221C2F"/>
<path d="M77.9522 132.627L69.4755 124.444L68.7969 139.4C68.7969 139.4 72.6255 137.428 77.9522 132.627Z" fill="#13121A"/>
<path d="M83.2455 125.289L69.4805 124.444L77.9572 132.627C77.9572 132.627 79.8907 131.564 83.2455 125.289Z" fill="#0E0D17"/>
<path d="M82.6289 109.924L89.9148 108.977L86.9057 118.414L82.6289 109.924Z" fill="#403C53"/>
<path d="M83.8198 106.5L82.6289 109.932L89.9148 108.984L83.8198 106.5Z" fill="#2F2E39"/>
<path d="M78.293 114.948L82.6338 109.929L86.9105 118.418L78.293 114.948Z" fill="#4C495F"/>
<path d="M83.2475 125.293L78.2793 114.947L86.8968 118.417C86.9096 118.417 85.8469 121.772 83.2475 125.293Z" fill="#261F33"/>
<path d="M69.903 117.764L78.2901 114.947L69.4805 124.448L69.903 117.764Z" fill="#191526"/>
<path d="M83.2455 125.293L69.4805 124.448L78.2901 114.947L83.2455 125.293Z" fill="#11101F"/>
<path d="M71.0996 102.126L75.7989 101.64L78.9489 104.149L75.8886 106.07L71.0996 102.126Z" fill="#D6CEE7"/>
<path d="M70.5762 99.0452L71.1012 102.131L75.8005 101.645L76.7608 99.7238L74.6225 98.3281L70.5762 99.0452Z" fill="#0B0B12"/>
<path d="M83.8237 106.493L84.8609 101.474L81.6853 96.2241C81.6853 96.2241 78.3305 93.2406 76.1153 93.1766C73.9001 93.1126 71.8129 94.7772 71.8129 94.7772L66.0508 99.9247V101.986L66.1532 103.728L66.2044 104.342C66.2044 104.342 68.791 99.1436 72.2739 96.8644C75.7567 94.5851 80.4945 98.5802 81.8133 101.064C83.3371 103.869 83.8237 106.493 83.8237 106.493Z" fill="#050607"/>
<path d="M71.0992 102.131L68.6279 106.959L67.2578 103.604C67.2578 103.604 69.3578 99.1348 70.523 98.3281L71.0992 102.131Z" fill="#1D1A39"/>
<path d="M82.6297 109.926C82.6297 109.926 80.5042 101.641 76.7652 99.7203L74.4476 98.3503L70.5933 99.0289L67.2769 103.587L67.0977 102.781L68.7495 100.143L70.5421 97.7868L74.1018 95.5332L78.4938 97.1594C78.4938 97.1594 83.1804 100.527 83.859 106.494L82.6297 109.926Z" fill="#5D5A71"/>
<path d="M66.0517 99.916L62.1719 106.959L63.2731 113.988L69.8803 117.766L78.2674 114.949C78.2674 114.949 74.1443 114.539 70.7254 112.785C67.2425 110.992 66.7303 109.02 66.3974 106.37C66.0133 103.245 66.0517 99.916 66.0517 99.916Z" fill="#0B0B0E"/>
<path d="M76.7611 99.7266L75.8008 101.647L78.9635 104.157L76.5947 105.642L82.6257 109.932C82.6257 109.932 81.3708 105.066 80.0775 103.043C78.2849 100.226 76.7611 99.7266 76.7611 99.7266Z" fill="#1B1731"/>
<path d="M53.9336 51.4484L86.9057 32.6768V60.0404L53.9336 51.4484Z" fill="#E1E1E0"/>
<path d="M113.088 33.2018L86.9023 32.6768V60.0404L113.088 33.2018Z" fill="#E0E0DE"/>
<path d="M56.8019 20.5664L53.9336 51.4513L86.9057 32.6796L56.8019 20.5664Z" fill="#E0DFDD"/>
<path d="M31.9186 45.0625L53.9298 51.452L13.6719 71.5169L31.9186 45.0625Z" fill="#E1E1E0"/>
<path d="M56.7994 20.5664L47.6825 27.609L31.9199 45.0618L53.9312 51.4513L56.7994 20.5664Z" fill="#E1E1E0"/>
<path d="M170.688 21.2178L173.684 51.4497L139.291 33.203L170.688 21.2178Z" fill="#E0DFDD"/>
<path d="M194.806 45.1895L212.656 71.5159L173.691 51.451L194.806 45.1895Z" fill="#E1E1E0"/>
<path d="M170.688 21.2178L180.073 28.6445L194.799 45.1882L173.684 51.4497L170.688 21.2178Z" fill="#DFDFDE"/>
<path d="M113.088 33.1992V61.9969L86.9023 60.0378L113.088 33.1992Z" fill="#DAD9D7"/>
<path d="M140.594 60.5628L113.09 33.1992V61.9969L140.594 60.5628Z" fill="#DBDBD9"/>
<path d="M13.6719 71.5137L29.4344 104.614L39.2172 79.5934L13.6719 71.5137Z" fill="#D1D0D1"/>
<path d="M56.0278 104.617L39.2281 79.5967L29.4453 104.617H56.0278Z" fill="#D1CFD0"/>
<path d="M187.363 79.5934L199.22 104.614L212.64 71.5137L187.363 79.5934Z" fill="#D1D0D1"/>
<path d="M170.721 104.681L187.367 79.5967L199.224 104.617L170.721 104.681Z" fill="#D1CFD0"/>
<path d="M199.229 104.613L212.648 134.973L222.815 103.307L199.229 104.613Z" fill="#C8C6CC"/>
<path d="M188.762 126.974L199.223 104.617L212.642 134.977L188.762 126.974Z" fill="#CAC8C8"/>
<path d="M68.7969 85.8374L77.2608 89.538L80.129 83.4941L68.7969 85.8374Z" fill="#403B4E"/>
<path d="M72.1517 90.3786L68.7969 85.8457L77.2608 89.5463L72.1517 90.3786Z" fill="#393445"/>
<path d="M68.7998 85.8457L66.0596 99.9181L63.6523 93.4133L68.7998 85.8457Z" fill="#27242A"/>
<path d="M56.0293 104.611L60.6646 97.8115L62.1883 106.954L56.0293 104.611Z" fill="#1A1421"/>
<path d="M66.052 99.9115L60.6484 97.8115L62.1722 106.954L66.052 99.9115Z" fill="#0E0D12"/>
<path d="M63.6447 93.4131L60.6484 97.8179L66.052 99.9179L63.6447 93.4131Z" fill="#21202C"/>
<path d="M72.1484 90.3794L76.1238 93.1879L77.2651 89.5459L72.1484 90.3794Z" fill="#443E52"/>
<path d="M81.6872 96.2299L77.2568 89.5459L76.1172 93.1824C76.1172 93.1824 78.1916 92.8879 81.6872 96.2299Z" fill="#383143"/>
<path d="M55.6347 115.757L50.2952 110.52L56.0189 104.617L55.6347 115.757Z" fill="#252632"/>
<path d="M74.0703 95.5332L74.4294 98.3545L76.7633 99.7266L78.4561 97.1618L74.0703 95.5332Z" fill="#6F6783"/>
<path d="M70.5727 99.0408V97.8115L69.0618 99.8347L67.3203 103.458L70.5727 99.0408Z" fill="#6F6783"/>
<path d="M71.11 102.132L68.6387 106.959L69.535 110.532L72.3008 112.337L76.1038 113.374H78.6519L82.6342 109.93L76.6032 105.64L75.8989 106.076L71.11 102.132Z" fill="#0D0C16"/>
<path d="M80.6758 104.139L82.6477 102.385C82.6477 102.385 83.6849 104.395 83.8385 106.495L82.6477 109.927C82.6349 109.927 81.1368 104.741 80.6758 104.139Z" fill="#4A4460"/>
<path d="M67.079 102.799C67.079 102.799 66.7071 103.402 66.5917 103.594C66.4763 103.786 66.207 104.351 66.207 104.351C66.207 104.351 66.3866 107.082 66.6174 107.685L68.6307 106.967L67.3227 103.466L67.079 102.799Z" fill="#241F43"/>
<path d="M66.6211 107.678L68.6344 106.96L69.6603 110.268L68.955 111.666C68.955 111.666 67.1469 110.73 66.6211 107.678Z" fill="#777095"/>
<path d="M72.897 113.707C72.897 113.707 70.2336 112.9 68.9531 111.658L69.6574 110.263L72.3592 112.081L75.6244 112.747L72.897 113.707Z" fill="#A1A0B9"/>
<path d="M78.2853 114.944C78.2853 114.944 75.4683 114.778 72.8945 113.702L75.6219 112.729C75.6219 112.729 78.8487 112.806 79.2073 112.626C79.5786 112.434 82.6133 109.938 82.6133 109.938L78.2853 114.944Z" fill="#B7B2D9"/>
<path d="M102.75 204.596L113.147 204.608V220.755L102.75 204.596Z" fill="#99999B"/>
<path d="M125.184 200.612L123.57 204.594L137.924 199.434L125.184 200.612Z" fill="#1D2724"/>
<path d="M120.617 178.749L119.516 167.609L113.152 176.137L120.617 178.749Z" fill="#736E84"/>
<path d="M128.829 173.692L119.52 167.609L120.621 178.749L128.829 173.692Z" fill="#615C71"/>
<path d="M127.689 167.929L119.52 167.609L128.829 173.692L127.689 167.929Z" fill="#504B59"/>
<path d="M136.416 169.758L128.823 173.689L127.684 167.927L136.416 169.758Z" fill="#3C3943"/>
<path d="M139.663 168.459L135.527 176.372L136.411 169.765L139.663 168.459Z" fill="#030505"/>
<path d="M128.824 173.692L135.534 176.368L136.417 169.761L128.824 173.692Z" fill="#201C27"/>
<path d="M126.938 181.939L128.82 173.692L135.529 176.369L126.938 181.939Z" fill="#110E16"/>
<path d="M139.669 168.459L135.533 176.372L126.941 181.942L122.664 187.807L128.99 182.787L136.25 178.587L139.669 168.459Z" fill="#5C5B62"/>
<path d="M140.974 174.324L139.668 168.459L136.249 178.587L128.989 182.787L121.473 188.562L130.09 184.029L137.389 179.983L140.974 174.324Z" fill="#2A292E"/>
<path d="M126.941 181.939L120.615 178.75L128.823 173.692L126.941 181.939Z" fill="#0C0E10"/>
<path d="M117.352 184.625L121.475 188.556L113.152 193.563L117.352 184.625Z" fill="#030405"/>
<path d="M121.475 188.557L116.943 196.47L113.152 193.563L121.475 188.557Z" fill="#4C4D52"/>
<path d="M125.183 200.606L116.949 196.47L133.454 192.193L125.183 200.606Z" fill="#5A5F64"/>
<path d="M121.482 188.557L133.454 192.193L116.949 196.47L121.482 188.557Z" fill="#696D73"/>
<path d="M113.152 200.135L116.943 196.473L125.176 200.609L113.152 200.135Z" fill="#3B3B41"/>
<path d="M123.563 204.59L113.152 200.134V204.603L123.563 204.59Z" fill="#181915"/>
<path d="M137.917 199.427L125.176 200.605L113.152 200.131L123.563 204.587L137.917 199.427Z" fill="#27292A"/>
<path d="M133.444 192.193L137.913 199.428L125.172 200.606L133.444 192.193Z" fill="#73767D"/>
<path d="M131.23 183.388L133.445 192.197L121.473 188.561L122.664 187.805L131.23 183.388Z" fill="#7D8187"/>
<path d="M140.974 174.318L142.728 187.469L137.389 179.978L140.974 174.318Z" fill="#ACADB7"/>
<path d="M131.225 183.387L137.384 179.98L142.723 187.471L131.225 183.387Z" fill="#AEB6C0"/>
<path d="M133.44 192.197L142.723 187.472L131.225 183.388L133.44 192.197Z" fill="#9EA2AC"/>
<path d="M140.977 174.318L142.731 187.469L156.739 190.734L140.977 174.318Z" fill="#A0A3A9"/>
<path d="M149.304 194.678L156.731 190.734L142.723 187.469L149.304 194.678Z" fill="#7C868A"/>
<path d="M133.449 192.194L142.733 187.469L149.314 194.678L133.449 192.194Z" fill="#A7A9B5"/>
<path d="M137.918 199.428L149.314 194.677L133.449 192.193L137.918 199.428Z" fill="#94969E"/>
<path d="M123.555 204.587L138.229 203.614L146.923 199.196L156.732 190.732L149.305 194.676L137.909 199.427L123.555 204.587Z" fill="#080A0B"/>
<path d="M126.94 181.941L128.989 182.787L121.473 188.561L126.94 181.941Z" fill="#2A242D"/>
<path d="M113.191 185.729L113.152 176.138L119.503 167.61C119.503 167.61 116.341 167.252 113.152 167.252V176.241" fill="#696379"/>
<path d="M113.152 193.566V200.135L116.943 196.473L113.152 193.566Z" fill="#333235"/>
<path d="M156.738 190.732L152.84 192.797V194.092L156.738 190.732Z" fill="#535B5C"/>
<path d="M149.309 194.679L147.184 198.982L152.843 194.09V192.797L149.309 194.679Z" fill="#212D2D"/>
<path d="M138.244 203.616L149.32 194.679L147.195 198.981L138.244 203.616Z" fill="#0F1917"/>
<path d="M126.973 181.91L121.467 188.556L117.344 184.625L126.973 181.91Z" fill="#171618"/>
<path d="M113.152 193.563V185.739L117.352 184.625L115.432 188.761L113.152 193.563Z" fill="#0B0C0F"/>
<path d="M125.176 200.608L123.563 204.59L113.152 200.134L125.176 200.608Z" fill="#26262D"/>
<path d="M117.344 184.627L120.609 178.75L126.934 181.938L117.344 184.627Z" fill="#030405"/>
<path d="M113.152 176.138L117.352 184.627L120.617 178.75L113.152 176.138Z" fill="#0C0E10"/>
<path d="M113.152 176.138V185.741L117.352 184.627L113.152 176.138Z" fill="#030405"/>
<path d="M105.703 178.749L106.804 167.609L113.155 176.137L105.703 178.749Z" fill="#736E84"/>
<path d="M97.4941 173.692L106.803 167.609L105.702 178.749L97.4941 173.692Z" fill="#615C71"/>
<path d="M98.6338 167.929L106.803 167.609L97.4941 173.692L98.6338 167.929Z" fill="#504B59"/>
<path d="M89.9023 169.758L97.4955 173.689L98.6351 167.927L89.9023 169.758Z" fill="#3C3943"/>
<path d="M86.6445 168.459L90.7804 176.372L89.8969 169.765L86.6445 168.459Z" fill="#030505"/>
<path d="M97.4955 173.692L90.7859 176.368L89.9023 169.761L97.4955 173.692Z" fill="#201C27"/>
<path d="M99.3693 181.939L97.487 173.692L90.7773 176.369L99.3693 181.939Z" fill="#110E16"/>
<path d="M86.6445 168.459L90.7804 176.372L99.3724 181.942L103.649 187.807L97.3236 182.787L90.0634 178.587L86.6445 168.459Z" fill="#5C5B62"/>
<path d="M85.3438 174.324L86.6498 168.459L90.0687 178.587L97.3289 182.787L104.845 188.562L96.2277 184.029L88.9291 179.983L85.3438 174.324Z" fill="#2A292E"/>
<path d="M99.3745 181.939L105.7 178.75L97.4922 173.692L99.3745 181.939Z" fill="#0C0E10"/>
<path d="M108.971 184.625L104.848 188.556L113.158 193.563L108.971 184.625Z" fill="#030405"/>
<path d="M104.848 188.557L109.381 196.47L113.158 193.563L104.848 188.557Z" fill="#4C4D52"/>
<path d="M101.143 200.606L109.376 196.47L92.8711 192.193L101.143 200.606Z" fill="#5A5F64"/>
<path d="M104.843 188.557L92.8711 192.193L109.376 196.47L104.843 188.557Z" fill="#696D73"/>
<path d="M113.159 200.135L109.382 196.473L101.148 200.609L113.159 200.135Z" fill="#3B3B41"/>
<path d="M102.748 204.59L113.145 200.134V204.603L102.748 204.59Z" fill="#181915"/>
<path d="M88.3945 199.427L101.135 200.605L113.146 200.131L102.749 204.587L88.3945 199.427Z" fill="#27292A"/>
<path d="M92.8634 192.193L88.3945 199.428L101.135 200.606L92.8634 192.193Z" fill="#73767D"/>
<path d="M95.0863 183.388L92.8711 192.197L104.843 188.561L103.653 187.805L95.0863 183.388Z" fill="#7D8187"/>
<path d="M85.3343 174.318L83.5801 187.469L88.9196 179.978L85.3343 174.318Z" fill="#ACADB7"/>
<path d="M95.0787 183.387L88.9196 179.98L83.5801 187.471L95.0787 183.387Z" fill="#AEB6C0"/>
<path d="M92.8635 192.197L83.5801 187.472L95.0787 183.388L92.8635 192.197Z" fill="#9EA2AC"/>
<path d="M85.3368 174.318L83.5826 187.469L69.5742 190.734L85.3368 174.318Z" fill="#A0A3A9"/>
<path d="M77.0009 194.678L69.5742 190.734L83.5826 187.469L77.0009 194.678Z" fill="#7C868A"/>
<path d="M92.8726 192.194L83.5892 187.469L77.0076 194.678L92.8726 192.194Z" fill="#A7A9B5"/>
<path d="M88.4037 199.428L77.0076 194.677L92.8726 192.193L88.4037 199.428Z" fill="#94969E"/>
<path d="M102.751 204.587L88.077 203.614L79.3826 199.196L69.5742 190.732L77.0009 194.676L88.3971 199.427L102.751 204.587Z" fill="#080A0B"/>
<path d="M99.3671 181.941L97.3184 182.787L104.835 188.561L99.3671 181.941Z" fill="#2A242D"/>
<path d="M113.113 185.729L113.152 176.138L106.801 167.61C106.801 167.61 109.964 167.252 113.152 167.252V176.241" fill="#696379"/>
<path d="M113.148 193.566V200.135L109.371 196.473L113.148 193.566Z" fill="#333235"/>
<path d="M69.5742 190.732L73.4727 192.797V194.092L69.5742 190.732Z" fill="#535B5C"/>
<path d="M76.9989 194.679L79.1245 198.982L73.4648 194.09V192.797L76.9989 194.679Z" fill="#212D2D"/>
<path d="M88.0836 203.616L77.0076 194.679L79.1332 198.981L88.0836 203.616Z" fill="#0F1917"/>
<path d="M99.334 181.91L104.84 188.556L108.963 184.625L99.334 181.91Z" fill="#171618"/>
<path d="M113.146 193.563V185.739L108.959 184.625L110.841 188.671L113.146 193.563Z" fill="#0B0C0F"/>
<path d="M101.148 200.608L102.762 204.59L113.159 200.134L101.148 200.608Z" fill="#26262D"/>
<path d="M108.958 184.627L105.693 178.75L99.3672 181.938L108.958 184.627Z" fill="#030405"/>
<path d="M113.155 176.138L108.968 184.627L105.703 178.75L113.155 176.138Z" fill="#0C0E10"/>
<path d="M113.146 176.138V185.741L108.959 184.627L113.146 176.138Z" fill="#030405"/>
<path d="M75.7539 101.64L75.8565 106.077L78.9214 104.153L75.7539 101.64Z" fill="#9A93B0"/>
<path d="M72.8633 101.947V103.602L75.8641 106.077L75.7615 101.64L72.8633 101.947Z" fill="#B8B3CD"/>
<path d="M149.467 89.5662L146.611 83.5352L139.543 87.7991L149.467 89.5662Z" fill="#4D4B61"/>
<path d="M145.036 96.2499L149.467 89.5659L139.543 87.7988L145.036 96.2499Z" fill="#464355"/>
<path d="M141.874 101.513L139.543 87.7988L145.036 96.2499L141.874 101.513Z" fill="#373547"/>
<path d="M133.445 91.4719C133.445 91.4719 133.637 99.0651 134.329 100.55C134.329 100.55 135.097 97.5541 136.314 94.2377C137.171 91.9201 138.209 89.436 139.553 87.7842L133.445 91.4719Z" fill="#23222B"/>
<path d="M141.875 101.511L134.32 100.55C134.32 100.55 136.958 90.0122 139.545 87.7842L141.875 101.511Z" fill="#27252F"/>
<path d="M142.912 106.532L141.875 101.512L134.32 100.552C134.32 100.552 135.934 107.159 136.817 109.016L142.912 106.532Z" fill="#18171D"/>
<path d="M154.913 94.8024L154.592 90.4104L149.483 89.5781L145.053 96.2622C145.053 96.2622 148.805 93.2787 150.623 93.2147C152.441 93.1378 154.913 94.8024 154.913 94.8024Z" fill="#454156"/>
<path d="M157.937 85.877L160.677 99.9493L154.902 94.8018L154.582 90.397L157.937 85.877Z" fill="#302B3C"/>
<path d="M171.099 115.782L164.543 106.985L170.702 104.642L171.099 115.782Z" fill="#313241"/>
<path d="M182.56 116.896L171.1 115.782L170.703 104.642L182.56 116.896Z" fill="#1E1F29"/>
<path d="M188.759 126.914L177.939 123.559L171.102 115.773L182.562 116.887L188.759 126.914Z" fill="#121015"/>
<path d="M164.545 106.983L163.443 114.026L171.101 115.78L164.545 106.983Z" fill="#3D3C4F"/>
<path d="M166.081 121.581L171.101 115.781L163.443 114.026L166.081 121.581Z" fill="#30313D"/>
<path d="M168.908 128.053L177.936 123.559L171.098 115.773L168.908 128.053Z" fill="#181720"/>
<path d="M182.903 138.864L157.934 139.428L170.7 147.149L182.903 138.864Z" fill="#030505"/>
<path d="M177.943 123.563L182.912 138.865L188.763 126.918L177.943 123.563Z" fill="#070809"/>
<path d="M168.908 128.058L182.904 138.865L177.936 123.563L168.908 128.058Z" fill="#0C0C10"/>
<path d="M157.934 139.428L168.907 128.058L182.903 138.865L157.934 139.428Z" fill="#110F16"/>
<path d="M157.252 124.469L157.943 139.425L168.917 128.054L157.252 124.469Z" fill="#15121E"/>
<path d="M166.08 121.574L168.91 128.053L171.1 115.773L166.08 121.574Z" fill="#1F1E2C"/>
<path d="M157.252 124.473L166.087 121.579L168.917 128.058L157.252 124.473Z" fill="#1B1926"/>
<path d="M163.442 114.026L156.822 117.804L166.08 121.581L163.442 114.026Z" fill="#23242E"/>
<path d="M157.245 124.469L156.822 117.798L166.08 121.575L157.245 124.469Z" fill="#221C2F"/>
<path d="M148.77 132.667L157.246 124.484L157.925 139.44C157.938 139.427 154.109 137.468 148.77 132.667Z" fill="#13121A"/>
<path d="M143.48 125.314L157.246 124.469L148.769 132.651C148.769 132.664 146.848 131.601 143.48 125.314Z" fill="#0E0D17"/>
<path d="M144.113 109.964L136.814 109.017L139.824 118.454L144.113 109.964Z" fill="#403C53"/>
<path d="M142.908 106.531L144.111 109.963L136.812 109.015L142.908 106.531Z" fill="#2F2E39"/>
<path d="M148.462 114.968L144.122 109.961L139.832 118.45L148.462 114.968Z" fill="#4C495F"/>
<path d="M143.481 125.319L148.45 114.973L139.832 118.443C139.819 118.456 140.882 121.81 143.481 125.319Z" fill="#261F33"/>
<path d="M156.827 117.803L148.453 114.973L157.25 124.474L156.827 117.803Z" fill="#191526"/>
<path d="M143.48 125.319L157.246 124.474L148.449 114.973L143.48 125.319Z" fill="#11101F"/>
<path d="M155.619 102.165L150.932 101.679L147.77 104.176L150.83 106.109L155.619 102.165Z" fill="#D6CEE7"/>
<path d="M156.149 99.0686L155.624 102.167L150.937 101.681L149.977 99.76L152.115 98.3516L156.149 99.0686Z" fill="#0B0B12"/>
<path d="M142.916 106.533L141.879 101.513L145.054 96.2632C145.054 96.2632 148.409 93.2797 150.625 93.2157C152.84 93.1516 154.927 94.8163 154.927 94.8163L160.689 99.9637V102.025L160.587 103.767L160.535 104.381C160.535 104.381 157.949 99.1827 154.466 96.9034C150.983 94.6242 146.245 98.6193 144.926 101.103C143.415 103.895 142.916 106.533 142.916 106.533Z" fill="#050607"/>
<path d="M155.615 102.163L158.086 106.991L159.456 103.636C159.456 103.636 157.356 99.167 156.191 98.3604L155.615 102.163Z" fill="#1D1A39"/>
<path d="M144.108 109.965C144.108 109.965 146.234 101.68 149.973 99.7594L152.29 98.3893L156.145 99.068L159.461 103.626L159.64 102.82L157.988 100.182L156.196 97.8259L152.636 95.5723L148.244 97.1984C148.244 97.1984 143.558 100.566 142.879 106.533L144.108 109.965Z" fill="#5D5A71"/>
<path d="M160.684 99.9492L164.564 106.979L163.463 114.022L156.856 117.799L148.469 114.982C148.469 114.982 152.592 114.572 156.011 112.818C159.494 111.025 160.006 109.053 160.339 106.403C160.723 103.278 160.684 99.9492 160.684 99.9492Z" fill="#0B0B0E"/>
<path d="M149.984 99.7568L150.944 101.678L147.781 104.187L150.15 105.673L144.119 109.962C144.119 109.962 145.374 105.096 146.667 103.073C148.46 100.256 149.984 99.7568 149.984 99.7568Z" fill="#1B1731"/>
<path d="M157.943 85.8784L149.467 89.5662L146.611 83.5352L157.943 85.8784Z" fill="#403B4E"/>
<path d="M154.591 90.397L157.945 85.877L149.469 89.5647L154.591 90.397Z" fill="#393445"/>
<path d="M157.934 85.877L160.674 99.9493L163.081 93.4317L157.934 85.877Z" fill="#27242A"/>
<path d="M170.702 104.635L166.08 97.8359L164.543 106.979L170.702 104.635Z" fill="#1A1421"/>
<path d="M160.68 99.9487L166.083 97.8359L164.547 106.979L160.68 99.9487Z" fill="#0E0D12"/>
<path d="M163.087 93.4375L166.083 97.8423L160.68 99.9551L163.087 93.4375Z" fill="#21202C"/>
<path d="M145.039 96.2544L149.469 89.5703L150.609 93.2068C150.622 93.2068 148.548 92.9251 145.039 96.2544Z" fill="#383143"/>
<path d="M171.1 115.782L176.427 110.557L170.703 104.642L171.1 115.782Z" fill="#252632"/>
<path d="M152.678 95.5723L152.306 98.3935L149.972 99.7656L148.279 97.2009L152.678 95.5723Z" fill="#6F6783"/>
<path d="M156.156 99.0652V97.8359L157.68 99.8591L159.409 103.496L156.156 99.0652Z" fill="#6F6783"/>
<path d="M155.631 102.164L158.115 106.979L157.218 110.551L154.453 112.369L150.637 113.407H148.089L144.119 109.962L150.15 105.66L150.842 106.108L155.631 102.164Z" fill="#0D0C16"/>
<path d="M146.073 104.164L144.101 102.41C144.101 102.41 143.064 104.421 142.91 106.52L144.101 109.952C144.114 109.965 145.599 104.766 146.073 104.164Z" fill="#4A4460"/>
<path d="M159.661 102.822C159.661 102.822 160.033 103.425 160.148 103.617C160.264 103.81 160.533 104.374 160.533 104.374C160.533 104.374 160.354 107.105 160.123 107.708L158.109 106.99L159.417 103.489L159.661 102.822Z" fill="#241F43"/>
<path d="M160.113 107.702L158.1 106.983L157.074 110.292L157.78 111.69C157.767 111.703 159.588 110.766 160.113 107.702Z" fill="#777095"/>
<path d="M153.833 113.732C153.833 113.732 156.496 112.925 157.777 111.683L157.072 110.287L154.371 112.105L151.105 112.771L153.833 113.732Z" fill="#A1A0B9"/>
<path d="M148.445 114.968C148.445 114.968 151.262 114.801 153.836 113.726L151.109 112.752C151.109 112.752 147.882 112.829 147.523 112.65C147.152 112.458 144.117 109.961 144.117 109.961L148.445 114.968Z" fill="#B7B2D9"/>
<path d="M150.988 101.679L150.898 106.116L147.82 104.179L150.988 101.679Z" fill="#9A93B0"/>
<path d="M153.884 101.974V103.641L150.883 106.116L150.973 101.679L153.884 101.974Z" fill="#B8B3CD"/>
<defs>
<linearGradient id="paint0_linear_198_3377" x1="113.291" y1="7.40482" x2="113.291" y2="273.838" gradientUnits="userSpaceOnUse">
<stop stop-color="#E9E7E8"/>
<stop offset="0.7998" stop-color="#9C9A9C"/>
</linearGradient>
<linearGradient id="paint1_linear_198_3377" x1="69.5692" y1="187.459" x2="156.74" y2="187.459" gradientUnits="userSpaceOnUse">
<stop stop-color="#E9E7E8"/>
<stop offset="0.5011" stop-color="#333235"/>
<stop offset="1" stop-color="#A0A3A9"/>
</linearGradient>
</defs>
</svg>
