<svg width="20" height="21" viewBox="0 0 20 21" fill="none" xmlns="http://www.w3.org/2000/svg">
<path d="M18.3952 13.6248C17.1707 13.6248 15.9684 13.4333 14.8291 13.0568C14.2708 12.8663 13.5845 13.041 13.2438 13.391L10.995 15.0886C8.38703 13.6964 6.78057 12.0905 5.40745 9.50212L7.0551 7.31191C7.48318 6.88441 7.63672 6.25993 7.45276 5.674C7.07464 4.52868 6.88255 3.32697 6.88255 2.10197C6.8826 1.21702 6.16266 0.49707 5.27776 0.49707H1.60484C0.719948 0.49707 0 1.21702 0 2.10191C0 12.2451 8.25198 20.4971 18.3952 20.4971C19.2801 20.4971 20.0001 19.7771 20.0001 18.8922V15.2296C20 14.3447 19.2801 13.6248 18.3952 13.6248Z" fill="white"/>
</svg>
