<svg width="14" height="14" viewBox="0 0 14 14" fill="none" xmlns="http://www.w3.org/2000/svg">
<path d="M5.25391 0V1.16787H6.42177V1.75179C6.83051 1.6934 7.18087 1.6934 7.58964 1.75179V1.16787H8.75751V0H5.25391Z" fill="url(#paint0_linear_2491_148187)"/>
<path d="M10.9768 3.85365L11.3855 3.44491L11.8527 3.91207L12.6702 3.09456L10.9184 1.34277L10.1009 2.16028L10.568 2.62741L10.0425 3.15294C7.23963 1.45954 3.61927 2.33543 1.98428 5.13829C0.349288 7.94114 1.22515 11.4447 3.96963 13.1381C6.7141 14.8315 10.3344 13.9556 11.9695 11.1528C13.4293 8.75865 13.0205 5.72223 10.9768 3.85365ZM7.00605 12.2038C4.72872 12.2038 2.91856 10.3937 2.91856 8.11635C2.91856 5.83903 4.72872 4.02883 7.00605 4.02883V8.11632H11.0935C11.0936 10.3936 9.28337 12.2038 7.00605 12.2038Z" fill="url(#paint1_linear_2491_148187)"/>
<defs>
<linearGradient id="paint0_linear_2491_148187" x1="5.54587" y1="0" x2="8.52393" y2="0" gradientUnits="userSpaceOnUse">
<stop stop-color="#DC2430"/>
<stop offset="1" stop-color="#7B4397"/>
</linearGradient>
<linearGradient id="paint1_linear_2491_148187" x1="2.13521" y1="1.34277" x2="12.0608" y2="1.34277" gradientUnits="userSpaceOnUse">
<stop stop-color="#DC2430"/>
<stop offset="1" stop-color="#7B4397"/>
</linearGradient>
</defs>
</svg>
