<svg width="14" height="14" viewBox="0 0 14 14" fill="none" xmlns="http://www.w3.org/2000/svg">
<g clip-path="url(#clip0_2491_148196)">
<path d="M7 2.82739C4.32515 2.82739 1.89946 4.29082 0.109543 6.66782C-0.0365143 6.86257 -0.0365143 7.13463 0.109543 7.32938C1.89946 9.70924 4.32515 11.1727 7 11.1727C9.67485 11.1727 12.1005 9.70924 13.8905 7.33224C14.0365 7.1375 14.0365 6.86543 13.8905 6.67069C12.1005 4.29082 9.67485 2.82739 7 2.82739ZM7.19188 9.93835C5.41628 10.05 3.94998 8.58661 4.06168 6.80815C4.15332 5.34186 5.34182 4.15336 6.80812 4.06171C8.58372 3.95002 10.05 5.41346 9.93832 7.19191C9.84382 8.65534 8.65531 9.84384 7.19188 9.93835ZM7.1031 8.58088C6.14657 8.64102 5.35614 7.85346 5.41915 6.89693C5.46783 6.10651 6.10934 5.46787 6.89977 5.41632C7.8563 5.35618 8.64672 6.14374 8.58372 7.10027C8.53217 7.89356 7.89066 8.53219 7.1031 8.58088Z" fill="url(#paint0_linear_2491_148196)"/>
</g>
<defs>
<linearGradient id="paint0_linear_2491_148196" x1="1.16667" y1="2.82739" x2="13.0667" y2="2.82739" gradientUnits="userSpaceOnUse">
<stop stop-color="#DC2430"/>
<stop offset="1" stop-color="#7B4397"/>
</linearGradient>
<clipPath id="clip0_2491_148196">
<rect width="14" height="14" fill="white"/>
</clipPath>
</defs>
</svg>
