<svg width="14" height="10" viewBox="0 0 14 10" fill="none" xmlns="http://www.w3.org/2000/svg">
<path d="M7 0.827393C4.32515 0.827393 1.89946 2.29082 0.109543 4.66782C-0.0365143 4.86257 -0.0365143 5.13463 0.109543 5.32938C1.89946 7.70924 4.32515 9.17267 7 9.17267C9.67485 9.17267 12.1005 7.70924 13.8905 5.33224C14.0365 5.1375 14.0365 4.86543 13.8905 4.67069C12.1005 2.29082 9.67485 0.827393 7 0.827393ZM7.19188 7.93835C5.41628 8.05004 3.94998 6.58661 4.06168 4.80815C4.15332 3.34186 5.34182 2.15336 6.80812 2.06171C8.58372 1.95002 10.05 3.41346 9.93832 5.19191C9.84382 6.65534 8.65531 7.84384 7.19188 7.93835ZM7.1031 6.58088C6.14657 6.64102 5.35614 5.85346 5.41915 4.89693C5.46783 4.10651 6.10934 3.46787 6.89977 3.41632C7.8563 3.35618 8.64672 4.14374 8.58372 5.10027C8.53217 5.89356 7.89066 6.53219 7.1031 6.58088Z" fill="url(#paint0_linear_3165_165292)"/>
<defs>
<linearGradient id="paint0_linear_3165_165292" x1="1.16667" y1="0.827393" x2="13.0667" y2="0.827393" gradientUnits="userSpaceOnUse">
<stop stop-color="#DC2430"/>
<stop offset="1" stop-color="#7B4397"/>
</linearGradient>
</defs>
</svg>
