<svg width="19" height="19" viewBox="0 0 19 19" fill="none" xmlns="http://www.w3.org/2000/svg">
<path d="M8.81009 14.1004C8.89715 14.1875 9.0005 14.2565 9.11425 14.3036C9.22799 14.3507 9.3499 14.375 9.47302 14.375C9.59614 14.375 9.71805 14.3507 9.8318 14.3036C9.94555 14.2565 10.0489 14.1875 10.136 14.1004L13.6715 10.5649C13.8473 10.3891 13.946 10.1506 13.946 9.90197C13.946 9.65333 13.8473 9.41488 13.6715 9.23906C13.4956 9.06325 13.2572 8.96448 13.0085 8.96448C12.7599 8.96448 12.5215 9.06325 12.3456 9.23906L10.4105 11.1742V0.9375C10.4105 0.68886 10.3118 0.450403 10.1359 0.274587C9.96012 0.0987721 9.72166 0 9.47302 0C9.22438 0 8.98593 0.0987721 8.81011 0.274587C8.63429 0.450403 8.53552 0.68886 8.53552 0.9375V11.1742L6.60041 9.23906C6.42459 9.06325 6.18613 8.96448 5.93749 8.96448C5.68886 8.96448 5.4504 9.06325 5.27458 9.23906C5.09877 9.41488 5 9.65333 5 9.90197C5 10.1506 5.09877 10.3891 5.27458 10.5649L8.81009 14.1004Z" fill="white"/>
<path d="M17.459 8.0625C17.2103 8.0625 16.9719 8.16127 16.7961 8.33709C16.6203 8.5129 16.5215 8.75136 16.5215 9V16.1875H2.14648V9C2.14648 8.75136 2.04771 8.5129 1.8719 8.33709C1.69608 8.16127 1.45762 8.0625 1.20898 8.0625C0.960344 8.0625 0.721887 8.16127 0.546072 8.33709C0.370256 8.5129 0.271484 8.75136 0.271484 9V16.5C0.271484 16.9144 0.436104 17.3118 0.72913 17.6049C1.02216 17.8979 1.41958 18.0625 1.83398 18.0625H16.834C17.2484 18.0625 17.6458 17.8979 17.9388 17.6049C18.2319 17.3118 18.3965 16.9144 18.3965 16.5V9C18.3965 8.75136 18.2977 8.5129 18.1219 8.33709C17.9461 8.16127 17.7076 8.0625 17.459 8.0625Z" fill="white"/>
</svg>
