<svg width="58" height="30" viewBox="0 0 58 30" fill="none" xmlns="http://www.w3.org/2000/svg">
<path d="M0.478435 14.1628L1.86485 9.64904L4.35306 6.04157L6.50253 3.66162L7.74577 2.70126L11.9923 0.90625H15.6085H18.9052L23.2757 2.7903L24.5556 3.80305L26.5636 6.05903L28.9977 9.64904L30.3841 13.9847L30.8992 18.3726L30.3841 21.8387L27.6462 25.729L24.4124 27.9152L20.2968 29.4186L15.4304 30L10.5954 29.3662L6.59158 27.9379L3.25127 25.7238L0.550026 21.7933L0 18.1247L0.478435 14.1628L1.86485 9.64904L4.35306 6.04157L6.50253 3.66162L7.74577 2.70126L11.9923 0.90625H18.9052L23.2757 2.7903L24.5556 3.80305" fill="url(#paint0_linear_3955_126942)"/>
<path d="M5.17969 17.2027L6.02306 15.8338L7.63996 14.1628L9.38084 11.6047L10.9262 11.2852L12.7212 12.3695L12.6915 13.0208L12.6234 13.5394L12.6007 13.6075L12.2602 14.7617L11.8498 16.0486C11.8498 16.0486 11.5879 16.761 11.3505 16.9845C11.113 17.208 11.3505 16.9845 11.3505 16.9845C11.3505 16.9845 10.9069 17.8313 10.6293 17.9867C10.3517 18.1404 10.6293 17.9867 10.6293 17.9867L10.0915 18.4355L9.38084 18.9087L7.63996 19.9616L5.97592 18.8319L5.17969 17.2027L6.02306 15.8338L7.63996 14.1628" fill="#1A1421"/>
<path d="M25.6821 17.2027L24.8387 15.8338L23.2218 14.1628L21.4809 11.6047L19.9356 11.2852L18.1406 12.3695L18.1703 13.0208L18.2384 13.5394L18.2611 13.6075L18.6016 14.7617L19.0119 16.0486C19.0119 16.0486 19.2739 16.761 19.5113 16.9845C19.5113 16.9845 19.7488 17.208 19.5113 16.9845C19.5113 16.9845 19.9548 17.8313 20.2325 17.9867C20.2325 17.9867 20.5101 18.1404 20.2325 17.9867L20.7703 18.4355L21.4809 18.9087L23.2218 19.9616L24.8859 18.8319L25.6821 17.2027L24.8387 15.8338L23.2218 14.1628" fill="#1A1421"/>
<path d="M11.8187 22.8698L12.2622 23.0479L13.4531 22.7999L14.5689 22.7563C14.5689 22.7563 15.1678 22.7021 15.4349 22.7074C15.7021 22.7126 16.301 22.7563 16.301 22.7563L17.4168 22.7999L18.6076 23.0479L19.0511 22.8698L19.2292 23.6695L18.7403 24.443L15.4349 26.2957L12.1295 24.443L11.6406 23.6695L11.8187 22.8698L12.2622 23.0479L13.4531 22.7999" fill="#504B59"/>
<path d="M11.6338 23.668L9.48438 25.9065L10.4971 26.4443L12.0512 27.0921L13.7885 27.2527L15.4264 27.1881L17.066 27.2527L18.8034 27.0921L21.3702 25.9065L19.2207 23.668L18.7318 24.4398L16.5614 25.6096L15.4264 26.2924L14.2932 25.6096L12.9626 24.9042L12.1228 24.4398L11.6338 23.668L9.48438 25.9065L11.6338 23.668Z" fill="url(#paint1_linear_3955_126942)"/>
<path d="M9.48438 25.9062L10.0152 26.3637L10.8219 27.0604L12.0075 27.6628L14.0086 27.7955H16.846L18.847 27.6628L20.0327 27.0604L21.3702 25.9062L20.3574 26.4441L18.8034 27.0919L17.066 27.2525L15.4264 27.1879L13.7885 27.2525L12.0512 27.0919L10.4971 26.4441L9.48438 25.9062Z" fill="#27292A"/>
<path d="M15.427 23.9168L16.4449 24.273L17.5642 23.5833L18.5996 23.0472L19.0432 22.8691L18.4792 23.9482L17.3075 24.7078L16.5619 25.6105L15.427 26.2933L14.2937 25.6105L13.5481 24.7078L12.3765 23.9482L11.8125 22.8691L12.256 23.0472L13.2915 23.5833L14.4107 24.273L15.427 23.9168Z" fill="#030405"/>
<path d="M23.2734 2.79029L26.1441 0L29.2259 1.39514L30.3819 3.74891L30.7713 6.59333L28.9955 9.64903L26.5614 6.05902L24.5533 3.80304L23.2734 2.79029Z" fill="#272530"/>
<path d="M7.74496 2.70032L4.8045 0.0078125L1.72261 1.41169L0.540486 3.66069L0.140625 6.61861L1.86404 9.64811L4.35225 6.04064L6.50172 3.66069L7.74496 2.70032Z" fill="#302F3B"/>
<path d="M7.35156 6.91406L9.3788 11.6041L11.8478 8.0857L7.35156 6.91406Z" fill="#D7D3D1"/>
<path d="M5.34375 10.752L7.35003 6.91406L9.37727 11.6041L5.34375 10.752Z" fill="#E1DDDB"/>
<path d="M7.6364 14.1619L5.34375 10.75L9.37727 11.6021L7.6364 14.1619Z" fill="#BEBFBB"/>
<path d="M4.01562 14.1621H7.64056L6.02366 15.8314L5.18028 17.2003L4.01562 14.1621Z" fill="#C0C0BF"/>
<path d="M7.35697 6.91406L1.86719 9.65022L5.35069 10.752L7.35697 6.91406Z" fill="#D9D9D9"/>
<path d="M11.9966 0.90625L7.75 2.70126L11.8551 4.35308L11.9966 0.90625Z" fill="#E8E7E5"/>
<path d="M15.6092 0.90625L11.8516 4.35308L11.993 0.90625H15.6092Z" fill="#EDEDED"/>
<path d="M18.906 0.90625L18.9951 4.42467L15.6094 0.90625H18.906Z" fill="#EEEEEE"/>
<path d="M11.8516 4.35308L15.4433 4.42467H18.9949L15.6092 0.90625L11.8516 4.35308Z" fill="#E9E7E8"/>
<path d="M23.2768 2.7903L18.9953 4.42467L18.9062 0.90625L23.2768 2.7903Z" fill="#E8E7E5"/>
<path d="M15.4219 4.42578H18.9944L19.1725 8.15723L15.4219 4.42578Z" fill="#E0E0DE"/>
<path d="M23.6823 6.914L18.9922 4.42578L19.1703 8.15723L23.6823 6.914Z" fill="#E1E1E0"/>
<path d="M11.8518 8.08594L12.7231 12.3692L10.9281 11.2848L9.38281 11.6044L11.8518 8.08594Z" fill="#D9D9D9"/>
<path d="M15.4224 8.35309L12.7229 12.3692L11.8516 8.08594L15.4224 8.35309Z" fill="#D6D6D3"/>
<path d="M18.1982 12.3784L19.1725 8.15625L15.4219 8.35181L18.1982 12.3784Z" fill="#D6D6D3"/>
<path d="M21.5356 11.6136L19.1696 8.15625L18.1953 12.3784L19.9903 11.2975L21.5356 11.6136Z" fill="#D9D9D9"/>
<path d="M23.6838 6.91211L21.5379 11.6126L19.1719 8.15534L23.6838 6.91211Z" fill="#E1DDDB"/>
<path d="M25.5551 10.7598L21.5391 11.6119L23.6903 6.92188L25.5551 10.7598Z" fill="#D7D3D1"/>
<path d="M29.0009 9.65022L25.5541 10.752L23.6875 6.91406L29.0009 9.65022Z" fill="#D9D9D9"/>
<path d="M23.2817 14.1706L21.5391 11.6126L25.5516 10.75L23.2817 14.1706Z" fill="#BEBFBB"/>
<path d="M30.3882 13.984L29.0018 9.64844L27.1719 14.1621L30.3882 13.984Z" fill="#CECCD1"/>
<path d="M25.7415 17.2128L24.8755 15.8333L23.2812 14.1728L27.1681 14.1641L25.7415 17.2128Z" fill="#C0C0BF"/>
<path d="M30.9015 18.3724L30.3864 13.9844L29 18.3025L30.9015 18.3724Z" fill="#B9B8BF"/>
<path d="M26.741 21.2689L28.9987 18.3023L25.7422 17.2109L26.741 21.2689Z" fill="#B3B3B2"/>
<path d="M30.3864 21.8386L30.9015 18.3726L29 18.3027L30.3864 21.8386Z" fill="#B0AEB3"/>
<path d="M26.7422 21.2694L30.3863 21.8386L28.9999 18.3027L26.7422 21.2694Z" fill="#A4A2A2"/>
<path d="M27.6484 25.7291L30.3863 21.8388L26.7422 21.2695L27.6484 25.7291Z" fill="#A9A9A9"/>
<path d="M23.2812 19.9681L24.9296 18.7982L25.7415 17.2109L26.7403 21.2689L23.2812 19.9681Z" fill="#BCBEBB"/>
<path d="M24.4141 23.6687L26.7416 21.2695L27.6479 25.7291L24.4141 23.6687Z" fill="#B4B5B5"/>
<path d="M24.4141 27.9145V23.668L27.6479 25.7284L24.4141 27.9145Z" fill="#ACACAC"/>
<path d="M21.375 25.9065L24.4132 23.668V27.9145L21.375 25.9065Z" fill="#B2B0B6"/>
<path d="M21.5412 18.9141L23.2839 19.967L19.7969 20.8313L21.5412 18.9141Z" fill="#C7C6C9"/>
<path d="M26.7403 21.2696L24.4127 23.6688L23.2812 19.9688L26.7403 21.2696Z" fill="#C7C6C9"/>
<path d="M19.7969 20.8331L23.2839 19.9688L24.4153 23.6688L19.7969 20.8331Z" fill="#C3C3C3"/>
<path d="M19.2266 23.668H24.4143L21.376 25.9065L19.2266 23.668Z" fill="#BBB9BE"/>
<path d="M19.7942 20.832L19.0469 22.868L19.225 23.6677H24.4127L19.7942 20.832Z" fill="#CECCD1"/>
<path d="M17.4141 22.7964L19.7958 20.832L19.0484 22.868L18.6049 23.0461L17.4141 22.7964Z" fill="#DEDDE1"/>
<path d="M15.4182 13.5218L12.7188 12.3676L15.4182 8.35156L18.1946 12.3781L15.4182 13.5218Z" fill="#CFCDCD"/>
<path d="M11.8516 16.0445L15.4224 13.5214L12.7211 12.3672C12.7211 12.3672 12.7561 13.2385 12.454 14.1622C12.1536 15.0859 11.8516 16.0445 11.8516 16.0445Z" fill="#D3D1D5"/>
<path d="M18.1999 12.3789C18.1999 12.3789 18.2139 13.3847 18.4968 14.2071C18.7674 14.9911 19.0695 16.0562 19.0695 16.0562L15.4219 13.5226L18.1999 12.3789Z" fill="#D3D1D5"/>
<path d="M15.4224 17.129L11.8516 16.0446L15.4224 13.5215L19.07 16.0551L15.4224 17.129Z" fill="#DCDBE0"/>
<path d="M9.38281 18.9068L15.4244 17.1293L11.8536 16.0449C11.8536 16.0449 11.2494 17.2882 10.8059 17.8033C10.3624 18.3184 9.38281 18.9068 9.38281 18.9068Z" fill="#DDDDE4"/>
<path d="M21.5525 18.9236L15.4219 17.1286L19.0695 16.0547C19.0695 16.0547 19.4292 16.7461 20.0421 17.5546C20.655 18.3631 21.5525 18.9236 21.5525 18.9236Z" fill="#DEDDE2"/>
<path d="M11.1094 20.8324H19.798L15.4258 17.1289L11.1094 20.8324Z" fill="#DDDCE1"/>
<path d="M21.5525 18.9239L19.7941 20.8324L15.4219 17.1289L21.5525 18.9239Z" fill="#DAD9DE"/>
<path d="M11.1062 20.8324L15.4226 17.1289L9.38281 18.9065L11.1062 20.8324Z" fill="#DAD9DD"/>
<path d="M17.4124 22.7964L15.4219 20.832H19.7941L17.4124 22.7964Z" fill="#D0D0D3"/>
<path d="M13.4531 22.7964L15.4262 20.832L17.4168 22.7964C17.4168 22.7964 15.8401 22.7248 15.4804 22.7248C15.1189 22.7248 13.4531 22.7964 13.4531 22.7964Z" fill="#D9DBDC"/>
<path d="M11.1094 20.832L13.4544 22.7964L15.4258 20.832H11.1094Z" fill="#D0D0D3"/>
<path d="M11.82 22.868L11.1094 20.832L13.4544 22.7964L12.2636 23.0461L11.82 22.868Z" fill="#DEDDE2"/>
<path d="M1.86298 9.64844L0.476562 14.1621H4.01244L1.86298 9.64844Z" fill="#CECCD1"/>
<path d="M5.18131 17.2023L1.86719 18.3041L4.01665 14.1641L5.18131 17.2023Z" fill="#CAC8C8"/>
<path d="M0.476562 14.1641L1.86298 18.3041L4.01244 14.1641H0.476562Z" fill="#C8C6CC"/>
<path d="M0 18.124L0.478435 14.1621L1.86485 18.3021L0 18.124Z" fill="#BAB8BD"/>
<path d="M0.550026 21.7936L0 18.125L1.86485 18.3031L0.550026 21.7936Z" fill="#B0AEB3"/>
<path d="M4.17181 21.1978L1.8617 18.3027L0.546875 21.7932L4.17181 21.1978Z" fill="#A4A2A2"/>
<path d="M5.18131 17.2012L4.1773 21.198L1.86719 18.303L5.18131 17.2012Z" fill="#B3B3B2"/>
<path d="M7.63617 19.9583L4.17188 21.198L5.17589 17.2012L5.97212 18.8286L7.63617 19.9583Z" fill="#BCBEBB"/>
<path d="M3.24812 25.7251L0.546875 21.7946L4.17181 21.1992L3.24812 25.7251Z" fill="#A9A9A9"/>
<path d="M6.5065 23.67L4.17369 21.1992L3.25 25.7251L6.5065 23.67Z" fill="#B4B5B5"/>
<path d="M7.64062 19.9574L11.1067 20.8322L9.38325 18.9062L7.64062 19.9574Z" fill="#C7C6C9"/>
<path d="M6.50468 23.6675L7.63617 19.957L4.17188 21.1968L6.50468 23.6675Z" fill="#C7C6C9"/>
<path d="M11.1053 20.8318L6.50781 23.6675L7.63929 19.957L11.1053 20.8318Z" fill="#C3C3C3"/>
<path d="M11.6379 23.6677H6.50781L11.1053 20.832L11.816 22.868L11.6379 23.6677Z" fill="#CECCD1"/>
<path d="M9.48843 25.9065L6.50781 23.668H11.6379L9.48843 25.9065Z" fill="#BBB9BE"/>
<path d="M6.59163 27.9372L9.48843 25.9065L6.50781 23.668L6.59163 27.9372Z" fill="#B2B0B6"/>
<path d="M3.25 25.7231L6.50651 23.668L6.59032 27.9372L3.25 25.7231Z" fill="#ACACAC"/>
<path d="M10.5976 29.3653L6.59375 27.937L9.49055 25.9062L10.5976 29.3653Z" fill="#A4A2A7"/>
<path d="M24.4125 27.9143L20.2969 29.4177L21.3742 25.9062L24.4125 27.9143Z" fill="#A4A1A7"/>
<path d="M16.8516 27.7955L20.2984 29.4177L21.3757 25.9062L20.0382 27.0604L18.8526 27.6628L16.8516 27.7955Z" fill="#9C9A9C"/>
<path d="M15.4297 30.0005L16.8493 27.7969L20.2961 29.419L15.4297 30.0005Z" fill="#A4A1A3"/>
<path d="M15.4297 27.7969H16.8493L15.4297 30.0005V27.7969Z" fill="#99999B"/>
<path d="M10.5938 29.3666L14.0109 27.7969L15.4287 30.0005L10.5938 29.3666Z" fill="#A4A1A3"/>
<path d="M9.48438 25.9062L10.8219 27.0604L12.0075 27.6628L14.0086 27.7955L10.5914 29.3653L9.48438 25.9062Z" fill="#9C9A9C"/>
<path d="M23.2734 2.79029L26.1441 0L26.9874 2.45329L23.2734 2.79029Z" fill="#423E4F"/>
<path d="M29.2303 1.39514L26.1484 0L26.9918 2.45329L29.2303 1.39514Z" fill="#333241"/>
<path d="M30.3866 3.7483L29.2307 1.39453L26.9922 2.45268L30.3866 3.7483Z" fill="#21202C"/>
<path d="M24.5533 3.80287L26.9874 2.45312L23.2734 2.79012L24.5533 3.80287Z" fill="#343342"/>
<path d="M26.5625 6.06011L30.383 3.75L30.7724 6.59442L26.5625 6.06011Z" fill="#1D1B2D"/>
<path d="M26.9886 2.45312L26.5625 6.05885L30.383 3.74874L26.9886 2.45312Z" fill="#272530"/>
<path d="M24.5547 3.80287L26.9888 2.45312L26.5627 6.05885L24.5547 3.80287Z" fill="#302F3B"/>
<path d="M30.7724 6.5929L28.9966 9.64861L26.5625 6.05859L30.7724 6.5929Z" fill="#0A0B0D"/>
<path d="M7.74421 2.70032L4.80375 0.0078125L3.90625 2.41571L7.74421 2.70032Z" fill="#423E4F"/>
<path d="M1.72656 1.41169L4.80846 0.0078125L3.91095 2.41571L1.72656 1.41169Z" fill="#333241"/>
<path d="M6.50098 3.66295L3.90625 2.41797L7.74421 2.70259L6.50098 3.66295Z" fill="#343342"/>
<path d="M4.35151 6.0429L3.90625 2.41797L6.50098 3.66295L4.35151 6.0429Z" fill="#302F3B"/>
<path d="M1.729 1.41406L0.546875 3.66306L3.91338 2.41808L1.729 1.41406Z" fill="#21202C"/>
<path d="M4.35864 6.0429L0.546875 3.66295L3.91338 2.41797L4.35864 6.0429Z" fill="#272530"/>
<path d="M0.140625 6.61808L0.540485 3.66016L4.35225 6.04011L0.140625 6.61808Z" fill="#1D1B2D"/>
<path d="M1.86404 9.65044L0.140625 6.62093L4.35225 6.04297L1.86404 9.65044Z" fill="#0A0B0D"/>
<path d="M10.5312 12.1093L10.9224 11.2852L11.8845 11.8666L10.5312 12.1093Z" fill="#4D4B61"/>
<path d="M11.1354 13.0194L10.5312 12.1079L11.8845 11.8652L11.1354 13.0194Z" fill="#464355"/>
<path d="M11.5737 13.7334L11.8897 11.8633L11.1406 13.0175L11.5737 13.7334Z" fill="#373547"/>
<path d="M12.7235 12.3681C12.7235 12.3681 12.6973 13.4036 12.603 13.6061C12.603 13.6061 12.4983 13.1975 12.3324 12.7453C12.2154 12.4292 12.074 12.0905 11.8906 11.8652L12.7235 12.3681Z" fill="#23222B"/>
<path d="M11.5781 13.7351L12.6083 13.6042C12.6083 13.6042 12.2486 12.1671 11.8959 11.8633L11.5781 13.7351Z" fill="#27252F"/>
<path d="M11.4297 14.4209L11.5711 13.7364L12.6013 13.6055C12.6013 13.6055 12.3813 14.5065 12.2608 14.7596L11.4297 14.4209Z" fill="#18171D"/>
<path d="M9.79688 12.8198L9.84053 12.2209L10.5372 12.1074L11.1414 13.0189C11.1414 13.0189 10.6298 12.612 10.3818 12.6033C10.1339 12.5946 9.79688 12.8198 9.79688 12.8198Z" fill="#454156"/>
<path d="M9.38148 11.6016L9.00781 13.5205L9.79356 12.8186L9.83896 12.2197L9.38148 11.6016Z" fill="#302B3C"/>
<path d="M7.58594 15.6832L8.4782 14.4836L7.63832 14.1641L7.58594 15.6832Z" fill="#313241"/>
<path d="M6.02344 15.8314L7.58795 15.6812L7.64034 14.1621L6.02344 15.8314Z" fill="#1E1F29"/>
<path d="M5.17969 17.2008L6.65515 16.7433L7.58758 15.6816L6.02306 15.8318L5.17969 17.2008Z" fill="#121015"/>
<path d="M8.4782 14.4824L8.63011 15.441L7.58594 15.682L8.4782 14.4824Z" fill="#3D3C4F"/>
<path d="M8.27041 16.4716L7.58594 15.6824L8.63011 15.4414L8.27041 16.4716Z" fill="#30313D"/>
<path d="M7.88551 17.3562L6.65625 16.7433L7.58867 15.6816L7.88551 17.3562Z" fill="#181720"/>
<path d="M5.97656 18.8281L9.38323 18.9067L7.64061 19.9579L5.97656 18.8281Z" fill="#030505"/>
<path d="M6.65515 16.7422L5.97592 18.827L5.17969 17.1997L6.65515 16.7422Z" fill="#070809"/>
<path d="M7.88506 17.3551L5.97656 18.827L6.6558 16.7422L7.88506 17.3551Z" fill="#0C0C10"/>
<path d="M9.38323 18.906L7.88506 17.3555L5.97656 18.8274L9.38323 18.906Z" fill="#110F16"/>
<path d="M9.47352 16.8672L9.38098 18.9066L7.88281 17.3561L9.47352 16.8672Z" fill="#15121E"/>
<path d="M8.27041 16.4709L7.88278 17.3562L7.58594 15.6816L8.27041 16.4709Z" fill="#1F1E2C"/>
<path d="M9.47352 16.869L8.27045 16.4727L7.88281 17.3579L9.47352 16.869Z" fill="#1B1926"/>
<path d="M8.63314 15.4414L9.53413 15.9565L8.27344 16.4716L8.63314 15.4414Z" fill="#23242E"/>
<path d="M9.47651 16.8685L9.53413 15.957L8.27344 16.4721L9.47651 16.8685Z" fill="#221C2F"/>
<path d="M10.6313 17.983L9.47536 16.8672L9.38281 18.9066C9.38281 18.9066 9.9049 18.6377 10.6313 17.983Z" fill="#13121A"/>
<path d="M11.3536 16.9824L9.47656 16.8672L10.6325 17.983C10.6325 17.983 10.8962 17.838 11.3536 16.9824Z" fill="#0E0D17"/>
<path d="M11.2656 14.887L12.2592 14.7578L11.8488 16.0447L11.2656 14.887Z" fill="#403C53"/>
<path d="M11.428 14.4199L11.2656 14.8879L12.2592 14.7587L11.428 14.4199Z" fill="#2F2E39"/>
<path d="M10.6719 15.5712L11.2638 14.8867L11.847 16.0444L10.6719 15.5712Z" fill="#4C495F"/>
<path d="M11.3494 16.9831L10.6719 15.5723L11.847 16.0455C11.8488 16.0455 11.7038 16.5029 11.3494 16.9831Z" fill="#261F33"/>
<path d="M9.53418 15.9564L10.6779 15.5723L9.47656 16.8679L9.53418 15.9564Z" fill="#191526"/>
<path d="M11.3536 16.9831L9.47656 16.8679L10.6779 15.5723L11.3536 16.9831Z" fill="#11101F"/>
<path d="M9.69531 13.8242L10.3361 13.7578L10.7657 14.1001L10.3484 14.362L9.69531 13.8242Z" fill="#D6CEE7"/>
<path d="M9.625 13.4025L9.69659 13.8233L10.3374 13.7569L10.4684 13.495L10.1768 13.3047L9.625 13.4025Z" fill="#0B0B12"/>
<path d="M11.4314 14.4197L11.5729 13.7352L11.1398 13.0193C11.1398 13.0193 10.6823 12.6125 10.3803 12.6038C10.0782 12.595 9.79356 12.822 9.79356 12.822L9.00781 13.524V13.8051L9.02178 14.0426L9.02877 14.1264C9.02877 14.1264 9.38148 13.4175 9.85642 13.1066C10.3314 12.7958 10.9774 13.3406 11.1573 13.6794C11.3651 14.0618 11.4314 14.4197 11.4314 14.4197Z" fill="#050607"/>
<path d="M9.69571 13.8233L9.35871 14.4816L9.17188 14.0241C9.17188 14.0241 9.45824 13.4147 9.61713 13.3047L9.69571 13.8233Z" fill="#1D1A39"/>
<path d="M11.2665 14.8884C11.2665 14.8884 10.9766 13.7587 10.4668 13.4968L10.1507 13.3099L9.62513 13.4025L9.17288 14.0241L9.14844 13.9141L9.37369 13.5544L9.61814 13.2331L10.1036 12.9258L10.7025 13.1475C10.7025 13.1475 11.3416 13.6068 11.4341 14.4205L11.2665 14.8884Z" fill="#5D5A71"/>
<path d="M9.00564 13.5215L8.47656 14.4818L8.62673 15.4405L9.52772 15.9556L10.6714 15.5714C10.6714 15.5714 10.1092 15.5155 9.64297 15.2763C9.16803 15.0319 9.09818 14.763 9.05278 14.4015C9.0004 13.9755 9.00564 13.5215 9.00564 13.5215Z" fill="#0B0B0E"/>
<path d="M10.4669 13.4961L10.3359 13.758L10.7672 14.1003L10.4442 14.3028L11.2666 14.8877C11.2666 14.8877 11.0955 14.2242 10.9191 13.9483C10.6747 13.5642 10.4669 13.4961 10.4669 13.4961Z" fill="#1B1731"/>
<path d="M7.35156 6.91332L11.8478 4.35352V8.08496L7.35156 6.91332Z" fill="#E1E1E0"/>
<path d="M15.4224 4.42315L11.8516 4.35156V8.08301L15.4224 4.42315Z" fill="#E0E0DE"/>
<path d="M7.74269 2.70117L7.35156 6.9128L11.8478 4.353L7.74269 2.70117Z" fill="#E0DFDD"/>
<path d="M4.3554 6.04297L7.35697 6.91428L1.86719 9.65044L4.3554 6.04297Z" fill="#E1E1E0"/>
<path d="M7.74426 2.70117L6.50103 3.66154L4.35156 6.04149L7.35313 6.9128L7.74426 2.70117Z" fill="#E1E1E0"/>
<path d="M23.2737 2.78906L23.6823 6.91164L18.9922 4.42343L23.2737 2.78906Z" fill="#E0DFDD"/>
<path d="M26.5668 6.05859L29.0009 9.64861L23.6875 6.91245L26.5668 6.05859Z" fill="#E1E1E0"/>
<path d="M23.2734 2.78906L24.5533 3.80181L26.5614 6.05779L23.682 6.91164L23.2734 2.78906Z" fill="#DFDFDE"/>
<path d="M15.4224 4.42578V8.35279L11.8516 8.08564L15.4224 4.42578Z" fill="#DAD9D7"/>
<path d="M19.1725 8.15723L15.4219 4.42578V8.35279L19.1725 8.15723Z" fill="#DBDBD9"/>
<path d="M1.86719 9.64844L4.01665 14.1621L5.35069 10.7502L1.86719 9.64844Z" fill="#D1D0D1"/>
<path d="M7.64056 14.1619L5.34966 10.75L4.01562 14.1619H7.64056Z" fill="#D1CFD0"/>
<path d="M25.5469 10.7502L27.1638 14.1621L28.9937 9.64844L25.5469 10.7502Z" fill="#D1D0D1"/>
<path d="M23.2812 14.1706L25.5512 10.75L27.1681 14.1619L23.2812 14.1706Z" fill="#D1CFD0"/>
<path d="M27.1719 14.1625L29.0018 18.3025L30.3882 13.9844L27.1719 14.1625Z" fill="#C8C6CC"/>
<path d="M25.7422 17.2128L27.1688 14.1641L28.9987 18.3041L25.7422 17.2128Z" fill="#CAC8C8"/>
<path d="M9.38281 11.6047L10.537 12.1093L10.9281 11.2852L9.38281 11.6047Z" fill="#403B4E"/>
<path d="M9.8403 12.2197L9.38281 11.6016L10.537 12.1062L9.8403 12.2197Z" fill="#393445"/>
<path d="M9.38162 11.6016L9.00796 13.5205L8.67969 12.6335L9.38162 11.6016Z" fill="#27242A"/>
<path d="M7.64062 14.1616L8.27272 13.2344L8.48051 14.4811L7.64062 14.1616Z" fill="#1A1421"/>
<path d="M9.0103 13.5207L8.27344 13.2344L8.48123 14.4811L9.0103 13.5207Z" fill="#0E0D12"/>
<path d="M8.68203 12.6348L8.27344 13.2354L9.0103 13.5218L8.68203 12.6348Z" fill="#21202C"/>
<path d="M9.84375 12.2211L10.3859 12.6041L10.5415 12.1074L9.84375 12.2211Z" fill="#443E52"/>
<path d="M11.1424 13.0189L10.5382 12.1074L10.3828 12.6033C10.3828 12.6033 10.6657 12.5632 11.1424 13.0189Z" fill="#383143"/>
<path d="M7.5875 15.6832L6.85938 14.969L7.63989 14.1641L7.5875 15.6832Z" fill="#252632"/>
<path d="M10.1016 12.9238L10.1505 13.3085L10.4688 13.4957L10.6996 13.1459L10.1016 12.9238Z" fill="#6F6783"/>
<path d="M9.6232 13.402V13.2344L9.41716 13.5103L9.17969 14.0044L9.6232 13.402Z" fill="#6F6783"/>
<path d="M9.69637 13.8242L9.35938 14.4825L9.4816 14.9697L9.85876 15.2159L10.3774 15.3573H10.7248L11.2679 14.8876L10.4455 14.3027L10.3494 14.362L9.69637 13.8242Z" fill="#0D0C16"/>
<path d="M11 14.0986L11.2689 13.8594C11.2689 13.8594 11.4103 14.1335 11.4313 14.4199L11.2689 14.8878C11.2672 14.8878 11.0629 14.1807 11 14.0986Z" fill="#4A4460"/>
<path d="M9.15016 13.9141C9.15016 13.9141 9.09945 13.9963 9.08371 14.0225C9.06797 14.0487 9.03125 14.1257 9.03125 14.1257C9.03125 14.1257 9.05573 14.4981 9.08721 14.5803L9.36176 14.4824L9.18339 14.005L9.15016 13.9141Z" fill="#241F43"/>
<path d="M9.08594 14.5804L9.36049 14.4824L9.50038 14.9336L9.40421 15.1242C9.40421 15.1242 9.15764 14.9965 9.08594 14.5804Z" fill="#777095"/>
<path d="M9.94405 15.4033C9.94405 15.4033 9.58086 15.2933 9.40625 15.1239L9.50228 14.9336L9.87071 15.1815L10.316 15.2723L9.94405 15.4033Z" fill="#A1A0B9"/>
<path d="M10.6726 15.5734C10.6726 15.5734 10.2885 15.5507 9.9375 15.404L10.3094 15.2713C10.3094 15.2713 10.7494 15.2818 10.7983 15.2573C10.849 15.2311 11.2628 14.8906 11.2628 14.8906L10.6726 15.5734Z" fill="#B7B2D9"/>
<path d="M14.0156 27.7969L15.4335 27.7986V30.0005L14.0156 27.7969Z" fill="#99999B"/>
<path d="M17.0716 27.2544L16.8516 27.7974L18.809 27.0938L17.0716 27.2544Z" fill="#1D2724"/>
<path d="M16.4477 24.2711L16.2975 22.752L15.4297 23.9149L16.4477 24.2711Z" fill="#736E84"/>
<path d="M17.5663 23.5814L16.2969 22.752L16.447 24.2711L17.5663 23.5814Z" fill="#615C71"/>
<path d="M17.4109 22.7956L16.2969 22.752L17.5663 23.5814L17.4109 22.7956Z" fill="#504B59"/>
<path d="M18.6049 23.0466L17.5695 23.5826L17.4141 22.7969L18.6049 23.0466Z" fill="#3C3943"/>
<path d="M19.0484 22.8672L18.4844 23.9463L18.6049 23.0453L19.0484 22.8672Z" fill="#030505"/>
<path d="M17.5625 23.581L18.4775 23.9459L18.5979 23.0449L17.5625 23.581Z" fill="#201C27"/>
<path d="M17.3125 24.7065L17.5692 23.582L18.4841 23.947L17.3125 24.7065Z" fill="#110E16"/>
<path d="M19.0454 22.8672L18.4814 23.9463L17.3098 24.7058L16.7266 25.5056L17.5891 24.8211L18.5792 24.2484L19.0454 22.8672Z" fill="#5C5B62"/>
<path d="M19.2218 23.6669L19.0437 22.8672L18.5775 24.2484L17.5875 24.8211L16.5625 25.6086L17.7376 24.9905L18.7329 24.4387L19.2218 23.6669Z" fill="#2A292E"/>
<path d="M17.3079 24.7065L16.4453 24.2717L17.5646 23.582L17.3079 24.7065Z" fill="#0C0E10"/>
<path d="M16.0024 25.0742L16.5647 25.6103L15.4297 26.293L16.0024 25.0742Z" fill="#030405"/>
<path d="M16.5647 25.6094L15.9465 26.6885L15.4297 26.2921L16.5647 25.6094Z" fill="#4C4D52"/>
<path d="M17.0681 27.2527L15.9453 26.6887L18.1961 26.1055L17.0681 27.2527Z" fill="#5A5F64"/>
<path d="M16.5634 25.6094L18.1961 26.1053L15.9453 26.6885L16.5634 25.6094Z" fill="#696D73"/>
<path d="M15.4297 27.1869L15.9465 26.6875L17.0693 27.2515L15.4297 27.1869Z" fill="#3B3B41"/>
<path d="M16.8493 27.7951L15.4297 27.1875V27.7969L16.8493 27.7951Z" fill="#181915"/>
<path d="M18.8067 27.0918L17.0693 27.2524L15.4297 27.1878L16.8493 27.7955L18.8067 27.0918Z" fill="#27292A"/>
<path d="M18.1983 26.1055L18.8077 27.092L17.0703 27.2527L18.1983 26.1055Z" fill="#73767D"/>
<path d="M17.893 24.9023L18.1951 26.1037L16.5625 25.6078L16.7249 25.5048L17.893 24.9023Z" fill="#7D8187"/>
<path d="M19.2233 23.668L19.4625 25.4612L18.7344 24.4398L19.2233 23.668Z" fill="#ACADB7"/>
<path d="M17.8906 24.9039L18.7305 24.4395L19.4586 25.4609L17.8906 24.9039Z" fill="#AEB6C0"/>
<path d="M18.1927 26.1037L19.4586 25.4593L17.8906 24.9023L18.1927 26.1037Z" fill="#9EA2AC"/>
<path d="M19.2266 23.668L19.4658 25.4612L21.376 25.9065L19.2266 23.668Z" fill="#A0A3A9"/>
<path d="M20.3584 26.444L21.3712 25.9062L19.4609 25.4609L20.3584 26.444Z" fill="#7C868A"/>
<path d="M18.1953 26.1053L19.4612 25.4609L20.3587 26.444L18.1953 26.1053Z" fill="#A7A9B5"/>
<path d="M18.8047 27.092L20.3587 26.4442L18.1953 26.1055L18.8047 27.092Z" fill="#94969E"/>
<path d="M16.8516 27.7955L18.8526 27.6628L20.0382 27.0604L21.3757 25.9062L20.363 26.4441L18.809 27.0919L16.8516 27.7955Z" fill="#080A0B"/>
<path d="M17.3081 24.707L17.5875 24.8223L16.5625 25.6098L17.3081 24.707Z" fill="#2A242D"/>
<path d="M15.4349 25.2228L15.4297 23.9149L16.2958 22.752C16.2958 22.752 15.8645 22.7031 15.4297 22.7031V23.9289" fill="#696379"/>
<path d="M15.4297 26.291V27.1868L15.9465 26.6874L15.4297 26.291Z" fill="#333235"/>
<path d="M21.3754 25.9062L20.8438 26.1878V26.3644L21.3754 25.9062Z" fill="#535B5C"/>
<path d="M20.3602 26.4442L20.0703 27.0309L20.8421 26.3639V26.1875L20.3602 26.4442Z" fill="#212D2D"/>
<path d="M18.8516 27.6621L20.362 26.4434L20.0721 27.0301L18.8516 27.6621Z" fill="#0F1917"/>
<path d="M17.3131 24.7031L16.5622 25.6094L16 25.0733L17.3131 24.7031Z" fill="#171618"/>
<path d="M15.4297 26.293V25.2261L16.0024 25.0742L15.7405 25.6382L15.4297 26.293Z" fill="#0B0C0F"/>
<path d="M17.0693 27.2521L16.8493 27.7951L15.4297 27.1875L17.0693 27.2521Z" fill="#26262D"/>
<path d="M16 25.073L16.4453 24.2715L17.3078 24.7063L16 25.073Z" fill="#030405"/>
<path d="M15.4297 23.916L16.0024 25.0737L16.4477 24.2722L15.4297 23.916Z" fill="#0C0E10"/>
<path d="M15.4297 23.916V25.2256L16.0024 25.0737L15.4297 23.916Z" fill="#030405"/>
<path d="M14.4219 24.273L14.572 22.7539L15.4381 23.9168L14.4219 24.273Z" fill="#736E84"/>
<path d="M13.2969 23.5833L14.5663 22.7539L14.4161 24.273L13.2969 23.5833Z" fill="#615C71"/>
<path d="M13.4523 22.7976L14.5663 22.7539L13.2969 23.5833L13.4523 22.7976Z" fill="#504B59"/>
<path d="M12.2656 23.0466L13.3011 23.5826L13.4565 22.7969L12.2656 23.0466Z" fill="#3C3943"/>
<path d="M11.8203 22.8691L12.3843 23.9482L12.2638 23.0472L11.8203 22.8691Z" fill="#030505"/>
<path d="M13.3011 23.5829L12.3861 23.9479L12.2656 23.0469L13.3011 23.5829Z" fill="#201C27"/>
<path d="M13.5545 24.7065L13.2978 23.582L12.3828 23.947L13.5545 24.7065Z" fill="#110E16"/>
<path d="M11.8203 22.8691L12.3843 23.9482L13.556 24.7078L14.1392 25.5075L13.2766 24.823L12.2865 24.2503L11.8203 22.8691Z" fill="#5C5B62"/>
<path d="M11.6406 23.6689L11.8187 22.8691L12.2849 24.2503L13.275 24.823L14.3 25.6105L13.1248 24.9924L12.1295 24.4406L11.6406 23.6689Z" fill="#2A292E"/>
<path d="M13.5536 24.7065L14.4161 24.2717L13.2969 23.582L13.5536 24.7065Z" fill="#0C0E10"/>
<path d="M14.8591 25.0742L14.2969 25.6103L15.4301 26.293L14.8591 25.0742Z" fill="#030405"/>
<path d="M14.2969 25.6094L14.915 26.6885L15.4301 26.2921L14.2969 25.6094Z" fill="#4C4D52"/>
<path d="M13.7999 27.2527L14.9226 26.6887L12.6719 26.1055L13.7999 27.2527Z" fill="#5A5F64"/>
<path d="M14.3045 25.6094L12.6719 26.1053L14.9226 26.6885L14.3045 25.6094Z" fill="#696D73"/>
<path d="M15.4347 27.1908L14.9196 26.6914L13.7969 27.2554L15.4347 27.1908Z" fill="#3B3B41"/>
<path d="M14.0156 27.7951L15.4335 27.1875V27.7969L14.0156 27.7951Z" fill="#181915"/>
<path d="M12.0625 27.0938L13.7999 27.2544L15.4377 27.1898L14.0199 27.7974L12.0625 27.0938Z" fill="#27292A"/>
<path d="M12.6719 26.1055L12.0625 27.092L13.7999 27.2527L12.6719 26.1055Z" fill="#73767D"/>
<path d="M12.974 24.9062L12.6719 26.1076L14.3045 25.6117L14.1421 25.5087L12.974 24.9062Z" fill="#7D8187"/>
<path d="M11.6455 23.668L11.4062 25.4612L12.1344 24.4398L11.6455 23.668Z" fill="#ACADB7"/>
<path d="M12.9743 24.9059L12.1344 24.4414L11.4062 25.4629L12.9743 24.9059Z" fill="#AEB6C0"/>
<path d="M12.6722 26.1076L11.4062 25.4633L12.9743 24.9062L12.6722 26.1076Z" fill="#9EA2AC"/>
<path d="M11.6417 23.668L11.4024 25.4612L9.49219 25.9065L11.6417 23.668Z" fill="#A0A3A9"/>
<path d="M10.5049 26.444L9.49219 25.9062L11.4024 25.4609L10.5049 26.444Z" fill="#7C868A"/>
<path d="M12.6634 26.1053L11.3975 25.4609L10.5 26.444L12.6634 26.1053Z" fill="#A7A9B5"/>
<path d="M12.054 27.092L10.5 26.4442L12.6634 26.1055L12.054 27.092Z" fill="#94969E"/>
<path d="M14.0164 27.7955L12.0153 27.6628L10.8297 27.0604L9.49219 25.9062L10.5049 26.4441L12.059 27.0919L14.0164 27.7955Z" fill="#080A0B"/>
<path d="M13.5528 24.707L13.2734 24.8223L14.2984 25.6098L13.5528 24.707Z" fill="#2A242D"/>
<path d="M15.4311 25.2247L15.4364 23.9169L14.5703 22.754C14.5703 22.754 15.0016 22.7051 15.4364 22.7051V23.9308" fill="#696379"/>
<path d="M15.437 26.293V27.1887L14.9219 26.6893L15.437 26.293Z" fill="#333235"/>
<path d="M9.49219 25.9062L10.0238 26.1878V26.3644L9.49219 25.9062Z" fill="#535B5C"/>
<path d="M10.5054 26.4442L10.7952 27.0309L10.0234 26.3639V26.1875L10.5054 26.4442Z" fill="#212D2D"/>
<path d="M12.0104 27.6641L10.5 26.4453L10.7899 27.032L12.0104 27.6641Z" fill="#0F1917"/>
<path d="M13.5469 24.7031L14.2977 25.6094L14.86 25.0733L13.5469 24.7031Z" fill="#171618"/>
<path d="M15.4304 26.293V25.2261L14.8594 25.0742L15.1161 25.626L15.4304 26.293Z" fill="#0B0C0F"/>
<path d="M13.7969 27.2521L14.0169 27.7951L15.4347 27.1875L13.7969 27.2521Z" fill="#26262D"/>
<path d="M14.8625 25.0749L14.4173 24.2734L13.5547 24.7082L14.8625 25.0749Z" fill="#030405"/>
<path d="M15.4381 23.918L14.8671 25.0756L14.4219 24.2742L15.4381 23.918Z" fill="#0C0E10"/>
<path d="M15.4304 23.918V25.2276L14.8594 25.0756L15.4304 23.918Z" fill="#030405"/>
<path d="M10.3281 13.7578L10.3421 14.3629L10.7601 14.1006L10.3281 13.7578Z" fill="#9A93B0"/>
<path d="M9.9375 13.7998V14.0254L10.3467 14.3629L10.3327 13.7578L9.9375 13.7998Z" fill="#B8B3CD"/>
<path d="M20.3845 12.1115L19.9951 11.2891L19.0312 11.8705L20.3845 12.1115Z" fill="#4D4B61"/>
<path d="M19.7803 13.0235L20.3845 12.1121L19.0312 11.8711L19.7803 13.0235Z" fill="#464355"/>
<path d="M19.349 13.7412L19.0312 11.8711L19.7803 13.0235L19.349 13.7412Z" fill="#373547"/>
<path d="M18.1953 12.372C18.1953 12.372 18.2215 13.4075 18.3158 13.61C18.3158 13.61 18.4206 13.2014 18.5864 12.7492C18.7034 12.4331 18.8449 12.0944 19.0282 11.8691L18.1953 12.372Z" fill="#23222B"/>
<path d="M19.3427 13.741L18.3125 13.61C18.3125 13.61 18.6722 12.173 19.0249 11.8691L19.3427 13.741Z" fill="#27252F"/>
<path d="M19.4841 14.4248L19.3427 13.7403L18.3125 13.6094C18.3125 13.6094 18.5325 14.5104 18.653 14.7636L19.4841 14.4248Z" fill="#18171D"/>
<path d="M21.1258 12.8257L21.0821 12.2268L20.3854 12.1133L19.7812 13.0248C19.7812 13.0248 20.2929 12.6179 20.5408 12.6092C20.7888 12.5987 21.1258 12.8257 21.1258 12.8257Z" fill="#454156"/>
<path d="M21.5356 11.6094L21.9093 13.5284L21.1218 12.8264L21.0781 12.2258L21.5356 11.6094Z" fill="#302B3C"/>
<path d="M23.3315 15.6851L22.4375 14.4856L23.2774 14.166L23.3315 15.6851Z" fill="#313241"/>
<path d="M24.8982 15.837L23.3354 15.6851L23.2812 14.166L24.8982 15.837Z" fill="#1E1F29"/>
<path d="M25.736 17.2047L24.2605 16.7472L23.3281 15.6855L24.8909 15.8375L25.736 17.2047Z" fill="#121015"/>
<path d="M22.4392 14.4863L22.2891 15.4467L23.3332 15.6859L22.4392 14.4863Z" fill="#3D3C4F"/>
<path d="M22.6488 16.4755L23.3332 15.6845L22.2891 15.4453L22.6488 16.4755Z" fill="#30313D"/>
<path d="M23.0312 17.3601L24.2623 16.7472L23.3298 15.6855L23.0312 17.3601Z" fill="#181720"/>
<path d="M24.9362 18.834L21.5312 18.9108L23.2721 19.9637L24.9362 18.834Z" fill="#030505"/>
<path d="M24.2656 16.748L24.9431 18.8347L25.7411 17.2055L24.2656 16.748Z" fill="#070809"/>
<path d="M23.0312 17.3609L24.9398 18.8347L24.2623 16.748L23.0312 17.3609Z" fill="#0C0C10"/>
<path d="M21.5312 18.9119L23.0277 17.3613L24.9362 18.835L21.5312 18.9119Z" fill="#110F16"/>
<path d="M21.4375 16.8711L21.5318 18.9106L23.0282 17.36L21.4375 16.8711Z" fill="#15121E"/>
<path d="M22.6484 16.4765L23.0343 17.3601L23.3329 15.6855L22.6484 16.4765Z" fill="#1F1E2C"/>
<path d="M21.4375 16.8712L22.6423 16.4766L23.0282 17.3601L21.4375 16.8712Z" fill="#1B1926"/>
<path d="M22.2856 15.4453L21.3828 15.9604L22.6453 16.4755L22.2856 15.4453Z" fill="#23242E"/>
<path d="M21.4404 16.8707L21.3828 15.9609L22.6453 16.476L21.4404 16.8707Z" fill="#221C2F"/>
<path d="M20.2812 17.9888L21.4372 16.873L21.5297 18.9125C21.5315 18.9108 21.0094 18.6436 20.2812 17.9888Z" fill="#13121A"/>
<path d="M19.5625 16.9863L21.4396 16.8711L20.2836 17.9869C20.2836 17.9886 20.0217 17.8437 19.5625 16.9863Z" fill="#0E0D17"/>
<path d="M19.6515 14.8929L18.6562 14.7637L19.0666 16.0506L19.6515 14.8929Z" fill="#403C53"/>
<path d="M19.4874 14.4258L19.6515 14.8937L18.6562 14.7645L19.4874 14.4258Z" fill="#2F2E39"/>
<path d="M20.2394 15.5753L19.6474 14.8926L19.0625 16.0503L20.2394 15.5753Z" fill="#4C495F"/>
<path d="M19.5602 16.987L20.2377 15.5762L19.0625 16.0494C19.0608 16.0511 19.2057 16.5086 19.5602 16.987Z" fill="#261F33"/>
<path d="M21.3841 15.9621L20.2422 15.5762L21.4418 16.8718L21.3841 15.9621Z" fill="#191526"/>
<path d="M19.5625 16.987L21.4396 16.8718L20.24 15.5762L19.5625 16.987Z" fill="#11101F"/>
<path d="M21.2188 13.83L20.5797 13.7637L20.1484 14.1042L20.5658 14.3678L21.2188 13.83Z" fill="#D6CEE7"/>
<path d="M21.2948 13.4064L21.2232 13.8289L20.5841 13.7626L20.4531 13.5007L20.7447 13.3086L21.2948 13.4064Z" fill="#0B0B12"/>
<path d="M19.4852 14.4256L19.3438 13.7411L19.7768 13.0252C19.7768 13.0252 20.2343 12.6184 20.5363 12.6096C20.8384 12.6009 21.123 12.8279 21.123 12.8279L21.9088 13.5298V13.8109L21.8948 14.0484L21.8878 14.1322C21.8878 14.1322 21.5351 13.4233 21.0602 13.1125C20.5852 12.8017 19.9392 13.3465 19.7593 13.6852C19.5533 14.0659 19.4852 14.4256 19.4852 14.4256Z" fill="#050607"/>
<path d="M21.2188 13.8291L21.5558 14.4874L21.7426 14.03C21.7426 14.03 21.4562 13.4206 21.2973 13.3105L21.2188 13.8291Z" fill="#1D1A39"/>
<path d="M19.652 14.8923C19.652 14.8923 19.9419 13.7626 20.4517 13.5007L20.7678 13.3138L21.2934 13.4064L21.7456 14.028L21.77 13.918L21.5448 13.5583L21.3003 13.237L20.8149 12.9297L20.216 13.1514C20.216 13.1514 19.5769 13.6107 19.4844 14.4244L19.652 14.8923Z" fill="#5D5A71"/>
<path d="M21.908 13.5273L22.4371 14.486L22.2869 15.4463L21.3859 15.9614L20.2422 15.5773C20.2422 15.5773 20.8044 15.5214 21.2706 15.2822C21.7456 15.0377 21.8154 14.7688 21.8608 14.4074C21.9132 13.9813 21.908 13.5273 21.908 13.5273Z" fill="#0B0B0E"/>
<path d="M20.4482 13.502L20.5791 13.7639L20.1478 14.1061L20.4709 14.3087L19.6484 14.8936C19.6484 14.8936 19.8196 14.2301 19.9959 13.9542C20.2404 13.5701 20.4482 13.502 20.4482 13.502Z" fill="#1B1731"/>
<path d="M21.5375 11.6086L20.3816 12.1115L19.9922 11.2891L21.5375 11.6086Z" fill="#403B4E"/>
<path d="M21.0734 12.2258L21.5309 11.6094L20.375 12.1123L21.0734 12.2258Z" fill="#393445"/>
<path d="M21.5312 11.6094L21.9049 13.5284L22.2332 12.6396L21.5312 11.6094Z" fill="#27242A"/>
<path d="M23.2774 14.1674L22.647 13.2402L22.4375 14.487L23.2774 14.1674Z" fill="#1A1421"/>
<path d="M21.9062 13.5283L22.6431 13.2402L22.4336 14.487L21.9062 13.5283Z" fill="#0E0D12"/>
<path d="M22.2345 12.6387L22.6431 13.2393L21.9062 13.5274L22.2345 12.6387Z" fill="#21202C"/>
<path d="M19.7734 13.0228L20.3776 12.1113L20.533 12.6072C20.5347 12.6072 20.2519 12.5688 19.7734 13.0228Z" fill="#383143"/>
<path d="M23.3354 15.6851L24.0618 14.9727L23.2812 14.166L23.3354 15.6851Z" fill="#252632"/>
<path d="M20.8186 12.9297L20.7678 13.3144L20.4496 13.5015L20.2188 13.1518L20.8186 12.9297Z" fill="#6F6783"/>
<path d="M21.2891 13.4079V13.2402L21.4969 13.5161L21.7326 14.012L21.2891 13.4079Z" fill="#6F6783"/>
<path d="M21.2182 13.8301L21.5569 14.4866L21.4347 14.9738L21.0576 15.2217L20.5372 15.3632H20.1897L19.6484 14.8935L20.4709 14.3068L20.5651 14.3679L21.2182 13.8301Z" fill="#0D0C16"/>
<path d="M19.9157 14.1025L19.6468 13.8633C19.6468 13.8633 19.5053 14.1374 19.4844 14.4238L19.6468 14.8917C19.6485 14.8935 19.8511 14.1846 19.9157 14.1025Z" fill="#4A4460"/>
<path d="M21.7741 13.918C21.7741 13.918 21.8248 14.0002 21.8405 14.0264C21.8563 14.0526 21.893 14.1296 21.893 14.1296C21.893 14.1296 21.8685 14.502 21.8371 14.5842L21.5625 14.4863L21.7409 14.0089L21.7741 13.918Z" fill="#241F43"/>
<path d="M21.8363 14.5843L21.5618 14.4863L21.4219 14.9375L21.5181 15.1281C21.5163 15.1299 21.7646 15.0022 21.8363 14.5843Z" fill="#777095"/>
<path d="M20.9735 15.4072C20.9735 15.4072 21.3367 15.2972 21.5113 15.1278L21.4153 14.9375L21.0468 15.1855L20.6016 15.2762L20.9735 15.4072Z" fill="#A1A0B9"/>
<path d="M20.2464 15.5753C20.2464 15.5753 20.6306 15.5526 20.9816 15.4059L20.6096 15.2732C20.6096 15.2732 20.1696 15.2837 20.1207 15.2593C20.0701 15.2331 19.6562 14.8926 19.6562 14.8926L20.2464 15.5753Z" fill="#B7B2D9"/>
<path d="M20.5882 13.7637L20.5759 14.3687L20.1562 14.1047L20.5882 13.7637Z" fill="#9A93B0"/>
<path d="M20.9795 13.8039V14.0312L20.5703 14.3687L20.5826 13.7637L20.9795 13.8039Z" fill="#B8B3CD"/>
<path d="M49.46 19.5209H48.8638L48.2818 14.4394C48.061 12.4666 47.9099 10.9283 47.8296 9.82319L43.7694 19.3827H43.2027L39.3397 9.82319C39.2818 10.8244 39.1661 12.1526 38.9914 13.8043L38.9394 14.4087L38.4176 19.5209H37.7812L38.8308 8.9082H39.5805L43.5038 18.4689L47.5628 8.9082H48.3125L49.46 19.5209Z" fill="#020202" stroke="#020202" stroke-width="0.338778"/>
<path d="M57.2678 11.5175C57.1592 8.8729 54.4957 8.88234 52.3587 8.88942H52.0777C51.9278 8.88942 51.7873 8.89533 51.6563 8.9154V9.55766C51.6563 9.55766 51.6562 9.55766 51.6574 9.55766C51.6574 9.55766 51.6574 14.135 51.6563 14.135V14.7867L51.6574 19.5434H52.2359L52.2371 14.841V14.1987L52.2359 9.52932H52.3623C52.413 9.52932 52.465 9.52578 52.5157 9.52578C53.7011 9.52578 54.7105 9.57065 55.4319 9.84573C56.1533 10.1173 56.5913 10.6214 56.6291 11.5447C56.6645 12.3628 56.4602 13.0075 56.0258 13.4608C55.5464 13.959 54.7837 14.423 53.8121 14.423H52.9939V14.8599H53.8121C54.962 14.8599 55.7282 14.4915 56.3292 13.8658C56.8876 13.2825 57.3091 12.514 57.2678 11.5175Z" fill="#020202" stroke="#020202" stroke-width="0.338778"/>
<defs>
<linearGradient id="paint0_linear_3955_126942" x1="15.449" y1="0.906721" x2="15.449" y2="37.239" gradientUnits="userSpaceOnUse">
<stop stop-color="#E9E7E8"/>
<stop offset="0.7998" stop-color="#9C9A9C"/>
</linearGradient>
<linearGradient id="paint1_linear_3955_126942" x1="9.48369" y1="25.4598" x2="21.3707" y2="25.4598" gradientUnits="userSpaceOnUse">
<stop stop-color="#E9E7E8"/>
<stop offset="0.5011" stop-color="#333235"/>
<stop offset="1" stop-color="#A0A3A9"/>
</linearGradient>
</defs>
</svg>
