<svg width="58" height="31" viewBox="0 0 58 31" fill="none" xmlns="http://www.w3.org/2000/svg">
<path d="M0.478435 14.6823L1.86485 10.1686L4.35306 6.56111L6.50253 4.18115L7.74577 3.22079L11.9923 1.42578H15.6085H18.9052L23.2757 3.30984L24.5556 4.32259L26.5636 6.57856L28.9977 10.1686L30.3841 14.5042L30.8992 18.8922L30.3841 22.3582L27.6462 26.2486L24.4124 28.4347L20.2968 29.9381L15.4304 30.5196L10.5954 29.8857L6.59158 28.4574L3.25127 26.2433L0.550026 22.3128L0 18.6442L0.478435 14.6823L1.86485 10.1686L4.35306 6.56111L6.50253 4.18115L7.74577 3.22079L11.9923 1.42578H18.9052L23.2757 3.30984L24.5556 4.32259" fill="url(#paint0_linear_3080_101537)"/>
<path d="M5.17773 17.7213L6.02111 16.3523L7.63801 14.6813L9.37889 12.1232L10.9242 11.8037L12.7192 12.888L12.6895 13.5393L12.6214 14.0579L12.5987 14.126L12.2582 15.2802L11.8479 16.5671C11.8479 16.5671 11.586 17.2795 11.3485 17.503C11.111 17.7265 11.3485 17.503 11.3485 17.503C11.3485 17.503 10.905 18.3499 10.6274 18.5053C10.3497 18.659 10.6274 18.5053 10.6274 18.5053L10.0896 18.954L9.37889 19.4272L7.63801 20.4802L5.97396 19.3504L5.17773 17.7213L6.02111 16.3523L7.63801 14.6813" fill="#1A1421"/>
<path d="M25.6821 17.7213L24.8387 16.3523L23.2218 14.6813L21.4809 12.1232L19.9356 11.8037L18.1406 12.888L18.1703 13.5393L18.2384 14.0579L18.2611 14.126L18.6016 15.2802L19.0119 16.5671C19.0119 16.5671 19.2739 17.2795 19.5113 17.503C19.7488 17.7265 19.5113 17.503 19.5113 17.503C19.5113 17.503 19.9548 18.3499 20.2325 18.5053C20.5101 18.659 20.2325 18.5053 20.2325 18.5053L20.7703 18.954L21.4809 19.4272L23.2218 20.4802L24.8859 19.3504L25.6821 17.7213L24.8387 16.3523L23.2218 14.6813" fill="#1A1421"/>
<path d="M11.8168 23.3883L12.2603 23.5664L13.4511 23.3185L14.5669 23.2748C14.5669 23.2748 15.1658 23.2207 15.433 23.2259C15.7001 23.2312 16.2991 23.2748 16.2991 23.2748L17.4148 23.3185L18.6057 23.5664L19.0492 23.3883L19.2273 24.1881L18.7384 24.9616L15.433 26.8142L12.1276 24.9616L11.6387 24.1881L11.8168 23.3883L12.2603 23.5664L13.4511 23.3185" fill="#504B59"/>
<path d="M11.6377 24.1885L9.48828 26.427L10.501 26.9648L12.0551 27.6126L13.7925 27.7733L15.4303 27.7086L17.0699 27.7733L18.8073 27.6126L21.3741 26.427L19.2246 24.1885L18.7357 24.9603L16.5653 26.1302L15.4303 26.8129L14.2971 26.1302L12.9665 25.4247L12.1267 24.9603L11.6377 24.1885L9.48828 26.427Z" fill="url(#paint1_linear_3080_101537)"/>
<path d="M9.48828 26.4268L10.0191 26.8842L10.8258 27.5809L12.0114 28.1833L14.0125 28.3161H16.8499L18.851 28.1833L20.0366 27.5809L21.3741 26.4268L20.3613 26.9646L18.8073 27.6124L17.0699 27.773L15.4303 27.7084L13.7925 27.773L12.0551 27.6124L10.501 26.9646L9.48828 26.4268Z" fill="#27292A"/>
<path d="M15.4309 24.4363L16.4488 24.7925L17.5681 24.1028L18.6036 23.5668L19.0471 23.3887L18.4831 24.4678L17.3114 25.2273L16.5658 26.1301L15.4309 26.8128L14.2976 26.1301L13.552 25.2273L12.3804 24.4678L11.8164 23.3887L12.2599 23.5668L13.2954 24.1028L14.4146 24.7925L15.4309 24.4363Z" fill="#030405"/>
<path d="M23.2754 3.30982L26.146 0.519531L29.2279 1.91468L30.3838 4.26844L30.7732 7.11286L28.9974 10.1686L26.5633 6.57855L24.5553 4.32257L23.2754 3.30982Z" fill="#272530"/>
<path d="M7.74691 3.22083L4.80645 0.52832L1.72456 1.9322L0.542439 4.1812L0.142578 7.13911L1.86599 10.1686L4.35421 6.56115L6.50368 4.1812L7.74691 3.22083Z" fill="#302F3B"/>
<path d="M7.35352 7.43262L9.38076 12.1227L11.8498 8.60426L7.35352 7.43262Z" fill="#D7D3D1"/>
<path d="M5.34766 11.2706L7.35394 7.43262L9.38118 12.1227L5.34766 11.2706Z" fill="#E1DDDB"/>
<path d="M7.6403 14.6824L5.34766 11.2705L9.38118 12.1226L7.6403 14.6824Z" fill="#BEBFBB"/>
<path d="M4.01367 14.6816H7.63861L6.02171 16.3509L5.17833 17.7199L4.01367 14.6816Z" fill="#C0C0BF"/>
<path d="M7.35502 7.43262L1.86523 10.1688L5.34873 11.2706L7.35502 7.43262Z" fill="#D9D9D9"/>
<path d="M11.9926 1.42578L7.74609 3.22079L11.8512 4.87261L11.9926 1.42578Z" fill="#E8E7E5"/>
<path d="M15.6092 1.42578L11.8516 4.87261L11.993 1.42578H15.6092Z" fill="#EDEDED"/>
<path d="M18.9041 1.42578L18.9931 4.9442L15.6074 1.42578H18.9041Z" fill="#EEEEEE"/>
<path d="M11.8516 4.87261L15.4433 4.9442H18.9949L15.6092 1.42578L11.8516 4.87261Z" fill="#E9E7E8"/>
<path d="M23.2768 3.30984L18.9953 4.9442L18.9062 1.42578L23.2768 3.30984Z" fill="#E8E7E5"/>
<path d="M15.4199 4.94434H18.9925L19.1706 8.67578L15.4199 4.94434Z" fill="#E0E0DE"/>
<path d="M23.6842 7.43255L18.9941 4.94434L19.1722 8.67578L23.6842 7.43255Z" fill="#E1E1E0"/>
<path d="M11.8499 8.60449L12.7212 12.8877L10.9262 11.8034L9.38086 12.1229L11.8499 8.60449Z" fill="#D9D9D9"/>
<path d="M15.4224 8.87165L12.7229 12.8877L11.8516 8.60449L15.4224 8.87165Z" fill="#D6D6D3"/>
<path d="M18.1962 12.8969L19.1706 8.6748L15.4199 8.87037L18.1962 12.8969Z" fill="#D6D6D3"/>
<path d="M21.5376 12.1321L19.1716 8.6748L18.1973 12.8969L19.9923 11.8161L21.5376 12.1321Z" fill="#D9D9D9"/>
<path d="M23.6838 7.43262L21.5379 12.1332L19.1719 8.67585L23.6838 7.43262Z" fill="#E1DDDB"/>
<path d="M25.5532 11.2803L21.5371 12.1324L23.6883 7.44238L25.5532 11.2803Z" fill="#D7D3D1"/>
<path d="M28.999 10.1688L25.5521 11.2706L23.6855 7.43262L28.999 10.1688Z" fill="#D9D9D9"/>
<path d="M23.2797 14.6912L21.5371 12.1331L25.5497 11.2705L23.2797 14.6912Z" fill="#BEBFBB"/>
<path d="M30.3843 14.5046L28.9979 10.1689L27.168 14.6827L30.3843 14.5046Z" fill="#CECCD1"/>
<path d="M25.7415 17.7313L24.8755 16.3519L23.2812 14.6914L27.1681 14.6826L25.7415 17.7313Z" fill="#C0C0BF"/>
<path d="M30.8996 18.8919L30.3845 14.5039L28.998 18.822L30.8996 18.8919Z" fill="#B9B8BF"/>
<path d="M26.741 21.7894L28.9987 18.8228L25.7422 17.7314L26.741 21.7894Z" fill="#B3B3B2"/>
<path d="M30.3845 22.3581L30.8996 18.8921L28.998 18.8223L30.3845 22.3581Z" fill="#B0AEB3"/>
<path d="M26.7402 21.7889L30.3844 22.3581L28.998 18.8223L26.7402 21.7889Z" fill="#A4A2A2"/>
<path d="M27.6465 26.2486L30.3844 22.3583L26.7402 21.7891L27.6465 26.2486Z" fill="#A9A9A9"/>
<path d="M23.2812 20.4886L24.9296 19.3187L25.7415 17.7314L26.7403 21.7894L23.2812 20.4886Z" fill="#BCBEBB"/>
<path d="M24.4141 24.1882L26.7416 21.7891L27.6479 26.2486L24.4141 24.1882Z" fill="#B4B5B5"/>
<path d="M24.4141 28.435V24.1885L27.6479 26.2489L24.4141 28.435Z" fill="#ACACAC"/>
<path d="M21.375 26.427L24.4132 24.1885V28.435L21.375 26.427Z" fill="#B2B0B6"/>
<path d="M21.5373 19.4346L23.28 20.4875L19.793 21.3518L21.5373 19.4346Z" fill="#C7C6C9"/>
<path d="M26.7403 21.7891L24.4127 24.1883L23.2812 20.4883L26.7403 21.7891Z" fill="#C7C6C9"/>
<path d="M19.793 21.3526L23.28 20.4883L24.4114 24.1883L19.793 21.3526Z" fill="#C3C3C3"/>
<path d="M19.2246 24.1885H24.4123L21.3741 26.427L19.2246 24.1885Z" fill="#BBB9BE"/>
<path d="M19.7942 21.3525L19.0469 23.3885L19.225 24.1882H24.4127L19.7942 21.3525Z" fill="#CECCD1"/>
<path d="M17.4121 23.3169L19.7938 21.3525L19.0465 23.3885L18.603 23.5666L17.4121 23.3169Z" fill="#DEDDE1"/>
<path d="M15.4202 14.0413L12.7207 12.8872L15.4202 8.87109L18.1965 12.8976L15.4202 14.0413Z" fill="#CFCDCD"/>
<path d="M11.8516 16.565L15.4224 14.0419L12.7211 12.8877C12.7211 12.8877 12.7561 13.759 12.454 14.6827C12.1536 15.6064 11.8516 16.565 11.8516 16.565Z" fill="#D3D1D5"/>
<path d="M18.198 12.8975C18.198 12.8975 18.212 13.9032 18.4948 14.7256C18.7655 15.5096 19.0676 16.5748 19.0676 16.5748L15.4199 14.0412L18.198 12.8975Z" fill="#D3D1D5"/>
<path d="M15.4224 17.6485L11.8516 16.5641L15.4224 14.041L19.07 16.5746L15.4224 17.6485Z" fill="#DCDBE0"/>
<path d="M9.38086 19.4263L15.4224 17.6488L11.8516 16.5645C11.8516 16.5645 11.2475 17.8077 10.8039 18.3228C10.3604 18.8379 9.38086 19.4263 9.38086 19.4263Z" fill="#DDDDE4"/>
<path d="M21.5505 19.4441L15.4199 17.6491L19.0676 16.5752C19.0676 16.5752 19.4273 17.2667 20.0401 18.0751C20.653 18.8836 21.5505 19.4441 21.5505 19.4441Z" fill="#DEDDE2"/>
<path d="M11.1055 21.3519H19.7941L15.4219 17.6484L11.1055 21.3519Z" fill="#DDDCE1"/>
<path d="M21.5505 19.4434L19.7922 21.3519L15.4199 17.6484L21.5505 19.4434Z" fill="#DAD9DE"/>
<path d="M11.1043 21.3519L15.4207 17.6484L9.38086 19.426L11.1043 21.3519Z" fill="#DAD9DD"/>
<path d="M17.4105 23.3169L15.4199 21.3525H19.7922L17.4105 23.3169Z" fill="#D0D0D3"/>
<path d="M13.4492 23.3169L15.4223 21.3525L17.4129 23.3169C17.4129 23.3169 15.8362 23.2453 15.4765 23.2453C15.115 23.2453 13.4492 23.3169 13.4492 23.3169Z" fill="#D9DBDC"/>
<path d="M11.1055 21.3525L13.4505 23.3169L15.4219 21.3525H11.1055Z" fill="#D0D0D3"/>
<path d="M11.8161 23.3885L11.1055 21.3525L13.4505 23.3169L12.2597 23.5666L11.8161 23.3885Z" fill="#DEDDE2"/>
<path d="M1.86493 10.1689L0.478516 14.6827H4.0144L1.86493 10.1689Z" fill="#CECCD1"/>
<path d="M5.17936 17.7209L1.86523 18.8227L4.0147 14.6826L5.17936 17.7209Z" fill="#CAC8C8"/>
<path d="M0.478516 14.6826L1.86493 18.8227L4.0144 14.6826H0.478516Z" fill="#C8C6CC"/>
<path d="M0 18.6436L0.478435 14.6816L1.86485 18.8217L0 18.6436Z" fill="#BAB8BD"/>
<path d="M0.550026 22.3121L0 18.6436L1.86485 18.8217L0.550026 22.3121Z" fill="#B0AEB3"/>
<path d="M4.17376 21.7173L1.86365 18.8223L0.548828 22.3128L4.17376 21.7173Z" fill="#A4A2A2"/>
<path d="M5.17936 17.7207L4.17535 21.7176L1.86523 18.8225L5.17936 17.7207Z" fill="#B3B3B2"/>
<path d="M7.64007 20.4778L4.17578 21.7176L5.1798 17.7207L5.97603 19.3481L7.64007 20.4778Z" fill="#BCBEBB"/>
<path d="M3.25007 26.2437L0.548828 22.3132L4.17376 21.7178L3.25007 26.2437Z" fill="#A9A9A9"/>
<path d="M6.50846 24.1885L4.17565 21.7178L3.25195 26.2437L6.50846 24.1885Z" fill="#B4B5B5"/>
<path d="M7.63867 20.4779L11.1047 21.3527L9.38129 19.4268L7.63867 20.4779Z" fill="#C7C6C9"/>
<path d="M6.50859 24.188L7.64007 20.4775L4.17578 21.7173L6.50859 24.188Z" fill="#C7C6C9"/>
<path d="M11.1053 21.3523L6.50781 24.188L7.63929 20.4775L11.1053 21.3523Z" fill="#C3C3C3"/>
<path d="M11.6379 24.1882H6.50781L11.1053 21.3525L11.816 23.3885L11.6379 24.1882Z" fill="#CECCD1"/>
<path d="M9.48843 26.427L6.50781 24.1885H11.6379L9.48843 26.427Z" fill="#BBB9BE"/>
<path d="M6.59163 28.4577L9.48843 26.427L6.50781 24.1885L6.59163 28.4577Z" fill="#B2B0B6"/>
<path d="M3.25195 26.2437L6.50846 24.1885L6.59227 28.4577L3.25195 26.2437Z" fill="#ACACAC"/>
<path d="M10.5956 29.8858L6.5918 28.4575L9.4886 26.4268L10.5956 29.8858Z" fill="#A4A2A7"/>
<path d="M24.4125 28.4348L20.2969 29.9382L21.3742 26.4268L24.4125 28.4348Z" fill="#A4A1A7"/>
<path d="M16.8496 28.3161L20.2964 29.9382L21.3738 26.4268L20.0363 27.5809L18.8507 28.1833L16.8496 28.3161Z" fill="#9C9A9C"/>
<path d="M15.4297 30.519L16.8493 28.3154L20.2961 29.9376L15.4297 30.519Z" fill="#A4A1A3"/>
<path d="M15.4297 28.3154H16.8493L15.4297 30.519V28.3154Z" fill="#99999B"/>
<path d="M10.5957 29.8852L14.0129 28.3154L15.4307 30.519L10.5957 29.8852Z" fill="#A4A1A3"/>
<path d="M9.48828 26.4268L10.8258 27.5809L12.0114 28.1833L14.0125 28.3161L10.5953 29.8858L9.48828 26.4268Z" fill="#9C9A9C"/>
<path d="M23.2754 3.30982L26.146 0.519531L26.9894 2.97282L23.2754 3.30982Z" fill="#423E4F"/>
<path d="M29.2284 1.91468L26.1465 0.519531L26.9899 2.97282L29.2284 1.91468Z" fill="#333241"/>
<path d="M30.3866 4.2688L29.2307 1.91504L26.9922 2.97318L30.3866 4.2688Z" fill="#21202C"/>
<path d="M24.5553 4.32241L26.9894 2.97266L23.2754 3.30966L24.5553 4.32241Z" fill="#343342"/>
<path d="M26.5625 6.57866L30.383 4.26855L30.7724 7.11297L26.5625 6.57866Z" fill="#1D1B2D"/>
<path d="M26.9886 2.97266L26.5625 6.57838L30.383 4.26828L26.9886 2.97266Z" fill="#272530"/>
<path d="M24.5547 4.32241L26.9888 2.97266L26.5627 6.57838L24.5547 4.32241Z" fill="#302F3B"/>
<path d="M30.7724 7.11341L28.9966 10.1691L26.5625 6.5791L30.7724 7.11341Z" fill="#0A0B0D"/>
<path d="M7.74616 3.22083L4.80571 0.52832L3.9082 2.93621L7.74616 3.22083Z" fill="#423E4F"/>
<path d="M1.72461 1.9322L4.8065 0.52832L3.909 2.93621L1.72461 1.9322Z" fill="#333241"/>
<path d="M6.50293 4.1815L3.9082 2.93652L7.74616 3.22114L6.50293 4.1815Z" fill="#343342"/>
<path d="M4.35346 6.56146L3.9082 2.93652L6.50293 4.1815L4.35346 6.56146Z" fill="#302F3B"/>
<path d="M1.72509 1.93262L0.542969 4.18161L3.90948 2.93663L1.72509 1.93262Z" fill="#21202C"/>
<path d="M4.35474 6.56146L0.542969 4.1815L3.90948 2.93652L4.35474 6.56146Z" fill="#272530"/>
<path d="M0.142578 7.13858L0.542439 4.18066L4.35421 6.56062L0.142578 7.13858Z" fill="#1D1B2D"/>
<path d="M1.86599 10.169L0.142578 7.13949L4.35421 6.56152L1.86599 10.169Z" fill="#0A0B0D"/>
<path d="M10.5352 12.6279L10.9263 11.8037L11.8884 12.3852L10.5352 12.6279Z" fill="#4D4B61"/>
<path d="M11.1393 13.539L10.5352 12.6275L11.8884 12.3848L11.1393 13.539Z" fill="#464355"/>
<path d="M11.5737 14.2539L11.8897 12.3838L11.1406 13.538L11.5737 14.2539Z" fill="#373547"/>
<path d="M12.7216 12.8876C12.7216 12.8876 12.6954 13.9231 12.6011 14.1256C12.6011 14.1256 12.4963 13.7171 12.3304 13.2648C12.2134 12.9488 12.072 12.61 11.8887 12.3848L12.7216 12.8876Z" fill="#23222B"/>
<path d="M11.5742 14.2546L12.6044 14.1237C12.6044 14.1237 12.2447 12.6866 11.892 12.3828L11.5742 14.2546Z" fill="#27252F"/>
<path d="M11.4297 14.9395L11.5711 14.255L12.6013 14.124C12.6013 14.124 12.3813 15.025 12.2608 15.2782L11.4297 14.9395Z" fill="#18171D"/>
<path d="M9.79297 13.3394L9.83662 12.7404L10.5333 12.627L11.1375 13.5384C11.1375 13.5384 10.6259 13.1316 10.3779 13.1228C10.13 13.1141 9.79297 13.3394 9.79297 13.3394Z" fill="#454156"/>
<path d="M9.38148 12.1221L9.00781 14.0411L9.79356 13.3391L9.83896 12.7402L9.38148 12.1221Z" fill="#302B3C"/>
<path d="M7.58594 16.2017L8.4782 15.0022L7.63832 14.6826L7.58594 16.2017Z" fill="#313241"/>
<path d="M6.02344 16.3509L7.58795 16.2008L7.64034 14.6816L6.02344 16.3509Z" fill="#1E1F29"/>
<path d="M5.17773 17.7203L6.6532 17.2628L7.58563 16.2012L6.02111 16.3513L5.17773 17.7203Z" fill="#121015"/>
<path d="M8.4782 15.002L8.63011 15.9606L7.58594 16.2015L8.4782 15.002Z" fill="#3D3C4F"/>
<path d="M8.27041 16.9902L7.58594 16.2009L8.63011 15.96L8.27041 16.9902Z" fill="#30313D"/>
<path d="M7.88356 17.8757L6.6543 17.2628L7.58672 16.2012L7.88356 17.8757Z" fill="#181720"/>
<path d="M5.97461 19.3477L9.38128 19.4262L7.63866 20.4774L5.97461 19.3477Z" fill="#030505"/>
<path d="M6.6532 17.2627L5.97396 19.3476L5.17773 17.7202L6.6532 17.2627Z" fill="#070809"/>
<path d="M7.88311 17.8756L5.97461 19.3476L6.65385 17.2627L7.88311 17.8756Z" fill="#0C0C10"/>
<path d="M9.38128 19.4265L7.88311 17.876L5.97461 19.348L9.38128 19.4265Z" fill="#110F16"/>
<path d="M9.47352 17.3877L9.38098 19.4272L7.88281 17.8766L9.47352 17.3877Z" fill="#15121E"/>
<path d="M8.27041 16.9904L7.88278 17.8757L7.58594 16.2012L8.27041 16.9904Z" fill="#1F1E2C"/>
<path d="M9.47352 17.3876L8.27045 16.9912L7.88281 17.8765L9.47352 17.3876Z" fill="#1B1926"/>
<path d="M8.63118 15.96L9.53218 16.4751L8.27148 16.9902L8.63118 15.96Z" fill="#23242E"/>
<path d="M9.47456 17.3871L9.53218 16.4756L8.27148 16.9907L9.47456 17.3871Z" fill="#221C2F"/>
<path d="M10.6293 18.5035L9.4734 17.3877L9.38086 19.4272C9.38086 19.4272 9.90295 19.1583 10.6293 18.5035Z" fill="#13121A"/>
<path d="M11.3517 17.5029L9.47461 17.3877L10.6305 18.5035C10.6305 18.5035 10.8942 18.3585 11.3517 17.5029Z" fill="#0E0D17"/>
<path d="M11.2676 15.4075L12.2611 15.2783L11.8508 16.5652L11.2676 15.4075Z" fill="#403C53"/>
<path d="M11.43 14.9395L11.2676 15.4074L12.2611 15.2782L11.43 14.9395Z" fill="#2F2E39"/>
<path d="M10.6758 16.0917L11.2677 15.4072L11.8509 16.5649L10.6758 16.0917Z" fill="#4C495F"/>
<path d="M11.3513 17.5027L10.6738 16.0918L11.849 16.565C11.8507 16.565 11.7058 17.0225 11.3513 17.5027Z" fill="#261F33"/>
<path d="M9.53223 16.4759L10.6759 16.0918L9.47461 17.3874L9.53223 16.4759Z" fill="#191526"/>
<path d="M11.3517 17.5027L9.47461 17.3874L10.6759 16.0918L11.3517 17.5027Z" fill="#11101F"/>
<path d="M9.69727 14.3437L10.3381 14.2773L10.7676 14.6196L10.3503 14.8815L9.69727 14.3437Z" fill="#D6CEE7"/>
<path d="M9.625 13.923L9.69659 14.3438L10.3374 14.2774L10.4684 14.0155L10.1768 13.8252L9.625 13.923Z" fill="#0B0B12"/>
<path d="M11.4295 14.9393L11.5709 14.2548L11.1379 13.5389C11.1379 13.5389 10.6804 13.132 10.3783 13.1233C10.0762 13.1146 9.79161 13.3416 9.79161 13.3416L9.00586 14.0435V14.3246L9.01983 14.5621L9.02681 14.6459C9.02681 14.6459 9.37953 13.937 9.85447 13.6262C10.3294 13.3154 10.9755 13.8602 11.1553 14.1989C11.3631 14.5813 11.4295 14.9393 11.4295 14.9393Z" fill="#050607"/>
<path d="M9.69571 14.3438L9.35871 15.0021L9.17188 14.5446C9.17188 14.5446 9.45824 13.9352 9.61713 13.8252L9.69571 14.3438Z" fill="#1D1A39"/>
<path d="M11.2665 15.407C11.2665 15.407 10.9766 14.2772 10.4668 14.0153L10.1507 13.8285L9.62513 13.921L9.17288 14.5426L9.14844 14.4326L9.37369 14.0729L9.61814 13.7517L10.1036 13.4443L10.7025 13.6661C10.7025 13.6661 11.3416 14.1253 11.4341 14.939L11.2665 15.407Z" fill="#5D5A71"/>
<path d="M9.00759 14.041L8.47852 15.0014L8.62868 15.96L9.52968 16.4751L10.6734 16.091C10.6734 16.091 10.1111 16.0351 9.64492 15.7959C9.16998 15.5514 9.10013 15.2825 9.05473 14.9211C9.00235 14.495 9.00759 14.041 9.00759 14.041Z" fill="#0B0B0E"/>
<path d="M10.4688 14.0146L10.3379 14.2766L10.7692 14.6188L10.4462 14.8214L11.2686 15.4063C11.2686 15.4063 11.0974 14.7428 10.9211 14.4669C10.6766 14.0828 10.4688 14.0146 10.4688 14.0146Z" fill="#1B1731"/>
<path d="M7.35352 7.43285L11.8498 4.87305V8.60449L7.35352 7.43285Z" fill="#E1E1E0"/>
<path d="M15.4224 4.94366L11.8516 4.87207V8.60352L15.4224 4.94366Z" fill="#E0E0DE"/>
<path d="M7.74465 3.2207L7.35352 7.43233L11.8498 4.87253L7.74465 3.2207Z" fill="#E0DFDD"/>
<path d="M4.35345 6.56152L7.35502 7.43283L1.86523 10.169L4.35345 6.56152Z" fill="#E1E1E0"/>
<path d="M7.74622 3.2207L6.50298 4.18107L4.35352 6.56102L7.35509 7.43233L7.74622 3.2207Z" fill="#E1E1E0"/>
<path d="M23.2756 3.30957L23.6842 7.43215L18.9941 4.94394L23.2756 3.30957Z" fill="#E0DFDD"/>
<path d="M26.5649 6.5791L28.999 10.1691L23.6855 7.43295L26.5649 6.5791Z" fill="#E1E1E0"/>
<path d="M23.2754 3.30957L24.5553 4.32232L26.5633 6.5783L23.684 7.43215L23.2754 3.30957Z" fill="#DFDFDE"/>
<path d="M15.4224 4.94434V8.87135L11.8516 8.60419L15.4224 4.94434Z" fill="#DAD9D7"/>
<path d="M19.1706 8.67578L15.4199 4.94434V8.87135L19.1706 8.67578Z" fill="#DBDBD9"/>
<path d="M1.86523 10.1689L4.0147 14.6827L5.34873 11.2707L1.86523 10.1689Z" fill="#D1D0D1"/>
<path d="M7.63861 14.6824L5.34771 11.2705L4.01367 14.6824H7.63861Z" fill="#D1CFD0"/>
<path d="M25.5508 11.2707L27.1677 14.6827L28.9976 10.1689L25.5508 11.2707Z" fill="#D1D0D1"/>
<path d="M23.2812 14.6912L25.5512 11.2705L27.1681 14.6824L23.2812 14.6912Z" fill="#D1CFD0"/>
<path d="M27.168 14.682L28.9979 18.822L30.3843 14.5039L27.168 14.682Z" fill="#C8C6CC"/>
<path d="M25.7422 17.7313L27.1688 14.6826L28.9987 18.8227L25.7422 17.7313Z" fill="#CAC8C8"/>
<path d="M9.38086 12.1232L10.535 12.6279L10.9262 11.8037L9.38086 12.1232Z" fill="#403B4E"/>
<path d="M9.83834 12.7402L9.38086 12.1221L10.535 12.6267L9.83834 12.7402Z" fill="#393445"/>
<path d="M9.38162 12.1221L9.00796 14.0411L8.67969 13.154L9.38162 12.1221Z" fill="#27242A"/>
<path d="M7.63867 14.6821L8.27076 13.7549L8.47855 15.0016L7.63867 14.6821Z" fill="#1A1421"/>
<path d="M9.00835 14.0412L8.27148 13.7549L8.47927 15.0016L9.00835 14.0412Z" fill="#0E0D12"/>
<path d="M8.68008 13.1543L8.27148 13.755L9.00835 14.0413L8.68008 13.1543Z" fill="#21202C"/>
<path d="M9.83984 12.7406L10.3819 13.1236L10.5376 12.627L9.83984 12.7406Z" fill="#443E52"/>
<path d="M11.1404 13.5384L10.5363 12.627L10.3809 13.1228C10.3809 13.1228 10.6637 13.0827 11.1404 13.5384Z" fill="#383143"/>
<path d="M7.5875 16.2017L6.85938 15.4876L7.63989 14.6826L7.5875 16.2017Z" fill="#252632"/>
<path d="M10.1016 13.4443L10.1505 13.8291L10.4688 14.0162L10.6996 13.6664L10.1016 13.4443Z" fill="#6F6783"/>
<path d="M9.62515 13.9225V13.7549L9.41911 14.0308L9.18164 14.5249L9.62515 13.9225Z" fill="#6F6783"/>
<path d="M9.69442 14.3438L9.35742 15.002L9.47965 15.4892L9.85681 15.7354L10.3754 15.8768H10.7229L11.2659 15.4071L10.4435 14.8222L10.3475 14.8816L9.69442 14.3438Z" fill="#0D0C16"/>
<path d="M11 14.6171L11.2689 14.3779C11.2689 14.3779 11.4103 14.6521 11.4313 14.9384L11.2689 15.4064C11.2672 15.4064 11.0629 14.6992 11 14.6171Z" fill="#4A4460"/>
<path d="M9.14821 14.4346C9.14821 14.4346 9.0975 14.5168 9.08176 14.543C9.06602 14.5692 9.0293 14.6462 9.0293 14.6462C9.0293 14.6462 9.05378 15.0186 9.08525 15.1008L9.35981 15.0029L9.18144 14.5255L9.14821 14.4346Z" fill="#241F43"/>
<path d="M9.08594 15.0999L9.36049 15.002L9.50038 15.4531L9.40421 15.6437C9.40421 15.6437 9.15764 15.5161 9.08594 15.0999Z" fill="#777095"/>
<path d="M9.9421 15.9219C9.9421 15.9219 9.57891 15.8118 9.4043 15.6425L9.50033 15.4521L9.86876 15.7001L10.314 15.7909L9.9421 15.9219Z" fill="#A1A0B9"/>
<path d="M10.6765 16.0919C10.6765 16.0919 10.2924 16.0692 9.94141 15.9225L10.3133 15.7898C10.3133 15.7898 10.7534 15.8003 10.8022 15.7759C10.8529 15.7497 11.2667 15.4092 11.2667 15.4092L10.6765 16.0919Z" fill="#B7B2D9"/>
<path d="M14.0117 28.3154L15.4296 28.3172V30.519L14.0117 28.3154Z" fill="#99999B"/>
<path d="M17.0696 27.7729L16.8496 28.316L18.807 27.6123L17.0696 27.7729Z" fill="#1D2724"/>
<path d="M16.4496 24.7916L16.2995 23.2725L15.4316 24.4354L16.4496 24.7916Z" fill="#736E84"/>
<path d="M17.5683 24.1019L16.2988 23.2725L16.449 24.7916L17.5683 24.1019Z" fill="#615C71"/>
<path d="M17.4129 23.3161L16.2988 23.2725L17.5683 24.1019L17.4129 23.3161Z" fill="#504B59"/>
<path d="M18.6049 23.5661L17.5695 24.1022L17.4141 23.3164L18.6049 23.5661Z" fill="#3C3943"/>
<path d="M19.0484 23.3877L18.4844 24.4668L18.6049 23.5658L19.0484 23.3877Z" fill="#030505"/>
<path d="M17.5684 24.1015L18.4833 24.4664L18.6038 23.5654L17.5684 24.1015Z" fill="#201C27"/>
<path d="M17.3125 25.227L17.5692 24.1025L18.4841 24.4675L17.3125 25.227Z" fill="#110E16"/>
<path d="M19.0493 23.3877L18.4853 24.4668L17.3137 25.2264L16.7305 26.0261L17.593 25.3416L18.5831 24.7689L19.0493 23.3877Z" fill="#5C5B62"/>
<path d="M19.2257 24.1874L19.0476 23.3877L18.5814 24.7689L17.5914 25.3416L16.5664 26.1291L17.7415 25.511L18.7368 24.9592L19.2257 24.1874Z" fill="#2A292E"/>
<path d="M17.3118 25.227L16.4492 24.7923L17.5685 24.1025L17.3118 25.227Z" fill="#0C0E10"/>
<path d="M16.0044 25.5938L16.5666 26.1298L15.4316 26.8125L16.0044 25.5938Z" fill="#030405"/>
<path d="M16.5666 26.1299L15.9485 27.209L15.4316 26.8126L16.5666 26.1299Z" fill="#4C4D52"/>
<path d="M17.072 27.7722L15.9492 27.2082L18.2 26.625L17.072 27.7722Z" fill="#5A5F64"/>
<path d="M16.5673 26.1299L18.2 26.6258L15.9492 27.209L16.5673 26.1299Z" fill="#696D73"/>
<path d="M15.4316 27.7074L15.9485 27.208L17.0712 27.772L15.4316 27.7074Z" fill="#3B3B41"/>
<path d="M16.8512 28.3157L15.4316 27.708V28.3174L16.8512 28.3157Z" fill="#181915"/>
<path d="M18.8086 27.6123L17.0712 27.7729L15.4316 27.7083L16.8512 28.316L18.8086 27.6123Z" fill="#27292A"/>
<path d="M18.1983 26.625L18.8077 27.6116L17.0703 27.7722L18.1983 26.625Z" fill="#73767D"/>
<path d="M17.8969 25.4238L18.199 26.6252L16.5664 26.1293L16.7288 26.0262L17.8969 25.4238Z" fill="#7D8187"/>
<path d="M19.2272 24.1875L19.4664 25.9808L18.7383 24.9593L19.2272 24.1875Z" fill="#ACADB7"/>
<path d="M17.8965 25.4244L18.7364 24.96L19.4645 25.9814L17.8965 25.4244Z" fill="#AEB6C0"/>
<path d="M18.1986 26.6252L19.4645 25.9808L17.8965 25.4238L18.1986 26.6252Z" fill="#9EA2AC"/>
<path d="M19.2266 24.1875L19.4658 25.9808L21.376 26.426L19.2266 24.1875Z" fill="#A0A3A9"/>
<path d="M20.3623 26.9645L21.3751 26.4267L19.4648 25.9814L20.3623 26.9645Z" fill="#7C868A"/>
<path d="M18.1992 26.6258L19.4652 25.9814L20.3627 26.9645L18.1992 26.6258Z" fill="#A7A9B5"/>
<path d="M18.8086 27.6116L20.3627 26.9637L18.1992 26.625L18.8086 27.6116Z" fill="#94969E"/>
<path d="M16.8516 28.3161L18.8526 28.1833L20.0382 27.5809L21.3757 26.4268L20.363 26.9646L18.809 27.6124L16.8516 28.3161Z" fill="#080A0B"/>
<path d="M17.312 25.2266L17.5914 25.3418L16.5664 26.1293L17.312 25.2266Z" fill="#2A242D"/>
<path d="M15.4369 25.7433L15.4316 24.4354L16.2977 23.2725C16.2977 23.2725 15.8664 23.2236 15.4316 23.2236V24.4494" fill="#696379"/>
<path d="M15.4316 26.8115V27.7073L15.9485 27.2079L15.4316 26.8115Z" fill="#333235"/>
<path d="M21.3754 26.4268L20.8438 26.7083V26.8849L21.3754 26.4268Z" fill="#535B5C"/>
<path d="M20.3621 26.9637L20.0723 27.5504L20.844 26.8834V26.707L20.3621 26.9637Z" fill="#212D2D"/>
<path d="M18.8516 28.1827L20.362 26.9639L20.0721 27.5506L18.8516 28.1827Z" fill="#0F1917"/>
<path d="M17.317 25.2236L16.5662 26.1299L16.0039 25.5938L17.317 25.2236Z" fill="#171618"/>
<path d="M15.4316 26.8125V25.7457L16.0044 25.5938L15.7424 26.1577L15.4316 26.8125Z" fill="#0B0C0F"/>
<path d="M17.0712 27.7726L16.8512 28.3157L15.4316 27.708L17.0712 27.7726Z" fill="#26262D"/>
<path d="M16.0039 25.5935L16.4492 24.792L17.3117 25.2268L16.0039 25.5935Z" fill="#030405"/>
<path d="M15.4316 24.4365L16.0044 25.5942L16.4496 24.7927L15.4316 24.4365Z" fill="#0C0E10"/>
<path d="M15.4316 24.4365V25.7461L16.0044 25.5942L15.4316 24.4365Z" fill="#030405"/>
<path d="M14.416 24.7926L14.5662 23.2734L15.4323 24.4364L14.416 24.7926Z" fill="#736E84"/>
<path d="M13.2969 24.1028L14.5663 23.2734L14.4161 24.7926L13.2969 24.1028Z" fill="#615C71"/>
<path d="M13.4523 23.3171L14.5663 23.2734L13.2969 24.1028L13.4523 23.3171Z" fill="#504B59"/>
<path d="M12.2598 23.5671L13.2952 24.1031L13.4506 23.3174L12.2598 23.5671Z" fill="#3C3943"/>
<path d="M11.8184 23.3887L12.3824 24.4678L12.2619 23.5668L11.8184 23.3887Z" fill="#030505"/>
<path d="M13.2952 24.1025L12.3802 24.4674L12.2598 23.5664L13.2952 24.1025Z" fill="#201C27"/>
<path d="M13.5545 25.227L13.2978 24.1025L12.3828 24.4675L13.5545 25.227Z" fill="#110E16"/>
<path d="M11.8184 23.3887L12.3824 24.4678L13.554 25.2273L14.1372 26.027L13.2746 25.3426L12.2846 24.7698L11.8184 23.3887Z" fill="#5C5B62"/>
<path d="M11.6406 24.1884L11.8187 23.3887L12.2849 24.7698L13.275 25.3426L14.3 26.1301L13.1248 25.5119L12.1295 24.9602L11.6406 24.1884Z" fill="#2A292E"/>
<path d="M13.5536 25.227L14.4161 24.7923L13.2969 24.1025L13.5536 25.227Z" fill="#0C0E10"/>
<path d="M14.8611 25.5938L14.2988 26.1298L15.4321 26.8125L14.8611 25.5938Z" fill="#030405"/>
<path d="M14.2988 26.1299L14.917 27.209L15.4321 26.8126L14.2988 26.1299Z" fill="#4C4D52"/>
<path d="M13.794 27.7732L14.9168 27.2092L12.666 26.626L13.794 27.7732Z" fill="#5A5F64"/>
<path d="M14.2986 26.1299L12.666 26.6258L14.9168 27.209L14.2986 26.1299Z" fill="#696D73"/>
<path d="M15.4308 27.7093L14.9157 27.21L13.793 27.774L15.4308 27.7093Z" fill="#3B3B41"/>
<path d="M14.0156 28.3157L15.4335 27.708V28.3174L14.0156 28.3157Z" fill="#181915"/>
<path d="M12.0566 27.6123L13.794 27.7729L15.4319 27.7083L14.014 28.316L12.0566 27.6123Z" fill="#27292A"/>
<path d="M12.666 26.626L12.0566 27.6125L13.794 27.7732L12.666 26.626Z" fill="#73767D"/>
<path d="M12.9681 25.4248L12.666 26.6261L14.2986 26.1302L14.1362 26.0272L12.9681 25.4248Z" fill="#7D8187"/>
<path d="M11.6396 24.1885L11.4004 25.9817L12.1285 24.9603L11.6396 24.1885Z" fill="#ACADB7"/>
<path d="M12.9684 25.4244L12.1285 24.96L11.4004 25.9814L12.9684 25.4244Z" fill="#AEB6C0"/>
<path d="M12.6663 26.6261L11.4004 25.9818L12.9684 25.4248L12.6663 26.6261Z" fill="#9EA2AC"/>
<path d="M11.6397 24.1885L11.4005 25.9817L9.49023 26.427L11.6397 24.1885Z" fill="#A0A3A9"/>
<path d="M10.503 26.9645L9.49023 26.4267L11.4005 25.9814L10.503 26.9645Z" fill="#7C868A"/>
<path d="M12.6654 26.6258L11.3995 25.9814L10.502 26.9645L12.6654 26.6258Z" fill="#A7A9B5"/>
<path d="M12.056 27.6125L10.502 26.9647L12.6654 26.626L12.056 27.6125Z" fill="#94969E"/>
<path d="M14.0144 28.3161L12.0134 28.1833L10.8278 27.5809L9.49023 26.4268L10.503 26.9646L12.057 27.6124L14.0144 28.3161Z" fill="#080A0B"/>
<path d="M13.5528 25.2275L13.2734 25.3428L14.2984 26.1303L13.5528 25.2275Z" fill="#2A242D"/>
<path d="M15.4272 25.7443L15.4325 24.4364L14.5664 23.2735C14.5664 23.2735 14.9977 23.2246 15.4325 23.2246V24.4504" fill="#696379"/>
<path d="M15.4331 26.8125V27.7083L14.918 27.2089L15.4331 26.8125Z" fill="#333235"/>
<path d="M9.49023 26.4268L10.0218 26.7083V26.8849L9.49023 26.4268Z" fill="#535B5C"/>
<path d="M10.5034 26.9647L10.7933 27.5514L10.0215 26.8844V26.708L10.5034 26.9647Z" fill="#212D2D"/>
<path d="M12.0123 28.1836L10.502 26.9648L10.7918 27.5515L12.0123 28.1836Z" fill="#0F1917"/>
<path d="M13.5488 25.2236L14.2997 26.1299L14.8619 25.5938L13.5488 25.2236Z" fill="#171618"/>
<path d="M15.4323 26.8125V25.7457L14.8613 25.5938L15.118 26.1455L15.4323 26.8125Z" fill="#0B0C0F"/>
<path d="M13.793 27.7726L14.013 28.3157L15.4308 27.708L13.793 27.7726Z" fill="#26262D"/>
<path d="M14.8625 25.5935L14.4173 24.792L13.5547 25.2268L14.8625 25.5935Z" fill="#030405"/>
<path d="M15.4323 24.4365L14.8613 25.5942L14.416 24.7927L15.4323 24.4365Z" fill="#0C0E10"/>
<path d="M15.4323 24.4365V25.7461L14.8613 25.5942L15.4323 24.4365Z" fill="#030405"/>
<path d="M10.3301 14.2773L10.3441 14.8824L10.762 14.6201L10.3301 14.2773Z" fill="#9A93B0"/>
<path d="M9.93555 14.3183V14.5439L10.3448 14.8814L10.3308 14.2764L9.93555 14.3183Z" fill="#B8B3CD"/>
<path d="M20.3825 12.63L19.9932 11.8076L19.0293 12.3891L20.3825 12.63Z" fill="#4D4B61"/>
<path d="M19.7784 13.5421L20.3825 12.6306L19.0293 12.3896L19.7784 13.5421Z" fill="#464355"/>
<path d="M19.3471 14.2597L19.0293 12.3896L19.7784 13.5421L19.3471 14.2597Z" fill="#373547"/>
<path d="M18.1973 12.8906C18.1973 12.8906 18.2235 13.926 18.3177 14.1286C18.3177 14.1286 18.4225 13.72 18.5884 13.2677C18.7054 12.9517 18.8468 12.6129 19.0302 12.3877L18.1973 12.8906Z" fill="#23222B"/>
<path d="M19.3466 14.2595L18.3164 14.1286C18.3164 14.1286 18.6761 12.6915 19.0288 12.3877L19.3466 14.2595Z" fill="#27252F"/>
<path d="M19.4881 14.9434L19.3466 14.2589L18.3164 14.1279C18.3164 14.1279 18.5364 15.0289 18.6569 15.2821L19.4881 14.9434Z" fill="#18171D"/>
<path d="M21.1238 13.3442L21.0802 12.7453L20.3835 12.6318L19.7793 13.5433C19.7793 13.5433 20.2909 13.1365 20.5389 13.1277C20.7868 13.1173 21.1238 13.3442 21.1238 13.3442Z" fill="#454156"/>
<path d="M21.5376 12.127L21.9112 14.0459L21.1237 13.344L21.0801 12.7433L21.5376 12.127Z" fill="#302B3C"/>
<path d="M23.3315 16.2037L22.4375 15.0041L23.2774 14.6846L23.3315 16.2037Z" fill="#313241"/>
<path d="M24.8962 16.3556L23.3334 16.2037L23.2793 14.6846L24.8962 16.3556Z" fill="#1E1F29"/>
<path d="M25.7399 17.7232L24.2645 17.2657L23.332 16.2041L24.8948 16.356L25.7399 17.7232Z" fill="#121015"/>
<path d="M22.4392 15.0049L22.2891 15.9652L23.3332 16.2045L22.4392 15.0049Z" fill="#3D3C4F"/>
<path d="M22.6488 16.9951L23.3332 16.2041L22.2891 15.9648L22.6488 16.9951Z" fill="#30313D"/>
<path d="M23.0352 17.8786L24.2662 17.2657L23.3337 16.2041L23.0352 17.8786Z" fill="#181720"/>
<path d="M24.942 19.3525L21.5371 19.4294L23.278 20.4823L24.942 19.3525Z" fill="#030505"/>
<path d="M24.2656 17.2666L24.9431 19.3532L25.7411 17.7241L24.2656 17.2666Z" fill="#070809"/>
<path d="M23.0352 17.8795L24.9437 19.3532L24.2662 17.2666L23.0352 17.8795Z" fill="#0C0C10"/>
<path d="M21.5371 19.4295L23.0335 17.8789L24.942 19.3526L21.5371 19.4295Z" fill="#110F16"/>
<path d="M21.4434 17.3896L21.5377 19.4291L23.0341 17.8786L21.4434 17.3896Z" fill="#15121E"/>
<path d="M22.6484 16.9951L23.0343 17.8786L23.3329 16.2041L22.6484 16.9951Z" fill="#1F1E2C"/>
<path d="M21.4434 17.3897L22.6482 16.9951L23.0341 17.8787L21.4434 17.3897Z" fill="#1B1926"/>
<path d="M22.2895 15.9648L21.3867 16.4799L22.6492 16.9951L22.2895 15.9648Z" fill="#23242E"/>
<path d="M21.4443 17.3902L21.3867 16.4805L22.6492 16.9956L21.4443 17.3902Z" fill="#221C2F"/>
<path d="M20.2871 18.5074L21.443 17.3916L21.5356 19.4311C21.5373 19.4293 21.0152 19.1622 20.2871 18.5074Z" fill="#13121A"/>
<path d="M19.5664 17.5049L21.4435 17.3896L20.2876 18.5054C20.2876 18.5072 20.0256 18.3622 19.5664 17.5049Z" fill="#0E0D17"/>
<path d="M19.6515 15.4114L18.6562 15.2822L19.0666 16.5691L19.6515 15.4114Z" fill="#403C53"/>
<path d="M19.4874 14.9443L19.6515 15.4123L18.6562 15.2831L19.4874 14.9443Z" fill="#2F2E39"/>
<path d="M20.2433 16.0939L19.6514 15.4111L19.0664 16.5688L20.2433 16.0939Z" fill="#4C495F"/>
<path d="M19.566 17.5056L20.2435 16.0947L19.0684 16.5679C19.0666 16.5697 19.2116 17.0272 19.566 17.5056Z" fill="#261F33"/>
<path d="M21.3861 16.4806L20.2441 16.0947L21.4437 17.3903L21.3861 16.4806Z" fill="#191526"/>
<path d="M19.5664 17.5056L21.4435 17.3903L20.2439 16.0947L19.5664 17.5056Z" fill="#11101F"/>
<path d="M21.2227 14.3486L20.5836 14.2822L20.1523 14.6227L20.5697 14.8864L21.2227 14.3486Z" fill="#D6CEE7"/>
<path d="M21.2928 13.9249L21.2212 14.3475L20.5821 14.2811L20.4512 14.0192L20.7428 13.8271L21.2928 13.9249Z" fill="#0B0B12"/>
<path d="M19.4891 14.9441L19.3477 14.2597L19.7807 13.5438C19.7807 13.5438 20.2382 13.1369 20.5403 13.1282C20.8423 13.1194 21.1269 13.3464 21.1269 13.3464L21.9127 14.0484V14.3295L21.8987 14.567L21.8917 14.6508C21.8917 14.6508 21.539 13.9419 21.0641 13.6311C20.5891 13.3202 19.9431 13.865 19.7632 14.2038C19.5572 14.5844 19.4891 14.9441 19.4891 14.9441Z" fill="#050607"/>
<path d="M21.2227 14.3477L21.5597 15.006L21.7465 14.5485C21.7465 14.5485 21.4601 13.9391 21.3012 13.8291L21.2227 14.3477Z" fill="#1D1A39"/>
<path d="M19.652 15.4109C19.652 15.4109 19.9419 14.2811 20.4517 14.0192L20.7678 13.8324L21.2934 13.9249L21.7456 14.5465L21.77 14.4365L21.5448 14.0768L21.3003 13.7556L20.8149 13.4482L20.216 13.67C20.216 13.67 19.5769 14.1292 19.4844 14.9429L19.652 15.4109Z" fill="#5D5A71"/>
<path d="M21.9119 14.0459L22.441 15.0045L22.2908 15.9649L21.3898 16.48L20.2461 16.0958C20.2461 16.0958 20.8083 16.04 21.2746 15.8007C21.7495 15.5563 21.8193 15.2874 21.8647 14.9259C21.9171 14.4999 21.9119 14.0459 21.9119 14.0459Z" fill="#0B0B0E"/>
<path d="M20.4521 14.0205L20.583 14.2824L20.1517 14.6247L20.4748 14.8272L19.6523 15.4122C19.6523 15.4122 19.8235 14.7486 19.9998 14.4728C20.2443 14.0886 20.4521 14.0205 20.4521 14.0205Z" fill="#1B1731"/>
<path d="M21.5375 12.1272L20.3816 12.63L19.9922 11.8076L21.5375 12.1272Z" fill="#403B4E"/>
<path d="M21.0774 12.7433L21.5348 12.127L20.3789 12.6298L21.0774 12.7433Z" fill="#393445"/>
<path d="M21.5371 12.127L21.9108 14.0459L22.239 13.1572L21.5371 12.127Z" fill="#27242A"/>
<path d="M23.2774 14.686L22.647 13.7588L22.4375 15.0055L23.2774 14.686Z" fill="#1A1421"/>
<path d="M21.9102 14.0469L22.647 13.7588L22.4375 15.0055L21.9102 14.0469Z" fill="#0E0D12"/>
<path d="M22.2384 13.1572L22.647 13.7579L21.9102 14.046L22.2384 13.1572Z" fill="#21202C"/>
<path d="M19.7773 13.5414L20.3815 12.6299L20.5369 13.1258C20.5386 13.1258 20.2558 13.0874 19.7773 13.5414Z" fill="#383143"/>
<path d="M23.3334 16.2037L24.0598 15.4913L23.2793 14.6846L23.3334 16.2037Z" fill="#252632"/>
<path d="M20.8186 13.4482L20.7678 13.833L20.4496 14.0201L20.2188 13.6703L20.8186 13.4482Z" fill="#6F6783"/>
<path d="M21.293 13.9264V13.7588L21.5008 14.0347L21.7365 14.5306L21.293 13.9264Z" fill="#6F6783"/>
<path d="M21.2221 14.3486L21.5608 15.0052L21.4386 15.4923L21.0615 15.7403L20.5411 15.8817H20.1936L19.6523 15.412L20.4748 14.8253L20.5691 14.8864L21.2221 14.3486Z" fill="#0D0C16"/>
<path d="M19.9196 14.6211L19.6507 14.3818C19.6507 14.3818 19.5092 14.656 19.4883 14.9423L19.6507 15.4103C19.6524 15.412 19.855 14.7031 19.9196 14.6211Z" fill="#4A4460"/>
<path d="M21.7721 14.4365C21.7721 14.4365 21.8229 14.5187 21.8386 14.5449C21.8543 14.5712 21.8911 14.6481 21.8911 14.6481C21.8911 14.6481 21.8666 15.0206 21.8351 15.1028L21.5605 15.0049L21.7389 14.5275L21.7721 14.4365Z" fill="#241F43"/>
<path d="M21.8344 15.1028L21.5598 15.0049L21.4199 15.4561L21.5161 15.6467C21.5144 15.6484 21.7627 15.5208 21.8344 15.1028Z" fill="#777095"/>
<path d="M20.9774 15.9248C20.9774 15.9248 21.3406 15.8148 21.5152 15.6454L21.4192 15.4551L21.0507 15.703L20.6055 15.7938L20.9774 15.9248Z" fill="#A1A0B9"/>
<path d="M20.2445 16.0939C20.2445 16.0939 20.6286 16.0712 20.9796 15.9245L20.6077 15.7918C20.6077 15.7918 20.1677 15.8023 20.1188 15.7778C20.0681 15.7516 19.6543 15.4111 19.6543 15.4111L20.2445 16.0939Z" fill="#B7B2D9"/>
<path d="M20.5882 14.2822L20.5759 14.8873L20.1562 14.6232L20.5882 14.2822Z" fill="#9A93B0"/>
<path d="M20.9834 14.3224V14.5498L20.5742 14.8873L20.5865 14.2822L20.9834 14.3224Z" fill="#B8B3CD"/>
<path d="M49.46 20.0404H48.8638L48.2818 14.959C48.061 12.9861 47.9099 11.4478 47.8296 10.3427L43.7694 19.9023H43.2027L39.3397 10.3427C39.2818 11.3439 39.1661 12.6721 38.9914 14.3238L38.9394 14.9283L38.4176 20.0404H37.7812L38.8308 9.42773H39.5805L43.5038 18.9885L47.5628 9.42773H48.3125L49.46 20.0404Z" fill="white" stroke="white" stroke-width="0.338778"/>
<path d="M57.2717 12.037C57.1631 9.39243 54.4996 9.40187 52.3626 9.40895H52.0816C51.9317 9.40895 51.7912 9.41486 51.6602 9.43493V10.0772C51.6602 10.0772 51.6602 10.0772 51.6613 10.0772C51.6613 10.0772 51.6613 14.6545 51.6602 14.6545V15.3062L51.6613 20.0629H52.2398L52.241 15.3605V14.7182L52.2398 10.0489H52.3662C52.4169 10.0489 52.4689 10.0453 52.5197 10.0453C53.705 10.0453 54.7144 10.0902 55.4358 10.3653C56.1572 10.6368 56.5952 11.1409 56.633 12.0642C56.6684 12.8824 56.4641 13.527 56.0297 13.9803C55.5503 14.4786 54.7876 14.9426 53.816 14.9426H52.9978V15.3794H53.816C54.9659 15.3794 55.7321 15.011 56.3331 14.3853C56.8915 13.8021 57.313 13.0335 57.2717 12.037Z" fill="white" stroke="white" stroke-width="0.338778"/>
<defs>
<linearGradient id="paint0_linear_3080_101537" x1="15.449" y1="1.42625" x2="15.449" y2="37.7585" gradientUnits="userSpaceOnUse">
<stop stop-color="#E9E7E8"/>
<stop offset="0.7998" stop-color="#9C9A9C"/>
</linearGradient>
<linearGradient id="paint1_linear_3080_101537" x1="9.4876" y1="25.9803" x2="21.3746" y2="25.9803" gradientUnits="userSpaceOnUse">
<stop stop-color="#E9E7E8"/>
<stop offset="0.5011" stop-color="#333235"/>
<stop offset="1" stop-color="#A0A3A9"/>
</linearGradient>
</defs>
</svg>
