<svg width="15" height="20" viewBox="0 0 15 20" fill="none" xmlns="http://www.w3.org/2000/svg">
<path d="M7.50011 0C3.38765 0 0.0419922 3.347 0.0419922 7.46108C0.0419922 13.5908 6.75775 19.5759 7.04374 19.8277C7.17411 19.9426 7.33708 20.0001 7.50011 20.0001C7.66314 20.0001 7.8261 19.9426 7.95654 19.8277C8.2424 19.576 14.9582 13.5908 14.9582 7.46108C14.9582 3.347 11.6126 0 7.50011 0ZM7.50011 18.3629C6.01533 16.9241 1.42314 12.0983 1.42314 7.46108C1.42314 4.10862 4.14926 1.38114 7.50011 1.38114C10.8509 1.38114 13.5771 4.10862 13.5771 7.46108C13.5771 12.0982 8.98489 16.924 7.50011 18.3629Z" fill="#FFDD33"/>
<path d="M7.50016 3.98535C5.59625 3.98535 4.04736 5.54454 4.04736 7.46104C4.04736 9.37761 5.59625 10.9367 7.50016 10.9367C9.40406 10.9367 10.953 9.37761 10.953 7.46104C10.953 5.54454 9.40406 3.98535 7.50016 3.98535ZM7.50016 9.55559C6.3578 9.55559 5.42844 8.61599 5.42844 7.46104C5.42844 6.30616 6.3578 5.3665 7.50016 5.3665C8.64252 5.3665 9.57188 6.30609 9.57188 7.46104C9.57188 8.61599 8.64252 9.55559 7.50016 9.55559Z" fill="white"/>
</svg>
