<svg width="441" height="429" viewBox="0 0 441 429" fill="none" xmlns="http://www.w3.org/2000/svg">
<path d="M6.81868 202.827L26.578 138.497L62.0401 87.0835L92.6744 53.1642L110.393 39.4771L170.915 13.8945H222.453H269.438L331.727 40.7462L349.968 55.1799L378.586 87.3323L413.277 138.497L433.036 200.289L440.378 262.826L433.036 312.225L394.016 367.67L347.927 398.827L289.272 420.253L219.915 428.54L151.007 419.507L93.9436 399.15L46.3372 367.595L7.83901 311.578L0 259.293L6.81868 202.827L26.578 138.497L62.0401 87.0835L92.6744 53.1642L110.393 39.4771L170.915 13.8945H269.438L331.727 40.7462L349.968 55.1799" fill="url(#paint0_linear_2280_72210)"/>
<path d="M73.7969 246.117L85.8167 226.607L108.861 202.791L133.672 166.333L155.696 161.779L181.278 177.233L180.855 186.516L179.885 193.907L179.561 194.877L174.708 211.327L168.86 229.668C168.86 229.668 165.127 239.821 161.743 243.006C158.359 246.192 161.743 243.006 161.743 243.006C161.743 243.006 155.422 255.076 151.465 257.291C147.508 259.481 151.465 257.291 151.465 257.291L143.8 263.686L133.672 270.43L108.861 285.436L85.1448 269.335L73.7969 246.117L85.8167 226.607L108.861 202.791" fill="#1A1421"/>
<path d="M366.036 246.117L354.016 226.607L330.972 202.791L306.161 166.333L284.137 161.779L258.555 177.233L258.978 186.516L259.948 193.907L260.272 194.877L265.125 211.327L270.973 229.668C270.973 229.668 274.706 239.821 278.09 243.006C278.09 243.006 281.474 246.192 278.09 243.006C278.09 243.006 284.411 255.076 288.368 257.291C288.368 257.291 292.325 259.481 288.368 257.291L296.033 263.686L306.161 270.43L330.972 285.436L354.688 269.335L366.036 246.117L354.016 226.607L330.972 202.791" fill="#1A1421"/>
<path d="M168.406 326.911L174.727 329.45L191.699 325.916L207.601 325.294C207.601 325.294 216.136 324.522 219.944 324.597C223.751 324.672 232.287 325.294 232.287 325.294L248.189 325.916L265.161 329.45L271.482 326.911L274.021 338.309L267.053 349.333L219.944 375.737L172.835 349.333L165.867 338.309L168.406 326.911L174.727 329.45L191.699 325.916" fill="#504B59"/>
<path d="M165.853 338.297L135.219 370.2L149.652 377.865L171.801 387.098L196.562 389.387L219.905 388.467L243.273 389.387L268.034 387.098L304.616 370.2L273.982 338.297L267.014 349.296L236.081 365.97L219.905 375.7L203.754 365.97L184.791 355.916L172.821 349.296L165.853 338.297L135.219 370.2L165.853 338.297Z" fill="url(#paint1_linear_2280_72210)"/>
<path d="M135.219 370.209L142.784 376.729L154.281 386.658L171.179 395.244L199.698 397.135H240.137L268.656 395.244L285.553 386.658L304.616 370.209L290.182 377.874L268.034 387.106L243.273 389.396L219.905 388.475L196.562 389.396L171.801 387.106L149.652 377.874L135.219 370.209Z" fill="#27292A"/>
<path d="M219.912 341.838L234.42 346.914L250.372 337.085L265.129 329.445L271.45 326.906L263.412 342.286L246.714 353.111L236.088 365.977L219.912 375.707L203.761 365.977L193.135 353.111L176.437 342.286L168.398 326.906L174.719 329.445L189.477 337.085L205.428 346.914L219.912 341.838Z" fill="#030405"/>
<path d="M331.727 40.7439L372.639 0.976562L416.562 20.8602L433.036 54.4062L438.586 94.945L413.277 138.495L378.586 87.33L349.968 55.1777L331.727 40.7439Z" fill="#272530"/>
<path d="M110.385 39.4734L68.4776 1.09961L24.5543 21.1078L7.70665 53.1606L2.00781 95.317L26.57 138.494L62.0322 87.0798L92.6665 53.1606L110.385 39.4734Z" fill="#302F3B"/>
<path d="M104.82 99.4961L133.713 166.339L168.901 116.194L104.82 99.4961Z" fill="#D7D3D1"/>
<path d="M76.2344 154.195L104.828 99.4961L133.72 166.339L76.2344 154.195Z" fill="#E1DDDB"/>
<path d="M108.909 202.83L76.2344 154.203L133.72 166.347L108.909 202.83Z" fill="#BEBFBB"/>
<path d="M57.2266 202.832H108.889L85.8452 226.623L73.8254 246.133L57.2266 202.832Z" fill="#C0C0BF"/>
<path d="M104.811 99.4961L26.5703 138.492L76.2173 154.195L104.811 99.4961Z" fill="#D9D9D9"/>
<path d="M170.921 13.8945L110.398 39.477L168.905 63.0189L170.921 13.8945Z" fill="#E8E7E5"/>
<path d="M222.445 13.8945L168.891 63.0189L170.906 13.8945H222.445Z" fill="#EDEDED"/>
<path d="M269.422 13.8945L270.691 64.0392L222.438 13.8945H269.422Z" fill="#EEEEEE"/>
<path d="M168.891 63.0189L220.081 64.0392H270.698L222.445 13.8945L168.891 63.0189Z" fill="#E9E7E8"/>
<path d="M331.734 40.7462L270.714 64.0392L269.445 13.8945L331.734 40.7462Z" fill="#E8E7E5"/>
<path d="M219.789 64.0332H270.705L273.244 117.214L219.789 64.0332Z" fill="#E0E0DE"/>
<path d="M337.554 99.4954L270.711 64.0332L273.249 117.214L337.554 99.4954Z" fill="#E1E1E0"/>
<path d="M168.892 116.195L181.31 177.24L155.727 161.786L133.703 166.34L168.892 116.195Z" fill="#D9D9D9"/>
<path d="M219.782 120.003L181.309 177.24L168.891 116.195L219.782 120.003Z" fill="#D6D6D3"/>
<path d="M259.357 177.387L273.244 117.213L219.789 120L259.357 177.387Z" fill="#D6D6D3"/>
<path d="M306.958 166.487L273.238 117.213L259.352 177.387L284.934 161.982L306.958 166.487Z" fill="#D9D9D9"/>
<path d="M337.547 99.4961L306.962 166.488L273.242 117.215L337.547 99.4961Z" fill="#E1DDDB"/>
<path d="M364.214 154.349L306.977 166.493L337.636 99.6504L364.214 154.349Z" fill="#D7D3D1"/>
<path d="M413.298 138.492L364.173 154.195L337.57 99.4961L413.298 138.492Z" fill="#D9D9D9"/>
<path d="M331.813 202.954L306.977 166.497L364.164 154.203L331.813 202.954Z" fill="#BEBFBB"/>
<path d="M433.035 200.285L413.276 138.494L387.195 202.824L433.035 200.285Z" fill="#CECCD1"/>
<path d="M366.853 246.282L354.51 226.623L331.789 202.957L387.185 202.832L366.853 246.282Z" fill="#C0C0BF"/>
<path d="M440.374 262.823L433.033 200.285L413.273 261.828L440.374 262.823Z" fill="#B9B8BF"/>
<path d="M381.086 304.108L413.263 261.827L366.852 246.273L381.086 304.108Z" fill="#B3B3B2"/>
<path d="M433.033 312.222L440.374 262.824L413.273 261.828L433.033 312.222Z" fill="#B0AEB3"/>
<path d="M381.117 304.109L433.054 312.222L413.294 261.828L381.117 304.109Z" fill="#A4A2A2"/>
<path d="M394.033 367.673L433.054 312.228L381.117 304.115L394.033 367.673Z" fill="#A9A9A9"/>
<path d="M331.789 285.568L355.281 268.895L366.853 246.273L381.088 304.108L331.789 285.568Z" fill="#BCBEBB"/>
<path d="M347.938 338.308L381.11 304.115L394.026 367.673L347.938 338.308Z" fill="#B4B5B5"/>
<path d="M347.938 398.819V338.297L394.026 367.662L347.938 398.819Z" fill="#ACACAC"/>
<path d="M304.633 370.2L347.934 338.297V398.819L304.633 370.2Z" fill="#B2B0B6"/>
<path d="M306.962 270.562L331.798 285.569L282.102 297.887L306.962 270.562Z" fill="#C7C6C9"/>
<path d="M381.088 304.102L347.915 338.295L331.789 285.562L381.088 304.102Z" fill="#C7C6C9"/>
<path d="M282.102 297.881L331.798 285.562L347.924 338.295L282.102 297.881Z" fill="#C3C3C3"/>
<path d="M273.992 338.297H347.928L304.627 370.2L273.992 338.297Z" fill="#BBB9BE"/>
<path d="M282.104 297.895L271.453 326.911L273.991 338.309H347.927L282.104 297.895Z" fill="#CECCD1"/>
<path d="M248.148 325.891L282.093 297.895L271.441 326.911L265.12 329.45L248.148 325.891Z" fill="#DEDDE1"/>
<path d="M219.801 193.693L181.328 177.243L219.801 120.006L259.37 177.392L219.801 193.693Z" fill="#CFCDCD"/>
<path d="M168.891 229.653L219.782 193.694L181.284 177.244C181.284 177.244 181.781 189.662 177.476 202.827C173.196 215.991 168.891 229.653 168.891 229.653Z" fill="#D3D1D5"/>
<path d="M259.351 177.398C259.351 177.398 259.55 191.733 263.582 203.454C267.439 214.627 271.744 229.808 271.744 229.808L219.758 193.699L259.351 177.398Z" fill="#D3D1D5"/>
<path d="M219.782 245.109L168.891 229.655L219.782 193.695L271.768 229.804L219.782 245.109Z" fill="#DCDBE0"/>
<path d="M133.703 270.44L219.808 245.106L168.916 229.652C168.916 229.652 160.306 247.371 153.985 254.712C147.664 262.054 133.703 270.44 133.703 270.44Z" fill="#DDDDE4"/>
<path d="M307.163 270.694L219.789 245.111L271.775 229.807C271.775 229.807 276.902 239.661 285.637 251.183C294.372 262.706 307.163 270.694 307.163 270.694Z" fill="#DEDDE2"/>
<path d="M158.273 297.884H282.105L219.791 245.102L158.273 297.884Z" fill="#DDDCE1"/>
<path d="M307.163 270.684L282.103 297.884L219.789 245.102L307.163 270.684Z" fill="#DAD9DE"/>
<path d="M158.265 297.884L219.783 245.102L133.703 270.435L158.265 297.884Z" fill="#DAD9DD"/>
<path d="M248.159 325.891L219.789 297.895H282.103L248.159 325.891Z" fill="#D0D0D3"/>
<path d="M191.703 325.891L219.824 297.895L248.194 325.891C248.194 325.891 225.722 324.871 220.595 324.871C215.444 324.871 191.703 325.891 191.703 325.891Z" fill="#D9DBDC"/>
<path d="M158.273 297.895L191.695 325.891L219.791 297.895H158.273Z" fill="#D0D0D3"/>
<path d="M168.402 326.911L158.273 297.895L191.695 325.891L174.723 329.45L168.402 326.911Z" fill="#DEDDE2"/>
<path d="M26.5796 138.494L6.82031 202.824H57.2139L26.5796 138.494Z" fill="#CECCD1"/>
<path d="M73.8034 246.133L26.5703 261.836L57.2046 202.832L73.8034 246.133Z" fill="#CAC8C8"/>
<path d="M6.82031 202.832L26.5796 261.836L57.2139 202.832H6.82031Z" fill="#C8C6CC"/>
<path d="M0 259.298L6.81868 202.832L26.578 261.836L0 259.298Z" fill="#BAB8BD"/>
<path d="M7.83901 311.582L0 259.297L26.578 261.835L7.83901 311.582Z" fill="#B0AEB3"/>
<path d="M59.4987 303.089L26.5749 261.828L7.83594 311.575L59.4987 303.089Z" fill="#A4A2A2"/>
<path d="M73.8034 246.135L59.4941 303.098L26.5703 261.838L73.8034 246.135Z" fill="#B3B3B2"/>
<path d="M108.881 285.429L59.5078 303.098L73.8171 246.135L85.165 269.328L108.881 285.429Z" fill="#BCBEBB"/>
<path d="M46.3342 367.597L7.83594 311.58L59.4987 303.094L46.3342 367.597Z" fill="#A9A9A9"/>
<path d="M92.74 338.307L59.4927 303.094L46.3281 367.597L92.74 338.307Z" fill="#B4B5B5"/>
<path d="M108.891 285.421L158.289 297.888L133.727 270.439L108.891 285.421Z" fill="#C7C6C9"/>
<path d="M92.7551 338.308L108.881 285.426L59.5078 303.095L92.7551 338.308Z" fill="#C7C6C9"/>
<path d="M158.274 297.894L92.75 338.308L108.876 285.426L158.274 297.894Z" fill="#C3C3C3"/>
<path d="M165.864 338.309H92.75L158.274 297.895L168.403 326.911L165.864 338.309Z" fill="#CECCD1"/>
<path d="M135.23 370.2L92.75 338.297H165.864L135.23 370.2Z" fill="#BBB9BE"/>
<path d="M93.9445 399.142L135.23 370.2L92.75 338.297L93.9445 399.142Z" fill="#B2B0B6"/>
<path d="M46.3281 367.587L92.74 338.297L93.9345 399.142L46.3281 367.587Z" fill="#ACACAC"/>
<path d="M151.016 419.508L93.9531 399.151L135.239 370.209L151.016 419.508Z" fill="#A4A2A7"/>
<path d="M347.921 398.828L289.266 420.254L304.62 370.209L347.921 398.828Z" fill="#A4A1A7"/>
<path d="M240.156 397.135L289.281 420.254L304.635 370.209L285.573 386.658L268.675 395.244L240.156 397.135Z" fill="#9C9A9C"/>
<path d="M219.914 428.542L240.146 397.137L289.271 420.256L219.914 428.542Z" fill="#A4A1A3"/>
<path d="M219.914 397.137H240.146L219.914 428.542V397.137Z" fill="#99999B"/>
<path d="M151.023 419.509L199.725 397.137L219.932 428.542L151.023 419.509Z" fill="#A4A1A3"/>
<path d="M135.219 370.209L154.281 386.658L171.179 395.244L199.698 397.135L150.996 419.508L135.219 370.209Z" fill="#9C9A9C"/>
<path d="M331.727 40.7439L372.639 0.976562L384.659 35.941L331.727 40.7439Z" fill="#423E4F"/>
<path d="M416.548 20.8602L372.625 0.976562L384.645 35.941L416.548 20.8602Z" fill="#333241"/>
<path d="M433.042 54.3995L416.568 20.8535L384.664 35.9343L433.042 54.3995Z" fill="#21202C"/>
<path d="M349.968 55.184L384.659 35.9473L331.727 40.7502L349.968 55.184Z" fill="#343342"/>
<path d="M378.586 87.3261L433.036 54.4023L438.585 94.9411L378.586 87.3261Z" fill="#1D1B2D"/>
<path d="M384.658 35.9473L378.586 87.3363L433.036 54.4125L384.658 35.9473Z" fill="#272530"/>
<path d="M349.977 55.184L384.667 35.9473L378.595 87.3363L349.977 55.184Z" fill="#302F3B"/>
<path d="M438.585 94.951L413.277 138.501L378.586 87.3359L438.585 94.951Z" fill="#0A0B0D"/>
<path d="M110.379 39.4734L68.471 1.09961L55.6797 35.417L110.379 39.4734Z" fill="#423E4F"/>
<path d="M24.5703 21.1077L68.4936 1.09961L55.7023 35.417L24.5703 21.1077Z" fill="#333241"/>
<path d="M92.6599 53.1654L55.6797 35.4219L110.379 39.4783L92.6599 53.1654Z" fill="#343342"/>
<path d="M62.0256 87.0847L55.6797 35.4219L92.6599 53.1654L62.0256 87.0847Z" fill="#302F3B"/>
<path d="M24.5586 21.1172L7.71094 53.17L55.6906 35.4265L24.5586 21.1172Z" fill="#21202C"/>
<path d="M62.0365 87.0847L7.71094 53.1654L55.6906 35.4219L62.0365 87.0847Z" fill="#272530"/>
<path d="M2.00781 95.3244L7.70665 53.168L62.0322 87.0872L2.00781 95.3244Z" fill="#1D1B2D"/>
<path d="M26.57 138.502L2.00781 95.3251L62.0322 87.0879L26.57 138.502Z" fill="#0A0B0D"/>
<path d="M150.156 173.525L155.731 161.779L169.443 170.066L150.156 173.525Z" fill="#4D4B61"/>
<path d="M158.767 186.518L150.156 173.528L169.443 170.068L158.767 186.518Z" fill="#464355"/>
<path d="M164.937 196.721L169.442 170.068L158.766 186.518L164.937 196.721Z" fill="#373547"/>
<path d="M181.316 177.235C181.316 177.235 180.943 191.993 179.599 194.879C179.599 194.879 178.106 189.056 175.741 182.611C174.074 178.106 172.058 173.279 169.445 170.068L181.316 177.235Z" fill="#23222B"/>
<path d="M164.945 196.73L179.628 194.864C179.628 194.864 174.501 174.383 169.475 170.053L164.945 196.73Z" fill="#27252F"/>
<path d="M162.906 206.489L164.922 196.734L179.605 194.867C179.605 194.867 176.469 207.708 174.752 211.317L162.906 206.489Z" fill="#18171D"/>
<path d="M139.57 183.694L140.192 175.159L150.122 173.541L158.732 186.531C158.732 186.531 151.441 180.733 147.907 180.609C144.373 180.484 139.57 183.694 139.57 183.694Z" fill="#454156"/>
<path d="M133.724 166.348L128.398 193.697L139.597 183.693L140.244 175.157L133.724 166.348Z" fill="#302B3C"/>
<path d="M108.117 224.483L120.834 207.386L108.864 202.832L108.117 224.483Z" fill="#313241"/>
<path d="M85.8359 226.623L108.134 224.483L108.88 202.832L85.8359 226.623Z" fill="#1E1F29"/>
<path d="M73.7969 246.133L94.8253 239.613L108.114 224.482L85.8167 226.623L73.7969 246.133Z" fill="#121015"/>
<path d="M120.834 207.383L122.999 221.045L108.117 224.479L120.834 207.383Z" fill="#3D3C4F"/>
<path d="M117.872 235.724L108.117 224.475L122.999 221.041L117.872 235.724Z" fill="#30313D"/>
<path d="M112.371 248.348L94.8516 239.613L108.141 224.482L112.371 248.348Z" fill="#181720"/>
<path d="M85.1562 269.312L133.708 270.432L108.872 285.414L85.1562 269.312Z" fill="#030505"/>
<path d="M94.8253 239.605L85.1448 269.319L73.7969 246.126L94.8253 239.605Z" fill="#070809"/>
<path d="M112.356 248.34L85.1562 269.319L94.8368 239.605L112.356 248.34Z" fill="#0C0C10"/>
<path d="M133.708 270.438L112.356 248.34L85.1562 269.318L133.708 270.438Z" fill="#110F16"/>
<path d="M135.015 241.365L133.696 270.432L112.344 248.333L135.015 241.365Z" fill="#15121E"/>
<path d="M117.872 235.731L112.348 248.348L108.117 224.482L117.872 235.731Z" fill="#1F1E2C"/>
<path d="M135.015 241.366L117.868 235.717L112.344 248.334L135.015 241.366Z" fill="#1B1926"/>
<path d="M122.994 221.041L135.835 228.382L117.867 235.724L122.994 221.041Z" fill="#23242E"/>
<path d="M135.013 241.377L135.835 228.387L117.867 235.728L135.013 241.377Z" fill="#221C2F"/>
<path d="M151.496 257.267L135.022 241.365L133.703 270.432C133.703 270.432 141.144 266.599 151.496 257.267Z" fill="#13121A"/>
<path d="M161.783 243.008L135.031 241.365L151.506 257.267C151.506 257.267 155.263 255.202 161.783 243.008Z" fill="#0E0D17"/>
<path d="M160.586 213.146L174.746 211.305L168.898 229.645L160.586 213.146Z" fill="#403C53"/>
<path d="M162.9 206.488L160.586 213.158L174.746 211.316L162.9 206.488Z" fill="#2F2E39"/>
<path d="M152.164 222.91L160.6 213.154L168.912 229.654L152.164 222.91Z" fill="#4C495F"/>
<path d="M161.788 243.016L152.133 222.908L168.881 229.652C168.906 229.652 166.84 236.172 161.788 243.016Z" fill="#261F33"/>
<path d="M135.852 228.383L152.153 222.908L135.031 241.373L135.852 228.383Z" fill="#191526"/>
<path d="M161.783 243.016L135.031 241.373L152.153 222.908L161.783 243.016Z" fill="#11101F"/>
<path d="M138.18 197.991L147.313 197.045L153.435 201.923L147.487 205.655L138.18 197.991Z" fill="#D6CEE7"/>
<path d="M137.164 192.003L138.184 198L147.317 197.055L149.184 193.322L145.028 190.609L137.164 192.003Z" fill="#0B0B12"/>
<path d="M162.909 206.478L164.924 196.723L158.753 186.52C158.753 186.52 152.233 180.722 147.927 180.597C143.622 180.473 139.566 183.708 139.566 183.708L128.367 193.712V197.719L128.566 201.103L128.666 202.298C128.666 202.298 133.693 192.194 140.462 187.764C147.231 183.335 156.438 191.099 159.002 195.927C161.963 201.377 162.909 206.478 162.909 206.478Z" fill="#050607"/>
<path d="M138.177 198L133.374 207.382L130.711 200.862C130.711 200.862 134.792 192.177 137.057 190.609L138.177 198Z" fill="#1D1A39"/>
<path d="M160.585 213.147C160.585 213.147 156.454 197.046 149.187 193.313L144.683 190.651L137.192 191.97L130.747 200.829L130.398 199.261L133.609 194.135L137.093 189.556L144.011 185.176L152.547 188.336C152.547 188.336 161.655 194.881 162.974 206.478L160.585 213.147Z" fill="#5D5A71"/>
<path d="M128.376 193.695L120.836 207.382L122.976 221.045L135.817 228.386L152.117 222.911C152.117 222.911 144.104 222.115 137.46 218.705C130.691 215.221 129.695 211.389 129.048 206.238C128.302 200.166 128.376 193.695 128.376 193.695Z" fill="#0B0B0E"/>
<path d="M149.187 193.324L147.32 197.057L153.467 201.935L148.863 204.821L160.584 213.158C160.584 213.158 158.146 203.702 155.632 199.77C152.148 194.295 149.187 193.324 149.187 193.324Z" fill="#1B1731"/>
<path d="M104.82 99.4981L168.901 63.0156V116.196L104.82 99.4981Z" fill="#E1E1E0"/>
<path d="M219.782 64.0359L168.891 63.0156V116.196L219.782 64.0359Z" fill="#E0E0DE"/>
<path d="M110.395 39.4805L104.82 99.5048L168.901 63.0223L110.395 39.4805Z" fill="#E0DFDD"/>
<path d="M62.0325 87.0879L104.811 99.5058L26.5703 138.502L62.0325 87.0879Z" fill="#E1E1E0"/>
<path d="M110.392 39.4805L92.6734 53.1676L62.0391 87.0869L104.818 99.5048L110.392 39.4805Z" fill="#E1E1E0"/>
<path d="M331.731 40.7461L337.554 99.5013L270.711 64.0392L331.731 40.7461Z" fill="#E0DFDD"/>
<path d="M378.607 87.3359L413.298 138.501L337.57 99.5051L378.607 87.3359Z" fill="#E1E1E0"/>
<path d="M331.727 40.7461L349.968 55.1799L378.586 87.3322L337.55 99.5013L331.727 40.7461Z" fill="#DFDFDE"/>
<path d="M219.782 64.0332V120.001L168.891 116.194L219.782 64.0332Z" fill="#DAD9D7"/>
<path d="M273.244 117.214L219.789 64.0332V120.001L273.244 117.214Z" fill="#DBDBD9"/>
<path d="M26.5703 138.494L57.2046 202.824L76.2173 154.197L26.5703 138.494Z" fill="#D1D0D1"/>
<path d="M108.889 202.83L76.2393 154.203L57.2266 202.83H108.889Z" fill="#D1CFD0"/>
<path d="M364.141 154.197L387.185 202.824L413.265 138.494L364.141 154.197Z" fill="#D1D0D1"/>
<path d="M331.789 202.954L364.141 154.203L387.185 202.83L331.789 202.954Z" fill="#D1CFD0"/>
<path d="M387.195 202.823L413.276 261.828L433.035 200.285L387.195 202.823Z" fill="#C8C6CC"/>
<path d="M366.852 246.282L387.183 202.832L413.263 261.836L366.852 246.282Z" fill="#CAC8C8"/>
<path d="M133.703 166.333L150.153 173.525L155.727 161.779L133.703 166.333Z" fill="#403B4E"/>
<path d="M140.223 175.157L133.703 166.348L150.153 173.54L140.223 175.157Z" fill="#393445"/>
<path d="M133.715 166.348L128.389 193.697L123.711 181.055L133.715 166.348Z" fill="#27242A"/>
<path d="M108.891 202.82L117.899 189.605L120.861 207.374L108.891 202.82Z" fill="#1A1421"/>
<path d="M128.369 193.687L117.867 189.605L120.829 207.374L128.369 193.687Z" fill="#0E0D12"/>
<path d="M123.69 181.057L117.867 189.617L128.369 193.699L123.69 181.057Z" fill="#21202C"/>
<path d="M140.219 175.161L147.945 180.619L150.163 173.541L140.219 175.161Z" fill="#443E52"/>
<path d="M158.763 186.531L150.152 173.541L147.938 180.609C147.937 180.609 151.969 180.036 158.763 186.531Z" fill="#383143"/>
<path d="M108.127 224.483L97.75 214.304L108.874 202.832L108.127 224.483Z" fill="#252632"/>
<path d="M143.953 185.176L144.651 190.659L149.187 193.326L152.477 188.341L143.953 185.176Z" fill="#6F6783"/>
<path d="M137.157 191.994V189.605L134.22 193.537L130.836 200.58L137.157 191.994Z" fill="#6F6783"/>
<path d="M138.201 198.002L133.398 207.384L135.14 214.327L140.516 217.836L147.907 219.852H152.859L160.599 213.157L148.877 204.821L147.509 205.667L138.201 198.002Z" fill="#0D0C16"/>
<path d="M156.789 201.902L160.621 198.492C160.621 198.492 162.637 202.399 162.936 206.48L160.621 213.15C160.597 213.15 157.685 203.071 156.789 201.902Z" fill="#4A4460"/>
<path d="M130.367 199.297C130.367 199.297 129.644 200.468 129.42 200.842C129.195 201.216 128.672 202.313 128.672 202.313C128.672 202.313 129.021 207.621 129.469 208.793L133.382 207.397L130.84 200.593L130.367 199.297Z" fill="#241F43"/>
<path d="M129.477 208.778L133.389 207.383L135.383 213.813L134.013 216.529C134.013 216.529 130.498 214.71 129.477 208.778Z" fill="#777095"/>
<path d="M141.68 220.497C141.68 220.497 136.504 218.929 134.016 216.515L135.384 213.803L140.635 217.337L146.981 218.631L141.68 220.497Z" fill="#A1A0B9"/>
<path d="M152.149 222.902C152.149 222.902 146.674 222.579 141.672 220.488L146.973 218.597C146.973 218.597 153.244 218.746 153.941 218.398C154.662 218.025 160.56 213.172 160.56 213.172L152.149 222.902Z" fill="#B7B2D9"/>
<path d="M199.695 397.139L219.903 397.164V428.544L199.695 397.139Z" fill="#99999B"/>
<path d="M243.292 389.397L240.156 397.136L268.053 387.107L243.292 389.397Z" fill="#1D2724"/>
<path d="M234.422 346.904L232.282 325.254L219.914 341.828L234.422 346.904Z" fill="#736E84"/>
<path d="M250.381 337.075L232.289 325.254L234.429 346.904L250.381 337.075Z" fill="#615C71"/>
<path d="M248.166 325.876L232.289 325.254L250.381 337.075L248.166 325.876Z" fill="#504B59"/>
<path d="M265.12 329.432L250.363 337.072L248.148 325.873L265.12 329.432Z" fill="#3C3943"/>
<path d="M271.437 326.906L263.398 342.286L265.116 329.445L271.437 326.906Z" fill="#030505"/>
<path d="M250.375 337.077L263.415 342.279L265.132 329.438L250.375 337.077Z" fill="#201C27"/>
<path d="M246.711 353.103L250.369 337.076L263.409 342.277L246.711 353.103Z" fill="#110E16"/>
<path d="M271.447 326.906L263.409 342.286L246.71 353.111L238.398 364.509L250.692 354.753L264.802 346.591L271.447 326.906Z" fill="#5C5B62"/>
<path d="M273.987 338.304L271.449 326.906L264.804 346.591L250.694 354.753L236.086 365.977L252.834 357.167L267.019 349.303L273.987 338.304Z" fill="#2A292E"/>
<path d="M246.708 353.103L234.414 346.906L250.366 337.076L246.708 353.103Z" fill="#0C0E10"/>
<path d="M228.077 358.326L236.09 365.966L219.914 375.696L228.077 358.326Z" fill="#030405"/>
<path d="M236.09 365.965L227.28 381.344L219.914 375.695L236.09 365.965Z" fill="#4C4D52"/>
<path d="M243.291 389.385L227.289 381.347L259.367 373.035L243.291 389.385Z" fill="#5A5F64"/>
<path d="M236.099 365.965L259.367 373.032L227.289 381.344L236.099 365.965Z" fill="#696D73"/>
<path d="M219.914 388.469L227.28 381.352L243.282 389.39L219.914 388.469Z" fill="#3B3B41"/>
<path d="M240.146 397.127L219.914 388.467V397.152L240.146 397.127Z" fill="#181915"/>
<path d="M268.043 387.094L243.282 389.383L219.914 388.462L240.146 397.123L268.043 387.094Z" fill="#27292A"/>
<path d="M259.35 373.035L268.035 387.096L243.273 389.385L259.35 373.035Z" fill="#73767D"/>
<path d="M255.049 355.92L259.354 373.041L236.086 365.974L238.4 364.505L255.049 355.92Z" fill="#7D8187"/>
<path d="M273.984 338.293L277.393 363.851L267.016 349.292L273.984 338.293Z" fill="#ACADB7"/>
<path d="M255.039 355.916L267.009 349.297L277.386 363.855L255.039 355.916Z" fill="#AEB6C0"/>
<path d="M259.344 373.041L277.386 363.858L255.039 355.92L259.344 373.041Z" fill="#9EA2AC"/>
<path d="M273.992 338.293L277.402 363.851L304.627 370.196L273.992 338.293Z" fill="#A0A3A9"/>
<path d="M290.174 377.862L304.608 370.197L277.383 363.852L290.174 377.862Z" fill="#7C868A"/>
<path d="M259.359 373.034L277.402 363.852L290.193 377.862L259.359 373.034Z" fill="#A7A9B5"/>
<path d="M268.045 387.096L290.193 377.863L259.359 373.035L268.045 387.096Z" fill="#94969E"/>
<path d="M240.133 397.12L268.652 395.228L285.549 386.643L304.612 370.193L290.178 377.858L268.03 387.091L240.133 397.12Z" fill="#080A0B"/>
<path d="M246.712 353.109L250.694 354.752L236.086 365.975L246.712 353.109Z" fill="#2A242D"/>
<path d="M219.989 360.471L219.914 341.831L232.257 325.257C232.257 325.257 226.111 324.561 219.914 324.561V342.03" fill="#696379"/>
<path d="M219.914 375.703V388.47L227.28 381.352L219.914 375.703Z" fill="#333235"/>
<path d="M304.616 370.193L297.039 374.206V376.723L304.616 370.193Z" fill="#535B5C"/>
<path d="M290.186 377.865L286.055 386.227L297.054 376.721V374.207L290.186 377.865Z" fill="#212D2D"/>
<path d="M268.68 395.234L290.206 377.863L286.075 386.225L268.68 395.234Z" fill="#0F1917"/>
<path d="M246.777 353.049L236.076 365.965L228.062 358.325L246.777 353.049Z" fill="#171618"/>
<path d="M219.914 375.696V360.491L228.077 358.326L224.344 366.364L219.914 375.696Z" fill="#0B0C0F"/>
<path d="M243.282 389.388L240.146 397.127L219.914 388.467L243.282 389.388Z" fill="#26262D"/>
<path d="M228.062 358.329L234.408 346.906L246.702 353.103L228.062 358.329Z" fill="#030405"/>
<path d="M219.914 341.828L228.077 358.327L234.422 346.905L219.914 341.828Z" fill="#0C0E10"/>
<path d="M219.914 341.828V360.492L228.077 358.327L219.914 341.828Z" fill="#030405"/>
<path d="M205.43 346.904L207.57 325.254L219.913 341.828L205.43 346.904Z" fill="#736E84"/>
<path d="M189.477 337.075L207.568 325.254L205.428 346.904L189.477 337.075Z" fill="#615C71"/>
<path d="M191.691 325.876L207.568 325.254L189.477 337.075L191.691 325.876Z" fill="#504B59"/>
<path d="M174.727 329.432L189.484 337.072L191.699 325.873L174.727 329.432Z" fill="#3C3943"/>
<path d="M168.398 326.906L176.437 342.286L174.719 329.445L168.398 326.906Z" fill="#030505"/>
<path d="M189.484 337.077L176.444 342.279L174.727 329.438L189.484 337.077Z" fill="#201C27"/>
<path d="M193.12 353.103L189.462 337.076L176.422 342.277L193.12 353.103Z" fill="#110E16"/>
<path d="M168.398 326.906L176.437 342.286L193.135 353.111L201.447 364.509L189.153 354.753L175.043 346.591L168.398 326.906Z" fill="#5C5B62"/>
<path d="M165.867 338.304L168.406 326.906L175.05 346.591L189.16 354.753L203.768 365.977L187.02 357.167L172.835 349.303L165.867 338.304Z" fill="#2A292E"/>
<path d="M193.135 353.103L205.428 346.906L189.477 337.076L193.135 353.103Z" fill="#0C0E10"/>
<path d="M211.787 358.326L203.773 365.966L219.924 375.696L211.787 358.326Z" fill="#030405"/>
<path d="M203.773 365.965L212.583 381.344L219.924 375.695L203.773 365.965Z" fill="#4C4D52"/>
<path d="M196.568 389.383L212.57 381.345L180.492 373.033L196.568 389.383Z" fill="#5A5F64"/>
<path d="M203.76 365.965L180.492 373.032L212.57 381.344L203.76 365.965Z" fill="#696D73"/>
<path d="M219.921 388.469L212.58 381.352L196.578 389.39L219.921 388.469Z" fill="#3B3B41"/>
<path d="M199.695 397.127L219.903 388.467V397.152L199.695 397.127Z" fill="#181915"/>
<path d="M171.789 387.094L196.55 389.383L219.893 388.462L199.686 397.123L171.789 387.094Z" fill="#27292A"/>
<path d="M180.474 373.033L171.789 387.094L196.55 389.383L180.474 373.033Z" fill="#73767D"/>
<path d="M184.797 355.92L180.492 373.041L203.76 365.974L201.446 364.505L184.797 355.92Z" fill="#7D8187"/>
<path d="M165.855 338.293L162.445 363.851L172.823 349.292L165.855 338.293Z" fill="#ACADB7"/>
<path d="M184.793 355.916L172.823 349.297L162.445 363.855L184.793 355.916Z" fill="#AEB6C0"/>
<path d="M180.487 373.041L162.445 363.858L184.793 355.92L180.487 373.041Z" fill="#9EA2AC"/>
<path d="M165.853 338.293L162.444 363.851L135.219 370.196L165.853 338.293Z" fill="#A0A3A9"/>
<path d="M149.652 377.862L135.219 370.197L162.444 363.852L149.652 377.862Z" fill="#7C868A"/>
<path d="M180.497 373.034L162.455 363.852L149.664 377.862L180.497 373.034Z" fill="#A7A9B5"/>
<path d="M171.812 387.094L149.664 377.861L180.497 373.033L171.812 387.094Z" fill="#94969E"/>
<path d="M199.698 397.12L171.179 395.228L154.281 386.643L135.219 370.193L149.652 377.858L171.801 387.091L199.698 397.12Z" fill="#080A0B"/>
<path d="M193.122 353.109L189.141 354.752L203.749 365.975L193.122 353.109Z" fill="#2A242D"/>
<path d="M219.831 360.471L219.906 341.831L207.562 325.257C207.562 325.257 213.709 324.561 219.906 324.561V342.03" fill="#696379"/>
<path d="M219.904 375.703V388.47L212.562 381.352L219.904 375.703Z" fill="#333235"/>
<path d="M135.219 370.193L142.795 374.206V376.723L135.219 370.193Z" fill="#535B5C"/>
<path d="M149.65 377.865L153.781 386.227L142.781 376.721V374.207L149.65 377.865Z" fill="#212D2D"/>
<path d="M171.19 395.234L149.664 377.863L153.795 386.225L171.19 395.234Z" fill="#0F1917"/>
<path d="M193.055 353.049L203.756 365.965L211.769 358.325L193.055 353.049Z" fill="#171618"/>
<path d="M219.903 375.696V360.491L211.766 358.326L215.424 366.19L219.903 375.696Z" fill="#0B0C0F"/>
<path d="M196.578 389.388L199.714 397.127L219.921 388.467L196.578 389.388Z" fill="#26262D"/>
<path d="M211.757 358.329L205.411 346.906L193.117 353.103L211.757 358.329Z" fill="#030405"/>
<path d="M219.913 341.828L211.776 358.327L205.43 346.905L219.913 341.828Z" fill="#0C0E10"/>
<path d="M219.903 341.828V360.492L211.766 358.327L219.903 341.828Z" fill="#030405"/>
<path d="M147.227 197.045L147.426 205.668L153.383 201.93L147.227 197.045Z" fill="#9A93B0"/>
<path d="M141.602 197.643V200.858L147.434 205.668L147.234 197.045L141.602 197.643Z" fill="#B8B3CD"/>
<path d="M290.49 173.581L284.94 161.859L271.203 170.146L290.49 173.581Z" fill="#4D4B61"/>
<path d="M281.879 186.571L290.49 173.581L271.203 170.146L281.879 186.571Z" fill="#464355"/>
<path d="M275.732 196.799L271.203 170.146L281.879 186.571L275.732 196.799Z" fill="#373547"/>
<path d="M259.352 177.284C259.352 177.284 259.725 192.042 261.069 194.928C261.069 194.928 262.562 189.105 264.926 182.66C266.593 178.155 268.609 173.327 271.222 170.117L259.352 177.284Z" fill="#23222B"/>
<path d="M275.729 196.795L261.047 194.928C261.047 194.928 266.173 174.447 271.2 170.117L275.729 196.795Z" fill="#27252F"/>
<path d="M277.745 206.553L275.729 196.798L261.047 194.932C261.047 194.932 264.183 207.773 265.9 211.381L277.745 206.553Z" fill="#18171D"/>
<path d="M301.076 183.757L300.454 175.221L290.525 173.604L281.914 186.594C281.914 186.594 289.206 180.795 292.739 180.671C296.273 180.522 301.076 183.757 301.076 183.757Z" fill="#454156"/>
<path d="M306.95 166.41L312.275 193.76L301.052 183.756L300.43 175.195L306.95 166.41Z" fill="#302B3C"/>
<path d="M332.531 224.529L319.789 207.433L331.759 202.879L332.531 224.529Z" fill="#313241"/>
<path d="M354.802 226.694L332.529 224.529L331.758 202.879L354.802 226.694Z" fill="#1E1F29"/>
<path d="M366.856 246.164L345.828 239.644L332.539 224.514L354.812 226.679L366.856 246.164Z" fill="#121015"/>
<path d="M319.789 207.43L317.648 221.117L332.53 224.526L319.789 207.43Z" fill="#3D3C4F"/>
<path d="M322.775 235.802L332.53 224.528L317.648 221.119L322.775 235.802Z" fill="#30313D"/>
<path d="M328.273 248.379L345.818 239.644L332.529 224.514L328.273 248.379Z" fill="#181720"/>
<path d="M355.472 269.391L306.945 270.486L331.756 285.492L355.472 269.391Z" fill="#030505"/>
<path d="M345.836 239.652L355.492 269.391L366.864 246.172L345.836 239.652Z" fill="#070809"/>
<path d="M328.273 248.387L355.474 269.391L345.818 239.652L328.273 248.387Z" fill="#0C0C10"/>
<path d="M306.945 270.487L328.272 248.389L355.472 269.392L306.945 270.487Z" fill="#110F16"/>
<path d="M305.617 241.414L306.961 270.481L328.288 248.382L305.617 241.414Z" fill="#15121E"/>
<path d="M322.773 235.787L328.273 248.379L332.529 224.514L322.773 235.787Z" fill="#1F1E2C"/>
<path d="M305.617 241.421L322.788 235.797L328.288 248.389L305.617 241.421Z" fill="#1B1926"/>
<path d="M317.655 221.119L304.789 228.46L322.781 235.802L317.655 221.119Z" fill="#23242E"/>
<path d="M305.61 241.415L304.789 228.449L322.781 235.79L305.61 241.415Z" fill="#221C2F"/>
<path d="M289.133 257.345L305.607 241.443L306.926 270.51C306.951 270.485 299.51 266.677 289.133 257.345Z" fill="#13121A"/>
<path d="M278.852 243.057L305.604 241.414L289.129 257.316C289.129 257.341 285.397 255.275 278.852 243.057Z" fill="#0E0D17"/>
<path d="M280.083 213.224L265.898 211.383L271.747 229.724L280.083 213.224Z" fill="#403C53"/>
<path d="M277.744 206.551L280.083 213.22L265.898 211.379L277.744 206.551Z" fill="#2F2E39"/>
<path d="M288.531 222.949L280.095 213.219L271.758 229.718L288.531 222.949Z" fill="#4C495F"/>
<path d="M278.85 243.065L288.506 222.957L271.758 229.701C271.733 229.726 273.799 236.246 278.85 243.065Z" fill="#261F33"/>
<path d="M304.791 228.457L288.516 222.957L305.612 241.422L304.791 228.457Z" fill="#191526"/>
<path d="M278.852 243.065L305.604 241.422L288.507 222.957L278.852 243.065Z" fill="#11101F"/>
<path d="M302.45 198.067L293.342 197.121L287.195 201.974L293.143 205.732L302.45 198.067Z" fill="#D6CEE7"/>
<path d="M303.471 192.05L302.451 198.072L293.343 197.126L291.477 193.394L295.632 190.656L303.471 192.05Z" fill="#0B0B12"/>
<path d="M277.758 206.557L275.742 196.801L281.914 186.598C281.914 186.598 288.434 180.8 292.739 180.675C297.044 180.551 301.101 183.786 301.101 183.786L312.299 193.79V197.797L312.1 201.181L312.001 202.376C312.001 202.376 306.974 192.272 300.205 187.842C293.436 183.413 284.228 191.177 281.665 196.005C278.728 201.43 277.758 206.557 277.758 206.557Z" fill="#050607"/>
<path d="M302.438 198.063L307.24 207.445L309.903 200.925C309.903 200.925 305.822 192.24 303.557 190.672L302.438 198.063Z" fill="#1D1A39"/>
<path d="M280.077 213.225C280.077 213.225 284.208 197.124 291.474 193.392L295.979 190.729L303.469 192.048L309.915 200.907L310.263 199.339L307.053 194.213L303.569 189.634L296.65 185.254L288.115 188.414C288.115 188.414 279.006 194.959 277.688 206.556L280.077 213.225Z" fill="#5D5A71"/>
<path d="M312.296 193.758L319.836 207.42L317.696 221.107L304.855 228.449L288.555 222.974C288.555 222.974 296.568 222.177 303.212 218.768C309.981 215.284 310.977 211.452 311.624 206.3C312.37 200.228 312.296 193.758 312.296 193.758Z" fill="#0B0B0E"/>
<path d="M291.491 193.387L293.358 197.12L287.211 201.997L291.815 204.884L280.094 213.221C280.094 213.221 282.533 203.764 285.046 199.832C288.53 194.357 291.491 193.387 291.491 193.387Z" fill="#1B1731"/>
<path d="M306.961 166.413L290.487 173.581L284.938 161.859L306.961 166.413Z" fill="#403B4E"/>
<path d="M300.446 175.195L306.967 166.41L290.492 173.577L300.446 175.195Z" fill="#393445"/>
<path d="M306.945 166.41L312.271 193.76L316.949 181.093L306.945 166.41Z" fill="#27242A"/>
<path d="M331.759 202.867L322.775 189.652L319.789 207.421L331.759 202.867Z" fill="#1A1421"/>
<path d="M312.281 193.761L322.783 189.654L319.797 207.423L312.281 193.761Z" fill="#0E0D12"/>
<path d="M316.96 181.104L322.783 189.664L312.281 193.77L316.96 181.104Z" fill="#21202C"/>
<path d="M281.883 186.578L290.493 173.588L292.708 180.655C292.733 180.655 288.702 180.108 281.883 186.578Z" fill="#383143"/>
<path d="M332.529 224.529L342.882 214.376L331.758 202.879L332.529 224.529Z" fill="#252632"/>
<path d="M296.728 185.254L296.005 190.737L291.469 193.404L288.18 188.419L296.728 185.254Z" fill="#6F6783"/>
<path d="M303.492 192.041V189.652L306.454 193.584L309.813 200.652L303.492 192.041Z" fill="#6F6783"/>
<path d="M302.466 198.064L307.294 207.422L305.552 214.365L300.177 217.898L292.761 219.914H287.808L280.094 213.22L291.815 204.858L293.159 205.729L302.466 198.064Z" fill="#0D0C16"/>
<path d="M283.897 201.95L280.064 198.541C280.064 198.541 278.049 202.448 277.75 206.529L280.064 213.199C280.089 213.224 282.976 203.12 283.897 201.95Z" fill="#4A4460"/>
<path d="M310.305 199.344C310.305 199.344 311.028 200.515 311.252 200.889C311.476 201.263 311.999 202.359 311.999 202.359C311.999 202.359 311.651 207.668 311.202 208.839L307.289 207.444L309.831 200.64L310.305 199.344Z" fill="#241F43"/>
<path d="M311.18 208.825L307.267 207.43L305.273 213.86L306.644 216.576C306.619 216.601 310.158 214.782 311.18 208.825Z" fill="#777095"/>
<path d="M298.973 220.546C298.973 220.546 304.149 218.978 306.637 216.564L305.269 213.852L300.018 217.385L293.672 218.679L298.973 220.546Z" fill="#A1A0B9"/>
<path d="M288.505 222.949C288.505 222.949 293.98 222.626 298.982 220.535L293.681 218.644C293.681 218.644 287.41 218.793 286.713 218.445C285.992 218.071 280.094 213.219 280.094 213.219L288.505 222.949Z" fill="#B7B2D9"/>
<path d="M293.445 197.121L293.271 205.744L287.289 201.981L293.445 197.121Z" fill="#9A93B0"/>
<path d="M299.074 197.694V200.934L293.242 205.744L293.417 197.121L299.074 197.694Z" fill="#B8B3CD"/>
<defs>
<linearGradient id="paint0_linear_2280_72210" x1="220.18" y1="13.9013" x2="220.18" y2="531.71" gradientUnits="userSpaceOnUse">
<stop stop-color="#E9E7E8"/>
<stop offset="0.7998" stop-color="#9C9A9C"/>
</linearGradient>
<linearGradient id="paint1_linear_2280_72210" x1="135.209" y1="363.834" x2="304.624" y2="363.834" gradientUnits="userSpaceOnUse">
<stop stop-color="#E9E7E8"/>
<stop offset="0.5011" stop-color="#333235"/>
<stop offset="1" stop-color="#A0A3A9"/>
</linearGradient>
</defs>
</svg>
