<svg xmlns="http://www.w3.org/2000/svg" version="1.1" xmlns:xlink="http://www.w3.org/1999/xlink" xmlns:svgjs="http://svgjs.com/svgjs" width="512" height="512" x="0" y="0" viewBox="0 0 32 32" style="enable-background:new 0 0 512 512" xml:space="preserve" class=""><g><g id="search"><path d="m18 3a11 11 0 0 0 -8.44 18.05l-6.27 6.24a1 1 0 0 0 0 1.42 1 1 0 0 0 .71.29 1 1 0 0 0 .71-.29l6.29-6.25a11 11 0 1 0 7-19.46zm0 20a9 9 0 1 1 9-9 9 9 0 0 1 -9 9z" fill="#fff" data-original="#000000" class=""></path></g></g></svg>