<svg width="21" height="21" viewBox="0 0 21 21" fill="none" xmlns="http://www.w3.org/2000/svg">
<path d="M20.6306 18.763L14.9432 13.0756C16.0449 11.7147 16.7082 9.98558 16.7082 8.10227C16.7082 3.73732 13.1565 0.185669 8.79156 0.185669C4.42661 0.185669 0.875 3.73728 0.875 8.10224C0.875 12.4672 4.42665 16.0188 8.7916 16.0188C10.6749 16.0188 12.4041 15.3555 13.7649 14.2539L19.4523 19.9413C19.6148 20.1038 19.8281 20.1855 20.0415 20.1855C20.2548 20.1855 20.4682 20.1038 20.6307 19.9413C20.9565 19.6155 20.9565 19.0888 20.6306 18.763ZM8.7916 14.3522C5.34496 14.3522 2.54166 11.5489 2.54166 8.10224C2.54166 4.65559 5.34496 1.85229 8.7916 1.85229C12.2382 1.85229 15.0415 4.65559 15.0415 8.10224C15.0415 11.5489 12.2382 14.3522 8.7916 14.3522Z" fill="url(#paint0_linear_2759_155576)"/>
<defs>
<linearGradient id="paint0_linear_2759_155576" x1="2.54167" y1="0.185669" x2="19.5417" y2="0.185669" gradientUnits="userSpaceOnUse">
<stop stop-color="#DC2430"/>
<stop offset="1" stop-color="#7B4397"/>
</linearGradient>
</defs>
</svg>
