<svg width="21" height="20" viewBox="0 0 21 20" fill="none" xmlns="http://www.w3.org/2000/svg">
<path fill-rule="evenodd" clip-rule="evenodd" d="M0.501953 9.99805H10.4999V20.0001H4.61682C3.52876 20.0001 2.48525 19.5678 1.71587 18.7985C0.946496 18.0291 0.514267 16.9856 0.514267 15.8975L0.501953 9.99805Z" fill="#F2F1ED"/>
<path fill-rule="evenodd" clip-rule="evenodd" d="M0.501953 9.99792H10.4999V0H4.61682C3.52876 0 2.48525 0.432229 1.71587 1.20161C0.946496 1.97099 0.514267 3.01449 0.514267 4.10255L0.501953 9.99792Z" fill="#FFDD33"/>
<path fill-rule="evenodd" clip-rule="evenodd" d="M20.4979 9.99805H10.5V20.0001H16.379C17.467 20.0001 18.5105 19.5678 19.2799 18.7985C20.0493 18.0291 20.4815 16.9856 20.4815 15.8975L20.4979 9.99805Z" fill="black"/>
<path fill-rule="evenodd" clip-rule="evenodd" d="M20.4979 9.99792H10.5V0H16.379C17.467 0 18.5105 0.432229 19.2799 1.20161C20.0493 1.97099 20.4815 3.01449 20.4815 4.10255L20.4979 9.99792Z" fill="#FFDD33"/>
</svg>
