<svg width="13" height="14" viewBox="0 0 13 14" fill="none" xmlns="http://www.w3.org/2000/svg">
<path d="M6.15234 0C4.1169 0 2.46094 1.65596 2.46094 3.69141C2.46094 5.72685 4.1169 7.38281 6.15234 7.38281C8.18779 7.38281 9.84375 5.72685 9.84375 3.69141C9.84375 1.65596 8.18779 0 6.15234 0Z" fill="url(#paint0_linear_3166_165293)"/>
<path d="M10.7452 9.79439C9.73454 8.76824 8.39478 8.20312 6.97266 8.20312H5.33203C3.90994 8.20312 2.57015 8.76824 1.55952 9.79439C0.553848 10.8155 0 12.1634 0 13.5898C0 13.8164 0.183641 14 0.410156 14H11.8945C12.121 14 12.3047 13.8164 12.3047 13.5898C12.3047 12.1634 11.7508 10.8155 10.7452 9.79439Z" fill="url(#paint1_linear_3166_165293)"/>
<defs>
<linearGradient id="paint0_linear_3166_165293" x1="1.02539" y1="0" x2="11.4844" y2="0" gradientUnits="userSpaceOnUse">
<stop stop-color="#DC2430"/>
<stop offset="1" stop-color="#7B4397"/>
</linearGradient>
<linearGradient id="paint1_linear_3166_165293" x1="1.02539" y1="0" x2="11.4844" y2="0" gradientUnits="userSpaceOnUse">
<stop stop-color="#DC2430"/>
<stop offset="1" stop-color="#7B4397"/>
</linearGradient>
</defs>
</svg>
