<svg width="50" height="50" viewBox="0 0 50 50" fill="none" xmlns="http://www.w3.org/2000/svg">
<path fill-rule="evenodd" clip-rule="evenodd" d="M24.5521 36.3006H26.9521C26.9521 36.3006 27.6521 36.2006 28.0521 35.8006C28.4021 35.4506 28.4021 34.7506 28.4021 34.7506C28.4021 34.7506 28.3521 31.5506 29.8521 31.0506C31.3021 30.6006 33.2021 34.1506 35.2021 35.5006C36.7021 36.5506 37.8521 36.3006 37.8521 36.3006L43.2021 36.2506C43.2021 36.2506 46.0021 36.1006 44.6521 33.9006C44.5521 33.7006 43.9021 32.2506 40.7021 29.3006C37.3521 26.2006 37.8021 26.7006 41.8521 21.3006C44.3021 18.0506 45.3021 16.0506 45.0021 15.1506C44.7021 14.3506 42.9021 14.5506 42.9021 14.5506L36.9021 14.6006C36.9021 14.6006 36.4521 14.5506 36.1021 14.7506C35.7021 15.0006 35.5021 15.4506 35.5021 15.4506C35.5021 15.4506 34.5521 18.0006 33.3021 20.1506C30.6021 24.7006 29.5521 24.9506 29.1021 24.6506C28.1021 24.0006 28.3521 22.0006 28.3521 20.6006C28.3521 16.2006 29.0021 14.3506 27.0521 13.9006C26.4021 13.7506 25.9021 13.6506 24.2521 13.6006C22.1021 13.6006 20.3021 13.6006 19.2521 14.1006C18.5521 14.4506 18.0521 15.2006 18.3521 15.2006C18.7521 15.2506 19.6521 15.4506 20.1021 16.1006C20.7021 16.9506 20.7021 18.8006 20.7021 18.8006C20.7021 18.8006 21.0521 24.0006 19.8521 24.6506C19.0521 25.1006 17.9521 24.2006 15.5521 20.0506C14.3521 17.9506 13.4021 15.6006 13.4021 15.6006C13.4021 15.6006 13.2021 15.1506 12.9021 14.9506C12.6521 14.7506 12.1521 14.6006 11.6021 14.6006L6.25208 14.6506C6.25208 14.6506 5.40208 14.6506 5.10208 15.0506C4.80208 15.4006 5.10208 16.0506 5.10208 16.0506C5.10208 16.0506 9.60208 26.5006 14.6521 31.7506C19.3021 36.6506 24.5521 36.3006 24.5521 36.3006Z" fill="url(#paint0_linear_2759_167830)"/>
<defs>
<linearGradient id="paint0_linear_2759_167830" x1="8.30917" y1="13.6006" x2="42.3814" y2="13.6006" gradientUnits="userSpaceOnUse">
<stop stop-color="#DC2430"/>
<stop offset="1" stop-color="#7B4397"/>
</linearGradient>
</defs>
</svg>
