<svg width="50" height="50" viewBox="0 0 50 50" fill="none" xmlns="http://www.w3.org/2000/svg">
<g clip-path="url(#clip0_2759_162692)">
<path d="M25 0C11.1813 0 0 11.1823 0 25C0 38.8187 11.1823 50 25 50C38.8187 50 50 38.8177 50 25C50 11.1813 38.8177 0 25 0ZM25 46.0938C13.3405 46.0938 3.90625 36.6587 3.90625 25C3.90625 13.3405 13.3413 3.90625 25 3.90625C36.6595 3.90625 46.0938 13.3413 46.0938 25C46.0938 36.6595 36.6587 46.0938 25 46.0938Z" fill="url(#paint0_linear_2759_162692)"/>
<path d="M25 13C23.8954 13 23 13.8488 23 14.8958V27.1042C23 28.1512 23.8954 29 25 29C26.1046 29 27 28.1512 27 27.1042V14.8958C27 13.8488 26.1046 13 25 13Z" fill="url(#paint1_linear_2759_162692)"/>
<path d="M24.5 36C25.8807 36 27 34.8807 27 33.5C27 32.1193 25.8807 31 24.5 31C23.1193 31 22 32.1193 22 33.5C22 34.8807 23.1193 36 24.5 36Z" fill="url(#paint2_linear_2759_162692)"/>
</g>
<defs>
<linearGradient id="paint0_linear_2759_162692" x1="0" y1="26.875" x2="50" y2="26.875" gradientUnits="userSpaceOnUse">
<stop stop-color="#7B4397"/>
<stop offset="1" stop-color="#DD2430"/>
</linearGradient>
<linearGradient id="paint1_linear_2759_162692" x1="23" y1="21.6" x2="27" y2="21.6" gradientUnits="userSpaceOnUse">
<stop stop-color="#7B4397"/>
<stop offset="1" stop-color="#DD2430"/>
</linearGradient>
<linearGradient id="paint2_linear_2759_162692" x1="22" y1="33.6875" x2="27" y2="33.6875" gradientUnits="userSpaceOnUse">
<stop stop-color="#7B4397"/>
<stop offset="1" stop-color="#DD2430"/>
</linearGradient>
<clipPath id="clip0_2759_162692">
<rect width="50" height="50" fill="white"/>
</clipPath>
</defs>
</svg>
