<svg width="50" height="50" viewBox="0 0 50 50" fill="none" xmlns="http://www.w3.org/2000/svg">
<path d="M25.001 13.6738H24.9953C18.7503 13.6738 13.6719 18.7537 13.6719 25.0001C13.6719 27.4777 14.4704 29.7742 15.8281 31.6387L14.4166 35.8465L18.7701 34.4547C20.5611 35.6412 22.6975 36.3264 25.001 36.3264C31.246 36.3264 36.3245 31.2452 36.3245 25.0001C36.3245 18.7551 31.246 13.6738 25.001 13.6738ZM31.5915 29.668C31.3182 30.4396 30.2337 31.0795 29.3687 31.2664C28.7769 31.3924 28.0039 31.4929 25.4017 30.4141C22.0732 29.0351 19.9297 25.6528 19.7626 25.4334C19.6026 25.2139 18.4176 23.6424 18.4176 22.0171C18.4176 20.3917 19.243 19.6003 19.5757 19.2605C19.849 18.9816 20.3006 18.8542 20.7338 18.8542C20.874 18.8542 21 18.8613 21.1133 18.8669C21.446 18.8811 21.613 18.9009 21.8325 19.4262C22.1057 20.0845 22.7711 21.7098 22.8504 21.8769C22.9311 22.044 23.0118 22.2705 22.8986 22.4899C22.7924 22.7165 22.6989 22.817 22.5319 23.0095C22.3648 23.2021 22.2062 23.3493 22.0392 23.556C21.8863 23.7358 21.7135 23.9284 21.9061 24.2611C22.0986 24.5867 22.7641 25.6726 23.7438 26.5447C25.0081 27.6703 26.0331 28.0299 26.3998 28.1828C26.673 28.2961 26.9987 28.2692 27.1983 28.0568C27.4517 27.7836 27.7646 27.3305 28.0832 26.8845C28.3097 26.5646 28.5957 26.5249 28.8958 26.6382C29.2016 26.7444 30.8199 27.5443 31.1526 27.7099C31.4853 27.877 31.7048 27.9563 31.7854 28.0964C31.8647 28.2366 31.8647 28.895 31.5915 29.668Z" fill="url(#paint0_linear_2759_167835)"/>
<defs>
<linearGradient id="paint0_linear_2759_167835" x1="15.5596" y1="13.6738" x2="34.8143" y2="13.6738" gradientUnits="userSpaceOnUse">
<stop stop-color="#DC2430"/>
<stop offset="1" stop-color="#7B4397"/>
</linearGradient>
</defs>
</svg>
