<svg width="122" height="99" viewBox="0 0 122 99" fill="none" xmlns="http://www.w3.org/2000/svg">
<g clip-path="url(#clip0_2379_204700)">
<path d="M113.307 36.2009C113.103 35.8778 112.746 35.7238 112.391 35.716C112.104 34.6311 111.736 33.5667 111.255 32.5435C110.683 31.3278 108.824 31.9802 108.821 33.203C108.791 41.6324 105.691 47.978 99.8034 53.822C99.1783 54.4421 98.9247 55.1789 98.9364 55.9013C96.2065 56.642 93.3037 56.8033 90.2563 56.8322C89.5873 56.8383 89.0006 57.0213 88.4857 57.3054C86.3725 56.4863 83.6465 57.8259 83.3456 60.7021C83.2806 61.3249 83.3473 62.1707 83.4124 63.0822C82.6822 63.1795 81.9298 63.4842 81.2108 64.0554C81.6979 63.6689 77.2942 61.9895 76.6118 61.7437C74.561 61.0052 72.4506 60.4908 70.2996 60.1482C66.0932 59.4787 61.8808 59.4881 57.6745 60.1471C50.805 61.2226 40.3108 64.6876 37.5443 71.8063C37.4653 72.0098 37.4486 72.2372 37.4686 72.4691C36.1485 71.1957 34.7877 69.9628 33.3935 68.8156C32.1812 67.8179 30.7838 67.7707 29.6404 68.2589C28.0049 66.2347 26.3244 64.2494 24.5088 62.3837C23.3276 61.1698 21.6949 62.7052 22.3099 64.0804C24.4504 68.8706 27.2392 73.5296 30.1159 77.9111C31.4277 79.9092 32.6367 82.2798 34.2305 84.1811C34.0303 84.4414 33.8384 84.6955 33.671 84.9357C32.3675 86.8059 31.0424 88.6421 29.9302 90.6346C29.1288 92.0705 30.9439 93.3473 32.129 92.3313C34.0787 90.6602 35.8476 88.7767 37.611 86.9004C37.7005 86.9416 37.7917 86.9794 37.8835 87.0172C36.0528 90.4572 35.039 94.2087 35.6202 98.0402C35.8131 99.3126 37.5192 99.2152 38.1104 98.3655C40.1362 95.4555 41.4536 92.1361 43.2743 89.1043C45.2434 85.8249 47.782 83.0862 50.7399 80.681C51.8132 79.808 51.6997 78.237 51.1981 77.1298C50.9485 76.5787 50.6626 76.0688 50.3595 75.5744C54.5564 72.5019 59.2232 69.7398 64.5762 70.5728C68.5551 71.1918 72.1302 73.1709 75.8305 74.7669C79.2294 77.3567 83.7611 77.5541 87.1799 74.6868C89.9504 72.3635 91.3251 68.6799 91.4324 65.0096C105.981 65.9522 122.56 50.8925 113.307 36.2009ZM43.0697 79.9147C43.0719 79.8836 43.0785 79.853 43.0797 79.8213C43.1525 78.1563 41.8006 76.9318 40.7691 75.8252C40.3064 75.3291 39.8304 74.837 39.3527 74.346C39.6674 74.3904 39.9822 74.4344 40.2975 74.4789C40.9031 74.564 41.6688 74.2314 41.8957 73.6558C42.1237 73.5635 42.3512 73.4679 42.5769 73.3667C42.5269 73.8377 42.8244 74.2564 43.2404 74.4694C43.1169 75.4254 43.445 76.4808 44.074 77.117C44.3876 77.4345 44.6529 77.7498 44.902 78.0707C44.2825 78.6563 43.6702 79.2741 43.0697 79.9147Z" fill="#E0DFE6"/>
<path d="M83.7432 51.1565C80.0574 51.1565 80.0513 56.8843 83.7432 56.8843C87.429 56.8843 87.4352 51.1565 83.7432 51.1565Z" fill="#E0DFE6"/>
<path d="M82.132 22.1522C73.1944 20.9261 63.8024 20.0808 54.8014 21.089C52.8979 21.302 52.2879 23.9668 54.3293 24.5763C61.2522 26.6433 68.5382 27.9479 75.7252 29.1179C75.8904 29.5278 76.1111 29.9393 76.4331 30.3425C76.6989 30.6756 76.9653 31.0087 77.2311 31.3418C79.3081 33.9421 82.9589 32.0475 83.9187 29.5762C84.2474 28.7298 84.5761 27.8834 84.9053 27.0365C85.6121 25.2164 84.1106 22.4236 82.132 22.1522Z" fill="#E0DFE6"/>
<path d="M74.0466 31.4217C71.25 31.6747 68.5118 32.0823 65.6907 31.9878C62.774 31.8905 59.9918 31.2026 57.1329 30.6893C54.3469 30.1888 52.1347 32.8125 53.4855 35.4339C55.1154 38.597 54.6522 42.8439 55.3417 46.2901C55.6465 47.811 57.8091 47.608 58.2229 46.2901C59.0292 43.7231 58.9297 41.12 59.007 38.5286C64.147 40.2636 70.0544 40.5578 75.1171 39.3333C79.4347 38.2884 78.6406 31.0057 74.0466 31.4217Z" fill="#E0DFE6"/>
<path d="M96.14 11.5239C94.1642 10.5691 92.0382 9.9741 90.0591 9.0304C86.9994 7.57175 85.3383 5.22947 83.3164 2.57966C82.3576 1.32343 80.5331 2.35722 81.1904 3.82254C82.9243 7.6902 84.3707 11.148 88.0921 13.4664C89.7888 14.5235 91.6584 15.2448 93.4084 16.198C95.6234 17.4041 96.6316 18.5875 97.4229 20.5478C97.1821 20.5728 96.9335 20.6228 96.6727 20.7263C94.8621 21.4431 92.9786 22.0058 91.0283 22.1582C89.2972 22.2934 87.4532 21.9558 85.7971 22.4774C84.75 22.8072 84.3741 24.1057 85.1543 24.9115C88.1377 27.9917 94.4939 27.3199 98.2648 26.5036C99.7413 26.1838 100.364 25.0394 100.375 23.836C101.865 23.9477 103.44 22.9301 103.575 21.0221C103.882 16.6534 99.7252 13.2567 96.14 11.5239Z" fill="#E0DFE6"/>
<path d="M52.3413 23.0331C52.2896 21.6607 50.039 21.1902 49.8121 22.6911C48.7878 29.4711 47.2346 36.2288 45.3739 42.8452C44.6977 43.3819 44.2528 44.2216 44.3095 45.3883C44.3323 45.8515 44.3546 46.3147 44.3774 46.778C44.552 50.3581 50.4172 51.6394 51.0189 47.6766C52.2695 39.4375 52.6555 31.3568 52.3413 23.0331Z" fill="#E0DFE6"/>
<path d="M1.25846 68.9062C0.973742 68.9062 0.687907 68.8084 0.454902 68.6087C-0.062826 68.165 -0.123441 67.3848 0.320882 66.867C5.17173 61.2071 9.32968 56.944 13.4053 53.4506C13.9231 53.0063 14.7033 53.0652 15.147 53.5846C15.5913 54.1023 15.5313 54.8825 15.013 55.3263C11.0358 58.7352 6.96292 62.9137 2.1966 68.4747C1.95247 68.76 1.60603 68.9062 1.25846 68.9062Z" fill="url(#paint0_linear_2379_204700)"/>
<path d="M17.5197 50.3109C17.2917 50.3109 17.0604 50.2475 16.8541 50.1157C16.2796 49.7476 16.1122 48.983 16.4809 48.4091C18.8254 44.751 20.804 40.1883 22.8989 35.3574C29.2312 20.7543 36.4087 4.20312 57.2263 4.20312C57.8146 4.20312 68.0302 5.21856 78.006 7.1282C96.7526 10.7162 98.9209 14.3764 98.9209 16.8171C98.9209 21.1285 93.4394 23.0588 88.0069 23.0588C83.5709 23.0588 79.1099 22.3725 74.7957 21.7091C70.5743 21.0601 66.21 20.3889 61.9648 20.3889C59.568 20.3889 57.3948 20.5964 55.3205 21.024C54.6493 21.1597 53.9981 20.7309 53.8608 20.0631C53.7234 19.3946 54.1533 18.7412 54.8217 18.6033C57.0622 18.1423 59.3984 17.9176 61.9648 17.9176C66.3991 17.9176 70.8585 18.6033 75.1716 19.2667C79.394 19.9157 83.7594 20.5875 88.0069 20.5875C91.2712 20.5875 96.4501 19.5637 96.4501 16.8166C96.4501 16.2126 95.5487 13.0256 77.7569 9.59561C67.7082 7.65816 57.7318 6.695 57.2012 6.67331C38.0314 6.67387 31.197 22.4348 25.1666 36.3401C23.0312 41.2649 21.0137 45.9166 18.5613 49.742C18.3255 50.1107 17.9268 50.3109 17.5197 50.3109Z" fill="url(#paint1_linear_2379_204700)"/>
<path d="M53.9892 48.5119C53.4526 48.5119 52.9587 48.1599 52.803 47.6188C51.1064 41.7459 50.2461 35.5042 50.2461 29.0679C50.2461 26.0116 50.4441 22.9086 50.835 19.8456C50.9218 19.1683 51.539 18.69 52.2169 18.7768C52.8937 18.863 53.3725 19.4819 53.2857 20.1587C52.9081 23.1182 52.7168 26.1156 52.7168 29.0679C52.7168 35.2723 53.5443 41.2832 55.1765 46.9331C55.3661 47.5888 54.9885 48.2733 54.3329 48.463C54.2177 48.4963 54.1026 48.5119 53.9892 48.5119Z" fill="url(#paint2_linear_2379_204700)"/>
<path d="M39.755 78.0478C39.4302 78.0478 39.1049 77.9204 38.8625 77.6663C38.3909 77.1736 38.4076 76.3912 38.9008 75.9196C43.0593 71.9379 53.8443 62.6778 64.1488 62.6778C68.2879 62.6778 71.5082 64.3466 74.3493 65.8197C76.785 67.0826 78.8888 68.1726 81.2294 68.1726C84.1489 68.1726 85.4446 65.4889 85.4446 64.469C85.4446 59.5736 78.5634 49.4649 57.2916 49.4649C53.772 49.4649 50.0478 49.7657 46.223 50.3591C45.5468 50.4597 44.9178 50.0015 44.8127 49.3275C44.7082 48.653 45.1697 48.0218 45.8443 47.9173C49.7937 47.305 53.6452 46.9941 57.2916 46.9941C79.6017 46.9941 87.9159 57.7129 87.9159 64.4695C87.9159 67.0476 85.3723 70.6439 81.2294 70.6439C78.2865 70.6439 75.8213 69.3665 73.2115 68.0136C70.4944 66.605 67.6856 65.1491 64.1483 65.1491C57.6202 65.1491 48.8205 69.8426 40.6086 77.7047C40.37 77.9338 40.0625 78.0478 39.755 78.0478Z" fill="url(#paint3_linear_2379_204700)"/>
<path d="M33.4065 95.244C33.2113 95.244 33.0128 95.1973 32.8282 95.0995C32.2254 94.7791 31.9968 94.0312 32.3166 93.4289C34.8874 88.5903 38.2429 84.0481 42.3046 79.9063C33.5678 74.6528 26.0821 67.4708 18.8312 60.514L17.0144 58.7729C16.5211 58.3013 16.5039 57.5194 16.9755 57.0262C17.4476 56.5329 18.23 56.5168 18.7222 56.9872L20.5417 58.7312C28.0674 65.9516 35.8494 73.4177 44.9244 78.5761C45.2625 78.7685 45.4905 79.1088 45.5395 79.4942C45.589 79.8796 45.4533 80.2666 45.1741 80.5369C40.7787 84.8011 37.1869 89.529 34.4992 94.5884C34.2768 95.0055 33.8486 95.244 33.4065 95.244Z" fill="url(#paint4_linear_2379_204700)"/>
<path d="M48.3651 77.5673C48.0069 77.5673 47.6527 77.4127 47.408 77.1141C46.9759 76.5858 47.0543 75.8073 47.5821 75.3758C50.2358 73.2053 53.5729 72.7382 55.8518 72.5752C56.5419 72.5135 57.1236 73.039 57.172 73.7197C57.2209 74.4004 56.7082 74.9915 56.0275 75.0399C52.9384 75.2606 50.7518 75.9752 49.1458 77.2887C48.9167 77.4761 48.6403 77.5673 48.3651 77.5673Z" fill="url(#paint5_linear_2379_204700)"/>
<path d="M38.8559 70.1869C38.7096 70.1869 38.5612 70.1607 38.4166 70.1057C34.3176 68.5441 31.3997 65.4194 28.5786 62.3981L28.0492 61.832C27.5821 61.3343 27.6077 60.5525 28.1054 60.0859C28.6042 59.6188 29.3861 59.6449 29.8515 60.1421L30.3843 60.7121C33.0135 63.5276 35.7323 66.4393 39.2963 67.7967C39.9336 68.0398 40.2539 68.7532 40.0109 69.3911C39.8229 69.8838 39.3536 70.1869 38.8559 70.1869Z" fill="url(#paint6_linear_2379_204700)"/>
<path d="M95.5751 61.4689C95.5523 61.4689 95.5295 61.4689 95.5067 61.4689C90.3589 61.45 85.5292 59.4053 81.9079 55.7116C78.3399 52.0731 76.3402 47.1222 76.4203 42.1295C76.4659 39.2333 77.21 36.3372 78.5713 33.7541C78.8899 33.1507 79.6368 32.9194 80.2401 33.2369C80.8441 33.555 81.0754 34.3024 80.7573 34.9058C79.5762 37.1469 78.9305 39.6582 78.891 42.1684C78.821 46.5054 80.5638 50.8108 83.6718 53.9811C86.8271 57.1998 91.0334 58.981 95.5156 58.9971C95.5351 58.9971 95.5556 58.9971 95.5745 58.9971C99.9649 58.9976 104.313 57.1536 107.513 53.9327C110.689 50.7368 112.415 46.6239 112.372 42.3514C112.327 38.001 110.6 33.9688 107.509 30.9975C104.226 27.8422 99.648 26.1845 94.6308 26.3324C94.067 26.3491 93.4758 26.3952 92.8736 26.4698C89.5025 26.8791 86.4134 28.341 83.9365 30.6978C83.4421 31.1677 82.6597 31.1488 82.1898 30.655C81.7193 30.1606 81.7388 29.3787 82.2326 28.9083C85.0971 26.1823 88.6728 24.4912 92.5727 24.0174C93.2478 23.934 93.9168 23.8817 94.5574 23.8628C100.244 23.6993 105.456 25.5972 109.221 29.2169C112.794 32.6514 114.79 37.3076 114.842 42.3269C114.892 47.2662 112.911 52.0064 109.265 55.6755C105.606 59.3597 100.618 61.4689 95.5751 61.4689Z" fill="url(#paint7_linear_2379_204700)"/>
<path d="M82.6583 10.5497C82.2167 10.5497 81.7891 10.3123 81.5666 9.89522C81.0517 8.92983 80.7486 7.90327 80.4555 6.91119C79.6659 4.23691 79.1437 2.47075 75.3089 2.47075C70.3206 2.47075 65.5071 3.64356 60.4104 4.88477C58.3184 5.39471 56.1546 5.92189 54.0014 6.35231C53.3296 6.48689 52.6818 6.05202 52.5477 5.38303C52.4137 4.71405 52.8475 4.06341 53.5165 3.92939C55.6196 3.50898 57.7573 2.98792 59.8254 2.48409C64.8392 1.26346 70.0237 0 75.3089 0C80.9905 0 82.0076 3.44392 82.8256 6.21106C83.0959 7.12529 83.3506 7.98891 83.7476 8.73242C84.0685 9.33467 83.8411 10.0826 83.2388 10.404C83.0536 10.5025 82.8546 10.5497 82.6583 10.5497Z" fill="url(#paint8_linear_2379_204700)"/>
<path d="M58.1552 34.4952C55.7734 34.4952 53.2031 32.8386 53.2031 30.1627C53.2031 27.668 55.3413 24.9771 56.9028 23.0124C57.1448 22.7082 57.3716 22.4234 57.5713 22.1615C57.9856 21.6199 58.7619 21.5165 59.303 21.9307C59.8452 22.345 59.9486 23.1202 59.5338 23.6624C59.3252 23.9349 59.0889 24.233 58.837 24.5494C57.5774 26.1348 55.6739 28.53 55.6739 30.1627C55.6739 31.3772 57.1147 32.0245 58.1552 32.0245C59.1906 32.0245 60.3457 31.5657 61.3244 30.7655C61.8521 30.3328 62.6307 30.4107 63.0628 30.9395C63.4948 31.4678 63.4175 32.2458 62.8892 32.6779C61.4773 33.8324 59.7517 34.4952 58.1552 34.4952Z" fill="url(#paint9_linear_2379_204700)"/>
<path d="M65.5948 35.9212C62.5663 35.9212 60.6094 33.9365 60.6094 30.8651C60.6094 28.7909 61.5987 26.6933 62.5735 24.9983C62.6136 24.3527 63.1507 23.8411 63.8064 23.8411H63.961C64.4064 23.8411 64.8168 24.0802 65.0359 24.4678C65.2556 24.8554 65.2495 25.3309 65.0203 25.7123C64.1172 27.2177 63.0801 29.1635 63.0801 30.8651C63.0801 32.0441 63.5167 33.4504 65.5948 33.4504C67.1341 33.4504 70.0631 32.549 70.9684 31.1905C71.346 30.6227 72.1123 30.4692 72.6817 30.8479C73.2495 31.2266 73.403 31.9935 73.0243 32.5612C71.4967 34.8535 67.6874 35.9212 65.5948 35.9212Z" fill="url(#paint10_linear_2379_204700)"/>
<path d="M76.2934 36.46C72.9318 36.46 70.4922 33.918 70.4922 30.4152C70.4922 28.2325 71.3213 25.9831 71.9258 24.3403C72.1616 23.7003 72.874 23.3733 73.5124 23.608C74.1524 23.8437 74.4805 24.5544 74.2447 25.1945C73.7037 26.6626 72.9629 28.6735 72.9629 30.4152C72.9629 32.8842 74.6357 33.9892 76.2934 33.9892C81.7676 33.9892 82.7925 27.0541 82.9788 24.0717C83.0216 23.3905 83.6011 22.87 84.289 22.9162C84.9697 22.959 85.4874 23.5451 85.4446 24.2263C84.9658 31.8866 81.5446 36.46 76.2934 36.46Z" fill="url(#paint11_linear_2379_204700)"/>
<path d="M106.411 21.8742C105.439 21.8742 104.355 21.1163 104.355 20.0285C104.355 19.4174 104.694 18.992 104.896 18.7373C104.933 18.69 104.975 18.6438 105.006 18.5927C105.221 17.9454 105.894 17.6629 106.54 17.8775C107.489 18.1934 107.839 18.8935 108.027 19.2695C108.154 19.5236 108.218 19.7916 108.218 20.068C108.218 21.0468 107.391 21.8742 106.411 21.8742ZM105.945 19.5764C105.82 19.6943 105.747 19.865 105.747 20.0675C105.747 20.0875 105.945 19.5764 105.945 19.5764Z" fill="url(#paint12_linear_2379_204700)"/>
<path d="M116.341 30.2023C115.268 30.2023 114.328 29.2419 114.328 28.1475C114.328 27.5252 114.612 26.9252 115.171 26.3663C115.535 26.0026 116.084 25.9031 116.549 26.1122C116.588 26.1222 116.629 26.1289 116.67 26.1378C117.024 26.2084 117.758 26.3546 118.185 27.0681C118.362 27.3629 118.456 27.7032 118.456 28.0513C118.457 29.1768 117.448 30.2023 116.341 30.2023ZM116.584 27.7794L116.764 27.9595C116.725 27.8678 116.657 27.8127 116.584 27.7794ZM116.584 26.1278C116.589 26.13 116.593 26.1322 116.598 26.1344C116.593 26.1328 116.589 26.1305 116.584 26.1278Z" fill="url(#paint13_linear_2379_204700)"/>
<path d="M120.017 43.5369C118.846 43.5369 118.09 42.7673 118.09 41.5756C118.09 40.4634 118.809 39.6136 119.88 39.4613C119.948 39.4518 120.048 39.4446 120.107 39.4446C121.182 39.4446 122.104 40.5662 122.104 41.4849C122.104 42.4759 121.266 43.5369 120.017 43.5369ZM120.004 41.0656C119.928 41.0662 119.633 41.0962 119.633 41.4849C119.633 41.6629 119.683 41.7808 119.7 41.8074C119.716 41.8197 119.865 41.9153 120.107 41.9153V41.0879C120.072 41.0762 120.038 41.0678 120.004 41.0656ZM120.158 41.1095L120.253 41.9031C120.412 41.8647 120.561 41.6751 120.561 41.5756C120.542 41.4148 120.353 41.2007 120.158 41.1095Z" fill="url(#paint14_linear_2379_204700)"/>
<path d="M118.625 58.0963C117.653 58.0963 116.863 57.2171 116.863 56.1371C116.863 55.1573 117.479 54.2698 118.329 54.024C118.494 53.9761 118.66 53.9517 118.821 53.9517C119.178 53.9517 120.344 54.0868 120.352 55.824L120.353 55.918C120.373 56.0176 120.383 56.1232 120.383 56.2294C120.382 57.1125 119.66 58.0963 118.625 58.0963ZM117.934 56.4246C117.935 56.4302 117.937 56.4358 117.938 56.4413C117.937 56.4358 117.936 56.4302 117.934 56.4246ZM117.98 55.9464C118.133 56.1905 118.44 56.4224 118.821 56.4224C118.91 56.4224 118.977 56.4085 119.019 56.3968C119.205 56.3418 119.334 56.2161 119.334 56.1371C119.334 55.928 119.082 55.6255 118.625 55.6255C118.619 55.6255 118.157 55.63 117.98 55.9464Z" fill="url(#paint15_linear_2379_204700)"/>
<path d="M108.284 67.6031C107.473 67.6031 106.57 66.893 106.57 65.8736C106.57 65.2597 106.897 64.7715 107.135 64.4139C107.361 64.0752 107.739 63.87 108.146 63.8645C108.288 63.8506 108.382 63.8428 108.475 63.8428C109.38 63.8428 110.062 64.5118 110.062 65.3993C110.062 66.5943 109.247 67.6031 108.284 67.6031ZM108.162 65.139C107.819 65.1763 107.611 65.3637 107.587 65.4393C107.59 65.7685 107.842 66.1055 108.162 66.2462V65.139ZM108.213 65.1346L109.017 65.6718C108.95 65.3921 108.734 65.1324 108.283 65.1324C108.259 65.1324 108.236 65.1329 108.213 65.1346Z" fill="url(#paint16_linear_2379_204700)"/>
<path d="M95.3666 70.1675C94.3461 70.1675 93.2617 69.5313 93.2617 68.3519C93.2617 67.828 93.4519 67.3386 93.611 67.0206C93.8851 66.4722 94.5185 66.2092 95.0996 66.3994C95.1714 66.4177 95.2503 66.4189 95.3282 66.4261C95.7575 66.4645 96.6511 66.5445 97.1655 67.402C97.3257 67.6679 97.4102 67.9693 97.4102 68.2729C97.4108 69.389 96.3331 70.1675 95.3666 70.1675ZM95.1252 67.7785L95.6707 68.0516C95.5857 67.843 95.4333 67.7168 95.3593 67.6934C95.2592 67.694 95.183 67.7279 95.1252 67.7785Z" fill="url(#paint17_linear_2379_204700)"/>
<path d="M99.5102 41.4561C99.1203 41.4561 98.7372 41.2726 98.4969 40.9295C98.1054 40.3706 98.2417 39.5998 98.8006 39.2083C99.5102 38.7117 100.22 38.2229 100.926 37.7369C103.319 36.0886 105.579 34.5327 107.681 32.7809C108.206 32.3439 108.984 32.4156 109.421 32.9389C109.857 33.4633 109.787 34.2424 109.263 34.6789C107.074 36.5029 104.661 38.1645 102.327 39.7717C101.627 40.2544 100.922 40.7393 100.218 41.2325C100.002 41.3838 99.7543 41.4561 99.5102 41.4561Z" fill="url(#paint18_linear_2379_204700)"/>
<path d="M98.4253 55.5192C97.838 55.5192 97.3175 55.0988 97.2107 54.5004C97.0912 53.8286 97.5383 53.1869 98.2095 53.0674C102.166 52.3606 105.515 49.0796 106.172 45.2647C106.288 44.5924 106.93 44.1386 107.6 44.2571C108.272 44.3728 108.724 45.0117 108.607 45.6846C107.766 50.5666 103.669 54.6022 98.6444 55.4997C98.5704 55.5125 98.4976 55.5192 98.4253 55.5192Z" fill="url(#paint19_linear_2379_204700)"/>
</g>
<defs>
<linearGradient id="paint0_linear_2379_204700" x1="1.30854" y1="53.1526" x2="14.4166" y2="53.1526" gradientUnits="userSpaceOnUse">
<stop stop-color="#DC2430"/>
<stop offset="1" stop-color="#7B4397"/>
</linearGradient>
<linearGradient id="paint1_linear_2379_204700" x1="23.1715" y1="4.20312" x2="93.4118" y2="4.20312" gradientUnits="userSpaceOnUse">
<stop stop-color="#DC2430"/>
<stop offset="1" stop-color="#7B4397"/>
</linearGradient>
<linearGradient id="paint2_linear_2379_204700" x1="50.661" y1="18.7666" x2="54.8935" y2="18.7666" gradientUnits="userSpaceOnUse">
<stop stop-color="#DC2430"/>
<stop offset="1" stop-color="#7B4397"/>
</linearGradient>
<linearGradient id="paint3_linear_2379_204700" x1="42.6359" y1="46.9941" x2="84.6228" y2="46.9941" gradientUnits="userSpaceOnUse">
<stop stop-color="#DC2430"/>
<stop offset="1" stop-color="#7B4397"/>
</linearGradient>
<linearGradient id="paint4_linear_2379_204700" x1="19.0425" y1="56.645" x2="43.6217" y2="56.645" gradientUnits="userSpaceOnUse">
<stop stop-color="#DC2430"/>
<stop offset="1" stop-color="#7B4397"/>
</linearGradient>
<linearGradient id="paint5_linear_2379_204700" x1="47.9661" y1="72.5703" x2="56.5055" y2="72.5703" gradientUnits="userSpaceOnUse">
<stop stop-color="#DC2430"/>
<stop offset="1" stop-color="#7B4397"/>
</linearGradient>
<linearGradient id="paint6_linear_2379_204700" x1="28.7463" y1="59.7517" x2="39.267" y2="59.7517" gradientUnits="userSpaceOnUse">
<stop stop-color="#DC2430"/>
<stop offset="1" stop-color="#7B4397"/>
</linearGradient>
<linearGradient id="paint7_linear_2379_204700" x1="79.62" y1="23.853" x2="112.281" y2="23.853" gradientUnits="userSpaceOnUse">
<stop stop-color="#DC2430"/>
<stop offset="1" stop-color="#7B4397"/>
</linearGradient>
<linearGradient id="paint8_linear_2379_204700" x1="55.1376" y1="0" x2="81.8018" y2="0" gradientUnits="userSpaceOnUse">
<stop stop-color="#DC2430"/>
<stop offset="1" stop-color="#7B4397"/>
</linearGradient>
<linearGradient id="paint9_linear_2379_204700" x1="54.0481" y1="21.6768" x2="62.6663" y2="21.6768" gradientUnits="userSpaceOnUse">
<stop stop-color="#DC2430"/>
<stop offset="1" stop-color="#7B4397"/>
</linearGradient>
<linearGradient id="paint10_linear_2379_204700" x1="61.6613" y1="23.8411" x2="72.3905" y2="23.8411" gradientUnits="userSpaceOnUse">
<stop stop-color="#DC2430"/>
<stop offset="1" stop-color="#7B4397"/>
</linearGradient>
<linearGradient id="paint11_linear_2379_204700" x1="71.7384" y1="22.9133" x2="84.45" y2="22.9133" gradientUnits="userSpaceOnUse">
<stop stop-color="#DC2430"/>
<stop offset="1" stop-color="#7B4397"/>
</linearGradient>
<linearGradient id="paint12_linear_2379_204700" x1="104.677" y1="17.8066" x2="107.961" y2="17.8066" gradientUnits="userSpaceOnUse">
<stop stop-color="#DC2430"/>
<stop offset="1" stop-color="#7B4397"/>
</linearGradient>
<linearGradient id="paint13_linear_2379_204700" x1="114.672" y1="26.0042" x2="118.181" y2="26.0042" gradientUnits="userSpaceOnUse">
<stop stop-color="#DC2430"/>
<stop offset="1" stop-color="#7B4397"/>
</linearGradient>
<linearGradient id="paint14_linear_2379_204700" x1="118.424" y1="39.4446" x2="121.836" y2="39.4446" gradientUnits="userSpaceOnUse">
<stop stop-color="#DC2430"/>
<stop offset="1" stop-color="#7B4397"/>
</linearGradient>
<linearGradient id="paint15_linear_2379_204700" x1="117.157" y1="53.9517" x2="120.149" y2="53.9517" gradientUnits="userSpaceOnUse">
<stop stop-color="#DC2430"/>
<stop offset="1" stop-color="#7B4397"/>
</linearGradient>
<linearGradient id="paint16_linear_2379_204700" x1="106.861" y1="63.8428" x2="109.829" y2="63.8428" gradientUnits="userSpaceOnUse">
<stop stop-color="#DC2430"/>
<stop offset="1" stop-color="#7B4397"/>
</linearGradient>
<linearGradient id="paint17_linear_2379_204700" x1="93.6074" y1="66.3379" x2="97.1337" y2="66.3379" gradientUnits="userSpaceOnUse">
<stop stop-color="#DC2430"/>
<stop offset="1" stop-color="#7B4397"/>
</linearGradient>
<linearGradient id="paint18_linear_2379_204700" x1="99.2263" y1="32.4946" x2="108.945" y2="32.4946" gradientUnits="userSpaceOnUse">
<stop stop-color="#DC2430"/>
<stop offset="1" stop-color="#7B4397"/>
</linearGradient>
<linearGradient id="paint19_linear_2379_204700" x1="98.1443" y1="44.2383" x2="107.863" y2="44.2383" gradientUnits="userSpaceOnUse">
<stop stop-color="#DC2430"/>
<stop offset="1" stop-color="#7B4397"/>
</linearGradient>
<clipPath id="clip0_2379_204700">
<rect width="122" height="99" fill="white"/>
</clipPath>
</defs>
</svg>
