<svg width="76" height="118" viewBox="0 0 76 118" fill="none" xmlns="http://www.w3.org/2000/svg">
<g clip-path="url(#clip0_2379_141921)">
<path d="M75.7572 22.6278L75.8004 22.6459C75.8588 22.6687 75.8927 22.5817 75.8442 22.5496C75.8086 22.5262 75.7671 22.5075 75.7303 22.4847C75.4102 20.9321 74.7565 19.4677 73.8143 18.1929C73.8189 18.1869 73.822 18.1798 73.8235 18.1724C73.8249 18.1649 73.8247 18.1572 73.8227 18.1499C73.8207 18.1426 73.8171 18.1358 73.8121 18.1301C73.8071 18.1244 73.8008 18.1199 73.7938 18.117C73.7763 18.1088 73.7582 18.1024 73.7407 18.0942C72.6689 16.6551 71.2285 15.5322 69.5715 14.8439C69.0458 14.6313 68.5136 14.4385 67.9844 14.2469L67.7449 14.1599C67.9405 13.8398 68.1117 13.5173 68.2706 13.1954C68.2843 13.1931 68.2972 13.1876 68.3084 13.1794C68.3195 13.1711 68.3286 13.1603 68.3347 13.1479C68.3409 13.1355 68.344 13.1217 68.3438 13.1079C68.3436 13.094 68.3402 13.0804 68.3337 13.0681C68.4866 12.7399 68.6211 12.4035 68.7368 12.0604C68.8022 12.0604 68.8571 11.9786 68.7987 11.9301L68.7852 11.9208C68.8343 11.7677 68.877 11.6147 68.9173 11.4616C68.9322 11.4586 68.9461 11.4518 68.9576 11.4417C68.969 11.4317 68.9776 11.4188 68.9825 11.4043C68.9874 11.3899 68.9885 11.3744 68.9855 11.3595C68.9826 11.3445 68.9758 11.3306 68.9657 11.3191L68.9581 11.3127C69.2457 10.1458 69.2811 8.931 69.0621 7.74932V7.74465C68.9377 7.07355 68.7441 6.41715 68.4844 5.78596C68.5037 5.7994 68.5247 5.80933 68.5428 5.82335C68.5609 5.83737 68.6012 5.80232 68.5767 5.78246C68.534 5.74566 68.485 5.71937 68.44 5.68549C68.2922 5.33499 68.1275 4.98041 67.9365 4.62699C66.5941 2.14023 64.237 0.62025 60.9306 0.107943C58.7124 -0.214804 56.4518 0.264021 54.555 1.45839C52.6581 2.65276 51.2493 4.4844 50.5817 6.62423C50.4812 6.96713 50.3866 7.3112 50.2896 7.65761C48.1555 6.59822 45.7385 6.24913 43.3919 6.66133C41.0452 7.07353 38.8919 8.22542 37.2465 9.94868C35.698 11.5733 34.7138 13.6535 34.4396 15.8811C34.1654 18.1087 34.6158 20.3654 35.7242 22.3171C37.0571 24.662 39.2226 26.4203 41.7913 27.2433C43.7785 27.9346 45.9224 28.0409 47.9682 27.5494C47.4588 28.0023 46.9471 28.4519 46.433 28.8982C46.2784 29.0154 46.1685 29.1821 46.1218 29.3704C46.075 29.5587 46.0941 29.7574 46.176 29.9333C46.3892 30.4964 46.5849 31.0648 46.7893 31.6531L46.808 31.7062C46.1318 31.5917 45.4368 31.7156 44.8418 32.0567C44.3553 32.3403 43.9565 32.7526 43.6892 33.2482C43.4219 33.7438 43.2964 34.3035 43.3266 34.8658C43.3568 35.428 43.5415 35.9711 43.8603 36.4352C44.1791 36.8993 44.6198 37.2665 45.1338 37.4964L22.7857 94.2766L21.5397 93.8134L24.2268 86.911L22.9352 86.4325C22.1437 86.1405 21.3633 85.8519 20.5863 85.5563C20.4044 85.473 20.1991 85.4562 20.006 85.5088C19.813 85.5615 19.6446 85.6802 19.5302 85.8443C19.4326 85.9699 19.3251 86.0879 19.2182 86.2065C19.1259 86.3093 19.0336 86.4121 18.946 86.5178C18.8234 86.6854 18.6792 86.836 18.5172 86.9659C18.3087 86.9162 18.1081 86.8375 17.9214 86.7322C17.9004 86.7223 17.8788 86.7129 17.846 86.7001C17.8303 86.6808 17.8127 86.6621 17.7987 86.6417C17.8057 86.3905 17.8215 86.1393 17.8373 85.8881C17.8536 85.62 17.8706 85.3524 17.877 85.0855C17.8738 84.9397 17.8295 84.7979 17.7492 84.6762C17.6689 84.5546 17.5559 84.4581 17.4231 84.3979C14.9073 83.4344 12.3879 82.4768 9.86468 81.525C9.76946 81.4888 9.67074 81.4613 9.56034 81.4315L9.03459 81.2791L6.36149 88.1406L12.1809 90.302L11.4139 92.2712L5.6307 90.1244L3.39747 95.8562L9.16077 97.9954L8.43817 99.8507C7.49855 99.5948 6.57768 99.2745 5.68211 98.892C4.79695 98.5177 3.88983 98.1976 2.96577 97.9334L2.58432 97.833L0.0987228 104.208L0 104.555L0.307851 104.739C0.355515 104.769 0.405766 104.794 0.45798 104.814L1.24192 105.113C3.57427 106 5.90759 106.883 8.24189 107.762C8.38499 107.804 8.53681 107.805 8.68061 107.766C8.8244 107.727 8.95458 107.648 9.05679 107.54C9.24372 107.327 9.42306 107.108 9.60181 106.887C9.7607 106.693 9.91959 106.498 10.0761 106.321C10.3512 106.414 10.6211 106.522 10.8846 106.644C10.8741 107.15 10.8426 107.648 10.8104 108.112C10.7881 108.287 10.8275 108.464 10.9218 108.614C11.0162 108.763 11.1596 108.875 11.3274 108.93L11.6779 109.055C11.9116 109.138 12.1452 109.221 12.3789 109.307L15.1058 110.319L17.5329 104.089C17.5394 104.087 17.5454 104.084 17.5505 104.079C17.5556 104.075 17.5597 104.069 17.5624 104.063C17.5651 104.057 17.5665 104.05 17.5663 104.043C17.5662 104.037 17.5646 104.03 17.5616 104.024V104.021L17.7987 103.398L18.9483 103.825L16.3564 110.478L17.0352 110.728C17.1293 110.762 17.2198 110.794 17.3074 110.827C17.2262 110.862 17.1427 110.894 17.0609 110.925C16.6074 111.092 16.1925 111.35 15.8415 111.682C15.4904 112.014 15.2105 112.415 15.0186 112.858C14.8267 113.302 14.7269 113.78 14.7252 114.263C14.7235 114.747 14.82 115.225 15.0088 115.67C15.2551 116.273 15.6547 116.8 16.1679 117.2C16.6811 117.601 17.29 117.86 17.9342 117.952C18.1208 117.982 18.3091 117.998 18.498 118.002C19.019 118.019 19.5373 117.919 20.0142 117.709C20.4911 117.498 20.9143 117.182 21.2523 116.785C22.451 115.347 22.618 113.926 21.7482 112.565C21.7264 112.532 21.7069 112.497 21.6898 112.461L22.7086 112.84L23.6386 110.453C23.6882 110.462 23.7472 110.425 23.7273 110.367C23.7198 110.343 23.7063 110.323 23.6976 110.301L35.1915 80.8007C35.2132 80.8014 35.2346 80.7958 35.2532 80.7847C35.2719 80.7735 35.2869 80.7573 35.2966 80.7378C35.3063 80.7184 35.3101 80.6966 35.3077 80.675C35.3054 80.6534 35.2968 80.6329 35.2832 80.6161C35.2791 80.6102 35.2738 80.6056 35.2691 80.6003L39.9494 68.5883L39.9792 68.6058C39.9837 68.6086 39.9891 68.6095 39.9943 68.6083C39.9994 68.607 40.0039 68.6038 40.0067 68.5993C40.0095 68.5949 40.0104 68.5894 40.0091 68.5843C40.0079 68.5791 40.0047 68.5747 40.0002 68.5719L39.964 68.5509L45.5059 54.3289L45.5714 54.3716C45.5866 54.3805 45.6045 54.3837 45.6219 54.3805C45.6393 54.3774 45.655 54.3682 45.6662 54.3545C45.6773 54.3409 45.6833 54.3237 45.6829 54.3061C45.6826 54.2884 45.676 54.2715 45.6642 54.2583C45.6339 54.2285 45.5959 54.2063 45.5644 54.1776L51.1641 39.8074C51.7575 39.9555 52.3791 39.9476 52.9686 39.7846C52.9873 39.7962 53.0048 39.8091 53.0235 39.8208C53.0334 39.8268 53.045 39.8293 53.0565 39.828C53.0679 39.8266 53.0787 39.8215 53.0869 39.8134C53.0951 39.8053 53.1004 39.7947 53.102 39.7832C53.1035 39.7717 53.1012 39.7601 53.0953 39.7501C53.7421 39.5333 54.2988 39.1083 54.6784 38.5415C56.0629 36.5255 54.8291 35.0949 53.9278 34.3531L54.0177 34.3028C54.5172 34.0218 54.9886 33.7561 55.4746 33.5236C55.7166 33.4407 55.9178 33.2685 56.037 33.0422C56.1562 32.8159 56.1845 32.5526 56.116 32.3062C55.9992 31.6829 55.9238 31.038 55.8566 30.4223C58.3177 34.2193 63.1329 35.6534 66.7804 35.0827C68.6874 34.7712 70.4772 33.9582 71.9664 32.727C73.4555 31.4958 74.5905 29.8907 75.2548 28.0763L75.2659 28.0821C75.2764 28.0887 75.2891 28.0908 75.3013 28.088C75.3134 28.0852 75.3239 28.0778 75.3304 28.0672C75.337 28.0567 75.3392 28.044 75.3364 28.0319C75.3336 28.0198 75.3261 28.0093 75.3155 28.0027C75.3062 27.9968 75.2963 27.9922 75.2869 27.9863C75.4499 27.5488 75.5864 27.1019 75.6958 26.648C75.9996 25.3273 76.0205 23.9572 75.7572 22.6278ZM75.0644 24.8663C74.2926 24.4756 73.4848 24.1604 72.6524 23.9252C72.6167 23.9118 72.5899 23.9696 72.6249 23.9837C73.4346 24.3447 74.2384 24.7185 75.0457 25.0813C75.041 25.1502 75.0346 25.2192 75.0281 25.2887C74.1402 24.7711 72.9883 24.5789 72.0723 24.1583C72.0182 23.4624 71.8607 22.7784 71.605 22.129C72.7777 22.5889 73.9224 23.1171 75.0334 23.7109C75.0462 23.861 75.0579 24.0105 75.0632 24.1607C74.1285 23.6717 73.1203 23.2903 72.1891 22.7972C72.1664 22.785 72.1453 22.8177 72.1681 22.8311C73.1075 23.3858 74.0744 23.8927 75.0649 24.3499C75.069 24.5223 75.0737 24.694 75.0644 24.8663ZM73.979 28.8182C73.2681 28.4554 72.542 28.1253 71.8176 27.7924C71.7861 27.7778 71.7592 27.8233 71.7896 27.8379C72.5203 28.1639 73.25 28.4881 73.9673 28.8444C73.8744 29.0273 73.7786 29.2084 73.6752 29.3842C73.0116 29.0179 72.2797 28.7545 71.6096 28.4081C71.5863 28.3964 71.5652 28.4297 71.5886 28.442C72.2581 28.8006 72.9462 29.1237 73.6244 29.4654C73.5123 29.6529 73.3966 29.8375 73.2739 30.0163C72.3924 29.5361 71.397 29.2902 70.5868 28.6803C70.6096 28.6517 70.6347 28.6271 70.6569 28.5979C71.0279 28.1166 71.338 27.5911 71.5799 27.0336C72.0075 27.2421 72.445 27.432 72.8773 27.6323C73.3277 27.8414 73.7623 28.1055 74.2144 28.3216C74.1396 28.4899 74.0631 28.6558 73.9807 28.8176L73.979 28.8182ZM69.9559 28.0897C69.2799 29.0249 68.3509 29.7476 67.2782 30.1727C66.2054 30.5978 65.0336 30.7077 63.9005 30.4894C62.6629 30.3065 61.5137 29.7405 60.6143 28.8708C59.7149 28.0012 59.1105 26.8717 58.8861 25.6409C58.8949 25.6247 58.8982 25.606 58.8954 25.5878C58.8857 25.547 58.8706 25.5077 58.8505 25.4709C58.7544 24.862 58.7511 24.242 58.8405 23.632C58.8557 23.5292 58.8709 23.4404 58.8843 23.3645C59.028 22.5344 58.7529 22.4006 57.9345 22.1377L57.8714 22.1173C57.8311 22.1044 57.7914 22.0898 57.7546 22.0752C57.8196 22.0458 57.8861 22.0197 57.9538 21.9969C58.3324 21.8862 58.6835 21.6972 58.9844 21.4421C59.2853 21.187 59.5292 20.8715 59.7004 20.5161C59.8479 20.1614 59.9172 19.7791 59.9035 19.3952C59.8898 19.0113 59.7934 18.6349 59.621 18.2916C59.3213 17.6904 58.892 17.1631 58.364 16.7479C57.836 16.3326 57.2225 16.0397 56.5676 15.8902C56.0328 15.7053 55.4659 15.6318 54.9018 15.6742C54.3376 15.7166 53.788 15.874 53.2869 16.1367C52.8137 16.3673 52.4218 16.7363 52.1633 17.1949C51.9047 17.6534 51.7918 18.1798 51.8394 18.704C51.8869 19.0572 52.0019 19.3979 52.1782 19.7076L52.267 19.8916C52.2927 19.9465 52.3207 19.9997 52.3494 20.0534L52.3523 20.0593C52.2023 20.0081 52.0564 19.9456 51.9159 19.8724C51.8139 19.7995 51.6969 19.7502 51.5734 19.728C51.45 19.7059 51.3232 19.7115 51.2021 19.7443C51.0811 19.7772 50.9689 19.8366 50.8736 19.9181C50.7783 19.9996 50.7024 20.1013 50.6512 20.2158C50.1874 21.0297 49.5377 21.7224 48.7552 22.2373C47.9727 22.7522 47.0795 23.0748 46.1485 23.1787C45.0793 23.343 43.9856 23.22 42.9796 22.8222C41.9736 22.4244 41.0915 21.7662 40.4238 20.9151C39.5575 19.7888 39.1001 18.4014 39.1269 16.9808L39.1731 16.9925C39.1988 16.9983 39.2105 16.9597 39.1848 16.9545L39.1263 16.9411C39.1382 16.2275 39.2836 15.5226 39.5551 14.8626C40.1513 13.5173 41.1973 12.4215 42.5134 11.7634C43.8295 11.1053 45.3337 10.9259 46.7677 11.256C47.6483 11.4602 48.4729 11.8566 49.1824 12.4166C49.8919 12.9767 50.4689 13.6867 50.872 14.4958L51.3025 15.2902L56.2568 12.7445L55.9116 12.0616C55.8064 11.8565 55.7036 11.6568 55.609 11.4535C55.1187 10.5483 54.9447 9.50532 55.1148 8.49003C55.2595 7.8205 55.5598 7.19446 55.9916 6.66265C56.4233 6.13085 56.9743 5.70823 57.5998 5.42904C58.4078 4.97846 59.3365 4.79159 60.2559 4.89454C61.1754 4.99749 62.0397 5.38513 62.7281 6.00327C63.3283 6.54628 63.7704 7.24157 64.0076 8.01545C64.2447 8.78932 64.268 9.61294 64.0751 10.399C63.8822 11.1851 63.4801 11.9043 62.9116 12.4804C62.3431 13.0565 61.6294 13.4681 60.8459 13.6715C60.7361 13.7054 60.6251 13.7381 60.4954 13.7749L59.8348 13.9694L61.7455 19.1626L62.4039 18.9605C62.5949 18.9021 62.7836 18.8437 62.9734 18.7852C64.2653 18.3777 65.6483 18.3574 66.9516 18.7268C67.7293 18.9512 68.4497 19.3402 69.0639 19.8674C69.6781 20.3947 70.1718 21.0478 70.5114 21.7826C71.065 22.7672 71.3084 23.8962 71.2096 25.0215C71.1108 26.1468 70.6744 27.216 69.9576 28.0891L69.9559 28.0897ZM58.0221 23.2412C57.8089 23.101 57.5928 22.9643 57.3708 22.8364C57.4456 22.8656 57.5197 22.8983 57.5963 22.9228L57.6594 22.9433C57.806 22.9906 57.9561 23.0391 58.049 23.0753C58.042 23.1203 58.0332 23.1734 58.0245 23.2231L58.0221 23.2412ZM52.8786 13.5208C52.2553 13.331 51.5742 13.293 50.9573 13.0535C50.8405 12.8963 50.719 12.7439 50.594 12.5996C51.4638 12.8333 52.3342 13.0558 53.1835 13.3625L52.8786 13.5208ZM52.5234 13.7031L51.6653 14.1441L51.6373 14.0927C51.4623 13.7815 51.2694 13.4808 51.0595 13.1919C51.5236 13.4251 52.0164 13.5962 52.5252 13.7007L52.5234 13.7031ZM53.2601 13.3245C52.3723 12.9975 51.4622 12.7349 50.5367 12.5388C50.4304 12.422 50.3258 12.297 50.2143 12.1883C51.3551 12.4512 52.4995 12.7924 53.5919 13.1551L53.2601 13.3245ZM64.3894 6.72003C65.3042 7.11142 66.1308 7.64592 67.0065 8.11325C67.444 8.34691 67.8792 8.57065 68.3033 8.81424C68.3146 8.99728 68.3193 9.18012 68.3173 9.36277C67.2547 8.68573 65.8896 8.32004 64.8124 7.69499C64.7042 7.35673 64.5625 7.03012 64.3894 6.72003ZM68.2969 8.73246C67.8424 8.47309 67.3692 8.24469 66.9054 7.997C66.056 7.54253 65.2487 7.03139 64.3561 6.66103C64.1976 6.38917 64.0152 6.13191 63.8111 5.89228C65.2715 6.68323 66.7687 7.40408 68.2373 8.1816C68.2638 8.36385 68.2836 8.54689 68.2969 8.73071V8.73246ZM71.2983 21.4198C71.2591 21.3409 71.2142 21.2697 71.1733 21.1926C72.4677 21.6346 73.7212 22.1885 74.9195 22.8481C74.9584 23.0669 74.9902 23.2868 75.0147 23.5076C74.4911 23.1983 73.9408 22.9367 73.3703 22.726C72.7789 22.4588 72.1746 22.2216 71.5594 22.0151C71.4817 21.8153 71.3964 21.6161 71.2983 21.418V21.4198ZM71.7656 20.9127C72.8171 21.2697 73.788 21.7755 74.7875 22.2248C74.8184 22.348 74.8459 22.4713 74.871 22.5957C74.437 22.358 73.9527 22.1839 73.5146 21.9911C72.7513 21.6385 71.9619 21.3456 71.1534 21.1149C71.1441 21.1149 71.1423 21.1219 71.1353 21.1248C70.8002 20.5026 70.3708 19.9361 69.8624 19.4453C71.3988 20.1522 72.9544 20.7889 74.5357 21.3906C74.5941 21.5658 74.6525 21.7452 74.7016 21.9245C73.7568 21.4936 72.7827 21.1299 71.7866 20.8362C71.7777 20.8359 71.7689 20.8387 71.7617 20.8441C71.7545 20.8494 71.7494 20.8571 71.747 20.8657C71.7448 20.8744 71.7454 20.8836 71.749 20.8918C71.7526 20.9 71.7589 20.9068 71.7668 20.911L71.7656 20.9127ZM65.6045 9.75766C66.1927 10.0351 66.7787 10.3179 67.3488 10.6304C67.6052 10.7712 67.8535 10.9266 68.1082 11.0738C68.0825 11.1824 68.0533 11.2917 68.0229 11.4003C67.2169 10.9731 66.389 10.5886 65.5426 10.2483C65.4958 10.2273 65.4538 10.2898 65.4999 10.3167C66.2833 10.7601 67.0742 11.353 67.9148 11.7537C67.8897 11.8297 67.8564 11.9056 67.8319 11.9821C67.7606 11.9512 67.6882 11.9237 67.6181 11.8922C67.1297 11.6941 66.6332 11.5206 66.1612 11.2864C66.1492 11.2787 66.1346 11.276 66.1206 11.279C66.1067 11.282 66.0945 11.2905 66.0867 11.3025C66.079 11.3145 66.0763 11.3291 66.0793 11.343C66.0823 11.357 66.0908 11.3692 66.1028 11.3769C66.4883 11.6217 66.8955 11.825 67.3009 12.0359C67.4393 12.1077 67.5801 12.1901 67.7232 12.2695C67.6835 12.3683 67.6385 12.467 67.5947 12.5657C67.3447 12.4489 67.0824 12.3502 66.8353 12.2427C66.1419 11.9718 65.4923 11.6 64.9076 11.1392C64.8685 11.1059 64.8118 11.1573 64.8492 11.1947C65.3201 11.6484 65.8531 12.0329 66.4323 12.3367C66.7594 12.5184 67.0988 12.7217 67.4487 12.8946C67.3708 13.0566 67.2859 13.2184 67.194 13.38C66.4673 12.9244 65.5694 12.6574 64.9245 12.0949C64.886 12.061 64.8287 12.113 64.8661 12.1504C65.512 12.7529 66.2438 13.2563 67.0374 13.6441C66.9749 13.7492 66.9148 13.8544 66.8476 13.9589L66.8412 13.9694C66.3154 13.744 65.7897 13.5109 65.2709 13.2579C65.2242 13.2352 65.1816 13.3017 65.2283 13.3263C65.742 13.5845 66.2684 13.8167 66.8055 14.022L66.781 14.06L66.6128 14.6506L66.9738 14.7843C67.2074 14.8708 67.4426 14.9565 67.6794 15.0414C68.1982 15.2295 68.721 15.4182 69.2356 15.6255C70.1995 16.0222 71.0852 16.5868 71.8515 17.2933C70.2158 16.6507 68.5276 16.0905 66.8943 15.469C66.8528 15.4532 66.8359 15.5163 66.875 15.5326C68.6766 16.2996 70.4968 17.173 72.3731 17.8109C72.6053 18.0552 72.8246 18.3114 73.0303 18.5784C71.0845 17.7524 69.1258 17.0322 67.1198 16.3324C67.0865 16.3207 67.0725 16.3709 67.1046 16.3832C68.1748 16.8009 69.2596 17.1846 70.321 17.6234C71.2919 18.0247 72.2183 18.5124 73.2161 18.8355C73.3236 18.9856 73.4305 19.1363 73.5298 19.2923C72.1862 18.6141 70.5214 18.2759 69.2309 17.7659C69.1813 17.746 69.1439 17.8278 69.193 17.85C70.0692 18.2466 70.9723 18.5843 71.8626 18.9523C72.5636 19.2444 73.2307 19.6153 73.9112 19.9495C74.0082 20.1311 74.0958 20.3175 74.1817 20.5044C72.5461 19.724 70.8251 19.11 69.1772 18.3471C69.1381 18.329 69.1024 18.3845 69.1416 18.4055C70.8152 19.2134 72.5373 19.9243 74.2495 20.6522C74.3295 20.8351 74.4013 21.0214 74.4709 21.2089C73.8347 20.9548 73.1705 20.7661 72.5256 20.5278C71.598 20.1849 70.6913 19.7871 69.7906 19.3799C69.0542 18.699 68.1694 18.199 67.2063 17.9195C65.7404 17.5018 64.1843 17.5221 62.7299 17.9779C62.5809 18.02 62.4325 18.065 62.2841 18.1111L60.9669 14.532L61.1129 14.4876C61.8018 14.3058 62.4473 13.9876 63.0109 13.5517C63.5746 13.1159 64.045 12.5712 64.3942 11.9502C64.7434 11.3291 64.9643 10.6442 65.0439 9.93616C65.1235 9.2281 65.06 8.51127 64.8574 7.82818C65.9699 8.51208 67.1226 9.1285 68.3092 9.67412C68.3033 9.78628 68.2957 9.89785 68.2852 10.01C67.3365 9.4498 66.2827 9.0701 65.2861 8.58992C65.2318 8.56364 65.1822 8.64075 65.2365 8.66937C66.2383 9.19511 67.2752 9.66244 68.2636 10.211C68.242 10.3862 68.2151 10.5644 68.1812 10.7408C67.365 10.3191 66.5162 9.96355 65.6431 9.67763C65.5928 9.65368 65.5554 9.73429 65.6045 9.75766ZM1.06142 104.13L1.42184 103.205C1.64265 103.443 1.8658 103.68 2.07844 103.925C2.32028 104.204 2.54109 104.5 2.7765 104.783C2.37051 104.628 1.96394 104.476 1.55795 104.321L1.06142 104.13ZM17.2911 102.304L17.2198 102.486C16.6804 101.832 16.0904 101.221 15.4551 100.659C15.4487 100.654 15.4406 100.651 15.4323 100.651C15.4239 100.651 15.4159 100.654 15.4099 100.66C15.4038 100.666 15.4 100.674 15.3993 100.682C15.3986 100.69 15.401 100.699 15.406 100.705C15.9843 101.331 16.555 102.006 17.1795 102.587L16.9277 103.234C16.5428 102.843 16.1064 102.493 15.7185 102.111C15.1677 101.445 14.5526 100.835 13.8819 100.29C13.8673 100.28 13.8539 100.303 13.8679 100.313C14.5462 100.899 15.1683 101.547 15.7261 102.249C16.1093 102.637 16.4931 103.009 16.8641 103.396L16.3319 104.763C15.6414 103.968 14.5549 103.454 13.6985 102.894C13.6693 102.874 13.6401 102.919 13.6705 102.939C14.5971 103.519 15.4662 104.185 16.2659 104.93L15.8891 105.904C15.5616 105.545 15.2068 105.212 14.8277 104.907C14.2178 104.389 13.5747 103.908 12.9666 103.388C12.9473 103.371 12.9175 103.398 12.9374 103.416C13.5022 103.927 14.0998 104.402 14.67 104.908C15.0748 105.283 15.4558 105.683 15.8108 106.105L15.6075 106.626C15.0648 105.961 14.4681 105.342 13.8235 104.775C13.8172 104.769 13.8091 104.766 13.8007 104.766C13.7924 104.767 13.7844 104.77 13.7783 104.776C13.7722 104.781 13.7685 104.789 13.7678 104.797C13.767 104.806 13.7694 104.814 13.7745 104.821C14.3528 105.447 14.9235 106.121 15.548 106.702C15.5554 106.708 15.5646 106.712 15.5742 106.712L15.3172 107.372C14.4466 106.643 13.6502 105.831 12.9397 104.946C12.9228 104.926 12.8941 104.953 12.9105 104.973C13.3299 105.485 13.7417 106.004 14.1898 106.492C14.5085 106.867 14.8712 107.203 15.2699 107.492L15.0362 108.088C14.6806 107.666 14.282 107.282 13.8469 106.943C13.237 106.425 12.5939 105.944 11.9858 105.424C11.9665 105.407 11.9367 105.434 11.9566 105.452C12.5214 105.963 13.119 106.438 13.6892 106.944C14.1394 107.366 14.5635 107.814 14.9591 108.288L14.5952 109.222L14.2026 109.077C14.2026 109.073 14.2026 109.07 14.2026 109.067C13.6572 108.393 13.0548 107.766 12.4023 107.195C12.3959 107.189 12.3878 107.186 12.3795 107.187C12.3711 107.187 12.3631 107.19 12.357 107.196C12.351 107.201 12.3472 107.209 12.3465 107.218C12.3458 107.226 12.3482 107.234 12.3532 107.241C12.8935 107.825 13.4286 108.449 14.0052 109.003L12.6821 108.513C12.4484 108.426 12.2095 108.341 11.9729 108.257L11.6808 108.152C11.7141 107.671 11.7463 107.154 11.7562 106.626C11.7583 106.484 11.7227 106.345 11.653 106.221C11.5832 106.098 11.482 105.996 11.3595 105.925C10.9946 105.75 10.6181 105.6 10.2327 105.476C10.0906 105.445 9.94286 105.452 9.80438 105.497C9.66589 105.541 9.5416 105.621 9.44409 105.729C9.26475 105.935 9.09359 106.146 8.91835 106.358C8.76238 106.549 8.60582 106.741 8.44459 106.928C6.64811 106.254 4.85377 105.575 3.06157 104.89C2.63069 104.203 2.09565 103.586 1.47558 103.063L2.08252 101.506C3.01134 102.573 3.82682 103.829 4.95834 104.697C5.00565 104.734 5.07926 104.664 5.04362 104.617C4.14766 103.48 3.17075 102.409 2.1205 101.412L2.30976 100.927C3.19885 101.789 4.12474 102.614 4.9928 103.498C5.01734 103.522 5.05648 103.485 5.03194 103.461C4.1557 102.576 3.22105 101.752 2.32612 100.888L2.52765 100.371C3.1692 101.094 3.88481 101.747 4.66275 102.321C4.67499 102.331 4.69073 102.336 4.70651 102.334C4.72228 102.333 4.7368 102.325 4.74687 102.313C4.75694 102.301 4.76174 102.285 4.7602 102.269C4.75867 102.253 4.75093 102.239 4.73869 102.229C4.37243 101.839 3.93372 101.505 3.53766 101.143C3.21754 100.85 2.89236 100.563 2.56212 100.282L2.78994 99.6982C3.09604 100.035 3.40272 100.371 3.71466 100.702C4.03116 101.085 4.39895 101.422 4.80762 101.704C4.87363 101.743 4.96885 101.666 4.92154 101.597C4.61169 101.211 4.25893 100.861 3.87005 100.554C3.51955 100.238 3.17256 99.9172 2.82733 99.596L3.11356 98.8617C3.87589 99.0907 4.62303 99.3874 5.34914 99.6795C6.40424 100.136 7.49728 100.5 8.61575 100.766L8.98144 100.842L10.2812 97.5047L4.51788 95.3655L4.75154 94.7731C4.76206 94.7731 4.77141 94.7638 4.76206 94.755L4.86078 94.5015C5.08101 94.7112 5.30533 94.9169 5.5314 95.1219C5.88189 95.4408 6.19734 95.796 6.54958 96.115C6.58755 96.1488 6.6559 96.1068 6.62552 96.0601C6.12696 95.4386 5.54123 94.8924 4.88649 94.4384L5.369 93.2006C5.99128 93.6976 6.549 94.2704 7.02918 94.9058C7.05955 94.9542 7.15302 94.925 7.12965 94.8666C6.81654 94.0932 6.00573 93.6656 5.39529 93.1334L5.89241 91.857C6.62085 92.6661 7.3972 93.4436 8.1385 94.2386C8.17471 94.2772 8.24248 94.2293 8.21444 94.1837C7.54748 93.2966 6.77676 92.4926 5.91869 91.7887L6.13834 91.2256L11.9215 93.3723L13.3071 89.8148L7.48774 87.6534L8.33068 85.492C8.68644 85.8507 9.07724 86.1743 9.46395 86.5003C9.47739 86.5114 9.49666 86.4933 9.48381 86.4816C9.09359 86.1527 8.69929 85.8268 8.3412 85.4646L8.65022 84.6719C8.95763 84.9211 9.25021 85.1882 9.52646 85.4716C9.83255 85.7894 10.0738 86.1591 10.3852 86.4688C10.3931 86.477 10.4037 86.4821 10.415 86.4831C10.4264 86.4841 10.4378 86.481 10.447 86.4743C10.4563 86.4676 10.4628 86.4578 10.4654 86.4467C10.468 86.4356 10.4664 86.4239 10.4611 86.4138C10.25 86.0192 9.96177 85.6709 9.6135 85.3898C9.31576 85.1129 9.0019 84.8539 8.67358 84.614L8.97559 83.8383C9.81696 84.6208 10.5565 85.5062 11.1767 86.4734C11.203 86.5184 11.2795 86.491 11.2643 86.439C10.9571 85.3828 9.86235 84.5504 8.99312 83.7933L9.23321 83.177C9.90938 83.7902 10.5025 84.4891 10.9974 85.256C11.0161 85.2847 11.0634 85.259 11.0447 85.2303C10.5432 84.4523 9.94115 83.7438 9.25424 83.1233L9.55216 82.358C10.1479 82.9265 10.6748 83.5632 11.1218 84.2548C11.1405 84.2834 11.1878 84.2577 11.1691 84.2291C10.7277 83.5456 10.2089 82.9154 9.62284 82.351C12.086 83.2837 14.5485 84.2199 17.0101 85.1597C17.0025 85.3886 16.9879 85.6176 16.9739 85.8466C16.9564 86.1299 16.9388 86.4133 16.933 86.6977C16.951 86.9233 17.051 87.1344 17.214 87.2913C17.3023 87.392 17.417 87.4661 17.5452 87.5051C18.6054 88.0121 18.8981 87.9502 19.6324 87.0611C19.7118 86.9647 19.796 86.8712 19.8807 86.7784C20.0091 86.6455 20.1223 86.4987 20.2183 86.3408C20.2384 86.3439 20.2581 86.3496 20.2767 86.3578C21.0572 86.6563 21.8405 86.9454 22.635 87.2393L23.1111 87.4145L22.6513 88.5951C22.3548 88.2566 22.0237 87.9501 21.6635 87.6803C21.6495 87.6698 21.6355 87.6926 21.6495 87.7031C22.012 87.9737 22.3449 88.2819 22.6426 88.6225L22.3739 89.3119C21.8882 88.8669 21.3685 88.4606 20.8194 88.0968C20.8179 88.0959 20.8162 88.0956 20.8145 88.0959C20.8128 88.0963 20.8113 88.0974 20.8104 88.0988C20.8094 88.1003 20.8091 88.1021 20.8095 88.1038C20.8099 88.1055 20.8109 88.107 20.8124 88.1079C21.3606 88.4759 21.8794 88.886 22.3639 89.3346L22.1822 89.802C21.4182 89.2383 20.6634 88.6646 19.918 88.0752C19.9046 88.0647 19.8848 88.0828 19.8982 88.0939C20.6381 88.6979 21.3913 89.2879 22.1577 89.8639L21.7488 90.9113C20.4819 89.7276 19.1019 88.671 17.6287 87.7568C17.6217 87.7521 17.6147 87.7632 17.6217 87.7679C19.0576 88.7902 20.3743 89.9042 21.6945 91.0503L21.365 91.8956C20.2712 90.7329 18.991 89.7607 17.5773 89.0192C17.5728 89.0164 17.5674 89.0155 17.5623 89.0167C17.5571 89.0179 17.5527 89.0211 17.5499 89.0256C17.5471 89.0301 17.5462 89.0355 17.5474 89.0407C17.5486 89.0458 17.5518 89.0503 17.5563 89.0531C18.9205 89.8957 20.1809 90.8956 21.3119 92.0323L20.7937 93.3618C19.6797 92.513 18.4571 91.8109 17.3664 90.9311C17.3466 90.9148 17.3168 90.9422 17.3372 90.9586C18.4214 91.8547 19.6073 92.6351 20.7633 93.4389L20.5606 93.9588C19.9329 93.5076 19.2791 93.0938 18.6025 92.7198C18.598 92.717 18.5926 92.7161 18.5875 92.7174C18.5823 92.7186 18.5779 92.7218 18.5751 92.7263C18.5723 92.7308 18.5714 92.7362 18.5726 92.7413C18.5738 92.7465 18.577 92.7509 18.5815 92.7537C19.2375 93.155 19.8374 93.7082 20.5057 94.1008L20.4228 94.3128L23.2951 95.3795L23.8635 93.9355C24.7128 94.5196 25.4781 95.2031 26.2778 95.8538C26.8327 96.2836 27.3632 96.7441 27.8667 97.233L27.5682 97.9983C26.7504 97.3037 25.7398 96.7768 25.1147 95.8901C25.1101 95.883 25.0978 95.8901 25.103 95.8965C25.7234 96.792 26.7387 97.3318 27.553 98.0368L27.1885 98.9715C26.4589 98.2057 25.606 97.5356 24.8489 96.799C24.8367 96.7867 24.8174 96.8049 24.8291 96.8177C25.578 97.583 26.3508 98.3511 27.1493 99.072L26.0634 101.859C25.155 100.563 23.6029 99.8904 22.6011 98.6736C22.59 98.6601 22.5707 98.6788 22.5812 98.6923C23.5831 99.9243 25.0896 100.628 26.0459 101.905L25.7456 102.676C25.2655 102.063 24.7331 101.493 24.1544 100.973C24.1479 100.967 24.1386 100.976 24.1444 100.982C24.7242 101.508 25.2563 102.084 25.7345 102.704L25.3256 103.756C24.0773 102.537 22.7436 101.434 21.5958 100.111C21.5841 100.098 21.5654 100.116 21.5759 100.13C22.6422 101.535 23.8856 102.797 25.2754 103.883L24.7818 105.15C23.9055 103.964 22.635 103.11 21.7535 101.919C21.7383 101.899 21.7032 101.919 21.7178 101.938C22.6427 103.114 23.655 104.218 24.7461 105.241L24.2408 106.538C23.5807 105.223 22.4457 104.234 21.4783 103.131C21.4608 103.111 21.4328 103.139 21.4491 103.159C22.3955 104.306 23.4937 105.354 24.1865 106.678L23.8068 107.652C23.4264 107.206 22.9998 106.801 22.5339 106.445C21.6308 105.647 20.681 104.884 19.7954 104.065L20.0775 103.34L17.2911 102.304ZM21.0297 115.594C20.084 114.299 18.5932 113.445 17.4628 112.315C17.4579 112.31 17.4512 112.307 17.4442 112.307C17.4372 112.307 17.4304 112.309 17.4253 112.314C17.4202 112.319 17.4172 112.326 17.4169 112.333C17.4166 112.34 17.419 112.346 17.4237 112.352C18.5307 113.53 19.8187 114.549 20.9783 115.681C20.8571 115.88 20.7216 116.07 20.5729 116.25C20.519 116.312 20.4618 116.372 20.4017 116.428C20.4046 116.417 20.4034 116.405 20.3982 116.395C19.9782 115.591 19.1183 115.041 18.4431 114.456C18.4173 114.434 18.3782 114.47 18.4039 114.493C19.0958 115.084 19.7316 115.738 20.303 116.446C20.3102 116.455 20.3201 116.462 20.3312 116.466C20.3424 116.469 20.3543 116.469 20.3655 116.466C20.1711 116.646 19.9487 116.794 19.7072 116.903C19.2922 116.374 18.8121 115.899 18.2783 115.49C17.7579 115.032 17.1754 114.649 16.548 114.354C16.5247 114.344 16.5031 114.376 16.527 114.388C17.1922 114.744 17.8006 115.196 18.3321 115.732C18.722 116.164 19.1365 116.574 19.5734 116.958C19.0953 117.142 18.577 117.195 18.0715 117.113C17.538 117.028 17.0368 116.803 16.6199 116.459C16.669 116.486 16.7174 116.518 16.7665 116.539C16.8156 116.561 16.8682 116.507 16.8249 116.468C16.6138 116.286 16.3892 116.12 16.1531 115.971C16.0162 115.787 15.9044 115.585 15.8208 115.371C15.6692 115.031 15.5893 114.663 15.5861 114.291C15.5829 113.918 15.6564 113.549 15.8021 113.206C15.9478 112.863 16.1624 112.554 16.4328 112.298C16.7031 112.042 17.0233 111.844 17.3735 111.717C17.6021 111.636 17.8228 111.535 18.0324 111.413C18.2175 111.297 18.3517 111.115 18.408 110.904C18.9917 111.48 19.6049 112.026 20.2452 112.539C20.6225 112.868 20.9722 113.227 21.2908 113.612C21.4305 114.007 21.4496 114.434 21.3457 114.839C20.6909 113.689 19.286 113.021 18.4121 112.046C18.3887 112.02 18.3537 112.057 18.3729 112.083C18.8458 112.606 19.3599 113.091 19.9105 113.532C20.4184 113.98 20.8856 114.472 21.3066 115.002C21.2361 115.208 21.1443 115.407 21.0326 115.594H21.0297ZM20.7376 111.199L20.7645 111.842C20.1132 111.268 19.4075 110.743 18.7462 110.2C18.7065 110.167 18.6481 110.221 18.6878 110.256C19.3941 110.876 20.0898 111.505 20.7797 112.137C20.7807 112.262 20.7891 112.388 20.8048 112.513C20.8148 112.561 20.8281 112.608 20.8445 112.654C20.0512 111.996 19.0921 111.43 18.4226 110.82C18.4271 110.799 18.4302 110.777 18.4319 110.755C18.4173 110.392 18.0149 110.196 17.9337 110.16C17.7876 110.096 17.6387 110.038 17.4804 109.981L19.7504 104.158C20.4835 104.895 21.2797 105.574 22.0286 106.293C22.6294 106.795 23.1809 107.354 23.6754 107.962L23.4283 108.596C23.0865 108.111 22.6781 107.677 22.215 107.307C21.5724 106.738 20.8936 106.214 20.2569 105.641C20.244 105.629 20.2253 105.647 20.237 105.66C20.775 106.225 21.3469 106.754 21.9007 107.307C22.3861 107.795 22.8184 108.399 23.3219 108.868L23.0836 109.48C22.7434 109.201 22.388 108.941 22.0193 108.701C20.9498 107.978 19.9694 107.131 19.0985 106.178C19.0757 106.152 19.0401 106.189 19.0593 106.215C19.7932 107.046 20.6074 107.802 21.49 108.472C22.0023 108.881 22.5509 109.232 23.0088 109.68L22.6069 110.711C21.7488 109.825 20.6471 109.134 19.7965 108.24C19.7902 108.234 19.7821 108.231 19.7737 108.232C19.7654 108.232 19.7574 108.235 19.7513 108.241C19.7452 108.247 19.7415 108.254 19.7408 108.263C19.7401 108.271 19.7425 108.279 19.7475 108.286C20.6059 109.231 21.5361 110.108 22.5298 110.909L22.2722 111.571C21.5868 110.747 20.7643 110.048 19.8409 109.504C19.7971 109.475 19.7568 109.542 19.7983 109.573C20.6635 110.221 21.4696 110.944 22.2074 111.734V111.74L20.7376 111.199ZM66.6425 34.2415C66.3429 34.2882 66.0327 34.3151 65.7184 34.3326C64.5437 33.3705 62.9448 32.8722 61.6018 32.1712C61.5633 32.1514 61.5288 32.2057 61.5662 32.2296C62.8346 33.0008 64.1408 33.7077 65.4801 34.3478C64.9508 34.3649 64.4211 34.3423 63.8952 34.28C63.9003 34.2751 63.9042 34.269 63.9068 34.2624C63.9093 34.2558 63.9104 34.2487 63.9099 34.2416C63.9095 34.2345 63.9075 34.2276 63.9042 34.2213C63.9009 34.2151 63.8962 34.2096 63.8906 34.2053C63.1218 33.6001 62.2515 33.1367 61.3203 32.8366C61.2619 32.8167 61.2367 32.9043 61.2934 32.926C62.1466 33.3063 62.9689 33.7526 63.7527 34.2608C63.4811 34.2245 63.2089 34.1766 62.9349 34.1194C62.0002 33.2513 60.4914 32.8173 59.3406 32.3371C59.2985 32.3196 59.2664 32.3891 59.3079 32.4096C59.9417 32.7157 60.5801 33.0142 61.2023 33.3442C61.5574 33.5317 61.9033 33.749 62.2503 33.9564C61.0131 33.6436 59.8505 33.0878 58.8302 32.3214C57.8098 31.555 56.9521 30.5933 56.307 29.4923C56.1902 29.2837 56.0693 29.0781 55.9484 28.8725L55.6189 28.3082L54.8484 28.4554L54.898 29.2902C54.9103 29.5285 54.9302 29.7668 54.9489 30.0052C53.9314 29.187 52.8333 28.4744 51.6717 27.8783C51.6672 27.8755 51.6618 27.8746 51.6567 27.8758C51.6515 27.877 51.6471 27.8802 51.6443 27.8847C51.6415 27.8892 51.6406 27.8946 51.6418 27.8997C51.643 27.9049 51.6462 27.9093 51.6507 27.9121C52.7886 28.6131 53.8401 29.4309 54.9594 30.1541C54.9652 30.2196 54.9664 30.2856 54.9734 30.351C54.9839 30.4474 54.9973 30.549 55.0079 30.6472C54.827 30.5133 54.639 30.3893 54.4447 30.2756C54.6358 30.4036 54.8215 30.5385 55.0102 30.6694C55.0341 30.8843 55.0581 31.0993 55.0861 31.3195C54.0475 30.5634 52.9224 29.9337 51.7348 29.4438C51.7208 29.438 51.7097 29.4613 51.7237 29.4677C52.9277 30.0145 53.9552 30.7926 55.1002 31.4299C55.1399 31.7325 55.1872 32.0375 55.2409 32.3401C54.6901 31.9206 54.0954 31.5602 53.5516 31.1314C53.5503 31.13 53.5487 31.1288 53.5469 31.128C53.5451 31.1273 53.5432 31.1269 53.5413 31.1269C53.5393 31.1269 53.5374 31.1274 53.5357 31.1282C53.5339 31.1291 53.5324 31.1303 53.5312 31.1318C53.5299 31.1333 53.529 31.135 53.5285 31.1369C53.528 31.1387 53.5279 31.1407 53.5283 31.1426C53.5286 31.1445 53.5293 31.1463 53.5304 31.1479C53.5315 31.1495 53.5329 31.1509 53.5346 31.1519C54.0849 31.5806 54.6866 31.9393 55.2439 32.3593C55.2497 32.3915 55.2526 32.4242 55.259 32.4563C55.29 32.6263 55.2871 32.6584 55.1504 32.7297C53.8989 31.7247 52.4732 30.9586 50.9445 30.4696C50.9411 30.4688 50.9377 30.4694 50.9347 30.4711C50.9318 30.4729 50.9297 30.4756 50.9287 30.4789C50.9277 30.4822 50.928 30.4857 50.9296 30.4887C50.9311 30.4917 50.9337 30.4941 50.9369 30.4953C52.4925 30.969 53.6929 31.9732 55.0587 32.7782C54.8706 32.8687 54.6872 32.9651 54.5032 33.0627C53.951 32.6243 53.3276 32.2842 52.6601 32.0573C52.6438 32.0509 52.6368 32.076 52.6525 32.083C53.308 32.3121 53.9202 32.65 54.4634 33.0825C54.2403 33.1993 54.0148 33.3249 53.7887 33.4517C52.8015 32.68 51.4182 32.253 50.2902 31.781C50.2762 31.7752 50.2651 31.7985 50.2791 31.805C51.4474 32.3307 52.534 32.9108 53.6316 33.5387L53.5837 33.5656C53.371 33.6854 53.1549 33.8069 52.9323 33.9284C52.5182 33.7601 52.1297 33.5545 51.722 33.3734C51.2495 33.201 50.791 32.9926 50.3504 32.7501C50.3474 32.7487 50.3439 32.7484 50.3407 32.7493C50.3375 32.7502 50.3348 32.7523 50.333 32.7551C50.3312 32.758 50.3306 32.7614 50.3312 32.7647C50.3319 32.768 50.3337 32.7709 50.3363 32.7729C50.7729 33.0258 51.2281 33.2451 51.698 33.4289C52.0664 33.6392 52.4499 33.822 52.8453 33.9757L52.3441 34.2502L52.8932 34.6405C54.1468 35.5307 54.6124 36.3234 54.3676 37.2201C53.85 36.8736 53.3026 36.5737 52.732 36.324C52.1597 35.9846 51.5672 35.6805 50.9579 35.4133C50.9246 35.401 50.9112 35.4507 50.9427 35.4641C52.111 35.963 53.1993 36.7329 54.3197 37.3475C54.2324 37.6023 54.1103 37.8439 53.957 38.0654C53.8909 38.1592 53.8187 38.2486 53.7408 38.3329C52.7618 37.4088 51.2348 37.0209 50.07 36.3567C50.067 36.3553 50.0635 36.3549 50.0603 36.3559C50.0571 36.3568 50.0544 36.3589 50.0526 36.3617C50.0508 36.3646 50.0502 36.368 50.0508 36.3713C50.0515 36.3746 50.0533 36.3775 50.056 36.3795C50.646 36.7434 51.2652 37.0501 51.8826 37.3661C52.5001 37.6822 53.0685 38.0794 53.6789 38.4036C53.5392 38.5456 53.3808 38.6678 53.2081 38.767C51.6433 37.7653 49.9935 36.9031 48.2778 36.1902C48.2702 36.1867 48.2626 36.1978 48.2708 36.2013C49.9304 36.9958 51.4538 37.962 53.0422 38.8598C52.8079 38.9687 52.5561 39.0349 52.2985 39.0555C51.302 38.3686 50.0314 37.938 49.036 37.3299C49.033 37.3285 49.0296 37.3282 49.0264 37.3291C49.0231 37.33 49.0204 37.3321 49.0186 37.3349C49.0169 37.3378 49.0163 37.3412 49.0169 37.3445C49.0175 37.3478 49.0193 37.3507 49.022 37.3527C49.6792 37.792 50.3755 38.1635 51.0636 38.5532C51.3376 38.7085 51.5975 38.8809 51.8581 39.0532C51.5807 39.0297 51.3072 38.9724 51.0438 38.8826L50.6448 38.7489L50.2423 39.7834C49.4416 39.3018 48.6127 38.8685 47.7602 38.486C47.7368 38.4749 47.7158 38.5082 47.7392 38.5199C48.5839 38.9463 49.4134 39.3757 50.2049 39.8792L49.9946 40.4184C49.7317 40.2297 49.4689 40.0375 49.1908 39.8663C49.4601 40.0504 49.7166 40.2537 49.9911 40.4277L49.7802 40.9681C48.9174 40.3535 47.9448 39.8716 47.0347 39.3324C47.0332 39.3315 47.0314 39.3312 47.0297 39.3316C47.028 39.332 47.0266 39.333 47.0256 39.3345C47.0247 39.3359 47.0244 39.3377 47.0248 39.3394C47.0252 39.3411 47.0262 39.3426 47.0277 39.3435C47.9277 39.9254 48.8294 40.505 49.7329 41.0826L49.4992 41.6767C48.9209 41.2642 48.2579 40.9856 47.6679 40.5884C47.6533 40.5784 47.6399 40.6012 47.6539 40.6112C48.2381 41.0201 48.9046 41.3092 49.4759 41.7368L49.0272 42.8882C48.2264 42.387 47.172 42.1481 46.4155 41.6293C46.4009 41.6194 46.3874 41.6416 46.4015 41.6521C46.8994 41.9977 47.4302 42.2931 47.9863 42.5342C48.3189 42.6967 48.6422 42.8775 48.9548 43.0757L48.7054 43.7183C48.1598 43.3536 47.5855 43.0339 46.9879 42.7626C46.957 42.7474 46.9295 42.7918 46.9599 42.8082C47.5499 43.116 48.113 43.4507 48.6779 43.7983L47.7082 46.2851C47.0797 45.6151 46.1409 45.292 45.4183 44.7353C45.4125 44.7306 45.4037 44.7406 45.4101 44.7458C46.1386 45.3376 46.9944 45.7179 47.6773 46.3651L47.4897 46.8459C47.1556 46.6035 46.8133 46.3733 46.4593 46.1583C46.4548 46.1555 46.4494 46.1546 46.4442 46.1558C46.4391 46.1571 46.4346 46.1603 46.4318 46.1647C46.429 46.1692 46.4282 46.1747 46.4294 46.1798C46.4306 46.185 46.4338 46.1894 46.4383 46.1922C46.7928 46.4124 47.1357 46.6484 47.4699 46.8961L47.2298 47.5118C46.5644 46.9943 45.7957 46.6268 45.1064 46.1402C45.0924 46.1303 45.0783 46.1531 45.0924 46.163C45.7811 46.6543 46.5527 47.0246 47.2152 47.5498L46.8209 48.5615C46.6158 48.4576 46.412 48.3425 46.2139 48.2245C46.409 48.3483 46.6094 48.4657 46.8162 48.575L46.5732 49.1983C46.0693 48.6969 45.4934 48.2736 44.8645 47.9423C44.8336 47.9266 44.8061 47.971 44.8365 47.9879C45.4385 48.3772 46.0053 48.8184 46.5306 49.3064L45.7577 51.2925C45.2051 50.5681 44.3143 50.1989 43.5893 49.665C43.5823 49.6598 43.5753 49.6715 43.5823 49.6761C44.3008 50.2264 45.201 50.6108 45.7303 51.3632L44.8435 53.6414C44.2164 53.2727 43.5624 52.9517 42.8872 52.681C42.8591 52.6688 42.8381 52.7155 42.8655 52.7289C43.5175 53.0681 44.1506 53.4421 44.7623 53.8493L44.1507 55.4161C43.6447 54.9477 43.0579 54.5752 42.4187 54.3167C42.4105 54.3138 42.407 54.326 42.4146 54.3295C43.0522 54.5962 43.6356 54.9773 44.1361 55.454L43.41 57.3181C42.6428 56.6437 41.7578 56.1168 40.7994 55.7636C40.7743 55.7549 40.7637 55.7923 40.7877 55.8016C41.7117 56.2328 42.579 56.776 43.3703 57.4191L43.0291 58.2954C41.9724 57.7165 40.9261 57.1218 39.9173 56.4652C39.9027 56.4559 39.8887 56.4781 39.9033 56.488C40.908 57.1569 41.9525 57.7632 43.0063 58.3573L42.2826 60.2155C41.5049 59.6254 40.6764 59.1054 39.8069 58.6616C39.7911 58.6541 39.7771 58.6763 39.7929 58.6844C40.6489 59.1624 41.471 59.6987 42.2533 60.2897L41.786 61.4948C40.7479 60.5448 39.5619 59.7704 38.2746 59.202C38.2589 59.1944 38.2449 59.2166 38.2606 59.2248C39.5222 59.8542 40.6965 60.6452 41.7539 61.5778L41.144 63.1421C40.7859 62.8059 40.3869 62.516 39.9564 62.2793C39.9488 62.2753 39.9418 62.2864 39.9494 62.2904C40.3796 62.526 40.7783 62.8147 41.1364 63.1497L40.6469 64.4063C40.0902 63.6533 38.7607 63.5353 38.0644 62.9494C38.0515 62.9383 38.0322 62.9558 38.0445 62.9681C38.7788 63.6743 39.8174 63.9027 40.5692 64.6037L39.943 66.2107C39.4465 65.7761 38.7875 65.4361 38.3325 65.064C38.2998 65.0372 38.2519 65.0792 38.2834 65.1102C38.6222 65.442 38.9937 65.7346 39.3553 66.0448C39.5207 66.1856 39.6766 66.341 39.8338 66.4952L39.6112 67.0659C38.9943 66.5454 38.218 66.1716 37.5853 65.6914C37.5614 65.6733 37.5269 65.7136 37.5515 65.7323C38.201 66.2551 38.9009 66.7002 39.5534 67.2137L39.207 68.1028C38.4861 67.6799 37.7635 67.2616 37.0543 66.8206C37.0498 66.8178 37.0444 66.8169 37.0393 66.8181C37.0341 66.8193 37.0297 66.8225 37.0269 66.827C37.0241 66.8315 37.0232 66.8369 37.0244 66.8421C37.0256 66.8472 37.0288 66.8517 37.0333 66.8545C37.7448 67.2967 38.4698 67.7167 39.1947 68.1396L38.1286 70.8764C37.5625 70.3873 36.9686 69.9313 36.3498 69.5106C36.3428 69.5054 36.3358 69.5171 36.3428 69.5217C36.9603 69.9704 37.5269 70.4663 38.0953 70.9658L37.7828 71.7684C36.965 71.1258 36.0303 70.6293 35.2709 69.9038C35.2458 69.8798 35.2072 69.916 35.2318 69.9406C35.9935 70.6803 36.8311 71.3376 37.7308 71.9016L37.5602 72.3397C36.8306 71.7287 36.1582 71.047 35.3988 70.4704C35.3749 70.4517 35.3404 70.4926 35.365 70.5113C36.1103 71.106 36.7161 71.8706 37.5094 72.4051C37.5182 72.411 37.5258 72.4022 37.5345 72.4005L37.1992 73.2609C36.7196 72.9104 36.2114 72.5991 35.7201 72.2638C35.7131 72.2591 35.7061 72.2702 35.7131 72.2749C36.205 72.6108 36.7144 72.9221 37.194 73.2738L35.6337 77.2753C35.6324 77.2614 35.6271 77.2482 35.6185 77.2373C34.6923 76.3728 33.8195 75.4528 33.005 74.4824C32.9898 74.4625 32.9547 74.4824 32.9693 74.5017C33.6342 75.6044 34.4941 76.5771 35.5069 77.3722C35.5201 77.3815 35.5359 77.3862 35.552 77.3854C35.5681 77.3847 35.5835 77.3786 35.5957 77.3681L35.2756 78.1901C34.3643 77.3103 33.224 76.6128 32.2619 75.8026C32.2292 75.7751 32.1801 75.8201 32.2128 75.8488C33.1954 76.6899 34.2136 77.5066 35.2265 78.3157L34.9052 79.1405C34.1081 78.448 33.23 77.8548 32.2899 77.374C32.2742 77.367 32.2601 77.3892 32.2759 77.3968C33.213 77.896 34.086 78.507 34.876 79.2164L34.602 79.9174C33.8695 79.2976 32.9892 78.8613 32.207 78.2818C32.1825 78.2637 32.1486 78.3034 32.1731 78.3227C32.9261 78.9594 33.7918 79.4682 34.5179 80.1301L34.102 81.1973C33.7185 80.7796 33.2958 80.3997 32.8396 80.0629C32.8069 80.0348 32.7579 80.0804 32.7906 80.109C33.257 80.455 33.6847 80.8502 34.0664 81.2878L33.7451 82.1133C33.0005 81.3049 32.1262 80.6264 31.1584 80.1055C31.1524 80.1026 31.1455 80.102 31.1391 80.1038C31.1327 80.1057 31.1272 80.1099 31.1237 80.1155C31.1202 80.1212 31.1189 80.128 31.1202 80.1346C31.1214 80.1412 31.125 80.147 31.1304 80.1511C32.0659 80.7554 32.9207 81.4762 33.6744 82.2961L32.2777 85.8811C31.4839 84.8931 30.5187 84.0563 29.4281 83.4107C29.4237 83.4079 29.4182 83.407 29.4131 83.4082C29.4079 83.4094 29.4035 83.4126 29.4007 83.4171C29.3979 83.4216 29.397 83.427 29.3982 83.4322C29.3994 83.4373 29.4026 83.4418 29.4071 83.4446C30.4994 84.1037 31.4615 84.9577 32.2455 85.964L31.9856 86.6317C31.7114 86.3621 31.4186 86.1121 31.1094 85.8834C30.4907 85.4068 29.8359 84.9774 29.1927 84.534C29.1676 84.5171 29.1343 84.5562 29.1589 84.5749C29.743 85.0364 30.3353 85.4856 30.8956 85.9734C31.235 86.2684 31.544 86.6084 31.8699 86.9238L31.6906 87.3841C30.9838 86.7416 30.0088 86.3251 29.3335 85.6644C29.2961 85.6282 29.2383 85.6825 29.2751 85.7199C30.0236 86.3766 30.8061 86.9936 31.6193 87.5681L30.9183 89.3673C30.3489 89.0315 29.7985 88.6643 29.2698 88.2674C29.2564 88.2569 29.2365 88.275 29.25 88.2861C29.7819 88.6855 30.3355 89.055 30.9084 89.393L30.5579 90.2927C29.9257 89.7715 29.2605 89.2917 28.5665 88.8562C28.5519 88.8463 28.5385 88.8691 28.5525 88.879C29.2284 89.3586 29.847 89.9176 30.5129 90.4083L30.0655 91.5574C29.4188 90.6227 28.3253 90.0339 27.4403 89.3305C27.4204 89.3148 27.3906 89.3411 27.411 89.358C28.3662 90.0331 29.2393 90.8173 30.0129 91.6946L29.6256 92.6877C29.198 92.2957 28.6956 91.9651 28.268 91.5825C28.2552 91.5708 28.2359 91.5889 28.2481 91.6012C28.6728 92.0177 29.1244 92.419 29.5765 92.8139L28.9591 94.3993C28.1503 93.7904 27.309 93.2259 26.439 92.7081C26.4345 92.7054 26.4291 92.7045 26.424 92.7057C26.4188 92.7069 26.4143 92.7101 26.4116 92.7146C26.4088 92.7191 26.4079 92.7245 26.4091 92.7296C26.4103 92.7348 26.4135 92.7392 26.418 92.742C27.2749 93.3011 28.1196 93.8572 28.9386 94.4618L28.5093 95.5635C27.6091 94.7486 26.321 94.4536 25.4751 93.554C25.4693 93.5476 25.46 93.554 25.4652 93.5634C26.2743 94.5044 27.5168 94.8993 28.4666 95.6733L27.9409 97.021C27.4912 96.5728 26.9979 96.1706 26.4682 95.8205C25.6013 95.1686 24.7853 94.4729 23.8757 93.8829L46.2391 37.0641L45.8576 36.9012C44.6496 36.3853 44.0502 35.4781 44.2138 34.4132C44.257 34.0742 44.3785 33.7498 44.5689 33.4659C44.7592 33.182 45.013 32.9463 45.3102 32.7776C45.8911 32.5021 46.5511 32.4424 47.172 32.6093L48.0844 32.7262L47.6171 31.3826C47.4109 30.7868 47.2082 30.2108 46.995 29.6412C46.9809 29.6044 46.9757 29.5828 46.9716 29.5758C46.9844 29.5614 46.9983 29.5479 47.0131 29.5355C47.8196 28.8345 48.6193 28.1281 49.4122 27.4162C49.6067 27.2365 49.7769 27.0323 49.9187 26.8087L50.6968 25.6333L49.3795 26.1877C47.0629 27.1827 44.4573 27.2727 42.0775 26.4401C39.7105 25.6815 37.7151 24.061 36.4871 21.9C35.4681 20.103 35.0549 18.0257 35.3085 15.9756C35.5622 13.9254 36.4693 12.0115 37.8955 10.5171C41.0214 7.13478 46.4827 6.32105 50.3334 8.66294L50.8311 8.96612L51.1185 7.93099C51.2173 7.57115 51.3154 7.21365 51.42 6.85789C52.0255 4.91937 53.3016 3.25981 55.0195 2.17656C56.7374 1.09331 58.7849 0.657142 60.7951 0.94621C63.4822 1.36272 65.4176 2.44282 66.6764 4.23561C66.3843 4.0405 66.0975 3.84539 65.8002 3.65904C65.0116 3.16484 64.1675 2.76937 63.4005 2.24129C63.3713 2.22143 63.342 2.26641 63.3724 2.28685C64.1651 2.87101 65.0495 3.30738 65.8592 3.86408C66.2173 4.11001 66.5602 4.37697 66.9148 4.61998C66.9936 4.74733 67.0783 4.86825 67.1484 5.00202C67.0082 4.9401 66.868 4.87818 66.7325 4.80925C65.9316 4.40618 65.1693 3.93301 64.3959 3.48613C64.3655 3.46861 64.3375 3.51417 64.3678 3.5317C65.098 3.95755 65.8177 4.40326 66.5666 4.79874C66.7757 4.90914 66.9913 5.00845 67.2092 5.10717C67.2571 5.19713 67.3009 5.28709 67.3453 5.37764C66.5216 4.94361 65.6553 4.56916 64.8603 4.09249C63.9426 3.48319 62.9735 2.95506 61.964 2.51409C61.95 2.50883 61.9389 2.5322 61.9529 2.53804C62.9919 3.06557 63.988 3.67359 64.9321 4.35653C65.758 4.86695 66.6167 5.32241 67.5024 5.71995C67.5924 5.91857 67.6748 6.11699 67.7495 6.31521C66.6051 5.72602 65.428 5.20235 64.2241 4.74674C64.1821 4.7298 64.1494 4.80049 64.1914 4.81918C65.4538 5.37822 66.6484 6.109 67.8921 6.70776C67.9213 6.79597 67.9446 6.88301 67.9709 6.9718C66.5567 6.14873 64.8749 5.67965 63.453 4.93251C63.4145 4.91206 63.38 4.96756 63.4174 4.99092C64.9222 5.85781 66.5292 6.52083 68.0696 7.31879C68.1064 7.46425 68.1362 7.61087 68.1649 7.75399C66.7962 6.88769 65.0571 6.41043 63.6563 5.71762C63.55 5.60078 63.439 5.49038 63.3216 5.38348C62.5011 4.64228 61.4697 4.17567 60.3713 4.04875C59.2729 3.92183 58.1623 4.14093 57.1944 4.67548C56.4571 5.01348 55.8086 5.51827 55.3 6.14997C54.7913 6.78168 54.4366 7.523 54.2636 8.31537C54.176 8.73046 54.1487 9.15601 54.1824 9.5789C53.5924 9.40566 53.0241 9.16578 52.4884 8.86389C52.4854 8.86242 52.4819 8.86212 52.4787 8.86304C52.4755 8.86397 52.4728 8.86606 52.471 8.86891C52.4693 8.87176 52.4686 8.87516 52.4693 8.87844C52.4699 8.88173 52.4717 8.88466 52.4744 8.88668C53.0165 9.19109 53.5915 9.43292 54.1883 9.60753C54.2129 9.89511 54.2611 10.1802 54.3326 10.4598C53.2022 10.0865 51.9866 9.90603 50.8376 9.649C50.8206 9.6455 50.813 9.67003 50.83 9.67471C52.0275 9.97029 53.2034 10.2723 54.3781 10.6205C54.4366 10.8267 54.5043 11.037 54.5873 11.2525C53.0544 10.8022 51.4968 10.441 49.9222 10.1707C49.9052 10.1672 49.8976 10.1923 49.9146 10.1964C51.5128 10.5731 53.0854 10.9464 54.6521 11.4143C54.7047 11.5423 54.7578 11.6702 54.8192 11.8022C54.9086 11.9944 55.0044 12.1837 55.1037 12.377L53.7128 13.0914C53.1527 12.8041 52.5457 12.6193 51.9206 12.5458C51.3154 12.3998 50.7184 12.2345 50.1144 12.092C49.8791 11.8714 49.628 11.6684 49.3631 11.4844C50.1395 11.6749 50.917 11.8641 51.6822 12.0902C52.4991 12.3985 53.3419 12.633 54.2006 12.7912C54.2195 12.791 54.2378 12.7841 54.2521 12.7718C54.2665 12.7594 54.276 12.7423 54.2789 12.7236C54.2818 12.7049 54.2781 12.6857 54.2682 12.6695C54.2583 12.6534 54.2431 12.6412 54.2251 12.6352C52.5538 12.2561 50.9123 11.7888 49.2399 11.4015C48.5477 10.9412 47.7772 10.6116 46.9663 10.4289C45.5788 10.1144 44.1294 10.2141 42.798 10.7158C41.4667 11.2175 40.3118 12.099 39.4768 13.2509C38.7799 13.1446 38.0749 13.0844 37.3739 12.9869C37.3663 12.9869 37.3645 12.9986 37.3739 12.9997C38.0497 13.123 38.7326 13.2439 39.4184 13.3321C39.3869 13.3777 39.3542 13.4215 39.3238 13.4682C38.496 13.3134 37.6473 13.2544 36.8119 13.1382C36.8043 13.1382 36.8026 13.1499 36.8119 13.151C37.6297 13.3 38.4552 13.4595 39.2823 13.5418C39.2165 13.6454 39.1534 13.751 39.093 13.8584C38.4125 13.7568 37.7232 13.6972 37.0421 13.6026C37.0345 13.6026 37.0327 13.6143 37.0421 13.6154C37.7051 13.7364 38.3739 13.8538 39.0446 13.9426C39.0048 14.0162 38.9704 14.0933 38.933 14.1681C38.5784 14.0752 38.2168 14.0086 37.857 13.9344C37.8482 13.9344 37.8447 13.9455 37.8529 13.9472C38.211 14.0238 38.5696 14.0933 38.9225 14.1891C38.8641 14.3059 38.8056 14.4187 38.7554 14.5396C38.6324 14.8349 38.532 15.1391 38.4552 15.4497C38.3243 15.4345 38.1923 15.4205 38.0603 15.4059C38.1911 15.4246 38.3208 15.4462 38.4528 15.4643C38.4213 15.5905 38.4043 15.7196 38.3804 15.8469C37.9534 15.7885 37.5228 15.7505 37.1011 15.6594C37.0923 15.6594 37.0888 15.6699 37.097 15.6723C37.5106 15.778 37.9382 15.8563 38.3658 15.9234C38.3418 16.0613 38.3109 16.1974 38.2957 16.337C37.5258 16.1524 36.7015 16.1425 35.9351 15.9702C35.9318 15.9695 35.9283 15.97 35.9254 15.9717C35.9225 15.9735 35.9203 15.9762 35.9193 15.9795C35.9184 15.9828 35.9187 15.9863 35.9202 15.9893C35.9217 15.9923 35.9243 15.9947 35.9275 15.9959C36.6995 16.2266 37.4881 16.3977 38.2863 16.5076C38.2799 16.5812 38.2787 16.6554 38.2746 16.729C37.8979 16.6233 37.5105 16.5596 37.1198 16.5392C37.1167 16.5398 37.114 16.5414 37.1121 16.5438C37.1102 16.5462 37.1091 16.5492 37.1091 16.5523C37.1091 16.5554 37.1102 16.5584 37.1121 16.5608C37.114 16.5631 37.1167 16.5648 37.1198 16.5654C37.5103 16.5886 37.897 16.655 38.2729 16.7635C38.2694 16.8394 38.2618 16.9148 38.2606 16.9913C37.6559 16.8593 37.0435 16.7656 36.427 16.7109C36.4182 16.7109 36.4182 16.7232 36.427 16.7243C37.0479 16.8125 37.6537 16.9054 38.2577 17.0503C38.2577 17.2068 38.2676 17.3622 38.2776 17.5176C38.1204 17.4884 37.9627 17.4592 37.8067 17.4212C37.9633 17.465 38.121 17.5065 38.2799 17.5422C38.2852 17.6228 38.2904 17.7028 38.2986 17.7828C37.628 17.6952 36.9796 17.5275 36.3125 17.3967C36.2786 17.3903 36.2628 17.4388 36.2973 17.4475C36.9511 17.6753 37.6246 17.8423 38.3091 17.9464C38.315 17.9949 38.3155 18.0439 38.322 18.0924C37.8862 18.034 37.4574 17.9376 37.0269 17.8465C37.0099 17.843 37.0023 17.8687 37.0193 17.8722C37.4533 17.9598 37.8856 18.0533 38.3249 18.1059C38.3366 18.1865 38.3599 18.2653 38.3745 18.346C37.8032 18.2396 37.2343 18.1234 36.6559 18.0539C36.6472 18.0539 36.6472 18.0661 36.6559 18.0673C37.236 18.138 37.8067 18.2589 38.3798 18.3693C38.6904 20.1545 39.6891 21.7466 41.1612 22.8032C42.6332 23.8599 44.4611 24.2967 46.2519 24.0199C47.3145 23.9045 48.3347 23.5392 49.2289 22.9539C50.1232 22.3686 50.8662 21.5798 51.3972 20.6522C51.4159 20.6224 51.4311 20.6002 51.4433 20.5833L51.4959 20.6096C51.7655 20.7465 52.0466 20.8595 52.3359 20.9472C52.4475 20.9846 52.5591 21.022 52.6689 21.064L53.0574 21.2083L53.2227 20.8368C53.3079 20.6482 53.3437 20.4409 53.3265 20.2347C53.3093 20.0284 53.2398 19.8299 53.1245 19.658C53.1029 19.6171 53.0813 19.5762 53.0614 19.5347L52.9651 19.3361C52.8398 19.1208 52.7533 18.8851 52.7098 18.6398C52.6721 18.2776 52.7485 17.9127 52.9284 17.5961C53.1082 17.2795 53.3824 17.027 53.7128 16.8739C54.1103 16.6666 54.5465 16.544 54.9939 16.5138C55.4412 16.4837 55.8899 16.5466 56.3117 16.6986C57.1418 16.9017 57.8875 17.3597 58.4439 18.0083C57.4637 17.5994 56.3514 17.4195 55.4063 16.9738C55.3677 16.9557 55.3327 17.0082 55.3706 17.0322C56.0319 17.3855 56.7177 17.6909 57.4228 17.9458C57.8539 18.1211 58.3119 18.4026 58.7798 18.5557C58.7932 18.5831 58.8096 18.6082 58.823 18.6363C58.8522 18.6994 58.8674 18.7607 58.8902 18.8232C57.3842 18.0638 55.786 17.4849 54.2321 16.8336C54.197 16.819 54.1696 16.878 54.2046 16.892C55.778 17.5891 57.3552 18.2772 58.9363 18.9564C58.9889 19.1234 59.0191 19.2967 59.0263 19.4716C57.4602 18.5621 55.6668 18.2379 54.0755 17.3873C54.0711 17.3846 54.0656 17.3837 54.0605 17.3849C54.0553 17.3861 54.0509 17.3893 54.0481 17.3938C54.0453 17.3983 54.0444 17.4037 54.0456 17.4088C54.0468 17.414 54.05 17.4184 54.0545 17.4212C54.8737 17.8557 55.7222 18.2324 56.5938 18.5487C57.4117 18.9073 58.2003 19.3221 59.0129 19.686C58.9995 19.851 58.96 20.0129 58.896 20.1656C58.2886 19.7376 57.6088 19.423 56.8894 19.2368C55.7427 18.8244 54.6112 18.3483 53.482 17.8886C53.454 17.8769 53.4324 17.9242 53.4604 17.9365C55.2129 18.714 57.1774 19.3151 58.8294 20.2795C58.5709 20.7189 58.1549 21.0435 57.6658 21.1873C57.6465 21.1937 57.6272 21.2042 57.6074 21.2112C57.612 21.2041 57.6136 21.1954 57.6119 21.1871C57.6101 21.1788 57.6051 21.1715 57.598 21.1669C57.0603 20.8488 56.493 20.5839 55.904 20.3759C55.2185 20.0328 54.514 19.7289 53.794 19.4658C53.7907 19.4651 53.7872 19.4656 53.7843 19.4673C53.7813 19.4691 53.7792 19.4718 53.7782 19.4751C53.7773 19.4784 53.7776 19.4819 53.7791 19.4849C53.7806 19.4879 53.7832 19.4903 53.7864 19.4915C54.4355 19.7304 55.068 20.0124 55.6796 20.3356C56.3338 20.5761 56.9655 20.8736 57.5676 21.2247C57.5817 21.234 57.5922 21.2247 57.6021 21.2165C57.3561 21.3047 57.1217 21.4224 56.904 21.567C56.8801 21.5851 56.8573 21.6046 56.8357 21.6254C56.8357 21.6219 56.8357 21.6178 56.831 21.6161C56.0173 21.369 55.3385 20.8351 54.523 20.5915C54.5213 20.5909 54.5195 20.5911 54.5179 20.5919C54.5163 20.5927 54.5151 20.5941 54.5145 20.5958C54.514 20.5975 54.5142 20.5994 54.515 20.601C54.5158 20.6026 54.5172 20.6038 54.5189 20.6043C55.3321 20.852 56.0079 21.3882 56.8188 21.64C56.7382 21.7021 56.6739 21.7826 56.6312 21.8749C56.5885 21.9671 56.5686 22.0683 56.5734 22.1699C56.5898 22.2828 56.6388 22.3885 56.7142 22.4742C55.7398 21.9677 54.721 21.5337 53.7198 21.1014C53.6918 21.0892 53.6707 21.1359 53.6982 21.1493C54.5627 21.5915 55.4267 22.0372 56.2685 22.5203C56.8105 22.8924 57.3847 23.2154 57.9841 23.4854L57.9795 23.5128C57.9479 23.7307 57.9287 23.9474 57.9176 24.163C56.4058 23.4205 54.9144 22.4503 53.3214 21.9023C53.2881 21.8906 53.2729 21.942 53.3062 21.9531C54.8899 22.5022 56.4075 23.4941 57.9129 24.2349C57.9041 24.4393 57.907 24.6438 57.9164 24.8435C57.7657 24.7851 57.6243 24.7378 57.5186 24.6928C56.4169 24.2255 55.2269 23.7991 54.1795 23.2359C54.1718 23.2312 54.1625 23.2298 54.1537 23.2319C54.1448 23.234 54.1372 23.2396 54.1325 23.2473C54.1278 23.2551 54.1263 23.2644 54.1285 23.2732C54.1306 23.282 54.1361 23.2896 54.1439 23.2944C55.023 23.819 55.9383 24.2803 56.883 24.6747C57.2335 24.8324 57.5951 24.961 57.938 25.1222C57.9599 25.3716 57.9953 25.6197 58.0443 25.8652C57.0046 25.2811 55.931 24.7595 54.8291 24.3032C54.8133 24.2962 54.7993 24.3178 54.8151 24.326C55.9156 24.878 56.9887 25.4943 58.0864 26.051C58.1423 26.3012 58.2121 26.5481 58.2955 26.7905C57.3539 26.2573 56.3856 25.7724 55.3946 25.3377C55.3665 25.3255 55.3449 25.3728 55.373 25.3856C56.4011 25.8769 57.3626 26.4833 58.3738 27.0014C58.5477 27.4501 58.7679 27.8795 59.031 28.2825C58.175 27.9781 57.3518 27.5883 56.574 27.1188C56.571 27.1174 56.5676 27.1171 56.5643 27.118C56.5611 27.1189 56.5584 27.121 56.5566 27.1239C56.5549 27.1267 56.5542 27.1301 56.5549 27.1334C56.5555 27.1367 56.5573 27.1396 56.56 27.1416C57.337 27.6875 58.1941 28.1096 59.1005 28.3929H59.104C59.6338 29.1828 60.3235 29.8526 61.1285 30.3592C61.9335 30.8657 62.8359 31.1977 63.7772 31.3335C64.1438 31.3866 64.5133 31.4167 64.8836 31.4235C65.77 31.4436 66.6523 31.2984 67.4855 30.9953C68.5452 31.5491 69.6206 32.0304 70.644 32.6526C70.4624 32.777 70.2778 32.8968 70.0879 33.0089C69.5368 32.6614 68.9537 32.3674 68.3465 32.1309C68.322 32.1216 68.3109 32.1595 68.3349 32.1689C68.9135 32.4244 69.4746 32.7181 70.0143 33.048C69.818 33.1614 69.6188 33.2694 69.415 33.3693C68.5189 32.8471 67.4931 32.4867 66.5648 32.0491C66.5339 32.0345 66.5064 32.0789 66.5368 32.0947C67.4442 32.5437 68.3535 32.9916 69.2648 33.4383C69.0467 33.5403 68.8248 33.6344 68.5989 33.7204C68.6088 33.7141 68.6169 33.7053 68.6224 33.6949C68.6279 33.6845 68.6306 33.6729 68.6303 33.6612C68.63 33.6494 68.6267 33.638 68.6207 33.6279C68.6147 33.6178 68.6062 33.6094 68.596 33.6036C67.3453 32.9261 66.0529 32.3287 64.7265 31.8149C64.6839 31.798 64.6517 31.8675 64.6938 31.8873C65.9684 32.4826 67.1677 33.3594 68.5358 33.7362C68.5454 33.7374 68.5552 33.7364 68.5644 33.7333C67.9429 33.9679 67.2989 34.1382 66.6425 34.2415ZM70.7375 32.5883C69.8291 31.8476 68.6047 31.4708 67.5311 30.9731C68.7335 30.5101 69.7847 29.7239 70.5687 28.7013C71.3983 29.2617 72.2883 29.7271 73.2219 30.0887C73.1285 30.2225 73.0332 30.3551 72.9339 30.4842C72.1674 30.1977 71.4269 29.8459 70.7206 29.4327C70.6989 29.4181 70.6779 29.4526 70.6995 29.4666C71.402 29.883 72.139 30.2381 72.9024 30.528C72.7914 30.6699 72.674 30.8055 72.5566 30.941C71.7779 30.3136 70.651 30.1086 69.811 29.5887C69.802 29.5835 69.7913 29.582 69.7811 29.5845C69.771 29.5871 69.7623 29.5934 69.7568 29.6023C69.7512 29.6111 69.7494 29.6218 69.7515 29.632C69.7537 29.6422 69.7597 29.6512 69.7684 29.657C70.6061 30.2155 71.5676 30.5771 72.4514 31.0678C72.3036 31.2319 72.15 31.3896 71.9929 31.5438C71.3549 31.1801 70.6984 30.85 70.026 30.5549C70.002 30.5443 69.981 30.5782 70.005 30.5887C70.6717 30.8857 71.3226 31.2172 71.9549 31.5818C71.5762 31.9487 71.1692 32.285 70.7375 32.5877V32.5883ZM72.3469 26.6024C73.0642 26.9494 73.7704 27.3104 74.4761 27.6738C74.4282 27.8046 74.3797 27.9355 74.3271 28.064C73.4492 27.6353 72.5484 27.2548 71.6289 26.9243C71.9833 26.0675 72.1373 25.141 72.0793 24.2156C72.5471 24.4639 73.0284 24.6858 73.521 24.8803C74.0271 25.0976 74.5216 25.3409 75.0024 25.6094C74.982 25.7642 74.9487 25.9172 74.9201 26.0714C74.1328 25.8199 73.3784 25.4753 72.6728 25.0451C72.6448 25.024 72.6144 25.0702 72.6448 25.0906C73.3576 25.5201 74.1188 25.8636 74.9125 26.1141C74.8909 26.2274 74.8763 26.3413 74.8494 26.4541C74.8196 26.5802 74.781 26.7018 74.7472 26.8256C74.0105 26.4751 73.1501 26.3367 72.4234 25.9739C72.4082 25.9663 72.3936 25.9879 72.4094 25.9967C73.1542 26.3688 73.922 26.6931 74.708 26.9675C74.6512 27.1623 74.589 27.3554 74.5217 27.547C73.8207 27.1866 73.077 26.8904 72.3679 26.5697C72.3445 26.5575 72.3229 26.5902 72.3469 26.6019V26.6024Z" fill="url(#paint0_linear_2379_141921)"/>
<path d="M68.9037 30.7283C68.888 30.7201 68.874 30.7429 68.8897 30.7511C69.7464 31.086 70.5643 31.5126 71.3292 32.0234C71.349 32.0397 71.3788 32.0123 71.3584 31.9959C70.5883 31.4861 69.7653 31.0611 68.9037 30.7283Z" fill="url(#paint1_linear_2379_141921)"/>
<path d="M63.8513 32.0245C63.8016 32.0047 63.7636 32.0871 63.8133 32.1087C65.1095 32.6794 66.3398 33.3407 67.6021 33.9739C67.653 33.9996 67.719 33.9318 67.6693 33.8915C66.4889 33.096 65.204 32.4677 63.8513 32.0245Z" fill="url(#paint2_linear_2379_141921)"/>
<path d="M65.2322 33.2798C65.1825 33.2629 65.1597 33.3382 65.2094 33.3563C65.6802 33.5216 66.078 33.8447 66.553 33.9931C66.5962 34.0065 66.6283 33.9405 66.5857 33.9206C66.1457 33.6842 65.6939 33.4703 65.2322 33.2798Z" fill="url(#paint3_linear_2379_141921)"/>
<path d="M54.839 12.1284C54.8905 12.1447 54.9086 12.07 54.8618 12.0519C53.1648 11.3304 51.264 11.0839 49.4683 10.6937C49.4514 10.6902 49.4438 10.7153 49.4607 10.7194C51.2774 11.1476 53.0609 11.5658 54.839 12.1284Z" fill="url(#paint4_linear_2379_141921)"/>
<path d="M51.5026 11.4546C52.6709 11.7303 53.7861 12.1725 54.9679 12.3997C55.0105 12.4079 55.0298 12.3413 54.9871 12.336C53.8042 12.1135 52.6879 11.6754 51.5184 11.4014C50.2847 11.1146 49.0404 10.9469 47.8382 10.5438C47.8332 10.5423 47.8277 10.5428 47.8231 10.5453C47.8184 10.5477 47.8149 10.552 47.8134 10.557C47.8118 10.562 47.8123 10.5675 47.8148 10.5721C47.8173 10.5768 47.8215 10.5803 47.8265 10.5818C49.027 10.9913 50.2706 11.1636 51.5026 11.4546Z" fill="url(#paint5_linear_2379_141921)"/>
<path d="M58.2549 20.7861C58.2935 20.8042 58.3291 20.7504 58.2906 20.7277C57.3182 20.175 56.3023 19.7028 55.2529 19.3158C55.2278 19.307 55.2167 19.345 55.2413 19.3537C56.3003 19.734 57.2478 20.3088 58.2549 20.7861Z" fill="url(#paint6_linear_2379_141921)"/>
<path d="M53.9923 29.9674C54.1362 30.0788 54.2872 30.1807 54.4445 30.2723C54.2943 30.1712 54.1419 30.0731 54.0022 29.9586C53.9958 29.9533 53.9859 29.9627 53.9923 29.9674Z" fill="url(#paint7_linear_2379_141921)"/>
<path d="M52.7105 34.6124C51.9455 34.0979 51.1246 33.6718 50.2635 33.3425C50.2559 33.339 50.2483 33.3501 50.2565 33.3536C51.1176 33.6829 51.9385 34.109 52.7035 34.6235C52.7105 34.6288 52.7175 34.6177 52.7105 34.6124Z" fill="url(#paint8_linear_2379_141921)"/>
<path d="M50.9389 34.4984C51.5096 34.808 52.099 35.0825 52.6692 35.3927C53.2261 35.7211 53.7608 36.0858 54.2698 36.4845C54.3229 36.523 54.3732 36.4459 54.3369 36.4021C53.5366 35.4301 52.0529 35.0264 50.9488 34.4873C50.9389 34.4832 50.9307 34.4937 50.9389 34.4984Z" fill="url(#paint9_linear_2379_141921)"/>
<path d="M49.8194 35.5759C50.3615 35.9862 50.9573 36.3203 51.59 36.569C52.0281 36.7571 52.4709 36.9352 52.8904 37.1607C53.2742 37.3669 53.5914 37.6602 53.9751 37.8617C54.026 37.888 54.0955 37.8349 54.0604 37.7817C53.6261 37.2851 53.0552 36.9273 52.4189 36.753C51.5138 36.4617 50.6488 36.0576 49.8446 35.5502C49.8288 35.5292 49.8013 35.559 49.8194 35.5759Z" fill="url(#paint10_linear_2379_141921)"/>
<path d="M48.8041 39.6434C48.9361 39.71 49.0646 39.7842 49.1914 39.8625C49.0695 39.7777 48.9425 39.7006 48.8111 39.6317C48.8035 39.6276 48.7965 39.6393 48.8041 39.6434Z" fill="url(#paint11_linear_2379_141921)"/>
<path d="M46.7744 41.3008C47.5425 41.6723 48.2453 42.1548 48.9971 42.5544C49.0281 42.5707 49.0555 42.5252 49.0251 42.5088C48.2657 42.1168 47.5607 41.6413 46.7884 41.278C46.7732 41.2733 46.7586 41.2955 46.7744 41.3008Z" fill="url(#paint12_linear_2379_141921)"/>
<path d="M46.0905 43.2018C46.8762 43.4844 47.6056 43.9038 48.2449 44.4408C48.2572 44.4531 48.277 44.4344 48.2648 44.4221C47.6234 43.8834 46.8916 43.4625 46.1034 43.1791C46.0864 43.172 46.0724 43.1948 46.0905 43.2018Z" fill="url(#paint13_linear_2379_141921)"/>
<path d="M45.4399 43.6654C45.4241 43.6584 45.4101 43.6806 45.4259 43.6882C46.3097 44.1205 47.1478 44.6409 47.9272 45.2415C47.964 45.2695 48.0108 45.2105 47.978 45.1796C47.2231 44.5358 46.365 44.0239 45.4399 43.6654Z" fill="url(#paint14_linear_2379_141921)"/>
<path d="M46.9342 47.9038C46.5907 47.6976 46.2729 47.4546 45.9253 47.2548C45.9177 47.2507 45.9107 47.2618 45.9183 47.2659C46.2635 47.4698 46.579 47.7163 46.9201 47.926C46.923 47.927 46.9262 47.9271 46.9291 47.9261C46.932 47.9251 46.9345 47.9231 46.9361 47.9205C46.9377 47.9179 46.9384 47.9149 46.9381 47.9118C46.9377 47.9088 46.9363 47.9059 46.9342 47.9038Z" fill="url(#paint15_linear_2379_141921)"/>
<path d="M45.0738 47.4775C45.2064 47.5617 45.3367 47.6481 45.467 47.7346C45.3396 47.644 45.2041 47.5593 45.0826 47.4664C45.0744 47.4606 45.0651 47.4723 45.0738 47.4775Z" fill="url(#paint16_linear_2379_141921)"/>
<path d="M46.2145 48.2233C45.9627 48.0644 45.7151 47.8997 45.4668 47.7344C45.7098 47.9067 45.9563 48.0709 46.2145 48.2233Z" fill="url(#paint17_linear_2379_141921)"/>
<path d="M42.495 53.4167C43.1731 53.7245 43.8219 54.0933 44.4332 54.5185C44.4619 54.5377 44.4916 54.4922 44.4613 54.4729C43.8472 54.0514 43.1961 53.6866 42.516 53.3829C42.4921 53.3723 42.4687 53.4062 42.495 53.4167Z" fill="url(#paint18_linear_2379_141921)"/>
<path d="M41.1693 54.8717C42.0467 55.3425 42.882 55.8877 43.666 56.5015C43.7074 56.5325 43.7507 56.4641 43.7086 56.4332C42.9113 55.8373 42.0642 55.311 41.1769 54.86C41.1687 54.8565 41.1617 54.8676 41.1693 54.8717Z" fill="url(#paint19_linear_2379_141921)"/>
<path d="M42.3958 59.1466C42.4087 59.1583 42.4285 59.1396 42.4157 59.1279C42.0292 58.808 41.5889 58.5594 41.1153 58.3936C41.099 58.3872 41.0914 58.4129 41.1077 58.4193C41.5767 58.5836 42.0129 58.8299 42.3958 59.1466Z" fill="url(#paint20_linear_2379_141921)"/>
<path d="M40.5479 61.7892C40.382 61.6887 40.2141 61.5914 40.0443 61.4971C40.0361 61.4925 40.0285 61.5047 40.0367 61.5094C40.2065 61.6037 40.3744 61.701 40.5403 61.8015C40.5419 61.8025 40.5438 61.8028 40.5457 61.8024C40.5476 61.8019 40.5492 61.8008 40.5502 61.7991C40.5512 61.7975 40.5515 61.7956 40.5511 61.7937C40.5506 61.7918 40.5495 61.7902 40.5479 61.7892Z" fill="url(#paint21_linear_2379_141921)"/>
<path d="M37.989 62.1894C38.6386 62.5983 39.297 62.9932 39.9214 63.4383C39.9495 63.4582 39.9798 63.4126 39.9495 63.3927C39.3198 62.9552 38.6567 62.5679 38.0031 62.166C38 62.1641 37.9963 62.1636 37.9927 62.1645C37.9892 62.1653 37.9862 62.1676 37.9844 62.1707C37.9825 62.1738 37.982 62.1775 37.9828 62.181C37.9837 62.1845 37.9859 62.1875 37.989 62.1894Z" fill="url(#paint22_linear_2379_141921)"/>
<path d="M37.3156 63.518C37.6479 63.7178 37.978 63.921 38.3221 64.1021C38.3297 64.1062 38.3367 64.0951 38.3291 64.091C37.985 63.9099 37.655 63.7072 37.3226 63.5069C37.3211 63.5059 37.3193 63.5056 37.3176 63.506C37.3159 63.5064 37.3144 63.5074 37.3135 63.5089C37.3126 63.5104 37.3123 63.5122 37.3127 63.5139C37.313 63.5156 37.3141 63.517 37.3156 63.518Z" fill="url(#paint23_linear_2379_141921)"/>
<path d="M36.7324 67.8289C37.2514 68.1168 37.7545 68.4325 38.2395 68.7746C38.2459 68.7805 38.2559 68.7711 38.2495 68.7653C37.7634 68.4226 37.2594 68.1063 36.7394 67.8178C36.7324 67.8125 36.7254 67.8236 36.7324 67.8289Z" fill="url(#paint24_linear_2379_141921)"/>
<path d="M36.7162 68.8204C36.7617 68.8368 36.809 68.8619 36.8558 68.8788C36.8114 68.8543 36.7664 68.8309 36.722 68.8052C36.72 68.8045 36.7177 68.8045 36.7158 68.8054C36.7138 68.8063 36.7123 68.8079 36.7115 68.8099C36.7107 68.8119 36.7108 68.8142 36.7116 68.8161C36.7125 68.8181 36.7141 68.8196 36.7162 68.8204Z" fill="url(#paint25_linear_2379_141921)"/>
<path d="M37.8454 69.4769C37.547 69.231 37.2137 69.0308 36.8564 68.8828C37.1998 69.0572 37.5303 69.2557 37.8454 69.4769Z" fill="url(#paint26_linear_2379_141921)"/>
<path d="M38.2219 69.8384C38.2277 69.8448 38.2371 69.8384 38.2318 69.829C38.1159 69.6989 37.9864 69.5814 37.8457 69.4785C37.9811 69.5876 38.1069 69.7079 38.2219 69.8384Z" fill="url(#paint27_linear_2379_141921)"/>
<path d="M34.2556 72.2534C34.9421 72.7698 35.633 73.2813 36.3281 73.788C36.3527 73.8061 36.3866 73.7664 36.362 73.7471C35.6943 73.2056 34.9659 72.7359 34.2696 72.2283C34.2556 72.2201 34.2421 72.2429 34.2556 72.2534Z" fill="url(#paint28_linear_2379_141921)"/>
<path d="M35.3318 73.8093C35.0894 73.6803 34.8706 73.5112 34.6846 73.3092C34.6787 73.3028 34.6688 73.3092 34.6746 73.3186C34.8581 73.525 35.0754 73.6986 35.3172 73.8321C35.3324 73.8379 35.347 73.8174 35.3318 73.8093Z" fill="url(#paint29_linear_2379_141921)"/>
<path d="M33.6732 73.5659C33.6539 73.549 33.6247 73.5759 33.644 73.5934C34.2519 74.129 34.896 74.622 35.5717 75.069C35.6155 75.0988 35.6722 75.031 35.6302 74.9971C35.0045 74.4854 34.2901 74.0934 33.6732 73.5659Z" fill="url(#paint30_linear_2379_141921)"/>
<path d="M33.1091 83.1657C33.1174 83.1711 33.1274 83.1732 33.1372 83.1717C33.147 83.1702 33.1558 83.1651 33.1621 83.1575C33.1684 83.1498 33.1717 83.1401 33.1712 83.1302C33.1708 83.1203 33.1668 83.1109 33.1599 83.1038C32.689 82.5968 32.0576 82.2451 31.5762 81.7404C31.5713 81.7354 31.5646 81.7325 31.5576 81.7324C31.5506 81.7323 31.5438 81.7349 31.5387 81.7397C31.5336 81.7445 31.5306 81.7511 31.5303 81.7581C31.53 81.7651 31.5324 81.7719 31.5371 81.7772C32.0001 82.3048 32.5283 82.7714 33.1091 83.1657Z" fill="url(#paint31_linear_2379_141921)"/>
<path d="M30.6642 81.9855C31.4709 82.5527 32.0662 83.4278 32.9378 83.8945C33.0032 83.9296 33.0803 83.846 33.0219 83.7917C32.3097 83.0972 31.5318 82.4733 30.6993 81.9288C30.6918 81.9242 30.6827 81.9227 30.6741 81.9247C30.6655 81.9267 30.6581 81.9321 30.6534 81.9396C30.6488 81.9471 30.6473 81.9562 30.6493 81.9648C30.6514 81.9734 30.6567 81.9808 30.6642 81.9855Z" fill="url(#paint32_linear_2379_141921)"/>
<path d="M28.4157 86.4603C29.1605 87.3014 30.2645 87.7098 31.0578 88.4984C31.0824 88.5229 31.1215 88.4855 31.097 88.4616C30.2961 87.6782 29.1873 87.2781 28.4349 86.4421C28.4238 86.4287 28.404 86.4474 28.4157 86.4603Z" fill="url(#paint33_linear_2379_141921)"/>
<path d="M26.5658 100.374C26.5741 100.379 26.5842 100.381 26.5939 100.38C26.6037 100.378 26.6126 100.373 26.6189 100.366C26.6252 100.358 26.6284 100.348 26.628 100.338C26.6276 100.329 26.6236 100.319 26.6166 100.312C25.4881 99.2483 24.2304 98.2675 23.0182 97.2942C23.0048 97.2837 22.9855 97.3013 22.9984 97.3129C24.1901 98.3142 25.2912 99.4772 26.5658 100.374Z" fill="url(#paint34_linear_2379_141921)"/>
<path d="M17.7433 116.144C18.1464 116.399 18.5308 116.682 18.8935 116.991C18.9321 117.024 18.9987 116.985 18.9695 116.936C18.5127 116.188 17.4542 115.994 16.8788 115.338C16.8443 115.299 16.7877 115.353 16.8204 115.393C17.0848 115.692 17.3966 115.946 17.7433 116.144Z" fill="url(#paint35_linear_2379_141921)"/>
<path d="M20.944 92.7149C20.0193 91.4852 18.4724 90.8123 17.2638 89.8922C17.2457 89.8782 17.2206 89.9092 17.2387 89.9232C18.4654 90.8853 19.7996 91.6283 20.8792 92.7622C20.9125 92.7943 20.9709 92.7523 20.944 92.7149Z" fill="url(#paint36_linear_2379_141921)"/>
<path d="M16.4802 104.061C16.5217 104.092 16.5643 104.023 16.5229 103.992C15.5871 103.215 14.7247 102.354 13.9467 101.419C13.9292 101.399 13.9 101.427 13.9175 101.446C14.6897 102.394 15.5475 103.27 16.4802 104.061Z" fill="url(#paint37_linear_2379_141921)"/>
<path d="M8.16144 86.1804C8.26106 86.3199 8.35348 86.4644 8.43833 86.6133C8.4471 86.6285 8.47105 86.6133 8.46228 86.6004C8.37321 86.4535 8.2767 86.3111 8.17312 86.174C8.16845 86.1646 8.15618 86.1734 8.16144 86.1804Z" fill="url(#paint38_linear_2379_141921)"/>
<path d="M6.54275 91.4701C6.99655 92.0827 7.49129 92.6639 8.02359 93.2097C8.02994 93.2152 8.03806 93.218 8.04641 93.2178C8.05475 93.2176 8.06273 93.2144 8.06881 93.2086C8.07489 93.2029 8.07865 93.1952 8.07936 93.1869C8.08007 93.1785 8.07768 93.1702 8.07266 93.1636C7.57087 92.5917 7.05798 92.0297 6.56261 91.452C6.54976 91.4386 6.53107 91.4567 6.54275 91.4701Z" fill="url(#paint39_linear_2379_141921)"/>
<path d="M5.17853 93.9728C5.15984 93.9547 5.13122 93.9816 5.14933 94.0003C5.47704 94.3432 5.83221 94.6569 6.18387 94.9764C6.53553 95.2959 6.84981 95.6505 7.20206 95.9695C7.24003 96.0033 7.30838 95.9613 7.278 95.9145C6.76861 95.1347 5.84681 94.6136 5.17853 93.9728Z" fill="url(#paint40_linear_2379_141921)"/>
<path d="M5.78338 92.4523C5.75417 92.4202 5.70569 92.4663 5.73431 92.4984C6.3839 93.228 7.12169 93.8572 7.72045 94.6312C7.75316 94.6733 7.82443 94.6207 7.79639 94.5763C7.27824 93.7585 6.43706 93.165 5.78338 92.4523Z" fill="url(#paint41_linear_2379_141921)"/>
<path d="M3.16572 99.1105C3.14586 99.0947 3.11665 99.1198 3.13651 99.1379C3.90118 99.8494 4.78442 100.434 5.35982 101.317C5.36723 101.329 5.37889 101.339 5.3927 101.344C5.40651 101.348 5.42157 101.348 5.43516 101.343C5.44875 101.337 5.45998 101.327 5.46684 101.315C5.4737 101.302 5.47573 101.287 5.47256 101.272C5.20677 100.27 3.92805 99.7075 3.16572 99.1105Z" fill="url(#paint42_linear_2379_141921)"/>
<path d="M1.96595 102.4C1.93323 102.358 1.85963 102.411 1.89001 102.455C2.1795 102.856 2.48992 103.242 2.81999 103.61C3.13446 104.047 3.48063 104.459 3.8557 104.845C3.8653 104.854 3.87765 104.86 3.8909 104.861C3.90415 104.863 3.91759 104.861 3.92922 104.854C3.94085 104.847 3.95004 104.837 3.95543 104.825C3.96081 104.813 3.9621 104.799 3.9591 104.786C3.77762 104.344 3.49229 103.952 3.12725 103.644C2.73178 103.236 2.32112 102.844 1.96595 102.4Z" fill="url(#paint43_linear_2379_141921)"/>
<path d="M39.7431 12.7087C39.465 12.6538 39.1905 12.5854 38.9089 12.5527C38.9002 12.5527 38.9002 12.565 38.9089 12.5662C39.1899 12.5989 39.4627 12.6672 39.7396 12.7216C39.7478 12.7233 39.7519 12.7105 39.7431 12.7087Z" fill="url(#paint44_linear_2379_141921)"/>
<path d="M39.5398 13.0332C39.0333 12.938 38.5275 12.8416 38.0175 12.7656C38.0087 12.7656 38.0052 12.7767 38.0134 12.7785C38.5222 12.8585 39.0269 12.959 39.5322 13.0589C39.5474 13.0624 39.5568 13.0367 39.5398 13.0332Z" fill="url(#paint45_linear_2379_141921)"/>
<path d="M38.8172 14.2695C37.9533 14.0773 37.0601 14.1211 36.2002 13.9027C36.1994 13.9024 36.1985 13.9023 36.1976 13.9024C36.1967 13.9024 36.1958 13.9027 36.1951 13.9031C36.1943 13.9035 36.1936 13.9041 36.193 13.9047C36.1924 13.9054 36.192 13.9062 36.1917 13.907C36.1915 13.9079 36.1914 13.9088 36.1914 13.9097C36.1915 13.9105 36.1918 13.9114 36.1922 13.9122C36.1926 13.913 36.1931 13.9137 36.1938 13.9142C36.1945 13.9148 36.1953 13.9152 36.1961 13.9155C37.045 14.1645 37.9211 14.3097 38.805 14.3478C38.815 14.3486 38.8249 14.3456 38.8328 14.3394C38.8407 14.3332 38.8459 14.3243 38.8475 14.3144C38.849 14.3044 38.8468 14.2943 38.8412 14.286C38.8355 14.2777 38.827 14.2718 38.8172 14.2695Z" fill="url(#paint46_linear_2379_141921)"/>
<path d="M36.823 14.4582C37.4252 14.5704 38.0293 14.672 38.6339 14.7725C38.6426 14.7725 38.6461 14.7614 38.638 14.7597C38.0339 14.6586 37.4299 14.5575 36.8271 14.4454C36.8183 14.4442 36.8148 14.4571 36.823 14.4582Z" fill="url(#paint47_linear_2379_141921)"/>
<path d="M38.418 15.0913C37.5564 14.8822 36.6527 14.9161 35.8057 14.6409C35.804 14.6404 35.8021 14.6406 35.8005 14.6414C35.7989 14.6422 35.7977 14.6436 35.7972 14.6453C35.7967 14.647 35.7968 14.6489 35.7976 14.6505C35.7985 14.6521 35.7999 14.6533 35.8016 14.6538C36.6433 14.943 37.5435 14.9243 38.4022 15.1427C38.4373 15.1509 38.4519 15.0995 38.418 15.0913Z" fill="url(#paint48_linear_2379_141921)"/>
<path d="M38.0563 15.4016C37.679 15.3475 37.3028 15.2865 36.9277 15.2188C37.2995 15.3043 37.6765 15.3654 38.0563 15.4016Z" fill="url(#paint49_linear_2379_141921)"/>
<path d="M36.7187 15.1837C36.7883 15.1966 36.8572 15.2077 36.9267 15.22C36.8589 15.203 36.79 15.1902 36.7228 15.1703C36.7141 15.1674 36.71 15.182 36.7187 15.1837Z" fill="url(#paint50_linear_2379_141921)"/>
<path d="M38.2311 17.2321C38.0537 17.1761 37.8714 17.137 37.6867 17.1152C37.6774 17.1152 37.6774 17.1287 37.6867 17.1293C37.8703 17.1511 38.0514 17.1902 38.2276 17.2461C38.2295 17.2466 38.2315 17.2463 38.2331 17.2453C38.2347 17.2443 38.2359 17.2427 38.2364 17.2408C38.2369 17.239 38.2366 17.237 38.2356 17.2354C38.2346 17.2337 38.233 17.2325 38.2311 17.2321Z" fill="url(#paint51_linear_2379_141921)"/>
<path d="M37.8015 17.4165C37.666 17.3785 37.5299 17.3435 37.3926 17.3125C37.5287 17.3499 37.6642 17.3838 37.8015 17.4165Z" fill="url(#paint52_linear_2379_141921)"/>
<path d="M37.1388 17.2602C37.224 17.2725 37.3082 17.2918 37.3923 17.3104L37.1411 17.2462C37.1402 17.246 37.1392 17.2461 37.1383 17.2463C37.1374 17.2465 37.1365 17.2469 37.1358 17.2474C37.135 17.248 37.1344 17.2486 37.1339 17.2494C37.1334 17.2502 37.1331 17.2511 37.1329 17.252C37.1328 17.253 37.1328 17.2539 37.133 17.2548C37.1332 17.2557 37.1336 17.2566 37.1341 17.2573C37.1347 17.2581 37.1354 17.2587 37.1362 17.2592C37.1369 17.2597 37.1378 17.2601 37.1388 17.2602Z" fill="url(#paint53_linear_2379_141921)"/>
<path d="M36.8641 18.3203C37.0095 18.3507 37.1562 18.3788 37.3005 18.3992C37.3098 18.3992 37.3098 18.3864 37.3005 18.3852C37.1532 18.3659 37.0125 18.3373 36.8682 18.3069C36.86 18.3046 36.8553 18.318 36.8641 18.3203Z" fill="url(#paint54_linear_2379_141921)"/>
<path d="M32.9773 19.3706C33.045 20.0082 33.2189 20.63 33.492 21.2101C33.5071 21.2417 33.5545 21.2142 33.5393 21.1827C33.2703 20.6115 33.0987 19.9995 33.0316 19.3718C33.0275 19.3373 32.9732 19.3367 32.9767 19.3718L32.9773 19.3706Z" fill="url(#paint55_linear_2379_141921)"/>
<path d="M40.4907 16.793C39.9352 17.5524 40.6893 19.1173 41.367 19.5747C41.4254 19.6151 41.4914 19.5379 41.4604 19.4813C41.0825 18.7861 40.0719 17.6704 40.5608 16.835C40.5883 16.7883 40.5205 16.7521 40.4901 16.7936L40.4907 16.793Z" fill="url(#paint56_linear_2379_141921)"/>
<path d="M60.0514 23.737C59.8987 24.2597 59.8931 24.8144 60.0353 25.34C60.1776 25.8657 60.4621 26.3419 60.8575 26.7162C60.9066 26.7601 60.9972 26.7016 60.9545 26.6415C60.4229 25.9013 59.8908 24.6857 60.1443 23.7645C60.1612 23.7061 60.0748 23.6833 60.052 23.7388L60.0514 23.737Z" fill="url(#paint57_linear_2379_141921)"/>
<path d="M57.2305 6.85264C56.681 7.19074 56.2671 7.71044 56.0605 8.32168C55.8539 8.93292 55.8677 9.59716 56.0995 10.1993C56.1252 10.2577 56.2164 10.2256 56.2164 10.1683C56.148 9.62286 56.1455 9.07116 56.2088 8.52509C56.3649 7.87804 56.7417 7.30565 57.2743 6.90638C57.3047 6.88243 57.2649 6.83161 57.2328 6.85264H57.2305Z" fill="url(#paint58_linear_2379_141921)"/>
<path d="M35.981 25.2214C36.3738 25.6835 36.8172 26.1001 37.303 26.4633C37.3164 26.475 37.3357 26.4557 37.3223 26.444C36.8418 26.0802 36.4036 25.6636 36.0161 25.2021C36.0009 25.1811 35.9647 25.2021 35.9805 25.2225L35.981 25.2214Z" fill="url(#paint59_linear_2379_141921)"/>
<path d="M39.2752 28.1402C40.2782 28.9662 41.7964 29.3301 43.0599 29.5241C43.079 29.5289 43.0992 29.5267 43.1168 29.5179C43.1345 29.5091 43.1483 29.4942 43.156 29.4761C43.1636 29.4579 43.1645 29.4376 43.1584 29.4189C43.1524 29.4002 43.1398 29.3842 43.123 29.3739C42.0085 28.6566 40.4943 28.7016 39.2915 28.1186C39.2787 28.1121 39.2623 28.1297 39.2752 28.1402Z" fill="url(#paint60_linear_2379_141921)"/>
<path d="M42.9851 38.4019C41.9798 39.433 41.714 40.9599 41.2706 42.2796C41.2484 42.345 41.353 42.3905 41.3834 42.3269C41.988 41.068 42.1299 39.5562 43.0336 38.4498C43.0611 38.4165 43.0167 38.3692 42.9851 38.4013V38.4019Z" fill="url(#paint61_linear_2379_141921)"/>
<path d="M26.7687 80.0282C25.9807 81.11 25.0513 82.248 24.841 83.6073C24.84 83.6215 24.8439 83.6357 24.8521 83.6473C24.8603 83.659 24.8723 83.6675 24.886 83.6713C24.8998 83.6752 24.9144 83.6742 24.9275 83.6684C24.9406 83.6627 24.9513 83.6527 24.9578 83.64C25.3959 82.3599 26.0263 81.1538 26.8271 80.0632C26.8517 80.0258 26.7932 79.9937 26.7687 80.0288V80.0282Z" fill="url(#paint62_linear_2379_141921)"/>
<path d="M29.2512 74.117C28.5572 75.2152 27.2271 76.1849 27.1196 77.5635C27.1085 77.7026 27.3054 77.7096 27.348 77.5945C27.8188 76.3216 28.7804 75.3805 29.3096 74.148C29.3124 74.1404 29.3124 74.1321 29.3097 74.1245C29.307 74.1169 29.3017 74.1104 29.2948 74.1063C29.2878 74.1022 29.2797 74.1007 29.2717 74.102C29.2637 74.1033 29.2565 74.1074 29.2512 74.1135V74.117Z" fill="url(#paint63_linear_2379_141921)"/>
<path d="M10.5763 79.5028C12.1113 80.2253 13.7357 80.74 15.4067 81.0333C15.5323 81.0479 15.5504 80.8516 15.4359 80.8183C13.8248 80.351 12.2079 79.9 10.5985 79.4239C10.5465 79.4087 10.529 79.4823 10.5769 79.5034L10.5763 79.5028Z" fill="url(#paint64_linear_2379_141921)"/>
<path d="M7.34778 82.3845C7.27602 82.8974 7.1744 83.4057 7.04344 83.9068C7.04057 83.9174 7.04201 83.9286 7.04743 83.9381C7.05285 83.9476 7.06182 83.9545 7.07235 83.9574C7.08289 83.9602 7.09413 83.9588 7.10361 83.9534C7.11308 83.9479 7.12002 83.939 7.12288 83.9284C7.28479 83.4284 7.37889 82.909 7.40269 82.3839C7.40269 82.3483 7.35012 82.3489 7.34778 82.3839V82.3845Z" fill="url(#paint65_linear_2379_141921)"/>
<path d="M4.48571 90.0852C3.77888 90.8405 3.57442 92.0614 3.39042 93.0451C3.38695 93.0594 3.38869 93.0745 3.39532 93.0876C3.40196 93.1007 3.41306 93.1111 3.42663 93.1168C3.4402 93.1225 3.45536 93.1231 3.46938 93.1187C3.4834 93.1142 3.49538 93.1049 3.50316 93.0924C4.04292 92.1741 3.83145 91.0046 4.5342 90.1336C4.56107 90.1003 4.51667 90.0524 4.48571 90.0852Z" fill="url(#paint66_linear_2379_141921)"/>
</g>
<defs>
<linearGradient id="paint0_linear_2379_141921" x1="11.1195" y1="14.3743" x2="54.1527" y2="90.1203" gradientUnits="userSpaceOnUse">
<stop stop-color="#DD272E"/>
<stop offset="1" stop-color="#7B4297"/>
</linearGradient>
<linearGradient id="paint1_linear_2379_141921" x1="48.4249" y1="-6.82028" x2="91.4582" y2="68.9258" gradientUnits="userSpaceOnUse">
<stop stop-color="#DD272E"/>
<stop offset="1" stop-color="#7B4297"/>
</linearGradient>
<linearGradient id="paint2_linear_2379_141921" x1="44.411" y1="-4.54086" x2="87.4443" y2="71.2052" gradientUnits="userSpaceOnUse">
<stop stop-color="#DD272E"/>
<stop offset="1" stop-color="#7B4297"/>
</linearGradient>
<linearGradient id="paint3_linear_2379_141921" x1="44.2544" y1="-4.45392" x2="87.2876" y2="71.2922" gradientUnits="userSpaceOnUse">
<stop stop-color="#DD272E"/>
<stop offset="1" stop-color="#7B4297"/>
</linearGradient>
<linearGradient id="paint4_linear_2379_141921" x1="43.4316" y1="-3.98563" x2="86.4648" y2="71.7605" gradientUnits="userSpaceOnUse">
<stop stop-color="#DD272E"/>
<stop offset="1" stop-color="#7B4297"/>
</linearGradient>
<linearGradient id="paint5_linear_2379_141921" x1="42.8285" y1="-3.64361" x2="85.8617" y2="72.1024" gradientUnits="userSpaceOnUse">
<stop stop-color="#DD272E"/>
<stop offset="1" stop-color="#7B4297"/>
</linearGradient>
<linearGradient id="paint6_linear_2379_141921" x1="43.193" y1="-3.84906" x2="86.2257" y2="71.897" gradientUnits="userSpaceOnUse">
<stop stop-color="#DD272E"/>
<stop offset="1" stop-color="#7B4297"/>
</linearGradient>
<linearGradient id="paint7_linear_2379_141921" x1="36.9378" y1="-0.296075" x2="79.9707" y2="75.45" gradientUnits="userSpaceOnUse">
<stop stop-color="#DD272E"/>
<stop offset="1" stop-color="#7B4297"/>
</linearGradient>
<linearGradient id="paint8_linear_2379_141921" x1="33.2119" y1="1.82244" x2="76.2451" y2="77.5686" gradientUnits="userSpaceOnUse">
<stop stop-color="#DD272E"/>
<stop offset="1" stop-color="#7B4297"/>
</linearGradient>
<linearGradient id="paint9_linear_2379_141921" x1="33.4544" y1="1.6844" x2="76.4871" y2="77.4299" gradientUnits="userSpaceOnUse">
<stop stop-color="#DD272E"/>
<stop offset="1" stop-color="#7B4297"/>
</linearGradient>
<linearGradient id="paint10_linear_2379_141921" x1="32.401" y1="2.28236" x2="75.4343" y2="78.0279" gradientUnits="userSpaceOnUse">
<stop stop-color="#DD272E"/>
<stop offset="1" stop-color="#7B4297"/>
</linearGradient>
<linearGradient id="paint11_linear_2379_141921" x1="28.8544" y1="4.298" x2="71.8864" y2="80.0433" gradientUnits="userSpaceOnUse">
<stop stop-color="#DD272E"/>
<stop offset="1" stop-color="#7B4297"/>
</linearGradient>
<linearGradient id="paint12_linear_2379_141921" x1="27.1005" y1="5.29387" x2="70.133" y2="81.0399" gradientUnits="userSpaceOnUse">
<stop stop-color="#DD272E"/>
<stop offset="1" stop-color="#7B4297"/>
</linearGradient>
<linearGradient id="paint13_linear_2379_141921" x1="25.7314" y1="6.06917" x2="68.7647" y2="81.8153" gradientUnits="userSpaceOnUse">
<stop stop-color="#DD272E"/>
<stop offset="1" stop-color="#7B4297"/>
</linearGradient>
<linearGradient id="paint14_linear_2379_141921" x1="25.1077" y1="6.42534" x2="68.1408" y2="82.1708" gradientUnits="userSpaceOnUse">
<stop stop-color="#DD272E"/>
<stop offset="1" stop-color="#7B4297"/>
</linearGradient>
<linearGradient id="paint15_linear_2379_141921" x1="23.5456" y1="7.3113" x2="66.5787" y2="83.0567" gradientUnits="userSpaceOnUse">
<stop stop-color="#DD272E"/>
<stop offset="1" stop-color="#7B4297"/>
</linearGradient>
<linearGradient id="paint16_linear_2379_141921" x1="22.6637" y1="7.81559" x2="65.6961" y2="83.5612" gradientUnits="userSpaceOnUse">
<stop stop-color="#DD272E"/>
<stop offset="1" stop-color="#7B4297"/>
</linearGradient>
<linearGradient id="paint17_linear_2379_141921" x1="22.9347" y1="7.66026" x2="65.9683" y2="83.406" gradientUnits="userSpaceOnUse">
<stop stop-color="#DD272E"/>
<stop offset="1" stop-color="#7B4297"/>
</linearGradient>
<linearGradient id="paint18_linear_2379_141921" x1="18.5848" y1="10.1294" x2="61.618" y2="85.8755" gradientUnits="userSpaceOnUse">
<stop stop-color="#DD272E"/>
<stop offset="1" stop-color="#7B4297"/>
</linearGradient>
<linearGradient id="paint19_linear_2379_141921" x1="17.0686" y1="10.9927" x2="60.1012" y2="86.7387" gradientUnits="userSpaceOnUse">
<stop stop-color="#DD272E"/>
<stop offset="1" stop-color="#7B4297"/>
</linearGradient>
<linearGradient id="paint20_linear_2379_141921" x1="15.2132" y1="12.0464" x2="58.2459" y2="87.7919" gradientUnits="userSpaceOnUse">
<stop stop-color="#DD272E"/>
<stop offset="1" stop-color="#7B4297"/>
</linearGradient>
<linearGradient id="paint21_linear_2379_141921" x1="12.8682" y1="13.377" x2="55.9017" y2="89.1224" gradientUnits="userSpaceOnUse">
<stop stop-color="#DD272E"/>
<stop offset="1" stop-color="#7B4297"/>
</linearGradient>
<linearGradient id="paint22_linear_2379_141921" x1="11.3789" y1="14.2253" x2="54.4114" y2="89.9708" gradientUnits="userSpaceOnUse">
<stop stop-color="#DD272E"/>
<stop offset="1" stop-color="#7B4297"/>
</linearGradient>
<linearGradient id="paint23_linear_2379_141921" x1="10.0757" y1="14.9644" x2="53.109" y2="90.7105" gradientUnits="userSpaceOnUse">
<stop stop-color="#DD272E"/>
<stop offset="1" stop-color="#7B4297"/>
</linearGradient>
<linearGradient id="paint24_linear_2379_141921" x1="7.89546" y1="16.2039" x2="50.9281" y2="91.9493" gradientUnits="userSpaceOnUse">
<stop stop-color="#DD272E"/>
<stop offset="1" stop-color="#7B4297"/>
</linearGradient>
<linearGradient id="paint25_linear_2379_141921" x1="7.12347" y1="16.6403" x2="50.1577" y2="92.3867" gradientUnits="userSpaceOnUse">
<stop stop-color="#DD272E"/>
<stop offset="1" stop-color="#7B4297"/>
</linearGradient>
<linearGradient id="paint26_linear_2379_141921" x1="7.41069" y1="16.4798" x2="50.4437" y2="92.2259" gradientUnits="userSpaceOnUse">
<stop stop-color="#DD272E"/>
<stop offset="1" stop-color="#7B4297"/>
</linearGradient>
<linearGradient id="paint27_linear_2379_141921" x1="7.72786" y1="16.3004" x2="50.7617" y2="92.0465" gradientUnits="userSpaceOnUse">
<stop stop-color="#DD272E"/>
<stop offset="1" stop-color="#7B4297"/>
</linearGradient>
<linearGradient id="paint28_linear_2379_141921" x1="4.2257" y1="18.2871" x2="47.2583" y2="94.0326" gradientUnits="userSpaceOnUse">
<stop stop-color="#DD272E"/>
<stop offset="1" stop-color="#7B4297"/>
</linearGradient>
<linearGradient id="paint29_linear_2379_141921" x1="3.75337" y1="18.5568" x2="46.7863" y2="94.3028" gradientUnits="userSpaceOnUse">
<stop stop-color="#DD272E"/>
<stop offset="1" stop-color="#7B4297"/>
</linearGradient>
<linearGradient id="paint30_linear_2379_141921" x1="3.16206" y1="18.8933" x2="46.1954" y2="94.6394" gradientUnits="userSpaceOnUse">
<stop stop-color="#DD272E"/>
<stop offset="1" stop-color="#7B4297"/>
</linearGradient>
<linearGradient id="paint31_linear_2379_141921" x1="-2.06723" y1="21.8629" x2="40.9661" y2="97.6084" gradientUnits="userSpaceOnUse">
<stop stop-color="#DD272E"/>
<stop offset="1" stop-color="#7B4297"/>
</linearGradient>
<linearGradient id="paint32_linear_2379_141921" x1="-2.64098" y1="22.1904" x2="40.3916" y2="97.9359" gradientUnits="userSpaceOnUse">
<stop stop-color="#DD272E"/>
<stop offset="1" stop-color="#7B4297"/>
</linearGradient>
<linearGradient id="paint33_linear_2379_141921" x1="-6.18287" y1="24.2014" x2="36.8502" y2="99.9468" gradientUnits="userSpaceOnUse">
<stop stop-color="#DD272E"/>
<stop offset="1" stop-color="#7B4297"/>
</linearGradient>
<linearGradient id="paint34_linear_2379_141921" x1="-14.799" y1="29.0973" x2="28.2341" y2="104.843" gradientUnits="userSpaceOnUse">
<stop stop-color="#DD272E"/>
<stop offset="1" stop-color="#7B4297"/>
</linearGradient>
<linearGradient id="paint35_linear_2379_141921" x1="-27.4793" y1="36.3" x2="15.5538" y2="112.046" gradientUnits="userSpaceOnUse">
<stop stop-color="#DD272E"/>
<stop offset="1" stop-color="#7B4297"/>
</linearGradient>
<linearGradient id="paint36_linear_2379_141921" x1="-15.9024" y1="29.7245" x2="27.1302" y2="105.471" gradientUnits="userSpaceOnUse">
<stop stop-color="#DD272E"/>
<stop offset="1" stop-color="#7B4297"/>
</linearGradient>
<linearGradient id="paint37_linear_2379_141921" x1="-23.7239" y1="34.168" x2="19.3086" y2="109.913" gradientUnits="userSpaceOnUse">
<stop stop-color="#DD272E"/>
<stop offset="1" stop-color="#7B4297"/>
</linearGradient>
<linearGradient id="paint38_linear_2379_141921" x1="-21.9344" y1="33.1516" x2="21.0989" y2="108.898" gradientUnits="userSpaceOnUse">
<stop stop-color="#DD272E"/>
<stop offset="1" stop-color="#7B4297"/>
</linearGradient>
<linearGradient id="paint39_linear_2379_141921" x1="-25.2396" y1="35.0285" x2="17.7933" y2="110.775" gradientUnits="userSpaceOnUse">
<stop stop-color="#DD272E"/>
<stop offset="1" stop-color="#7B4297"/>
</linearGradient>
<linearGradient id="paint40_linear_2379_141921" x1="-27.2002" y1="36.1423" x2="15.8324" y2="111.888" gradientUnits="userSpaceOnUse">
<stop stop-color="#DD272E"/>
<stop offset="1" stop-color="#7B4297"/>
</linearGradient>
<linearGradient id="paint41_linear_2379_141921" x1="-26.1724" y1="35.56" x2="16.8601" y2="111.305" gradientUnits="userSpaceOnUse">
<stop stop-color="#DD272E"/>
<stop offset="1" stop-color="#7B4297"/>
</linearGradient>
<linearGradient id="paint42_linear_2379_141921" x1="-30.8761" y1="38.2318" x2="12.157" y2="113.977" gradientUnits="userSpaceOnUse">
<stop stop-color="#DD272E"/>
<stop offset="1" stop-color="#7B4297"/>
</linearGradient>
<linearGradient id="paint43_linear_2379_141921" x1="-33.3902" y1="39.6596" x2="9.64284" y2="115.406" gradientUnits="userSpaceOnUse">
<stop stop-color="#DD272E"/>
<stop offset="1" stop-color="#7B4297"/>
</linearGradient>
<linearGradient id="paint44_linear_2379_141921" x1="33.1883" y1="1.83461" x2="76.2213" y2="77.5806" gradientUnits="userSpaceOnUse">
<stop stop-color="#DD272E"/>
<stop offset="1" stop-color="#7B4297"/>
</linearGradient>
<linearGradient id="paint45_linear_2379_141921" x1="32.6584" y1="2.13513" x2="75.6915" y2="77.8811" gradientUnits="userSpaceOnUse">
<stop stop-color="#DD272E"/>
<stop offset="1" stop-color="#7B4297"/>
</linearGradient>
<linearGradient id="paint46_linear_2379_141921" x1="31.1922" y1="2.96721" x2="74.2255" y2="78.7133" gradientUnits="userSpaceOnUse">
<stop stop-color="#DD272E"/>
<stop offset="1" stop-color="#7B4297"/>
</linearGradient>
<linearGradient id="paint47_linear_2379_141921" x1="31.1356" y1="3.00115" x2="74.1682" y2="78.7472" gradientUnits="userSpaceOnUse">
<stop stop-color="#DD272E"/>
<stop offset="1" stop-color="#7B4297"/>
</linearGradient>
<linearGradient id="paint48_linear_2379_141921" x1="30.5564" y1="3.32929" x2="73.5891" y2="79.0754" gradientUnits="userSpaceOnUse">
<stop stop-color="#DD272E"/>
<stop offset="1" stop-color="#7B4297"/>
</linearGradient>
<linearGradient id="paint49_linear_2379_141921" x1="30.6539" y1="3.27447" x2="73.687" y2="79.02" gradientUnits="userSpaceOnUse">
<stop stop-color="#DD272E"/>
<stop offset="1" stop-color="#7B4297"/>
</linearGradient>
<linearGradient id="paint50_linear_2379_141921" x1="30.1937" y1="3.53633" x2="73.2263" y2="79.2819" gradientUnits="userSpaceOnUse">
<stop stop-color="#DD272E"/>
<stop offset="1" stop-color="#7B4297"/>
</linearGradient>
<linearGradient id="paint51_linear_2379_141921" x1="30.203" y1="3.53" x2="73.2364" y2="79.2757" gradientUnits="userSpaceOnUse">
<stop stop-color="#DD272E"/>
<stop offset="1" stop-color="#7B4297"/>
</linearGradient>
<linearGradient id="paint52_linear_2379_141921" x1="29.8511" y1="3.73085" x2="72.8842" y2="79.4761" gradientUnits="userSpaceOnUse">
<stop stop-color="#DD272E"/>
<stop offset="1" stop-color="#7B4297"/>
</linearGradient>
<linearGradient id="paint53_linear_2379_141921" x1="29.6323" y1="3.85256" x2="72.665" y2="79.5989" gradientUnits="userSpaceOnUse">
<stop stop-color="#DD272E"/>
<stop offset="1" stop-color="#7B4297"/>
</linearGradient>
<linearGradient id="paint54_linear_2379_141921" x1="29.0381" y1="4.1924" x2="72.0716" y2="79.9382" gradientUnits="userSpaceOnUse">
<stop stop-color="#DD272E"/>
<stop offset="1" stop-color="#7B4297"/>
</linearGradient>
<linearGradient id="paint55_linear_2379_141921" x1="25.319" y1="6.30649" x2="68.3521" y2="82.0526" gradientUnits="userSpaceOnUse">
<stop stop-color="#DD272E"/>
<stop offset="1" stop-color="#7B4297"/>
</linearGradient>
<linearGradient id="paint56_linear_2379_141921" x1="31.9614" y1="2.53251" x2="74.9947" y2="78.2779" gradientUnits="userSpaceOnUse">
<stop stop-color="#DD272E"/>
<stop offset="1" stop-color="#7B4297"/>
</linearGradient>
<linearGradient id="paint57_linear_2379_141921" x1="43.7341" y1="-4.15771" x2="86.7673" y2="71.5883" gradientUnits="userSpaceOnUse">
<stop stop-color="#DD272E"/>
<stop offset="1" stop-color="#7B4297"/>
</linearGradient>
<linearGradient id="paint58_linear_2379_141921" x1="48.0773" y1="-6.62448" x2="91.1105" y2="69.1216" gradientUnits="userSpaceOnUse">
<stop stop-color="#DD272E"/>
<stop offset="1" stop-color="#7B4297"/>
</linearGradient>
<linearGradient id="paint59_linear_2379_141921" x1="25.5001" y1="6.20291" x2="68.5333" y2="81.949" gradientUnits="userSpaceOnUse">
<stop stop-color="#DD272E"/>
<stop offset="1" stop-color="#7B4297"/>
</linearGradient>
<linearGradient id="paint60_linear_2379_141921" x1="27.6855" y1="4.96021" x2="70.7186" y2="80.7062" gradientUnits="userSpaceOnUse">
<stop stop-color="#DD272E"/>
<stop offset="1" stop-color="#7B4297"/>
</linearGradient>
<linearGradient id="paint61_linear_2379_141921" x1="23.4176" y1="7.38485" x2="66.4508" y2="83.1303" gradientUnits="userSpaceOnUse">
<stop stop-color="#DD272E"/>
<stop offset="1" stop-color="#7B4297"/>
</linearGradient>
<linearGradient id="paint62_linear_2379_141921" x1="-6.73163" y1="24.5122" x2="36.3015" y2="100.258" gradientUnits="userSpaceOnUse">
<stop stop-color="#DD272E"/>
<stop offset="1" stop-color="#7B4297"/>
</linearGradient>
<linearGradient id="paint63_linear_2379_141921" x1="-2.3664" y1="22.0346" x2="40.6668" y2="97.7807" gradientUnits="userSpaceOnUse">
<stop stop-color="#DD272E"/>
<stop offset="1" stop-color="#7B4297"/>
</linearGradient>
<linearGradient id="paint64_linear_2379_141921" x1="-15.7021" y1="29.6086" x2="27.3307" y2="105.355" gradientUnits="userSpaceOnUse">
<stop stop-color="#DD272E"/>
<stop offset="1" stop-color="#7B4297"/>
</linearGradient>
<linearGradient id="paint65_linear_2379_141921" x1="-21.3671" y1="32.8281" x2="21.666" y2="108.574" gradientUnits="userSpaceOnUse">
<stop stop-color="#DD272E"/>
<stop offset="1" stop-color="#7B4297"/>
</linearGradient>
<linearGradient id="paint66_linear_2379_141921" x1="-27.4526" y1="36.2859" x2="15.5801" y2="112.031" gradientUnits="userSpaceOnUse">
<stop stop-color="#DD272E"/>
<stop offset="1" stop-color="#7B4297"/>
</linearGradient>
<clipPath id="clip0_2379_141921">
<rect width="75.9406" height="118" fill="white"/>
</clipPath>
</defs>
</svg>
