<svg width="172" height="169" viewBox="0 0 172 169" fill="none" xmlns="http://www.w3.org/2000/svg">
<g clip-path="url(#clip0_2540_63941)">
<path d="M40.6562 39.3359L51.9354 65.6959L65.69 45.9274L40.6562 39.3359Z" fill="#D7D3D1"/>
<path d="M29.4844 60.9081L40.6626 39.3359L51.9418 65.6959L29.4844 60.9081Z" fill="#E1DDDB"/>
<path d="M42.2417 80.0794L29.4844 60.9102L51.9418 65.698L42.2417 80.0794Z" fill="#BEBFBB"/>
<path d="M22.0625 80.0781H42.2462L33.2467 89.468L28.545 97.1561L22.0625 80.0781Z" fill="#C0C0BF"/>
<path d="M40.6602 39.3359L10.0938 54.7121L29.482 60.9081L40.6602 39.3359Z" fill="#D9D9D9"/>
<path d="M66.4806 5.58203L42.8359 15.667L65.6911 24.955L66.4806 5.58203Z" fill="#E8E7E5"/>
<path d="M86.6133 5.58203L65.6875 24.955L66.477 5.58203H86.6133Z" fill="#EDEDED"/>
<path d="M104.967 5.58203L105.459 25.3565L86.6172 5.58203H104.967Z" fill="#EEEEEE"/>
<path d="M65.6875 24.955L85.6872 25.3565H105.455L86.6133 5.58203L65.6875 24.955Z" fill="#E9E7E8"/>
<path d="M129.308 16.1644L105.461 25.3565L104.969 5.58203L129.308 16.1644Z" fill="#E8E7E5"/>
<path d="M85.5781 25.3574H105.459L106.45 46.3244L85.5781 25.3574Z" fill="#E0E0DE"/>
<path d="M131.581 39.3354L105.461 25.3555L106.452 46.3224L131.581 39.3354Z" fill="#E1E1E0"/>
<path d="M65.6921 45.9277L70.5362 69.9927L60.5453 63.8985L51.9375 65.6962L65.6921 45.9277Z" fill="#D9D9D9"/>
<path d="M85.5744 47.4258L70.5316 69.9927L65.6875 45.9277L85.5744 47.4258Z" fill="#D6D6D3"/>
<path d="M101.036 70.0516L106.45 46.3223L85.5781 47.4248L101.036 70.0516Z" fill="#D6D6D3"/>
<path d="M119.638 65.7571L106.453 46.3242L101.039 70.0536L111.03 63.9834L119.638 65.7571Z" fill="#D9D9D9"/>
<path d="M131.582 39.3359L119.638 65.7558L106.453 46.3229L131.582 39.3359Z" fill="#E1DDDB"/>
<path d="M141.989 60.9628L119.633 65.7566L131.601 39.3906L141.989 60.9628Z" fill="#D7D3D1"/>
<path d="M161.159 54.7121L141.967 60.9081L131.578 39.3359L161.159 54.7121Z" fill="#D9D9D9"/>
<path d="M129.327 80.1393L119.633 65.7579L141.966 60.9102L129.327 80.1393Z" fill="#BEBFBB"/>
<path d="M168.879 79.0815L161.162 54.7109L150.969 80.0762L168.879 79.0815Z" fill="#CECCD1"/>
<path d="M143.029 97.216L138.209 89.468L129.328 80.1381L150.966 80.0781L143.029 97.216Z" fill="#C0C0BF"/>
<path d="M171.749 103.746L168.881 79.082L161.164 103.345L171.749 103.746Z" fill="#B9B8BF"/>
<path d="M148.594 120.021L161.161 103.345L143.031 97.2148L148.594 120.021Z" fill="#B3B3B2"/>
<path d="M168.881 123.22L171.749 103.745L161.164 103.344L168.881 123.22Z" fill="#B0AEB3"/>
<path d="M148.594 120.02L168.878 123.22L161.161 103.344L148.594 120.02Z" fill="#A4A2A2"/>
<path d="M153.64 145.089L168.878 123.223L148.594 120.023L153.64 145.089Z" fill="#A9A9A9"/>
<path d="M129.328 112.717L138.506 106.143L143.029 97.2148L148.592 120.021L129.328 112.717Z" fill="#BCBEBB"/>
<path d="M135.633 133.506L148.592 120.023L153.638 145.089L135.633 133.506Z" fill="#B4B5B5"/>
<path d="M135.633 157.371V133.504L153.638 145.087L135.633 157.371Z" fill="#ACACAC"/>
<path d="M118.719 146.088L135.637 133.504V157.371L118.719 146.088Z" fill="#B2B0B6"/>
<path d="M119.63 106.805L129.324 112.719L109.906 117.573L119.63 106.805Z" fill="#C7C6C9"/>
<path d="M148.592 120.023L135.633 133.506L129.328 112.719L148.592 120.023Z" fill="#C7C6C9"/>
<path d="M109.906 117.572L129.324 112.719L135.629 133.506L109.906 117.572Z" fill="#C3C3C3"/>
<path d="M106.75 133.504H135.636L118.718 146.088L106.75 133.504Z" fill="#BBB9BE"/>
<path d="M109.905 117.57L105.75 129.01L106.741 133.504H135.628L109.905 117.57Z" fill="#CECCD1"/>
<path d="M96.6562 128.614L109.912 117.57L105.757 129.01L103.287 130.01L96.6562 128.614Z" fill="#DEDDE1"/>
<path d="M85.5741 76.4823L70.5312 69.9926L85.5741 47.4258L101.032 70.0526L85.5741 76.4823Z" fill="#CFCDCD"/>
<path d="M65.6875 90.6654L85.5744 76.4877L70.5375 69.998C70.5375 69.998 70.7334 74.8937 69.0534 80.083C67.3675 85.2723 65.6875 90.6654 65.6875 90.6654Z" fill="#D3D1D5"/>
<path d="M101.042 70.0527C101.042 70.0527 101.12 75.7034 102.699 80.3295C104.207 84.7398 105.887 90.726 105.887 90.726L85.5781 76.4884L101.042 70.0527Z" fill="#D3D1D5"/>
<path d="M85.5744 96.7523L65.6875 90.6641L85.5744 76.4805L105.877 90.7241L85.5744 96.7523Z" fill="#DCDBE0"/>
<path d="M51.9375 106.743L85.5731 96.7543L65.6862 90.6602C65.6862 90.6602 62.3203 97.6531 59.8507 100.547C57.3812 103.448 51.9375 106.743 51.9375 106.743Z" fill="#DDDDE4"/>
<path d="M119.712 106.852L85.5781 96.7608L105.887 90.7266C105.887 90.7266 107.887 94.6155 111.301 99.1577C114.714 103.7 119.712 106.852 119.712 106.852Z" fill="#DEDDE2"/>
<path d="M61.5391 117.571H109.915L85.5815 96.7539L61.5391 117.571Z" fill="#DDDCE1"/>
<path d="M119.712 106.851L109.911 117.571L85.5781 96.7539L119.712 106.851Z" fill="#DAD9DE"/>
<path d="M61.5366 117.571L85.579 96.7539L51.9375 106.743L61.5366 117.571Z" fill="#DAD9DD"/>
<path d="M96.6554 128.614L85.5781 117.57H109.911L96.6554 128.614Z" fill="#D0D0D3"/>
<path d="M74.5938 128.614L85.5761 117.57L96.6593 128.614C96.6593 128.614 87.8794 128.213 85.8729 128.213C83.8664 128.213 74.5938 128.614 74.5938 128.614Z" fill="#D9DBDC"/>
<path d="M61.5391 117.57L74.5991 128.614L85.5815 117.57H61.5391Z" fill="#D0D0D3"/>
<path d="M65.4986 129.016L61.5391 117.57L74.5991 128.614L67.9682 130.01L65.4986 129.016Z" fill="#DEDDE2"/>
<path d="M10.0923 54.7109L2.375 80.0762H22.0601L10.0923 54.7109Z" fill="#CECCD1"/>
<path d="M28.5441 97.1561L10.0938 103.346L22.0615 80.0781L28.5441 97.1561Z" fill="#CAC8C8"/>
<path d="M2.375 80.0781L10.0923 103.346L22.0601 80.0781H2.375Z" fill="#C8C6CC"/>
<path d="M-0.296875 102.351L2.3745 80.0781L10.0918 103.346L-0.296875 102.351Z" fill="#BAB8BD"/>
<path d="M2.77224 122.971L-0.296875 102.352L10.0918 103.346L2.77224 122.971Z" fill="#B0AEB3"/>
<path d="M22.9512 119.625L10.093 103.344L2.77344 122.968L22.9512 119.625Z" fill="#A4A2A2"/>
<path d="M28.5441 97.1562L22.952 119.627L10.0938 103.346L28.5441 97.1562Z" fill="#B3B3B2"/>
<path d="M42.2464 112.658L22.9531 119.627L28.5452 97.1562L32.9797 106.312L42.2464 112.658Z" fill="#BCBEBB"/>
<path d="M17.8103 145.056L2.77344 122.969L22.9512 119.625L17.8103 145.056Z" fill="#A9A9A9"/>
<path d="M35.9482 133.503L22.9534 119.625L17.8125 145.056L35.9482 133.503Z" fill="#B4B5B5"/>
<path d="M42.25 112.657L61.5433 117.57L51.9441 106.742L42.25 112.657Z" fill="#C7C6C9"/>
<path d="M35.9479 133.503L42.2464 112.656L22.9531 119.625L35.9479 133.503Z" fill="#C7C6C9"/>
<path d="M61.5371 117.57L35.9453 133.503L42.2438 112.656L61.5371 117.57Z" fill="#C3C3C3"/>
<path d="M64.5053 133.504H35.9453L61.5371 117.57L65.4907 129.01L64.5053 133.504Z" fill="#CECCD1"/>
<path d="M52.5316 146.088L35.9453 133.504H64.5053L52.5316 146.088Z" fill="#BBB9BE"/>
<path d="M36.4084 157.509L52.5316 146.088L35.9453 133.504L36.4084 157.509Z" fill="#B2B0B6"/>
<path d="M17.8125 145.057L35.9482 133.504L36.4112 157.509L17.8125 145.057Z" fill="#ACACAC"/>
<path d="M58.6974 165.529L36.4062 157.511L52.5295 146.09L58.6974 165.529Z" fill="#A4A2A7"/>
<path d="M135.639 157.373L112.719 165.828L118.72 146.09L135.639 157.373Z" fill="#A4A1A7"/>
<path d="M93.5234 156.708L112.716 165.828L118.717 146.09L111.267 152.579L104.672 155.959L93.5234 156.708Z" fill="#9C9A9C"/>
<path d="M85.625 169.093L93.5204 156.707L112.713 165.827L85.625 169.093Z" fill="#A4A1A3"/>
<path d="M85.625 156.707H93.5204L85.625 169.093V156.707Z" fill="#99999B"/>
<path d="M58.6953 165.528L77.7214 156.707L85.6228 169.093L58.6953 165.528Z" fill="#A4A1A3"/>
<path d="M52.5312 146.09L59.9873 152.579L66.5827 155.959L77.7253 156.708L58.6992 165.529L52.5312 146.09Z" fill="#9C9A9C"/>
<path d="M129.305 16.164L145.28 0.488281L149.981 14.2705L129.305 16.164Z" fill="#423E4F"/>
<path d="M162.449 8.32616L145.281 0.488281L149.983 14.2705L162.449 8.32616Z" fill="#333241"/>
<path d="M168.88 21.5571L162.451 8.32617L149.984 14.2705L168.88 21.5571Z" fill="#21202C"/>
<path d="M136.428 21.8557L149.981 14.2695L129.305 16.1631L136.428 21.8557Z" fill="#343342"/>
<path d="M147.609 34.5438L168.879 21.5586L171.058 37.54L147.609 34.5438Z" fill="#1D1B2D"/>
<path d="M149.984 14.2695L147.609 34.5414L168.879 21.5561L149.984 14.2695Z" fill="#272530"/>
<path d="M136.43 21.8557L149.982 14.2695L147.608 34.5414L136.43 21.8557Z" fill="#302F3B"/>
<path d="M171.058 37.5391L161.162 54.7129L147.609 34.543L171.058 37.5391Z" fill="#0A0B0D"/>
<path d="M42.8398 15.6656L26.4672 0.535156L21.4688 14.0657L42.8398 15.6656Z" fill="#423E4F"/>
<path d="M9.29688 8.42697L26.4649 0.535156L21.4665 14.0657L9.29688 8.42697Z" fill="#333241"/>
<path d="M35.912 21.0594L21.4688 14.0664L42.8398 15.6663L35.912 21.0594Z" fill="#343342"/>
<path d="M23.9442 34.4401L21.4688 14.0664L35.912 21.0594L23.9442 34.4401Z" fill="#302F3B"/>
<path d="M9.29627 8.42773L2.71875 21.0594L21.4659 14.0665L9.29627 8.42773Z" fill="#21202C"/>
<path d="M23.9414 34.4401L2.71875 21.0594L21.4659 14.0664L23.9414 34.4401Z" fill="#272530"/>
<path d="M0.492188 37.6871L2.71833 21.0586L23.9409 34.4393L0.492188 37.6871Z" fill="#1D1B2D"/>
<path d="M10.0913 54.7132L0.492188 37.6892L23.9409 34.4414L10.0913 54.7132Z" fill="#0A0B0D"/>
<path d="M58.375 68.5304L60.5477 63.8984L65.9083 67.1702L58.375 68.5304Z" fill="#4D4B61"/>
<path d="M61.735 73.6555L58.375 68.5321L65.9083 67.1719L61.735 73.6555Z" fill="#464355"/>
<path d="M64.1445 77.6823L65.9077 67.1719L61.7344 73.6555L64.1445 77.6823Z" fill="#373547"/>
<path d="M70.5348 69.9942C70.5348 69.9942 70.3923 75.8187 69.8699 76.9513C69.8699 76.9513 69.2881 74.6502 68.362 72.1155C67.715 70.3358 66.9254 68.4362 65.8984 67.1719L70.5348 69.9942Z" fill="#23222B"/>
<path d="M64.1406 77.6823L69.8693 76.9513C69.8693 76.9513 67.8627 68.8737 65.9037 67.1719L64.1406 77.6823Z" fill="#27252F"/>
<path d="M63.3438 81.5273L64.1333 77.6803L69.8619 76.9492C69.8619 76.9492 68.6331 82.0127 67.9682 83.4329L63.3438 81.5273Z" fill="#18171D"/>
<path d="M54.2344 72.5401L54.4837 69.1724L58.3661 68.5312L61.732 73.6546C61.732 73.6546 58.8885 71.3656 57.5053 71.3177C56.1103 71.2697 54.2344 72.5401 54.2344 72.5401Z" fill="#454156"/>
<path d="M51.9371 65.6953L49.8594 76.4814L54.2404 72.5385L54.4838 69.1708L51.9371 65.6953Z" fill="#302B3C"/>
<path d="M41.9453 88.6171L46.92 81.8758L42.2421 80.0781L41.9453 88.6171Z" fill="#313241"/>
<path d="M33.2422 89.468L41.9449 88.6171L42.2418 80.0781L33.2422 89.468Z" fill="#1E1F29"/>
<path d="M28.5469 97.1562L36.7569 94.5855L41.9513 88.6172L33.2485 89.4681L28.5469 97.1562Z" fill="#121015"/>
<path d="M46.92 81.875L47.757 87.268L41.9453 88.6163L46.92 81.875Z" fill="#3D3C4F"/>
<path d="M45.7565 93.064L41.9453 88.6178L47.757 87.2695L45.7565 93.064Z" fill="#30313D"/>
<path d="M43.6006 98.031L36.75 94.5855L41.9443 88.6172L43.6006 98.031Z" fill="#181720"/>
<path d="M32.9688 106.312L51.9296 106.744L42.2355 112.658L32.9688 106.312Z" fill="#030505"/>
<path d="M36.7569 94.5859L32.9814 106.313L28.5469 97.1566L36.7569 94.5859Z" fill="#070809"/>
<path d="M43.5949 98.0315L32.9688 106.313L36.7443 94.5859L43.5949 98.0315Z" fill="#0C0C10"/>
<path d="M51.9296 106.744L43.5949 98.0312L32.9688 106.313L51.9296 106.744Z" fill="#110F16"/>
<path d="M52.4587 95.2852L51.9363 106.742L43.6016 98.0296L52.4587 95.2852Z" fill="#15121E"/>
<path d="M45.7565 93.0634L43.6016 98.031L41.9453 88.6172L45.7565 93.0634Z" fill="#1F1E2C"/>
<path d="M52.4587 95.2856L45.7565 93.0625L43.6016 98.0301L52.4587 95.2856Z" fill="#1B1926"/>
<path d="M47.7584 87.2695L52.7806 90.1638L45.7578 93.064L47.7584 87.2695Z" fill="#23242E"/>
<path d="M52.46 95.2875L52.7806 90.1641L45.7578 93.0643L52.46 95.2875Z" fill="#221C2F"/>
<path d="M58.8949 101.559L52.454 95.2852L51.9375 106.742C51.9375 106.742 54.8463 105.238 58.8949 101.559Z" fill="#13121A"/>
<path d="M62.9149 95.9284L52.4609 95.2812L58.9019 101.555C58.896 101.561 60.3623 100.746 62.9149 95.9284Z" fill="#0E0D17"/>
<path d="M62.4453 84.1587L67.978 83.4336L65.6925 90.6662L62.4453 84.1587Z" fill="#403C53"/>
<path d="M63.3476 81.5273L62.4453 84.158L67.978 83.4329L63.3476 81.5273Z" fill="#2F2E39"/>
<path d="M59.1406 87.9992L62.4413 84.1582L65.6885 90.6658L59.1406 87.9992Z" fill="#4C495F"/>
<path d="M62.9102 95.9278L59.1406 88L65.6885 90.6606C65.6885 90.6666 64.8811 93.2372 62.9102 95.9278Z" fill="#261F33"/>
<path d="M52.7815 90.1632L59.1453 88L52.4609 95.2866L52.7815 90.1632Z" fill="#191526"/>
<path d="M62.9149 95.9278L52.4609 95.2866L59.1453 88L62.9149 95.9278Z" fill="#11101F"/>
<path d="M53.6953 78.1842L57.2572 77.8066L59.6554 79.7302L57.3343 81.2043L53.6953 78.1842Z" fill="#D6CEE7"/>
<path d="M53.2969 75.8111L53.6946 78.184L57.2565 77.8065L57.9866 76.3324L56.366 75.2598L53.2969 75.8111Z" fill="#0B0B12"/>
<path d="M63.3469 81.5285L64.1364 77.6815L61.7262 73.6547C61.7262 73.6547 59.1795 71.3657 57.4995 71.3177C55.8195 71.2698 54.2345 72.5401 54.2345 72.5401L49.8594 76.4831V78.059L49.9425 79.3953L49.9781 79.8687C49.9781 79.8687 51.9371 75.8838 54.5847 74.1341C57.2324 72.3843 60.8239 75.4524 61.8331 77.3519C62.9729 79.5151 63.3469 81.5285 63.3469 81.5285Z" fill="#050607"/>
<path d="M53.6941 78.1839L51.8123 81.8811L50.7734 79.3104C50.7734 79.3104 52.3644 75.8888 53.2489 75.2656L53.6941 78.1839Z" fill="#1D1A39"/>
<path d="M62.4481 84.1586C62.4481 84.1586 60.8393 77.8068 57.9899 76.3387L56.2268 75.29L53.3001 75.8114L50.7772 79.3048L50.6406 78.6876L51.8932 76.6682L53.2526 74.8646L55.9537 73.1328L59.284 74.3732C59.284 74.3732 62.8399 76.9499 63.3564 81.528L62.4481 84.1586Z" fill="#5D5A71"/>
<path d="M49.8663 76.4805L46.9219 81.8735L47.7648 87.2665L52.787 90.1608L59.1508 87.9976C59.1508 87.9976 56.0224 87.686 53.4282 86.3437C50.7805 84.9715 50.3947 83.4615 50.1394 81.4241C49.8366 79.0392 49.8663 76.4805 49.8663 76.4805Z" fill="#0B0B0E"/>
<path d="M57.9802 76.332L57.25 77.8061L59.6483 79.7296L57.8496 80.8682L62.4325 84.1579C62.4325 84.1579 61.4767 80.4247 60.5031 78.8847C59.1378 76.7215 57.9802 76.332 57.9802 76.332Z" fill="#1B1731"/>
<path d="M40.6562 39.3346L65.69 24.9531V45.9261L40.6562 39.3346Z" fill="#E1E1E0"/>
<path d="M85.5744 25.3546L65.6875 24.9531V45.9261L85.5744 25.3546Z" fill="#E0E0DE"/>
<path d="M42.8349 15.668L40.6562 39.3374L65.69 24.956L42.8349 15.668Z" fill="#E0DFDD"/>
<path d="M23.9434 34.4414L40.6602 39.3371L10.0938 54.7132L23.9434 34.4414Z" fill="#E1E1E0"/>
<path d="M42.833 15.668L35.9053 21.061L23.9375 34.4417L40.6544 39.3374L42.833 15.668Z" fill="#E1E1E0"/>
<path d="M129.307 16.1641L131.581 39.3361L105.461 25.3562L129.307 16.1641Z" fill="#E0DFDD"/>
<path d="M147.606 34.543L161.159 54.7129L131.578 39.3368L147.606 34.543Z" fill="#E1E1E0"/>
<path d="M129.305 16.1641L136.428 21.8567L147.607 34.5423L131.578 39.3361L129.305 16.1641Z" fill="#DFDFDE"/>
<path d="M85.5744 25.3555V47.425L65.6875 45.9269L85.5744 25.3555Z" fill="#DAD9D7"/>
<path d="M106.45 46.3244L85.5781 25.3574V47.4269L106.45 46.3244Z" fill="#DBDBD9"/>
<path d="M10.0938 54.7109L22.0615 80.0762L29.482 60.9069L10.0938 54.7109Z" fill="#D1D0D1"/>
<path d="M42.2462 80.0794L29.483 60.9102L22.0625 80.0794H42.2462Z" fill="#D1CFD0"/>
<path d="M141.969 60.9069L150.968 80.0762L161.161 54.7109L141.969 60.9069Z" fill="#D1D0D1"/>
<path d="M129.328 80.1393L141.967 60.9102L150.966 80.0794L129.328 80.1393Z" fill="#D1CFD0"/>
<path d="M150.969 80.0767L161.162 103.345L168.879 79.082L150.969 80.0767Z" fill="#C8C6CC"/>
<path d="M143.031 97.216L150.968 80.0781L161.161 103.346L143.031 97.216Z" fill="#CAC8C8"/>
<path d="M51.9375 65.6961L58.3725 68.5304L60.5453 63.8984L51.9375 65.6961Z" fill="#403B4E"/>
<path d="M54.4842 69.1708L51.9375 65.6953L58.3725 68.5296L54.4842 69.1708Z" fill="#393445"/>
<path d="M51.9374 65.6953L49.8597 76.4814L48.0312 71.4958L51.9374 65.6953Z" fill="#27242A"/>
<path d="M42.25 80.0784L45.7643 74.8711L46.9279 81.8761L42.25 80.0784Z" fill="#1A1421"/>
<path d="M49.8599 76.483L45.7578 74.8711L46.9213 81.8761L49.8599 76.483Z" fill="#0E0D12"/>
<path d="M48.0315 71.4961L45.7578 74.8697L49.8599 76.4817L48.0315 71.4961Z" fill="#21202C"/>
<path d="M54.4844 69.1724L57.506 71.3177L58.3727 68.5312L54.4844 69.1724Z" fill="#443E52"/>
<path d="M61.7326 73.6546L58.3667 68.5312L57.5 71.3177C57.5059 71.3177 59.0791 71.096 61.7326 73.6546Z" fill="#383143"/>
<path d="M41.9471 88.6171L37.8984 84.6083L42.2439 80.0781L41.9471 88.6171Z" fill="#252632"/>
<path d="M55.9453 73.1328L56.2243 75.284L57.9934 76.3327L59.2816 74.3732L55.9453 73.1328Z" fill="#6F6783"/>
<path d="M53.2977 75.8119V74.8711L52.146 76.4231L50.8281 79.2035L53.2977 75.8119Z" fill="#6F6783"/>
<path d="M53.6943 78.1836L51.8125 81.8748L52.4952 84.6133L54.5967 86.0035L57.4877 86.7945H59.423L62.4446 84.1579L57.8617 80.8681L57.3333 81.2037L53.6943 78.1836Z" fill="#0D0C16"/>
<path d="M60.9531 79.7173L62.4491 78.375C62.4491 78.375 63.2327 79.915 63.3514 81.5269L62.4432 84.1575C62.4432 84.1575 61.3034 80.1787 60.9531 79.7173Z" fill="#4A4460"/>
<path d="M50.6433 78.6875C50.6433 78.6875 50.3584 79.1549 50.2753 79.2987C50.1922 79.4425 49.9844 79.874 49.9844 79.874C49.9844 79.874 50.1209 81.9653 50.2931 82.4267L51.8187 81.8754L50.8273 79.2028L50.6433 78.6875Z" fill="#241F43"/>
<path d="M50.2891 82.4263L51.8147 81.875L52.5983 84.4037L52.064 85.4763C52.064 85.4823 50.6868 84.7693 50.2891 82.4263Z" fill="#777095"/>
<path d="M55.0544 87.0449C55.0544 87.0449 53.0301 86.4277 52.0625 85.4749L52.5968 84.4023L54.6448 85.7926L57.1263 86.2959L55.0544 87.0449Z" fill="#A1A0B9"/>
<path d="M59.1449 87.9994C59.1449 87.9994 57.0018 87.8736 55.0547 87.0466L57.1265 86.2976C57.1265 86.2976 59.5723 86.3575 59.8513 86.2137C60.1303 86.0699 62.4396 84.1523 62.4396 84.1523L59.1449 87.9994Z" fill="#B7B2D9"/>
<path d="M77.7188 156.707L85.6201 156.725V169.093L77.7188 156.707Z" fill="#99999B"/>
<path d="M94.7523 153.657L93.5234 156.707L104.423 152.758L94.7523 153.657Z" fill="#1D2724"/>
<path d="M91.2883 136.904L90.4454 128.371L85.625 134.909L91.2883 136.904Z" fill="#736E84"/>
<path d="M97.5215 133.033L90.4453 128.371L91.2883 136.904L97.5215 133.033Z" fill="#615C71"/>
<path d="M96.6548 128.617L90.4453 128.371L97.5215 133.033L96.6548 128.617Z" fill="#504B59"/>
<path d="M103.287 130.011L97.523 133.032L96.6562 128.615L103.287 130.011Z" fill="#3C3943"/>
<path d="M105.75 129.012L102.609 135.082L103.28 130.012L105.75 129.012Z" fill="#030505"/>
<path d="M97.5234 133.032L102.617 135.081L103.288 130.012L97.5234 133.032Z" fill="#201C27"/>
<path d="M96.0781 139.347L97.5147 133.031L102.608 135.081L96.0781 139.347Z" fill="#110E16"/>
<path d="M105.755 129.012L102.615 135.082L96.085 139.348L92.8438 143.843L97.6463 140.002L103.161 136.778L105.755 129.012Z" fill="#5C5B62"/>
<path d="M106.743 133.506L105.751 129.012L103.157 136.778L97.6424 140.002L91.9375 144.424L98.4794 140.948L104.024 137.85L106.743 133.506Z" fill="#2A292E"/>
<path d="M96.0857 139.347L91.2891 136.902L97.5223 133.031L96.0857 139.347Z" fill="#0C0E10"/>
<path d="M88.8129 141.414L91.9413 144.422L85.625 148.263L88.8129 141.414Z" fill="#030405"/>
<path d="M91.9413 144.422L88.4923 150.48L85.625 148.263L91.9413 144.422Z" fill="#4C4D52"/>
<path d="M94.7492 153.657L88.4922 150.481L101.036 147.215L94.7492 153.657Z" fill="#5A5F64"/>
<path d="M91.9412 144.422L101.036 147.214L88.4922 150.48L91.9412 144.422Z" fill="#696D73"/>
<path d="M85.625 153.291L88.4923 150.48L94.7493 153.656L85.625 153.291Z" fill="#3B3B41"/>
<path d="M93.5204 156.707L85.625 153.291V156.725L93.5204 156.707Z" fill="#181915"/>
<path d="M104.42 152.758L94.7493 153.657L85.625 153.291L93.5204 156.707L104.42 152.758Z" fill="#27292A"/>
<path d="M101.037 147.215L104.42 152.758L94.75 153.657L101.037 147.215Z" fill="#73767D"/>
<path d="M99.3461 140.461L101.032 147.214L91.9375 144.422L92.8398 143.841L99.3461 140.461Z" fill="#7D8187"/>
<path d="M106.75 133.504L108.086 143.595L104.031 137.848L106.75 133.504Z" fill="#ACADB7"/>
<path d="M99.3438 140.46L104.022 137.848L108.076 143.594L99.3438 140.46Z" fill="#AEB6C0"/>
<path d="M101.03 147.214L108.076 143.595L99.3438 140.461L101.03 147.214Z" fill="#9EA2AC"/>
<path d="M106.75 133.504L108.086 143.595L118.718 146.088L106.75 133.504Z" fill="#A0A3A9"/>
<path d="M113.077 149.109L118.71 146.088L108.078 143.596L113.077 149.109Z" fill="#7C868A"/>
<path d="M101.031 147.217L108.078 143.598L113.076 149.111L101.031 147.217Z" fill="#A7A9B5"/>
<path d="M104.415 152.758L113.076 149.108L101.031 147.215L104.415 152.758Z" fill="#94969E"/>
<path d="M93.5156 156.708L104.664 155.959L111.259 152.579L118.71 146.09L113.076 149.11L104.415 152.759L93.5156 156.708Z" fill="#080A0B"/>
<path d="M96.0811 139.348L97.6424 140.001L91.9375 144.423L96.0811 139.348Z" fill="#2A242D"/>
<path d="M85.6547 142.259L85.625 134.907L90.4454 128.369C90.4454 128.369 88.0411 128.094 85.625 128.094V134.979" fill="#696379"/>
<path d="M85.625 148.264V153.291L88.4923 150.481L85.625 148.264Z" fill="#333235"/>
<path d="M118.716 146.09L115.766 147.672V148.667L118.716 146.09Z" fill="#535B5C"/>
<path d="M113.082 149.11L111.461 152.412L115.765 148.667V147.672L113.082 149.11Z" fill="#212D2D"/>
<path d="M104.672 155.959L113.084 149.109L111.463 152.411L104.672 155.959Z" fill="#0F1917"/>
<path d="M96.1143 139.328L91.941 144.422L88.8125 141.413L96.1143 139.328Z" fill="#171618"/>
<path d="M85.625 148.263V142.265L88.8129 141.414L87.3525 144.578L85.625 148.263Z" fill="#0B0C0F"/>
<path d="M94.7493 153.657L93.5204 156.707L85.625 153.291L94.7493 153.657Z" fill="#26262D"/>
<path d="M88.8125 141.415L91.288 136.902L96.0846 139.347L88.8125 141.415Z" fill="#030405"/>
<path d="M85.625 134.906L88.8129 141.414L91.2883 136.902L85.625 134.906Z" fill="#0C0E10"/>
<path d="M85.625 134.906V142.265L88.8129 141.414L85.625 134.906Z" fill="#030405"/>
<path d="M79.9609 136.902L80.798 128.369L85.6242 134.907L79.9609 136.902Z" fill="#736E84"/>
<path d="M73.7344 133.031L80.8046 128.369L79.9676 136.902L73.7344 133.031Z" fill="#615C71"/>
<path d="M74.6011 128.615L80.8046 128.369L73.7344 133.031L74.6011 128.615Z" fill="#504B59"/>
<path d="M67.9688 130.011L73.733 133.032L74.5997 128.615L67.9688 130.011Z" fill="#3C3943"/>
<path d="M65.4844 129.012L68.6307 135.082L67.9598 130.012L65.4844 129.012Z" fill="#030505"/>
<path d="M73.733 133.032L68.6396 135.081L67.9688 130.012L73.733 133.032Z" fill="#201C27"/>
<path d="M75.1707 139.347L73.7341 133.031L68.6406 135.081L75.1707 139.347Z" fill="#110E16"/>
<path d="M65.4844 129.012L68.6307 135.082L75.1607 139.348L78.396 143.843L73.5994 140.002L68.0845 136.778L65.4844 129.012Z" fill="#5C5B62"/>
<path d="M64.5 133.506L65.4854 129.012L68.0856 136.778L73.6005 140.002L79.3054 144.424L72.7575 140.948L67.2189 137.85L64.5 133.506Z" fill="#2A292E"/>
<path d="M75.171 139.347L79.9676 136.902L73.7344 133.031L75.171 139.347Z" fill="#0C0E10"/>
<path d="M82.441 141.414L79.3125 144.422L85.6288 148.263L82.441 141.414Z" fill="#030405"/>
<path d="M79.3125 144.422L82.7615 150.48L85.6288 148.263L79.3125 144.422Z" fill="#4C4D52"/>
<path d="M76.4995 153.657L82.7624 150.481L70.2188 147.215L76.4995 153.657Z" fill="#5A5F64"/>
<path d="M79.3133 144.422L70.2188 147.214L82.7624 150.48L79.3133 144.422Z" fill="#696D73"/>
<path d="M85.6302 153.291L82.7629 150.48L76.5 153.656L85.6302 153.291Z" fill="#3B3B41"/>
<path d="M77.7266 156.709L85.6279 153.293V156.727L77.7266 156.709Z" fill="#181915"/>
<path d="M66.8281 152.758L76.4985 153.657L85.6287 153.291L77.7273 156.707L66.8281 152.758Z" fill="#27292A"/>
<path d="M70.2178 147.215L66.8281 152.758L76.4985 153.657L70.2178 147.215Z" fill="#73767D"/>
<path d="M71.9047 140.461L70.2188 147.214L79.3133 144.422L78.405 143.841L71.9047 140.461Z" fill="#7D8187"/>
<path d="M64.5076 133.504L63.1719 143.595L67.2264 137.848L64.5076 133.504Z" fill="#ACADB7"/>
<path d="M71.9043 140.46L67.2264 137.848L63.1719 143.594L71.9043 140.46Z" fill="#AEB6C0"/>
<path d="M70.2184 147.214L63.1719 143.595L71.9043 140.461L70.2184 147.214Z" fill="#9EA2AC"/>
<path d="M64.505 133.504L63.1693 143.595L52.5312 146.088L64.505 133.504Z" fill="#A0A3A9"/>
<path d="M58.1708 149.109L52.5312 146.088L63.1693 143.596L58.1708 149.109Z" fill="#7C868A"/>
<path d="M70.2168 147.217L63.1703 143.598L58.1719 149.111L70.2168 147.217Z" fill="#A7A9B5"/>
<path d="M66.8271 152.758L58.1719 149.108L70.2168 147.215L66.8271 152.758Z" fill="#94969E"/>
<path d="M77.7253 156.708L66.5827 155.959L59.9873 152.579L52.5312 146.09L58.1708 149.11L66.8261 152.759L77.7253 156.708Z" fill="#080A0B"/>
<path d="M75.1706 139.348L73.6094 140.001L79.3143 144.423L75.1706 139.348Z" fill="#2A242D"/>
<path d="M85.5954 142.259L85.625 134.907L80.8047 128.369C80.8047 128.369 83.2089 128.094 85.625 128.094V134.979" fill="#696379"/>
<path d="M85.6251 148.264V153.291L82.7578 150.481L85.6251 148.264Z" fill="#333235"/>
<path d="M52.5312 146.09L55.4876 147.672V148.667L52.5312 146.09Z" fill="#535B5C"/>
<path d="M58.1676 149.11L59.7823 152.412L55.4844 148.667V147.672L58.1676 149.11Z" fill="#212D2D"/>
<path d="M66.5838 155.959L58.1719 149.109L59.7866 152.411L66.5838 155.959Z" fill="#0F1917"/>
<path d="M75.1406 139.328L79.3139 144.422L82.4424 141.413L75.1406 139.328Z" fill="#171618"/>
<path d="M85.6253 148.263V142.265L82.4375 141.414L83.8682 144.512L85.6253 148.263Z" fill="#0B0C0F"/>
<path d="M76.5 153.659L77.7288 156.709L85.6302 153.293L76.5 153.659Z" fill="#26262D"/>
<path d="M82.444 141.415L79.9685 136.902L75.1719 139.347L82.444 141.415Z" fill="#030405"/>
<path d="M85.6242 134.906L82.4364 141.414L79.9609 136.902L85.6242 134.906Z" fill="#0C0E10"/>
<path d="M85.6253 134.906V142.265L82.4375 141.414L85.6253 134.906Z" fill="#030405"/>
<path d="M57.2344 77.8086L57.3056 81.2062L59.6327 79.7321L57.2344 77.8086Z" fill="#9A93B0"/>
<path d="M55.0312 78.0423V79.3127L57.3049 81.2062L57.2336 77.8086L55.0312 78.0423Z" fill="#B8B3CD"/>
<path d="M113.211 68.5557L111.032 63.9297L105.672 67.1955L113.211 68.5557Z" fill="#4D4B61"/>
<path d="M109.845 73.6789L113.211 68.5555L105.672 67.1953L109.845 73.6789Z" fill="#464355"/>
<path d="M107.435 77.7117L105.672 67.1953L109.845 73.6789L107.435 77.7117Z" fill="#373547"/>
<path d="M101.039 70.0177C101.039 70.0177 101.182 75.8422 101.704 76.9747C101.704 76.9747 102.286 74.6737 103.212 72.1389C103.859 70.3592 104.648 68.4597 105.675 67.1953L101.039 70.0177Z" fill="#23222B"/>
<path d="M107.432 77.7116L101.703 76.9806C101.703 76.9806 103.71 68.903 105.669 67.2012L107.432 77.7116Z" fill="#27252F"/>
<path d="M108.229 81.5527L107.44 77.7057L101.711 76.9746C101.711 76.9746 102.94 82.0381 103.605 83.4582L108.229 81.5527Z" fill="#18171D"/>
<path d="M117.334 72.5635L117.084 69.1959L113.202 68.5547L109.836 73.6781C109.836 73.6781 112.679 71.389 114.063 71.3411C115.458 71.2931 117.334 72.5635 117.334 72.5635Z" fill="#454156"/>
<path d="M119.64 65.7266L121.718 76.5126L117.337 72.5637L117.094 69.1961L119.64 65.7266Z" fill="#302B3C"/>
<path d="M129.625 88.6425L124.656 81.9012L129.328 80.1035L129.625 88.6425Z" fill="#313241"/>
<path d="M138.334 89.4934L129.625 88.6425L129.328 80.1035L138.334 89.4934Z" fill="#1E1F29"/>
<path d="M143.029 97.1796L134.819 94.6089L129.625 88.6406L138.334 89.4915L143.029 97.1796Z" fill="#121015"/>
<path d="M124.663 81.9004L123.82 87.2934L129.632 88.6417L124.663 81.9004Z" fill="#3D3C4F"/>
<path d="M125.821 93.0875L129.632 88.6412L123.82 87.293L125.821 93.0875Z" fill="#30313D"/>
<path d="M127.977 98.0545L134.827 94.6089L129.633 88.6406L127.977 98.0545Z" fill="#181720"/>
<path d="M138.601 106.336L119.641 106.767L129.335 112.688L138.601 106.336Z" fill="#030505"/>
<path d="M134.828 94.6094L138.604 106.336L143.038 97.1801L134.828 94.6094Z" fill="#070809"/>
<path d="M127.977 98.0549L138.603 106.336L134.827 94.6094L127.977 98.0549Z" fill="#0C0C10"/>
<path d="M119.641 106.767L127.975 98.0547L138.601 106.336L119.641 106.767Z" fill="#110F16"/>
<path d="M119.109 95.3105L119.632 106.768L127.966 98.055L119.109 95.3105Z" fill="#15121E"/>
<path d="M125.812 93.0869L127.967 98.0545L129.624 88.6406L125.812 93.0869Z" fill="#1F1E2C"/>
<path d="M119.109 95.311L125.812 93.0879L127.966 98.0555L119.109 95.311Z" fill="#1B1926"/>
<path d="M123.819 87.293L118.797 90.1932L125.82 93.0875L123.819 87.293Z" fill="#23242E"/>
<path d="M119.117 95.3107L118.797 90.1934L125.82 93.0876L119.117 95.3107Z" fill="#221C2F"/>
<path d="M112.68 101.584L119.121 95.3105L119.637 106.768C119.637 106.768 116.728 105.264 112.68 101.584Z" fill="#13121A"/>
<path d="M108.664 95.9577L119.118 95.3105L112.677 101.584C112.683 101.584 111.217 100.77 108.664 95.9577Z" fill="#0E0D17"/>
<path d="M109.126 84.1821L103.594 83.457L105.879 90.6897L109.126 84.1821Z" fill="#403C53"/>
<path d="M108.224 81.5527L109.126 84.1833L103.594 83.4583L108.224 81.5527Z" fill="#2F2E39"/>
<path d="M112.431 88.0306L109.13 84.1836L105.883 90.6912L112.431 88.0306Z" fill="#4C495F"/>
<path d="M108.661 95.959L112.431 88.0312L105.883 90.6918C105.883 90.6918 106.69 93.2625 108.661 95.959Z" fill="#261F33"/>
<path d="M118.794 90.1945L112.43 88.0312L119.114 95.3118L118.794 90.1945Z" fill="#191526"/>
<path d="M108.664 95.959L119.118 95.3118L112.434 88.0312L108.664 95.959Z" fill="#11101F"/>
<path d="M117.882 78.2095L114.32 77.832L111.922 79.7555L114.243 81.2296L117.882 78.2095Z" fill="#D6CEE7"/>
<path d="M118.284 75.8364L117.886 78.2094L114.324 77.8319L113.594 76.3638L115.214 75.2852L118.284 75.8364Z" fill="#0B0B12"/>
<path d="M108.227 81.552L107.438 77.705L109.848 73.6782C109.848 73.6782 112.394 71.3891 114.074 71.3412C115.754 71.2932 117.339 72.5636 117.339 72.5636L121.715 76.5065V78.0825L121.631 79.4187L121.596 79.8921C121.596 79.8921 119.637 75.9073 116.989 74.1575C114.342 72.4078 110.75 75.4758 109.741 77.3754C108.601 79.5386 108.227 81.552 108.227 81.552Z" fill="#050607"/>
<path d="M117.875 78.2093L119.757 81.9065L120.796 79.3358C120.796 79.3358 119.205 75.9142 118.32 75.291L117.875 78.2093Z" fill="#1D1A39"/>
<path d="M109.127 84.184C109.127 84.184 110.736 77.8322 113.585 76.3641L115.348 75.3154L118.275 75.8367L120.798 79.3302L120.934 78.713L119.682 76.6937L118.322 74.89L115.621 73.1582L112.291 74.3986C112.291 74.3986 108.735 76.9753 108.219 81.5534L109.127 84.184Z" fill="#5D5A71"/>
<path d="M121.714 76.5137L124.659 81.9067L123.816 87.2997L118.794 90.194L112.43 88.0308C112.43 88.0308 115.558 87.7192 118.152 86.3769C120.8 85.0047 121.186 83.4947 121.441 81.4573C121.744 79.0664 121.714 76.5137 121.714 76.5137Z" fill="#0B0B0E"/>
<path d="M113.593 76.3633L114.323 77.8374L111.925 79.7609L113.724 80.8994L109.141 84.1892C109.141 84.1892 110.096 80.456 111.07 78.916C112.435 76.7468 113.593 76.3633 113.593 76.3633Z" fill="#1B1731"/>
<path d="M119.639 65.7274L113.21 68.5557L111.031 63.9297L119.639 65.7274Z" fill="#403B4E"/>
<path d="M117.086 69.1961L119.632 65.7266L113.203 68.5549L117.086 69.1961Z" fill="#393445"/>
<path d="M119.641 65.7266L121.718 76.5126L123.547 71.5211L119.641 65.7266Z" fill="#27242A"/>
<path d="M129.328 80.1018L125.814 74.8945L124.656 81.8995L129.328 80.1018Z" fill="#1A1421"/>
<path d="M121.719 76.5124L125.821 74.8945L124.663 81.8995L121.719 76.5124Z" fill="#0E0D12"/>
<path d="M123.547 71.5215L125.821 74.8951L121.719 76.513L123.547 71.5215Z" fill="#21202C"/>
<path d="M109.844 73.6781L113.21 68.5547L114.076 71.3411C114.07 71.3411 112.497 71.1254 109.844 73.6781Z" fill="#383143"/>
<path d="M129.625 88.6425L133.674 84.6337L129.328 80.1035L129.625 88.6425Z" fill="#252632"/>
<path d="M115.633 73.1582L115.354 75.3154L113.585 76.3641L112.297 74.3986L115.633 73.1582Z" fill="#6F6783"/>
<path d="M118.281 75.8353V74.8945L119.433 76.4465L120.751 79.2269L118.281 75.8353Z" fill="#6F6783"/>
<path d="M117.883 78.209L119.765 81.9002L119.082 84.6447L116.981 86.0289L114.09 86.8258H112.154L109.133 84.1833L113.716 80.8935L114.244 81.2291L117.883 78.209Z" fill="#0D0C16"/>
<path d="M110.625 79.7427L109.129 78.4004C109.129 78.4004 108.345 79.9404 108.227 81.5523L109.135 84.1829C109.129 84.1829 110.269 80.2041 110.625 79.7427Z" fill="#4A4460"/>
<path d="M120.941 78.7129C120.941 78.7129 121.226 79.1803 121.309 79.3241C121.392 79.4679 121.6 79.8993 121.6 79.8993C121.6 79.8993 121.463 81.9907 121.291 82.4521L119.766 81.9008L120.757 79.2282L120.941 78.7129Z" fill="#241F43"/>
<path d="M121.294 82.4517L119.768 81.9004L118.984 84.4291L119.519 85.5017C119.519 85.5077 120.896 84.7946 121.294 82.4517Z" fill="#777095"/>
<path d="M116.525 87.0762C116.525 87.0762 118.549 86.459 119.517 85.5062L118.983 84.4336L116.935 85.8238L114.453 86.3272L116.525 87.0762Z" fill="#A1A0B9"/>
<path d="M112.435 88.0306C112.435 88.0306 114.578 87.9048 116.525 87.0778L114.454 86.3288C114.454 86.3288 112.008 86.3887 111.729 86.2449C111.45 86.1011 109.141 84.1836 109.141 84.1836L112.435 88.0306Z" fill="#B7B2D9"/>
<path d="M114.351 77.832L114.28 81.2296L111.953 79.7555L114.351 77.832Z" fill="#9A93B0"/>
<path d="M116.555 78.0657V79.3361L114.281 81.2296L114.353 77.832L116.555 78.0657Z" fill="#B8B3CD"/>
</g>
<defs>
<clipPath id="clip0_2540_63941">
<rect width="172" height="169" fill="white"/>
</clipPath>
</defs>
</svg>
