<svg width="80" height="123" viewBox="0 0 80 123" fill="none" xmlns="http://www.w3.org/2000/svg">
<g clip-path="url(#clip0_2378_56758)">
<path d="M38.9534 0.859973C39.7527 0.835087 40.5463 1.00085 41.2673 1.34327C41.9882 1.68569 42.6153 2.19471 43.0956 2.82736C43.1479 2.89739 43.2888 2.86329 43.2537 2.76647C42.6907 1.16869 40.4636 0.657815 38.954 0.760721C38.9403 0.760721 38.9272 0.76611 38.9175 0.775702C38.9078 0.785294 38.9023 0.798304 38.9023 0.811869C38.9023 0.825435 38.9078 0.838444 38.9175 0.848037C38.9272 0.857629 38.9403 0.863018 38.954 0.863018L38.9534 0.859973Z" fill="url(#paint0_linear_2378_56758)"/>
<path d="M37.0978 2.29276C38.1882 2.25877 39.2708 2.4849 40.2543 2.95207C41.2377 3.41923 42.0931 4.1137 42.7483 4.97684C42.8197 5.07244 43.0117 5.02616 42.9637 4.89037C42.195 2.71108 39.1569 2.01388 37.0978 2.15393C37.0791 2.15393 37.0612 2.16127 37.048 2.17435C37.0348 2.18742 37.0273 2.20516 37.0273 2.22365C37.0273 2.24214 37.0348 2.25987 37.048 2.27295C37.0612 2.28602 37.0791 2.29337 37.0978 2.29337V2.29276Z" fill="url(#paint1_linear_2378_56758)"/>
<path d="M62.6448 72.2871C62.6416 72.2871 62.6386 72.2884 62.6363 72.2906C62.6341 72.2929 62.6328 72.296 62.6328 72.2992C62.6328 72.3024 62.6341 72.3055 62.6363 72.3077C62.6386 72.31 62.6416 72.3113 62.6448 72.3113C62.648 72.3113 62.651 72.31 62.6533 72.3077C62.6555 72.3055 62.6568 72.3024 62.6568 72.2992C62.6568 72.296 62.6555 72.2929 62.6533 72.2906C62.651 72.2884 62.648 72.2871 62.6448 72.2871Z" fill="url(#paint2_linear_2378_56758)"/>
<path d="M60.5003 88.4929C60.5035 88.4929 60.5065 88.4916 60.5088 88.4894C60.511 88.4871 60.5123 88.484 60.5123 88.4808C60.5123 88.4776 60.511 88.4745 60.5088 88.4723C60.5065 88.47 60.5035 88.4688 60.5003 88.4688C60.4971 88.4688 60.494 88.47 60.4918 88.4723C60.4895 88.4745 60.4883 88.4776 60.4883 88.4808C60.4883 88.484 60.4895 88.4871 60.4918 88.4894C60.494 88.4916 60.4971 88.4929 60.5003 88.4929Z" fill="url(#paint3_linear_2378_56758)"/>
<path d="M69.9771 98.0495C71.1879 98.8742 72.3426 99.7767 73.4337 100.751C73.4793 100.789 73.5457 100.724 73.4996 100.686C72.3981 99.7127 71.2331 98.812 70.0122 97.9899C69.9741 97.9661 69.9396 98.0258 69.9771 98.0495Z" fill="url(#paint4_linear_2378_56758)"/>
<path d="M68.7208 98.2103C68.7073 98.2036 68.6956 98.2237 68.7091 98.2304C70.1604 98.9692 71.517 99.8775 72.7498 100.936C72.7725 100.955 72.8051 100.922 72.7824 100.904C71.5422 99.8484 70.1786 98.9442 68.7208 98.2103Z" fill="url(#paint5_linear_2378_56758)"/>
<path d="M67.5471 98.1268C67.5262 98.1116 67.4985 98.1463 67.5188 98.1627C68.8659 99.2239 70.2951 100.179 71.7933 101.019C71.8714 101.062 71.9631 100.954 71.8917 100.892C70.6056 99.7757 68.9342 99.1181 67.5471 98.1268Z" fill="url(#paint6_linear_2378_56758)"/>
<path d="M66.9944 98.9148C66.9862 98.9102 66.9765 98.9089 66.9675 98.9114C66.9584 98.9139 66.9507 98.9198 66.9461 98.9278C66.9414 98.9359 66.9402 98.9455 66.9427 98.9545C66.9451 98.9634 66.9511 98.971 66.9593 98.9756C68.1359 99.6814 69.2362 100.632 70.4965 101.185C70.5128 101.195 70.5322 101.197 70.5503 101.192C70.5684 101.187 70.5838 101.175 70.5931 101.159C70.6024 101.143 70.6049 101.124 70.5999 101.106C70.5949 101.088 70.583 101.073 70.5667 101.064C69.4208 100.304 68.1962 99.5888 66.9944 98.9148Z" fill="url(#paint7_linear_2378_56758)"/>
<path d="M66.4636 99.127C66.4384 99.1105 66.4156 99.1501 66.4403 99.1665C67.4982 99.7971 68.5155 100.492 69.4864 101.247C69.5203 101.276 69.5701 101.228 69.5356 101.198C68.5559 100.446 67.53 99.7539 66.4636 99.127Z" fill="url(#paint8_linear_2378_56758)"/>
<path d="M62.6083 99.8238C62.5825 99.8086 62.5603 99.847 62.5849 99.8634C63.0828 100.207 63.5726 100.562 64.0729 100.903C64.4909 101.24 64.9612 101.507 65.4655 101.695C65.5486 101.718 65.6323 101.6 65.556 101.541C65.1099 101.247 64.6447 100.983 64.1634 100.749C63.6415 100.447 63.1289 100.129 62.6083 99.8238Z" fill="url(#paint9_linear_2378_56758)"/>
<path d="M76.2554 61.1133L76.1133 66.9759C76.8499 66.4583 76.9281 61.6363 76.2554 61.1133Z" fill="url(#paint10_linear_2378_56758)"/>
<path d="M74.968 85.8768C76.0329 84.9323 76.8675 83.7613 77.4092 82.4517C77.9508 81.1422 78.1854 79.7282 78.0954 78.316C78.0844 76.8683 77.7139 75.4455 77.0163 74.1729C76.3188 72.9003 75.3157 71.8169 74.0954 71.0182C74.2443 70.9786 74.3194 70.9536 74.3963 70.9384C76.0129 70.6215 77.4431 69.6984 78.3877 68.3621C79.1557 67.3166 79.6218 66.0839 79.736 64.7963C79.9591 62.6925 79.3595 60.5839 78.0603 58.9039C76.5452 56.8781 74.4517 55.5707 72.2332 54.4339C71.9756 54.3583 71.7115 54.3061 71.4443 54.278L71.3969 54.267C71.1107 54.1623 70.815 54.085 70.5138 54.0363C68.9692 53.9145 67.424 53.7647 65.8763 53.7318C63.5589 53.7568 61.2606 54.1494 59.0689 54.8948C57.9019 55.2979 56.7139 55.6392 55.5102 55.9172C53.9717 56.2107 52.4129 56.4043 50.8542 56.5797C49.8182 56.6961 48.7762 56.7526 47.7335 56.749C46.1458 56.7417 44.5594 56.6534 42.9723 56.5864C42.1274 56.5505 41.2775 56.548 40.4406 56.4433C39.903 56.3457 39.408 56.0886 39.0215 55.7061C38.6351 55.3236 38.3754 54.8338 38.2769 54.3018C38.1269 53.3386 38.3044 52.3533 38.7815 51.5008C40.1649 48.8276 41.5698 46.1637 43.0277 43.5301C44.7451 40.6398 46.1046 37.5554 47.0769 34.3435C47.6266 32.4073 47.9654 30.4184 48.0874 28.4109C48.168 26.7668 48.1052 25.1173 48.0535 23.4714C47.9615 21.1153 47.5411 18.783 46.8043 16.5407C46.168 14.549 45.3378 12.6163 44.5692 10.6672C43.9135 8.9653 42.934 7.40365 41.6837 6.06687C41.0421 5.33187 40.2096 4.7845 39.2762 4.48398C38.3428 4.18347 37.3442 4.14126 36.3883 4.36192C35.5927 4.527 34.8681 4.93166 34.3142 5.52038C33.7602 6.10909 33.4039 6.853 33.2942 7.65004C33.0527 9.34805 33.0527 11.0711 33.2942 12.7692C33.4702 14.3377 33.7249 15.8977 33.9231 17.4645C33.9918 18.078 34.0015 18.6966 33.952 19.3119C33.6867 21.3178 33.1196 23.2731 32.2695 25.113C31.1003 27.8318 29.8874 30.5323 28.6751 33.234C27.4092 36.0557 26.1655 38.9091 24.2892 41.3886C22.5877 43.6367 20.6991 45.7496 18.848 47.8838C16.7949 50.1299 15.1547 52.7141 14.0018 55.5196C13.3952 57.1833 12.6952 58.8122 11.9052 60.3988C10.9778 62.1823 9.85538 63.8696 8.81969 65.5952C8.70585 65.7852 8.60677 65.9837 8.49539 66.1883C7.79323 67.0749 5.38338 71.713 5.38338 71.713H5.38892C5.2606 71.905 5.14705 72.1063 5.04923 72.3152C4.48308 73.3582 3.95877 74.4263 3.344 75.4407C2.63902 76.6741 1.85077 77.8591 0.984615 78.9876L1.04615 78.9578C1.63607 78.6686 2.13204 78.2214 2.47754 77.6669C3.84 75.4748 5.14769 73.2431 6.47754 71.0298L7.47262 69.3559L7.49046 69.3406L7.48615 69.3333L10.3502 64.5156C12.0468 61.9662 13.4474 59.2357 14.5255 56.3757C15.4596 53.8925 16.8058 51.581 18.5089 49.5364C19.7588 48.1 21.0935 46.7354 22.3618 45.3142C24.9194 42.3239 27.0258 38.9829 28.6154 35.3951C28.9616 34.6558 29.3104 33.9164 29.6615 33.1768C30.7982 33.7857 31.8074 33.86 32.0991 33.3229C31.3298 33.2115 30.4991 33.3643 29.8646 32.7701C29.9403 32.5606 30.0049 32.3469 30.0935 32.1441C31.1089 29.8235 32.1397 27.5097 33.1415 25.1836C33.9098 23.4754 34.4169 21.6635 34.6462 19.8076C34.7157 19.1658 34.7391 18.5185 34.784 17.8737C34.8901 17.801 34.9814 17.709 35.0529 17.6027C35.3481 16.9208 35.5898 16.2175 35.776 15.4989C36.0871 13.5185 35.9999 11.4968 35.5194 9.54984C35.4355 8.83036 35.0663 8.17329 34.4929 7.72311C33.8695 7.28043 33.8646 7.27678 34.2148 6.5607C34.3232 6.33474 34.4557 6.12083 34.6098 5.92256C35.7391 4.49588 38.7138 4.3059 40.1569 5.28503C40.8277 5.7916 41.4476 6.36092 42.008 6.98511C42.4539 7.39132 42.8419 7.85572 43.1612 8.36551C43.592 9.17911 43.9634 10.0222 44.2726 10.8882C44.9071 12.584 45.5446 14.2811 46.0923 16.0031C46.8586 18.5205 47.3073 21.122 47.4283 23.7484C47.533 25.6955 47.4667 27.6479 47.2302 29.5836C46.9191 31.9345 46.3434 34.2436 45.5138 36.468C45.5042 36.5302 45.4801 36.5893 45.4436 36.6408C45.407 36.6923 45.3589 36.7347 45.303 36.7647C45.2471 36.7947 45.1849 36.8115 45.1214 36.8138C45.0578 36.8161 44.9946 36.8038 44.9366 36.7779C44.1625 36.5855 43.2369 36.5806 42.4548 36.4229C42.5223 36.5283 42.6116 36.6183 42.7168 36.687C42.822 36.7558 42.9408 36.8017 43.0652 36.8217C43.7643 36.9344 44.4646 37.0452 45.1705 37.1573C45.1705 37.592 44.968 37.8356 44.5551 37.793C43.3643 37.6712 42.1754 37.5287 40.9858 37.3874C40.5268 37.3326 40.0702 37.2589 39.6123 37.1938C39.3145 37.1426 39.5366 37.4258 39.7354 37.4374C42.9711 38.2204 42.96 38.271 44.7926 38.1729C44.6554 38.4461 44.5338 38.7266 44.4283 39.0132C44.3102 39.3968 44.0892 39.4395 43.7311 39.3451C42.7003 39.065 41.664 38.8025 40.6258 38.5492C40.5717 38.535 40.514 38.5427 40.4655 38.5705C40.417 38.5984 40.3817 38.6442 40.3674 38.6978C40.353 38.7514 40.3608 38.8085 40.3889 38.8564C40.4171 38.9044 40.4634 38.9393 40.5175 38.9535C41.648 39.2714 42.7329 39.7914 44.0006 39.7914C43.8886 40.035 43.8012 40.27 43.6831 40.4856C42.3953 42.8331 41.1046 45.179 39.8111 47.5234C39.2985 48.4525 38.9028 49.4506 38.0172 50.1417C37.5224 50.5592 37.0732 51.027 36.6769 51.5373C35.7428 52.7588 35.0769 54.0892 35.2738 55.7041C35.2943 56.159 35.4386 56.6 35.6914 56.9804C35.9442 57.3609 36.2962 57.6668 36.7102 57.8657C36.9316 57.9764 37.1759 58.0352 37.424 58.0375C37.6721 58.0398 37.9174 57.9856 38.1409 57.8791C38.0774 57.8336 38.0002 57.8104 37.9218 57.8133C37.6082 57.8152 37.2976 57.7514 37.0107 57.626C36.7237 57.5007 36.4668 57.3166 36.2569 57.086C36.047 56.8553 35.8888 56.5833 35.7928 56.2878C35.6968 55.9923 35.665 55.6801 35.6997 55.3716C35.7415 53.2088 37.0695 51.7181 38.4031 50.2202C38.2 50.8486 37.9397 51.4527 37.7015 52.0652C36.6911 54.6647 37.9342 56.8756 40.7065 57.311C41.6122 57.4012 42.5225 57.4384 43.4326 57.4224C44.8074 57.4736 46.1828 57.5795 47.5557 57.5655C48.8369 57.5527 50.1169 57.4182 51.3975 57.3305C53.3087 57.219 55.1984 56.8731 57.0234 56.3008C58.0443 55.9702 59.0394 55.5585 60.0646 55.2413C62.5668 54.4618 65.1818 54.0958 67.8043 54.158C68.5852 54.1763 69.3649 54.2232 70.1428 54.2573L70.1391 54.398C69.7698 54.4187 69.4006 54.4101 69.0412 54.4643C65.8812 54.9393 62.7028 55.3229 59.5705 55.9415C57.2628 56.3976 55.0123 57.1472 52.7465 57.7993C50.8999 58.28 49.1306 59.0149 47.4905 59.9823C45.2905 61.3511 43.9262 63.475 44.5212 66.3758C44.7905 67.9998 45.6413 69.4736 46.9182 70.528C47.2831 70.8215 47.4511 70.8934 47.944 71.2526C48.1557 71.4469 47.9729 71.414 47.8874 71.403C47.5975 71.3664 47.3031 71.4109 47.0375 71.5315L46.1612 71.9297C44.6586 72.4668 43.308 73.3526 42.2228 74.5127C41.2317 75.57 40.576 76.8917 40.3369 78.3142C40.0978 79.7366 40.2858 81.1973 40.8775 82.515C41.7873 84.4089 43.3713 85.9039 45.3262 86.7135C46.2695 87.1452 47.2837 87.4253 48.2972 87.7852C47.9348 87.9879 47.5471 88.1803 47.1846 88.4117C46.579 88.7519 46.0606 89.2254 45.6696 89.7956C45.2786 90.3657 45.0255 91.0173 44.9298 91.6998C44.7942 93.157 44.905 94.6264 45.2578 96.0475C45.6018 97.7482 46.6137 99.2444 48.0714 100.208C48.6782 100.628 49.3212 100.999 49.9612 101.399L49.6658 101.785C49.3342 102.218 49.107 102.721 49.0018 103.255C48.876 104.158 49.0091 105.078 49.3858 105.911C49.9869 107.465 50.862 108.902 51.9705 110.155C52.4729 110.795 53.1051 111.325 53.8267 111.709C54.5482 112.093 55.343 112.324 56.16 112.386C57.4892 112.467 58.8129 112.63 60.2215 112.765C59.5641 113.367 58.7493 113.775 57.8695 113.942L56.8615 114.05C56.4806 114.088 56.1483 114.141 55.8154 114.152C54.4578 114.195 53.0966 114.3 51.7422 114.245C50.0265 114.175 48.3169 113.967 46.6406 114.528C45.0911 115.047 43.5551 115.612 41.9846 116.057C38.7085 117.004 35.304 117.442 31.8923 117.356C29.6154 117.288 27.3483 116.881 25.0714 116.686C23.9632 116.598 22.8502 116.586 21.7403 116.649C20.9399 116.721 20.1456 116.849 19.3631 117.031C17.4599 117.425 15.505 117.512 13.5735 117.291C11.8062 117.066 10.0738 116.477 8.33539 116.803C7.30462 112.559 6.30092 108.354 4.93231 104.244C5.60726 108.52 6.62336 112.735 7.97108 116.852C4.44615 118.158 0.369231 120.327 0 121.166C0.612308 120.822 1.12985 120.479 1.68923 120.225C3.40554 119.445 5.14277 118.712 6.86215 117.939C8.23413 117.327 9.77729 117.203 11.2314 117.586C12.6356 117.971 14.0823 118.184 15.5391 118.221C17.3551 118.189 19.163 117.973 20.9342 117.574C21.486 117.404 22.0576 117.304 22.6351 117.277C23.9588 117.314 25.2779 117.45 26.5809 117.684C29.5212 118.276 32.5392 118.392 35.5169 118.026C37.4007 117.804 39.2703 117.477 41.1169 117.047C42.7822 116.657 44.3883 116.025 46.04 115.564C47.0909 115.23 48.1737 115.003 49.2714 114.888C50.7994 114.786 52.3422 114.921 53.8788 114.912C56.2338 114.896 58.5329 114.643 60.4566 113.091C60.6647 112.928 60.9175 112.831 61.1823 112.811C61.4471 112.792 61.7117 112.852 61.9415 112.984C63.2362 113.757 64.7364 114.125 66.2462 114.041C67.9988 113.941 69.707 113.457 71.2474 112.623C72.3729 112.096 73.3573 111.314 74.1213 110.341C74.8852 109.368 75.4074 108.231 75.6455 107.021C75.8295 106.245 75.8361 105.437 75.6648 104.658C75.4935 103.878 75.1487 103.146 74.6554 102.515C74.2833 102.085 73.8883 101.674 73.472 101.285C77.0849 100.388 79.4566 98.1409 79.9237 94.4649C80.4215 90.5143 78.56 87.6348 74.968 85.8768ZM34.6591 17.9766C34.6806 17.9577 34.7046 17.9376 34.7329 17.9157C34.7046 17.9376 34.6806 17.9583 34.6591 17.9766ZM35.0283 9.33794C35.3937 11.0142 35.5497 12.7285 35.4929 14.4424C35.5113 14.5705 35.5196 14.6998 35.5175 14.8291L35.4818 15.234C35.2708 15.9647 34.976 16.7898 34.7846 17.4779C34.7606 17.5631 34.7305 17.6471 34.7015 17.7318C34.7292 17.7793 34.7631 17.8256 34.7858 17.873C34.7612 17.8256 34.7292 17.7787 34.7015 17.7318C34.669 17.8223 34.6434 17.9151 34.6252 18.0094C34.6434 17.9151 34.669 17.8223 34.7015 17.7318C34.6735 17.6883 34.6541 17.64 34.6443 17.5893C34.5428 16.886 34.4548 16.1803 34.36 15.4581L34.1895 14.0521C34.0326 12.1895 33.92 10.3225 33.8043 8.45685C33.817 8.19653 33.8547 7.938 33.9169 7.68475C34.203 7.87422 34.4483 8.11785 34.6387 8.40159C34.8292 8.68533 34.9609 9.00356 35.0265 9.33794H35.0283ZM47.376 70.1006C46.6769 69.537 46.1078 68.8319 45.707 68.0327C45.3062 67.2334 45.0829 66.3585 45.0523 65.4667C44.9718 64.7052 45.077 63.9358 45.3592 63.2228C45.6413 62.5099 46.0922 61.8743 46.6738 61.3694C47.8263 60.3818 49.1648 59.6295 50.6123 59.156C52.3037 58.5092 54.0293 57.9536 55.7815 57.4918C58.7102 56.7648 61.6646 56.1315 64.6265 55.5494C66.6572 55.15 68.7206 54.9064 70.7686 54.5867C70.8246 54.5782 70.88 54.5666 70.9348 54.5532C71.0891 54.5142 71.25 54.5074 71.4071 54.5333C71.5642 54.5592 71.7142 54.6172 71.8474 54.7036C72.4203 55.0818 73.0874 55.4733 73.5969 55.8386C75.9969 57.5582 78.1828 59.4629 78.8646 62.684C79.0692 63.6645 79.0454 64.6782 78.7951 65.6482C78.5153 66.86 77.9073 67.9736 77.0363 68.8693C76.3945 68.2032 75.7618 67.5206 75.0997 66.8751C75.0929 66.8699 75.0845 66.8674 75.076 66.8679C75.0674 66.8684 75.0594 66.872 75.0533 66.878C75.0473 66.884 75.0436 66.8919 75.0431 66.9004C75.0426 66.9088 75.0452 66.9172 75.0505 66.9239C75.6282 67.6494 76.2518 68.3381 76.9175 68.9856C76.677 69.2125 76.4178 69.4192 76.1428 69.6037C75.9975 69.1038 75.3889 68.6873 75.0025 68.3749C74.4732 67.9487 73.9342 67.5328 73.4289 67.0767C73.42 67.0694 73.4085 67.0656 73.3969 67.0661C73.3853 67.0667 73.3743 67.0715 73.3661 67.0796C73.3578 67.0878 73.353 67.0987 73.3524 67.1102C73.3519 67.1217 73.3557 67.133 73.3631 67.1419C73.8006 67.6594 74.2763 68.1411 74.7409 68.6337C75.0619 69.0656 75.4467 69.4472 75.8825 69.7656C75.6761 69.8892 75.463 70.0016 75.2443 70.1024C74.8109 69.6134 74.3305 69.1672 73.8099 68.7701C73.1523 68.3966 72.5295 67.966 71.9489 67.4835C71.8966 67.428 71.8215 67.5084 71.8665 67.565C72.3534 68.0605 72.8936 68.5017 73.4775 68.8809C73.9405 69.3681 74.4438 69.8162 74.9822 70.2205C74.7772 70.3051 74.5625 70.3807 74.3415 70.4507C73.2619 69.4959 72.119 68.6134 70.9206 67.8092C70.8825 67.7855 70.8474 67.8451 70.8855 67.8701C72.0606 68.6659 73.1803 69.5391 74.2369 70.4836C74.1717 70.503 74.1083 70.525 74.0412 70.5444C73.8864 70.5974 73.7286 70.6415 73.5686 70.6766C72.398 69.7118 71.122 68.8798 69.7643 68.1959C69.7508 68.1892 69.7391 68.2093 69.7526 68.216C71.0922 68.8982 72.3512 69.7253 73.5065 70.6821C73.4656 70.6868 73.4243 70.6868 73.3834 70.6821C73.1126 70.6376 72.8455 70.57 72.5785 70.4994C71.2991 69.4076 69.6523 68.7524 68.2825 67.7727C68.2615 67.7575 68.2338 67.7922 68.2542 67.8086C69.4396 68.7425 70.689 69.5942 71.9932 70.3575C71.9145 70.3399 71.8363 70.321 71.7575 70.3064C71.3678 70.2341 70.9781 70.1663 70.5883 70.103C69.5206 69.407 68.3951 68.7488 67.2862 68.1271C67.278 68.1225 67.2683 68.1213 67.2593 68.1237C67.2502 68.1262 67.2425 68.1321 67.2378 68.1402C67.2332 68.1482 67.232 68.1578 67.2345 68.1668C67.2369 68.1757 67.2429 68.1834 67.2511 68.188C68.192 68.7524 69.0862 69.4697 70.0499 70.019C69.7065 69.9674 69.3625 69.9219 69.0178 69.8826C68.1748 69.2402 67.2449 68.7256 66.3582 68.1405C66.3329 68.124 66.3102 68.1636 66.3348 68.18C67.1852 68.7469 68.0757 69.2517 68.8892 69.8673C68.288 69.8004 67.6855 69.7529 67.0806 69.7346C66.2024 69.2692 65.4072 68.6644 64.7268 67.9444C64.7163 67.934 64.7003 67.9499 64.7102 67.9608C65.293 68.6401 65.9689 69.2354 66.7182 69.7297C66.2683 69.7255 65.8185 69.7334 65.3643 69.7663H65.3422C64.4008 69.206 63.5044 68.5749 62.6609 67.8786C62.64 67.8628 62.6123 67.8981 62.6326 67.9146C63.3595 68.616 64.1545 69.2448 65.0062 69.7918C64.7409 69.8119 64.4757 69.8345 64.2111 69.8564C63.8628 69.6439 63.4788 69.4752 63.1286 69.2724C62.6068 68.968 62.0935 68.6526 61.5735 68.3469C61.5477 68.3317 61.5255 68.37 61.5502 68.3865C62.048 68.7299 62.5378 69.0855 63.0382 69.4265C63.2622 69.5787 63.4911 69.748 63.7305 69.896C61.9828 70.0518 60.2375 70.2479 58.4929 70.4391C57.344 70.5652 56.2043 70.774 55.0578 70.9262C53.4747 71.1928 51.8643 71.2644 50.2634 71.1394C49.2207 71.0683 48.2192 70.7083 47.3735 70.1006H47.376ZM43.8295 85.0554C42.9231 84.4186 42.1764 83.5845 41.6469 82.6174C41.1174 81.6502 40.8193 80.5757 40.7754 79.4766C40.7396 77.7298 41.395 76.0383 42.6018 74.763C43.7525 73.4974 45.2157 72.5492 46.848 72.0113C47.1643 71.8981 47.4788 71.7793 47.7951 71.6667C48.3763 71.4713 49.005 71.4628 49.5914 71.6423C50.7008 71.9119 51.8538 71.9579 52.9815 71.7775C55.1926 71.4901 57.3858 71.0675 59.5975 70.7819C61.4111 70.5475 63.2394 70.4251 65.0615 70.2631C67.7342 70.0257 70.3569 70.4458 72.9871 70.8264C73.6572 70.9238 73.8935 71.4286 74.2529 71.8165C75.4303 73.0296 76.327 74.4815 76.8812 76.0715C77.1907 77.1905 77.3201 78.3507 77.2646 79.5094C77.1889 80.646 76.9103 81.7602 76.4418 82.8006C76.067 83.5298 75.645 84.2344 75.1785 84.9099C75.1294 85.0022 75.075 85.0917 75.0154 85.1778C74.3317 84.4721 73.6615 83.7438 72.9575 83.057C72.9508 83.0518 72.9424 83.0492 72.9338 83.0497C72.9253 83.0502 72.9172 83.0538 72.9112 83.0598C72.9051 83.0658 72.9015 83.0737 72.901 83.0822C72.9004 83.0906 72.903 83.099 72.9083 83.1057C73.5179 83.8917 74.1951 84.6241 74.9323 85.2947C74.7554 85.5251 74.5347 85.7189 74.2825 85.8653C74.2825 85.861 74.2825 85.8567 74.2825 85.8531C74.1766 85.3221 73.5237 84.8831 73.1206 84.5573C72.5914 84.1311 72.0523 83.7152 71.5471 83.2591C71.5381 83.2518 71.5267 83.248 71.5151 83.2486C71.5034 83.2491 71.4924 83.2539 71.4842 83.2621C71.476 83.2702 71.4711 83.2811 71.4706 83.2926C71.47 83.3041 71.4738 83.3154 71.4812 83.3243C71.9188 83.8418 72.3945 84.3235 72.8591 84.8161C73.1883 85.2716 73.5967 85.6656 74.0652 85.9797C73.7849 86.1033 73.4895 86.1903 73.1865 86.2385C73.1825 86.2301 73.1775 86.2221 73.1717 86.2148C72.7269 85.7075 72.2322 85.2452 71.6948 84.835C71.0372 84.4615 70.4144 84.0309 69.8338 83.5483C69.7815 83.4929 69.7065 83.5733 69.7514 83.6299C70.2383 84.1254 70.7786 84.5666 71.3625 84.9458C71.8259 85.4333 72.3298 85.8814 72.8689 86.2854C72.7643 86.2984 72.6585 86.3098 72.5514 86.3195C72.3625 86.3548 72.1729 86.3871 71.9834 86.4206C70.9182 85.4785 69.7901 84.6084 68.6068 83.8163C68.5686 83.7925 68.5335 83.8522 68.5717 83.8772C69.7272 84.6576 70.8278 85.5149 71.8658 86.4431C71.6328 86.4837 71.3994 86.5223 71.1655 86.5588C69.9822 85.5776 68.6903 84.7323 67.3145 84.0391C67.3009 84.0324 67.2892 84.0525 67.3028 84.0592C68.662 84.7519 69.9381 85.5936 71.1071 86.5686C70.8798 86.6047 70.6523 86.6392 70.4246 86.6721C69.1471 85.5864 67.5065 84.9318 66.1409 83.9551C66.12 83.9399 66.0923 83.9746 66.1126 83.991C67.3886 84.9957 68.7384 85.9051 70.1508 86.7116C69.7982 86.761 69.4455 86.8078 69.0917 86.8505C67.9649 86.1058 66.7655 85.4049 65.584 84.7442C65.5758 84.7396 65.5662 84.7384 65.5571 84.7409C65.548 84.7433 65.5403 84.7493 65.5357 84.7573C65.531 84.7654 65.5298 84.775 65.5323 84.784C65.5348 84.7929 65.5408 84.8005 65.5489 84.8051C66.6394 85.4591 67.6665 86.3189 68.8105 86.8828C68.5557 86.9116 68.3005 86.9386 68.0449 86.9637C67.0867 86.239 66.088 85.5681 65.0535 84.9543C65.0283 84.9379 65.0055 84.9775 65.0302 84.9939C66.0371 85.6013 67.011 86.2608 67.9477 86.9698C67.5785 87.0047 67.2105 87.0354 66.8437 87.0618C65.8414 86.6002 64.9408 85.9478 64.1932 85.1419C64.1828 85.1315 64.1668 85.1474 64.1766 85.1583C64.8234 85.9332 65.6057 86.5868 66.4862 87.0879C66.199 87.1062 65.9118 87.1216 65.6246 87.1342L65.4228 87.1427C64.5239 86.593 63.6645 85.9827 62.8505 85.316C62.8295 85.3002 62.8018 85.3355 62.8222 85.3519C63.5204 86.0137 64.2718 86.6183 65.0689 87.1598L63.8997 87.2085C63.5342 86.9759 63.1243 86.7963 62.752 86.5801C62.2302 86.2757 61.7169 85.9603 61.1969 85.6546C61.1711 85.6394 61.1489 85.6777 61.1735 85.6942C61.6714 86.0376 62.1612 86.3932 62.6615 86.7342C62.8985 86.8955 63.1409 87.0752 63.3951 87.2286C62.216 87.2749 61.0369 87.3157 59.8572 87.3394C58.6412 87.3644 57.4228 87.3035 56.2055 87.2962C54.5877 87.2865 52.9698 87.3102 51.352 87.2846C48.6363 87.2396 46.0499 86.7622 43.8271 85.0554H43.8295ZM73.6 102.063C75.2062 103.871 75.2997 105.914 74.4086 108.054C73.9417 109.193 73.1984 110.201 72.2443 110.988C71.5637 110.285 70.896 109.56 70.1957 108.877C70.1889 108.872 70.1805 108.869 70.172 108.87C70.1634 108.87 70.1554 108.874 70.1493 108.88C70.1433 108.886 70.1396 108.894 70.1391 108.902C70.1386 108.911 70.1412 108.919 70.1465 108.926C70.7481 109.696 71.4112 110.417 72.1292 111.081C71.9241 111.246 71.7079 111.402 71.4806 111.549C71.2086 111.074 70.8237 110.672 70.3594 110.378C69.8302 109.951 69.2911 109.535 68.7859 109.079C68.7769 109.072 68.7655 109.068 68.7538 109.069C68.7422 109.069 68.7312 109.074 68.723 109.082C68.7147 109.09 68.7099 109.101 68.7093 109.113C68.7088 109.124 68.7126 109.136 68.72 109.145C69.1575 109.662 69.6332 110.144 70.0978 110.636C70.4093 111.047 70.772 111.416 71.1772 111.737C70.9389 111.878 70.6927 112.01 70.4388 112.132C70.4434 112.115 70.4435 112.098 70.4391 112.08C70.4347 112.063 70.4259 112.048 70.4135 112.035C69.9688 111.528 69.474 111.065 68.9366 110.655C68.279 110.282 67.6563 109.851 67.0757 109.369C67.0234 109.313 66.9483 109.394 66.9932 109.45C67.4802 109.946 68.0204 110.387 68.6043 110.766C69.1637 111.219 69.6129 111.91 70.2886 112.198C70.2925 112.198 70.2964 112.198 70.3003 112.198C70.1772 112.254 70.0523 112.309 69.9255 112.361C69.7902 112.417 69.6517 112.467 69.5145 112.519C68.4402 111.568 67.3029 110.691 66.1102 109.891C66.072 109.867 66.0369 109.927 66.0751 109.952C67.2468 110.745 68.3632 111.616 69.4166 112.557C69.2562 112.616 69.095 112.672 68.9329 112.727C67.7151 111.701 66.3798 110.82 64.9545 110.102C64.9409 110.096 64.9292 110.116 64.9428 110.122C66.3542 110.842 67.676 111.722 68.8812 112.744C68.6695 112.815 68.4572 112.884 68.2443 112.952C68.2417 112.948 68.2386 112.944 68.2351 112.94C66.9489 111.824 65.2775 111.166 63.8905 110.174C63.8695 110.159 63.8419 110.194 63.8622 110.21C65.1823 111.25 66.5813 112.187 68.0468 113.015C67.8568 113.075 67.6673 113.136 67.4782 113.197C67.4739 113.181 67.4638 113.167 67.4499 113.158C66.304 112.397 65.0794 111.682 63.8775 111.008C63.8694 111.003 63.8597 111.002 63.8506 111.004C63.8416 111.007 63.8339 111.013 63.8292 111.021C63.8246 111.029 63.8234 111.039 63.8258 111.048C63.8283 111.056 63.8343 111.064 63.8425 111.069C65.0006 111.763 66.0862 112.693 67.3206 113.25L67.2923 113.259C67.0363 113.306 66.7828 113.342 66.5311 113.366C65.5678 112.636 64.5629 111.961 63.5212 111.345C63.496 111.328 63.4732 111.368 63.4978 111.384C64.5116 111.995 65.4913 112.659 66.4326 113.374C66.0848 113.404 65.7355 113.414 65.3865 113.404C64.3704 112.944 63.458 112.287 62.7034 111.471C62.6929 111.461 62.6769 111.477 62.6868 111.488C63.3175 112.236 64.071 112.874 64.9157 113.375C64.5392 113.344 64.1648 113.292 63.7945 113.218C62.8113 112.651 61.8788 112.001 61.0068 111.278C60.9859 111.262 60.9582 111.297 60.9785 111.313C61.6516 111.943 62.3671 112.527 63.12 113.062C62.6659 112.94 62.2187 112.795 61.7803 112.627H61.7754C61.7728 112.623 61.7699 112.62 61.7668 112.617C61.3207 112.323 60.8555 112.059 60.3742 111.826C59.8523 111.521 59.3391 111.206 58.8191 110.9C58.7932 110.885 58.7711 110.923 58.7957 110.94C59.2935 111.283 59.7834 111.639 60.2837 111.98C60.4892 112.12 60.6991 112.274 60.9175 112.413C60.4868 112.343 60.0468 112.308 59.6178 112.249C58.3994 112.078 57.1711 111.967 55.9582 111.765C54.5651 111.495 53.3166 110.739 52.44 109.634C51.4416 108.499 50.6142 107.228 49.9834 105.859C49.4566 104.702 49.1575 103.484 49.7606 102.23C50.0862 101.554 50.2357 101.47 50.9169 101.725C53.2212 102.547 55.6533 102.964 58.1028 102.955C60.3489 102.954 62.5916 102.78 64.8105 102.434C67.3237 102.085 69.8289 101.673 72.3354 101.277C72.9994 101.173 73.2763 101.696 73.6 102.063ZM76.3231 99.2503C75.6732 98.5763 75.0308 97.8852 74.3631 97.2318C74.3563 97.2266 74.3479 97.224 74.3394 97.2245C74.3308 97.225 74.3228 97.2286 74.3167 97.2346C74.3107 97.2406 74.307 97.2486 74.3065 97.257C74.306 97.2655 74.3086 97.2738 74.3139 97.2805C74.8955 98.0131 75.5254 98.707 76.1994 99.3575C76.0105 99.5183 75.8154 99.6717 75.6142 99.8142C75.3296 99.3841 74.9597 99.0157 74.5268 98.7315C73.9975 98.3053 73.4585 97.8894 72.9532 97.4333C72.9443 97.426 72.9328 97.4222 72.9212 97.4228C72.9096 97.4233 72.8986 97.4281 72.8904 97.4363C72.8821 97.4444 72.8773 97.4553 72.8767 97.4668C72.8762 97.4783 72.88 97.4896 72.8874 97.4985C73.3249 98.0161 73.8006 98.4977 74.2652 98.9903C74.5649 99.3735 74.903 99.7257 75.2745 100.041C75.0561 100.18 74.8301 100.306 74.5975 100.42C74.5926 100.409 74.586 100.398 74.5779 100.389C74.1331 99.8817 73.6383 99.4195 73.1009 99.0092C72.4433 98.6357 71.8206 98.2051 71.24 97.7226C71.1877 97.6672 71.1126 97.7475 71.1575 97.8042C71.6445 98.2996 72.1847 98.7408 72.7686 99.12C73.3083 99.5572 73.7477 100.212 74.3852 100.517C74.0915 100.649 73.7875 100.757 73.4763 100.841C72.6352 101.017 71.7823 101.134 70.9243 101.189C70.1428 101.279 69.3582 101.336 68.5766 101.425L68.5465 101.429C68.5517 101.42 68.5548 101.411 68.5557 101.401C68.5565 101.391 68.555 101.381 68.5514 101.372C68.5477 101.362 68.5419 101.354 68.5344 101.347C68.5269 101.341 68.518 101.336 68.5083 101.333C67.3981 100.887 66.4051 100.197 65.6043 99.3149C65.5938 99.3045 65.5779 99.3204 65.5877 99.3313C66.3114 100.112 67.32 101.164 68.3994 101.446C68.0261 101.49 67.6527 101.535 67.2794 101.581C67.281 101.572 67.2793 101.562 67.2746 101.553C67.27 101.544 67.2626 101.537 67.2535 101.533C66.188 100.953 65.1849 100.267 64.2597 99.4866C64.2388 99.4708 64.2111 99.5061 64.2314 99.5225C65.0997 100.219 65.9994 101.256 67.0985 101.603C65.0572 101.859 63.0178 102.14 60.9686 102.286C57.9489 102.575 54.9013 102.3 51.984 101.477C50.0665 100.993 48.3471 99.9341 47.0609 98.446C46.6694 97.9529 46.353 97.4058 46.1218 96.822C45.9787 96.4615 45.872 96.0878 45.8031 95.7065L45.704 95.1737C45.4578 93.5503 45.0548 91.9245 45.8535 90.3249C46.2613 89.6236 46.8544 89.0453 47.5692 88.6522C47.7124 88.5817 47.8511 88.5026 47.9846 88.4154C48.3137 88.1633 48.6926 87.9826 49.0969 87.885C49.5012 87.7875 49.9217 87.7752 50.3311 87.8491C51.1717 87.9148 52.0154 87.924 52.8585 87.9246C54.52 87.9246 56.1846 87.969 57.8468 87.9337C59.9126 87.8893 61.9828 87.8795 64.0425 87.7316C66.1834 87.5781 68.3218 87.3303 70.4462 87.0222C71.7532 86.8328 73.0308 86.4395 74.3268 86.1697C74.5789 86.1321 74.8363 86.1869 75.0505 86.3238C77.0272 87.6639 78.4153 89.6973 78.9335 92.0122C79.5495 94.924 78.5231 97.3183 76.3249 99.2503H76.3231Z" fill="url(#paint11_linear_2378_56758)"/>
<path d="M13.8711 99.9541C15.8945 100.891 20.9412 100.999 25.5246 98.8264C27.8219 97.7377 31.8342 94.3783 32.0545 93.1367C29.7117 95.7307 27.1314 97.8253 23.8729 98.9957C20.6855 100.194 17.2317 100.525 13.8711 99.9541Z" fill="url(#paint12_linear_2378_56758)"/>
<path d="M7.29363 95.8285C5.33584 91.0742 3.09605 86.4384 0.585938 81.9453C0.601322 82.7332 6.85917 95.647 7.29363 95.8285Z" fill="url(#paint13_linear_2378_56758)"/>
<path d="M42.1173 112.339C41.5308 113.042 41.0139 113.79 40.0281 114.058C39.1675 114.299 38.3284 114.609 37.5192 114.985C35.7748 115.896 33.903 116.545 31.9653 116.911C31.8455 116.954 31.7312 117.011 31.625 117.08C31.7132 117.109 31.8039 117.129 31.8958 117.141C33.6405 117.005 35.3429 116.54 36.9118 115.772C38.7684 114.875 40.6281 113.977 42.7118 113.695C42.8092 113.669 42.9026 113.629 42.9893 113.577L42.9727 113.502L41.7038 113.511C42.3061 113.016 42.7312 112.343 42.9161 111.59C42.6129 111.798 42.3435 112.05 42.1173 112.339Z" fill="url(#paint14_linear_2378_56758)"/>
<path d="M30.8047 103.562L30.9585 103.704C33.4397 102.11 35.3866 99.8229 36.5524 97.1328C37.1444 95.8493 37.5425 94.2363 37.3444 93.793C37.2213 94.0871 37.0982 94.3197 37.0238 94.5675C36.121 97.8539 34.1834 100.77 31.4921 102.893C31.2503 103.103 31.0208 103.326 30.8047 103.562Z" fill="url(#paint15_linear_2378_56758)"/>
<path d="M32.5625 92.0668L39.981 84.3945C38.2554 85.0972 32.6917 91.0195 32.5625 92.0668Z" fill="url(#paint16_linear_2378_56758)"/>
<path d="M24.179 96.4657C22.9181 96.5601 21.659 96.6977 20.3969 96.7464C18.7313 96.8418 17.0687 96.5161 15.5655 95.8002C15.0732 95.5602 14.6067 95.2808 14.1279 95.0195L14.0664 95.1023C14.2129 95.2211 14.3649 95.3337 14.5046 95.4598C15.5192 96.3432 16.7776 96.9064 18.1181 97.077C20.1568 97.3202 22.2225 97.215 24.2252 96.7659C24.3798 96.7273 24.5317 96.6787 24.6799 96.6204L24.6559 96.47C24.4959 96.4681 24.3366 96.4523 24.179 96.4657Z" fill="url(#paint17_linear_2378_56758)"/>
<path d="M19.5345 63.3618C17.2512 63.902 14.8758 63.9392 12.5763 63.4708C12.2541 63.419 11.9281 63.3932 11.6016 63.3935V63.5932C14.6471 64.6619 17.6723 64.3946 20.6877 63.4684V63.2188C20.3 63.2669 19.9123 63.2882 19.5345 63.3618Z" fill="url(#paint18_linear_2378_56758)"/>
<path d="M9.32003 113.07C9.3547 113.257 9.4156 113.439 9.50095 113.61C10.0345 112.276 9.10588 105.81 7.83203 104.555C7.86095 104.697 7.88188 104.841 7.91942 104.981C8.14526 105.824 8.39265 106.662 8.60003 107.51C9.02557 109.335 9.26675 111.197 9.32003 113.07Z" fill="url(#paint19_linear_2378_56758)"/>
<path d="M42.5507 66.7668C42.6019 66.51 42.6226 66.2483 42.6122 65.9868L42.4319 65.9648C41.4766 68.2558 40.7447 70.6318 40.2461 73.0605L40.3993 73.1159C40.4432 73.0755 40.48 73.0281 40.5082 72.9758C41.1962 70.908 41.8836 68.8401 42.5507 66.7668Z" fill="url(#paint20_linear_2378_56758)"/>
<path d="M38.5941 73.7669C39.5941 72.0145 38.8077 66.6281 37.5781 66.3242C37.9537 67.5222 38.2588 68.7406 38.492 69.9734C38.5999 71.2349 38.634 72.5015 38.5941 73.7669Z" fill="url(#paint21_linear_2378_56758)"/>
<path d="M48.2362 64.3281C48.2418 64.2806 48.1901 64.227 48.1611 64.168C47.4227 64.8603 47.563 68.6739 48.8651 69.5763C48.2406 67.9004 48.0251 66.1021 48.2362 64.3281Z" fill="url(#paint22_linear_2378_56758)"/>
<path d="M50.3767 68.867C50.1491 67.9892 49.9777 67.098 49.8635 66.1988C49.8554 65.31 49.9047 64.4216 50.0111 63.5391C48.9964 64.3757 49.2155 67.9823 50.3767 68.867Z" fill="url(#paint23_linear_2378_56758)"/>
<path d="M31.4461 35.8033C30.8394 35.3661 30.1169 35.4714 29.3594 35.2656C29.7138 35.9251 31.0572 36.2295 31.4461 35.8033Z" fill="url(#paint24_linear_2378_56758)"/>
<path d="M31.1914 31.1092L32.5643 31.9903C32.5059 31.2444 31.7459 30.7566 31.1914 31.1092Z" fill="url(#paint25_linear_2378_56758)"/>
<path d="M70.8097 82.2393C69.1063 79.8974 68.2411 77.4106 68.8035 74.567C68.8232 74.352 68.6324 74.2315 68.534 74.5743C68.1021 75.9967 68.1087 77.5142 68.5531 78.9329C68.9309 80.242 70.1611 82.1345 70.8097 82.2393Z" fill="url(#paint26_linear_2378_56758)"/>
<path d="M46.5511 80.2537C46.4948 81.4971 46.3463 82.7347 46.1068 83.9565C47.3824 82.9073 47.2797 77.8144 45.9492 76.6562C46.2419 77.8385 46.4431 79.0412 46.5511 80.2537Z" fill="url(#paint27_linear_2378_56758)"/>
<path d="M74.6106 81.5825C75.6913 80.6843 74.9626 75.9707 73.4414 74.4844C73.874 75.6368 74.2278 76.8167 74.5005 78.0161C74.6207 79.2009 74.6575 80.3926 74.6106 81.5825Z" fill="url(#paint28_linear_2378_56758)"/>
<path d="M44.2637 77.1953C43.1843 78.183 43.8053 82.8107 45.0963 83.2978C44.1515 81.4086 43.859 79.2648 44.2637 77.1953Z" fill="url(#paint29_linear_2378_56758)"/>
<path d="M50.301 94.6609C49.4677 93.7286 48.7046 92.737 48.0181 91.6942C47.8387 93.3259 51.4917 96.9152 53.2617 96.832C52.2205 96.1837 51.2308 95.4579 50.301 94.6609Z" fill="url(#paint30_linear_2378_56758)"/>
<path d="M48.1036 91.457C47.0242 92.4441 47.6451 97.0724 48.9362 97.562C47.9908 95.672 47.6983 93.5273 48.1036 91.457Z" fill="url(#paint31_linear_2378_56758)"/>
<path d="M72.2477 79.5705C72.4842 78.8894 72.487 78.1501 72.2557 77.4673C72.1771 77.2755 72.0648 77.0991 71.924 76.9461C71.8341 76.8651 71.7394 76.8182 71.8095 77.0411C71.9264 77.6214 72.1086 78.8861 72.2477 79.5705Z" fill="url(#paint32_linear_2378_56758)"/>
<path d="M74.9453 88.9766C75.4992 90.1455 75.9797 91.3471 76.3841 92.5746C76.6457 93.8315 76.8291 95.103 76.933 96.3821C77.6401 94.5274 76.6167 90.2626 74.9453 88.9766Z" fill="url(#paint33_linear_2378_56758)"/>
<path d="M70.8076 90.9492C70.535 92.5902 71.9276 95.295 73.7615 96.0464C73.1052 95.2723 72.4979 94.4589 71.943 93.6108C71.5075 92.7485 71.1283 91.8595 70.8076 90.9492Z" fill="url(#paint34_linear_2378_56758)"/>
<path d="M70.795 103.885C70.8816 104.689 70.91 105.498 70.8799 106.306C70.7481 107.095 70.5585 107.873 70.3125 108.634C70.7149 108.229 71.019 107.739 71.202 107.201C71.3849 106.663 71.4419 106.091 71.3685 105.528C71.3156 104.469 71.1063 104.002 70.795 103.885Z" fill="url(#paint35_linear_2378_56758)"/>
<path d="M51.6797 106.385C52.5935 106.161 53.3252 104.573 52.8945 103.893L51.6797 106.385Z" fill="url(#paint36_linear_2378_56758)"/>
<path d="M36.481 120.161C35.2306 120.297 33.9718 120.34 32.7148 120.293C33.9579 121.381 39.0287 120.501 39.9819 119.023C38.8458 119.49 37.6755 119.871 36.481 120.161Z" fill="url(#paint37_linear_2378_56758)"/>
<path d="M68.8427 114.742C67.6105 114.992 66.3614 115.152 65.1055 115.22C66.4458 116.188 71.4113 114.845 72.2212 113.285C71.134 113.855 70.0046 114.342 68.8427 114.742Z" fill="url(#paint38_linear_2378_56758)"/>
</g>
<defs>
<linearGradient id="paint0_linear_2378_56758" x1="-1.53819" y1="-3.08417" x2="102.513" y2="9.01006" gradientUnits="userSpaceOnUse">
<stop stop-color="#DD272E"/>
<stop offset="1" stop-color="#7B4297"/>
</linearGradient>
<linearGradient id="paint1_linear_2378_56758" x1="-18.1366" y1="-3.08778" x2="123.809" y2="13.4108" gradientUnits="userSpaceOnUse">
<stop stop-color="#DD272E"/>
<stop offset="1" stop-color="#7B4297"/>
</linearGradient>
<linearGradient id="paint2_linear_2378_56758" x1="-2.23228" y1="-9.97841" x2="85.0999" y2="99.331" gradientUnits="userSpaceOnUse">
<stop stop-color="#DD272E"/>
<stop offset="1" stop-color="#7B4297"/>
</linearGradient>
<linearGradient id="paint3_linear_2378_56758" x1="-11.3334" y1="-2.60346" x2="75.9784" y2="106.701" gradientUnits="userSpaceOnUse">
<stop stop-color="#DD272E"/>
<stop offset="1" stop-color="#7B4297"/>
</linearGradient>
<linearGradient id="paint4_linear_2378_56758" x1="-11.6352" y1="-4.57029" x2="76.0657" y2="107.1" gradientUnits="userSpaceOnUse">
<stop stop-color="#DD272E"/>
<stop offset="1" stop-color="#7B4297"/>
</linearGradient>
<linearGradient id="paint5_linear_2378_56758" x1="-12.3426" y1="-4.01541" x2="75.3582" y2="107.655" gradientUnits="userSpaceOnUse">
<stop stop-color="#DD272E"/>
<stop offset="1" stop-color="#7B4297"/>
</linearGradient>
<linearGradient id="paint6_linear_2378_56758" x1="-12.9605" y1="-3.52949" x2="74.7402" y2="108.141" gradientUnits="userSpaceOnUse">
<stop stop-color="#DD272E"/>
<stop offset="1" stop-color="#7B4297"/>
</linearGradient>
<linearGradient id="paint7_linear_2378_56758" x1="-13.7804" y1="-2.88555" x2="73.9207" y2="108.785" gradientUnits="userSpaceOnUse">
<stop stop-color="#DD272E"/>
<stop offset="1" stop-color="#7B4297"/>
</linearGradient>
<linearGradient id="paint8_linear_2378_56758" x1="-14.3382" y1="-2.44958" x2="73.3626" y2="109.221" gradientUnits="userSpaceOnUse">
<stop stop-color="#DD272E"/>
<stop offset="1" stop-color="#7B4297"/>
</linearGradient>
<linearGradient id="paint9_linear_2378_56758" x1="-16.9967" y1="-0.360223" x2="70.7042" y2="111.31" gradientUnits="userSpaceOnUse">
<stop stop-color="#DD272E"/>
<stop offset="1" stop-color="#7B4297"/>
</linearGradient>
<linearGradient id="paint10_linear_2378_56758" x1="8.47994" y1="-20.3663" x2="96.1808" y2="91.3041" gradientUnits="userSpaceOnUse">
<stop stop-color="#DD272E"/>
<stop offset="1" stop-color="#7B4297"/>
</linearGradient>
<linearGradient id="paint11_linear_2378_56758" x1="-25.248" y1="6.12106" x2="62.4529" y2="117.791" gradientUnits="userSpaceOnUse">
<stop stop-color="#DD272E"/>
<stop offset="1" stop-color="#7B4297"/>
</linearGradient>
<linearGradient id="paint12_linear_2378_56758" x1="-40.1707" y1="17.8387" x2="47.5303" y2="129.509" gradientUnits="userSpaceOnUse">
<stop stop-color="#DD272E"/>
<stop offset="1" stop-color="#7B4297"/>
</linearGradient>
<linearGradient id="paint13_linear_2378_56758" x1="-48.0768" y1="24.0476" x2="39.6247" y2="135.718" gradientUnits="userSpaceOnUse">
<stop stop-color="#DD272E"/>
<stop offset="1" stop-color="#7B4297"/>
</linearGradient>
<linearGradient id="paint14_linear_2378_56758" x1="-40.1467" y1="17.8206" x2="47.5543" y2="129.491" gradientUnits="userSpaceOnUse">
<stop stop-color="#DD272E"/>
<stop offset="1" stop-color="#7B4297"/>
</linearGradient>
<linearGradient id="paint15_linear_2378_56758" x1="-34.4039" y1="13.3083" x2="53.297" y2="124.979" gradientUnits="userSpaceOnUse">
<stop stop-color="#DD272E"/>
<stop offset="1" stop-color="#7B4297"/>
</linearGradient>
<linearGradient id="paint16_linear_2378_56758" x1="-27.9138" y1="8.21436" x2="59.787" y2="119.885" gradientUnits="userSpaceOnUse">
<stop stop-color="#DD272E"/>
<stop offset="1" stop-color="#7B4297"/>
</linearGradient>
<linearGradient id="paint17_linear_2378_56758" x1="-42.0068" y1="19.2826" x2="45.694" y2="130.953" gradientUnits="userSpaceOnUse">
<stop stop-color="#DD272E"/>
<stop offset="1" stop-color="#7B4297"/>
</linearGradient>
<linearGradient id="paint18_linear_2378_56758" x1="-28.0458" y1="8.31934" x2="59.6551" y2="119.99" gradientUnits="userSpaceOnUse">
<stop stop-color="#DD272E"/>
<stop offset="1" stop-color="#7B4297"/>
</linearGradient>
<linearGradient id="paint19_linear_2378_56758" x1="-55.1076" y1="29.571" x2="32.5932" y2="141.241" gradientUnits="userSpaceOnUse">
<stop stop-color="#DD272E"/>
<stop offset="1" stop-color="#7B4297"/>
</linearGradient>
<linearGradient id="paint20_linear_2378_56758" x1="-15.5422" y1="-1.50185" x2="72.1586" y2="110.168" gradientUnits="userSpaceOnUse">
<stop stop-color="#DD272E"/>
<stop offset="1" stop-color="#7B4297"/>
</linearGradient>
<linearGradient id="paint21_linear_2378_56758" x1="-17.7985" y1="0.270783" x2="69.903" y2="111.941" gradientUnits="userSpaceOnUse">
<stop stop-color="#DD272E"/>
<stop offset="1" stop-color="#7B4297"/>
</linearGradient>
<linearGradient id="paint22_linear_2378_56758" x1="-9.9151" y1="-5.92069" x2="77.7858" y2="105.749" gradientUnits="userSpaceOnUse">
<stop stop-color="#DD272E"/>
<stop offset="1" stop-color="#7B4297"/>
</linearGradient>
<linearGradient id="paint23_linear_2378_56758" x1="-8.54704" y1="-6.99596" x2="79.1539" y2="104.674" gradientUnits="userSpaceOnUse">
<stop stop-color="#DD272E"/>
<stop offset="1" stop-color="#7B4297"/>
</linearGradient>
<linearGradient id="paint24_linear_2378_56758" x1="-5.58769" y1="-9.32125" x2="82.1132" y2="102.349" gradientUnits="userSpaceOnUse">
<stop stop-color="#DD272E"/>
<stop offset="1" stop-color="#7B4297"/>
</linearGradient>
<linearGradient id="paint25_linear_2378_56758" x1="-2.63689" y1="-11.6363" x2="85.064" y2="100.034" gradientUnits="userSpaceOnUse">
<stop stop-color="#DD272E"/>
<stop offset="1" stop-color="#7B4297"/>
</linearGradient>
<linearGradient id="paint26_linear_2378_56758" x1="-2.56453" y1="-11.6932" x2="85.137" y2="99.9772" gradientUnits="userSpaceOnUse">
<stop stop-color="#DD272E"/>
<stop offset="1" stop-color="#7B4297"/>
</linearGradient>
<linearGradient id="paint27_linear_2378_56758" x1="-18.0206" y1="0.443157" x2="69.6804" y2="112.113" gradientUnits="userSpaceOnUse">
<stop stop-color="#DD272E"/>
<stop offset="1" stop-color="#7B4297"/>
</linearGradient>
<linearGradient id="paint28_linear_2378_56758" x1="0.273993" y1="-13.9265" x2="87.9749" y2="97.7438" gradientUnits="userSpaceOnUse">
<stop stop-color="#DD272E"/>
<stop offset="1" stop-color="#7B4297"/>
</linearGradient>
<linearGradient id="paint29_linear_2378_56758" x1="-18.8765" y1="1.11431" x2="68.8245" y2="112.784" gradientUnits="userSpaceOnUse">
<stop stop-color="#DD272E"/>
<stop offset="1" stop-color="#7B4297"/>
</linearGradient>
<linearGradient id="paint30_linear_2378_56758" x1="166.354" y1="109.355" x2="24.7098" y2="90.4999" gradientUnits="userSpaceOnUse">
<stop stop-color="#DD272E"/>
<stop offset="1" stop-color="#7B4297"/>
</linearGradient>
<linearGradient id="paint31_linear_2378_56758" x1="-23.54" y1="4.77795" x2="64.1609" y2="116.448" gradientUnits="userSpaceOnUse">
<stop stop-color="#DD272E"/>
<stop offset="1" stop-color="#7B4297"/>
</linearGradient>
<linearGradient id="paint32_linear_2378_56758" x1="-1.03223" y1="-12.8957" x2="86.6688" y2="98.7745" gradientUnits="userSpaceOnUse">
<stop stop-color="#DD272E"/>
<stop offset="1" stop-color="#7B4297"/>
</linearGradient>
<linearGradient id="paint33_linear_2378_56758" x1="-5.73414" y1="-9.20364" x2="81.9668" y2="102.467" gradientUnits="userSpaceOnUse">
<stop stop-color="#DD272E"/>
<stop offset="1" stop-color="#7B4297"/>
</linearGradient>
<linearGradient id="paint34_linear_2378_56758" x1="-8.59785" y1="-6.9576" x2="79.1031" y2="104.713" gradientUnits="userSpaceOnUse">
<stop stop-color="#DD272E"/>
<stop offset="1" stop-color="#7B4297"/>
</linearGradient>
<linearGradient id="paint35_linear_2378_56758" x1="-15.7264" y1="-1.35691" x2="71.9744" y2="110.314" gradientUnits="userSpaceOnUse">
<stop stop-color="#DD272E"/>
<stop offset="1" stop-color="#7B4297"/>
</linearGradient>
<linearGradient id="paint36_linear_2378_56758" x1="-26.4095" y1="7.03143" x2="61.2913" y2="118.702" gradientUnits="userSpaceOnUse">
<stop stop-color="#DD272E"/>
<stop offset="1" stop-color="#7B4297"/>
</linearGradient>
<linearGradient id="paint37_linear_2378_56758" x1="106.328" y1="44.8214" x2="10.3794" y2="149.642" gradientUnits="userSpaceOnUse">
<stop stop-color="#DD272E"/>
<stop offset="1" stop-color="#7B4297"/>
</linearGradient>
<linearGradient id="paint38_linear_2378_56758" x1="131.278" y1="33.2852" x2="45.5939" y2="146.478" gradientUnits="userSpaceOnUse">
<stop stop-color="#DD272E"/>
<stop offset="1" stop-color="#7B4297"/>
</linearGradient>
<clipPath id="clip0_2378_56758">
<rect width="80" height="123" fill="white"/>
</clipPath>
</defs>
</svg>
