<svg width="80" height="123" viewBox="0 0 80 123" fill="none" xmlns="http://www.w3.org/2000/svg">
<g clip-path="url(#clip0_2378_56871)">
<path d="M79.1377 53.0276C78.9301 52.1715 78.0307 52.8632 78.0307 52.8632C78.0307 52.8632 78.4362 49.4923 70.1666 54.4659L66.7196 55.2885C66.7019 55.1704 66.6873 55.0535 66.669 54.9353C66.3642 52.9677 66.0122 51.0349 65.6132 49.1367L70.1191 47.0451C70.1191 47.0451 71.393 47.7959 77.5375 45.4315C77.5375 45.4315 78.3504 44.9772 77.8152 43.8696C77.8152 43.8696 79.2875 43.461 78.871 42.5994C78.4545 41.7378 77.6599 42.6688 77.6599 42.6688C77.6599 42.6688 77.3171 39.0081 69.6917 46.0976L65.397 48.1131C64.7181 45.0137 63.921 42.0191 63.0223 39.1511L63.9356 38.3864C63.9356 38.3864 65.3605 38.7809 70.6824 34.9046C70.6824 34.9046 71.3522 34.2555 70.546 33.3214C70.546 33.3214 71.8624 32.5451 71.2365 31.8211C70.6105 31.0971 70.0844 32.2023 70.0844 32.2023C70.0844 32.2023 68.8057 28.7552 63.2774 37.5796L62.6819 38.0825C55.9827 17.536 44.0163 3.8124 32.7131 5.55511C31.8848 5.68618 31.0715 5.89849 30.2848 6.18898C29.254 6.09903 28.216 6.13317 27.1934 6.29067C20.2676 7.36479 14.6498 13.9629 11.383 24.8771C9.61702 31.0679 8.65395 37.46 8.51745 43.8964C8.50222 43.9293 8.48396 43.9609 8.46995 43.9944C8.45987 44.0162 8.45855 44.0409 8.46626 44.0636C8.47397 44.0863 8.49012 44.1051 8.51136 44.1162C8.48294 45.0783 8.46914 46.0487 8.46995 47.0274L0 122.999H12.0016L14.5895 82.9331C16.1325 87.3541 18.057 91.6326 20.3413 95.7202L21.7235 122.999H34.0941L32.5974 110.075C36.296 112.549 40.0749 113.58 43.735 113.013C44.056 112.978 44.3798 112.978 44.7008 113.013C45.0497 113.046 45.401 113.046 45.7499 113.013L46.6456 122.999H58.5127L56.703 108.507C65.802 100.154 70.1794 79.4428 66.8523 56.2214L70.367 55.4018C70.367 55.4018 71.3705 56.3188 77.3798 55.3354C77.3798 55.3354 78.2024 55.0778 77.9351 53.9769C77.9357 53.9769 79.3454 53.8844 79.1377 53.0276ZM65.7532 55.0754C65.7752 55.2179 65.7928 55.3591 65.8141 55.5016L61.9421 56.4229C61.9055 56.1763 61.8745 55.9303 61.8361 55.6825C61.6035 54.1825 61.3397 52.7071 61.0445 51.2563L64.7516 49.5361C65.1246 51.3503 65.4585 53.1967 65.7532 55.0754ZM59.8559 86.7613C57.4453 95.2306 53.3272 100.328 48.2623 101.113C47.806 101.184 47.3449 101.22 46.8831 101.219C36.6826 101.219 25.95 84.1034 22.4901 61.7838C21.8021 57.3791 21.44 52.9297 21.4069 48.4718C21.6468 48.7238 21.8849 48.9771 22.112 49.2408C22.716 49.9429 23.1934 50.7241 23.7487 51.4603C23.7932 51.5212 23.9144 51.4883 23.8809 51.4043C23.2974 50.1851 22.4525 49.1094 21.4063 48.2538C21.4038 47.4419 21.4132 46.6379 21.4343 45.8419C22.0736 46.7741 22.5571 47.8513 23.4437 48.5436C23.4589 48.5573 23.4787 48.5646 23.4991 48.564C23.5195 48.5635 23.539 48.5551 23.5534 48.5407C23.5678 48.5262 23.5762 48.5068 23.5767 48.4864C23.5773 48.466 23.57 48.4461 23.5563 48.431C22.8256 47.5377 22.2015 46.5226 21.4367 45.6488C21.4667 44.621 21.5165 43.6102 21.5859 42.6165C22.1513 43.3663 22.6706 44.1498 23.1411 44.9626C23.1837 45.0235 23.2799 44.9699 23.2409 44.9017C22.7984 44.0378 22.2445 43.2357 21.5932 42.516C21.6608 41.5637 21.7436 40.6284 21.8465 39.7095C22.232 40.6061 22.6641 41.4819 23.1411 42.3333C23.1495 42.3427 23.1607 42.3492 23.173 42.3519C23.1853 42.3547 23.1981 42.3535 23.2098 42.3486C23.2214 42.3438 23.2312 42.3354 23.2379 42.3247C23.2446 42.314 23.2477 42.3015 23.247 42.2889C23.0034 41.3201 22.2934 40.4621 21.8617 39.5634C21.9719 38.5958 22.1053 37.6538 22.2545 36.7289C22.7891 37.7032 23.1599 38.7639 23.7402 39.7174C23.7514 39.7347 23.7687 39.7469 23.7887 39.7517C23.8087 39.7565 23.8297 39.7533 23.8474 39.743C23.8651 39.7326 23.8782 39.7158 23.8839 39.6961C23.8895 39.6764 23.8874 39.6552 23.8778 39.6371C23.3463 38.6135 22.8963 37.5351 22.2819 36.5566C22.4037 35.8143 22.534 35.083 22.6795 34.3712C22.9569 35.0306 23.2677 35.6754 23.6105 36.3033C23.6379 36.3563 23.7146 36.3185 23.7031 36.2643C23.4627 35.5284 23.1322 34.825 22.7191 34.1703C24.7894 24.2353 29.1906 17.4161 35.1409 16.493C35.5972 16.4222 36.0583 16.3868 36.52 16.387C44.5236 16.387 52.8535 26.9273 57.7418 42.2481L53.3723 45.9375C49.5507 34.756 43.0683 27.3675 36.9785 28.3089C29.1059 29.5316 24.8253 44.2063 27.432 61.0184C29.9225 77.0839 37.8146 89.3808 45.3773 89.3808C45.7308 89.381 46.0838 89.3539 46.4331 89.2998C53.9745 88.1301 58.2174 74.6093 56.2676 58.6899L61.1669 57.5476C62.6332 68.29 62.1796 78.6049 59.8559 86.7613ZM55.0644 56.7328C55.1308 57.1591 55.1905 57.589 55.2471 58.0152L52.0753 58.7696C52.0144 58.2569 51.9535 57.7436 51.8719 57.2273C51.7891 56.6927 51.6892 56.1672 51.5894 55.6441L54.6242 54.2357C54.7849 55.0559 54.9335 55.8883 55.0644 56.7328ZM46.6474 88.3073C45.4649 87.4455 44.1851 86.7257 42.8344 86.1627C42.793 86.1432 42.7559 86.2041 42.7979 86.2236C44.0359 86.8569 45.2302 87.5721 46.3728 88.3645C46.3454 88.3694 46.3186 88.3779 46.2912 88.3822C38.9289 89.5172 30.876 77.1849 28.3485 60.8747C28.2803 60.4362 28.2194 59.9996 28.1609 59.5643C29.0268 60.5111 29.819 61.5311 30.7305 62.431C30.7701 62.47 30.8456 62.417 30.8103 62.3701C29.9916 61.3161 29.0983 60.3223 28.1372 59.3962C28.0489 58.7264 27.9746 58.067 27.9082 57.4087C28.7199 58.6266 29.3416 60.0812 30.5759 60.913C30.6447 60.9593 30.7214 60.8564 30.6635 60.7991C29.5645 59.7141 28.8429 58.3635 27.8845 57.1664C27.783 56.1268 27.7077 55.101 27.6586 54.089C28.4849 55.2946 29.3154 56.5362 30.2416 57.6669C30.3067 57.7461 30.4242 57.645 30.378 57.5616C29.6984 56.2622 28.6066 55.1679 27.7024 54.0256C27.6994 54.0224 27.6958 54.0197 27.6918 54.018C27.6877 54.0162 27.6834 54.0152 27.679 54.0152C27.6745 54.0152 27.6702 54.0162 27.6661 54.018C27.6621 54.0197 27.6585 54.0224 27.6555 54.0256C27.6196 53.2669 27.5946 52.5161 27.5885 51.7769C28.2242 52.6464 28.9221 53.4636 29.4762 54.3952C29.5194 54.4683 29.6235 54.4044 29.5888 54.3295C29.0304 53.3639 28.3593 52.468 27.5898 51.6606C27.5845 50.9807 27.591 50.3109 27.6092 49.6512C28.0325 50.5242 28.5627 51.3411 29.1875 52.0832C29.2259 52.127 29.2959 52.0704 29.2673 52.0223C28.7546 51.1503 28.1177 50.3716 27.6129 49.4953C27.9441 38.4217 31.5501 30.0893 37.121 29.2271C37.4366 29.1784 37.7553 29.154 38.0746 29.1541C43.5237 29.1541 49.1963 36.2229 52.6312 46.5732L49.7864 48.9753C48.9933 46.7209 47.9381 44.5674 46.6426 42.5592C44.0851 38.6963 41.1453 36.8111 38.3614 37.2398C32.6614 38.1239 29.6637 48.2891 31.5385 60.3784C32.4227 66.0808 34.2786 71.2901 36.7673 75.0464C39.0848 78.5471 41.7177 80.4262 44.2623 80.4262C44.5254 80.4261 44.788 80.4057 45.0478 80.3653C45.2068 80.3403 45.3639 80.3044 45.5197 80.2673C45.7944 80.4018 46.0678 80.5382 46.343 80.671C46.4039 80.699 46.452 80.6149 46.3941 80.5833C46.164 80.4585 45.9326 80.3361 45.7006 80.2143C48.1782 79.4891 50.1627 76.8878 51.3294 72.7856C52.4222 68.4929 52.7098 64.0348 52.1776 59.6374L55.3591 58.8957C57.198 74.0186 53.4581 86.8356 46.6474 88.3073ZM50.9567 57.3698C51.0407 57.9111 51.1065 58.4481 51.1704 58.9852L46.0239 60.2097C45.9999 59.5727 45.9414 58.9375 45.8486 58.3069L50.7198 56.046C50.802 56.4856 50.8873 56.9228 50.9567 57.3698ZM44.5893 64.3509C43.8434 64.892 43.1978 65.5592 42.6816 66.3226C42.4563 66.3201 42.2342 66.2695 42.0301 66.174C42.9374 65.1784 43.8903 64.231 44.8792 63.3176C44.8062 63.6682 44.7093 64.0135 44.5893 64.3509ZM44.3878 64.8454C44.1659 65.415 43.7566 65.892 43.2272 66.1978C43.3619 65.9953 43.5079 65.8005 43.6644 65.6144C43.897 65.3508 44.1406 65.0962 44.3896 64.8454H44.3878ZM38.6865 53.698C38.7109 53.6122 38.7395 53.5342 38.7663 53.4545C39.0592 53.1951 39.3064 52.8456 39.5549 52.5916C40.0101 52.1353 40.4937 51.7082 41.0028 51.3129C41.2063 51.3567 41.4015 51.433 41.5807 51.5388C40.9176 51.8728 40.3031 52.2954 39.754 52.795C39.3495 53.1621 38.9701 53.556 38.6183 53.9739C38.6421 53.8783 38.6616 53.7851 38.6865 53.698ZM39.4373 52.0649C39.6891 51.6719 40.0862 51.3945 40.5419 51.2934C40.573 51.2886 40.6028 51.2886 40.6375 51.2861C40.2067 51.4949 39.8035 51.7565 39.4373 52.0649ZM38.4527 54.7837C38.9694 54.3894 39.4277 53.924 39.8143 53.4015C40.4113 52.7642 41.0584 52.1758 41.7494 51.6417C41.9511 51.7789 42.1388 51.9358 42.3096 52.11C40.7547 52.9258 39.4048 54.0833 38.3614 55.4955C38.3851 55.252 38.4162 55.0151 38.4533 54.7837H38.4527ZM45.1069 60.4277L43.95 60.7029C44.3208 60.446 44.7026 60.2049 45.0911 59.9722C45.0996 60.1281 45.1026 60.2773 45.1069 60.4277ZM39.2857 62.3762C40.1584 61.4368 41.0881 60.552 42.0697 59.7269C42.1143 59.7732 42.1684 59.8093 42.2283 59.8328C42.2882 59.8562 42.3525 59.8664 42.4167 59.8626C41.3104 60.6885 40.3004 61.636 39.4057 62.6874C39.3647 62.5855 39.3247 62.4826 39.2857 62.3787V62.3762ZM44.0352 58.1406C44.2837 57.947 44.5321 57.7534 44.7817 57.5622C44.7951 57.631 44.8061 57.7028 44.8189 57.7723L44.0352 58.1406ZM38.499 59.2976C38.4905 59.2403 38.485 59.1843 38.4765 59.1271C38.9429 58.6235 39.4319 58.1461 39.9318 57.6803C39.9537 57.7401 39.9882 57.7945 40.0328 57.8398C40.0414 57.849 40.0529 57.8526 40.0627 57.8605C39.5251 58.3889 39.0169 58.9462 38.5404 59.5302C38.527 59.4565 38.5112 59.3798 38.4984 59.3012L38.499 59.2976ZM38.5873 59.7938C38.6007 59.7829 38.6147 59.7737 38.6281 59.7628C38.6159 59.778 38.6019 59.7914 38.5897 59.8066L38.5873 59.7938ZM40.372 57.9671C40.4713 57.9654 40.5671 57.9305 40.6442 57.8679L43.6467 55.3555C43.7892 55.2623 43.9347 55.1728 44.0797 55.0851C44.1223 55.1978 44.1661 55.3086 44.2075 55.4261C42.941 56.1563 41.7359 56.9882 40.604 57.9135C40.3544 58.1059 40.1077 58.3032 39.8678 58.5066C40.0335 58.3331 40.2009 58.1504 40.3708 57.9738L40.372 57.9671ZM42.1768 55.3926C42.0916 55.4535 42.0063 55.5077 41.9217 55.5686L41.8931 55.5899C41.6519 55.7653 41.4151 55.9433 41.1825 56.1239L40.9529 56.3023L40.5656 56.6038L40.4439 56.6981L40.4372 56.7036L40.4159 56.7207C40.3501 56.7724 40.2843 56.8236 40.2192 56.8759C39.5355 57.3855 38.9283 57.9904 38.4162 58.6722C38.4016 58.5504 38.3888 58.4238 38.3772 58.3002C39.1536 57.6955 39.7625 56.8327 40.5041 56.183C41.4566 55.3398 42.4792 54.5793 43.5609 53.9099C43.598 53.983 43.6364 54.0536 43.6729 54.1291L42.1768 55.3926ZM38.3535 58.0286C38.3405 57.8638 38.3299 57.7002 38.3218 57.5378C39.8362 55.9919 41.4681 54.5656 43.2028 53.2718C43.3106 53.4478 43.416 53.6371 43.5189 53.832C41.5071 54.8304 39.7427 56.2639 38.3535 58.0286ZM40.1644 55.2508C39.4596 55.7715 38.8321 56.3894 38.3005 57.086C38.2968 56.8991 38.3005 56.7152 38.3005 56.5319C38.9886 56.0375 39.5183 55.2751 40.1522 54.7119C40.9815 53.9685 41.873 53.2975 42.8168 52.7061C42.9233 52.8486 43.0287 52.9996 43.1316 53.1622C42.0894 53.7806 41.0971 54.4796 40.1638 55.2526L40.1644 55.2508ZM38.3108 56.2542C38.3145 56.1513 38.323 56.0515 38.3291 55.9498C38.8838 55.4407 39.332 54.7709 39.8666 54.2491C40.6383 53.4849 41.4735 52.7876 42.3631 52.1648C42.5086 52.3167 42.6454 52.4767 42.7729 52.644C41.0143 53.4678 39.4827 54.7073 38.3102 56.2555L38.3108 56.2542ZM44.2435 55.5443C44.2841 55.6628 44.3232 55.7834 44.361 55.9059C43.1743 56.6153 42.04 57.4089 40.9669 58.2807C40.114 58.8998 39.3588 59.6434 38.7267 60.4868C38.7072 60.4009 38.6872 60.3157 38.6658 60.2292C40.389 58.5124 42.2549 56.9451 44.2435 55.5443ZM44.4085 56.0509C44.4742 56.2695 44.5351 56.4948 44.5912 56.7261C42.4043 57.8505 40.4805 59.4254 38.9465 61.3472C38.8978 61.1767 38.8491 61.0056 38.8053 60.8308C40.5237 59.0704 42.3992 57.4704 44.4085 56.0509ZM41.3591 59.2464C42.3772 58.3534 43.4678 57.5467 44.6198 56.8345C44.6701 57.0375 44.7172 57.247 44.761 57.4629C44.1181 57.8223 43.5008 58.2257 42.9136 58.6704L42.1939 59.0083C42.1187 59.0445 42.0552 59.1011 42.0106 59.1716C41.9661 59.2421 41.9422 59.3238 41.9418 59.4072L41.5637 59.6995C40.6494 60.351 39.8401 61.1385 39.1639 62.0346C39.1122 61.8824 39.061 61.7302 39.0135 61.5737C39.8636 60.8984 40.5364 59.9595 41.3591 59.2464ZM41.4644 61.0013C42.1196 60.432 42.804 59.8931 43.5128 59.3913L44.9675 58.7161L44.9772 58.7916C43.9671 59.4268 42.9989 60.1265 42.0788 60.8862C41.1499 61.5557 40.3357 62.3715 39.6681 63.3018C39.6182 63.194 39.5689 63.0862 39.5214 62.9748C40.1973 62.358 40.7775 61.5974 41.4668 61.0007L41.4644 61.0013ZM44.9985 58.942C45.0351 59.2519 45.0649 59.557 45.0838 59.8553C44.4562 60.1415 43.853 60.4784 43.2802 60.8625L42.8168 60.9727C42.7194 60.9967 42.6341 61.0553 42.5766 61.1375C42.5192 61.2197 42.4935 61.3199 42.5044 61.4196C41.5699 62.1453 40.7158 62.969 39.9567 63.8766C39.908 63.7859 39.8593 63.6939 39.8124 63.6007C41.4077 61.9054 43.1424 60.347 44.9985 58.942ZM42.2718 61.9725C42.3936 61.8739 42.5154 61.7795 42.6372 61.6827C42.6856 61.7273 42.7442 61.7595 42.8078 61.7765C42.8714 61.7936 42.9382 61.795 43.0025 61.7807L43.5225 61.6589C43.1955 61.9074 42.874 62.1564 42.5635 62.3957C41.7214 62.9962 40.9768 63.7226 40.3556 64.5494C40.2549 64.396 40.1571 64.2358 40.0621 64.069C40.8579 63.4729 41.4985 62.6101 42.2706 61.975L42.2718 61.9725ZM44.1941 61.5024L44.7215 61.3807C44.0571 61.8623 43.4263 62.4389 42.8302 62.9498C42.0449 63.5743 41.3579 64.3133 40.7922 65.1419C40.711 65.0412 40.6298 64.9345 40.5486 64.8216C41.6873 63.635 42.905 62.5269 44.1935 61.5049L44.1941 61.5024ZM45.1075 61.2948C45.099 61.5572 45.085 61.8136 45.0631 62.0602C44.3617 62.5472 43.692 63.0782 43.0579 63.6501C42.3496 64.2047 41.729 64.863 41.2172 65.6028C41.1484 65.5377 41.0796 65.4738 41.0114 65.4001C42.2883 63.9467 43.6567 62.5763 45.1081 61.2972L45.1075 61.2948ZM41.4735 65.8239C42.6 64.5815 43.7899 63.3982 45.0387 62.2788C45.0131 62.5122 44.9815 62.7373 44.9437 62.9541C44.4121 63.3523 43.9013 63.8029 43.4214 64.2072C42.7699 64.7224 42.1884 65.3203 41.6915 65.9859C41.6209 65.9408 41.5478 65.8836 41.4741 65.8269L41.4735 65.8239ZM45.6866 57.3673C45.4867 56.3515 45.1886 55.3576 44.7964 54.3995L49.3522 50.5877C49.8293 52.0655 50.2257 53.568 50.5396 55.0888L45.6866 57.3673ZM44.3987 53.5227C43.3191 51.3988 41.8474 50.1469 40.4 50.3764C39.2315 50.5591 38.3066 51.6472 37.7951 53.4441C36.8876 57.4167 37.5337 61.5859 39.6011 65.0975C40.0289 65.7852 40.5998 66.3727 41.275 66.8201C41.2815 66.8389 41.2943 66.855 41.3113 66.8654C41.3283 66.8759 41.3484 66.8801 41.3682 66.8773C41.7614 67.1169 42.2109 67.2484 42.6713 67.2585C42.7856 67.2583 42.8998 67.2493 43.0129 67.2317C44.828 66.9504 45.9752 64.4307 46.0331 61.0756L51.2697 59.8578C51.7745 64.1 51.4938 68.399 50.4416 72.5396C49.2779 76.626 47.3136 79.0823 44.9096 79.455C44.7102 79.484 44.5089 79.4987 44.3074 79.4988C42.9393 78.8304 41.6207 78.0651 40.3617 77.2087C40.3312 77.1868 40.3008 77.2367 40.3324 77.2586C41.4911 78.0996 42.7146 78.8474 43.9914 79.4951C41.8511 79.3581 39.5944 77.6361 37.5442 74.5404C35.1293 70.8925 33.3227 65.8147 32.4592 60.2414C30.6934 48.8548 33.4079 38.9502 38.5087 38.1586C38.7217 38.1256 38.9369 38.1091 39.1524 38.1093C41.3743 38.1093 43.7369 39.8453 45.8747 43.0738C47.1904 45.1169 48.252 47.3128 49.0362 49.6128L44.3987 53.5227ZM51.4012 54.6851C51.0633 53.0831 50.6352 51.5014 50.1188 49.9478L52.9558 47.573C53.5196 49.3827 54.0147 51.2874 54.4299 53.2614L51.4012 54.6851ZM53.7151 46.9416L58.0712 43.293C58.7891 45.6494 59.4242 48.1119 59.9668 50.6608L55.2891 52.8596C54.8458 50.8002 54.3149 48.8219 53.7108 46.9416H53.7151ZM56.158 57.8003C56.1032 57.3984 56.0478 56.9959 55.9851 56.591C55.8402 55.6575 55.6746 54.7393 55.4943 53.8326L60.1829 51.657C60.4577 53.0238 60.7052 54.4131 60.9252 55.825C60.9672 56.0965 61.0025 56.3669 61.0421 56.6379L56.158 57.8003ZM64.5354 48.5199L60.8302 50.2595C60.2621 47.626 59.5953 45.0838 58.8385 42.6548L62.2593 39.7929C63.1161 42.5872 63.8748 45.5039 64.5305 48.5199H64.5354ZM27.3358 7.20708C27.5021 7.18151 27.6695 7.16385 27.8364 7.14619C26.0389 7.68538 24.2706 8.31767 22.5388 9.04051C23.9949 8.10634 25.6279 7.48222 27.3358 7.20708ZM21.2687 9.94109C23.6897 9.20892 26.0395 8.25921 28.2894 7.10357H28.3223C26.9982 7.85313 25.7835 8.78106 24.712 9.86132C22.5529 10.678 20.4516 11.64 18.4226 12.7409C19.2678 11.7079 20.222 10.7692 21.2687 9.94109ZM18.7447 19.1655C17.6237 19.7069 16.5412 20.3246 15.5047 21.0141C14.6139 21.6492 13.7876 22.3818 12.9394 23.0771C13.1878 22.358 13.4496 21.6669 13.72 20.9928C14.6869 20.3541 15.5327 19.5461 16.4601 18.8531C17.5484 18.0922 18.6805 17.3958 19.8505 16.7676C19.4632 17.5324 19.0967 18.3368 18.7447 19.1655ZM19.9625 16.5618C18.702 17.1737 17.4817 17.8652 16.3091 18.6321C15.4706 19.2294 14.6906 19.9108 13.8953 20.5715C14.1884 19.8619 14.4929 19.1777 14.8087 18.5188C16.8431 17.0574 18.8038 15.4639 21.1225 14.4957C20.7206 15.1546 20.3321 15.8414 19.9607 16.5618H19.9625ZM21.2352 14.3088C18.9328 15.1206 16.8206 16.3945 15.0285 18.0524C15.4962 17.1159 15.9912 16.2439 16.5057 15.4207C18.5029 14.6638 20.4396 13.7559 22.2989 12.7049C21.9311 13.217 21.578 13.7547 21.2339 14.3088H21.2352ZM22.6393 12.2489C20.6167 13.0233 18.6532 13.9442 16.7645 15.0042C17.1798 14.3642 17.6134 13.7711 18.0566 13.2049C20.1625 12.4145 22.2103 11.4771 24.1847 10.3996C23.637 10.9892 23.1208 11.6073 22.6381 12.2513L22.6393 12.2489ZM12.8157 23.4425C13.8259 22.7946 14.6961 21.9519 15.6569 21.2346C16.6174 20.5545 17.619 19.9342 18.6558 19.3774C18.4066 19.9725 18.1667 20.5828 17.9361 21.2084C15.6435 22.232 13.9008 24.4301 12.0114 26.0711C12.0985 25.7618 12.1794 25.447 12.2708 25.1425C12.4449 24.5623 12.6282 23.999 12.8157 23.4425ZM10.0184 36.2211C11.358 34.4138 13.3248 33.0225 15.1856 31.7614C15.0261 32.6937 14.8763 33.6375 14.7484 34.6032C12.9351 35.7425 10.9044 37.093 9.74257 38.8479C9.82356 37.9632 9.91307 37.0863 10.0184 36.2211ZM15.21 31.6244C13.4515 32.7204 11.3872 34.0144 10.0842 35.6883C10.1853 34.9028 10.2975 34.1268 10.4209 33.3604C11.833 31.5489 13.86 30.1557 15.7416 28.8837C15.5487 29.7796 15.3716 30.6934 15.21 31.625V31.6244ZM15.7671 28.7625C14.0263 29.8531 11.9085 31.1318 10.5183 32.7929C10.6017 32.2979 10.684 31.8016 10.7771 31.3145C12.1167 29.229 14.2991 27.6781 16.3517 26.2879C16.1422 27.0959 15.9498 27.9222 15.7671 28.7631V28.7625ZM16.3864 26.1485C14.4829 27.3377 12.2026 28.754 10.9166 30.6386C11.0383 30.023 11.1699 29.4135 11.3087 28.8118C12.6586 26.5589 14.9993 24.9221 17.1676 23.4534C16.8912 24.3315 16.6281 25.2254 16.3858 26.1485H16.3864ZM17.2127 23.3164C15.2264 24.5586 12.7804 26.0468 11.4889 28.0659C11.6241 27.5118 11.7662 26.9638 11.9152 26.4219C14.1346 25.0652 15.5839 22.6466 17.8642 21.4093C17.6373 22.0308 17.4201 22.6667 17.2127 23.317V23.3164ZM9.70056 39.3862C10.9318 37.4986 12.8474 36.0524 14.7271 34.7639C14.5651 36.0049 14.4355 37.2781 14.3265 38.5703C12.6714 39.6054 10.7771 40.8135 9.5051 42.3455C9.55381 41.3485 9.61897 40.3621 9.70056 39.3862ZM39.0446 109.88C39.3815 110.696 39.8326 111.46 40.3842 112.149C39.8723 112.095 39.364 112.01 38.8619 111.897C38.6141 111.364 38.3535 110.838 38.1263 110.293C37.9321 109.827 37.758 109.351 37.5485 108.893C38.0435 109.248 38.5441 109.575 39.0446 109.88ZM37.1271 108.594C37.3442 109.698 37.7321 110.763 38.2767 111.748C37.7003 111.588 37.1337 111.395 36.5797 111.17C35.9337 109.709 35.4697 108.186 34.8748 106.716C35.5937 107.379 36.3454 108.006 37.1271 108.594ZM34.4339 106.301C34.6802 107.919 35.203 109.482 35.9793 110.923C35.1913 110.566 34.4282 110.156 33.6953 109.697C33.2974 108.757 32.9646 107.792 32.6991 106.807C32.4556 105.822 32.3143 104.817 32.075 103.834C32.8491 104.717 33.6354 105.539 34.4339 106.301ZM32.7046 109.033C32.2418 108.709 31.7803 108.363 31.3199 107.992C30.7409 105.578 29.8379 103.29 29.6625 100.819C30.338 101.736 31.0258 102.606 31.7261 103.426C31.6406 105.344 31.9745 107.257 32.7046 109.032V109.033ZM30.7037 107.476C29.7137 106.622 28.7754 105.71 27.8936 104.744C27.5636 101.872 26.3013 99.2908 26.6983 96.3583C27.535 97.7531 28.3984 99.0682 29.2886 100.303C29.045 102.683 29.7897 105.231 30.7037 107.476ZM27.1891 103.963C26.4763 103.144 25.7711 102.268 25.0737 101.335C24.8643 97.9299 23.9631 94.6108 23.8961 91.1844C24.7421 92.9093 25.6262 94.5484 26.5485 96.102C25.9226 98.5687 26.3281 101.505 27.1885 103.963H27.1891ZM24.3747 100.361C24.1859 100.096 23.996 99.8389 23.809 99.5649C23.0288 98.4217 22.2744 97.2242 21.5457 95.9723C21.5652 95.9773 21.5855 95.978 21.6053 95.9744C21.6251 95.9708 21.6439 95.9629 21.6603 95.9514C21.6768 95.9398 21.6905 95.9248 21.7006 95.9073C21.7106 95.8899 21.7168 95.8705 21.7186 95.8505C21.8867 92.4948 20.9721 89.3412 21.6035 86.058C22.2648 87.6795 22.9572 89.2493 23.6824 90.7521C23.4322 93.9717 23.6654 97.2107 24.3741 100.361H24.3747ZM21.4154 95.7409C20.8065 94.6822 20.2154 93.5876 19.6422 92.457C19.6489 92.4357 19.6636 92.4199 19.6617 92.3961C19.3741 88.9198 19.505 85.4216 20.0514 81.9765C20.5004 83.2479 20.9697 84.4888 21.4592 85.6993C20.4862 88.8456 20.6695 92.6208 21.4148 95.7409H21.4154ZM18.4884 90.0859C17.7788 88.5564 17.1057 86.9744 16.4692 85.3401C16.6356 82.2342 17.2237 79.1654 18.2174 76.218C18.7094 77.9388 19.2371 79.6159 19.8006 81.2494C18.8945 83.8464 18.0682 87.2661 18.4878 90.0853L18.4884 90.0859ZM15.8883 83.8062C15.3431 82.3307 14.8288 80.8201 14.3453 79.2747C14.988 76.5944 15.8683 73.9767 16.9758 71.4527C17.3298 72.9514 17.71 74.4239 18.1163 75.8703C16.7783 78.311 16.016 81.0252 15.8877 83.8056L15.8883 83.8062ZM13.9605 78.0173C13.5952 76.795 13.2501 75.5547 12.9254 74.2963C13.332 71.1282 14.2649 68.0502 15.6855 65.1894C16.033 67.1619 16.427 69.0966 16.8674 70.9935C15.4281 73.1112 14.4383 75.5015 13.9593 78.0167L13.9605 78.0173ZM12.6763 73.3257C12.2521 71.6207 11.8665 69.8857 11.5194 68.1207C12.6763 65.2113 13.3309 62.2258 14.8306 59.4687C14.9713 60.6067 15.1241 61.7497 15.3025 62.9005C15.4048 63.5612 15.5181 64.2145 15.6307 64.8679C13.9582 67.3976 12.9426 70.3042 12.6757 73.3251L12.6763 73.3257ZM11.3726 67.3583C11.1291 66.0796 10.8995 64.7936 10.698 63.4918C10.6139 62.9504 10.5415 62.4109 10.466 61.8708C11.914 59.9978 13.0806 57.922 14.4568 55.9942C14.5542 57.0546 14.6679 58.1214 14.7978 59.1947C13.1647 61.6827 12.0035 64.45 11.372 67.3583H11.3726ZM10.416 61.525C10.2058 59.9938 10.0286 58.4715 9.88445 56.9581C11.1839 54.6991 12.244 52.3383 14.0902 50.4781C14.1612 52.246 14.2788 54.0384 14.4428 55.8554C12.9523 57.6365 11.6046 59.5325 10.4124 61.5256L10.416 61.525ZM14.005 47.2034C12.2886 48.7326 10.7872 50.4872 9.54163 52.4193C9.49211 51.4966 9.45537 50.5794 9.43142 49.6677C10.7928 47.7026 12.3301 45.8654 14.0244 44.1789C14.0025 45.1759 13.996 46.1841 14.005 47.2034ZM14.0293 44.0371C12.2779 45.5168 10.7278 47.2196 9.41863 49.102C9.39753 48.1127 9.39022 47.1307 9.39671 46.1561C10.7326 44.5318 12.3201 43.1321 14.0987 42.01C14.0687 42.6794 14.0457 43.3547 14.0299 44.0358L14.0293 44.0371ZM14.0086 47.3727C14.0179 48.3242 14.0417 49.2844 14.0798 50.2534C12.2183 51.8813 10.7578 53.917 9.81199 56.2019C9.71578 55.1186 9.62932 54.0396 9.56843 52.9686C10.8852 50.9793 12.3707 49.1071 14.0086 47.3727ZM14.1036 41.8839C12.4735 42.924 10.5896 44.14 9.39854 45.7067C9.41112 44.7389 9.43792 43.7797 9.47892 42.829C10.8757 41.2214 12.5056 39.8322 14.3143 38.7079C14.2284 39.7515 14.1541 40.8068 14.1036 41.8821V41.8839ZM6.27544 122.072H1.03515L3.53168 99.7055C5.02352 98.361 6.51535 97.058 8.08816 95.8054C8.12652 95.775 8.07659 95.7104 8.0358 95.7372C6.48795 96.7395 4.76412 97.782 3.58405 99.2409L4.08336 94.7618C5.45358 93.3209 7.00314 92.0619 8.69403 91.0157C8.73239 90.9902 8.69768 90.9293 8.6575 90.9548C7.16384 91.8475 5.19645 92.8078 4.13511 94.3002L8.67759 53.5227C8.88827 56.8449 9.2524 60.2249 9.78094 63.6306C10.1493 66.0102 10.595 68.3503 11.1004 70.6483L10.8855 72.9421C9.66045 74.0031 8.5854 75.2258 7.68994 76.5766C7.65401 76.6375 7.7423 76.713 7.79223 76.6558C8.82738 75.4702 9.79494 74.2463 10.8709 73.0961L8.41089 99.3182C7.19306 100.304 5.75299 100.981 4.61067 102.058C4.54978 102.119 4.63868 102.202 4.70262 102.15C5.89182 101.195 7.23143 100.441 8.39749 99.4583L7.72221 106.653C6.24569 107.245 4.91588 108.152 3.82518 109.31C3.76429 109.371 3.84284 109.488 3.92139 109.436C4.61494 108.974 5.25551 108.434 5.94175 107.96C6.50987 107.568 7.1133 107.238 7.69846 106.877L7.05728 113.709C5.53666 114.102 4.11592 114.812 2.88746 115.791C2.8083 115.861 2.91242 115.999 3.00132 115.938C4.27392 115.109 5.62934 114.415 7.04571 113.866L6.27544 122.072ZM11.1321 122.072H7.20646L11.7648 73.4986C12.3737 75.9448 13.0553 78.3254 13.8095 80.6405L11.1321 122.072ZM22.6046 122.072L21.3569 97.4519C21.905 98.3562 22.4652 99.2421 23.0424 100.088C24.0227 101.526 25.0796 102.911 26.2087 104.235L28.1506 122.072H22.6046ZM33.0535 122.072H29.0822L27.2707 105.432C28.5839 106.872 30.0273 108.187 31.5824 109.362L33.0535 122.072ZM40.7215 112.183C40.2734 111.453 39.7229 110.788 39.3052 110.038C40.0399 110.471 40.8023 110.856 41.5874 111.19C41.738 111.459 41.8953 111.725 42.0593 111.988C42.108 112.066 42.1586 112.145 42.2115 112.223C41.7147 112.24 41.2174 112.226 40.7221 112.183H40.7215ZM43.5925 112.096C43.2637 112.147 42.9325 112.175 42.6012 112.198C42.4673 112.015 42.3211 111.844 42.1908 111.673L41.9363 111.338C42.6895 111.638 43.4647 111.88 44.255 112.062C44.0338 112.054 43.8123 112.065 43.5932 112.097L43.5925 112.096ZM46.6243 112.395C46.8502 112.406 47.0767 112.427 47.3026 112.427C47.9566 112.427 48.6097 112.377 49.256 112.277C49.5288 112.235 49.7943 112.167 50.0622 112.108C49.2158 112.524 48.4585 113.101 47.8324 113.807C47.7636 113.899 47.9042 113.983 47.9804 113.921C48.8182 113.233 49.7462 112.664 50.592 111.994C50.9884 111.888 51.3781 111.761 51.7635 111.618L52.0923 114.561C52.0779 114.558 52.0628 114.559 52.0491 114.565C50.458 115.31 49.0112 116.33 47.7758 117.579C47.746 117.614 47.7291 117.658 47.728 117.703C47.7268 117.748 47.7414 117.793 47.7694 117.829C47.7973 117.865 47.8368 117.89 47.8811 117.9C47.9255 117.91 47.972 117.904 48.0126 117.884C49.5349 117.145 50.8349 115.794 52.1082 114.701L52.5758 118.889C52.5662 118.885 52.5558 118.883 52.5454 118.883C52.5349 118.883 52.5245 118.885 52.5149 118.889C51.7847 119.239 51.1066 119.688 50.5 120.224C49.8396 120.683 49.2865 121.279 48.8791 121.973C48.8652 122.003 48.8624 122.037 48.8712 122.07H47.4951L46.6243 112.395ZM49.1878 122.072C49.7426 121.637 50.275 121.174 50.7832 120.686C51.4314 120.182 52.0352 119.624 52.588 119.017L52.929 122.072H49.1878ZM57.4617 122.072H53.863L52.6531 111.236C53.8018 110.704 54.8787 110.029 55.8584 109.227L57.4617 122.072ZM49.1129 111.361C38.3626 113.032 26.9382 99.876 20.3723 80.1034C20.376 80.0852 20.3784 80.0669 20.3821 80.0486C20.3845 80.0401 20.3851 80.0311 20.3837 80.0223C20.3823 80.0135 20.3789 80.0051 20.374 79.9977C20.369 79.9904 20.3624 79.9842 20.3548 79.9796C20.3471 79.9751 20.3386 79.9722 20.3297 79.9713C19.2897 76.8245 18.3733 73.512 17.6018 70.0643L17.6158 70.0333C17.6292 70.0047 17.6085 69.9901 17.5853 69.9888C17.0605 67.6354 16.5977 65.2247 16.2153 62.7574C14.6748 53.2725 14.5107 43.6149 15.7282 34.0832L15.9108 33.9614C15.9492 33.9352 15.9139 33.8737 15.8743 33.9005L15.7458 33.9815C16.3269 29.5282 17.4034 25.1536 18.9554 20.9392C19.0266 20.9161 19.0948 20.8875 19.1679 20.8668C19.1772 20.8642 19.1851 20.858 19.1898 20.8496C19.1945 20.8412 19.1958 20.8313 19.1932 20.822C19.1906 20.8127 19.1844 20.8049 19.176 20.8001C19.1676 20.7954 19.1577 20.7942 19.1484 20.7968C19.0954 20.8089 19.0455 20.8266 18.9931 20.8406C22.1163 12.7256 26.8956 7.39584 32.8544 6.4703C33.4658 6.37555 34.0837 6.32811 34.7024 6.32842C45.0734 6.32842 55.775 19.5418 61.9208 38.7274L58.5017 41.6142C53.1433 25.187 43.7898 14.2236 35.0069 15.5778C26.2441 16.9381 20.6482 30.1874 20.4965 47.4336L20.4399 47.3824C20.4058 47.3514 20.3553 47.4007 20.3888 47.4336C20.4223 47.4664 20.46 47.506 20.4965 47.5419C20.4705 52.3577 20.8316 57.1677 21.5761 61.9256C25.1078 84.7038 36.2558 102.144 46.9251 102.143C47.4211 102.143 47.9164 102.105 48.4066 102.029C53.8503 101.185 58.2332 95.8529 60.7492 87.0146C63.1112 78.7164 63.5697 68.234 62.073 57.3357L65.9451 56.4333C69.9913 84.7781 62.5571 109.276 49.1141 111.361H49.1129Z" fill="url(#paint0_linear_2378_56871)"/>
<path d="M68.7 96.8791C68.6756 99.3421 67.0516 101.479 65.7601 103.455C64.3657 105.587 62.363 107.161 60.9029 109.216C60.8103 109.347 60.9668 109.533 61.1032 109.426C63.2644 107.675 65.1027 105.56 66.5353 103.175C67.6922 101.313 68.8966 99.1205 68.8558 96.8645C68.8534 96.764 68.7012 96.7811 68.7 96.8791Z" fill="url(#paint1_linear_2378_56871)"/>
<path d="M16.3968 2.42164C18.1834 1.98992 19.9285 1.42363 21.726 1.03576C23.5047 0.653361 25.3034 0.325158 27.0972 0.0499307C27.1271 0.0456683 27.1198 0 27.0918 0C23.5114 0.104733 19.5498 0.575421 16.314 2.22009C16.1977 2.27915 16.2799 2.44965 16.3968 2.42164Z" fill="url(#paint2_linear_2378_56871)"/>
<path d="M19.3523 6.29365C22.6502 5.4972 25.8677 4.4517 29.1893 3.73623C32.467 3.02989 35.7917 2.42402 39.1054 1.91619C39.1583 1.90828 39.1443 1.82242 39.0926 1.82425C32.4835 2.01727 25.1723 2.8868 19.1958 5.92222C18.9827 6.02756 19.1367 6.34602 19.3523 6.29365Z" fill="url(#paint3_linear_2378_56871)"/>
<path d="M6.33345 119.375C5.08823 120.114 3.65425 120.564 2.44982 121.352C2.37066 121.404 2.41877 121.542 2.5168 121.511C3.89715 121.018 5.19889 120.328 6.38156 119.462C6.43453 119.426 6.38765 119.341 6.33345 119.375Z" fill="url(#paint4_linear_2378_56871)"/>
<path d="M2.98425 118.38C3.96399 117.922 4.97356 117.516 5.91615 116.983C5.96487 116.956 5.92163 116.881 5.87231 116.908C4.91632 117.422 3.88117 117.765 2.9331 118.293C2.87343 118.324 2.92336 118.407 2.98425 118.38Z" fill="url(#paint5_linear_2378_56871)"/>
<path d="M3.30562 117.324C4.31763 116.814 5.33939 116.359 6.37332 115.896C6.41168 115.879 6.38428 115.819 6.34531 115.829C5.28276 116.109 4.03753 116.438 3.20881 117.199C3.13939 117.263 3.22707 117.364 3.30562 117.324Z" fill="url(#paint6_linear_2378_56871)"/>
<path d="M3.44533 114.055C4.63109 113.443 5.81197 112.819 6.98798 112.182C7.02086 112.165 6.99163 112.116 6.95875 112.132C5.72839 112.659 4.53718 113.272 3.39418 113.968C3.38325 113.975 3.37546 113.986 3.37246 113.999C3.36945 114.012 3.37146 114.025 3.37806 114.036C3.38465 114.047 3.39534 114.056 3.40787 114.059C3.42041 114.063 3.43383 114.061 3.44533 114.055Z" fill="url(#paint7_linear_2378_56871)"/>
<path d="M4.52524 111.886C5.19144 111.39 5.91322 110.974 6.67591 110.646C6.71975 110.631 6.70087 110.561 6.65642 110.576C5.88586 110.902 5.15591 111.316 4.48139 111.81C4.4339 111.84 4.47774 111.915 4.52524 111.886Z" fill="url(#paint8_linear_2378_56871)"/>
<path d="M7.14244 108.616C7.1601 108.595 7.13026 108.564 7.11138 108.585C6.54836 109.115 5.9267 109.58 5.25847 109.969C5.22863 109.991 5.25847 110.041 5.2877 110.019C5.95726 109.623 6.57953 109.153 7.14244 108.616Z" fill="url(#paint9_linear_2378_56871)"/>
<path d="M3.0556 107.928C3.04195 107.943 3.03464 107.963 3.03518 107.983C3.03573 108.004 3.04408 108.023 3.05852 108.038C3.07296 108.052 3.09239 108.06 3.1128 108.061C3.13322 108.062 3.15306 108.054 3.16825 108.041C4.38607 106.98 5.87851 106.375 7.16149 105.414C7.22725 105.364 7.16575 105.252 7.09573 105.301C5.79022 106.207 4.0804 106.663 3.0556 107.928Z" fill="url(#paint10_linear_2378_56871)"/>
<path d="M2.99889 106.049C4.29039 105.091 5.82971 104.497 7.00247 103.377C7.04327 103.338 6.98238 103.279 6.94158 103.316C5.72376 104.388 4.14607 104.889 2.89415 105.913C2.81743 105.974 2.92094 106.107 2.99889 106.049Z" fill="url(#paint11_linear_2378_56871)"/>
<path d="M4.76868 100.836C4.76265 100.848 4.76046 100.861 4.76241 100.874C4.76437 100.886 4.77038 100.898 4.77955 100.907C4.78873 100.917 4.8006 100.923 4.81344 100.925C4.82627 100.926 4.83939 100.924 4.85088 100.918C5.84591 99.9929 6.92304 99.1599 8.06898 98.4296C8.10003 98.4089 8.06898 98.3596 8.03975 98.3797C6.84276 99.0459 5.74226 99.8723 4.76868 100.836Z" fill="url(#paint12_linear_2378_56871)"/>
<path d="M3.60903 100.932C5.38523 100.055 6.75832 98.4613 8.38351 97.3524C8.42187 97.3263 8.38716 97.2654 8.34697 97.2916C6.67637 98.3805 5.06815 99.5622 3.52988 100.831C3.46899 100.877 3.54693 100.962 3.60903 100.932Z" fill="url(#paint13_linear_2378_56871)"/>
<path d="M7.8757 94.6495C6.54401 95.6768 5.05218 96.5609 3.9671 97.867C3.8849 97.9657 4.01825 98.1057 4.11019 98.0101C5.32568 96.8485 6.603 95.7533 7.93659 94.7293C7.98043 94.6928 7.92076 94.6142 7.8757 94.6495Z" fill="url(#paint14_linear_2378_56871)"/>
<path d="M5.76246 94.2739C6.28795 93.8683 6.79273 93.4378 7.31274 93.0244C7.35659 92.9897 7.29448 92.9288 7.25185 92.9635C6.7355 93.3678 6.23375 93.7898 5.71192 94.1868C5.66259 94.2251 5.71131 94.3134 5.76246 94.2739Z" fill="url(#paint15_linear_2378_56871)"/>
<path d="M8.33421 89.2551C7.54262 90.0175 6.4545 90.4833 5.83767 91.4162C5.79749 91.4771 5.8943 91.5538 5.93997 91.4953C6.62743 90.6167 7.62239 90.1021 8.39632 89.3166C8.40447 89.3084 8.40902 89.2973 8.40897 89.2857C8.40891 89.2741 8.40425 89.263 8.39601 89.2548C8.38778 89.2467 8.37664 89.2421 8.36505 89.2422C8.35346 89.2422 8.34236 89.2469 8.33421 89.2551Z" fill="url(#paint16_linear_2378_56871)"/>
<path d="M9.57497 86.0145C8.2445 87.0983 6.91464 88.1871 5.69195 89.3939C5.63106 89.4548 5.72239 89.5425 5.78389 89.4859C7.05165 88.3289 8.32305 87.1818 9.62551 86.0656C9.66205 86.0352 9.6109 85.9859 9.57497 86.0145Z" fill="url(#paint17_linear_2378_56871)"/>
<path d="M8.85436 85.2928C8.85964 85.2858 8.8622 85.2771 8.86157 85.2683C8.86095 85.2595 8.85718 85.2513 8.85097 85.2451C8.84475 85.2388 8.83649 85.2351 8.82772 85.2345C8.81895 85.2338 8.81025 85.2364 8.80321 85.2417C7.55799 86.4077 6.26466 87.5555 5.05963 88.76C4.99082 88.8288 5.08033 88.9506 5.16497 88.8964C6.59713 87.9873 7.68951 86.5052 8.85436 85.2928Z" fill="url(#paint18_linear_2378_56871)"/>
<path d="M5.93656 85.7772C7.02485 84.8065 8.0501 83.7674 9.00608 82.6662C9.03653 82.6315 8.9866 82.5804 8.95494 82.6151C7.97033 83.6923 6.87733 84.6562 5.84462 85.6852C5.78312 85.7443 5.87446 85.8326 5.93656 85.7772Z" fill="url(#paint19_linear_2378_56871)"/>
<path d="M9.42252 79.2032C8.58648 79.7963 7.90024 80.5794 7.091 81.2126C7.04472 81.2492 7.10379 81.3192 7.15189 81.2924C8.04455 80.7931 8.64494 79.8785 9.46575 79.2775C9.51081 79.2458 9.46819 79.1709 9.42252 79.2032Z" fill="url(#paint20_linear_2378_56871)"/>
<path d="M6.72481 80.8466C7.82938 79.6288 9.10261 78.5936 10.2321 77.4008C10.2363 77.3966 10.2386 77.3911 10.2386 77.3852C10.2386 77.3794 10.2363 77.3738 10.2321 77.3697C10.228 77.3656 10.2224 77.3633 10.2166 77.3633C10.2108 77.3633 10.2052 77.3656 10.2011 77.3697C9.01797 78.4895 7.52857 79.3876 6.58842 80.7406C6.53179 80.8222 6.65844 80.9191 6.72481 80.8466Z" fill="url(#paint21_linear_2378_56871)"/>
<path d="M7.02294 78.9819C8.23772 77.9504 9.30575 76.718 10.4164 75.5769C10.4273 75.5644 10.4331 75.5483 10.4325 75.5318C10.432 75.5152 10.4252 75.4995 10.4135 75.4878C10.4018 75.4761 10.3861 75.4693 10.3695 75.4688C10.353 75.4682 10.3369 75.474 10.3245 75.4849C9.18396 76.5962 7.9497 77.6648 6.92064 78.8796C6.90837 78.8934 6.90183 78.9114 6.90238 78.9299C6.90292 78.9484 6.9105 78.9659 6.92357 78.979C6.93663 78.9921 6.9542 78.9996 6.97267 79.0002C6.99114 79.0007 7.00913 78.9942 7.02294 78.9819Z" fill="url(#paint22_linear_2378_56871)"/>
<path d="M7.17873 74.8109C8.1816 73.6942 9.02799 72.4568 10.0832 71.3803C10.0873 71.3747 10.0892 71.3678 10.0886 71.3609C10.0881 71.3539 10.0851 71.3475 10.0802 71.3425C10.0753 71.3376 10.0688 71.3346 10.0619 71.3341C10.055 71.3335 10.0481 71.3354 10.0424 71.3395C8.90057 72.3267 7.8988 73.4651 7.06486 74.7232C7.02223 74.792 7.12392 74.8724 7.17873 74.8109Z" fill="url(#paint23_linear_2378_56871)"/>
<path d="M7.33366 72.4715C7.96573 71.441 8.79312 70.5439 9.7693 69.8307C9.78817 69.8155 9.76321 69.782 9.74312 69.7966C8.70011 70.4454 7.83667 71.3457 7.23197 72.4149C7.20335 72.4794 7.2959 72.5379 7.33366 72.4715Z" fill="url(#paint24_linear_2378_56871)"/>
<path d="M26.7174 119.233C26.0122 120.133 25.1226 120.828 24.3639 121.668C24.2957 121.744 24.3846 121.879 24.4778 121.816C25.3991 121.125 26.1819 120.266 26.7856 119.285C26.813 119.245 26.7484 119.194 26.7174 119.233Z" fill="url(#paint25_linear_2378_56871)"/>
<path d="M26.6261 116.667C26.6675 116.627 26.6072 116.572 26.5652 116.606C25.3082 117.55 24.1566 118.626 23.1303 119.816C23.1139 119.834 23.105 119.857 23.1055 119.882C23.106 119.906 23.1159 119.929 23.1331 119.947C23.1503 119.964 23.1735 119.974 23.1978 119.974C23.2221 119.975 23.2457 119.966 23.2637 119.949C24.4504 118.932 25.5069 117.76 26.6261 116.667Z" fill="url(#paint26_linear_2378_56871)"/>
<path d="M23.2777 116.565C23.1906 116.648 23.3008 116.773 23.3995 116.724C24.066 116.351 24.6814 115.894 25.2305 115.363C25.8497 114.815 26.4885 114.297 27.1023 113.746C27.1595 113.695 27.0864 113.611 27.0231 113.644C26.3691 114.014 25.7567 114.454 25.1964 114.955C24.5558 115.481 23.8769 115.992 23.2777 116.565Z" fill="url(#paint27_linear_2378_56871)"/>
<path d="M26.3878 111.178C25.3247 112.125 24.1957 113.004 23.1387 113.954C23.0686 114.015 23.1576 114.119 23.2349 114.08C24.4947 113.439 25.4939 112.253 26.4901 111.279C26.5577 111.214 26.4572 111.116 26.3878 111.178Z" fill="url(#paint28_linear_2378_56871)"/>
<path d="M24.9683 109.285C24.4687 109.672 24.0004 110.098 23.5678 110.559C23.558 110.576 23.5535 110.596 23.5549 110.616C23.5564 110.636 23.5636 110.655 23.5758 110.671C23.588 110.687 23.6046 110.699 23.6235 110.705C23.6424 110.712 23.6628 110.713 23.6822 110.708C24.2577 110.41 24.7699 110.003 25.1905 109.51C25.6907 109.016 26.1262 108.461 26.4863 107.858C26.5192 107.803 26.4382 107.736 26.3956 107.788C25.9497 108.315 25.4731 108.815 24.9683 109.285Z" fill="url(#paint29_linear_2378_56871)"/>
<path d="M24.1408 107.39C23.4763 107.843 22.8669 108.373 22.3251 108.968C22.2331 109.079 22.3543 109.281 22.4919 109.184C23.1775 108.701 23.8084 108.145 24.4721 107.633C25.1594 107.179 25.7872 106.641 26.3408 106.031C26.3539 106.017 26.3616 105.999 26.3626 105.98C26.3635 105.961 26.3577 105.943 26.3461 105.928C26.3345 105.912 26.3179 105.902 26.2993 105.898C26.2807 105.894 26.2613 105.897 26.2446 105.906C25.503 106.341 24.7992 106.837 24.1408 107.39Z" fill="url(#paint30_linear_2378_56871)"/>
<path d="M22.4487 106.074C23.0112 105.921 23.5409 105.666 24.0112 105.322C24.5028 105.026 24.9762 104.701 25.4287 104.348C25.4437 104.332 25.4532 104.311 25.4556 104.289C25.4581 104.268 25.4534 104.246 25.4423 104.227C25.4313 104.208 25.4144 104.193 25.3942 104.184C25.3739 104.175 25.3515 104.173 25.3301 104.179C24.8056 104.41 24.3003 104.682 23.8188 104.993C23.3067 105.259 22.8157 105.565 22.3501 105.906C22.2642 105.974 22.3592 106.091 22.4487 106.074Z" fill="url(#paint31_linear_2378_56871)"/>
<path d="M22.4797 103.906C22.7671 103.697 23.0119 103.436 23.2846 103.209C23.5818 102.966 23.8802 102.722 24.1755 102.473C24.2419 102.417 24.1572 102.325 24.0878 102.359C23.3679 102.626 22.7523 103.117 22.3311 103.759C22.2879 103.844 22.3822 103.976 22.4797 103.906Z" fill="url(#paint32_linear_2378_56871)"/>
<path d="M52.226 116.891C50.7787 117.321 49.4573 118.557 48.4362 119.631C48.4136 119.655 48.4002 119.686 48.3986 119.719C48.397 119.752 48.4071 119.784 48.4272 119.81C48.4474 119.836 48.4761 119.854 48.5083 119.861C48.5406 119.868 48.5741 119.863 48.603 119.847C49.9262 119.035 50.901 117.766 52.2705 116.997C52.2798 116.988 52.2863 116.977 52.2891 116.965C52.2918 116.952 52.2907 116.94 52.2858 116.928C52.2809 116.916 52.2725 116.906 52.2618 116.9C52.2511 116.893 52.2386 116.89 52.226 116.891Z" fill="url(#paint33_linear_2378_56871)"/>
<path d="M48.0017 115.797C49.0869 114.854 50.2572 114.014 51.4975 113.288C51.5064 113.278 51.5119 113.265 51.5132 113.252C51.5144 113.239 51.5114 113.226 51.5046 113.215C51.4977 113.203 51.4874 113.195 51.4751 113.19C51.4628 113.185 51.4493 113.184 51.4366 113.188C50.1969 113.79 48.5528 114.405 47.8063 115.648C47.7965 115.661 47.7894 115.676 47.7853 115.691C47.7812 115.707 47.7802 115.723 47.7824 115.739C47.7846 115.755 47.7899 115.771 47.798 115.784C47.8061 115.798 47.8169 115.811 47.8297 115.82C47.8426 115.83 47.8572 115.837 47.8728 115.841C47.8884 115.845 47.9046 115.846 47.9206 115.844C47.9366 115.842 47.9519 115.837 47.9659 115.829C47.9798 115.82 47.992 115.81 48.0017 115.797Z" fill="url(#paint34_linear_2378_56871)"/>
<path d="M44.9324 69.4322C45.0225 69.4748 45.1327 69.3598 45.0463 69.2842C44.3655 68.6863 43.443 68.4074 42.6807 67.9288C42.6466 67.9075 42.6039 67.9599 42.6368 67.9854C43.3462 68.5511 44.1161 69.0363 44.9324 69.4322Z" fill="url(#paint35_linear_2378_56871)"/>
<path d="M43.9319 70.5495C43.0015 69.753 41.7398 69.5344 40.8319 68.7051C40.7978 68.674 40.7467 68.724 40.7808 68.7562C41.6667 69.6087 42.9059 69.8894 43.871 70.6287C43.9155 70.664 43.9751 70.5872 43.9319 70.5495Z" fill="url(#paint36_linear_2378_56871)"/>
<path d="M45.1106 72.6336C45.1514 72.6586 45.2025 72.5971 45.1629 72.5654C43.6681 71.3634 41.8639 70.5725 40.1991 69.6427C40.1941 69.6404 40.1885 69.64 40.1833 69.6416C40.1781 69.6433 40.1737 69.6468 40.1709 69.6515C40.1682 69.6563 40.1673 69.6618 40.1685 69.6672C40.1696 69.6725 40.1727 69.6772 40.1772 69.6804C41.8103 70.6815 43.4683 71.6472 45.1106 72.6336Z" fill="url(#paint37_linear_2378_56871)"/>
<path d="M41.413 72.1514C42.8311 72.9576 44.4039 73.491 45.704 74.4969C45.7685 74.5468 45.8611 74.4598 45.7959 74.405C44.5214 73.329 42.8914 72.8796 41.4349 72.1142C41.4105 72.1008 41.3886 72.1374 41.413 72.1514Z" fill="url(#paint38_linear_2378_56871)"/>
<path d="M41.1017 73.2382C42.6434 74.162 44.3039 74.8677 45.884 75.7232C45.894 75.729 45.9058 75.7307 45.9169 75.7277C45.9281 75.7248 45.9376 75.7176 45.9434 75.7077C45.9492 75.6978 45.9509 75.6859 45.9479 75.6748C45.945 75.6637 45.9378 75.6541 45.9279 75.6483C44.3855 74.7216 42.6867 74.0944 41.1315 73.1883C41.1249 73.1852 41.1175 73.1847 41.1105 73.1868C41.1036 73.1889 41.0977 73.1936 41.094 73.1998C41.0903 73.206 41.089 73.2134 41.0904 73.2205C41.0918 73.2276 41.0958 73.2339 41.1017 73.2382Z" fill="url(#paint39_linear_2378_56871)"/>
<path d="M41.2849 74.5797C41.2539 74.5577 41.224 74.6077 41.2557 74.6296C42.6998 75.6283 44.2493 76.4655 45.8761 77.1261C45.8889 77.1296 45.9024 77.1288 45.9146 77.1239C45.9269 77.1191 45.9372 77.1103 45.9441 77.0991C45.9509 77.0878 45.954 77.0746 45.9527 77.0615C45.9514 77.0484 45.9459 77.036 45.937 77.0263C44.4476 76.0891 42.7372 75.5935 41.2849 74.5797Z" fill="url(#paint40_linear_2378_56871)"/>
<path d="M40.817 75.8217C40.7933 75.8071 40.772 75.8437 40.7951 75.8595C42.3101 76.8831 44.04 77.5176 45.5623 78.5241C45.6323 78.5704 45.6968 78.4583 45.628 78.4114C44.11 77.3824 42.3692 76.7832 40.817 75.8217Z" fill="url(#paint41_linear_2378_56871)"/>
<path d="M45.8879 82.7104C45.9768 82.7427 46.0096 82.6051 45.9262 82.571C44.3979 81.9524 43.2379 80.6907 41.754 79.9825C41.7126 79.9624 41.676 80.0233 41.7174 80.0434C43.191 80.821 44.3017 82.1326 45.8879 82.7104Z" fill="url(#paint42_linear_2378_56871)"/>
<path d="M46.0848 84.6055C44.4997 83.9296 43.0385 82.9939 41.7616 81.8367C41.7214 81.7978 41.6605 81.8587 41.7007 81.8976C42.9432 83.1165 44.4211 84.0696 46.044 84.6986C46.0988 84.7187 46.1372 84.6292 46.0848 84.6055Z" fill="url(#paint43_linear_2378_56871)"/>
<path d="M43.6067 84.9263C43.5671 84.9001 43.5342 84.9616 43.5701 84.9872C44.7191 85.8555 45.9029 87.0088 47.2772 87.4983C47.3435 87.5221 47.4038 87.4228 47.3478 87.3765C46.2067 86.4546 44.8367 85.7337 43.6067 84.9263Z" fill="url(#paint44_linear_2378_56871)"/>
<path d="M29.5605 44.1466C29.5568 44.1405 29.5514 44.1357 29.5451 44.1326C29.5387 44.1295 29.5315 44.1283 29.5245 44.1292C29.5174 44.1301 29.5108 44.133 29.5054 44.1376C29.5 44.1423 29.4961 44.1483 29.4941 44.1551C29.4466 44.6359 29.5239 45.1208 29.7188 45.5629C29.8356 46.0437 30.0595 46.4919 30.374 46.8739C30.3923 46.8911 30.4157 46.902 30.4407 46.9048C30.4657 46.9077 30.491 46.9024 30.5127 46.8897C30.5345 46.8771 30.5516 46.8577 30.5614 46.8346C30.5713 46.8115 30.5735 46.7857 30.5676 46.7613C30.4087 46.2949 30.1499 45.8686 29.9903 45.3992C29.8946 44.9668 29.7504 44.5467 29.5605 44.1466Z" fill="url(#paint45_linear_2378_56871)"/>
<path d="M28.0245 45.8512C28.0038 45.8007 27.921 45.8214 27.9404 45.8743C28.3947 47.0849 28.4586 48.4458 29.3269 49.4633C29.3744 49.5187 29.4743 49.4432 29.4292 49.3841C28.6364 48.352 28.5049 47.027 28.0245 45.8512Z" fill="url(#paint46_linear_2378_56871)"/>
<path d="M31.6687 64.9132C31.7174 64.9455 31.7704 64.8736 31.7296 64.8334C31.3734 64.4772 30.9989 64.1436 30.6579 63.7721C30.3145 63.3846 29.9429 63.0232 29.546 62.6907C29.5247 62.6736 29.4937 62.7029 29.515 62.7217C30.2852 63.3769 30.8247 64.3567 31.6687 64.9132Z" fill="url(#paint47_linear_2378_56871)"/>
<path d="M31.9609 66.6098C32.0157 66.6627 32.0887 66.5848 32.0431 66.5276C31.2801 65.5905 30.2255 64.9505 29.3961 64.0755C29.37 64.0481 29.331 64.0889 29.3553 64.1163C30.1445 65.0229 31.1023 65.7719 31.9609 66.6098Z" fill="url(#paint48_linear_2378_56871)"/>
<path d="M32.4472 69.4203C32.5178 69.4495 32.5629 69.3472 32.5178 69.2985C32.0405 68.7974 31.5034 68.362 31.0431 67.8371C30.5827 67.3123 30.1644 66.76 29.7114 66.2333C29.6852 66.2028 29.6298 66.2442 29.6547 66.2771C30.4275 67.3165 31.1868 68.8991 32.4472 69.4203Z" fill="url(#paint49_linear_2378_56871)"/>
<path d="M32.5782 70.4738C32.5897 70.4798 32.6028 70.482 32.6156 70.4801C32.6284 70.4781 32.6403 70.4721 32.6495 70.4629C32.6587 70.4537 32.6647 70.4419 32.6666 70.429C32.6686 70.4162 32.6664 70.4031 32.6604 70.3916C31.9674 69.6 31.2087 68.8492 30.4872 68.0838C30.4488 68.043 30.3879 68.1039 30.4263 68.1447C31.0838 68.9742 31.8032 69.7528 32.5782 70.4738Z" fill="url(#paint50_linear_2378_56871)"/>
<path d="M31.41 70.8706C31.403 70.8653 31.3943 70.8627 31.3855 70.8634C31.3767 70.864 31.3685 70.8678 31.3623 70.874C31.356 70.8802 31.3523 70.8885 31.3517 70.8972C31.351 70.906 31.3536 70.9147 31.3589 70.9217C32.0116 71.6226 32.598 72.3575 33.1856 73.1108C33.2374 73.1771 33.3384 73.0925 33.2995 73.0231C32.7721 72.2218 32.1362 71.4974 31.41 70.8706Z" fill="url(#paint51_linear_2378_56871)"/>
<path d="M26.3629 32.3939C25.9147 31.1761 25.7473 29.8822 25.2358 28.6881C25.2193 28.6504 25.1578 28.6771 25.1694 28.7161C25.5542 29.9552 25.5956 31.2967 26.2167 32.4554C26.2587 32.5358 26.3945 32.4828 26.3629 32.3939Z" fill="url(#paint52_linear_2378_56871)"/>
<path d="M24.6275 34.4146C24.457 33.749 24.2932 33.0817 24.1501 32.4094C24.1422 32.3729 24.0892 32.3887 24.0941 32.4247C24.228 33.0993 24.3821 33.7691 24.5434 34.4371C24.5568 34.4925 24.6415 34.4694 24.6275 34.4146Z" fill="url(#paint53_linear_2378_56871)"/>
<path d="M24.8022 55.0968C24.0588 54.1699 23.3754 53.1965 22.7562 52.1825C22.738 52.1496 22.6905 52.1782 22.7063 52.2117C23.1762 53.3173 23.8484 54.3255 24.6883 55.1844C24.7455 55.2374 24.8533 55.1668 24.8022 55.0968Z" fill="url(#paint54_linear_2378_56871)"/>
<path d="M24.5358 57.1933C24.5496 57.2056 24.5676 57.2121 24.5861 57.2116C24.6045 57.211 24.6221 57.2035 24.6352 57.1904C24.6482 57.1773 24.6558 57.1598 24.6564 57.1413C24.6569 57.1228 24.6504 57.1048 24.6381 57.091C23.8623 56.2556 23.159 55.3806 22.4545 54.4843C22.4241 54.4459 22.3565 54.4971 22.3863 54.5366C23.0064 55.496 23.727 56.3866 24.5358 57.1933Z" fill="url(#paint55_linear_2378_56871)"/>
<path d="M24.4632 58.8117C24.1123 58.494 23.8012 58.1349 23.5364 57.7425C23.5109 57.7041 23.4481 57.7425 23.4755 57.779C23.7393 58.1804 24.0507 58.5485 24.4029 58.8751C24.4431 58.9116 24.5046 58.8495 24.4632 58.8117Z" fill="url(#paint56_linear_2378_56871)"/>
<path d="M25.3314 61.668C25.3814 61.7014 25.4295 61.6296 25.3923 61.5882C25.1225 61.2979 24.8705 60.9914 24.6379 60.6706C24.4518 60.3901 24.2351 60.1311 23.9918 59.8985C23.9577 59.8674 23.9072 59.9173 23.9407 59.9496C24.465 60.4538 24.7262 61.2563 25.3314 61.668Z" fill="url(#paint57_linear_2378_56871)"/>
<path d="M26.2304 65.2341C26.2456 65.2478 26.2654 65.2551 26.2859 65.2545C26.3063 65.254 26.3257 65.2457 26.3401 65.2312C26.3546 65.2168 26.3629 65.1973 26.3635 65.1769C26.364 65.1565 26.3567 65.1367 26.3431 65.1215C25.247 63.8342 24.3568 62.3814 23.2327 61.124C23.1889 61.0747 23.1201 61.1465 23.1609 61.1958C24.2362 62.4843 24.931 64.1491 26.2304 65.2341Z" fill="url(#paint58_linear_2378_56871)"/>
<path d="M26.4102 67.3905C26.4644 67.427 26.532 67.343 26.4802 67.2997C25.5457 66.4854 24.6618 65.6149 23.8333 64.693C23.8083 64.665 23.7687 64.7058 23.7925 64.7338C24.5384 65.7358 25.4193 66.6298 26.4102 67.3905Z" fill="url(#paint59_linear_2378_56871)"/>
<path d="M26.0051 68.8196C26.5245 69.3518 26.9727 69.9339 27.4744 70.4776C27.5171 70.5233 27.6072 70.4776 27.5834 70.4167C27.0561 69.0485 25.4961 68.1157 24.4615 67.1585C24.4533 67.1516 24.4427 67.148 24.4319 67.1485C24.4211 67.149 24.4109 67.1535 24.4033 67.1611C24.3957 67.1687 24.3912 67.1789 24.3907 67.1897C24.3902 67.2005 24.3937 67.2111 24.4007 67.2194C24.9213 67.7649 25.4772 68.2783 26.0051 68.8196Z" fill="url(#paint60_linear_2378_56871)"/>
<path d="M27.3116 72.9606C27.3268 72.9743 27.3467 72.9816 27.3671 72.9811C27.3875 72.9805 27.4069 72.9722 27.4213 72.9577C27.4358 72.9433 27.4441 72.9239 27.4447 72.9034C27.4452 72.883 27.4379 72.8632 27.4243 72.848C26.5267 71.8908 25.5647 70.9993 24.6178 70.0921C24.6095 70.0852 24.5989 70.0816 24.5882 70.0821C24.5774 70.0826 24.5672 70.0871 24.5595 70.0947C24.5519 70.1023 24.5474 70.1125 24.5469 70.1233C24.5464 70.1341 24.55 70.1447 24.5569 70.153C25.4636 71.1004 26.355 72.0631 27.3116 72.9606Z" fill="url(#paint61_linear_2378_56871)"/>
<path d="M28.8272 76.4195C27.9595 75.0561 26.6235 74.0648 25.7187 72.7216C25.6773 72.6607 25.5786 72.7161 25.6188 72.7825C26.5386 74.113 27.5702 75.3628 28.7023 76.5181C28.716 76.533 28.7347 76.5421 28.7547 76.5437C28.7748 76.5453 28.7948 76.5392 28.8105 76.5268C28.8263 76.5143 28.8368 76.4963 28.8399 76.4764C28.843 76.4565 28.8384 76.4362 28.8272 76.4195Z" fill="url(#paint62_linear_2378_56871)"/>
<path d="M29.1012 78.8971C28.008 77.9325 26.9696 76.9076 25.9909 75.827C25.975 75.8081 25.9422 75.8331 25.9568 75.8532C26.8088 77.0542 27.85 78.1091 29.0397 78.9769C29.0872 79.0098 29.1426 78.9361 29.1012 78.8971Z" fill="url(#paint63_linear_2378_56871)"/>
<path d="M29.3421 81.4342C29.3504 81.4411 29.3609 81.4447 29.3717 81.4442C29.3825 81.4437 29.3927 81.4392 29.4003 81.4316C29.408 81.424 29.4125 81.4138 29.413 81.403C29.4135 81.3922 29.4099 81.3816 29.403 81.3733C28.841 80.7145 28.1584 80.1342 27.5385 79.5289C27.5329 79.5249 27.526 79.523 27.5191 79.5235C27.5121 79.5241 27.5057 79.5271 27.5007 79.532C27.4958 79.5369 27.4928 79.5434 27.4923 79.5503C27.4917 79.5572 27.4936 79.5641 27.4977 79.5697C28.1036 80.189 28.6839 80.8716 29.3421 81.4342Z" fill="url(#paint64_linear_2378_56871)"/>
<path d="M28.3202 81.9956C28.3131 81.9903 28.3044 81.9877 28.2957 81.9884C28.2869 81.989 28.2786 81.9928 28.2724 81.999C28.2662 82.0052 28.2624 82.0134 28.2618 82.0222C28.2612 82.031 28.2637 82.0397 28.269 82.0467C29.2768 83.1123 30.223 84.2096 31.1638 85.3349C31.2344 85.4195 31.3611 85.3117 31.3118 85.221C30.5189 83.9729 29.5051 82.8799 28.3202 81.9956Z" fill="url(#paint65_linear_2378_56871)"/>
</g>
<defs>
<linearGradient id="paint0_linear_2378_56871" x1="-0.432936" y1="64.203" x2="78.4332" y2="64.203" gradientUnits="userSpaceOnUse">
<stop stop-color="#DD272E"/>
<stop offset="1" stop-color="#7B4297"/>
</linearGradient>
<linearGradient id="paint1_linear_2378_56871" x1="60.831" y1="103.128" x2="68.7834" y2="103.128" gradientUnits="userSpaceOnUse">
<stop stop-color="#DD272E"/>
<stop offset="1" stop-color="#7B4297"/>
</linearGradient>
<linearGradient id="paint2_linear_2378_56871" x1="16.1971" y1="1.21234" x2="27.0175" y2="1.21234" gradientUnits="userSpaceOnUse">
<stop stop-color="#DD272E"/>
<stop offset="1" stop-color="#7B4297"/>
</linearGradient>
<linearGradient id="paint3_linear_2378_56871" x1="18.9839" y1="4.062" x2="38.955" y2="4.062" gradientUnits="userSpaceOnUse">
<stop stop-color="#DD272E"/>
<stop offset="1" stop-color="#7B4297"/>
</linearGradient>
<linearGradient id="paint4_linear_2378_56871" x1="2.38832" y1="120.441" x2="6.36816" y2="120.441" gradientUnits="userSpaceOnUse">
<stop stop-color="#DD272E"/>
<stop offset="1" stop-color="#7B4297"/>
</linearGradient>
<linearGradient id="paint5_linear_2378_56871" x1="2.88926" y1="117.644" x2="5.90824" y2="117.644" gradientUnits="userSpaceOnUse">
<stop stop-color="#DD272E"/>
<stop offset="1" stop-color="#7B4297"/>
</linearGradient>
<linearGradient id="paint6_linear_2378_56871" x1="3.16618" y1="116.581" x2="6.36236" y2="116.581" gradientUnits="userSpaceOnUse">
<stop stop-color="#DD272E"/>
<stop offset="1" stop-color="#7B4297"/>
</linearGradient>
<linearGradient id="paint7_linear_2378_56871" x1="3.35034" y1="113.095" x2="6.96849" y2="113.095" gradientUnits="userSpaceOnUse">
<stop stop-color="#DD272E"/>
<stop offset="1" stop-color="#7B4297"/>
</linearGradient>
<linearGradient id="paint8_linear_2378_56871" x1="4.44851" y1="111.233" x2="6.68017" y2="111.233" gradientUnits="userSpaceOnUse">
<stop stop-color="#DD272E"/>
<stop offset="1" stop-color="#7B4297"/>
</linearGradient>
<linearGradient id="paint9_linear_2378_56871" x1="5.23594" y1="109.3" x2="7.13087" y2="109.3" gradientUnits="userSpaceOnUse">
<stop stop-color="#DD272E"/>
<stop offset="1" stop-color="#7B4297"/>
</linearGradient>
<linearGradient id="paint10_linear_2378_56871" x1="3.01176" y1="106.676" x2="7.15114" y2="106.676" gradientUnits="userSpaceOnUse">
<stop stop-color="#DD272E"/>
<stop offset="1" stop-color="#7B4297"/>
</linearGradient>
<linearGradient id="paint11_linear_2378_56871" x1="2.84422" y1="104.683" x2="6.97751" y2="104.683" gradientUnits="userSpaceOnUse">
<stop stop-color="#DD272E"/>
<stop offset="1" stop-color="#7B4297"/>
</linearGradient>
<linearGradient id="paint12_linear_2378_56871" x1="4.73458" y1="99.6536" x2="8.05132" y2="99.6536" gradientUnits="userSpaceOnUse">
<stop stop-color="#DD272E"/>
<stop offset="1" stop-color="#7B4297"/>
</linearGradient>
<linearGradient id="paint13_linear_2378_56871" x1="3.48116" y1="99.111" x2="8.3555" y2="99.111" gradientUnits="userSpaceOnUse">
<stop stop-color="#DD272E"/>
<stop offset="1" stop-color="#7B4297"/>
</linearGradient>
<linearGradient id="paint14_linear_2378_56871" x1="3.9196" y1="96.3417" x2="7.91528" y2="96.3417" gradientUnits="userSpaceOnUse">
<stop stop-color="#DD272E"/>
<stop offset="1" stop-color="#7B4297"/>
</linearGradient>
<linearGradient id="paint15_linear_2378_56871" x1="5.68147" y1="93.6187" x2="7.31274" y2="93.6187" gradientUnits="userSpaceOnUse">
<stop stop-color="#DD272E"/>
<stop offset="1" stop-color="#7B4297"/>
</linearGradient>
<linearGradient id="paint16_linear_2378_56871" x1="5.81332" y1="90.3798" x2="8.38475" y2="90.3798" gradientUnits="userSpaceOnUse">
<stop stop-color="#DD272E"/>
<stop offset="1" stop-color="#7B4297"/>
</linearGradient>
<linearGradient id="paint17_linear_2378_56871" x1="5.65115" y1="87.7547" x2="9.60237" y2="87.7547" gradientUnits="userSpaceOnUse">
<stop stop-color="#DD272E"/>
<stop offset="1" stop-color="#7B4297"/>
</linearGradient>
<linearGradient id="paint18_linear_2378_56871" x1="5.01396" y1="87.0702" x2="8.83" y2="87.0702" gradientUnits="userSpaceOnUse">
<stop stop-color="#DD272E"/>
<stop offset="1" stop-color="#7B4297"/>
</linearGradient>
<linearGradient id="paint19_linear_2378_56871" x1="5.80687" y1="84.1989" x2="8.98599" y2="84.1989" gradientUnits="userSpaceOnUse">
<stop stop-color="#DD272E"/>
<stop offset="1" stop-color="#7B4297"/>
</linearGradient>
<linearGradient id="paint20_linear_2378_56871" x1="7.06116" y1="80.2475" x2="9.46271" y2="80.2475" gradientUnits="userSpaceOnUse">
<stop stop-color="#DD272E"/>
<stop offset="1" stop-color="#7B4297"/>
</linearGradient>
<linearGradient id="paint21_linear_2378_56871" x1="6.55432" y1="79.1179" x2="10.2047" y2="79.1179" gradientUnits="userSpaceOnUse">
<stop stop-color="#DD272E"/>
<stop offset="1" stop-color="#7B4297"/>
</linearGradient>
<linearGradient id="paint22_linear_2378_56871" x1="6.88167" y1="77.2337" x2="10.4036" y2="77.2337" gradientUnits="userSpaceOnUse">
<stop stop-color="#DD272E"/>
<stop offset="1" stop-color="#7B4297"/>
</linearGradient>
<linearGradient id="paint23_linear_2378_56871" x1="7.03807" y1="73.0822" x2="10.0644" y2="73.0822" gradientUnits="userSpaceOnUse">
<stop stop-color="#DD272E"/>
<stop offset="1" stop-color="#7B4297"/>
</linearGradient>
<linearGradient id="paint24_linear_2378_56871" x1="7.2137" y1="71.1465" x2="9.75408" y2="71.1465" gradientUnits="userSpaceOnUse">
<stop stop-color="#DD272E"/>
<stop offset="1" stop-color="#7B4297"/>
</linearGradient>
<linearGradient id="paint25_linear_2378_56871" x1="24.3268" y1="120.526" x2="26.7697" y2="120.526" gradientUnits="userSpaceOnUse">
<stop stop-color="#DD272E"/>
<stop offset="1" stop-color="#7B4297"/>
</linearGradient>
<linearGradient id="paint26_linear_2378_56871" x1="23.0852" y1="118.285" x2="26.6072" y2="118.285" gradientUnits="userSpaceOnUse">
<stop stop-color="#DD272E"/>
<stop offset="1" stop-color="#7B4297"/>
</linearGradient>
<linearGradient id="paint27_linear_2378_56871" x1="23.2253" y1="115.186" x2="27.0889" y2="115.186" gradientUnits="userSpaceOnUse">
<stop stop-color="#DD272E"/>
<stop offset="1" stop-color="#7B4297"/>
</linearGradient>
<linearGradient id="paint28_linear_2378_56871" x1="23.0942" y1="112.623" x2="26.4816" y2="112.623" gradientUnits="userSpaceOnUse">
<stop stop-color="#DD272E"/>
<stop offset="1" stop-color="#7B4297"/>
</linearGradient>
<linearGradient id="paint29_linear_2378_56871" x1="23.5373" y1="109.242" x2="26.4686" y2="109.242" gradientUnits="userSpaceOnUse">
<stop stop-color="#DD272E"/>
<stop offset="1" stop-color="#7B4297"/>
</linearGradient>
<linearGradient id="paint30_linear_2378_56871" x1="22.2703" y1="107.552" x2="26.3232" y2="107.552" gradientUnits="userSpaceOnUse">
<stop stop-color="#DD272E"/>
<stop offset="1" stop-color="#7B4297"/>
</linearGradient>
<linearGradient id="paint31_linear_2378_56871" x1="22.2995" y1="105.124" x2="25.43" y2="105.124" gradientUnits="userSpaceOnUse">
<stop stop-color="#DD272E"/>
<stop offset="1" stop-color="#7B4297"/>
</linearGradient>
<linearGradient id="paint32_linear_2378_56871" x1="22.3104" y1="103.139" x2="24.1822" y2="103.139" gradientUnits="userSpaceOnUse">
<stop stop-color="#DD272E"/>
<stop offset="1" stop-color="#7B4297"/>
</linearGradient>
<linearGradient id="paint33_linear_2378_56871" x1="48.3771" y1="118.378" x2="52.2626" y2="118.378" gradientUnits="userSpaceOnUse">
<stop stop-color="#DD272E"/>
<stop offset="1" stop-color="#7B4297"/>
</linearGradient>
<linearGradient id="paint34_linear_2378_56871" x1="47.7691" y1="114.505" x2="51.4908" y2="114.505" gradientUnits="userSpaceOnUse">
<stop stop-color="#DD272E"/>
<stop offset="1" stop-color="#7B4297"/>
</linearGradient>
<linearGradient id="paint35_linear_2378_56871" x1="42.6119" y1="68.6826" x2="45.0548" y2="68.6826" gradientUnits="userSpaceOnUse">
<stop stop-color="#DD272E"/>
<stop offset="1" stop-color="#7B4297"/>
</linearGradient>
<linearGradient id="paint36_linear_2378_56871" x1="40.7515" y1="69.6672" x2="43.9179" y2="69.6672" gradientUnits="userSpaceOnUse">
<stop stop-color="#DD272E"/>
<stop offset="1" stop-color="#7B4297"/>
</linearGradient>
<linearGradient id="paint37_linear_2378_56871" x1="40.1394" y1="71.1387" x2="45.1313" y2="71.1387" gradientUnits="userSpaceOnUse">
<stop stop-color="#DD272E"/>
<stop offset="1" stop-color="#7B4297"/>
</linearGradient>
<linearGradient id="paint38_linear_2378_56871" x1="41.3783" y1="73.3114" x2="45.7776" y2="73.3114" gradientUnits="userSpaceOnUse">
<stop stop-color="#DD272E"/>
<stop offset="1" stop-color="#7B4297"/>
</linearGradient>
<linearGradient id="paint39_linear_2378_56871" x1="41.0615" y1="74.4561" x2="45.9048" y2="74.4561" gradientUnits="userSpaceOnUse">
<stop stop-color="#DD272E"/>
<stop offset="1" stop-color="#7B4297"/>
</linearGradient>
<linearGradient id="paint40_linear_2378_56871" x1="41.2192" y1="75.8535" x2="45.9212" y2="75.8535" gradientUnits="userSpaceOnUse">
<stop stop-color="#DD272E"/>
<stop offset="1" stop-color="#7B4297"/>
</linearGradient>
<linearGradient id="paint41_linear_2378_56871" x1="40.758" y1="77.1766" x2="45.6128" y2="77.1766" gradientUnits="userSpaceOnUse">
<stop stop-color="#DD272E"/>
<stop offset="1" stop-color="#7B4297"/>
</linearGradient>
<linearGradient id="paint42_linear_2378_56871" x1="41.6754" y1="81.3471" x2="45.9354" y2="81.3471" gradientUnits="userSpaceOnUse">
<stop stop-color="#DD272E"/>
<stop offset="1" stop-color="#7B4297"/>
</linearGradient>
<linearGradient id="paint43_linear_2378_56871" x1="41.6654" y1="83.2628" x2="46.069" y2="83.2628" gradientUnits="userSpaceOnUse">
<stop stop-color="#DD272E"/>
<stop offset="1" stop-color="#7B4297"/>
</linearGradient>
<linearGradient id="paint44_linear_2378_56871" x1="43.5342" y1="86.2117" x2="47.335" y2="86.2117" gradientUnits="userSpaceOnUse">
<stop stop-color="#DD272E"/>
<stop offset="1" stop-color="#7B4297"/>
</linearGradient>
<linearGradient id="paint45_linear_2378_56871" x1="29.4594" y1="45.5155" x2="30.5639" y2="45.5155" gradientUnits="userSpaceOnUse">
<stop stop-color="#DD272E"/>
<stop offset="1" stop-color="#7B4297"/>
</linearGradient>
<linearGradient id="paint46_linear_2378_56871" x1="27.9295" y1="47.6518" x2="29.4274" y2="47.6518" gradientUnits="userSpaceOnUse">
<stop stop-color="#DD272E"/>
<stop offset="1" stop-color="#7B4297"/>
</linearGradient>
<linearGradient id="paint47_linear_2378_56871" x1="29.4961" y1="63.8038" x2="31.7235" y2="63.8038" gradientUnits="userSpaceOnUse">
<stop stop-color="#DD272E"/>
<stop offset="1" stop-color="#7B4297"/>
</linearGradient>
<linearGradient id="paint48_linear_2378_56871" x1="29.3322" y1="65.3475" x2="32.0327" y2="65.3475" gradientUnits="userSpaceOnUse">
<stop stop-color="#DD272E"/>
<stop offset="1" stop-color="#7B4297"/>
</linearGradient>
<linearGradient id="paint49_linear_2378_56871" x1="29.6322" y1="67.8244" x2="32.5093" y2="67.8244" gradientUnits="userSpaceOnUse">
<stop stop-color="#DD272E"/>
<stop offset="1" stop-color="#7B4297"/>
</linearGradient>
<linearGradient id="paint50_linear_2378_56871" x1="30.4031" y1="69.2797" x2="32.6573" y2="69.2797" gradientUnits="userSpaceOnUse">
<stop stop-color="#DD272E"/>
<stop offset="1" stop-color="#7B4297"/>
</linearGradient>
<linearGradient id="paint51_linear_2378_56871" x1="31.3382" y1="71.9971" x2="33.2922" y2="71.9971" gradientUnits="userSpaceOnUse">
<stop stop-color="#DD272E"/>
<stop offset="1" stop-color="#7B4297"/>
</linearGradient>
<linearGradient id="paint52_linear_2378_56871" x1="25.1615" y1="30.5843" x2="26.3562" y2="30.5843" gradientUnits="userSpaceOnUse">
<stop stop-color="#DD272E"/>
<stop offset="1" stop-color="#7B4297"/>
</linearGradient>
<linearGradient id="paint53_linear_2378_56871" x1="24.091" y1="33.4288" x2="24.6244" y2="33.4288" gradientUnits="userSpaceOnUse">
<stop stop-color="#DD272E"/>
<stop offset="1" stop-color="#7B4297"/>
</linearGradient>
<linearGradient id="paint54_linear_2378_56871" x1="22.6917" y1="53.6853" x2="24.7961" y2="53.6853" gradientUnits="userSpaceOnUse">
<stop stop-color="#DD272E"/>
<stop offset="1" stop-color="#7B4297"/>
</linearGradient>
<linearGradient id="paint55_linear_2378_56871" x1="22.3669" y1="55.8421" x2="24.6387" y2="55.8421" gradientUnits="userSpaceOnUse">
<stop stop-color="#DD272E"/>
<stop offset="1" stop-color="#7B4297"/>
</linearGradient>
<linearGradient id="paint56_linear_2378_56871" x1="23.4628" y1="58.3057" x2="24.4681" y2="58.3057" gradientUnits="userSpaceOnUse">
<stop stop-color="#DD272E"/>
<stop offset="1" stop-color="#7B4297"/>
</linearGradient>
<linearGradient id="paint57_linear_2378_56871" x1="23.9236" y1="60.7826" x2="25.3942" y2="60.7826" gradientUnits="userSpaceOnUse">
<stop stop-color="#DD272E"/>
<stop offset="1" stop-color="#7B4297"/>
</linearGradient>
<linearGradient id="paint58_linear_2378_56871" x1="23.1311" y1="63.1821" x2="26.3351" y2="63.1821" gradientUnits="userSpaceOnUse">
<stop stop-color="#DD272E"/>
<stop offset="1" stop-color="#7B4297"/>
</linearGradient>
<linearGradient id="paint59_linear_2378_56871" x1="23.7705" y1="66.0417" x2="26.4729" y2="66.0417" gradientUnits="userSpaceOnUse">
<stop stop-color="#DD272E"/>
<stop offset="1" stop-color="#7B4297"/>
</linearGradient>
<linearGradient id="paint60_linear_2378_56871" x1="24.3696" y1="68.8196" x2="27.5579" y2="68.8196" gradientUnits="userSpaceOnUse">
<stop stop-color="#DD272E"/>
<stop offset="1" stop-color="#7B4297"/>
</linearGradient>
<linearGradient id="paint61_linear_2378_56871" x1="24.5277" y1="71.5309" x2="27.4206" y2="71.5309" gradientUnits="userSpaceOnUse">
<stop stop-color="#DD272E"/>
<stop offset="1" stop-color="#7B4297"/>
</linearGradient>
<linearGradient id="paint62_linear_2378_56871" x1="25.5914" y1="74.6183" x2="28.8095" y2="74.6183" gradientUnits="userSpaceOnUse">
<stop stop-color="#DD272E"/>
<stop offset="1" stop-color="#7B4297"/>
</linearGradient>
<linearGradient id="paint63_linear_2378_56871" x1="25.9361" y1="77.4029" x2="29.0866" y2="77.4029" gradientUnits="userSpaceOnUse">
<stop stop-color="#DD272E"/>
<stop offset="1" stop-color="#7B4297"/>
</linearGradient>
<linearGradient id="paint64_linear_2378_56871" x1="27.4794" y1="80.4831" x2="29.3981" y2="80.4831" gradientUnits="userSpaceOnUse">
<stop stop-color="#DD272E"/>
<stop offset="1" stop-color="#7B4297"/>
</linearGradient>
<linearGradient id="paint65_linear_2378_56871" x1="28.2416" y1="83.675" x2="31.2941" y2="83.675" gradientUnits="userSpaceOnUse">
<stop stop-color="#DD272E"/>
<stop offset="1" stop-color="#7B4297"/>
</linearGradient>
<clipPath id="clip0_2378_56871">
<rect width="79.1584" height="123" fill="white"/>
</clipPath>
</defs>
</svg>
