<svg width="80" height="123" viewBox="0 0 80 123" fill="none" xmlns="http://www.w3.org/2000/svg">
<g clip-path="url(#clip0_2378_57116)">
<path d="M43.1969 11.9956C47.114 12.6928 51.019 14.7887 53.1428 17.9806C55.2545 21.1549 55.7435 25.2583 56.2251 28.8728C56.2398 28.9812 56.437 29.0238 56.4517 28.8953C56.6855 26.8579 56.0406 24.6993 55.5444 22.7295C55.1381 20.9199 54.4013 19.2008 53.3712 17.6585C52.1626 16.0554 50.6398 14.7157 48.8959 13.7211C47.152 12.7265 45.2236 12.0979 43.2285 11.8738C43.1433 11.8623 43.1068 11.9798 43.1969 11.9956Z" fill="url(#paint0_linear_2378_57116)"/>
<path d="M58.6373 22.8604C58.6933 22.973 58.8735 22.8896 58.8468 22.7794C58.3447 20.5802 57.3834 18.5121 56.0257 16.7107C54.6681 14.9093 52.945 13.4153 50.9693 12.3268C50.9303 12.3067 50.8962 12.3585 50.9352 12.381C55.1805 14.8696 56.6815 18.8196 58.6373 22.8604Z" fill="url(#paint1_linear_2378_57116)"/>
<path d="M57.9613 14.7429C59.0568 15.9176 59.9963 17.2286 60.7568 18.6435C60.8128 18.7361 60.9833 18.6728 60.9443 18.5693C60.4063 17.2204 59.6132 15.988 58.6085 14.9395C57.4626 13.6967 55.8812 13.0738 54.6159 11.9638C54.5964 11.9437 54.5647 11.9729 54.5842 11.993C55.5865 13.0373 56.9249 13.7302 57.9613 14.7429Z" fill="url(#paint2_linear_2378_57116)"/>
<path d="M18.9154 28.4898C20.0589 26.5066 20.0541 24.147 21.239 22.1571C21.2731 22.0962 21.1781 22.0463 21.1392 22.1029C19.8811 24.0045 19.4068 26.3044 18.7498 28.424C18.7212 28.5166 18.8667 28.5756 18.9154 28.4898Z" fill="url(#paint3_linear_2378_57116)"/>
<path d="M77.4536 60.4843L77.4147 60.4447V53.9519C77.4152 53.9185 77.4119 53.8852 77.4049 53.8526C77.4119 53.8223 77.4152 53.7912 77.4147 53.7601C77.4147 53.0629 76.5013 52.7809 74.7068 52.4765C74.5339 52.4473 74.3543 52.4156 74.1588 52.3882C73.8397 52.3389 73.4945 52.2889 73.12 52.239C72.2468 52.1264 71.2245 52.0088 70.0645 51.8938C69.8307 51.8688 69.5902 51.8438 69.3442 51.8213V51.8182C69.3813 51.2325 69.4105 50.6424 69.4398 50.0524C69.4446 49.9757 69.4495 49.8965 69.4519 49.8198C69.9652 39.5639 69.9969 29.0803 67.6733 20.5141C64.9326 10.4726 59.2862 4.41453 50.3912 1.98924C34.1394 -2.44363 21.8869 1.99594 12.931 15.557C7.35519 24.0032 7.67244 41.9161 8.05301 49.0928C8.05301 49.1311 8.05301 49.167 8.05788 49.203C8.07493 49.5032 8.08954 49.7851 8.10659 50.0445C8.05788 50.0512 8.0116 50.0603 7.96532 50.067L7.53239 50.1413C6.33527 50.3465 5.20391 50.5633 4.21139 50.7661C4.10909 50.7861 4.01166 50.8068 3.9118 50.8269C2.31585 51.1564 1.12116 51.4407 0.661436 51.5534L0.568882 51.5741L0.465976 51.5984L0.450144 51.6027C0.37139 51.6215 0.297513 51.6568 0.233372 51.7062C0.150608 51.7631 0.0856373 51.8422 0.0459808 51.9344C0.00632443 52.0267 -0.00639587 52.1283 0.00929251 52.2274C0.00230562 52.2611 -0.000759384 52.2954 0.000158851 52.3297L0.00746578 52.8376L0.0123371 53.2638L0.0732282 58.3829V58.473V58.6131V58.6983L0.0829707 59.5082L0.087842 59.8961V60.0245V60.3089L0.0975846 61.2156L0.102456 61.4841V61.57L0.107327 61.8744L0.119505 62.8761V62.9662V63.2055V63.2238L0.138991 64.6791V64.7783V65.0401L0.143862 65.3787L0.170654 66.3706V66.4315L0.175525 66.6751V66.9393L0.185268 67.7267V67.9002V68.1505L0.197446 68.9962V69.2215V69.2374L0.202317 69.6118L0.229109 71.7528V71.7869L0.233981 72.1614V72.2356L0.253466 73.8669L0.258337 74.1196V74.1762V74.4898L0.285129 76.6332V76.7221V76.9474V76.9699L0.304614 78.5531L0.309486 79.0159L0.314357 79.3587L0.319228 79.7599L0.326535 80.3689L0.333842 80.8176V81.0186V81.2262L0.353327 82.9226V83.1619V83.2027L0.358198 83.4396L0.367941 84.3262V84.5448L0.372812 84.8322L0.36855 84.9485H0.394124V85.1598V85.3699L0.408738 86.6084L0.413609 87.0212V87.0979V87.2081L0.418481 87.5284V87.551L0.437966 89.1597V89.2456V89.3606V89.4307L0.442837 89.8502L0.45258 90.5633L0.467194 91.9126L0.472065 92.2445V92.5489V92.6055L0.476936 92.9508L0.496421 94.6247L0.503728 95.1301V95.3852V95.437L0.508599 95.7548L0.513471 96.2243L0.518342 96.5738L0.523213 96.9507L0.53052 97.4604L0.548179 97.8513V97.8854L0.564619 99.13L0.569491 99.6013L0.574362 100.111V100.222L0.579233 100.608V100.637L0.58654 101.107L0.591411 101.569V101.655L0.596283 101.989V102.045V102.196L0.601154 102.618V102.768L0.608461 103.537V103.674V103.898V103.952L0.618203 104.755L0.623075 105.195L0.630382 105.692L0.637689 106.278V106.461L0.64256 106.819V106.979L0.649867 107.607L0.654738 107.979L0.664481 108.823C0.668103 108.936 0.706036 109.046 0.7733 109.138C0.840565 109.23 0.934018 109.299 1.0414 109.337C1.08767 109.355 1.82263 109.631 3.17258 110.091C4.00192 110.373 5.06021 110.727 6.33892 111.131C8.33128 111.765 10.8449 112.525 13.8151 113.351C14.2653 113.475 14.7259 113.602 15.1967 113.73C21.695 115.492 30.14 117.486 39.9228 119.119C40.1225 119.153 40.3216 119.185 40.5214 119.219C42.0858 119.476 43.6826 119.723 45.3117 119.958C45.8325 120.033 46.3555 120.106 46.8808 120.179C48.1461 120.355 49.4291 120.523 50.7297 120.682C51.0263 120.718 51.3234 120.755 51.62 120.788C53.1358 120.969 54.6743 121.137 56.2355 121.291C56.5199 121.321 56.8073 121.348 57.0941 121.375C61.3327 121.78 65.7711 122.479 70.2721 122.664C70.3528 122.667 70.433 122.65 70.5055 122.614C70.578 122.579 70.6405 122.526 70.6874 122.46L70.9839 122.043C70.9897 122.037 70.9947 122.031 70.9986 122.024L76.9982 114.857L77.3903 106.665V60.5981L77.4195 60.6115C77.5364 60.6523 77.6113 60.5001 77.4536 60.4843ZM74.9273 53.4617L73.5012 53.6693C73.0049 53.374 72.4867 53.1006 71.9637 52.8394C72.9649 52.9771 73.9552 53.1851 74.9273 53.4617ZM13.328 15.8669C21.9551 2.80031 34.3969 -1.19597 50.0459 3.07006C68.1519 8.00833 69.2711 28.2741 68.2469 49.273L68.2396 49.424C68.2177 49.916 68.1909 50.4074 68.1641 50.9018L68.1495 51.1996C68.1348 51.4949 68.1178 51.7908 68.1008 52.0862C68.0894 52.2131 68.0354 52.3324 67.9474 52.4247C67.8595 52.5169 67.7429 52.5766 67.6167 52.594C67.4949 52.6141 67.3536 52.6348 67.1983 52.6549L66.5584 52.7499C65.9282 52.8357 65.1548 52.9326 64.3054 53.0117C64.0619 53.0318 63.8116 53.0543 63.5558 53.0726C62.3899 53.1708 61.2196 53.2076 60.0497 53.1828C60.0108 53.1828 59.9718 53.1828 59.9328 53.1786C58.4415 53.2107 56.9609 52.9199 55.5925 52.3261C55.4985 52.2769 55.4211 52.201 55.37 52.1079C55.319 52.0149 55.2966 51.9088 55.3057 51.803C55.3179 51.6745 55.3325 51.5321 55.3471 51.3768C55.3739 51.0815 55.4031 50.7338 55.4324 50.3416C55.4324 50.3258 55.4324 50.31 55.4324 50.2941C55.97 43.0231 56.5491 20.754 48.1553 15.3262C43.7102 12.4522 40.4087 12.1495 36.9056 12.1495C35.9327 12.1473 34.963 12.2624 34.0176 12.4923C29.7552 13.5348 26.2235 16.8826 23.2058 22.7281C22.933 23.1836 20.1308 28.4087 20.6075 49.8186L20.6148 50.1279C20.6148 50.1888 20.6148 50.2454 20.6197 50.3039C20.6194 50.5178 20.5458 50.7251 20.4112 50.8913C20.2766 51.0575 20.089 51.1726 19.8799 51.2173C19.8068 51.2355 19.7337 51.2532 19.6558 51.2715L19.2716 51.3591C18.8119 51.4584 18.2864 51.5601 17.7097 51.6435L17.3766 51.691C16.2025 51.852 15.0165 51.91 13.8322 51.8645C13.6154 51.8554 13.4017 51.842 13.1825 51.8237C12.6153 51.7786 12.0509 51.704 11.4915 51.6003H11.4842C10.9998 51.508 10.5207 51.3897 10.049 51.2459C9.90208 51.2045 9.76714 51.1287 9.6554 51.0247C9.54367 50.9207 9.45838 50.7915 9.40662 50.6479C9.38006 50.5753 9.36446 50.4992 9.36034 50.422C9.34816 50.2552 9.33598 50.0609 9.32624 49.8399C9.32137 49.79 9.31893 49.7382 9.3165 49.6865C8.99012 44.2148 7.67609 24.4258 13.328 15.8669ZM15.5639 52.6817C16.5729 52.6335 17.5774 52.5174 18.5707 52.334C18.8821 52.5053 19.1918 52.679 19.4999 52.8552C20.0011 53.1396 20.5022 53.4373 21.0058 53.7327C19.738 53.6535 18.5092 53.5725 17.3273 53.4934C16.7385 53.2181 16.1497 52.9526 15.5639 52.6817ZM16.2307 53.4172C15.6977 53.3811 15.1762 53.3442 14.6664 53.3064C14.3096 53.0836 13.9442 52.8735 13.5789 52.6701C14.0167 52.6951 14.4447 52.7042 14.8637 52.6993C15.3131 52.9393 15.771 53.1804 16.2301 53.4172H16.2307ZM18.9373 52.2646C19.4043 52.172 19.8275 52.0752 20.1953 51.9851C20.2659 51.9668 20.3341 51.9492 20.3999 51.9285L21.239 52.348C22.2948 52.8759 23.3507 53.4014 24.4017 53.936C23.4992 53.8841 22.6121 53.8315 21.7401 53.7783C20.8164 53.2614 19.8823 52.7517 18.9373 52.2646ZM21.5988 52.1879L20.7671 51.7951C21.0112 51.7115 21.2315 51.5702 21.4095 51.3833C21.5875 51.1965 21.7178 50.9695 21.7894 50.7216C22.8721 51.2836 23.9425 51.8724 25.0081 52.4722C25.9215 52.9868 26.8452 53.5573 27.789 54.1212C27.0056 54.0806 26.2318 54.04 25.4679 53.9994C24.1837 53.3454 22.838 52.7718 21.5994 52.1879H21.5988ZM54.1756 50.7417C53.3994 50.6966 52.6135 50.653 51.8179 50.6108L51.4239 50.5882C50.5946 50.5456 49.7573 50.5 48.9152 50.4573L48.3361 50.4281C47.0684 50.3648 45.7927 50.3023 44.5091 50.2406L43.8058 50.2065C40.047 50.0305 36.2882 49.8728 32.7772 49.7327L32.4119 49.7193C30.3952 49.6426 28.4655 49.5708 26.665 49.5093L26.254 49.4959C25.3004 49.4642 24.3889 49.4348 23.5193 49.4076L23.2435 49.3984L22.9677 49.3893L21.8168 49.3552C21.8168 49.2109 21.812 49.0684 21.8095 48.929C21.8095 48.8815 21.8095 48.8364 21.8095 48.7889C21.4399 28.1304 23.2459 24.2924 23.2709 24.2498L24.4832 21.5834C27.3372 16.0423 30.4323 14.5359 34.3275 13.5817C38.1764 12.6409 42.7013 12.4424 48.0926 15.9303C56.2106 21.1791 54.6268 45.1038 54.1768 50.7417H54.1756ZM54.4368 52.8528C53.5977 52.46 52.7507 52.1014 51.9506 51.7494C52.5733 51.7835 53.1906 51.818 53.8023 51.853C53.8973 51.9047 53.9947 51.9565 54.0915 52.0107C54.1244 52.3184 54.2441 52.6105 54.4368 52.8528ZM24.7018 51.8176C23.836 51.3597 22.9622 50.9152 22.0768 50.4933C23.2423 50.5274 24.5125 50.5675 25.8624 50.615C26.8939 51.0664 27.9189 51.5333 28.9374 52.0155C30.5042 52.7602 32.0246 53.5835 33.5554 54.3842C32.0569 54.3233 30.5772 54.2582 29.1298 54.1857L28.9861 54.1114C27.5509 53.3564 26.1346 52.5757 24.7018 51.8176ZM28.9472 51.5875C28.2025 51.2605 27.4535 50.9469 26.6991 50.64C27.2779 50.6603 27.8716 50.6806 28.4801 50.7009C29.592 51.2739 30.7209 51.8219 31.8547 52.3547C33.2412 53.0044 34.6527 53.6066 36.0562 54.2271C36.2559 54.3154 36.4526 54.4055 36.6499 54.4981C35.9831 54.4755 35.3237 54.4506 34.6673 54.4256C32.8254 53.3543 30.9145 52.4061 28.9472 51.5875ZM36.2827 53.8727C34.8134 53.2273 33.3484 52.5733 31.8791 51.9327C30.9767 51.54 30.0761 51.1411 29.1834 50.7283C30.3757 50.7709 31.6118 50.8184 32.8789 50.8683H32.8813C35.1684 52.5556 38.0772 53.5804 40.8465 54.6265C39.8467 54.6018 38.8531 54.5732 37.8659 54.5407C37.3337 54.3142 36.7985 54.0986 36.2827 53.8727ZM33.019 50.872L34.867 50.9463C35.8815 51.4608 36.9008 51.968 37.9347 52.4509C39.5842 53.22 41.2752 53.9062 42.9515 54.6211C42.9954 54.6393 43.0368 54.657 43.0806 54.6777C42.6209 54.6686 42.1636 54.6594 41.7039 54.6485H41.6953C38.8091 53.3746 35.602 52.6659 33.019 50.8726V50.872ZM42.7128 54.1839C40.9586 53.469 39.1945 52.7761 37.4762 51.9863C36.7558 51.6545 36.0434 51.3116 35.3304 50.9664C36.681 51.0206 38.0601 51.079 39.4539 51.1399C42.0984 52.1866 44.573 53.5147 47.1262 54.7428C46.0825 54.7315 45.0413 54.7156 44.0025 54.6954C43.569 54.5249 43.136 54.3556 42.7128 54.1845V54.1839ZM39.9904 51.1631C40.9902 51.2081 41.9957 51.254 43.0069 51.3007C44.7344 52.2006 46.5057 53.0221 48.2521 53.8837C48.8117 54.1613 49.3591 54.4567 49.8992 54.7636C49.2497 54.7636 48.6002 54.7597 47.9507 54.752C45.3908 53.3584 42.7299 52.1589 39.9904 51.1637V51.1631ZM48.576 53.7686C46.8102 52.9429 45.0169 52.1647 43.2627 51.3116C44.4196 51.3658 45.5765 51.42 46.7298 51.476C46.8833 51.5485 47.0385 51.6204 47.192 51.6946C49.1338 52.6196 50.9508 53.698 52.7879 54.7629C52.0967 54.7629 51.4062 54.7672 50.7176 54.7629C49.9917 54.4165 49.2647 54.0919 48.5736 53.7662L48.576 53.7686ZM47.525 51.5156C48.7782 51.5765 50.0216 51.6417 51.2449 51.7074C51.3326 51.7458 51.4227 51.7866 51.5098 51.8292C53.3883 52.6908 55.1224 53.7168 56.8864 54.7215C55.8014 54.7418 54.7106 54.7546 53.6142 54.7599C51.6811 53.5052 49.643 52.4203 47.5226 51.5174L47.525 51.5156ZM56.2203 53.7534C56.6693 53.8591 57.1253 53.9322 57.5849 53.972C58.0178 54.2155 58.458 54.4548 58.9038 54.6783C58.5098 54.6874 58.1152 54.6966 57.7188 54.7033C57.2367 54.3594 56.7356 54.0431 56.2179 53.7558L56.2203 53.7534ZM58.8794 54.0511C59.4999 54.0694 60.1399 54.0694 60.7896 54.0694C61.0136 54.0694 61.2395 54.0694 61.4636 54.0694C61.7847 54.2431 62.1115 54.4094 62.444 54.5681C61.6798 54.5973 60.9138 54.6247 60.1399 54.6473C59.724 54.4439 59.3008 54.2472 58.877 54.0536L58.8794 54.0511ZM61.5897 54.0645C62.8233 54.0554 64.0472 54.0195 65.1348 53.9586C65.4215 54.1096 65.7114 54.2588 66.0031 54.4006C64.8766 54.4615 63.733 54.5157 62.5798 54.5583C62.2412 54.4045 61.9104 54.2407 61.5872 54.067L61.5897 54.0645ZM65.7741 53.9178C66.5748 53.8611 67.2751 53.7911 67.8225 53.7034C67.9156 53.6889 68.0074 53.6672 68.0971 53.6383C68.445 53.8344 68.7953 54.0223 69.1481 54.2021C68.2721 54.2655 67.3849 54.3227 66.4865 54.3738C66.2497 54.2228 66.0104 54.0706 65.7723 53.9202L65.7741 53.9178ZM8.17113 50.7052C8.33919 51.4066 9.06867 51.7793 9.85964 52.018C10.6498 52.2565 11.4578 52.4316 12.2758 52.5416C12.6332 52.7602 12.9888 52.9837 13.3438 53.2072C11.7674 53.0897 10.3054 52.9746 8.9816 52.8668C8.53892 52.6482 8.09624 52.4357 7.66026 52.2262C6.94966 51.8858 6.23236 51.5607 5.49984 51.2605C6.32796 51.062 7.22854 50.8702 8.16992 50.7076L8.17113 50.7052ZM5.19417 51.3396C6.0503 51.6983 6.88755 52.0953 7.71445 52.5148C7.90687 52.6119 8.09664 52.7111 8.28378 52.8126C6.09901 52.6299 4.32586 52.474 3.0575 52.3547C2.8456 52.2755 2.63126 52.2013 2.41997 52.1294C3.15797 51.8919 4.10665 51.6124 5.19417 51.3396ZM70.2618 121.566C70.263 121.632 70.2506 121.698 70.2254 121.759C70.2001 121.821 70.1626 121.876 70.115 121.922C70.0674 121.968 70.0109 122.004 69.9489 122.027C69.8869 122.051 69.8207 122.061 69.7546 122.058C65.2297 121.805 60.5113 120.583 56.2714 120.164C55.8824 120.125 55.4951 120.087 55.1109 120.042C53.5277 119.879 51.9683 119.703 50.4326 119.511C50.1336 119.476 49.8365 119.437 49.5399 119.399C48.068 119.214 46.6196 119.017 45.1947 118.81C44.7228 118.74 44.2534 118.672 43.7863 118.6C42.137 118.354 40.5216 118.095 38.94 117.824C38.7452 117.793 38.5485 117.759 38.3536 117.725C28.6318 116.049 20.2891 114.041 13.9801 112.311C13.3524 112.139 12.7489 111.97 12.1625 111.805C8.55962 110.785 6.49237 110.352 4.60718 109.724L1.56932 108.655C1.52244 108.552 1.47068 107.377 1.43962 107.269C1.54557 107.297 1.81471 107.371 1.92066 107.399C8.53526 109.092 22.2473 112.822 28.9831 114.301C29.2912 114.367 29.4191 114.123 29.1341 114.037C22.5366 112.076 8.56693 108.332 1.69354 106.692L1.49747 106.645V106.427L1.4926 105.824V105.369C7.90321 106.713 18.8161 109.936 25.3997 110.869C25.5896 110.892 25.6725 110.736 25.4825 110.7C18.9135 109.52 7.98115 106.255 1.49138 104.924V104.126V104.112V103.889V103.69V103.352V102.919C4.3354 103.431 7.17699 103.951 10.0161 104.477C13.3444 105.098 20.4681 106.96 23.7599 107.651C24.0034 107.7 24.1806 107.481 23.9425 107.414C18.0477 105.733 7.77291 103.426 1.48895 102.343V102.278V101.786V101.238V100.812V100.738C3.73217 101.076 5.9754 101.418 8.21863 101.764C11.8362 102.324 18.5092 104.054 22.1231 104.616C22.3904 104.656 22.4885 104.446 22.24 104.39C16.6246 103.033 7.45993 101.056 1.48712 100.23V99.7048V99.2244L1.48225 98.1844V98.0949V97.984C8.16808 99.0316 14.7875 100.466 21.3072 102.281C21.5434 102.348 21.7547 102.163 21.5215 102.078C17.9259 100.722 10.6397 99.0606 6.58188 98.3926C4.89093 98.1131 3.18781 97.8489 1.48225 97.601L1.47738 97.0622V96.6901V96.3698C2.21964 96.4825 2.96616 96.5909 3.70843 96.695C8.41348 97.3581 17.0113 98.9644 21.4637 100.119C21.7748 100.196 21.9508 99.9253 21.6902 99.8217C17.9557 98.3439 9.28483 96.7717 5.00602 96.1311C3.82595 95.955 2.6475 95.7751 1.47068 95.5916V95.3749V94.7544L1.46094 93.0872C8.208 94.1814 14.8958 95.6142 21.499 97.38C21.6524 97.4251 21.7913 97.3008 21.6354 97.2534C15.0192 95.2981 8.27924 93.7893 1.46094 92.7371V92.351V92.0149L1.45363 90.7563C6.31457 91.7263 13.8109 93.5092 18.7887 94.1729C19.0445 94.2088 19.2533 93.9969 18.9836 93.9177C14.2828 92.5361 6.30787 91.0388 1.45241 90.0506V89.6085V89.4258L1.40065 87.7671V87.7062L1.4445 87.7129C6.194 88.5545 12.878 89.9854 17.4174 91.2373C17.6799 91.3098 17.9186 91.1021 17.6513 91.0138C12.336 89.4461 6.93128 88.199 1.46642 87.2794C1.44206 87.2751 1.42014 87.2703 1.39578 87.2678V86.7533L1.38848 85.5464V85.1318C5.69591 85.9124 15.3167 88.1099 19.8336 88.7243C19.9554 88.7414 20.0017 88.6476 19.8848 88.6214C15.5974 87.6228 6.00159 85.6944 1.56993 84.9272L1.38726 84.8955V84.6988V84.4735V83.6862V83.6819L1.63082 83.7234C5.84936 84.434 14.4106 86.1182 18.6956 86.5426C18.8222 86.5554 18.8569 86.4306 18.7278 86.4135C14.4326 85.9069 5.86641 84.1995 1.64056 83.4792L1.38421 83.4353V83.3081V83.0712L1.36777 81.4716V81.2469L1.73312 81.3078C5.76837 81.9776 13.0893 83.2216 17.1501 83.7903C17.3164 83.8141 17.3937 83.6771 17.2269 83.6418C13.208 82.8368 5.85484 81.5197 1.75321 80.8408L1.36595 80.7768V80.515V80.0053V79.6035V79.3556C1.51939 79.3776 1.6704 79.4007 1.82628 79.4226C5.69469 79.9786 15.1005 81.4399 18.9866 81.8936C19.1504 81.9125 19.2302 81.7761 19.0633 81.745C15.1955 81.0655 5.76655 79.5237 1.84699 78.9471L1.3629 78.8758V78.6804L1.35559 77.2567V77.2506L1.91884 77.3499C5.63319 77.9923 11.3405 78.9264 15.0713 79.4859C15.212 79.5036 15.2698 79.3873 15.1322 79.3581C11.4331 78.6024 5.70078 77.6294 1.93467 76.9943L1.35377 76.8962V76.783L1.34403 74.7998V74.4904V74.2761C1.58089 74.3151 1.81776 74.3547 2.05402 74.393C5.62589 74.9873 11.3704 76.0754 14.8801 76.7927C15.0232 76.822 15.078 76.6983 14.9447 76.6649C11.4519 75.8179 5.68921 74.7078 2.06802 74.1257L1.34403 74.0112L1.33428 72.4408V72.3379C1.6022 72.394 1.87012 72.45 2.13805 72.5048C5.48705 73.1874 10.9673 74.1458 14.438 74.5142C14.6274 74.5343 14.7127 74.3887 14.5245 74.3498C11.1231 73.6398 5.58205 72.7057 2.16362 72.0359L1.3355 71.8709L1.32332 69.8049V69.6051C1.6363 69.666 1.94928 69.7269 2.26287 69.7878C5.54673 70.4253 10.6183 71.3101 13.8322 72.0926C14.0088 72.1352 14.1446 71.9659 13.971 71.9166C10.7925 70.9661 5.6539 70.0332 2.27992 69.3823C1.96024 69.3214 1.64056 69.2605 1.32028 69.1996L1.31541 68.3922V68.0829L2.33046 68.2655C5.47609 68.8367 10.0295 69.8043 13.1886 70.2938C13.3572 70.32 13.4224 70.1848 13.2653 70.1501C10.155 69.4432 5.565 68.4019 2.35055 67.8229C2.00469 67.762 1.65761 67.7011 1.31114 67.6365V67.1129V66.8176C1.66918 66.8821 2.02905 66.9466 2.38831 67.0081C5.43286 67.5422 9.58381 68.3216 12.646 68.7789C12.8238 68.8032 12.9005 68.6571 12.7264 68.6211C9.66418 67.9958 5.49193 67.1056 2.41388 66.507C2.04569 66.4343 1.6773 66.3623 1.30871 66.2908L1.30384 65.5419V65.4536V65.1918C1.68948 65.2587 2.07634 65.3239 2.46442 65.3872C5.44443 65.8744 9.5765 66.4875 12.5815 66.8212C12.8056 66.8474 12.9127 66.6678 12.6813 66.6178C9.70255 65.9937 5.53759 65.2831 2.49304 64.768C2.09664 64.7028 1.69841 64.6352 1.3014 64.5682L1.27887 63.5422V63.2944V63.046V62.951C1.70511 63.0222 2.12587 63.0959 2.55028 63.1647C5.27759 63.6214 10.5234 64.5652 13.2622 64.975C13.4029 64.9951 13.4607 64.8788 13.3231 64.8489C10.6007 64.2918 5.33483 63.2853 2.56794 62.8103C2.13845 62.736 1.70897 62.6623 1.27948 62.5893V62.1898V61.8921V61.6528V61.3867V61.1431V61.1206V60.6109V60.3065V60.0629V59.6884V59.4875C1.73251 59.5624 2.3329 59.6671 2.72199 59.731C4.82212 60.0885 6.91008 60.4684 8.98403 60.8947C9.19837 60.9391 9.27387 60.7601 9.07719 60.7071C7.01177 60.1719 4.88971 59.7329 2.73904 59.3438C2.34568 59.2725 1.73495 59.1611 1.27765 59.0844V59.0192V58.7757V58.6764V58.2027C1.68745 58.2636 2.26348 58.3159 2.62213 58.3726C2.7226 58.3884 2.78532 58.347 2.79019 58.305V58.3001C2.79019 58.2697 2.75853 58.2392 2.69885 58.2283C2.31524 58.1406 1.70876 58.0547 1.27644 57.9701L0.894649 52.7006C1.50356 52.7663 2.86326 53.1298 4.19677 53.2608L5.70505 53.4026C6.96062 53.5244 8.41774 53.6553 10.0478 53.7972C10.3419 53.824 10.6415 53.849 10.9478 53.8764C12.2106 53.9848 13.5703 54.095 15.0086 54.2082L16.0742 54.2916C16.814 54.3483 17.5727 54.4067 18.3515 54.4634L19.5389 54.5492H19.5438C20.6094 54.6259 21.709 54.7002 22.8355 54.7745L23.6192 54.8263C24.524 54.8872 25.4417 54.9414 26.3782 54.9955L27.3561 55.0564C28.1152 55.1015 28.8841 55.1443 29.6626 55.1849L31.3067 55.2708C32.7543 55.3451 34.223 55.4135 35.7128 55.476L36.2139 55.4961C37.1748 55.5367 38.1432 55.5734 39.119 55.6063L40.0677 55.6379C41.8681 55.6988 43.6806 55.7469 45.5053 55.7823L46.5538 55.8024C47.5391 55.8202 48.5253 55.833 49.5125 55.8407C49.5661 55.8657 49.6221 55.8906 49.6757 55.9132C49.6889 55.9197 49.7035 55.9229 49.7182 55.9227C49.7329 55.9225 49.7474 55.9189 49.7604 55.9121C49.7735 55.9053 49.7847 55.8955 49.7933 55.8835C49.8018 55.8715 49.8075 55.8577 49.8097 55.8432C50.4665 55.8501 51.1233 55.8539 51.7801 55.8547H52.6777C53.3491 55.8547 54.0189 55.8525 54.6871 55.848C54.7163 55.8663 54.7479 55.8821 54.7747 55.8973C54.7885 55.9049 54.8036 55.9095 54.8192 55.9111C54.8348 55.9127 54.8505 55.9111 54.8655 55.9065C54.8805 55.9019 54.8944 55.8944 54.9064 55.8843C54.9184 55.8743 54.9283 55.8619 54.9355 55.848C57.1641 55.8298 59.3757 55.7871 61.5483 55.7195C61.6993 55.7153 61.8527 55.7104 62.0007 55.7037C64.7183 55.6112 67.8341 55.4376 70.3884 55.2458L69.9244 65.5443V100.447L70.2618 121.566ZM70.4725 54.1053C70.4652 54.1053 70.4554 54.1053 70.4481 54.1053C70.2338 54.1236 70.0219 54.1394 69.8033 54.1553C69.3996 53.9001 68.9855 53.6541 68.5672 53.4154C68.895 53.2023 69.1372 52.8804 69.251 52.5063C69.796 52.5581 70.2995 52.6147 70.7641 52.6707C71.4236 53.0428 72.0903 53.413 72.7589 53.7716L70.4725 54.1053ZM71.0254 120.622L71.1319 117.391C71.482 117.664 71.8255 117.946 72.1671 118.235C72.301 118.348 72.4325 118.461 72.5659 118.574L71.0254 120.622ZM73.0007 118.093L72.6311 117.804C72.1397 117.423 71.641 117.044 71.1325 116.678V112.933C71.6753 113.373 72.2064 113.828 72.726 114.296C73.422 114.926 74.0657 115.575 74.6746 116.245L73.0007 118.093ZM75.0612 115.821C74.3969 115.175 73.7015 114.573 73.025 114.016C72.4096 113.511 71.7788 113.024 71.1325 112.555V109.425C71.3152 109.588 71.4924 109.752 71.6702 109.919C72.6368 110.792 73.5408 111.733 74.3756 112.732C74.9157 113.407 75.3413 114.215 75.8979 114.896L75.0612 115.821ZM76.195 113.612C75.3389 112.139 73.6918 110.768 72.6091 109.811C72.1324 109.385 71.6349 108.981 71.1325 108.583V104.728C71.5827 105.096 72.0292 105.468 72.4721 105.844C73.4509 106.657 74.351 107.559 75.1605 108.54C75.5398 109.018 75.8516 109.575 76.1956 110.108L76.195 113.612ZM76.195 108.125C75.3532 107.221 74.4395 106.386 73.4628 105.629C72.7157 105.02 71.9302 104.463 71.1319 103.917V101.2C71.5918 101.491 72.0443 101.791 72.4892 102.1C73.5617 102.824 74.5811 103.623 75.5398 104.491C75.7718 104.709 75.9904 104.94 76.1944 105.184L76.195 108.125ZM76.195 104.186C75.3085 103.398 74.358 102.686 73.3532 102.055C72.6304 101.581 71.8864 101.137 71.1319 100.711V96.7967C72.0611 97.514 72.969 98.2538 73.8397 99.0302C74.6356 99.7383 75.4016 100.474 76.1219 101.252C76.1487 101.279 76.1731 101.309 76.195 101.335V104.186ZM76.195 100.356C75.5252 99.7535 74.8256 99.1988 74.2002 98.691C73.2126 97.8854 72.1859 97.1255 71.1325 96.3942V93.1341C71.9351 93.7363 72.7041 94.3817 73.4464 95.054C74.4106 95.9549 75.3274 96.9053 76.1932 97.9012L76.195 100.356ZM76.195 96.9946C75.3803 96.1488 74.4901 95.3566 73.6309 94.6168C72.8422 93.9339 72.0081 93.3053 71.1343 92.7352V90.1778C71.7816 90.6783 72.424 91.191 73.0536 91.7165C74.0357 92.5203 74.9709 93.3796 75.8546 94.2904C75.9715 94.4122 76.086 94.5388 76.195 94.6624V96.9946ZM76.195 93.95C75.3291 93.0793 74.3823 92.2761 73.5042 91.5539C72.74 90.9243 71.9424 90.3264 71.1295 89.7449V86.9518C71.3122 87.0645 71.4869 87.1795 71.6647 87.2971C72.8692 88.1033 74.0216 88.9849 75.1148 89.9367C75.4801 90.2478 75.8351 90.5773 76.1926 90.9042L76.195 93.95ZM76.195 90.2095C74.9667 89.2007 73.6799 88.2654 72.3412 87.4085C71.9448 87.1491 71.5405 86.8988 71.1319 86.6528V83.1157C71.7059 83.4993 72.2761 83.8888 72.8423 84.2842C74.0248 85.1123 75.1124 86.0214 76.195 86.9372V90.2095ZM76.195 86.3362C75.3291 85.6414 74.4018 85.0051 73.5067 84.3913C72.726 83.8567 71.9302 83.3379 71.1319 82.8276V80.1588C71.8255 80.5917 72.5062 81.0387 73.1584 81.5258C74.1945 82.3027 75.1728 83.154 76.0854 84.0729C76.1219 84.1088 76.1585 84.1472 76.195 84.1855V86.3362ZM76.195 83.0651C75.3827 82.3612 74.5211 81.7182 73.7356 81.1611C72.9042 80.5812 72.0345 80.0582 71.1325 79.5955V76.8701C71.7504 77.274 72.3593 77.689 72.9593 78.1153C74.0833 78.9117 75.144 79.7666 76.1926 80.635L76.195 83.0651ZM76.195 80.1752C74.5865 78.8884 72.8951 77.7086 71.1319 76.6435V73.9095C71.6501 74.3108 72.1671 74.7194 72.6792 75.1274C73.7752 76.0005 74.8509 76.8954 75.9064 77.812C76.0038 77.8955 76.0988 77.9838 76.1956 78.0714L76.195 80.1752ZM76.195 77.5697C76.1901 77.5654 76.1828 77.5606 76.178 77.5563C75.0174 76.5504 73.8373 75.5639 72.6262 74.6098C72.1348 74.2237 71.6385 73.8474 71.1325 73.4796V69.8658C72.9864 71.1353 74.6857 72.617 76.1956 74.281L76.195 77.5697ZM76.195 73.7658C74.6763 72.2261 72.9762 70.8766 71.1319 69.747V66.6751C71.3895 66.8468 71.6477 67.0203 71.9058 67.1939C73.4289 68.2509 74.8633 69.4302 76.195 70.7201V73.7658ZM76.195 70.0545C75.0454 69.0391 73.8287 68.1023 72.5531 67.2505C72.0859 66.9257 71.6123 66.6099 71.1325 66.303V63.4923C72.804 64.6949 74.4365 65.9492 76.1956 67.041L76.195 70.0545ZM76.195 66.8778C74.4529 65.7818 72.8156 64.5408 71.1319 63.3632V60.8149C72.9182 61.8008 74.6127 62.9446 76.195 64.2327V66.8778ZM76.195 64.0306C74.6115 62.788 72.9166 61.6945 71.1319 60.7638V58.35C72.8917 59.6007 74.733 60.7565 76.195 62.2927V64.0306ZM76.195 62.0443C74.7805 60.5604 72.857 59.4473 71.1319 58.2733V56.614C72.7594 57.8295 74.4494 58.959 76.195 59.9977V62.0443ZM76.195 59.7262C74.4797 58.6728 72.8545 57.4994 71.1319 56.4569V55.1496L71.9125 55.037C73.387 55.8455 74.8162 56.734 76.1938 57.6985L76.195 59.7262ZM76.195 57.5378C74.8681 56.6089 73.4828 55.7665 72.0477 55.0156L74.2885 54.6929C74.9285 55.1533 75.5532 55.6355 76.1956 56.0934L76.195 57.5378ZM76.195 55.8523C75.6135 55.4577 75.035 55.0607 74.4462 54.6704L74.4974 54.6637L74.9035 54.6028L76.1907 54.4201L76.195 55.8523Z" fill="url(#paint4_linear_2378_57116)"/>
<path d="M13.1832 63.2843C10.6398 62.6675 5.25095 61.5544 2.63872 61.0977C2.18407 61.0165 1.72921 60.9384 1.27415 60.8633L1.26562 61.1403C1.71805 61.2158 2.1729 61.2944 2.62471 61.3723C5.20284 61.8181 10.5765 62.891 13.1187 63.4097C13.2587 63.439 13.3141 63.3178 13.1832 63.2843Z" fill="url(#paint5_linear_2378_57116)"/>
<path d="M61.0446 0.641541C61.0338 0.632734 61.0201 0.628257 61.0062 0.628983C60.9923 0.629708 60.9792 0.635585 60.9694 0.645467C60.9596 0.65535 60.9538 0.668529 60.9532 0.682437C60.9526 0.696345 60.9571 0.709986 60.966 0.720699C65.8044 5.71742 69.1742 12.793 70.9485 19.2316C72.6175 25.6982 73.4765 32.347 73.5059 39.0255C73.5059 39.1917 73.7599 39.1746 73.7763 39.0188C74.4826 32.2751 73.431 24.671 71.4801 18.1489C69.5779 11.7877 66.0961 5.35329 61.0446 0.641541Z" fill="url(#paint6_linear_2378_57116)"/>
<path d="M74.1593 13.011C74.1356 12.9849 74.0911 13.0208 74.11 13.0488C76.7978 17.0213 77.3214 22.5277 77.6655 27.0799C77.9882 31.3502 78.2823 35.7039 77.5729 39.9499C77.5358 40.1727 77.9023 40.342 78.0034 40.099C79.793 35.802 79.0775 30.6652 78.6458 26.1848C78.2056 21.621 77.4602 16.6036 74.1593 13.011Z" fill="url(#paint7_linear_2378_57116)"/>
</g>
<defs>
<linearGradient id="paint0_linear_2378_57116" x1="16.2276" y1="-24.2632" x2="108.48" y2="89.3888" gradientUnits="userSpaceOnUse">
<stop stop-color="#DD272E"/>
<stop offset="1" stop-color="#7B4297"/>
</linearGradient>
<linearGradient id="paint1_linear_2378_57116" x1="19.6146" y1="-26.6916" x2="111.803" y2="86.8806" gradientUnits="userSpaceOnUse">
<stop stop-color="#DD272E"/>
<stop offset="1" stop-color="#7B4297"/>
</linearGradient>
<linearGradient id="paint2_linear_2378_57116" x1="22.2024" y1="-28.9294" x2="114.784" y2="85.1275" gradientUnits="userSpaceOnUse">
<stop stop-color="#DD272E"/>
<stop offset="1" stop-color="#7B4297"/>
</linearGradient>
<linearGradient id="paint3_linear_2378_57116" x1="-4.89788" y1="-5.37419" x2="82.2348" y2="101.97" gradientUnits="userSpaceOnUse">
<stop stop-color="#DD272E"/>
<stop offset="1" stop-color="#7B4297"/>
</linearGradient>
<linearGradient id="paint4_linear_2378_57116" x1="-15.6154" y1="1.22019" x2="75.8692" y2="113.925" gradientUnits="userSpaceOnUse">
<stop stop-color="#DD272E"/>
<stop offset="1" stop-color="#7B4297"/>
</linearGradient>
<linearGradient id="paint5_linear_2378_57116" x1="-34.1273" y1="11.248" x2="61.0217" y2="128.468" gradientUnits="userSpaceOnUse">
<stop stop-color="#DD272E"/>
<stop offset="1" stop-color="#7B4297"/>
</linearGradient>
<linearGradient id="paint6_linear_2378_57116" x1="62.8926" y1="18.3524" x2="202.29" y2="66.6617" gradientUnits="userSpaceOnUse">
<stop stop-color="#DD272E"/>
<stop offset="1" stop-color="#7B4297"/>
</linearGradient>
<linearGradient id="paint7_linear_2378_57116" x1="62.1588" y1="21.8236" x2="199.679" y2="69.4821" gradientUnits="userSpaceOnUse">
<stop stop-color="#DD272E"/>
<stop offset="1" stop-color="#7B4297"/>
</linearGradient>
<clipPath id="clip0_2378_57116">
<rect width="79.1584" height="123" fill="white"/>
</clipPath>
</defs>
</svg>
