<svg width="80" height="123" viewBox="0 0 80 123" fill="none" xmlns="http://www.w3.org/2000/svg">
<g clip-path="url(#clip0_2378_56803)">
<path d="M52.6422 75.7578L52.3828 76.0416V75.7578H52.6422Z" fill="#9A3976"/>
<path d="M53.7346 75.7578L52.3828 77.2381V76.0416L52.6422 75.7578H53.7346Z" fill="#993A77"/>
<path d="M54.8276 75.7578L52.3828 78.434V77.2381L53.7346 75.7578H54.8276Z" fill="#983A78"/>
<path d="M55.92 75.7578L52.3828 79.6299V78.434L54.8276 75.7578H55.92Z" fill="#973A79"/>
<path d="M57.013 75.7578L52.68 80.5L52.3828 80.2315V79.6299L55.92 75.7578H57.013Z" fill="#963A7A"/>
<path d="M57.5552 75.7578L57.8566 76.03L53.3203 80.9951H53.2277L52.6797 80.5L57.0127 75.7578H57.5552Z" fill="#953B7B"/>
<path d="M57.8567 76.0273L58.0071 76.1631V77.0582L54.4127 80.9924H53.3203L57.8567 76.0273Z" fill="#943B7C"/>
<path d="M58.0085 78.2545L55.5071 80.9928H54.4141L58.0085 77.0586V78.2545Z" fill="#943B7D"/>
<path d="M58.0092 79.4518L56.6002 80.9941H55.5078L58.0092 78.2559V79.4518Z" fill="#933C7E"/>
<path d="M58.0106 80.6477L57.6946 80.9935H56.6016L58.0106 79.4512V80.6477Z" fill="#923C7F"/>
<path d="M57.6914 80.9943L58.0074 80.6484V80.9943H57.6914Z" fill="#913C80"/>
<path d="M52.3594 74.8711L51.8516 75.4276V74.8711H52.3594Z" fill="#9B3975"/>
<path d="M53.4524 74.8711L51.8516 76.6235V75.4276L52.3594 74.8711H53.4524Z" fill="#9A3976"/>
<path d="M54.5448 74.8711L51.8516 77.8194V76.6235L53.4524 74.8711H54.5448Z" fill="#993A77"/>
<path d="M55.6378 74.8711L51.8516 79.0153V77.8194L54.5448 74.8711H55.6378Z" fill="#983A78"/>
<path d="M56.7302 74.8711L51.8516 80.2112V79.0153L55.6378 74.8711H56.7302Z" fill="#973A79"/>
<path d="M57.5096 74.8711L57.6813 75.0264L52.2589 80.9608L51.8516 80.593V80.2112L56.7302 74.8711H57.5096Z" fill="#963A7A"/>
<path d="M57.6802 75.0273L58.2787 75.5681L52.8564 81.5025L52.2578 80.9618L57.6802 75.0273Z" fill="#953B7B"/>
<path d="M58.2817 75.5664L58.5436 75.8027V76.4761L53.9323 81.5228H52.8837L52.8594 81.5009L58.2817 75.5664Z" fill="#943B7C"/>
<path d="M58.541 77.6725L55.0227 81.5232H53.9297L58.541 76.4766V77.6725Z" fill="#943B7D"/>
<path d="M58.5417 78.8678L56.1158 81.5226H55.0234L58.5417 77.6719V78.8678Z" fill="#933C7E"/>
<path d="M58.5431 80.0631L57.2102 81.522H56.1172L58.5431 78.8672V80.0631Z" fill="#923C7F"/>
<path d="M58.5399 81.2604L58.2994 81.5234H57.207L58.5399 80.0645V81.2604Z" fill="#913C80"/>
<path d="M58.3008 81.5248L58.5413 81.2617V81.5248H58.3008Z" fill="#903C81"/>
<path d="M56.4323 74.0039L55.5452 74.9751L55.5391 74.9696V74.0039H56.4323Z" fill="#983A78"/>
<path d="M57.5264 74.0039L56.1454 75.5158L55.5469 74.9751L56.4341 74.0039H57.5264Z" fill="#973A79"/>
<path d="M58.6185 74.0039L56.8393 75.9512H56.6268L56.1445 75.5158L57.5255 74.0039H58.6185Z" fill="#963A7A"/>
<path d="M58.9607 74.0039L59.3723 74.376L57.9328 75.9512H56.8398L58.6191 74.0039H58.9607Z" fill="#953B7B"/>
<path d="M59.3692 74.375L59.4714 74.4676V75.4583L59.0221 75.9503H57.9297L59.3692 74.375Z" fill="#943B7C"/>
<path d="M59.0234 75.951L59.4728 75.459V75.951H59.0234Z" fill="#943B7D"/>
<path d="M51.7855 79.0898L51.0195 79.9283V79.0898H51.7855Z" fill="#983A78"/>
<path d="M51.8367 79.0898L52.4072 79.6056L51.0195 81.1242V79.9283L51.7855 79.0898H51.8367Z" fill="#973A79"/>
<path d="M52.4072 79.6055L53.0058 80.1462L51.4744 81.8225L51.0195 81.4115V81.1241L52.4072 79.6055Z" fill="#963A7A"/>
<path d="M53.0041 80.1465L53.6026 80.6872L52.0712 82.3635L51.4727 81.8228L53.0041 80.1465Z" fill="#953B7B"/>
<path d="M53.6056 80.6875L54.2042 81.2282L53.1343 82.3992H52.1132L52.0742 82.3638L53.6056 80.6875Z" fill="#943B7C"/>
<path d="M54.2027 81.2266L54.3013 81.3155V82.3141L54.2252 82.3975H53.1328L54.2027 81.2266Z" fill="#943B7D"/>
<path d="M54.2266 82.3998L54.3027 82.3164V82.3998H54.2266Z" fill="#933C7E"/>
<path d="M42.2409 31.5585C46.3717 34.7078 49.9454 38.4142 53.4558 42.2156C54.8709 43.7476 56.3012 45.2699 57.7791 46.7398C58.9178 48.0013 60.2181 49.1069 61.6463 50.028C61.6625 50.037 61.6815 50.0399 61.6998 50.0362C61.718 50.0324 61.7343 50.0223 61.7457 50.0076C61.7571 49.9928 61.7629 49.9745 61.7619 49.9559C61.761 49.9373 61.7535 49.9197 61.7406 49.9062C55.2497 43.7574 49.5204 36.828 42.2829 31.4866C42.239 31.4543 42.1983 31.5268 42.2403 31.5585H42.2409Z" fill="url(#paint0_linear_2378_56803)"/>
<path d="M60.8512 21.1454C62.4052 23.3484 63.6205 26.0331 65.5764 27.914C65.6622 27.9969 65.8126 27.8897 65.7456 27.7844C64.2897 25.4948 62.6256 23.2352 60.9961 21.0614C60.9352 20.9767 60.7885 21.0565 60.8512 21.1454Z" fill="url(#paint1_linear_2378_56803)"/>
<path d="M57.4402 20.9938C58.7494 22.7256 60.1462 24.3873 61.5303 26.06C62.9983 27.8337 64.3459 29.7134 65.8383 31.4634C65.9108 31.5481 66.0405 31.4397 65.9887 31.3477C63.8326 27.4933 60.2473 24.3806 57.4962 20.9506C57.4713 20.9189 57.4152 20.9616 57.4396 20.9938H57.4402Z" fill="url(#paint2_linear_2378_56803)"/>
<path d="M52.3419 19.2126C54.484 21.7505 56.6189 24.2945 58.8085 26.7911C60.9561 29.2401 63.0928 31.9522 65.6125 34.0371C65.6175 34.0421 65.6234 34.0461 65.63 34.0488C65.6365 34.0515 65.6435 34.0529 65.6505 34.0529C65.6576 34.0529 65.6646 34.0515 65.6711 34.0488C65.6777 34.0461 65.6836 34.0421 65.6886 34.0371C65.6936 34.0321 65.6976 34.0262 65.7003 34.0196C65.703 34.0131 65.7044 34.0061 65.7044 33.999C65.7044 33.992 65.703 33.985 65.7003 33.9784C65.6976 33.9719 65.6936 33.966 65.6886 33.961C63.5075 31.473 61.1388 29.1366 58.9419 26.6541C56.7449 24.1715 54.5675 21.6689 52.376 19.1797C52.3553 19.1565 52.3224 19.19 52.3419 19.2132V19.2126Z" fill="url(#paint3_linear_2378_56803)"/>
<path d="M45.9614 18.3234C49.8475 21.1104 53.2976 24.4734 56.716 27.7956C59.6302 30.6307 62.0951 33.9858 65.2407 36.5779C65.3339 36.6547 65.4648 36.5317 65.3765 36.4434C59.1121 30.1551 53.3213 23.4175 45.9791 18.2923C45.9602 18.2789 45.9425 18.31 45.9608 18.3234H45.9614Z" fill="url(#paint4_linear_2378_56803)"/>
<path d="M44.294 19.8584C51.8566 25.5937 57.7661 33.2544 64.5013 39.8696C64.5664 39.9335 64.6925 39.8459 64.6328 39.7685C61.917 36.4278 58.9881 33.266 55.8645 30.303C52.1842 26.641 48.518 22.9005 44.3244 19.8066C44.2934 19.7835 44.2635 19.8352 44.294 19.8578V19.8584Z" fill="url(#paint5_linear_2378_56803)"/>
<path d="M39.1825 20.8697C43.6966 24.1326 48.0006 27.6768 52.0688 31.4812C56.0877 35.1249 59.7795 39.1242 63.8166 42.7339C63.8439 42.7579 63.8794 42.7707 63.9158 42.7696C63.9523 42.7685 63.9869 42.7536 64.0128 42.7279C64.0386 42.7022 64.0537 42.6676 64.0551 42.6312C64.0564 42.5948 64.0438 42.5592 64.0199 42.5317C62.3307 40.5544 60.5208 38.6835 58.6006 36.9297C56.4666 34.8692 54.2877 32.8565 52.064 30.8918C48.0006 27.2625 43.7059 23.9009 39.2068 20.8283C39.1812 20.8112 39.1575 20.852 39.1825 20.8697Z" fill="url(#paint6_linear_2378_56803)"/>
<path d="M37.2563 23.4137C39.8641 25.8776 42.614 28.1867 45.4919 30.3291C47.7546 32.112 49.8577 34.0361 51.9427 36.0169C53.9042 37.8806 55.8776 39.7313 57.8631 41.569C59.5054 43.1882 61.2512 44.699 63.0894 46.092C63.2349 46.1943 63.3908 45.9745 63.2721 45.8533C59.7952 42.2315 55.8902 38.9592 52.2179 35.5298C50.275 33.6701 48.2356 31.914 46.1081 30.2688C43.1244 28.0189 40.019 25.9413 37.3026 23.3668C37.2722 23.3376 37.2259 23.3833 37.2557 23.4131L37.2563 23.4137Z" fill="url(#paint7_linear_2378_56803)"/>
<path d="M38.0225 32.5648C41.4768 36.0197 45.4396 38.8974 48.8276 42.4291C50.2762 43.938 51.695 45.4737 53.1241 47.0008C54.3023 48.2594 55.4471 49.7409 56.9042 50.6951C56.9293 50.7101 56.9586 50.7165 56.9877 50.7131C57.0168 50.7096 57.0438 50.6967 57.0647 50.6762C57.0856 50.6557 57.0991 50.6289 57.1032 50.5999C57.1072 50.5709 57.1014 50.5414 57.0869 50.5161C56.066 49.1431 54.9299 47.8598 53.691 46.6799C52.2241 45.1095 50.7578 43.5398 49.2581 42.0004C45.819 38.4736 41.6333 35.89 38.073 32.516C38.0395 32.4844 37.9896 32.5337 38.0225 32.5666V32.5648Z" fill="url(#paint8_linear_2378_56803)"/>
<path d="M36.723 35.8699C38.8037 38.7926 41.7063 41.112 44.4434 43.3942C45.9809 44.6759 47.5269 45.9516 49.0315 47.2705C50.3176 48.3988 51.4781 49.7019 52.7897 50.7918C52.8093 50.811 52.8351 50.8225 52.8625 50.8242C52.8898 50.8258 52.9169 50.8176 52.9386 50.8009C52.9604 50.7843 52.9754 50.7603 52.981 50.7335C52.9865 50.7067 52.9822 50.6787 52.9688 50.6548C52.2886 49.3037 50.9186 48.1827 49.811 47.1901C48.2887 45.8243 46.6964 44.5359 45.1102 43.2419C42.2787 40.9317 39.0819 38.6934 36.8028 35.809C36.7675 35.7639 36.6895 35.8236 36.723 35.8699Z" fill="url(#paint9_linear_2378_56803)"/>
<path d="M35.9843 39.1671C38.0546 41.5467 40.5402 43.5616 42.9186 45.6216C44.235 46.7614 45.557 47.894 46.871 49.0357C47.8453 49.8803 48.7726 50.8454 49.8218 51.5932C49.9016 51.6498 50.0008 51.5402 49.9527 51.4629C49.1879 50.407 48.2782 49.4641 47.2504 48.6619C45.9503 47.5049 44.5973 46.3985 43.2456 45.2995C40.7338 43.3676 38.3228 41.3082 36.022 39.1294C35.9971 39.1044 35.9612 39.1415 35.9837 39.1671H35.9843Z" fill="url(#paint10_linear_2378_56803)"/>
<path d="M35.8505 43.2369C37.3828 44.9416 39.0581 46.5121 40.8582 47.931C42.5078 49.3114 44.1512 50.8039 45.9311 52.018C46.0072 52.0704 46.0808 51.9571 46.0254 51.8963C44.5768 50.265 42.6369 48.9613 40.949 47.5882C39.1693 46.2351 37.4809 44.7658 35.895 43.19C35.8658 43.159 35.8213 43.2047 35.8481 43.2363L35.8505 43.2369Z" fill="url(#paint11_linear_2378_56803)"/>
<path d="M33.9288 46.2778C34.6894 47.6763 35.7416 48.8951 37.0142 49.8515C38.2198 50.9088 39.4909 51.889 40.8199 52.7864C40.8438 52.7995 40.8714 52.8045 40.8984 52.8007C40.9254 52.7969 40.9505 52.7844 40.9699 52.7652C40.9893 52.7459 41.0019 52.721 41.0059 52.694C41.0099 52.667 41.0051 52.6394 40.9922 52.6153C39.409 49.8862 35.789 48.8242 33.9855 46.2443C33.9807 46.2376 33.9736 46.2329 33.9656 46.2312C33.9576 46.2295 33.9492 46.2308 33.9422 46.2349C33.9351 46.239 33.9298 46.2456 33.9273 46.2535C33.9248 46.2613 33.9254 46.2697 33.9288 46.2772V46.2778Z" fill="url(#paint12_linear_2378_56803)"/>
<path d="M31.8664 48.9563C32.5356 49.8095 33.3083 50.5762 34.1668 51.2385C34.9652 51.9802 35.8203 52.6583 36.7243 53.2668C36.815 53.3247 36.8954 53.1998 36.8332 53.1268C35.451 51.4973 33.2364 50.6187 31.962 48.9021C31.9218 48.848 31.8298 48.8979 31.8688 48.9563H31.8664Z" fill="url(#paint13_linear_2378_56803)"/>
<path d="M79.1278 102.103L76.4718 81.9762C76.8054 81.8108 77.0969 81.5715 77.3242 81.2766C77.5217 81.0221 77.6665 80.7309 77.7501 80.4198C77.8338 80.1088 77.8546 79.7842 77.8114 79.4651L76.7153 71.2649C76.6733 70.9452 76.5681 70.6371 76.4059 70.3585C76.2436 70.0799 76.0276 69.8364 75.7703 69.6421C75.4792 69.421 75.1424 69.2677 74.7845 69.1933L72.4925 51.798C72.3792 50.9755 71.9867 50.2168 71.3808 49.6492C70.7749 49.0815 69.9924 48.7393 69.1642 48.6797C68.9725 48.6675 68.7801 48.6702 68.5888 48.6877L76.3384 16.8587C76.4526 16.3815 76.3729 15.8785 76.1167 15.46C75.8606 15.0416 75.4489 14.7418 74.972 14.6264L37.7487 5.56277C37.2713 5.44664 36.7673 5.52302 36.3458 5.77539C35.9242 6.02775 35.6189 6.43585 35.4957 6.9115L34.8259 9.56879L23.013 6.90359C22.7563 6.84481 22.4904 6.8378 22.2309 6.88297C21.9714 6.92813 21.7235 7.02457 21.5017 7.16664C21.2797 7.30677 21.0882 7.49007 20.9384 7.70564C20.7886 7.92122 20.6837 8.16469 20.6298 8.4216L19.13 15.485L6.17543 15.8448C5.97938 15.8495 5.78621 15.8931 5.60715 15.9731C5.42809 16.053 5.2667 16.1678 5.13236 16.3107C4.99754 16.4523 4.8925 16.6195 4.82347 16.8024C4.75444 16.9853 4.72282 17.1803 4.73048 17.3756L6.14863 56.8282L3.15036 57.2197C2.207 57.3433 1.35037 57.8337 0.766109 58.5846C0.181852 59.3355 -0.0829557 60.2864 0.0290788 61.2312L6.35505 111.588C6.37974 111.789 6.42212 111.988 6.48171 112.182C6.51027 112.283 6.54504 112.383 6.58583 112.48C6.76842 112.941 7.04674 113.357 7.40238 113.702C7.46023 113.76 7.52051 113.817 7.58505 113.872C8.14633 114.352 8.84141 114.65 9.5768 114.724C9.69128 114.735 9.80514 114.74 9.91536 114.74C9.95372 114.74 9.99208 114.74 10.0298 114.74C10.1597 114.738 10.2894 114.728 10.4183 114.712L14.3403 114.199L14.3842 114.246L14.5912 114.167L76.0145 106.134C76.485 106.074 76.9389 105.921 77.3503 105.685C77.7616 105.449 78.1221 105.133 78.4111 104.757C78.7008 104.385 78.9133 103.958 79.0364 103.502C79.1594 103.046 79.1905 102.57 79.1278 102.103ZM77.3662 94.6129C77.091 94.8705 76.8182 95.1354 76.543 95.3893C76.3603 95.5543 76.1777 95.7163 75.9986 95.8837L75.7216 93.8804C76.0102 93.632 76.2879 93.3689 76.5661 93.1132C76.7488 92.9482 76.9272 92.7795 77.1008 92.6035L77.3662 94.6129ZM77.0709 92.3776C76.8377 92.5987 76.6063 92.8227 76.3701 93.0395C76.1448 93.2459 75.9122 93.4493 75.6911 93.6636L75.4348 91.8095C75.8976 91.404 76.3542 90.993 76.8353 90.6093L77.0709 92.3776ZM76.8274 90.5509C76.3259 90.8862 75.8532 91.2626 75.4141 91.6762L75.1882 90.0424C75.6595 89.6814 76.1624 89.3538 76.6203 88.9799L76.8274 90.5509ZM76.6094 88.9007C76.1113 89.2169 75.6317 89.5613 75.173 89.9322L74.9379 88.2322C75.3873 87.8327 75.9067 87.5179 76.3774 87.1422L76.6094 88.9007ZM75.8787 83.3694L76.0668 84.7943C75.5204 85.0935 75.0314 85.4872 74.6225 85.9573L74.3923 84.2919C74.8714 83.9578 75.3689 83.6509 75.8823 83.3724L75.8787 83.3694ZM74.3808 84.2097L74.1329 82.4183L75.6893 82.2125L75.7252 82.2058L75.8659 83.2732C75.3371 83.5274 74.8398 83.8428 74.3844 84.2127L74.3808 84.2097ZM76.0814 84.9032L76.3695 87.0874C75.8672 87.4064 75.3843 87.755 74.9233 88.1311L74.6566 86.202C75.0901 85.7253 75.5684 85.2914 76.0851 84.9063L76.0814 84.9032ZM77.0472 79.5619C77.077 79.7817 77.0628 80.0052 77.0053 80.2194C76.9478 80.4336 76.8482 80.6342 76.7123 80.8095C76.5769 80.9862 76.4078 81.1344 76.2149 81.2455C76.022 81.3565 75.809 81.4284 75.5882 81.4568L75.257 81.5006C75.5103 81.0531 75.6783 80.5264 75.8659 80.1002C76.1534 79.4056 76.4803 78.728 76.845 78.0706L77.0472 79.5619ZM76.831 77.944C76.1019 79.0923 75.4642 80.2962 74.9239 81.5445L74.0465 81.6602C74.517 80.9571 74.8952 80.1964 75.1717 79.3969C75.5845 78.3787 76.073 77.393 76.6331 76.4479L76.831 77.944ZM76.6161 76.3371C75.4281 77.9811 74.7893 79.9485 73.7767 81.6955L72.7166 81.8355C72.8335 81.6468 72.9346 81.4495 73.0259 81.2979C73.5131 80.4923 73.9533 79.6587 74.4015 78.8312C75.0956 77.5525 75.7411 76.2409 76.4316 74.9591L76.6161 76.3371ZM76.417 74.8483C75.6455 76.0619 74.9123 77.3034 74.1841 78.5419C73.7195 79.3335 73.2494 80.1178 72.7903 80.9106C72.5772 81.2317 72.3805 81.5634 72.2009 81.9044L71.1748 82.0401C71.6072 81.4629 71.9743 80.7937 72.3513 80.2506C73.0722 79.2118 73.8224 78.1608 74.4599 77.069C75.0865 75.9961 75.6229 74.8532 76.2763 73.7924L76.417 74.8483ZM76.2544 73.6305C75.5206 74.6315 74.9184 75.7422 74.2645 76.7907C73.1337 78.6028 71.6626 80.2463 70.614 82.112L69.848 82.2131C71.0464 80.5855 71.9226 78.6345 73.0545 76.971C74.1717 75.4821 75.181 73.9152 76.0747 72.2823L76.2544 73.6305ZM75.9499 71.3598L76.0553 72.1466C75.0947 73.7282 74.0436 75.253 72.9072 76.7134C71.6218 78.4833 70.4601 80.3398 69.4303 82.2697L67.7375 82.4932C68.6552 81.4854 69.2312 80.0472 69.9363 78.9225C70.4715 78.07 71.0445 77.2395 71.6139 76.4089C72.8467 74.427 74.231 72.5435 75.7545 70.7753C75.8576 70.9575 75.9258 71.1574 75.9554 71.3647L75.9499 71.3598ZM75.299 70.2419C75.4658 70.3689 75.6074 70.5258 75.7167 70.7047C74.2046 72.3081 72.8305 74.0362 71.609 75.8707C70.9952 76.7231 70.3912 77.5872 69.8164 78.4646C68.9481 79.786 68.2728 81.2699 67.3466 82.5498L65.5978 82.7806C66.0898 82.2046 66.6476 81.69 67.1104 81.0866C67.7534 80.2481 68.2673 79.3171 68.8561 78.4415C69.5308 77.4374 70.2268 76.4491 70.9264 75.4615C72.2051 73.6518 73.4229 71.7033 74.8545 70.005C75.0158 70.0625 75.1675 70.144 75.3045 70.2468L75.299 70.2419ZM74.2711 69.8942C74.4482 69.8945 74.6241 69.9226 74.7924 69.9776C73.37 71.5383 72.1558 73.3504 70.8953 75.0316C70.2864 75.8439 69.7019 76.6659 69.124 77.4989C68.4256 78.5054 67.7887 79.5527 67.0866 80.5562C66.5477 81.3271 65.8079 81.9823 65.3482 82.8043L64.4957 82.917C65.5954 81.5877 66.3638 79.9942 67.3241 78.5694C67.933 77.6694 68.59 76.8035 69.2367 75.9322C70.653 74.0257 72.3092 72.1216 73.3919 69.9928L74.044 69.907C74.1213 69.8991 74.199 69.8964 74.2766 69.8991L74.2711 69.8942ZM63.9477 79.1405C64.6729 78.1169 65.4931 77.1561 66.2865 76.1849C67.7881 74.3472 69.6355 72.4809 70.7383 70.3515L72.0023 70.1846C70.7608 72.3043 68.9864 74.1955 67.4574 76.1014C65.6815 78.3382 64.0706 80.7011 62.6373 83.1715L61.2331 83.3542C62.2543 82.0365 62.9838 80.4984 63.9477 79.1405ZM60.8812 83.4029L55.0424 84.1744C54.3084 84.2737 53.5622 84.2271 52.8463 84.0374C52.1304 83.8476 51.4591 83.5184 50.8707 83.0686C50.2819 82.6238 49.7874 82.0663 49.416 81.4287C49.0446 80.791 48.8037 80.0859 48.7072 79.3542L48.6506 78.928C48.5511 78.1973 48.5982 77.4541 48.7892 76.7418C48.9803 76.0295 49.3113 75.3624 49.7631 74.7795C50.2134 74.1923 50.7754 73.7 51.4167 73.3309C52.058 72.9618 52.7661 72.7232 53.5 72.6288L70.653 70.3631C69.3785 72.5344 67.4258 74.4361 65.8055 76.3432C63.9641 78.5503 62.3168 80.9123 60.8818 83.4029H60.8812ZM65.7421 78.8409C66.3803 77.9196 67.0781 77.0373 67.7619 76.1495C69.2318 74.2406 70.9849 72.3286 72.0955 70.1719L73.3048 70.0123C72.1345 72.0272 70.5215 73.8485 69.0997 75.6837C67.3074 77.9994 65.6711 80.4317 64.2016 82.9645L62.9807 83.1258C64.0311 81.7948 64.7807 80.2305 65.7427 78.8415L65.7421 78.8409ZM71.7308 51.8966L74.0044 69.1538C73.985 69.1538 73.9661 69.1538 73.9436 69.1586L72.3275 69.3724L69.5831 49.5158C70.1385 49.6517 70.6402 49.9514 71.0231 50.3759C71.406 50.8005 71.6526 51.3303 71.7308 51.8966ZM36.2392 7.09783C36.3127 6.81846 36.4928 6.57905 36.7409 6.43105C36.989 6.28304 37.2852 6.23823 37.566 6.30625L74.7893 15.3687C75.0698 15.4365 75.3118 15.6128 75.4624 15.859C75.613 16.1051 75.6598 16.4009 75.5925 16.6815L67.7729 48.7845L62.633 49.4543L68.1565 25.0978L67.9324 25.0278C64.0883 23.824 64.355 19.5805 64.3684 19.4009L64.3843 19.1847L44.6525 14.4998L44.5916 14.7433C43.5601 18.8328 38.9525 18.4534 38.757 18.4358L38.5372 18.415L29.8645 53.7319L24.2455 54.4626L30.4752 29.862C30.4825 29.8525 30.4878 29.8416 30.4908 29.8299C30.4937 29.8183 30.4942 29.8062 30.4923 29.7944L36.2392 7.09783ZM62.096 49.5261L30.4076 53.6625L38.9324 18.9545C39.9231 18.9838 43.9145 18.8516 45.0215 15.1111L63.8569 19.5805C63.8521 20.5164 64.0628 24.1948 67.5603 25.4376L62.096 49.5261ZM16.8295 54.0424L17.2442 52.2157C17.8531 52.6529 18.4913 53.0511 19.1142 53.4719C19.7251 53.8993 20.2957 54.3816 20.8191 54.9126L18.7488 55.1823C18.16 54.7469 17.4409 54.4437 16.8301 54.0424H16.8295ZM18.4687 55.2207L16.5038 55.477L16.8082 54.1325C17.3331 54.5296 17.903 54.8718 18.4687 55.2207ZM17.26 52.1469L17.8081 49.7344C19.7292 51.2256 21.4006 53.0639 23.2992 54.5898L21.1187 54.8742C20.1999 53.6752 18.5296 52.9531 17.2606 52.1469H17.26ZM20.3752 51.8424C19.5142 51.1428 18.708 50.3439 17.8227 49.6717L18.2854 47.6336C19.3206 48.3302 20.2583 49.2515 21.2563 49.9986C22.2319 50.7016 23.1484 51.4832 23.9964 52.3356L23.4484 54.4936C22.4699 53.5565 21.4213 52.6894 20.3758 51.84L20.3752 51.8424ZM21.825 50.2422C20.6596 49.3788 19.5502 48.3205 18.3013 47.563L18.7159 45.7363C20.7318 47.1562 22.6633 48.6922 24.5006 50.3366L24.053 52.1122C23.3777 51.4123 22.6312 50.7847 21.8257 50.2398L21.825 50.2422ZM32.1577 17.6241C32.3099 17.8415 32.4536 18.0801 32.6095 18.3091L32.2819 19.603C31.6451 18.798 30.9244 18.0631 30.1318 17.411V17.4055C30.1451 17.3799 30.156 17.3532 30.1647 17.3257C30.275 17.0537 30.3612 16.7725 30.4223 16.4854L31.4209 16.6857C31.6847 16.9838 31.9307 17.2971 32.1577 17.6241ZM31.6035 16.7186L32.9431 16.9878L32.6831 18.0156C32.5193 17.7976 32.3464 17.5894 32.1863 17.3836C32.0051 17.1508 31.8105 16.9288 31.6035 16.7186ZM32.2277 19.8241L31.9336 20.9859C31.6133 20.6205 31.2425 20.2862 30.9173 19.969C30.4269 19.4897 29.9054 19.0434 29.3561 18.633C29.6666 18.291 29.9186 17.9001 30.102 17.4761C30.8875 18.1946 31.5177 19.0374 32.2265 19.8216L32.2277 19.8241ZM30.8838 20.1718C31.212 20.5371 31.5104 20.9585 31.8447 21.3354L31.4367 22.9453C30.5279 21.65 29.4157 20.51 28.1431 19.5695C28.5747 19.3437 28.9657 19.0476 29.3 18.6933C29.3094 18.6848 29.3181 18.6756 29.3262 18.6659C29.8792 19.1309 30.3994 19.6334 30.8832 20.1699L30.8838 20.1718ZM29.9473 21.4657C30.4612 21.9991 30.8789 22.6348 31.3758 23.1877L30.9733 24.7782C30.1702 23.8648 29.2726 23.0355 28.4074 22.1854C27.7055 21.4354 26.9128 20.7758 26.0478 20.2217C26.6987 20.1413 27.3329 19.9588 27.9269 19.681C27.956 19.6697 27.9845 19.6569 28.0122 19.6426C28.0341 19.6317 28.0542 19.6189 28.0731 19.6079C28.7476 20.174 29.3743 20.7947 29.9467 21.4639L29.9473 21.4657ZM30.9216 24.9846L30.5507 26.446C29.7406 25.5027 28.8265 24.654 27.8259 23.9159C26.7357 22.9364 25.5354 22.0867 24.2491 21.3841L24.5012 20.2728C24.9939 20.3038 25.4885 20.2887 25.9784 20.2278C27.9062 21.3896 29.3159 23.4093 30.9197 24.9822L30.9216 24.9846ZM27.8271 24.2198C28.7544 25.0184 29.6372 25.8673 30.4716 26.7626L29.9278 28.9115C28.3928 26.9276 25.6277 25.6714 23.5604 24.422L24.2376 21.4383C25.5308 22.2317 26.7338 23.1635 27.8253 24.2174L27.8271 24.2198ZM27.1573 27.061C28.092 27.7953 28.9116 28.6514 29.7987 29.4302L29.2245 31.699C27.3842 29.7089 25.3363 27.9211 23.1159 26.3662L23.5422 24.4816C24.7679 25.3146 25.9888 26.144 27.153 27.0585L27.1573 27.061ZM29.199 31.7983L28.7819 33.4466C27.91 32.2633 26.8709 31.2129 25.6971 30.3284C24.757 29.5977 23.695 28.9699 22.6757 28.2989L23.1019 26.4174C25.3433 27.9902 27.2066 29.9393 29.1947 31.7959L29.199 31.7983ZM24.8781 29.904C26.3547 31.0408 27.4258 32.4474 28.7015 33.7444L28.2083 35.6929C26.5246 33.5958 24.2193 32.1953 22.1867 30.4563L22.6635 28.3573C23.4137 28.8731 24.1791 29.3663 24.8781 29.904ZM25.3159 33.032C26.3396 33.8886 27.295 34.8237 28.1735 35.8287L27.6322 37.9653C25.7823 36.1462 23.7581 34.5131 21.5888 33.0898L22.174 30.5147C23.1787 31.4092 24.2674 32.188 25.3159 33.032ZM27.5951 38.1133L27.0799 40.1489C25.4688 38.19 23.0216 36.9004 21.0974 35.2569L21.5797 33.1336C23.6804 34.704 25.6508 36.3615 27.5951 38.1133ZM27.0404 40.3054L26.5398 42.2831C25.7283 41.4196 24.8531 40.6183 23.9215 39.8859C22.8474 39.059 21.6588 38.394 20.5646 37.5933L21.0846 35.3044C22.9954 37.0617 25.1442 38.5225 27.0404 40.3042V40.3054ZM23.3565 39.5796C24.4705 40.4489 25.5237 41.3935 26.5088 42.4067L26.0424 44.2499C25.1899 43.4967 24.3502 42.7136 23.4429 42.0286C22.3877 41.128 21.2817 40.2885 20.1304 39.5144L20.5567 37.6329C21.467 38.313 22.4394 38.9037 23.3565 39.5796ZM23.1811 42.0627C24.1511 42.8098 25.0005 43.7232 25.9949 44.4375L25.4907 46.4274C24.5773 45.5085 23.558 44.7042 22.5716 43.862C21.6639 43.0327 20.6873 42.2821 19.6524 41.6182L20.1183 39.5674C21.2009 40.2634 22.1654 41.2796 23.1811 42.0597V42.0627ZM25.4535 46.5729L24.9792 48.4459C23.1777 46.7386 21.2255 45.1977 19.1464 43.8419L19.6427 41.656C21.7715 42.9511 23.6311 44.86 25.4535 46.5729ZM22.2263 46.2806C23.1823 47.0113 24.0177 47.8723 24.9299 48.6316L24.5554 50.1137C22.9722 48.3522 20.6736 46.9651 18.7293 45.6754L19.1349 43.8888C20.1767 44.6743 21.1912 45.4915 22.2263 46.2806ZM21.3799 8.5787C21.413 8.42092 21.4774 8.27138 21.5693 8.13896C21.6613 8.00654 21.7789 7.89393 21.9152 7.80782C22.0514 7.72066 22.2036 7.6615 22.3629 7.63379C22.5222 7.60609 22.6855 7.61039 22.8431 7.64646L34.6359 10.308L33.0692 16.4939L30.0149 15.8814L29.9704 16.1395C29.9142 16.4824 29.8201 16.8179 29.6897 17.14L29.6666 17.196C29.5012 17.6014 29.2654 17.9743 28.97 18.2975L28.9396 18.3286C28.6101 18.683 28.2178 18.9732 27.7826 19.1847C27.7698 19.1908 27.7577 19.1975 27.7217 19.2115C26.6548 19.6736 25.4882 19.858 24.3307 19.7473L24.1005 19.7187L15.9637 55.5476L11.2751 56.1566L21.3799 8.5787ZM11.2598 28.2855C11.5617 28.2781 11.8625 28.248 12.1598 28.1954C13.5146 28.7848 14.6113 29.8948 15.9265 30.5738L15.7061 31.6089C14.2642 30.6462 12.8083 29.7682 11.2854 28.937L11.2598 28.2855ZM17.4427 23.4319C17.1383 23.2687 16.8381 23.0878 16.5239 22.9405H17.5468L17.4427 23.4319ZM16.1914 22.9405H16.2882C16.3759 22.9849 16.4654 23.03 16.5592 23.0848C16.8284 23.278 17.1136 23.4479 17.4117 23.5926L17.2655 24.2819C17.1491 24.2175 17.0267 24.1643 16.9002 24.123C16.6444 24.0426 16.3966 23.9488 16.1482 23.852C16.1801 23.5493 16.1946 23.2449 16.1914 22.9405ZM16.1305 24.0134C16.3365 24.1503 16.552 24.2724 16.7753 24.3787C16.9217 24.4588 17.0586 24.5553 17.1833 24.6661L17.0019 25.5076C16.6301 25.356 16.2711 25.1748 15.9284 24.9657C16.0203 24.6542 16.0869 24.3357 16.1275 24.0134H16.1305ZM15.9095 25.0388C16.2468 25.2659 16.6068 25.4575 16.9836 25.6105L16.8009 26.4764C16.4299 26.2035 16.0436 25.9521 15.644 25.7232C15.7483 25.5019 15.836 25.2731 15.9064 25.0388H15.9095ZM15.6117 25.7835C16.0179 26.027 16.3838 26.3315 16.7729 26.6019L16.6012 27.4117C16.1001 27.1322 15.5752 26.8868 15.0747 26.6043C15.2833 26.3521 15.4625 26.0769 15.6087 25.7841L15.6117 25.7835ZM14.7781 26.927C14.8725 26.8357 14.9608 26.737 15.043 26.6378C15.5362 26.9587 16.0495 27.2674 16.5732 27.5408L16.3905 28.3933C15.7134 28.0249 15.0211 27.6894 14.3768 27.2686C14.5165 27.1632 14.6495 27.0494 14.7751 26.9276L14.7781 26.927ZM14.3086 27.3204C14.9438 27.7963 15.6371 28.1894 16.3716 28.4901L16.1944 29.3237C15.8717 29.1288 15.5246 28.965 15.2129 28.7671C14.6649 28.4219 14.1461 28.0632 13.5914 27.7448C13.8419 27.6253 14.0812 27.4835 14.3062 27.321L14.3086 27.3204ZM13.4927 27.7904C14.3829 28.3555 15.2628 28.9322 16.1603 29.485L15.9545 30.4386C15.3109 30.0398 14.6624 29.647 14.0292 29.2348C13.4683 28.8331 12.8745 28.4795 12.2542 28.1777C12.6797 28.0976 13.0944 27.9678 13.4897 27.7911L13.4927 27.7904ZM13.584 30.3095C14.2916 30.7638 14.9535 31.2953 15.6897 31.7033L15.4242 32.9546C14.6977 32.4413 13.947 31.9536 13.1907 31.4865C12.5964 31.1212 11.9418 30.8581 11.3506 30.4891L11.2897 28.9845C12.0575 29.4211 12.8381 29.834 13.5798 30.3101L13.584 30.3095ZM12.4953 46.7355L12.4636 46.7142C12.3084 46.6125 12.1452 46.5224 11.9808 46.4359L11.9302 45.1572C12.1239 45.2899 12.3151 45.4263 12.4959 45.5755C12.5623 45.6303 12.6317 45.6973 12.7023 45.7582L12.4953 46.7355ZM12.4472 46.962L12.0721 48.7278L11.9875 46.5918C12.0983 46.6722 12.2067 46.755 12.312 46.8421C12.3559 46.8792 12.4009 46.92 12.4472 46.9614V46.962ZM12.7517 45.5207C12.7157 45.4958 12.6798 45.4708 12.6463 45.4489C12.4132 45.3015 12.1721 45.1671 11.9242 45.0464L11.873 43.7616C12.0843 43.834 12.2938 43.912 12.5002 43.9991C12.6737 44.0721 12.8467 44.1647 13.0257 44.2304L12.7517 45.5207ZM13.8909 40.1544C13.1837 39.6862 12.445 39.2675 11.68 38.9012L11.6361 37.7912C12.3912 38.3666 13.3076 38.718 14.0718 39.2903L13.8909 40.1544ZM14.1053 39.146C13.3565 38.5378 12.5231 38.042 11.6313 37.6743L11.5704 36.1447C12.4679 36.7676 13.4531 37.2767 14.3762 37.8691L14.1053 39.146ZM14.6344 36.6544C13.6914 35.8199 12.6403 35.1161 11.5095 34.5621L11.4596 33.3114C12.0076 33.6811 12.5982 33.9965 13.1371 34.3898C13.7058 34.8051 14.2721 35.2246 14.8555 35.6198L14.6344 36.6544ZM14.8841 35.4792C13.7838 34.6739 12.6393 33.9308 11.4559 33.2536L11.4011 31.8464C12.0575 32.2726 12.7261 32.6861 13.3776 33.1209C13.9695 33.5166 14.5005 34.0074 15.1258 34.3466L14.8841 35.4792ZM13.0141 31.5212C13.8197 32.0084 14.6009 32.5424 15.4023 33.0399L15.1477 34.2394C13.8995 33.4162 12.6822 32.5716 11.3987 31.7977L11.35 30.5677C11.8779 30.93 12.4636 31.1851 13.0153 31.52L13.0141 31.5212ZM14.604 36.7999L14.4079 37.7224C13.5093 37.0933 12.5602 36.5395 11.5704 36.0668L11.5095 34.6096C12.6124 35.2333 13.6496 35.9667 14.6052 36.7987L14.604 36.7999ZM12.7511 39.5936C13.1243 39.8323 13.4903 40.0807 13.855 40.3243L13.6863 41.1195C13.0823 40.6933 12.337 40.4783 11.7269 40.0685L11.6842 38.9707C12.0301 39.1923 12.4021 39.3683 12.7523 39.5924L12.7511 39.5936ZM12.5337 40.6239C12.9205 40.8321 13.2907 41.0701 13.6407 41.3357L13.4233 42.3592C12.8588 42.0584 12.3394 41.6815 11.7792 41.374L11.7317 40.18C11.989 40.3457 12.2574 40.4936 12.5349 40.6226L12.5337 40.6239ZM13.4087 42.4281L13.265 43.1064C13.1645 43.0565 13.0628 43.0083 12.9642 42.9572C12.5812 42.7593 12.2079 42.5517 11.8182 42.3696L11.7798 41.3996C12.3333 41.7272 12.84 42.1309 13.4099 42.4268L13.4087 42.4281ZM13.2351 43.2464L13.0598 44.0733C12.6792 43.8955 12.2802 43.7601 11.87 43.6696L11.8206 42.4329C12.3011 42.6893 12.7724 42.9627 13.2364 43.2452L13.2351 43.2464ZM5.49649 17.3488C5.4929 17.2542 5.5083 17.1598 5.54176 17.0713C5.57523 16.9827 5.62609 16.9017 5.69134 16.8331C5.75644 16.7639 5.83463 16.7083 5.92139 16.6695C6.00814 16.6307 6.10174 16.6095 6.19674 16.6072L18.9668 16.2528L17.6552 22.4326H15.6641L15.6744 22.6963C15.7402 24.3891 15.3188 25.6891 14.4219 26.5604C13.4776 27.3783 12.2606 27.8116 11.012 27.7746L10.7295 27.757L11.6428 50.7574L10.4743 56.2637L6.91343 56.7283L5.49649 17.3488ZM3.24961 57.976L68.5309 49.4549C68.6205 49.4433 68.7136 49.4366 68.8019 49.4336L71.5712 69.4716L53.3977 71.8719C52.564 71.9792 51.7598 72.2502 51.0313 72.6695C50.3028 73.0887 49.6645 73.6479 49.153 74.3149C48.6398 74.9769 48.2637 75.7345 48.0466 76.5435C47.8296 77.3525 47.7759 78.1967 47.8889 79.0266L47.9455 79.4529C48.1549 80.9856 48.9124 82.3905 50.0777 83.4078C51.243 84.4252 52.7373 84.986 54.2843 84.9867C54.571 84.9865 54.8574 84.9676 55.1416 84.93L73.3748 82.5218L75.4208 97.3043C75.5429 98.2054 75.3315 99.1201 74.8263 99.8762C74.3211 100.632 73.5569 101.178 72.6776 101.41C72.5846 101.435 72.4903 101.455 72.3951 101.47C72.3391 101.483 72.2794 101.491 72.2124 101.5L60.4129 103.083C60.4239 103.063 60.3904 103.042 60.3776 103.062L60.3563 103.094L55.7109 103.718L55.6598 103.669L55.4716 103.75L26.8309 107.598L26.7822 107.55L26.5873 107.631L13.2394 109.422C12.9872 109.455 12.7322 109.464 12.4783 109.447C12.4034 109.443 12.3333 109.436 12.2511 109.424C11.7333 109.358 11.2352 109.183 10.7898 108.911C10.7325 108.877 10.6777 108.841 10.6229 108.805C10.1405 108.475 9.74148 108.037 9.45746 107.526C9.40722 107.439 9.36189 107.35 9.32167 107.258C9.16673 106.916 9.06507 106.553 9.02026 106.181L3.11382 57.9979C3.15705 57.993 3.20272 57.9821 3.24961 57.976ZM1.20001 64.4067C1.63173 63.9031 2.07197 63.4044 2.53292 62.924C2.53578 62.9198 2.53708 62.9147 2.5366 62.9096C2.53612 62.9045 2.53388 62.8998 2.53028 62.8962C2.52667 62.8926 2.52193 62.8904 2.51685 62.8899C2.51178 62.8894 2.50669 62.8907 2.50247 62.8936C2.04945 63.3399 1.61164 63.8027 1.18357 64.2727L1.0283 63.036C1.61771 62.398 2.16679 61.7238 2.67236 61.0175C2.6955 60.9846 2.64435 60.9566 2.62121 60.987C2.11703 61.6422 1.56658 62.2572 1.0076 62.8625L0.789 61.135C0.719257 60.5486 0.8338 59.9549 1.11673 59.4366C1.39966 58.9182 1.83695 58.5007 2.36791 58.2421L3.12783 64.4377C2.63322 65.1774 2.07714 65.874 1.4655 66.5202L1.20001 64.4067ZM1.49838 66.7814C2.12157 66.0832 2.6707 65.3223 3.13696 64.5108L3.38722 66.5525C2.7911 67.0548 2.21994 67.5943 1.67131 68.1588L1.49838 66.7814ZM1.71637 68.5162C2.2583 67.9 2.81241 67.2984 3.40853 66.7285L3.66732 68.8365C3.09799 69.4052 2.53657 69.9813 1.97272 70.5543L1.71637 68.5162ZM1.9983 70.7607C2.56519 70.1615 3.11626 69.5471 3.68011 68.9443L3.93463 71.0189C3.37261 71.5468 2.79536 72.0625 2.22968 72.5856L1.9983 70.7607ZM2.27596 72.9716C2.84712 72.4157 3.41767 71.8598 3.96751 71.285L4.10817 72.434C3.4884 72.9002 2.9172 73.4278 2.40322 74.0086L2.27596 72.9716ZM2.45072 74.3642C2.69428 74.0598 2.94394 73.7626 3.20759 73.4764C3.43533 73.2329 3.67037 72.9893 3.92063 72.7676C3.96021 72.7317 4.03632 72.6635 4.12705 72.585L4.48144 75.4761C3.89688 76.001 3.35434 76.5721 2.79901 77.1348L2.45072 74.3642ZM2.85077 77.5494C3.4128 76.9405 3.94681 76.3109 4.51005 75.7117L4.84739 78.4628C4.29389 78.9584 3.71543 79.431 3.14792 79.9132L2.85077 77.5494ZM3.18202 80.186C3.75988 79.6916 4.33164 79.1904 4.87175 78.6637L5.1762 81.1603C4.60078 81.5104 4.01501 81.883 3.44324 82.2825L3.18202 80.186ZM3.50596 82.7647C4.0625 82.3056 4.63082 81.8611 5.21091 81.4312L5.39906 82.9657C4.79945 83.2855 4.22028 83.6422 3.66489 84.0337L3.50596 82.7647ZM3.73856 84.6152C4.28293 84.1409 4.84313 83.6818 5.43438 83.2452L5.64445 84.958C5.05603 85.3984 4.49329 85.8721 3.95899 86.3768L3.73856 84.6152ZM4.00953 86.7738C4.54354 86.2258 5.09278 85.6899 5.67186 85.187L5.98301 87.7262C5.42342 88.1347 4.848 88.5281 4.27806 88.9281L4.00953 86.7738ZM4.34382 89.436C4.9235 89.0049 5.49162 88.5573 6.02746 88.0848L6.15533 89.1273C5.55311 89.3988 4.97466 89.7202 4.42602 90.0881L4.34382 89.436ZM4.51005 90.7591C5.05807 90.3195 5.62253 89.9067 6.20222 89.5127L6.48536 91.8235C5.9069 92.173 5.33939 92.5542 4.78589 92.9585L4.51005 90.7591ZM4.84739 93.4432C5.38932 92.9512 5.93856 92.469 6.51033 92.0208L6.81783 94.5283C6.47196 94.9643 6.13402 95.407 5.77415 95.8265C5.59574 96.0341 5.40881 96.2357 5.22613 96.4354L4.84739 93.4432ZM5.30712 97.1015C5.59392 96.7971 5.86427 96.4811 6.12123 96.1724C6.37819 95.8636 6.6455 95.5458 6.90246 95.2218L7.21727 97.7908C6.64855 98.2737 6.11149 98.8022 5.58844 99.3448L5.30712 97.1015ZM5.63776 99.732C6.17908 99.1792 6.70274 98.6074 7.25198 98.0648L7.50102 100.098C7.12046 100.421 6.77033 100.746 6.4951 100.981C6.28442 101.159 6.07435 101.346 5.86366 101.529L5.63776 99.732ZM5.92455 102.014C6.19917 101.754 6.47684 101.496 6.76302 101.247C7.01694 101.025 7.28852 100.816 7.56374 100.61L7.82557 102.741C7.25868 103.171 6.7137 103.63 6.18456 104.081L5.92455 102.014ZM6.26615 104.733C6.80017 104.262 7.34758 103.806 7.90108 103.358L8.22076 105.967C7.70866 106.47 7.15943 106.934 6.59923 107.388L6.26615 104.733ZM6.62846 107.616C7.19151 107.15 7.72991 106.654 8.24146 106.132L8.25912 106.274C8.31286 106.722 8.43484 107.158 8.62081 107.569C8.63299 107.596 8.64578 107.62 8.65796 107.647C8.02091 108.12 7.40836 108.624 6.8227 109.159L6.62846 107.616ZM7.11558 111.493L6.87933 109.612C7.52843 109.058 8.169 108.499 8.82784 107.961C9.14291 108.503 9.56716 108.974 10.0737 109.343C9.02465 110.046 8.04894 110.852 7.16125 111.75C7.14177 111.669 7.12533 111.584 7.11558 111.496V111.493ZM7.94066 113.159C7.65888 112.885 7.43863 112.555 7.2946 112.19C7.27634 112.147 7.25929 112.098 7.24224 112.048C8.18902 111.123 9.19923 110.266 10.2655 109.483C10.3075 109.51 10.3501 109.539 10.3921 109.564C10.8155 109.821 11.2787 110.006 11.7628 110.112C10.4207 111.039 9.1467 112.061 7.9504 113.17L7.94066 113.159ZM9.97747 113.974C9.86877 113.977 9.75999 113.974 9.6517 113.964C9.09254 113.907 8.56287 113.685 8.12942 113.327C9.39433 112.224 10.6933 111.168 12.0265 110.157C12.0666 110.163 12.1056 110.174 12.1482 110.179C12.2444 110.194 12.3376 110.202 12.4369 110.208C12.5361 110.214 12.6396 110.218 12.7413 110.218C12.945 110.218 13.1484 110.205 13.3502 110.177L14.9334 109.965C13.1986 111.196 11.5435 112.536 9.97807 113.977L9.97747 113.974ZM10.5048 113.928C12.088 112.547 13.8051 111.303 15.3675 109.905L19.5179 109.348C18.0194 110.768 16.449 112.088 14.8226 113.367L10.5048 113.928ZM15.1934 113.315C16.8259 112.136 18.3377 110.799 19.7066 109.322L23.3601 108.832C22.367 110.166 21.3029 111.445 20.1725 112.665L15.1934 113.315ZM20.712 112.593C21.9033 111.528 22.8754 110.24 23.5738 108.802L26.5526 108.402L26.9143 108.354C25.5447 109.549 24.2815 110.861 23.1391 112.274L20.712 112.593ZM23.3485 112.249C24.5 110.867 25.7793 109.619 27.0483 108.337L30.1878 107.915C28.8038 109.11 27.6121 110.546 26.3383 111.858L23.3485 112.249ZM26.6367 111.819C27.9805 110.616 29.0723 109.14 30.3821 107.889L35.5718 107.192C33.8766 108.702 31.7783 109.755 30.1775 111.356L26.6367 111.819ZM30.4838 111.316C32.2185 109.923 34.1683 108.751 35.7253 107.171L38.9488 106.738C37.4431 107.929 36.0644 109.273 34.8344 110.747L30.4838 111.316ZM35.0932 110.713C36.378 109.302 37.7882 108.034 39.1595 106.71L42.9628 106.199C41.6433 107.502 40.3566 108.848 39.0779 110.193L35.0932 110.713ZM39.3836 110.152C40.7153 108.935 41.885 107.511 43.098 106.18L45.8173 105.814C44.3891 107.074 43.0376 108.419 41.7699 109.84L39.3836 110.152ZM42.0226 109.807C43.3436 108.476 44.6582 107.138 45.9665 105.794L49.1329 105.368C48.7943 105.693 48.4874 106.052 48.2067 106.348C47.241 107.37 46.1894 108.318 45.2693 109.381L42.0226 109.807ZM45.5902 109.341C46.4829 108.52 47.3189 107.617 48.1416 106.741C48.5782 106.275 48.994 105.766 49.4666 105.324L53.5268 104.776C52.117 106.02 50.8042 107.37 49.5999 108.813L45.5902 109.341ZM49.9007 108.777C51.2598 107.533 52.4143 106.055 53.7216 104.753L55.4467 104.521L56.6901 104.354C56.1018 105.067 55.4715 105.745 54.8024 106.383C54.154 107.031 53.5657 107.728 52.9282 108.381L49.9007 108.777ZM53.2753 108.337C53.8331 107.789 54.3232 107.166 54.8621 106.612C55.5802 105.912 56.2354 105.151 56.8204 104.337L59.7334 103.946C59.1561 104.634 58.5435 105.292 57.8981 105.917C57.2326 106.587 56.6286 107.308 55.9746 107.984L53.2753 108.337ZM56.3345 107.937C56.905 107.371 57.4068 106.726 57.9596 106.154C58.6605 105.463 59.3057 104.717 59.8893 103.925L62.264 103.606C61.0378 104.847 59.9117 106.183 58.8961 107.602L56.3345 107.937ZM59.0746 107.578C60.2723 106.328 61.2618 104.884 62.4126 103.585L65.4791 103.173C64.925 103.782 64.341 104.361 63.8131 104.991C63.2121 105.708 62.6562 106.459 62.0698 107.187L59.0746 107.578ZM62.3194 107.152C63.002 106.456 63.5214 105.62 64.1504 104.882C64.6558 104.289 65.2507 103.76 65.7123 103.14L68.6588 102.744C68.0231 103.394 67.2845 103.951 66.678 104.632C66.0563 105.328 65.5016 106.081 64.9274 106.814L62.3194 107.152ZM65.1405 106.783C65.7945 106.053 66.3194 105.222 66.9886 104.503C67.5628 103.887 68.221 103.353 68.7776 102.728L71.8489 102.315C71.1145 102.85 70.4121 103.428 69.7451 104.045C68.9755 104.798 68.3008 105.642 67.6066 106.461L65.1405 106.783ZM67.8557 106.428C68.5486 105.691 69.1344 104.862 69.848 104.141C70.5093 103.471 71.2674 102.899 71.9957 102.295L72.3251 102.251C72.4024 102.24 72.4816 102.228 72.5382 102.215C72.6521 102.196 72.7649 102.17 72.8761 102.139C73.9341 101.859 74.8532 101.202 75.4609 100.292C76.0685 99.3813 76.3227 98.2805 76.1758 97.1959L76.0254 96.1066C76.2647 95.8947 76.4979 95.6749 76.7318 95.4605C76.9546 95.2553 77.1805 95.0453 77.3894 94.8218L77.8765 98.4935C76.49 99.4416 75.5547 100.968 74.4301 102.142C73.2731 103.352 71.9524 104.545 71.148 105.999L67.8557 106.428ZM71.3776 105.968C72.4461 104.607 73.5894 103.306 74.8021 102.071C75.2893 101.544 75.7331 100.993 76.1795 100.438C76.5089 100.029 76.8426 99.62 77.2067 99.2352C77.2451 99.1944 77.6281 98.8589 77.8966 98.6622L78.2333 101.212C76.7965 102.479 75.544 103.941 74.5123 105.555L71.3776 105.968ZM77.7974 104.291C77.5698 104.587 77.2858 104.836 76.9619 105.022C76.6379 105.208 76.2803 105.328 75.9097 105.375L74.684 105.536C75.8701 104.111 76.9485 102.613 78.2406 101.273L78.3624 102.199C78.4134 102.568 78.3901 102.944 78.2939 103.304C78.1977 103.664 78.0305 104.002 77.8022 104.296L77.7974 104.291Z" fill="url(#paint14_linear_2378_56803)"/>
<path d="M68.7278 71.0032C67.8229 72.5254 66.4596 73.8516 65.3118 75.1919C63.9742 76.7463 62.814 78.4448 61.8526 80.2562C61.8443 80.2712 61.8418 80.2887 61.8453 80.3055C61.8488 80.3223 61.8582 80.3372 61.8719 80.3477C61.8855 80.3581 61.9023 80.3633 61.9195 80.3624C61.9366 80.3615 61.9528 80.3545 61.9652 80.3426C62.8786 79.4025 63.4175 78.1828 64.1616 77.1154C64.6645 76.3938 65.2387 75.718 65.7916 75.0348C66.8115 73.7743 68.0556 72.4968 68.7795 71.0324C68.7826 71.0256 68.783 71.0179 68.7807 71.0108C68.7784 71.0037 68.7735 70.9978 68.767 70.9941C68.7605 70.9904 68.7529 70.9893 68.7457 70.991C68.7384 70.9927 68.732 70.997 68.7278 71.0032Z" fill="url(#paint15_linear_2378_56803)"/>
<path d="M61.9658 77.8045C62.9717 76.8108 63.6537 75.3798 64.5446 74.2607C65.3021 73.4302 65.9676 72.5202 66.5296 71.5467C66.5336 71.5399 66.5346 71.5317 66.5326 71.5241C66.5305 71.5164 66.5255 71.5099 66.5186 71.5059C66.5118 71.502 66.5036 71.5009 66.496 71.503C66.4883 71.505 66.4818 71.51 66.4778 71.5169C65.0676 73.7333 63.0308 75.3104 61.8501 77.7187C61.8387 77.734 61.8339 77.7532 61.8367 77.7721C61.8395 77.791 61.8497 77.8081 61.865 77.8194C61.8804 77.8308 61.8996 77.8356 61.9185 77.8328C61.9374 77.8301 61.9544 77.8199 61.9658 77.8045Z" fill="url(#paint16_linear_2378_56803)"/>
<path d="M1.47691 17.1412C1.70464 15.8229 2.94743 14.6257 3.95761 13.8415C4.51776 13.4011 5.12684 13.0267 5.77277 12.7259C6.2999 12.5327 6.83888 12.3734 7.38639 12.2492C7.40644 12.2407 7.4236 12.2265 7.43579 12.2085C7.44798 12.1904 7.45467 12.1692 7.45506 12.1474C7.45545 12.1257 7.44951 12.1042 7.43797 12.0858C7.42643 12.0673 7.40978 12.0526 7.39004 12.0434C6.17222 11.6658 4.52085 12.8891 3.66411 13.6107C2.58634 14.5186 1.54693 15.6761 1.40627 17.1326C1.40597 17.1413 1.40887 17.1498 1.41442 17.1565C1.41996 17.1631 1.42778 17.1675 1.43636 17.1688C1.44494 17.1701 1.45369 17.1682 1.46095 17.1634C1.4682 17.1586 1.47345 17.1514 1.47569 17.143L1.47691 17.1412Z" fill="url(#paint17_linear_2378_56803)"/>
<path d="M27.3623 3.16764C24.059 1.99488 17.2757 1.92364 17.5016 6.99586C17.5071 7.11338 17.6952 7.18219 17.7275 7.04214C17.8756 6.0332 18.3137 5.08905 18.9886 4.32457C19.7 3.67843 20.5704 3.23293 21.5107 3.03368C23.4425 2.63147 25.4421 2.6924 27.3459 3.21148C27.3519 3.21294 27.3582 3.21211 27.3637 3.20916C27.3691 3.2062 27.3733 3.20133 27.3753 3.19548C27.3774 3.18964 27.3772 3.18324 27.3748 3.17753C27.3724 3.17183 27.3679 3.16721 27.3623 3.1646V3.16764Z" fill="url(#paint18_linear_2378_56803)"/>
<path d="M14.1666 116.945C10.856 118.094 4.07148 118.121 4.33148 113.048C4.33757 112.931 4.52634 112.866 4.55739 113.003C4.69862 114.013 5.1304 114.96 5.80018 115.729C6.50747 116.38 7.37493 116.831 8.31376 117.036C10.243 117.451 12.243 117.403 14.1502 116.897C14.1561 116.895 14.1623 116.896 14.1675 116.9C14.1727 116.903 14.1767 116.907 14.1786 116.913C14.1805 116.919 14.1803 116.925 14.178 116.931C14.1757 116.936 14.1714 116.941 14.166 116.943L14.1666 116.945Z" fill="url(#paint19_linear_2378_56803)"/>
<path d="M14.5299 119.049C11.7368 121.165 5.29332 123.289 3.97259 118.387C3.94215 118.274 4.10046 118.151 4.17353 118.274C4.62013 119.191 5.32354 119.958 6.19816 120.482C7.07212 120.882 8.03666 121.043 8.99306 120.947C10.956 120.745 12.8431 120.081 14.5001 119.009C14.5268 118.993 14.5561 119.029 14.5299 119.049Z" fill="url(#paint20_linear_2378_56803)"/>
<path d="M33.6933 3.18507C33.8583 1.60191 38.8234 1.94046 39.9754 2.04946C40.0631 2.05798 40.0631 1.9362 39.9943 1.9088C38.9713 1.50205 33.0649 1.24204 33.482 3.21369C33.5088 3.34035 33.6823 3.29711 33.6939 3.18507H33.6933Z" fill="url(#paint21_linear_2378_56803)"/>
</g>
<defs>
<linearGradient id="paint0_linear_2378_56803" x1="8.80497" y1="-20.048" x2="81.0285" y2="81.6" gradientUnits="userSpaceOnUse">
<stop stop-color="#DD272E"/>
<stop offset="1" stop-color="#7B4297"/>
</linearGradient>
<linearGradient id="paint1_linear_2378_56803" x1="23.9768" y1="-30.7143" x2="96.1607" y2="70.8788" gradientUnits="userSpaceOnUse">
<stop stop-color="#DD272E"/>
<stop offset="1" stop-color="#7B4297"/>
</linearGradient>
<linearGradient id="paint2_linear_2378_56803" x1="22.2311" y1="-29.4983" x2="94.4285" y2="72.1131" gradientUnits="userSpaceOnUse">
<stop stop-color="#DD272E"/>
<stop offset="1" stop-color="#7B4297"/>
</linearGradient>
<linearGradient id="paint3_linear_2378_56803" x1="20.1841" y1="-28.0645" x2="92.3918" y2="73.5609" gradientUnits="userSpaceOnUse">
<stop stop-color="#DD272E"/>
<stop offset="1" stop-color="#7B4297"/>
</linearGradient>
<linearGradient id="paint4_linear_2378_56803" x1="17.5728" y1="-26.2349" x2="89.7969" y2="75.4143" gradientUnits="userSpaceOnUse">
<stop stop-color="#DD272E"/>
<stop offset="1" stop-color="#7B4297"/>
</linearGradient>
<linearGradient id="paint5_linear_2378_56803" x1="15.6216" y1="-24.8521" x2="87.8414" y2="76.7903" gradientUnits="userSpaceOnUse">
<stop stop-color="#DD272E"/>
<stop offset="1" stop-color="#7B4297"/>
</linearGradient>
<linearGradient id="paint6_linear_2378_56803" x1="12.816" y1="-22.8842" x2="85.0468" y2="78.7741" gradientUnits="userSpaceOnUse">
<stop stop-color="#DD272E"/>
<stop offset="1" stop-color="#7B4297"/>
</linearGradient>
<linearGradient id="paint7_linear_2378_56803" x1="10.5391" y1="-21.2773" x2="82.7712" y2="80.3822" gradientUnits="userSpaceOnUse">
<stop stop-color="#DD272E"/>
<stop offset="1" stop-color="#7B4297"/>
</linearGradient>
<linearGradient id="paint8_linear_2378_56803" x1="5.47314" y1="-17.6899" x2="77.6961" y2="83.9574" gradientUnits="userSpaceOnUse">
<stop stop-color="#DD272E"/>
<stop offset="1" stop-color="#7B4297"/>
</linearGradient>
<linearGradient id="paint9_linear_2378_56803" x1="2.87549" y1="-15.8589" x2="75.1021" y2="85.7926" gradientUnits="userSpaceOnUse">
<stop stop-color="#DD272E"/>
<stop offset="1" stop-color="#7B4297"/>
</linearGradient>
<linearGradient id="paint10_linear_2378_56803" x1="0.633968" y1="-14.2782" x2="72.8636" y2="87.3782" gradientUnits="userSpaceOnUse">
<stop stop-color="#DD272E"/>
<stop offset="1" stop-color="#7B4297"/>
</linearGradient>
<linearGradient id="paint11_linear_2378_56803" x1="-1.79111" y1="-12.571" x2="70.4416" y2="89.0897" gradientUnits="userSpaceOnUse">
<stop stop-color="#DD272E"/>
<stop offset="1" stop-color="#7B4297"/>
</linearGradient>
<linearGradient id="paint12_linear_2378_56803" x1="-5.0238" y1="-10.2773" x2="67.2016" y2="91.3731" gradientUnits="userSpaceOnUse">
<stop stop-color="#DD272E"/>
<stop offset="1" stop-color="#7B4297"/>
</linearGradient>
<linearGradient id="paint13_linear_2378_56803" x1="-7.82185" y1="-8.30745" x2="64.409" y2="93.3508" gradientUnits="userSpaceOnUse">
<stop stop-color="#DD272E"/>
<stop offset="1" stop-color="#7B4297"/>
</linearGradient>
<linearGradient id="paint14_linear_2378_56803" x1="-9.29274" y1="-7.22254" x2="62.9046" y2="94.3882" gradientUnits="userSpaceOnUse">
<stop stop-color="#DD272E"/>
<stop offset="1" stop-color="#7B4297"/>
</linearGradient>
<linearGradient id="paint15_linear_2378_56803" x1="1.68608" y1="-13.8888" x2="73.2971" y2="86.8969" gradientUnits="userSpaceOnUse">
<stop stop-color="#DD272E"/>
<stop offset="1" stop-color="#7B4297"/>
</linearGradient>
<linearGradient id="paint16_linear_2378_56803" x1="1.40289" y1="-13.7166" x2="73.0211" y2="87.0795" gradientUnits="userSpaceOnUse">
<stop stop-color="#DD272E"/>
<stop offset="1" stop-color="#7B4297"/>
</linearGradient>
<linearGradient id="paint17_linear_2378_56803" x1="-30.3019" y1="31.8711" x2="81.1135" y2="-24.5574" gradientUnits="userSpaceOnUse">
<stop stop-color="#DD272E"/>
<stop offset="1" stop-color="#7B4297"/>
</linearGradient>
<linearGradient id="paint18_linear_2378_56803" x1="21.4361" y1="-61.0922" x2="23.32" y2="63.2685" gradientUnits="userSpaceOnUse">
<stop stop-color="#DD272E"/>
<stop offset="1" stop-color="#7B4297"/>
</linearGradient>
<linearGradient id="paint19_linear_2378_56803" x1="8.15352" y1="181.035" x2="10.9226" y2="56.677" gradientUnits="userSpaceOnUse">
<stop stop-color="#DD272E"/>
<stop offset="1" stop-color="#7B4297"/>
</linearGradient>
<linearGradient id="paint20_linear_2378_56803" x1="28.1273" y1="182.138" x2="-7.80765" y2="63.0811" gradientUnits="userSpaceOnUse">
<stop stop-color="#DD272E"/>
<stop offset="1" stop-color="#7B4297"/>
</linearGradient>
<linearGradient id="paint21_linear_2378_56803" x1="16.6493" y1="-25.7138" x2="89.1364" y2="76.3049" gradientUnits="userSpaceOnUse">
<stop stop-color="#DD272E"/>
<stop offset="1" stop-color="#7B4297"/>
</linearGradient>
<clipPath id="clip0_2378_56803">
<rect width="79.1584" height="123" fill="white"/>
</clipPath>
</defs>
</svg>
