<svg width="20" height="20" viewBox="0 0 20 20" fill="none" xmlns="http://www.w3.org/2000/svg">
<g clip-path="url(#clip0_2574_214529)">
<path d="M10.0001 0C5.88765 0 2.54199 3.347 2.54199 7.46108C2.54199 13.5908 9.25775 19.5759 9.54374 19.8277C9.67411 19.9426 9.83708 20.0001 10.0001 20.0001C10.1631 20.0001 10.3261 19.9426 10.4565 19.8277C10.7424 19.576 17.4582 13.5908 17.4582 7.46108C17.4582 3.347 14.1126 0 10.0001 0ZM10.0001 18.3629C8.51533 16.9241 3.92314 12.0983 3.92314 7.46108C3.92314 4.10862 6.64926 1.38114 10.0001 1.38114C13.3509 1.38114 16.0771 4.10862 16.0771 7.46108C16.0771 12.0982 11.4849 16.924 10.0001 18.3629Z" fill="white"/>
<path d="M9.99967 3.98535C8.09576 3.98535 6.54688 5.54454 6.54688 7.46104C6.54688 9.37761 8.09576 10.9367 9.99967 10.9367C11.9036 10.9367 13.4525 9.37761 13.4525 7.46104C13.4525 5.54454 11.9036 3.98535 9.99967 3.98535ZM9.99967 9.55559C8.85731 9.55559 7.92795 8.61599 7.92795 7.46104C7.92795 6.30616 8.85731 5.3665 9.99967 5.3665C11.142 5.3665 12.0714 6.30609 12.0714 7.46104C12.0714 8.61599 11.142 9.55559 9.99967 9.55559Z" fill="white"/>
</g>
<defs>
<clipPath id="clip0_2574_214529">
<rect width="20" height="20" fill="white"/>
</clipPath>
</defs>
</svg>
