<svg width="84" height="44" viewBox="0 0 84 44" fill="none" xmlns="http://www.w3.org/2000/svg">
<path d="M0.69848 20.7773L2.72254 14.1877L6.35515 8.92102L9.49321 5.44646L11.3082 4.0444L17.5079 1.42383H22.7873H27.6002L33.9808 4.17441L35.8494 5.65295L38.7809 8.9465L42.3345 14.1877L44.3586 20.5173L45.1106 26.9234L44.3586 31.9836L40.3614 37.6632L35.6403 40.8548L29.6319 43.0497L22.5273 43.8986L15.4685 42.9732L9.62322 40.888L4.74661 37.6556L0.802998 31.9173L0 26.5615L0.69848 20.7773L2.72254 14.1877L6.35515 8.92102L9.49321 5.44646L11.3082 4.0444L17.5079 1.42383H27.6002L33.9808 4.17441L35.8494 5.65295" fill="url(#paint0_linear_2378_57129)"/>
<path d="M7.5625 25.2134L8.79376 23.2149L11.1543 20.7753L13.6959 17.0407L15.9519 16.5742L18.5725 18.1573L18.5291 19.1081L18.4297 19.8652L18.3966 19.9646L17.8995 21.6497L17.3004 23.5284C17.3004 23.5284 16.9181 24.5685 16.5714 24.8948C16.2247 25.2211 16.5714 24.8948 16.5714 24.8948C16.5714 24.8948 15.9239 26.1312 15.5185 26.358C15.1132 26.5824 15.5185 26.358 15.5185 26.358L14.7334 27.0132L13.6959 27.704L11.1543 29.2412L8.72493 27.5919L7.5625 25.2134L8.79376 23.2149L11.1543 20.7753" fill="#1A1421"/>
<path d="M37.4944 25.2134L36.2631 23.2149L33.9025 20.7753L31.361 17.0407L29.1049 16.5742L26.4844 18.1573L26.5277 19.1081L26.6271 19.8652L26.6603 19.9646L27.1574 21.6497L27.7564 23.5284C27.7564 23.5284 28.1388 24.5685 28.4855 24.8948C28.8322 25.2211 28.4855 24.8948 28.4855 24.8948C28.4855 24.8948 29.133 26.1312 29.5383 26.358C29.9436 26.5824 29.5383 26.358 29.5383 26.358L30.3235 27.0132L31.361 27.704L33.9025 29.2412L36.3319 27.5919L37.4944 25.2134L36.2631 23.2149L33.9025 20.7753" fill="#1A1421"/>
<path d="M17.2522 33.4876L17.8997 33.7476L19.6383 33.3856L21.2672 33.3219C21.2672 33.3219 22.1416 33.2429 22.5316 33.2505C22.9216 33.2582 23.796 33.3219 23.796 33.3219L25.4249 33.3856L27.1635 33.7476L27.811 33.4876L28.071 34.6551L27.3572 35.7844L22.5316 38.4891L17.706 35.7844L16.9922 34.6551L17.2522 33.4876L17.8997 33.7476L19.6383 33.3856" fill="#504B59"/>
<path d="M16.9896 34.6562L13.8516 37.9243L15.3301 38.7095L17.5989 39.6552L20.1353 39.8898L22.5265 39.7954L24.9202 39.8898L27.4566 39.6552L31.204 37.9243L28.0659 34.6562L27.3521 35.783L24.1835 37.491L22.5265 38.4877L20.8721 37.491L18.9296 36.4611L17.7034 35.783L16.9896 34.6562L13.8516 37.9243L16.9896 34.6562Z" fill="url(#paint1_linear_2378_57129)"/>
<path d="M13.8516 37.9238L14.6265 38.5917L15.8042 39.6088L17.5352 40.4883L20.4565 40.6821H24.599L27.5204 40.4883L29.2513 39.6088L31.204 37.9238L29.7254 38.709L27.4566 39.6547L24.9202 39.8893L22.5265 39.7949L20.1353 39.8893L17.5989 39.6547L15.3301 38.709L13.8516 37.9238Z" fill="#27292A"/>
<path d="M22.5268 35.0178L24.013 35.5378L25.6471 34.5309L27.1587 33.7483L27.8062 33.4883L26.9828 35.0637L25.2723 36.1726L24.1838 37.4905L22.5268 38.4873L20.8724 37.4905L19.7839 36.1726L18.0734 35.0637L17.25 33.4883L17.8975 33.7483L19.4092 34.5309L21.0432 35.5378L22.5268 35.0178Z" fill="#030405"/>
<path d="M33.9805 4.17518L38.1714 0.101562L42.6707 2.13837L44.3583 5.57469L44.9267 9.72733L42.3342 14.1884L38.7806 8.94727L35.849 5.65371L33.9805 4.17518Z" fill="#272530"/>
<path d="M11.3088 4.04415L7.01594 0.113281L2.51661 2.16284L0.790798 5.44621L0.207031 9.76455L2.72309 14.1874L6.3557 8.92076L9.49376 5.44621L11.3088 4.04415Z" fill="#302F3B"/>
<path d="M10.7344 10.1934L13.694 17.0405L17.2986 11.9039L10.7344 10.1934Z" fill="#D7D3D1"/>
<path d="M7.80859 15.7965L10.7376 10.1934L13.6972 17.0405L7.80859 15.7965Z" fill="#E1DDDB"/>
<path d="M11.1557 20.778L7.80859 15.7969L13.6972 17.0409L11.1557 20.778Z" fill="#BEBFBB"/>
<path d="M5.85938 20.7773H11.1515L8.79095 23.2144L7.55969 25.2129L5.85938 20.7773Z" fill="#C0C0BF"/>
<path d="M10.7373 10.1934L2.72266 14.1879L7.80831 15.7965L10.7373 10.1934Z" fill="#D9D9D9"/>
<path d="M17.5082 1.42578L11.3086 4.04636L17.3018 6.45789L17.5082 1.42578Z" fill="#E8E7E5"/>
<path d="M22.7906 1.42578L17.3047 6.45789L17.5112 1.42578H22.7906Z" fill="#EDEDED"/>
<path d="M27.6019 1.42578L27.732 6.56241L22.7891 1.42578H27.6019Z" fill="#EEEEEE"/>
<path d="M17.3047 6.45789L22.5484 6.56241H27.7335L22.7906 1.42578L17.3047 6.45789Z" fill="#E9E7E8"/>
<path d="M33.9783 4.17636L27.7277 6.56241L27.5977 1.42578L33.9783 4.17636Z" fill="#E8E7E5"/>
<path d="M22.5156 6.56055H27.7313L27.9913 12.0082L22.5156 6.56055Z" fill="#E0E0DE"/>
<path d="M34.5776 10.1932L27.7305 6.56055L27.9905 12.0082L34.5776 10.1932Z" fill="#E1E1E0"/>
<path d="M17.2999 11.9043L18.5719 18.1575L15.9514 16.5744L13.6953 17.0409L17.2999 11.9043Z" fill="#D9D9D9"/>
<path d="M22.5178 12.2943L18.5767 18.1575L17.3047 11.9043L22.5178 12.2943Z" fill="#D6D6D3"/>
<path d="M26.5688 18.1718L27.9913 12.0078L22.5156 12.2933L26.5688 18.1718Z" fill="#D6D6D3"/>
<path d="M31.443 17.0552L27.9889 12.0078L26.5664 18.1718L29.187 16.5938L31.443 17.0552Z" fill="#D9D9D9"/>
<path d="M34.5754 10.1953L31.4424 17.0577L27.9883 12.0103L34.5754 10.1953Z" fill="#E1DDDB"/>
<path d="M37.3085 15.8121L31.4453 17.0561L34.5859 10.209L37.3085 15.8121Z" fill="#D7D3D1"/>
<path d="M42.3353 14.1879L37.3032 15.7965L34.5781 10.1934L42.3353 14.1879Z" fill="#D9D9D9"/>
<path d="M33.9894 20.7908L31.4453 17.0562L37.3034 15.7969L33.9894 20.7908Z" fill="#BEBFBB"/>
<path d="M44.3597 20.5172L42.3356 14.1875L39.6641 20.7772L44.3597 20.5172Z" fill="#CECCD1"/>
<path d="M37.584 25.2282L36.3196 23.2144L33.9922 20.7901L39.6667 20.7773L37.584 25.2282Z" fill="#C0C0BF"/>
<path d="M45.112 26.9237L44.36 20.5176L42.3359 26.8217L45.112 26.9237Z" fill="#B9B8BF"/>
<path d="M39.0363 31.1529L42.3324 26.8218L37.5781 25.2285L39.0363 31.1529Z" fill="#B3B3B2"/>
<path d="M44.36 31.9844L45.112 26.9242L42.3359 26.8223L44.36 31.9844Z" fill="#B0AEB3"/>
<path d="M39.0391 31.1534L44.3592 31.9844L42.3352 26.8223L39.0391 31.1534Z" fill="#A4A2A2"/>
<path d="M40.3621 37.663L44.3592 31.9834L39.0391 31.1523L40.3621 37.663Z" fill="#A9A9A9"/>
<path d="M33.9922 29.2537L36.3986 27.5457L37.584 25.2285L39.0421 31.1529L33.9922 29.2537Z" fill="#BCBEBB"/>
<path d="M35.6406 34.6549L39.0387 31.1523L40.3617 37.663L35.6406 34.6549Z" fill="#B4B5B5"/>
<path d="M35.6406 40.8559V34.6562L40.3617 37.6643L35.6406 40.8559Z" fill="#ACACAC"/>
<path d="M31.2031 37.9243L35.6387 34.6562V40.8559L31.2031 37.9243Z" fill="#B2B0B6"/>
<path d="M31.4451 27.7168L33.9892 29.254L28.8984 30.5158L31.4451 27.7168Z" fill="#C7C6C9"/>
<path d="M39.0421 31.1531L35.6441 34.6557L33.9922 29.2539L39.0421 31.1531Z" fill="#C7C6C9"/>
<path d="M28.8984 30.5158L33.9892 29.2539L35.6411 34.6557L28.8984 30.5158Z" fill="#C3C3C3"/>
<path d="M28.0664 34.6562H35.6401L31.2045 37.9243L28.0664 34.6562Z" fill="#BBB9BE"/>
<path d="M28.8996 30.5156L27.8086 33.488L28.0686 34.6555H35.6423L28.8996 30.5156Z" fill="#CECCD1"/>
<path d="M25.4219 33.3835L28.899 30.5156L27.8079 33.488L27.1604 33.748L25.4219 33.3835Z" fill="#DEDDE1"/>
<path d="M22.5114 19.8431L18.5703 18.1581L22.5114 12.2949L26.5646 18.1734L22.5114 19.8431Z" fill="#CFCDCD"/>
<path d="M17.3047 23.5249L22.5178 19.8413L18.5742 18.1562C18.5742 18.1562 18.6252 19.4283 18.1842 20.7768C17.7457 22.1254 17.3047 23.5249 17.3047 23.5249Z" fill="#D3D1D5"/>
<path d="M26.5675 18.1719C26.5675 18.1719 26.5879 19.6402 27.0009 20.8409C27.396 21.9855 27.837 23.5405 27.837 23.5405L22.5117 19.8416L26.5675 18.1719Z" fill="#D3D1D5"/>
<path d="M22.5178 25.1084L17.3047 23.5254L22.5178 19.8418L27.8431 23.5407L22.5178 25.1084Z" fill="#DCDBE0"/>
<path d="M13.6953 27.7055L22.5155 25.1104L17.3024 23.5273C17.3024 23.5273 16.4204 25.3424 15.7729 26.0944C15.1254 26.8464 13.6953 27.7055 13.6953 27.7055Z" fill="#DDDDE4"/>
<path d="M31.4659 27.7294L22.5156 25.1088L27.8409 23.541C27.8409 23.541 28.366 24.5505 29.2608 25.7308C30.1556 26.9111 31.4659 27.7294 31.4659 27.7294Z" fill="#DEDDE2"/>
<path d="M16.2148 30.5162H28.8996L22.5165 25.1094L16.2148 30.5162Z" fill="#DDDCE1"/>
<path d="M31.4659 27.7299L28.8988 30.5162L22.5156 25.1094L31.4659 27.7299Z" fill="#DAD9DE"/>
<path d="M16.2114 30.5162L22.513 25.1094L13.6953 27.7045L16.2114 30.5162Z" fill="#DAD9DD"/>
<path d="M25.4217 33.3835L22.5156 30.5156H28.8988L25.4217 33.3835Z" fill="#D0D0D3"/>
<path d="M19.6367 33.3835L22.5173 30.5156L25.4234 33.3835C25.4234 33.3835 23.1215 33.279 22.5963 33.279C22.0687 33.279 19.6367 33.3835 19.6367 33.3835Z" fill="#D9DBDC"/>
<path d="M16.2148 30.5156L19.6384 33.3835L22.5165 30.5156H16.2148Z" fill="#D0D0D3"/>
<path d="M17.2524 33.488L16.2148 30.5156L19.6384 33.3835L17.8999 33.748L17.2524 33.488Z" fill="#DEDDE2"/>
<path d="M2.72328 14.1875L0.699219 20.7772H5.86134L2.72328 14.1875Z" fill="#CECCD1"/>
<path d="M7.56103 25.2129L2.72266 26.8215L5.86072 20.7773L7.56103 25.2129Z" fill="#CAC8C8"/>
<path d="M0.699219 20.7773L2.72328 26.8215L5.86134 20.7773H0.699219Z" fill="#C8C6CC"/>
<path d="M0 26.5615L0.69848 20.7773L2.72254 26.8215L0 26.5615Z" fill="#BAB8BD"/>
<path d="M0.802998 31.9184L0 26.5625L2.72254 26.8225L0.802998 31.9184Z" fill="#B0AEB3"/>
<path d="M6.09682 31.0488L2.72423 26.8223L0.804688 31.9181L6.09682 31.0488Z" fill="#A4A2A2"/>
<path d="M7.56103 25.2148L6.09525 31.05L2.72266 26.8234L7.56103 25.2148Z" fill="#B3B3B2"/>
<path d="M11.1514 29.24L6.09375 31.05L7.55954 25.2148L8.72197 27.5907L11.1514 29.24Z" fill="#BCBEBB"/>
<path d="M4.7483 37.6563L0.804688 31.9181L6.09682 31.0488L4.7483 37.6563Z" fill="#A9A9A9"/>
<path d="M9.50425 34.6559L6.09853 31.0488L4.75 37.6563L9.50425 34.6559Z" fill="#B4B5B5"/>
<path d="M11.1523 29.2377L16.2125 30.5149L13.6964 27.7031L11.1523 29.2377Z" fill="#C7C6C9"/>
<path d="M9.49948 34.6553L11.1514 29.2383L6.09375 31.0482L9.49948 34.6553Z" fill="#C7C6C9"/>
<path d="M16.212 30.5154L9.5 34.6553L11.1519 29.2383L16.212 30.5154Z" fill="#C3C3C3"/>
<path d="M16.9895 34.6555H9.5L16.212 30.5156L17.2496 33.488L16.9895 34.6555Z" fill="#CECCD1"/>
<path d="M13.8515 37.9243L9.5 34.6562H16.9895L13.8515 37.9243Z" fill="#BBB9BE"/>
<path d="M9.62236 40.889L13.8515 37.9243L9.5 34.6562L9.62236 40.889Z" fill="#B2B0B6"/>
<path d="M4.75 37.6567L9.50425 34.6562L9.62661 40.889L4.75 37.6567Z" fill="#ACACAC"/>
<path d="M15.4703 42.9738L9.625 40.8885L13.8541 37.9238L15.4703 42.9738Z" fill="#A4A2A7"/>
<path d="M35.6413 40.8554L29.6328 43.0503L31.2057 37.9238L35.6413 40.8554Z" fill="#A4A1A7"/>
<path d="M24.6016 40.6821L29.6337 43.0503L31.2065 37.9238L29.2538 39.6088L27.5229 40.4883L24.6016 40.6821Z" fill="#9C9A9C"/>
<path d="M22.5273 43.8987L24.5998 40.6816L29.632 43.0498L22.5273 43.8987Z" fill="#A4A1A3"/>
<path d="M22.5273 40.6816H24.5998L22.5273 43.8987V40.6816Z" fill="#99999B"/>
<path d="M15.4688 42.9734L20.4575 40.6816L22.5275 43.8987L15.4688 42.9734Z" fill="#A4A1A3"/>
<path d="M13.8516 37.9238L15.8042 39.6088L17.5352 40.4883L20.4565 40.6821L15.4678 42.9738L13.8516 37.9238Z" fill="#9C9A9C"/>
<path d="M33.9805 4.17518L38.1714 0.101562L39.4026 3.68318L33.9805 4.17518Z" fill="#423E4F"/>
<path d="M42.6712 2.13837L38.1719 0.101562L39.4031 3.68318L42.6712 2.13837Z" fill="#333241"/>
<path d="M44.3619 5.57499L42.6743 2.13867L39.4062 3.68348L44.3619 5.57499Z" fill="#21202C"/>
<path d="M35.849 5.65413L39.4026 3.68359L33.9805 4.17559L35.849 5.65413Z" fill="#343342"/>
<path d="M38.7812 8.9468L44.3589 5.57422L44.9274 9.72686L38.7812 8.9468Z" fill="#1D1B2D"/>
<path d="M39.4033 3.68359L38.7812 8.94769L44.3589 5.5751L39.4033 3.68359Z" fill="#272530"/>
<path d="M35.8516 5.65413L39.4051 3.68359L38.7831 8.94769L35.8516 5.65413Z" fill="#302F3B"/>
<path d="M44.9274 9.72732L42.3348 14.1884L38.7812 8.94727L44.9274 9.72732Z" fill="#0A0B0D"/>
<path d="M11.3102 4.04415L7.01732 0.113281L5.70703 3.62863L11.3102 4.04415Z" fill="#423E4F"/>
<path d="M2.51562 2.16284L7.01496 0.113281L5.70467 3.62863L2.51562 2.16284Z" fill="#333241"/>
<path d="M9.49514 5.44649L5.70703 3.62891L11.3102 4.04443L9.49514 5.44649Z" fill="#343342"/>
<path d="M6.35708 8.92104L5.70703 3.62891L9.49514 5.44649L6.35708 8.92104Z" fill="#302F3B"/>
<path d="M2.51487 2.16406L0.789062 5.44743L5.70391 3.62985L2.51487 2.16406Z" fill="#21202C"/>
<path d="M6.35396 8.92104L0.789062 5.44649L5.70391 3.62891L6.35396 8.92104Z" fill="#272530"/>
<path d="M0.207031 9.76561L0.790798 5.44727L6.3557 8.92182L0.207031 9.76561Z" fill="#1D1B2D"/>
<path d="M2.72309 14.1885L0.207031 9.76566L6.3557 8.92188L2.72309 14.1885Z" fill="#0A0B0D"/>
<path d="M15.3828 17.7774L15.9538 16.5742L17.3584 17.4231L15.3828 17.7774Z" fill="#4D4B61"/>
<path d="M16.2648 19.1089L15.3828 17.7782L17.3584 17.4238L16.2648 19.1089Z" fill="#464355"/>
<path d="M16.8939 20.154L17.3553 17.4238L16.2617 19.1089L16.8939 20.154Z" fill="#373547"/>
<path d="M18.5753 18.158C18.5753 18.158 18.5371 19.6697 18.3994 19.9654C18.3994 19.9654 18.2465 19.3689 18.0043 18.7086C17.8335 18.2472 17.627 17.7527 17.3594 17.4238L18.5753 18.158Z" fill="#23222B"/>
<path d="M16.8984 20.1546L18.4025 19.9634C18.4025 19.9634 17.8773 17.8654 17.3624 17.4219L16.8984 20.1546Z" fill="#27252F"/>
<path d="M16.6875 21.1534L16.894 20.1541L18.398 19.9629C18.398 19.9629 18.0768 21.2783 17.9009 21.6479L16.6875 21.1534Z" fill="#18171D"/>
<path d="M14.2969 18.8174L14.3606 17.943L15.3777 17.7773L16.2598 19.108C16.2598 19.108 15.5128 18.5141 15.1509 18.5013C14.7889 18.4886 14.2969 18.8174 14.2969 18.8174Z" fill="#454156"/>
<path d="M13.694 17.041L13.1484 19.8426L14.2956 18.8178L14.3619 17.9434L13.694 17.041Z" fill="#302B3C"/>
<path d="M11.0781 22.9951L12.3808 21.2439L11.1546 20.7773L11.0781 22.9951Z" fill="#313241"/>
<path d="M8.79297 23.2144L11.077 22.9951L11.1535 20.7773L8.79297 23.2144Z" fill="#1E1F29"/>
<path d="M7.5625 25.2139L9.71657 24.546L11.0778 22.9961L8.79376 23.2153L7.5625 25.2139Z" fill="#121015"/>
<path d="M12.3808 21.2441L12.6025 22.6436L11.0781 22.9954L12.3808 21.2441Z" fill="#3D3C4F"/>
<path d="M12.0774 24.1486L11.0781 22.9963L12.6025 22.6445L12.0774 24.1486Z" fill="#30313D"/>
<path d="M11.5095 25.4408L9.71484 24.546L11.0761 22.9961L11.5095 25.4408Z" fill="#181720"/>
<path d="M8.72266 27.5898L13.6961 27.7046L11.152 29.2392L8.72266 27.5898Z" fill="#030505"/>
<path d="M9.71657 24.5469L8.72493 27.5906L7.5625 25.2148L9.71657 24.5469Z" fill="#070809"/>
<path d="M11.5089 25.4416L8.72266 27.5906L9.71429 24.5469L11.5089 25.4416Z" fill="#0C0C10"/>
<path d="M13.6961 27.7051L11.5089 25.4414L8.72266 27.5904L13.6961 27.7051Z" fill="#110F16"/>
<path d="M13.834 24.7266L13.6989 27.704L11.5117 25.4403L13.834 24.7266Z" fill="#15121E"/>
<path d="M12.0774 24.1483L11.5115 25.4408L11.0781 22.9961L12.0774 24.1483Z" fill="#1F1E2C"/>
<path d="M13.834 24.7271L12.0776 24.1484L11.5117 25.4409L13.834 24.7271Z" fill="#1B1926"/>
<path d="M12.6033 22.6445L13.9186 23.3965L12.0781 24.1486L12.6033 22.6445Z" fill="#23242E"/>
<path d="M13.8345 24.7272L13.9186 23.3965L12.0781 24.1485L13.8345 24.7272Z" fill="#221C2F"/>
<path d="M15.518 26.3555L13.8304 24.7266L13.6953 27.704C13.6953 27.704 14.4575 27.3114 15.518 26.3555Z" fill="#13121A"/>
<path d="M16.5724 24.8948L13.832 24.7266L15.5196 26.3555C15.5196 26.3555 15.9045 26.1439 16.5724 24.8948Z" fill="#0E0D17"/>
<path d="M16.4492 21.8371L17.8997 21.6484L17.3006 23.5272L16.4492 21.8371Z" fill="#403C53"/>
<path d="M16.6863 21.1523L16.4492 21.8355L17.8997 21.6469L16.6863 21.1523Z" fill="#2F2E39"/>
<path d="M15.5859 22.8352L16.4501 21.8359L17.3015 23.5261L15.5859 22.8352Z" fill="#4C495F"/>
<path d="M16.5711 24.8957L15.582 22.8359L17.2976 23.5268C17.3002 23.5268 17.0886 24.1947 16.5711 24.8957Z" fill="#261F33"/>
<path d="M13.9162 23.3968L15.5859 22.8359L13.832 24.7274L13.9162 23.3968Z" fill="#191526"/>
<path d="M16.5724 24.8957L13.832 24.7274L15.5859 22.8359L16.5724 24.8957Z" fill="#11101F"/>
<path d="M14.1562 20.2844L15.0918 20.1875L15.7189 20.6871L15.1097 21.0695L14.1562 20.2844Z" fill="#D6CEE7"/>
<path d="M14.0547 19.6701L14.1592 20.2845L15.0948 20.1876L15.286 19.8052L14.8602 19.5273L14.0547 19.6701Z" fill="#0B0B12"/>
<path d="M16.6867 21.1515L16.8932 20.1522L16.261 19.1071C16.261 19.1071 15.5931 18.5131 15.1521 18.5004C14.7111 18.4876 14.2956 18.819 14.2956 18.819L13.1484 19.8438V20.2542L13.1688 20.6009L13.179 20.7233C13.179 20.7233 13.694 19.6883 14.3873 19.2345C15.0807 18.7808 16.0239 19.5761 16.2865 20.0707C16.5899 20.6289 16.6867 21.1515 16.6867 21.1515Z" fill="#050607"/>
<path d="M14.1554 20.2845L13.6634 21.2455L13.3906 20.5776C13.3906 20.5776 13.8087 19.6879 14.0407 19.5273L14.1554 20.2845Z" fill="#1D1A39"/>
<path d="M16.4516 21.836C16.4516 21.836 16.0284 20.1867 15.284 19.8043L14.8226 19.5315L14.0553 19.6666L13.3951 20.5742L13.3594 20.4135L13.6882 19.8884L14.0451 19.4194L14.7538 18.9707L15.6282 19.2944C15.6282 19.2944 16.5612 19.9649 16.6963 21.1528L16.4516 21.836Z" fill="#5D5A71"/>
<path d="M13.1513 19.8418L12.3789 21.2439L12.5981 22.6434L13.9135 23.3954L15.5832 22.8346C15.5832 22.8346 14.7624 22.753 14.0818 22.4037C13.3884 22.0468 13.2864 21.6543 13.2201 21.1266C13.1437 20.5046 13.1513 19.8418 13.1513 19.8418Z" fill="#0B0B0E"/>
<path d="M15.2849 19.8047L15.0938 20.1871L15.7234 20.6867L15.2518 20.9824L16.4525 21.8364C16.4525 21.8364 16.2026 20.8677 15.9452 20.4649C15.5883 19.9041 15.2849 19.8047 15.2849 19.8047Z" fill="#1B1731"/>
<path d="M10.7344 10.1942L17.2986 6.45703V11.9047L10.7344 10.1942Z" fill="#E1E1E0"/>
<path d="M22.5178 6.56155L17.3047 6.45703V11.9047L22.5178 6.56155Z" fill="#E0E0DE"/>
<path d="M11.3054 4.04492L10.7344 10.1936L17.2986 6.45646L11.3054 4.04492Z" fill="#E0DFDD"/>
<path d="M6.35526 8.92188L10.7373 10.1939L2.72266 14.1885L6.35526 8.92188Z" fill="#E1E1E0"/>
<path d="M11.3086 4.04492L9.49353 5.44698L6.35547 8.92154L10.7375 10.1936L11.3086 4.04492Z" fill="#E1E1E0"/>
<path d="M33.9811 4.17578L34.5776 10.1944L27.7305 6.56183L33.9811 4.17578Z" fill="#E0DFDD"/>
<path d="M38.7818 8.94727L42.3353 14.1884L34.5781 10.1938L38.7818 8.94727Z" fill="#E1E1E0"/>
<path d="M33.9805 4.17578L35.849 5.65432L38.7806 8.94788L34.577 10.1944L33.9805 4.17578Z" fill="#DFDFDE"/>
<path d="M22.5178 6.56055V12.2937L17.3047 11.9037L22.5178 6.56055Z" fill="#DAD9D7"/>
<path d="M27.9913 12.0082L22.5156 6.56055V12.2937L27.9913 12.0082Z" fill="#DBDBD9"/>
<path d="M2.72266 14.1875L5.86072 20.7772L7.80831 15.796L2.72266 14.1875Z" fill="#D1D0D1"/>
<path d="M11.1515 20.778L7.80696 15.7969L5.85938 20.778H11.1515Z" fill="#D1CFD0"/>
<path d="M37.3008 15.796L39.6613 20.7772L42.3329 14.1875L37.3008 15.796Z" fill="#D1D0D1"/>
<path d="M33.9922 20.7908L37.3061 15.7969L39.6667 20.778L33.9922 20.7908Z" fill="#D1CFD0"/>
<path d="M39.6641 20.7776L42.3356 26.8217L44.3597 20.5176L39.6641 20.7776Z" fill="#C8C6CC"/>
<path d="M37.5781 25.2282L39.6608 20.7773L42.3324 26.8215L37.5781 25.2282Z" fill="#CAC8C8"/>
<path d="M13.6953 17.0407L15.3803 17.7774L15.9514 16.5742L13.6953 17.0407Z" fill="#403B4E"/>
<path d="M14.3632 17.9434L13.6953 17.041L15.3803 17.7777L14.3632 17.9434Z" fill="#393445"/>
<path d="M13.6966 17.041L13.1511 19.8426L12.6719 18.5476L13.6966 17.041Z" fill="#27242A"/>
<path d="M11.1523 20.7775L12.0752 19.4238L12.3785 21.244L11.1523 20.7775Z" fill="#1A1421"/>
<path d="M13.1539 19.8419L12.0781 19.4238L12.3815 21.244L13.1539 19.8419Z" fill="#0E0D12"/>
<path d="M12.6746 18.5469L12.0781 19.4238L13.1539 19.8419L12.6746 18.5469Z" fill="#21202C"/>
<path d="M14.3672 17.9433L15.1586 18.5024L15.3858 17.7773L14.3672 17.9433Z" fill="#443E52"/>
<path d="M16.2652 19.108L15.3831 17.7773L15.1562 18.5013C15.1562 18.5013 15.5692 18.4427 16.2652 19.108Z" fill="#383143"/>
<path d="M11.0786 22.9951L10.0156 21.9525L11.1551 20.7773L11.0786 22.9951Z" fill="#252632"/>
<path d="M14.75 18.9707L14.8215 19.5324L15.2861 19.8055L15.6231 19.2949L14.75 18.9707Z" fill="#6F6783"/>
<path d="M14.0537 19.6685V19.4238L13.7529 19.8266L13.4062 20.548L14.0537 19.6685Z" fill="#6F6783"/>
<path d="M14.1561 20.2832L13.6641 21.2443L13.8425 21.9555L14.3931 22.3149L15.1502 22.5214H15.6575L16.4503 21.8357L15.2497 20.9817L15.1095 21.0684L14.1561 20.2832Z" fill="#0D0C16"/>
<path d="M16.0625 20.6832L16.4551 20.334C16.4551 20.334 16.6616 20.7342 16.6922 21.1523L16.4551 21.8355C16.4525 21.8355 16.1543 20.803 16.0625 20.6832Z" fill="#4A4460"/>
<path d="M13.3533 20.416C13.3533 20.416 13.2793 20.536 13.2563 20.5743C13.2333 20.6126 13.1797 20.7249 13.1797 20.7249C13.1797 20.7249 13.2154 21.2687 13.2614 21.3887L13.6622 21.2457L13.4018 20.5488L13.3533 20.416Z" fill="#241F43"/>
<path d="M13.2656 21.3871L13.6664 21.2441L13.8707 21.9028L13.7303 22.1811C13.7303 22.1811 13.3703 21.9947 13.2656 21.3871Z" fill="#777095"/>
<path d="M14.5117 22.5881C14.5117 22.5881 13.9815 22.4275 13.7266 22.1802L13.8668 21.9023L14.4046 22.2643L15.0547 22.3969L14.5117 22.5881Z" fill="#A1A0B9"/>
<path d="M15.5849 22.8346C15.5849 22.8346 15.0241 22.8015 14.5117 22.5874L15.0547 22.3936C15.0547 22.3936 15.6971 22.4089 15.7685 22.3732C15.8424 22.335 16.4466 21.8379 16.4466 21.8379L15.5849 22.8346Z" fill="#B7B2D9"/>
<path d="M20.457 40.6816L22.527 40.6842V43.8987L20.457 40.6816Z" fill="#99999B"/>
<path d="M24.9228 39.8888L24.6016 40.6816L27.4592 39.6543L24.9228 39.8888Z" fill="#1D2724"/>
<path d="M24.0135 35.5381L23.7943 33.3203L22.5273 35.0181L24.0135 35.5381Z" fill="#736E84"/>
<path d="M25.6462 34.5312L23.793 33.3203L24.0122 35.5381L25.6462 34.5312Z" fill="#615C71"/>
<path d="M25.4194 33.384L23.793 33.3203L25.6462 34.5312L25.4194 33.384Z" fill="#504B59"/>
<path d="M27.1604 33.7473L25.6488 34.53L25.4219 33.3828L27.1604 33.7473Z" fill="#3C3943"/>
<path d="M27.8078 33.4883L26.9844 35.0637L27.1603 33.7483L27.8078 33.4883Z" fill="#030505"/>
<path d="M25.6484 34.5307L26.9842 35.0634L27.1601 33.748L25.6484 34.5307Z" fill="#201C27"/>
<path d="M25.2734 36.171L25.6482 34.5293L26.984 35.0621L25.2734 36.171Z" fill="#110E16"/>
<path d="M27.8072 33.4883L26.9838 35.0637L25.2733 36.1726L24.4219 37.3401L25.6812 36.3408L27.1266 35.5047L27.8072 33.4883Z" fill="#5C5B62"/>
<path d="M28.066 34.6558L27.806 33.4883L27.1254 35.5047L25.68 36.3408L24.1836 37.4905L25.8992 36.5881L27.3522 35.7826L28.066 34.6558Z" fill="#2A292E"/>
<path d="M25.2749 36.1729L24.0156 35.5382L25.6497 34.5312L25.2749 36.1729Z" fill="#0C0E10"/>
<path d="M23.3635 36.707L24.1843 37.4896L22.5273 38.4864L23.3635 36.707Z" fill="#030405"/>
<path d="M24.1843 37.4902L23.2819 39.0656L22.5273 38.487L24.1843 37.4902Z" fill="#4C4D52"/>
<path d="M24.9204 39.8877L23.2812 39.0643L26.5672 38.2129L24.9204 39.8877Z" fill="#5A5F64"/>
<path d="M24.1837 37.4902L26.5672 38.2142L23.2812 39.0656L24.1837 37.4902Z" fill="#696D73"/>
<path d="M22.5273 39.7955L23.2819 39.0664L24.921 39.8898L22.5273 39.7955Z" fill="#3B3B41"/>
<path d="M24.5998 40.6801L22.5273 39.793V40.6826L24.5998 40.6801Z" fill="#181915"/>
<path d="M27.4575 39.6543L24.921 39.8888L22.5273 39.7945L24.5998 40.6816L27.4575 39.6543Z" fill="#27292A"/>
<path d="M26.5687 38.2148L27.4583 39.6551L24.9219 39.8897L26.5687 38.2148Z" fill="#73767D"/>
<path d="M26.1261 36.4609L26.5671 38.2148L24.1836 37.4908L24.4207 37.3404L26.1261 36.4609Z" fill="#7D8187"/>
<path d="M28.0692 34.6562L28.4185 37.2743L27.3555 35.783L28.0692 34.6562Z" fill="#ACADB7"/>
<path d="M26.125 36.4593L27.3512 35.7812L28.4142 37.2725L26.125 36.4593Z" fill="#AEB6C0"/>
<path d="M26.566 38.2148L28.4142 37.2741L26.125 36.4609L26.566 38.2148Z" fill="#9EA2AC"/>
<path d="M28.0664 34.6562L28.4156 37.2743L31.2045 37.9243L28.0664 34.6562Z" fill="#A0A3A9"/>
<path d="M29.7243 38.7086L31.2029 37.9235L28.4141 37.2734L29.7243 38.7086Z" fill="#7C868A"/>
<path d="M26.5703 38.2141L28.4185 37.2734L29.7288 38.7086L26.5703 38.2141Z" fill="#A7A9B5"/>
<path d="M27.46 39.6551L29.7288 38.7094L26.5703 38.2148L27.46 39.6551Z" fill="#94969E"/>
<path d="M24.6016 40.6801L27.5229 40.4864L29.2538 39.6069L31.2065 37.9219L29.728 38.707L27.4592 39.6528L24.6016 40.6801Z" fill="#080A0B"/>
<path d="M25.2721 36.1719L25.68 36.3401L24.1836 37.4898L25.2721 36.1719Z" fill="#2A242D"/>
<path d="M22.535 36.9265L22.5273 35.0172L23.7917 33.3194C23.7917 33.3194 23.1621 33.248 22.5273 33.248V35.0376" fill="#696379"/>
<path d="M22.5273 38.4863V39.7941L23.2819 39.065L22.5273 38.4863Z" fill="#333235"/>
<path d="M31.2058 37.9219L30.4297 38.3329V38.5908L31.2058 37.9219Z" fill="#535B5C"/>
<path d="M29.7279 38.7087L29.3047 39.5653L30.4314 38.5915V38.334L29.7279 38.7087Z" fill="#212D2D"/>
<path d="M27.5234 40.4864L29.7285 38.707L29.3053 39.5636L27.5234 40.4864Z" fill="#0F1917"/>
<path d="M25.2803 36.168L24.1841 37.491L23.3633 36.7084L25.2803 36.168Z" fill="#171618"/>
<path d="M22.5273 38.4864V36.9288L23.3635 36.707L22.9811 37.5304L22.5273 38.4864Z" fill="#0B0C0F"/>
<path d="M24.921 39.8873L24.5998 40.6801L22.5273 39.793L24.921 39.8873Z" fill="#26262D"/>
<path d="M23.3633 36.7072L24.0133 35.5371L25.2726 36.1719L23.3633 36.7072Z" fill="#030405"/>
<path d="M22.5273 35.0176L23.3635 36.7077L24.0135 35.5376L22.5273 35.0176Z" fill="#0C0E10"/>
<path d="M22.5273 35.0176V36.9295L23.3635 36.7077L22.5273 35.0176Z" fill="#030405"/>
<path d="M21.043 35.5381L21.2622 33.3203L22.5266 35.0181L21.043 35.5381Z" fill="#736E84"/>
<path d="M19.4102 34.5312L21.2634 33.3203L21.0442 35.5381L19.4102 34.5312Z" fill="#615C71"/>
<path d="M19.637 33.384L21.2634 33.3203L19.4102 34.5312L19.637 33.384Z" fill="#504B59"/>
<path d="M17.8984 33.7473L19.4101 34.53L19.637 33.3828L17.8984 33.7473Z" fill="#3C3943"/>
<path d="M17.25 33.4883L18.0734 35.0637L17.8975 33.7483L17.25 33.4883Z" fill="#030505"/>
<path d="M19.4101 34.5307L18.0743 35.0634L17.8984 33.748L19.4101 34.5307Z" fill="#201C27"/>
<path d="M19.7808 36.1729L19.4061 34.5312L18.0703 35.064L19.7808 36.1729Z" fill="#110E16"/>
<path d="M17.25 33.4883L18.0734 35.0637L19.7839 36.1726L20.6353 37.3401L19.376 36.3408L17.9306 35.5047L17.25 33.4883Z" fill="#5C5B62"/>
<path d="M16.9922 34.6558L17.2522 33.4883L17.9328 35.5047L19.3782 36.3408L20.8746 37.4905L19.159 36.5881L17.706 35.7826L16.9922 34.6558Z" fill="#2A292E"/>
<path d="M19.7849 36.1729L21.0442 35.5382L19.4102 34.5312L19.7849 36.1729Z" fill="#0C0E10"/>
<path d="M21.6958 36.707L20.875 37.4896L22.5294 38.4864L21.6958 36.707Z" fill="#030405"/>
<path d="M20.875 37.4902L21.7774 39.0656L22.5294 38.487L20.875 37.4902Z" fill="#4C4D52"/>
<path d="M20.1351 39.8897L21.7742 39.0663L18.4883 38.2148L20.1351 39.8897Z" fill="#5A5F64"/>
<path d="M20.8718 37.4902L18.4883 38.2142L21.7742 39.0656L20.8718 37.4902Z" fill="#696D73"/>
<path d="M22.524 39.7955L21.7719 39.0664L20.1328 39.8898L22.524 39.7955Z" fill="#3B3B41"/>
<path d="M20.457 40.682L22.527 39.7949V40.6846L20.457 40.682Z" fill="#181915"/>
<path d="M17.5977 39.6543L20.1341 39.8888L22.5253 39.7945L20.4553 40.6816L17.5977 39.6543Z" fill="#27292A"/>
<path d="M18.4873 38.2148L17.5977 39.6551L20.1341 39.8897L18.4873 38.2148Z" fill="#73767D"/>
<path d="M18.9293 36.4609L18.4883 38.2148L20.8718 37.4908L20.6347 37.3404L18.9293 36.4609Z" fill="#7D8187"/>
<path d="M16.9899 34.6562L16.6406 37.2743L17.7036 35.783L16.9899 34.6562Z" fill="#ACADB7"/>
<path d="M18.9298 36.4593L17.7036 35.7812L16.6406 37.2725L18.9298 36.4593Z" fill="#AEB6C0"/>
<path d="M18.4888 38.2148L16.6406 37.2741L18.9298 36.4609L18.4888 38.2148Z" fill="#9EA2AC"/>
<path d="M16.9896 34.6562L16.6404 37.2743L13.8516 37.9243L16.9896 34.6562Z" fill="#A0A3A9"/>
<path d="M15.3301 38.7086L13.8516 37.9235L16.6404 37.2734L15.3301 38.7086Z" fill="#7C868A"/>
<path d="M18.4866 38.2141L16.6384 37.2734L15.3281 38.7086L18.4866 38.2141Z" fill="#A7A9B5"/>
<path d="M17.5969 39.6551L15.3281 38.7094L18.4866 38.2148L17.5969 39.6551Z" fill="#94969E"/>
<path d="M20.4565 40.6821L17.5352 40.4883L15.8042 39.6088L13.8516 37.9238L15.3301 38.709L17.5989 39.6547L20.4565 40.6821Z" fill="#080A0B"/>
<path d="M19.7829 36.1719L19.375 36.3401L20.8714 37.4898L19.7829 36.1719Z" fill="#2A242D"/>
<path d="M22.5185 36.9265L22.5261 35.0172L21.2617 33.3194C21.2617 33.3194 21.8914 33.248 22.5261 33.248V35.0376" fill="#696379"/>
<path d="M22.5254 38.4863V39.7941L21.7734 39.065L22.5254 38.4863Z" fill="#333235"/>
<path d="M13.8516 37.9238L14.6277 38.3349V38.5927L13.8516 37.9238Z" fill="#535B5C"/>
<path d="M15.3286 38.7087L15.7517 39.5653L14.625 38.5915V38.334L15.3286 38.7087Z" fill="#212D2D"/>
<path d="M17.5332 40.4864L15.3281 38.707L15.7513 39.5636L17.5332 40.4864Z" fill="#0F1917"/>
<path d="M19.7773 36.168L20.8735 37.491L21.6943 36.7084L19.7773 36.168Z" fill="#171618"/>
<path d="M22.5289 38.4864V36.9288L21.6953 36.707L22.07 37.5126L22.5289 38.4864Z" fill="#0B0C0F"/>
<path d="M20.1328 39.8892L20.454 40.682L22.524 39.7949L20.1328 39.8892Z" fill="#26262D"/>
<path d="M21.6906 36.7072L21.0406 35.5371L19.7812 36.1719L21.6906 36.7072Z" fill="#030405"/>
<path d="M22.5266 35.0176L21.693 36.7077L21.043 35.5376L22.5266 35.0176Z" fill="#0C0E10"/>
<path d="M22.5289 35.0176V36.9295L21.6953 36.7077L22.5289 35.0176Z" fill="#030405"/>
<path d="M15.0781 20.1875L15.0985 21.0708L15.7087 20.6879L15.0781 20.1875Z" fill="#9A93B0"/>
<path d="M14.5039 20.2488V20.5781L15.1013 21.0708L15.0809 20.1875L14.5039 20.2488Z" fill="#B8B3CD"/>
<path d="M29.7569 17.7827L29.1884 16.582L27.7812 17.4309L29.7569 17.7827Z" fill="#4D4B61"/>
<path d="M28.8749 19.1141L29.7569 17.7834L27.7812 17.4316L28.8749 19.1141Z" fill="#464355"/>
<path d="M28.2452 20.1618L27.7812 17.4316L28.8749 19.1141L28.2452 20.1618Z" fill="#373547"/>
<path d="M26.5664 18.1619C26.5664 18.1619 26.6046 19.6736 26.7423 19.9693C26.7423 19.9693 26.8953 19.3728 27.1374 18.7125C27.3082 18.2511 27.5147 17.7566 27.7824 17.4277L26.5664 18.1619Z" fill="#23222B"/>
<path d="M28.2423 20.1624L26.7383 19.9712C26.7383 19.9712 27.2634 17.8732 27.7784 17.4297L28.2423 20.1624Z" fill="#27252F"/>
<path d="M28.4488 21.1592L28.2423 20.1599L26.7383 19.9688C26.7383 19.9688 27.0595 21.2841 27.2354 21.6538L28.4488 21.1592Z" fill="#18171D"/>
<path d="M30.8379 18.8252L30.7742 17.9509L29.757 17.7852L28.875 19.1158C28.875 19.1158 29.6219 18.5219 29.9839 18.5091C30.3459 18.4938 30.8379 18.8252 30.8379 18.8252Z" fill="#454156"/>
<path d="M31.4413 17.0488L31.9869 19.8504L30.8372 18.8256L30.7734 17.9487L31.4413 17.0488Z" fill="#302B3C"/>
<path d="M34.063 23.001L32.7578 21.2497L33.984 20.7832L34.063 23.001Z" fill="#313241"/>
<path d="M36.3449 23.2228L34.0634 23.001L33.9844 20.7832L36.3449 23.2228Z" fill="#1E1F29"/>
<path d="M37.5778 25.2178L35.4238 24.5499L34.0625 23L36.344 23.2218L37.5778 25.2178Z" fill="#121015"/>
<path d="M32.7583 21.25L32.5391 22.6521L34.0635 23.0013L32.7583 21.25Z" fill="#3D3C4F"/>
<path d="M33.0642 24.1564L34.0635 23.0016L32.5391 22.6523L33.0642 24.1564Z" fill="#30313D"/>
<path d="M33.625 25.4447L35.4222 24.5499L34.0609 23L33.625 25.4447Z" fill="#181720"/>
<path d="M36.4123 27.5977L31.4414 27.7098L33.983 29.247L36.4123 27.5977Z" fill="#030505"/>
<path d="M35.4258 24.5508L36.4149 27.5971L37.5799 25.2187L35.4258 24.5508Z" fill="#070809"/>
<path d="M33.625 25.4455L36.4113 27.5971L35.4222 24.5508L33.625 25.4455Z" fill="#0C0C10"/>
<path d="M31.4414 27.709L33.6261 25.4453L36.4123 27.5968L31.4414 27.709Z" fill="#110F16"/>
<path d="M31.3047 24.7324L31.4423 27.7099L33.627 25.4462L31.3047 24.7324Z" fill="#15121E"/>
<path d="M33.0625 24.1548L33.6259 25.4447L34.0618 23L33.0625 24.1548Z" fill="#1F1E2C"/>
<path d="M31.3047 24.7324L33.0636 24.1562L33.627 25.4461L31.3047 24.7324Z" fill="#1B1926"/>
<path d="M32.5406 22.6523L31.2227 23.4044L33.0657 24.1564L32.5406 22.6523Z" fill="#23242E"/>
<path d="M31.3068 24.7324L31.2227 23.4043L33.0657 24.1563L31.3068 24.7324Z" fill="#221C2F"/>
<path d="M29.6172 26.3633L31.3048 24.7344L31.4399 27.7118C31.4424 27.7093 30.6802 27.3193 29.6172 26.3633Z" fill="#13121A"/>
<path d="M28.5664 24.9007L31.3068 24.7324L29.6192 26.3614C29.6192 26.3639 29.2368 26.1523 28.5664 24.9007Z" fill="#0E0D17"/>
<path d="M28.6874 21.8429L27.2344 21.6543L27.8334 23.5331L28.6874 21.8429Z" fill="#403C53"/>
<path d="M28.4478 21.1602L28.6874 21.8433L27.2344 21.6547L28.4478 21.1602Z" fill="#2F2E39"/>
<path d="M29.5541 22.8405L28.6899 21.8438L27.8359 23.5339L29.5541 22.8405Z" fill="#4C495F"/>
<path d="M28.5664 24.8996L29.5555 22.8398L27.8399 23.5307C27.8373 23.5332 28.0489 24.2011 28.5664 24.8996Z" fill="#261F33"/>
<path d="M31.2219 23.4032L29.5547 22.8398L31.306 24.7314L31.2219 23.4032Z" fill="#191526"/>
<path d="M28.5664 24.8996L31.3068 24.7314L29.5555 22.8398L28.5664 24.8996Z" fill="#11101F"/>
<path d="M30.9806 20.2922L30.0476 20.1953L29.418 20.6924L30.0272 21.0773L30.9806 20.2922Z" fill="#D6CEE7"/>
<path d="M31.0881 19.674L30.9836 20.2909L30.0506 20.194L29.8594 19.8117L30.2851 19.5312L31.0881 19.674Z" fill="#0B0B12"/>
<path d="M28.4487 21.1593L28.2422 20.1601L28.8744 19.1149C28.8744 19.1149 29.5423 18.5209 29.9833 18.5082C30.4243 18.4954 30.8398 18.8268 30.8398 18.8268L31.987 19.8516V20.262L31.9666 20.6087L31.9564 20.7311C31.9564 20.7311 31.4414 19.6961 30.748 19.2423C30.0547 18.7886 29.1115 19.5839 28.8489 20.0785C28.5481 20.6342 28.4487 21.1593 28.4487 21.1593Z" fill="#050607"/>
<path d="M30.9844 20.2903L31.4764 21.2514L31.7491 20.5835C31.7491 20.5835 31.3311 19.6938 31.0991 19.5332L30.9844 20.2903Z" fill="#1D1A39"/>
<path d="M28.69 21.8438C28.69 21.8438 29.1132 20.1945 29.8576 19.8121L30.319 19.5393L31.0863 19.6744L31.7465 20.582L31.7822 20.4214L31.4534 19.8962L31.0965 19.4272L30.3878 18.9785L29.5134 19.3023C29.5134 19.3023 28.5804 19.9727 28.4453 21.1606L28.69 21.8438Z" fill="#5D5A71"/>
<path d="M31.9866 19.8496L32.759 21.2491L32.5398 22.6512L31.2244 23.4032L29.5547 22.8424C29.5547 22.8424 30.3755 22.7608 31.0562 22.4115C31.7495 22.0547 31.8515 21.6621 31.9178 21.1344C31.9943 20.5124 31.9866 19.8496 31.9866 19.8496Z" fill="#0B0B0E"/>
<path d="M29.855 19.8125L30.0462 20.1949L29.4166 20.6945L29.8882 20.9902L28.6875 21.8442C28.6875 21.8442 28.9373 20.8755 29.1948 20.4727C29.5517 19.9119 29.855 19.8125 29.855 19.8125Z" fill="#1B1731"/>
<path d="M31.4435 17.0485L29.756 17.7827L29.1875 16.582L31.4435 17.0485Z" fill="#403B4E"/>
<path d="M30.7736 17.9487L31.4415 17.0488L29.7539 17.783L30.7736 17.9487Z" fill="#393445"/>
<path d="M31.4414 17.0488L31.9869 19.8504L32.4662 18.5529L31.4414 17.0488Z" fill="#27242A"/>
<path d="M33.984 20.7833L33.0637 19.4297L32.7578 21.2498L33.984 20.7833Z" fill="#1A1421"/>
<path d="M31.9883 19.8503L33.064 19.4297L32.7581 21.2498L31.9883 19.8503Z" fill="#0E0D12"/>
<path d="M32.4675 18.5527L33.064 19.4297L31.9883 19.8503L32.4675 18.5527Z" fill="#21202C"/>
<path d="M28.875 19.1139L29.757 17.7832L29.9839 18.5072C29.9864 18.5072 29.5735 18.4511 28.875 19.1139Z" fill="#383143"/>
<path d="M34.0634 23.001L35.1239 21.9609L33.9844 20.7832L34.0634 23.001Z" fill="#252632"/>
<path d="M30.3952 18.9785L30.3212 19.5402L29.8565 19.8133L29.5195 19.3027L30.3952 18.9785Z" fill="#6F6783"/>
<path d="M31.0859 19.6744V19.4297L31.3893 19.8325L31.7334 20.5564L31.0859 19.6744Z" fill="#6F6783"/>
<path d="M30.9792 20.291L31.4738 21.2495L31.2953 21.9607L30.7447 22.3227L29.985 22.5292H29.4777L28.6875 21.8435L29.8882 20.9869L30.0258 21.0762L30.9792 20.291Z" fill="#0D0C16"/>
<path d="M29.0828 20.6891L28.6902 20.3398C28.6902 20.3398 28.4837 20.7401 28.4531 21.1581L28.6902 21.8413C28.6927 21.8439 28.9885 20.8089 29.0828 20.6891Z" fill="#4A4460"/>
<path d="M31.7855 20.4219C31.7855 20.4219 31.8595 20.5419 31.8825 20.5802C31.9055 20.6185 31.9591 20.7308 31.9591 20.7308C31.9591 20.7308 31.9233 21.2746 31.8774 21.3946L31.4766 21.2516L31.737 20.5546L31.7855 20.4219Z" fill="#241F43"/>
<path d="M31.8785 21.393L31.4777 21.25L31.2734 21.9087L31.4139 22.187C31.4113 22.1895 31.7738 22.0031 31.8785 21.393Z" fill="#777095"/>
<path d="M30.625 22.5939C30.625 22.5939 31.1552 22.4333 31.4102 22.1861L31.27 21.9082L30.7321 22.2702L30.082 22.4027L30.625 22.5939Z" fill="#A1A0B9"/>
<path d="M29.5569 22.8405C29.5569 22.8405 30.1178 22.8073 30.6302 22.5932L30.0872 22.3995C30.0872 22.3995 29.4448 22.4148 29.3734 22.3791C29.2995 22.3408 28.6953 21.8438 28.6953 21.8438L29.5569 22.8405Z" fill="#B7B2D9"/>
<path d="M30.0564 20.1953L30.0385 21.0787L29.4258 20.6932L30.0564 20.1953Z" fill="#9A93B0"/>
<path d="M30.6365 20.254V20.5859L30.0391 21.0787L30.0569 20.1953L30.6365 20.254Z" fill="#B8B3CD"/>
<path d="M72.2064 28.5992H71.336L70.4862 21.1807C70.1639 18.3005 69.9433 16.0546 69.8261 14.4413L63.8985 28.3975H63.0712L57.4314 14.4413C57.347 15.9029 57.1781 17.842 56.923 20.2534L56.8471 21.1359L56.0853 28.5992H55.1562L56.6886 13.1055H57.7831L63.5107 27.0634L69.4365 13.1055H70.531L72.2064 28.5992Z" fill="white" stroke="white" stroke-width="0.338778"/>
<path d="M83.6104 16.916C83.4518 13.0551 79.5633 13.0689 76.4435 13.0792H76.0333C75.8144 13.0792 75.6093 13.0878 75.418 13.1171V14.0548C75.418 14.0548 75.418 14.0548 75.4197 14.0548C75.4197 14.0548 75.4197 20.7373 75.418 20.7373V21.6887L75.4197 28.6332H76.2643L76.266 21.768V20.8304L76.2643 14.0134H76.4487C76.5228 14.0134 76.5987 14.0083 76.6728 14.0083C78.4033 14.0083 79.877 14.0738 80.9301 14.4754C81.9833 14.8718 82.6227 15.6078 82.6779 16.9557C82.7296 18.1501 82.4314 19.0912 81.7971 19.7531C81.0973 20.4805 79.9839 21.1579 78.5653 21.1579H77.3708V21.7956H78.5653C80.2441 21.7956 81.3628 21.2578 82.2401 20.3443C83.0554 19.4928 83.6707 18.3708 83.6104 16.916Z" fill="white" stroke="white" stroke-width="0.338778"/>
<defs>
<linearGradient id="paint0_linear_2378_57129" x1="22.5544" y1="1.42452" x2="22.5544" y2="54.4669" gradientUnits="userSpaceOnUse">
<stop stop-color="#E9E7E8"/>
<stop offset="0.7998" stop-color="#9C9A9C"/>
</linearGradient>
<linearGradient id="paint1_linear_2378_57129" x1="13.8506" y1="37.2722" x2="31.2048" y2="37.2722" gradientUnits="userSpaceOnUse">
<stop stop-color="#E9E7E8"/>
<stop offset="0.5011" stop-color="#333235"/>
<stop offset="1" stop-color="#A0A3A9"/>
</linearGradient>
</defs>
</svg>
