<svg width="334" height="432" viewBox="0 0 334 432" fill="none" xmlns="http://www.w3.org/2000/svg">
<g clip-path="url(#clip0_4047_40548)">
<path d="M134.153 419.081L117.964 418.861L112.789 431.612H110.311L124.848 395.524H127.154L141.691 431.612H139.213L134.153 419.081ZM133.487 417.228L125.972 398.396L118.537 417.123L133.487 417.228Z" fill="black"/>
<path d="M256.028 419.075L239.839 418.855L234.664 431.606H232.186L246.723 395.518H249.029L263.566 431.606H261.088L256.028 419.075ZM255.362 417.222L247.847 398.39L240.412 417.118L255.362 417.222Z" fill="black"/>
<path d="M181.101 395.451V431.609H179.529L152.91 400.35L152.749 431.539H150.523V395.451H152.176L178.6 426.559L178.554 395.451H181.101Z" fill="black"/>
<path d="M195.588 395.669H207.83C211.043 395.669 213.889 396.41 216.378 397.904C218.868 399.398 220.807 401.46 222.184 404.089C223.572 406.718 224.261 409.706 224.261 413.053C224.261 416.4 223.572 420.547 222.184 423.176C220.796 425.805 218.868 427.866 216.378 429.36C213.889 430.854 211.043 431.596 207.83 431.596H195.588V395.669ZM207.647 429.325C210.504 429.325 213.017 428.689 215.197 427.415C217.377 426.141 219.052 424.357 220.233 422.075C221.415 419.794 222 416.018 222 413.065C222 410.123 221.415 407.506 220.233 405.212C219.052 402.931 217.377 401.147 215.197 399.873C213.017 398.599 210.504 397.962 207.647 397.962H197.837V429.325H207.647Z" fill="black"/>
<path d="M147.569 379.054H146.273L145.401 370.704C145.045 367.461 144.793 364.936 144.666 363.118L138.058 378.811H137.14L130.852 363.118C130.76 364.763 130.565 366.94 130.29 369.662L130.21 370.658L129.36 379.054H128.041L129.888 361.624H131.598L137.645 376.692L144.012 361.624H145.734L147.569 379.054Z" fill="black"/>
<path d="M162.435 361.345L162.412 362.619H155.654L155.689 368.595H162.148V369.869H155.689L155.654 377.803H162.493V379.077H154.369V361.357H162.435V361.345Z" fill="black"/>
<path d="M180.29 362.977C182.022 364.193 183.181 366.532 183.181 369.81C183.181 373.088 181.965 375.948 180.209 377.257C178.454 378.566 177.1 379.052 174.564 379.052H168.977V361.332H174.243C177.02 361.344 178.546 361.761 180.29 362.977ZM170.078 362.618V377.79H174.679C179.406 377.79 181.77 374.975 181.77 369.914C181.77 367.911 181.426 366.382 180.737 365.305C180.049 364.239 179.177 363.521 178.133 363.151C177.077 362.792 175.861 362.606 174.461 362.606H170.078V362.618Z" fill="black"/>
<path d="M192.486 361.345V379.065H191.144V361.345H192.486Z" fill="black"/>
<path d="M212.196 379.052L209.763 373.111L201.915 373.122L199.781 379.052H198.358L204.795 361.332H206.264L213.687 379.052H212.196ZM202.409 371.825H209.19L205.529 363.104L202.409 371.825Z" fill="black"/>
<path d="M104.564 404.418C104.197 395.465 95.2585 395.488 88.0875 395.511H87.1466C86.6418 395.511 86.1714 395.534 85.7354 395.592V397.77V413.277V415.49V431.6H87.6744V415.675V413.498V397.677H88.0989C88.271 397.677 88.4432 397.665 88.6153 397.665C92.5966 397.665 95.9814 397.816 98.4024 398.742C100.823 399.657 102.292 401.371 102.418 404.499C102.533 407.267 101.844 409.456 100.387 410.984C98.781 412.675 96.2223 414.239 92.9638 414.239H90.2216V415.721H92.9638C96.819 415.721 99.3891 414.47 101.408 412.351C103.279 410.405 104.701 407.799 104.564 404.418Z" fill="black"/>
</g>
<g clip-path="url(#clip1_4047_40548)">
<path d="M79.6367 76.0286L101.437 126.977L128.021 88.7684L79.6367 76.0286Z" fill="#D7D3D1"/>
<path d="M58.0381 117.723L79.6431 76.0286L101.443 126.977L58.0381 117.723Z" fill="#E1DDDB"/>
<path d="M82.6951 154.775L58.0381 117.725L101.443 126.979L82.6951 154.775Z" fill="#BEBFBB"/>
<path d="M43.6885 154.774H82.6991L65.305 172.922L56.2178 187.782L43.6885 154.774Z" fill="#C0C0BF"/>
<path d="M79.6534 76.0286L20.5752 105.747L58.0484 117.723L79.6534 76.0286Z" fill="#D9D9D9"/>
<path d="M129.553 10.7903L83.8535 30.2823L128.027 48.234L129.553 10.7903Z" fill="#E8E7E5"/>
<path d="M168.464 10.7903L128.02 48.234L129.546 10.7903H168.464Z" fill="#EDEDED"/>
<path d="M203.922 10.7903L204.875 49.0099L168.457 10.7903H203.922Z" fill="#EEEEEE"/>
<path d="M128.02 48.2339L166.674 49.0099H204.882L168.464 10.7903L128.02 48.2339Z" fill="#E9E7E8"/>
<path d="M250.975 31.2436L204.885 49.0099L203.933 10.7903L250.975 31.2436Z" fill="#E8E7E5"/>
<path d="M166.461 49.0103H204.886L206.803 89.5347L166.461 49.0103Z" fill="#E0E0DE"/>
<path d="M255.37 76.0304L204.886 49.0103L206.802 89.5347L255.37 76.0304Z" fill="#E1E1E0"/>
<path d="M128.019 88.7698L137.382 135.282L118.071 123.503L101.435 126.978L128.019 88.7698Z" fill="#D9D9D9"/>
<path d="M166.456 91.6652L137.382 135.282L128.02 88.7698L166.456 91.6652Z" fill="#D6D6D3"/>
<path d="M196.339 135.396L206.803 89.5322L166.461 91.6633L196.339 135.396Z" fill="#D6D6D3"/>
<path d="M232.304 127.092L206.82 89.5322L196.356 135.396L215.667 123.664L232.304 127.092Z" fill="#D9D9D9"/>
<path d="M255.379 76.0286L232.294 127.092L206.811 89.5328L255.379 76.0286Z" fill="#E1DDDB"/>
<path d="M275.506 117.825L232.296 127.09L255.427 76.1309L275.506 117.825Z" fill="#D7D3D1"/>
<path d="M312.551 105.747L275.456 117.723L255.377 76.0286L312.551 105.747Z" fill="#D9D9D9"/>
<path d="M251.033 154.891L232.296 127.095L275.46 117.725L251.033 154.891Z" fill="#BEBFBB"/>
<path d="M327.465 152.851L312.549 105.748L292.849 154.773L327.465 152.851Z" fill="#CECCD1"/>
<path d="M277.514 187.897L268.197 172.922L251.032 154.89L292.854 154.774L277.514 187.897Z" fill="#C0C0BF"/>
<path d="M333.012 200.521L327.471 152.851L312.555 199.745L333.012 200.521Z" fill="#B9B8BF"/>
<path d="M288.247 231.98L312.537 199.748L277.496 187.9L288.247 231.98Z" fill="#B3B3B2"/>
<path d="M327.471 238.162L333.012 200.521L312.555 199.745L327.471 238.162Z" fill="#B0AEB3"/>
<path d="M288.247 231.977L327.453 238.162L312.537 199.745L288.247 231.977Z" fill="#A4A2A2"/>
<path d="M298 280.425L327.453 238.163L288.247 231.979L298 280.425Z" fill="#A9A9A9"/>
<path d="M251.032 217.862L268.771 205.157L277.514 187.9L288.264 231.98L251.032 217.862Z" fill="#BCBEBB"/>
<path d="M263.202 258.037L288.249 231.979L298.002 280.425L263.202 258.037Z" fill="#B4B5B5"/>
<path d="M263.202 304.166V258.036L298.002 280.423L263.202 304.166Z" fill="#ACACAC"/>
<path d="M230.517 282.357L263.217 258.036V304.166L230.517 282.357Z" fill="#B2B0B6"/>
<path d="M232.282 206.429L251.019 217.861L213.488 227.242L232.282 206.429Z" fill="#C7C6C9"/>
<path d="M288.264 231.979L263.217 258.038L251.032 217.861L288.264 231.979Z" fill="#C7C6C9"/>
<path d="M213.488 227.242L251.019 217.861L263.204 258.038L213.488 227.242Z" fill="#C3C3C3"/>
<path d="M207.38 258.036H263.211L230.511 282.357L207.38 258.036Z" fill="#BBB9BE"/>
<path d="M213.495 227.241L205.464 249.35L207.38 258.036H263.211L213.495 227.241Z" fill="#CECCD1"/>
<path d="M187.866 248.586L213.487 227.241L205.455 249.35L200.682 251.284L187.866 248.586Z" fill="#DEDDE1"/>
<path d="M166.449 147.824L137.375 135.281L166.449 91.6638L196.327 135.396L166.449 147.824Z" fill="#CFCDCD"/>
<path d="M128.02 175.238L166.456 147.835L137.394 135.292C137.394 135.292 137.772 144.755 134.525 154.784C131.267 164.814 128.02 175.238 128.02 175.238Z" fill="#D3D1D5"/>
<path d="M196.35 135.398C196.35 135.398 196.499 146.319 199.551 155.26C202.465 163.784 205.713 175.355 205.713 175.355L166.461 147.836L196.35 135.398Z" fill="#D3D1D5"/>
<path d="M166.456 187.004L128.02 175.237L166.456 147.823L205.697 175.353L166.456 187.004Z" fill="#DCDBE0"/>
<path d="M101.435 206.311L166.445 187.005L128.008 175.226C128.008 175.226 121.502 188.742 116.729 194.336C111.956 199.941 101.435 206.311 101.435 206.311Z" fill="#DDDDE4"/>
<path d="M232.435 206.52L166.461 187.016L205.713 175.354C205.713 175.354 209.579 182.87 216.177 191.649C222.774 200.428 232.435 206.52 232.435 206.52Z" fill="#DEDDE2"/>
<path d="M119.994 227.241H213.493L166.463 187.006L119.994 227.241Z" fill="#DDDCE1"/>
<path d="M232.435 206.521L213.492 227.241L166.461 187.006L232.435 206.521Z" fill="#DAD9DE"/>
<path d="M119.988 227.241L166.456 187.006L101.435 206.313L119.988 227.241Z" fill="#DAD9DD"/>
<path d="M187.871 248.586L166.461 227.241H213.492L187.871 248.586Z" fill="#D0D0D3"/>
<path d="M145.239 248.586L166.466 227.241L187.887 248.586C187.887 248.586 170.917 247.81 167.039 247.81C163.161 247.81 145.239 248.586 145.239 248.586Z" fill="#D9DBDC"/>
<path d="M119.994 227.241L145.236 248.586L166.463 227.241H119.994Z" fill="#D0D0D3"/>
<path d="M127.647 249.362L119.994 227.241L145.236 248.586L132.42 251.284L127.647 249.362Z" fill="#DEDDE2"/>
<path d="M20.5633 105.748L5.64746 154.773H43.6943L20.5633 105.748Z" fill="#CECCD1"/>
<path d="M56.2355 187.782L20.5752 199.745L43.7062 154.774L56.2355 187.782Z" fill="#CAC8C8"/>
<path d="M5.64746 154.774L20.5633 199.745L43.6943 154.774H5.64746Z" fill="#C8C6CC"/>
<path d="M0.484375 197.823L5.64755 154.774L20.5634 199.745L0.484375 197.823Z" fill="#BAB8BD"/>
<path d="M6.41629 237.676L0.484375 197.823L20.5634 199.746L6.41629 237.676Z" fill="#B0AEB3"/>
<path d="M45.4084 231.213L20.5563 199.745L6.40918 237.675L45.4084 231.213Z" fill="#A4A2A2"/>
<path d="M56.2355 187.782L45.4273 231.213L20.5752 199.746L56.2355 187.782Z" fill="#B3B3B2"/>
<path d="M82.7251 217.744L45.4355 231.213L56.2438 187.782L64.8147 205.479L82.7251 217.744Z" fill="#BCBEBB"/>
<path d="M35.4721 280.363L6.40918 237.673L45.4084 231.21L35.4721 280.363Z" fill="#A9A9A9"/>
<path d="M70.5307 258.033L45.4148 231.21L35.4785 280.363L70.5307 258.033Z" fill="#B4B5B5"/>
<path d="M82.707 217.742L119.997 227.239L101.444 206.311L82.707 217.742Z" fill="#C7C6C9"/>
<path d="M70.5515 258.033L82.7251 217.74L45.4355 231.21L70.5515 258.033Z" fill="#C7C6C9"/>
<path d="M119.993 227.237L70.5293 258.033L82.7029 217.74L119.993 227.237Z" fill="#C3C3C3"/>
<path d="M125.729 258.036H70.5293L119.993 227.241L127.634 249.35L125.729 258.036Z" fill="#CECCD1"/>
<path d="M102.587 282.357L70.5293 258.036H125.729L102.587 282.357Z" fill="#BBB9BE"/>
<path d="M71.4242 304.432L102.587 282.357L70.5293 258.036L71.4242 304.432Z" fill="#B2B0B6"/>
<path d="M35.4785 280.365L70.5307 258.036L71.4257 304.432L35.4785 280.365Z" fill="#ACACAC"/>
<path d="M114.511 319.93L71.4268 304.433L102.589 282.359L114.511 319.93Z" fill="#A4A2A7"/>
<path d="M263.232 304.167L218.932 320.509L230.532 282.359L263.232 304.167Z" fill="#A4A1A7"/>
<path d="M181.821 302.881L218.916 320.509L230.516 282.359L216.116 294.902L203.369 301.434L181.821 302.881Z" fill="#9C9A9C"/>
<path d="M166.564 326.82L181.825 302.881L218.919 320.508L166.564 326.82Z" fill="#A4A1A3"/>
<path d="M166.564 302.881H181.825L166.564 326.82V302.881Z" fill="#99999B"/>
<path d="M114.502 319.929L151.275 302.881L166.547 326.82L114.502 319.929Z" fill="#A4A1A3"/>
<path d="M102.581 282.359L116.992 294.902L129.739 301.434L151.276 302.881L114.502 319.93L102.581 282.359Z" fill="#9C9A9C"/>
<path d="M250.976 31.2431L281.851 0.945312L290.939 27.5832L250.976 31.2431Z" fill="#423E4F"/>
<path d="M315.032 16.0942L281.85 0.945312L290.937 27.5832L315.032 16.0942Z" fill="#333241"/>
<path d="M327.47 41.6679L315.044 16.0955L290.949 27.5845L327.47 41.6679Z" fill="#21202C"/>
<path d="M264.744 42.2442L290.939 27.5818L250.976 31.2416L264.744 42.2442Z" fill="#343342"/>
<path d="M286.355 66.7653L327.466 41.6677L331.677 72.5561L286.355 66.7653Z" fill="#1D1B2D"/>
<path d="M290.945 27.5818L286.355 66.7627L327.466 41.6651L290.945 27.5818Z" fill="#272530"/>
<path d="M264.733 42.2442L290.928 27.5818L286.338 66.7627L264.733 42.2442Z" fill="#302F3B"/>
<path d="M331.677 72.5548L312.55 105.748L286.355 66.7639L331.677 72.5548Z" fill="#0A0B0D"/>
<path d="M83.863 30.2792L52.2185 1.0354L42.5576 27.1869L83.863 30.2792Z" fill="#423E4F"/>
<path d="M19.0195 16.2885L52.2015 1.0354L42.5407 27.1869L19.0195 16.2885Z" fill="#333241"/>
<path d="M70.4732 40.7048L42.5576 27.189L83.863 30.2813L70.4732 40.7048Z" fill="#343342"/>
<path d="M47.3422 66.5668L42.5576 27.189L70.4732 40.7048L47.3422 66.5668Z" fill="#302F3B"/>
<path d="M19.0254 16.292L6.3125 40.7062L42.5465 27.1904L19.0254 16.292Z" fill="#21202C"/>
<path d="M47.3311 66.5668L6.3125 40.7048L42.5465 27.189L47.3311 66.5668Z" fill="#272530"/>
<path d="M2 72.8438L6.30264 40.7046L47.3212 66.5665L2 72.8438Z" fill="#1D1B2D"/>
<path d="M20.553 105.749L2 72.8449L47.3212 66.5676L20.553 105.749Z" fill="#0A0B0D"/>
<path d="M113.885 132.456L118.084 123.503L128.445 129.827L113.885 132.456Z" fill="#4D4B61"/>
<path d="M120.379 142.361L113.885 132.459L128.445 129.83L120.379 142.361Z" fill="#464355"/>
<path d="M125.062 150.144L128.469 129.83L120.403 142.361L125.062 150.144Z" fill="#373547"/>
<path d="M137.397 135.285C137.397 135.285 137.121 146.542 136.111 148.731C136.111 148.731 134.987 144.284 133.197 139.385C131.946 135.945 130.421 132.274 128.436 129.83L137.397 135.285Z" fill="#23222B"/>
<path d="M125.021 150.144L136.093 148.731C136.093 148.731 132.215 133.119 128.428 129.83L125.021 150.144Z" fill="#27252F"/>
<path d="M123.489 157.577L125.015 150.142L136.087 148.729C136.087 148.729 133.712 158.516 132.427 161.26L123.489 157.577Z" fill="#18171D"/>
<path d="M105.884 140.203L106.366 133.695L113.869 132.455L120.375 142.358C120.375 142.358 114.879 137.933 112.206 137.841C109.509 137.748 105.884 140.203 105.884 140.203Z" fill="#454156"/>
<path d="M101.45 126.979L97.4346 147.826L105.902 140.205L106.373 133.696L101.45 126.979Z" fill="#302B3C"/>
<path d="M82.1055 171.278L91.7205 158.248L82.6792 154.774L82.1055 171.278Z" fill="#313241"/>
<path d="M65.3184 172.922L82.1388 171.278L82.7125 154.774L65.3184 172.922Z" fill="#1E1F29"/>
<path d="M56.2344 187.78L72.1025 182.811L82.142 171.276L65.3216 172.92L56.2344 187.78Z" fill="#121015"/>
<path d="M91.7205 158.248L93.3382 168.672L82.1055 171.277L91.7205 158.248Z" fill="#3D3C4F"/>
<path d="M89.4716 179.871L82.1055 171.277L93.3382 168.671L89.4716 179.871Z" fill="#30313D"/>
<path d="M85.3168 189.471L72.0762 182.811L82.1157 171.276L85.3168 189.471Z" fill="#181720"/>
<path d="M64.7812 205.479L101.428 206.313L82.6917 217.745L64.7812 205.479Z" fill="#030505"/>
<path d="M72.1025 182.814L64.8052 205.48L56.2344 187.783L72.1025 182.814Z" fill="#070809"/>
<path d="M85.3192 189.474L64.7812 205.48L72.0785 182.814L85.3192 189.474Z" fill="#0C0C10"/>
<path d="M101.428 206.312L85.3192 189.472L64.7812 205.478L101.428 206.312Z" fill="#110F16"/>
<path d="M102.447 184.169L101.437 206.313L85.3281 189.474L102.447 184.169Z" fill="#15121E"/>
<path d="M89.4716 179.869L85.3066 189.471L82.1055 171.276L89.4716 179.869Z" fill="#1F1E2C"/>
<path d="M102.447 184.166L89.4931 179.869L85.3281 189.47L102.447 184.166Z" fill="#1B1926"/>
<path d="M93.3637 168.671L103.07 174.265L89.4971 179.871L93.3637 168.671Z" fill="#23242E"/>
<path d="M102.451 184.17L103.07 174.268L89.4971 179.874L102.451 184.17Z" fill="#221C2F"/>
<path d="M114.882 196.295L102.433 184.169L101.435 206.313C101.435 206.313 107.057 203.406 114.882 196.295Z" fill="#13121A"/>
<path d="M122.666 185.407L102.461 184.156L114.91 196.282C114.898 196.294 117.732 194.719 122.666 185.407Z" fill="#0E0D17"/>
<path d="M121.75 162.66L132.444 161.259L128.026 175.238L121.75 162.66Z" fill="#403C53"/>
<path d="M123.494 157.576L121.75 162.66L132.444 161.259L123.494 157.576Z" fill="#2F2E39"/>
<path d="M115.368 170.086L121.748 162.662L128.024 175.239L115.368 170.086Z" fill="#4C495F"/>
<path d="M122.654 185.407L115.368 170.084L128.024 175.227C128.024 175.238 126.463 180.207 122.654 185.407Z" fill="#261F33"/>
<path d="M103.081 174.265L115.38 170.084L102.461 184.168L103.081 174.265Z" fill="#191526"/>
<path d="M122.666 185.407L102.461 184.168L115.38 170.084L122.666 185.407Z" fill="#11101F"/>
<path d="M104.85 151.112L111.734 150.383L116.369 154.1L111.883 156.949L104.85 151.112Z" fill="#D6CEE7"/>
<path d="M104.048 146.527L104.817 151.114L111.701 150.384L113.112 147.535L109.98 145.462L104.048 146.527Z" fill="#0B0B12"/>
<path d="M123.503 157.576L125.029 150.14L120.371 142.357C120.371 142.357 115.448 137.933 112.201 137.84C108.954 137.748 105.891 140.203 105.891 140.203L97.4346 147.824V150.87L97.5952 153.453L97.664 154.368C97.664 154.368 101.45 146.666 106.568 143.284C111.685 139.902 118.627 145.832 120.577 149.503C122.78 153.684 123.503 157.576 123.503 157.576Z" fill="#050607"/>
<path d="M104.843 151.114L101.206 158.26L99.1982 153.292C99.1982 153.292 102.273 146.679 103.983 145.474L104.843 151.114Z" fill="#1D1A39"/>
<path d="M121.747 162.662C121.747 162.662 118.638 150.385 113.13 147.548L109.723 145.521L104.066 146.528L99.1897 153.28L98.9258 152.088L101.347 148.185L103.974 144.698L109.195 141.351L115.632 143.749C115.632 143.749 122.504 148.729 123.502 157.577L121.747 162.662Z" fill="#5D5A71"/>
<path d="M97.4488 147.823L91.7578 158.247L93.3871 168.67L103.094 174.264L115.394 170.083C115.394 170.083 109.347 169.481 104.333 166.886C99.2157 164.234 98.4699 161.316 97.9766 157.378C97.3914 152.768 97.4488 147.823 97.4488 147.823Z" fill="#0B0B0E"/>
<path d="M113.124 147.536L111.713 150.385L116.348 154.103L112.872 156.304L121.729 162.662C121.729 162.662 119.882 155.447 118 152.47C115.362 148.289 113.124 147.536 113.124 147.536Z" fill="#1B1731"/>
<path d="M79.6367 76.0288L128.021 48.2327V88.7686L79.6367 76.0288Z" fill="#E1E1E0"/>
<path d="M166.456 49.0086L128.02 48.2327V88.7686L166.456 49.0086Z" fill="#E0E0DE"/>
<path d="M83.8476 30.2837L79.6367 76.0314L128.021 48.2353L83.8476 30.2837Z" fill="#E0DFDD"/>
<path d="M47.3434 66.5676L79.6534 76.0299L20.5752 105.749L47.3434 66.5676Z" fill="#E1E1E0"/>
<path d="M83.8402 30.2837L70.4504 40.7072L47.3193 66.5692L79.6293 76.0314L83.8402 30.2837Z" fill="#E1E1E0"/>
<path d="M250.976 31.2427L255.37 76.0291L204.886 49.009L250.976 31.2427Z" fill="#E0DFDD"/>
<path d="M286.356 66.7639L312.551 105.748L255.377 76.0293L286.356 66.7639Z" fill="#E1E1E0"/>
<path d="M250.976 31.2427L264.744 42.2453L286.349 66.7638L255.37 76.0291L250.976 31.2427Z" fill="#DFDFDE"/>
<path d="M166.456 49.0103V91.6657L128.02 88.7703L166.456 49.0103Z" fill="#DAD9D7"/>
<path d="M206.803 89.5347L166.461 49.0103V91.6657L206.803 89.5347Z" fill="#DBDBD9"/>
<path d="M20.5752 105.748L43.7062 154.773L58.0484 117.723L20.5752 105.748Z" fill="#D1D0D1"/>
<path d="M82.6991 154.775L58.0306 117.725L43.6885 154.775H82.6991Z" fill="#D1CFD0"/>
<path d="M275.444 117.723L292.839 154.773L312.539 105.748L275.444 117.723Z" fill="#D1D0D1"/>
<path d="M251.032 154.891L275.46 117.725L292.854 154.775L251.032 154.891Z" fill="#D1CFD0"/>
<path d="M292.849 154.773L312.549 199.745L327.465 152.851L292.849 154.773Z" fill="#C8C6CC"/>
<path d="M277.496 187.897L292.836 154.774L312.537 199.745L277.496 187.897Z" fill="#CAC8C8"/>
<path d="M101.435 126.978L113.872 132.456L118.071 123.503L101.435 126.978Z" fill="#403B4E"/>
<path d="M106.357 133.696L101.435 126.979L113.872 132.457L106.357 133.696Z" fill="#393445"/>
<path d="M101.44 126.979L97.4245 147.826L93.8906 138.19L101.44 126.979Z" fill="#27242A"/>
<path d="M82.707 154.773L89.4995 144.708L91.7483 158.248L82.707 154.773Z" fill="#1A1421"/>
<path d="M97.4254 147.824L89.4971 144.708L91.7459 158.248L97.4254 147.824Z" fill="#0E0D12"/>
<path d="M93.8915 138.19L89.4971 144.71L97.4254 147.826L93.8915 138.19Z" fill="#21202C"/>
<path d="M106.365 133.695L112.205 137.841L113.881 132.455L106.365 133.695Z" fill="#443E52"/>
<path d="M120.374 142.358L113.869 132.455L112.193 137.841C112.205 137.841 115.245 137.412 120.374 142.358Z" fill="#383143"/>
<path d="M82.1141 171.278L74.2891 163.529L82.6878 154.774L82.1141 171.278Z" fill="#252632"/>
<path d="M109.195 141.351L109.735 145.509L113.154 147.536L115.644 143.749L109.195 141.351Z" fill="#6F6783"/>
<path d="M104.075 146.527V144.708L101.849 147.708L99.3018 153.082L104.075 146.527Z" fill="#6F6783"/>
<path d="M104.839 151.115L101.202 158.249L102.522 163.542L106.583 166.229L112.171 167.758H115.911L121.752 162.662L112.894 156.304L111.873 156.952L104.839 151.115Z" fill="#0D0C16"/>
<path d="M118.863 154.08L121.755 151.486C121.755 151.486 123.269 154.462 123.499 157.578L121.743 162.662C121.743 162.662 119.54 154.972 118.863 154.08Z" fill="#4A4460"/>
<path d="M98.924 152.087C98.924 152.087 98.3732 152.991 98.2126 153.268C98.052 153.546 97.6504 154.38 97.6504 154.38C97.6504 154.38 97.9143 158.422 98.247 159.314L101.196 158.249L99.2797 153.083L98.924 152.087Z" fill="#241F43"/>
<path d="M98.252 159.314L101.201 158.248L102.715 163.136L101.683 165.209C101.683 165.22 99.0207 163.842 98.252 159.314Z" fill="#777095"/>
<path d="M107.474 168.24C107.474 168.24 103.562 167.047 101.691 165.206L102.724 163.133L106.682 165.82L111.479 166.792L107.474 168.24Z" fill="#A1A0B9"/>
<path d="M115.36 170.084C115.36 170.084 111.218 169.841 107.455 168.242L111.459 166.795C111.459 166.795 116.187 166.911 116.726 166.633C117.265 166.355 121.728 162.648 121.728 162.648L115.36 170.084Z" fill="#B7B2D9"/>
<path d="M151.292 302.881L166.564 302.916V326.82L151.292 302.881Z" fill="#99999B"/>
<path d="M184.196 296.985L181.821 302.88L202.887 295.248L184.196 296.985Z" fill="#1D2724"/>
<path d="M177.512 264.6L175.883 248.108L166.566 260.743L177.512 264.6Z" fill="#736E84"/>
<path d="M189.567 257.118L175.891 248.108L177.52 264.6L189.567 257.118Z" fill="#615C71"/>
<path d="M187.892 248.582L175.891 248.108L189.567 257.118L187.892 248.582Z" fill="#504B59"/>
<path d="M200.708 251.279L189.567 257.116L187.892 248.581L200.708 251.279Z" fill="#3C3943"/>
<path d="M205.474 249.345L199.404 261.077L200.701 251.279L205.474 249.345Z" fill="#030505"/>
<path d="M189.551 257.116L199.395 261.077L200.692 251.279L189.551 257.116Z" fill="#201C27"/>
<path d="M186.762 269.324L189.538 257.117L199.383 261.078L186.762 269.324Z" fill="#110E16"/>
<path d="M205.463 249.345L199.394 261.077L186.772 269.324L180.508 278.01L189.79 270.586L200.449 264.355L205.463 249.345Z" fill="#5C5B62"/>
<path d="M207.367 258.031L205.451 249.345L200.437 264.355L189.778 270.586L178.752 279.133L191.396 272.416L202.112 266.428L207.367 258.031Z" fill="#2A292E"/>
<path d="M186.788 269.324L177.518 264.598L189.565 257.117L186.788 269.324Z" fill="#0C0E10"/>
<path d="M172.728 273.322L178.774 279.136L166.566 286.56L172.728 273.322Z" fill="#030405"/>
<path d="M178.774 279.133L172.108 290.843L166.566 286.557L178.774 279.133Z" fill="#4C4D52"/>
<path d="M184.2 296.98L172.106 290.842L196.35 284.53L184.2 296.98Z" fill="#5A5F64"/>
<path d="M178.773 279.133L196.35 284.531L172.106 290.843L178.773 279.133Z" fill="#696D73"/>
<path d="M166.566 296.277L172.108 290.845L184.202 296.984L166.566 296.277Z" fill="#3B3B41"/>
<path d="M181.826 302.877L166.566 296.276V302.912L181.826 302.877Z" fill="#181915"/>
<path d="M202.892 295.246L184.202 296.983L166.566 296.276L181.826 302.878L202.892 295.246Z" fill="#27292A"/>
<path d="M196.355 284.53L202.895 295.243L184.204 296.98L196.355 284.53Z" fill="#73767D"/>
<path d="M193.071 271.478L196.33 284.531L178.752 279.134L180.496 278.01L193.071 271.478Z" fill="#7D8187"/>
<path d="M207.393 258.035L209.974 277.538L202.138 266.431L207.393 258.035Z" fill="#ACADB7"/>
<path d="M193.087 271.476L202.128 266.427L209.965 277.533L193.087 271.476Z" fill="#AEB6C0"/>
<path d="M196.345 284.531L209.965 277.535L193.087 271.478L196.345 284.531Z" fill="#9EA2AC"/>
<path d="M207.397 258.035L209.979 277.538L230.528 282.356L207.397 258.035Z" fill="#A0A3A9"/>
<path d="M219.624 288.189L230.512 282.352L209.963 277.534L219.624 288.189Z" fill="#7C868A"/>
<path d="M196.35 284.532L209.969 277.537L219.63 288.192L196.35 284.532Z" fill="#A7A9B5"/>
<path d="M202.89 295.243L219.63 288.19L196.35 284.53L202.89 295.243Z" fill="#94969E"/>
<path d="M181.814 302.876L203.362 301.428L216.109 294.896L230.509 282.353L219.62 288.19L202.88 295.244L181.814 302.876Z" fill="#080A0B"/>
<path d="M186.761 269.324L189.778 270.586L178.752 279.133L186.761 269.324Z" fill="#2A242D"/>
<path d="M166.624 274.954L166.566 260.743L175.883 248.107C175.883 248.107 171.236 247.574 166.566 247.574V260.882" fill="#696379"/>
<path d="M166.566 286.558V296.275L172.108 290.843L166.566 286.558Z" fill="#333235"/>
<path d="M230.529 282.353L224.826 285.411V287.333L230.529 282.353Z" fill="#535B5C"/>
<path d="M219.628 288.191L216.496 294.573L224.815 287.334V285.412L219.628 288.191Z" fill="#212D2D"/>
<path d="M203.372 301.431L219.63 288.193L216.498 294.574L203.372 301.431Z" fill="#0F1917"/>
<path d="M186.836 269.292L178.77 279.136L172.724 273.322L186.836 269.292Z" fill="#171618"/>
<path d="M166.566 286.56V274.967L172.728 273.322L169.905 279.437L166.566 286.56Z" fill="#0B0C0F"/>
<path d="M184.202 296.982L181.826 302.877L166.566 296.276L184.202 296.982Z" fill="#26262D"/>
<path d="M172.724 273.321L177.508 264.6L186.779 269.325L172.724 273.321Z" fill="#030405"/>
<path d="M166.566 260.743L172.728 273.321L177.512 264.6L166.566 260.743Z" fill="#0C0E10"/>
<path d="M166.566 260.743V274.966L172.728 273.321L166.566 260.743Z" fill="#030405"/>
<path d="M155.618 264.599L157.236 248.107L166.564 260.742L155.618 264.599Z" fill="#736E84"/>
<path d="M143.608 257.117L157.274 248.107L155.656 264.599L143.608 257.117Z" fill="#615C71"/>
<path d="M145.284 248.581L157.274 248.107L143.608 257.117L145.284 248.581Z" fill="#504B59"/>
<path d="M132.448 251.279L143.589 257.116L145.264 248.581L132.448 251.279Z" fill="#3C3943"/>
<path d="M127.646 249.345L133.728 261.077L132.431 251.279L127.646 249.345Z" fill="#030505"/>
<path d="M143.589 257.116L133.745 261.077L132.448 251.279L143.589 257.116Z" fill="#201C27"/>
<path d="M146.368 269.324L143.592 257.117L133.747 261.078L146.368 269.324Z" fill="#110E16"/>
<path d="M127.646 249.345L133.728 261.077L146.349 269.324L152.602 278.01L143.331 270.586L132.672 264.355L127.646 249.345Z" fill="#5C5B62"/>
<path d="M125.746 258.031L127.651 249.345L132.676 264.355L143.335 270.586L154.362 279.133L141.706 272.416L131.001 266.428L125.746 258.031Z" fill="#2A292E"/>
<path d="M146.385 269.324L155.656 264.598L143.608 257.117L146.385 269.324Z" fill="#0C0E10"/>
<path d="M160.422 273.323L154.375 279.137L166.583 286.561L160.422 273.323Z" fill="#030405"/>
<path d="M154.375 279.133L161.041 290.843L166.583 286.557L154.375 279.133Z" fill="#4C4D52"/>
<path d="M148.949 296.98L161.054 290.842L136.81 284.53L148.949 296.98Z" fill="#5A5F64"/>
<path d="M154.387 279.133L136.81 284.531L161.054 290.843L154.387 279.133Z" fill="#696D73"/>
<path d="M166.578 296.273L161.036 290.841L148.932 296.98L166.578 296.273Z" fill="#3B3B41"/>
<path d="M151.32 302.88L166.592 296.279V302.915L151.32 302.88Z" fill="#181915"/>
<path d="M130.244 295.246L148.935 296.983L166.581 296.276L151.31 302.878L130.244 295.246Z" fill="#27292A"/>
<path d="M136.796 284.53L130.244 295.243L148.935 296.98L136.796 284.53Z" fill="#73767D"/>
<path d="M140.068 271.478L136.81 284.531L154.387 279.134L152.632 278.01L140.068 271.478Z" fill="#7D8187"/>
<path d="M125.762 258.035L123.181 277.538L131.017 266.431L125.762 258.035Z" fill="#ACADB7"/>
<path d="M140.058 271.476L131.017 266.427L123.181 277.533L140.058 271.476Z" fill="#AEB6C0"/>
<path d="M136.8 284.531L123.181 277.535L140.058 271.478L136.8 284.531Z" fill="#9EA2AC"/>
<path d="M125.76 258.034L123.178 277.537L102.617 282.355L125.76 258.034Z" fill="#A0A3A9"/>
<path d="M113.517 288.189L102.617 282.352L123.178 277.534L113.517 288.189Z" fill="#7C868A"/>
<path d="M136.824 284.532L123.205 277.537L113.544 288.192L136.824 284.532Z" fill="#A7A9B5"/>
<path d="M130.273 295.243L113.544 288.19L136.824 284.53L130.273 295.243Z" fill="#94969E"/>
<path d="M151.312 302.876L129.775 301.428L117.028 294.896L102.617 282.353L113.517 288.19L130.246 295.244L151.312 302.876Z" fill="#080A0B"/>
<path d="M146.377 269.324L143.359 270.586L154.386 279.133L146.377 269.324Z" fill="#2A242D"/>
<path d="M166.529 274.954L166.586 260.743L157.27 248.107C157.27 248.107 161.916 247.574 166.586 247.574V260.882" fill="#696379"/>
<path d="M166.579 286.558V296.275L161.037 290.843L166.579 286.558Z" fill="#333235"/>
<path d="M102.617 282.353L108.331 285.411V287.333L102.617 282.353Z" fill="#535B5C"/>
<path d="M113.519 288.191L116.64 294.573L108.333 287.334V285.412L113.519 288.191Z" fill="#212D2D"/>
<path d="M129.802 301.431L113.544 288.193L116.665 294.574L129.802 301.431Z" fill="#0F1917"/>
<path d="M146.31 269.292L154.376 279.136L160.422 273.322L146.31 269.292Z" fill="#171618"/>
<path d="M166.606 286.561V274.968L160.444 273.323L163.21 279.311L166.606 286.561Z" fill="#0B0C0F"/>
<path d="M148.932 296.985L151.307 302.88L166.578 296.279L148.932 296.985Z" fill="#26262D"/>
<path d="M160.437 273.321L155.653 264.6L146.382 269.325L160.437 273.321Z" fill="#030405"/>
<path d="M166.564 260.743L160.403 273.321L155.618 264.6L166.564 260.743Z" fill="#0C0E10"/>
<path d="M166.606 260.743V274.966L160.444 273.321L166.606 260.743Z" fill="#030405"/>
<path d="M111.708 150.387L111.846 156.954L116.343 154.105L111.708 150.387Z" fill="#9A93B0"/>
<path d="M107.451 150.839V153.294L111.846 156.954L111.708 150.387L107.451 150.839Z" fill="#B8B3CD"/>
<path d="M219.901 132.502L215.69 123.561L205.329 129.873L219.901 132.502Z" fill="#4D4B61"/>
<path d="M213.395 142.404L219.901 132.502L205.329 129.873L213.395 142.404Z" fill="#464355"/>
<path d="M208.737 150.198L205.329 129.873L213.395 142.404L208.737 150.198Z" fill="#373547"/>
<path d="M196.39 135.328C196.39 135.328 196.665 146.585 197.675 148.774C197.675 148.774 198.799 144.327 200.589 139.427C201.84 135.988 203.366 132.316 205.351 129.873L196.39 135.328Z" fill="#23222B"/>
<path d="M208.753 150.2L197.681 148.787C197.681 148.787 201.559 133.175 205.345 129.886L208.753 150.2Z" fill="#27252F"/>
<path d="M210.302 157.621L208.776 150.186L197.704 148.773C197.704 148.773 200.079 158.559 201.364 161.304L210.302 157.621Z" fill="#18171D"/>
<path d="M227.885 140.25L227.403 133.741L219.899 132.502L213.394 142.405C213.394 142.405 218.889 137.98 221.563 137.888C224.259 137.795 227.885 140.25 227.885 140.25Z" fill="#454156"/>
<path d="M232.337 127.036L236.353 147.883L227.885 140.25L227.415 133.741L232.337 127.036Z" fill="#302B3C"/>
<path d="M251.65 171.324L242.047 158.295L251.077 154.821L251.65 171.324Z" fill="#313241"/>
<path d="M268.463 172.969L251.631 171.324L251.058 154.821L268.463 172.969Z" fill="#1E1F29"/>
<path d="M277.542 187.827L261.674 182.858L251.635 171.323L268.467 172.967L277.542 187.827Z" fill="#121015"/>
<path d="M242.04 158.295L240.411 168.718L251.644 171.324L242.04 158.295Z" fill="#3D3C4F"/>
<path d="M244.278 179.917L251.644 171.323L240.411 168.717L244.278 179.917Z" fill="#30313D"/>
<path d="M248.452 189.518L261.693 182.858L251.653 171.323L248.452 189.518Z" fill="#181720"/>
<path d="M268.993 205.526L232.346 206.36L251.082 217.803L268.993 205.526Z" fill="#030505"/>
<path d="M261.696 182.86L268.994 205.526L277.564 187.829L261.696 182.86Z" fill="#070809"/>
<path d="M248.452 189.52L268.99 205.526L261.693 182.86L248.452 189.52Z" fill="#0C0C10"/>
<path d="M232.346 206.359L248.455 189.519L268.993 205.525L232.346 206.359Z" fill="#110F16"/>
<path d="M231.304 184.215L232.313 206.359L248.422 189.52L231.304 184.215Z" fill="#15121E"/>
<path d="M244.268 179.916L248.433 189.518L251.634 171.323L244.268 179.916Z" fill="#1F1E2C"/>
<path d="M231.304 184.214L244.258 179.917L248.422 189.518L231.304 184.214Z" fill="#1B1926"/>
<path d="M240.426 168.717L230.719 174.323L244.292 179.917L240.426 168.717Z" fill="#23242E"/>
<path d="M231.338 184.213L230.719 174.322L244.292 179.916L231.338 184.213Z" fill="#221C2F"/>
<path d="M218.894 196.341L231.343 184.215L232.341 206.359C232.341 206.359 226.719 203.452 218.894 196.341Z" fill="#13121A"/>
<path d="M211.149 185.466L231.355 184.215L218.906 196.341C218.917 196.341 216.083 194.766 211.149 185.466Z" fill="#0E0D17"/>
<path d="M212.022 162.706L201.328 161.304L205.746 175.284L212.022 162.706Z" fill="#403C53"/>
<path d="M210.278 157.623L212.022 162.707L201.328 161.306L210.278 157.623Z" fill="#2F2E39"/>
<path d="M218.425 170.145L212.046 162.709L205.77 175.287L218.425 170.145Z" fill="#4C495F"/>
<path d="M211.139 185.467L218.425 170.144L205.77 175.286C205.77 175.286 207.33 180.255 211.139 185.467Z" fill="#261F33"/>
<path d="M230.704 174.325L218.404 170.144L231.324 184.216L230.704 174.325Z" fill="#191526"/>
<path d="M211.149 185.466L231.355 184.215L218.435 170.143L211.149 185.466Z" fill="#11101F"/>
<path d="M228.938 151.161L222.053 150.431L217.418 154.149L221.904 156.998L228.938 151.161Z" fill="#D6CEE7"/>
<path d="M229.721 146.572L228.953 151.159L222.069 150.429L220.657 147.592L223.79 145.507L229.721 146.572Z" fill="#0B0B12"/>
<path d="M210.286 157.623L208.76 150.187L213.418 142.404C213.418 142.404 218.34 137.98 221.587 137.887C224.834 137.795 227.898 140.25 227.898 140.25L236.354 147.871V150.917L236.193 153.499L236.125 154.414C236.125 154.414 232.338 146.713 227.221 143.331C222.104 139.949 215.162 145.879 213.212 149.55C211.009 153.731 210.286 157.623 210.286 157.623Z" fill="#050607"/>
<path d="M228.931 151.161L232.568 158.307L234.576 153.339C234.576 153.339 231.501 146.725 229.791 145.521L228.931 151.161Z" fill="#1D1A39"/>
<path d="M212.031 162.71C212.031 162.71 215.14 150.433 220.648 147.595L224.055 145.569L229.712 146.576L234.588 153.328L234.852 152.135L232.431 148.232L229.804 144.746L224.583 141.399L218.146 143.797C218.146 143.797 211.274 148.777 210.275 157.625L212.031 162.71Z" fill="#5D5A71"/>
<path d="M236.349 147.884L242.04 158.307L240.411 168.731L230.704 174.325L218.404 170.144C218.404 170.144 224.451 169.542 229.465 166.947C234.582 164.295 235.328 161.376 235.821 157.439C236.407 152.818 236.349 147.884 236.349 147.884Z" fill="#0B0B0E"/>
<path d="M220.644 147.59L222.056 150.439L217.42 154.157L220.897 156.358L212.039 162.716C212.039 162.716 213.886 155.501 215.768 152.524C218.407 148.332 220.644 147.59 220.644 147.59Z" fill="#1B1731"/>
<path d="M232.34 127.036L219.914 132.502L215.703 123.561L232.34 127.036Z" fill="#403B4E"/>
<path d="M227.399 133.741L232.322 127.036L219.896 132.502L227.399 133.741Z" fill="#393445"/>
<path d="M232.346 127.036L236.362 147.883L239.895 138.235L232.346 127.036Z" fill="#27242A"/>
<path d="M251.077 154.819L244.284 144.754L242.047 158.293L251.077 154.819Z" fill="#1A1421"/>
<path d="M236.362 147.881L244.291 144.754L242.053 158.293L236.362 147.881Z" fill="#0E0D12"/>
<path d="M239.896 138.235L244.291 144.756L236.362 147.883L239.896 138.235Z" fill="#21202C"/>
<path d="M213.41 142.405L219.916 132.502L221.591 137.888C221.579 137.888 218.539 137.471 213.41 142.405Z" fill="#383143"/>
<path d="M251.631 171.324L259.456 163.576L251.058 154.821L251.631 171.324Z" fill="#252632"/>
<path d="M224.596 141.399L224.056 145.569L220.637 147.595L218.147 143.797L224.596 141.399Z" fill="#6F6783"/>
<path d="M229.708 146.572V144.754L231.934 147.754L234.481 153.128L229.708 146.572Z" fill="#6F6783"/>
<path d="M228.944 151.161L232.581 158.295L231.261 163.6L227.2 166.275L221.612 167.815H217.871L212.031 162.708L220.889 156.349L221.91 156.998L228.944 151.161Z" fill="#0D0C16"/>
<path d="M214.911 154.123L212.019 151.529C212.019 151.529 210.505 154.505 210.275 157.621L212.031 162.705C212.019 162.705 214.222 155.015 214.911 154.123Z" fill="#4A4460"/>
<path d="M234.842 152.134C234.842 152.134 235.393 153.037 235.553 153.315C235.714 153.593 236.116 154.427 236.116 154.427C236.116 154.427 235.852 158.469 235.519 159.361L232.57 158.296L234.486 153.13L234.842 152.134Z" fill="#241F43"/>
<path d="M235.535 159.36L232.586 158.295L231.071 163.182L232.104 165.256C232.104 165.267 234.766 163.889 235.535 159.36Z" fill="#777095"/>
<path d="M226.321 168.3C226.321 168.3 230.233 167.107 232.103 165.266L231.071 163.192L227.112 165.879L222.316 166.852L226.321 168.3Z" fill="#A1A0B9"/>
<path d="M218.407 170.145C218.407 170.145 222.549 169.902 226.312 168.303L222.308 166.856C222.308 166.856 217.581 166.972 217.042 166.694C216.502 166.416 212.039 162.709 212.039 162.709L218.407 170.145Z" fill="#B7B2D9"/>
<path d="M222.11 150.431L221.972 156.998L217.475 154.149L222.11 150.431Z" fill="#9A93B0"/>
<path d="M226.366 150.883V153.338L221.972 156.998L222.109 150.431L226.366 150.883Z" fill="#B8B3CD"/>
</g>
<defs>
<clipPath id="clip0_4047_40548">
<rect width="333.486" height="88.7257" fill="white" transform="translate(0 342.664)"/>
</clipPath>
<clipPath id="clip1_4047_40548">
<rect width="332.438" height="326.639" fill="white" transform="translate(1.06543)"/>
</clipPath>
</defs>
</svg>
