<svg width="116" height="116" viewBox="0 0 116 116" fill="none" xmlns="http://www.w3.org/2000/svg">
<path d="M58 0C25.9407 0 0 25.943 0 58C0 90.0593 25.943 116 58 116C90.0593 116 116 90.057 116 58C116 25.9407 90.057 0 58 0ZM58 106.938C30.95 106.938 9.0625 85.0482 9.0625 58C9.0625 30.95 30.9518 9.0625 58 9.0625C85.05 9.0625 106.938 30.9518 106.938 58C106.938 85.05 85.0482 106.938 58 106.938Z" fill="url(#paint0_linear_2378_58004)"/>
<path d="M58 29.1992C55.4974 29.1992 53.4688 31.2279 53.4688 33.7305V62.9101C53.4688 65.4127 55.4974 67.4413 58 67.4413C60.5026 67.4413 62.5312 65.4127 62.5312 62.9101V33.7305C62.5312 31.2279 60.5026 29.1992 58 29.1992Z" fill="url(#paint1_linear_2378_58004)"/>
<path d="M58 85.2227C61.3784 85.2227 64.1172 82.4839 64.1172 79.1055C64.1172 75.727 61.3784 72.9883 58 72.9883C54.6216 72.9883 51.8828 75.727 51.8828 79.1055C51.8828 82.4839 54.6216 85.2227 58 85.2227Z" fill="url(#paint2_linear_2378_58004)"/>
<defs>
<linearGradient id="paint0_linear_2378_58004" x1="0" y1="62.35" x2="116" y2="62.35" gradientUnits="userSpaceOnUse">
<stop stop-color="#7B4397"/>
<stop offset="1" stop-color="#DD2430"/>
</linearGradient>
<linearGradient id="paint1_linear_2378_58004" x1="53.4688" y1="49.7544" x2="62.5313" y2="49.7544" gradientUnits="userSpaceOnUse">
<stop stop-color="#7B4397"/>
<stop offset="1" stop-color="#DD2430"/>
</linearGradient>
<linearGradient id="paint2_linear_2378_58004" x1="51.8828" y1="79.5643" x2="64.1172" y2="79.5643" gradientUnits="userSpaceOnUse">
<stop stop-color="#7B4397"/>
<stop offset="1" stop-color="#DD2430"/>
</linearGradient>
</defs>
</svg>
