<svg width="42" height="24" viewBox="0 0 42 24" fill="none" xmlns="http://www.w3.org/2000/svg">
<path fill-rule="evenodd" clip-rule="evenodd" d="M20.5521 23.3016H22.9521C22.9521 23.3016 23.6521 23.2016 24.0521 22.8016C24.4021 22.4516 24.4021 21.7516 24.4021 21.7516C24.4021 21.7516 24.3521 18.5516 25.8521 18.0516C27.3021 17.6016 29.2021 21.1516 31.2021 22.5016C32.7021 23.5516 33.8521 23.3016 33.8521 23.3016L39.2021 23.2516C39.2021 23.2516 42.0021 23.1016 40.6521 20.9016C40.5521 20.7016 39.9021 19.2516 36.7021 16.3016C33.3521 13.2016 33.8021 13.7016 37.8521 8.30156C40.3021 5.05156 41.3021 3.05156 41.0021 2.15156C40.7021 1.35156 38.9021 1.55156 38.9021 1.55156L32.9021 1.60156C32.9021 1.60156 32.4521 1.55156 32.1021 1.75156C31.7021 2.00156 31.5021 2.45156 31.5021 2.45156C31.5021 2.45156 30.5521 5.00156 29.3021 7.15156C26.6021 11.7016 25.5521 11.9516 25.1021 11.6516C24.1021 11.0016 24.3521 9.00156 24.3521 7.60156C24.3521 3.20156 25.0021 1.35156 23.0521 0.901562C22.4021 0.751562 21.9021 0.651563 20.2521 0.601562C18.1021 0.601562 16.3021 0.601562 15.2521 1.10156C14.5521 1.45156 14.0521 2.20156 14.3521 2.20156C14.7521 2.25156 15.6521 2.45156 16.1021 3.10156C16.7021 3.95156 16.7021 5.80156 16.7021 5.80156C16.7021 5.80156 17.0521 11.0016 15.8521 11.6516C15.0521 12.1016 13.9521 11.2016 11.5521 7.05156C10.3521 4.95156 9.40208 2.60156 9.40208 2.60156C9.40208 2.60156 9.20208 2.15156 8.90208 1.95156C8.65208 1.75156 8.15208 1.60156 7.60208 1.60156L2.25208 1.65156C2.25208 1.65156 1.40208 1.65156 1.10208 2.05156C0.802083 2.40156 1.10208 3.05156 1.10208 3.05156C1.10208 3.05156 5.60208 13.5016 10.6521 18.7516C15.3021 23.6516 20.5521 23.3016 20.5521 23.3016Z" fill="url(#paint0_linear_2540_63931)"/>
<defs>
<linearGradient id="paint0_linear_2540_63931" x1="4.30917" y1="0.601562" x2="38.3814" y2="0.601562" gradientUnits="userSpaceOnUse">
<stop stop-color="#DC2430"/>
<stop offset="1" stop-color="#7B4397"/>
</linearGradient>
</defs>
</svg>
