<svg width="24" height="24" viewBox="0 0 24 24" fill="none" xmlns="http://www.w3.org/2000/svg">
<path d="M12.001 0.673828H11.9953C5.7503 0.673828 0.671875 5.75367 0.671875 12.0001C0.671875 14.4777 1.47038 16.7742 2.82812 18.6387L1.41658 22.8465L5.77012 21.4547C7.56109 22.6412 9.69752 23.3264 12.001 23.3264C18.246 23.3264 23.3245 18.2452 23.3245 12.0001C23.3245 5.75509 18.246 0.673828 12.001 0.673828ZM18.5915 16.668C18.3182 17.4396 17.2337 18.0795 16.3687 18.2664C15.7769 18.3924 15.0039 18.4929 12.4017 17.4141C9.07315 16.0351 6.92965 12.6528 6.76259 12.4334C6.60261 12.2139 5.41759 10.6424 5.41759 9.01706C5.41759 7.39174 6.243 6.60031 6.57571 6.26052C6.84895 5.98161 7.30059 5.85419 7.73382 5.85419C7.87398 5.85419 7.99999 5.86127 8.11325 5.86693C8.44596 5.88109 8.61302 5.90091 8.83247 6.42617C9.10572 7.08451 9.77114 8.70983 9.85042 8.8769C9.93112 9.04396 10.0118 9.27049 9.89856 9.48993C9.79237 9.71646 9.69893 9.81698 9.53187 10.0095C9.36481 10.2021 9.20624 10.3493 9.03917 10.556C8.88627 10.7358 8.71354 10.9284 8.90609 11.2611C9.09864 11.5867 9.76406 12.6726 10.7438 13.5447C12.0081 14.6703 13.0331 15.0299 13.3998 15.1828C13.673 15.2961 13.9987 15.2692 14.1983 15.0568C14.4517 14.7836 14.7646 14.3305 15.0832 13.8845C15.3097 13.5646 15.5957 13.5249 15.8958 13.6382C16.2016 13.7444 17.8199 14.5443 18.1526 14.7099C18.4853 14.877 18.7048 14.9563 18.7854 15.0964C18.8647 15.2366 18.8647 15.895 18.5915 16.668Z" fill="url(#paint0_linear_2540_63936)"/>
<defs>
<linearGradient id="paint0_linear_2540_63936" x1="2.55959" y1="0.673828" x2="21.8143" y2="0.673828" gradientUnits="userSpaceOnUse">
<stop stop-color="#DC2430"/>
<stop offset="1" stop-color="#7B4397"/>
</linearGradient>
</defs>
</svg>
