<svg width="81" height="77" viewBox="0 0 81 77" fill="none" xmlns="http://www.w3.org/2000/svg">
<path d="M47.3575 22.8237C45.6839 22.4178 44.2447 23.3594 43.0999 24.4714C42.7357 24.825 42.3996 25.1989 42.0792 25.5837C40.2981 26.9272 39.1821 29.083 39.1797 31.4671C39.1785 32.9027 40.2864 34.1565 41.7025 34.3248C43.2422 34.5081 44.3392 33.6241 44.8952 32.2404C45.218 31.4371 45.7022 30.6216 46.2164 29.9261C46.4005 29.6771 46.6065 29.4484 46.8178 29.2221C47.0558 29.2489 47.2991 29.2566 47.551 29.2189C49.0753 28.9897 49.918 27.8429 50.0745 26.3603C50.2534 24.6648 48.9435 23.2086 47.3575 22.8237Z" fill="#E0DFE6"/>
<path d="M9.15611 23.1921C8.4724 24.5137 8.10215 25.9582 7.50198 27.3159C6.92329 28.6249 6.27526 29.9047 5.76308 31.2422C5.32268 32.3918 6.90748 33.6343 7.91359 32.8955C10.3617 31.097 12.7199 27.9858 13.4372 24.9967C14.035 22.5059 10.4201 20.7492 9.15611 23.1921Z" fill="#E0DFE6"/>
<path d="M76.4242 12.8425C73.1155 20.0296 69.6909 27.1851 65.1526 33.6942C60.6785 40.1116 55.1354 47.3794 48.0683 51.0064C46.6096 51.755 46.5151 53.322 47.1822 54.47C47.1652 54.6026 47.1538 54.7393 47.1388 54.8735C46.9032 54.9988 46.6919 55.1748 46.533 55.3926C46.5447 55.2847 46.5569 55.1765 46.5719 55.0686C46.842 53.1484 45.3642 51.8378 43.6063 52.3402C43.3958 52.281 43.1768 52.2563 42.957 52.2628C47.6749 48.9131 52.0084 45.0067 55.8171 40.8748C59.9859 36.3524 63.6571 31.3969 66.7983 26.1092C69.9942 20.7295 73.416 14.6223 74.9481 8.51712C75.3305 6.99316 73.3816 6.31228 72.5259 7.49601C69.1718 12.1352 66.6498 17.3933 63.4081 22.1318C59.9794 27.1441 56.2927 31.9962 52.1474 36.4424C44.3212 44.836 35.2452 50.8682 24.6467 55.1635C21.9715 56.2479 22.1941 59.8522 24.2177 60.7565C23.8191 61.203 23.5904 61.7358 23.725 62.3766C23.3495 62.4382 22.9573 62.4743 22.5437 62.4784C22.2805 62.4808 22.0254 62.4577 21.7687 62.4398C21.1811 61.7829 20.1629 61.598 19.3433 61.8084C19.2606 61.8295 19.1778 61.851 19.0951 61.8721C17.3964 61.246 15.8781 60.1754 14.5544 58.8363C13.4729 57.7418 11.7827 59.1283 12.4733 60.4422C13.655 62.6904 15.4543 64.5311 17.621 65.7522C17.6279 65.7631 17.6332 65.7749 17.6405 65.7854C17.0399 66.3491 16.4069 66.8799 15.7378 67.3588C14.3987 68.3175 12.9133 69.1079 11.4631 69.8832C10.7709 70.2535 11.0767 71.4125 11.8678 71.3772C14.1907 71.2734 19.6138 69.7328 21.8677 67.2352C25.8122 67.8524 31.4928 66.7712 33.4681 62.9338C33.7922 62.304 33.7986 61.5635 33.5784 60.9078C34.0813 59.9673 33.9292 58.7325 33.0646 58.0975C35.407 56.9904 37.6872 55.7231 39.8937 54.3232C38.2152 55.6286 36.3989 56.6453 34.6012 57.8716C33.836 58.3935 34.0594 59.6385 35.0201 59.7139C35.0128 59.7313 35.0047 59.7471 34.9974 59.7646C34.3591 61.3676 36.2626 63.1033 37.8077 62.5749C39.8345 61.8822 41.7769 60.9775 43.539 59.7565C44.5321 59.8258 45.6826 59.2106 46.0658 58.2455C46.1067 58.1429 46.1396 58.0391 46.172 57.9353C46.1789 60.4625 46.6745 62.8076 47.2564 65.3523C47.3882 65.9286 47.7345 66.3742 48.1851 66.6812C46.6327 67.5308 45.1169 68.4647 43.5986 69.3334C41.0008 70.8192 38.4375 72.2369 36.1734 74.2147C35.5456 74.7633 36.0359 75.941 36.8673 75.8895C42.3901 75.5497 49.3465 72.9194 53.7724 69.5613C54.0007 69.3881 54.1848 69.1784 54.3373 68.9505C55.845 68.1225 57.337 67.2729 58.8216 66.4659C59.7141 65.9809 59.0945 64.6366 58.1464 64.8641C56.9464 65.1516 55.7161 65.4768 54.4861 65.8442C54.0741 65.0786 53.3048 64.5907 52.25 64.8267C52.6917 61.6239 52.9269 58.0257 52.523 54.7786C55.4221 53.2437 57.8212 50.5936 59.9664 48.2335C62.8955 45.0112 65.6068 41.5103 67.9569 37.8431C72.7157 30.4175 76.4753 22.1995 77.8626 13.4487C77.9887 12.6506 76.8302 11.9604 76.4242 12.8425Z" fill="#E0DFE6"/>
<path d="M34.9537 41.0522C33.1057 39.9492 31.2646 38.8319 29.4057 37.7471C26.5833 36.1003 23.2725 40.1053 25.833 42.3774C26.8099 43.244 27.7435 44.1646 28.559 45.1873C28.5805 45.2141 28.5991 45.2429 28.6206 45.27C28.3874 45.1504 28.1559 45.0267 27.9227 44.9014C27.1733 44.4979 26.5054 45.2871 26.8258 45.9984C27.8959 48.3727 33.2367 52.6474 35.019 48.6919C35.3957 47.8557 35.358 46.9692 35.1224 46.103C36.5993 44.9128 37.0766 42.3194 34.9537 41.0522Z" fill="#E0DFE6"/>
<path d="M15.8902 39.1612C15.7187 39.1612 15.5451 39.1162 15.3865 39.0221C14.9194 38.744 14.7669 38.1393 15.0455 37.6722C24.8397 21.25 38.2184 9.97193 52.7168 5.91465C53.2415 5.76785 53.7841 6.07443 53.9301 6.59756C54.0769 7.12109 53.7711 7.6649 53.2472 7.81089C39.2379 11.7315 26.2712 22.6949 16.7365 38.6811C16.5524 38.9905 16.2256 39.1612 15.8902 39.1612Z" fill="url(#paint0_linear_2379_204638)"/>
<path d="M57.2885 6.47847C56.8229 6.47847 56.4089 6.14716 56.3213 5.6735C56.2224 5.13902 56.5756 4.62481 57.1101 4.52587C63.7136 3.3024 69.0649 2.88106 73.9523 3.20223C74.4949 3.23832 74.9061 3.7067 74.8704 4.2497C74.8347 4.79189 74.3611 5.20228 73.8238 5.16781C69.1051 4.85759 63.9075 5.26919 57.4689 6.46184C57.4085 6.4736 57.3477 6.47847 57.2885 6.47847Z" fill="url(#paint1_linear_2379_204638)"/>
<path d="M27.1606 59.5411C26.1983 59.5411 25.2105 59.3967 24.208 59.108C21.2164 58.2467 18.4402 56.2016 16.5898 53.4979C14.5589 50.5295 13.9328 47.1847 14.8274 44.0788C14.9442 43.6737 15.0877 43.2694 15.2544 42.8768C15.4665 42.3768 16.0456 42.1441 16.5456 42.3557C17.0464 42.5686 17.2796 43.1469 17.0667 43.6473C16.9312 43.9665 16.8145 44.2946 16.7196 44.6242C15.9904 47.1543 16.5213 49.9115 18.2147 52.3856C19.7874 54.6841 22.2315 56.4895 24.7526 57.2158C26.0531 57.5901 27.3086 57.6704 28.4839 57.453C48.9917 53.6537 67.9905 34.7667 74.6858 11.5232C75.1035 10.0727 75.4786 8.59129 75.801 7.12085C75.9173 6.58961 76.4421 6.24978 76.9737 6.37022C77.505 6.4862 77.8412 7.01136 77.7248 7.5426C77.3935 9.05399 77.0074 10.5763 76.5779 12.0683C69.6844 35.9999 50.055 55.4595 28.8427 59.389C28.292 59.4908 27.7308 59.5411 27.1606 59.5411Z" fill="url(#paint2_linear_2379_204638)"/>
<path d="M30.406 57.4905C30.3549 57.4905 30.3034 57.4868 30.2519 57.4783C29.672 57.387 29.0896 57.2585 28.5215 57.0951C22.0619 55.2341 18.2256 49.1354 16.1444 44.3466C15.9275 43.8478 16.1562 43.2679 16.655 43.0509C17.1534 42.8356 17.7337 43.0631 17.9503 43.5619C19.8631 47.9626 23.3437 53.554 29.0657 55.2029C29.5556 55.3432 30.058 55.4547 30.558 55.5338C31.0954 55.6177 31.4624 56.1222 31.378 56.6595C31.3005 57.1445 30.882 57.4905 30.406 57.4905Z" fill="url(#paint3_linear_2379_204638)"/>
<path d="M45.1189 39.265C44.3087 39.265 43.5073 39.1523 42.7397 38.924C37.9614 37.503 35.3023 32.5941 36.6856 27.7485C37.8052 23.8295 41.1926 21.1486 45.1148 21.0768C45.8817 21.0679 46.6627 21.1555 47.4482 21.3525C51.7334 22.4243 55.5486 26.8409 54.2396 32.1071C53.6138 34.6226 52.0299 36.7159 49.7788 38.0018C48.3193 38.8356 46.7025 39.265 45.1189 39.265ZM45.2649 23.0448C45.2268 23.0448 45.1891 23.0456 45.1509 23.046C42.1002 23.1012 39.4598 25.2087 38.5794 28.2895C37.6426 31.5702 38.9788 35.7507 43.3013 37.0366C45.0285 37.5496 47.0853 37.2727 48.8019 36.2917C50.5813 35.275 51.834 33.6201 52.3283 31.631C53.4504 27.1175 49.7942 23.969 46.9697 23.2626C46.3922 23.1178 45.8192 23.0448 45.2649 23.0448Z" fill="url(#paint4_linear_2379_204638)"/>
<path d="M35.7013 49.3167C35.6166 49.3167 35.5318 49.3057 35.4475 49.2834C30.2872 47.7976 27.0312 43.4212 25.2027 40.0099C24.9496 39.5366 25.1212 38.9478 25.5892 38.6854C26.6504 38.0905 27.6103 37.275 28.4574 36.5552C28.6663 36.3776 28.94 36.2961 29.2113 36.3281C29.4834 36.3602 29.7296 36.5045 29.8906 36.7263C32.0699 39.7179 35.5116 42.0716 39.3336 43.1839C39.6589 43.2788 39.9123 43.5331 40.0056 43.8587C40.0984 44.1835 40.0182 44.5343 39.7923 44.7862C39.0822 45.5786 38.4232 46.4387 37.7853 47.27C37.3498 47.8377 36.9155 48.4039 36.4625 48.9558C36.2727 49.1881 35.9917 49.3167 35.7013 49.3167ZM27.3905 39.8874C29.0122 42.6661 31.6003 45.8677 35.357 47.1893C35.649 46.8207 35.9357 46.4472 36.2224 46.0729C36.5935 45.5891 36.9718 45.096 37.3668 44.6057C34.0553 43.3725 31.0792 41.2938 28.9457 38.7175C28.4635 39.1137 27.9481 39.5155 27.3905 39.8874Z" fill="url(#paint5_linear_2379_204638)"/>
<path d="M71.2162 24.2591C71.0755 24.2591 70.9327 24.2291 70.7973 24.1654C63.8064 20.8718 58.5845 14.8635 56.4701 7.68083C56.3164 7.15892 56.6148 6.61146 57.1368 6.45777C57.6579 6.3057 58.2057 6.60254 58.359 7.12445C60.3144 13.7678 65.154 19.33 71.6363 22.3832C72.1282 22.6151 72.3391 23.2019 72.1075 23.6942C71.9396 24.0503 71.5856 24.2591 71.2162 24.2591Z" fill="url(#paint6_linear_2379_204638)"/>
<path d="M69.8431 18.8955C69.646 18.8955 69.4473 18.8367 69.2741 18.7142C68.8309 18.3995 68.7262 17.7847 69.0413 17.3411C70.3398 15.5109 71.0438 13.4359 71.6111 11.4666C71.7888 10.8506 71.9558 10.2302 72.1233 9.60771C72.294 8.97306 72.4656 8.33638 72.6481 7.70376C72.7985 7.18145 73.3419 6.87892 73.8671 7.03019C74.3894 7.18064 74.6911 7.72647 74.5407 8.24879C74.3614 8.87046 74.1931 9.49619 74.0248 10.1199C73.8541 10.7533 73.6842 11.3847 73.5037 12.0117C72.9177 14.0458 72.1205 16.4051 70.6472 18.481C70.455 18.7511 70.1513 18.8955 69.8431 18.8955Z" fill="url(#paint7_linear_2379_204638)"/>
<path d="M56.7425 39.1044C56.4984 39.1044 56.2539 39.014 56.0633 38.8327C55.6695 38.4576 55.6545 37.8339 56.0296 37.4405C58.2559 35.1051 60.0776 32.2571 61.8396 29.5036C62.4491 28.551 63.059 27.598 63.6863 26.6613C63.9884 26.2099 64.6004 26.0883 65.0521 26.3916C65.5039 26.6941 65.6247 27.3057 65.3222 27.7574C64.7026 28.6824 64.1008 29.6232 63.4986 30.5653C61.6863 33.397 59.8123 36.3266 57.4554 38.7999C57.262 39.0018 57.0025 39.1044 56.7425 39.1044Z" fill="url(#paint8_linear_2379_204638)"/>
<path d="M17.2126 36.9998C17.082 36.9998 16.9486 36.9734 16.8209 36.9183C15.6599 36.4138 14.4672 35.9843 13.2762 35.6409C9.05751 34.4255 4.8952 34.2974 1.23776 35.2698C0.712203 35.4142 0.172855 35.0966 0.033354 34.5719C-0.106552 34.0463 0.206513 33.507 0.732074 33.3675C4.73339 32.303 9.26027 32.436 13.8216 33.7491C15.0942 34.1157 16.3671 34.5747 17.6056 35.1125C18.1044 35.329 18.3331 35.9093 18.1165 36.4081C17.9551 36.7788 17.593 36.9998 17.2126 36.9998Z" fill="url(#paint9_linear_2379_204638)"/>
<path d="M21.8633 25.3383C19.3341 25.3383 16.8453 24.9981 14.5018 24.3229C13.1328 23.9287 11.7937 23.4157 10.5232 22.7977C10.0341 22.5601 9.83016 21.9708 10.0682 21.4818C10.3058 20.9927 10.8951 20.7871 11.3841 21.0272C12.5533 21.5953 13.7857 22.0678 15.0464 22.4303C18.5554 23.4413 22.4254 23.6392 26.2385 23.0061C26.7767 22.9214 27.2819 23.2791 27.3712 23.8156C27.4608 24.3521 27.0982 24.859 26.5617 24.9482C24.9972 25.209 23.4226 25.3383 21.8633 25.3383Z" fill="url(#paint10_linear_2379_204638)"/>
<path d="M2.46835 34.8946C2.25585 34.8946 2.04214 34.8261 1.86168 34.685C1.43385 34.3496 1.35843 33.7304 1.6942 33.303C6.51955 27.1442 11.808 19.6988 14.4459 11.1726C14.6065 10.6527 15.1589 10.3612 15.6775 10.5234C16.197 10.6836 16.4878 11.2355 16.3272 11.755C13.5943 20.5865 8.18017 28.2169 3.24412 34.5171C3.04987 34.7649 2.76073 34.8946 2.46835 34.8946Z" fill="url(#paint11_linear_2379_204638)"/>
<path d="M36.4543 73.7666C36.4166 73.7666 36.3785 73.7646 36.3399 73.7601C35.7994 73.6973 35.4125 73.209 35.475 72.6684C36.1964 66.4416 35.4701 61.6597 33.2551 58.0493C32.9704 57.5857 33.1156 56.9795 33.5791 56.6956C34.0439 56.4109 34.6497 56.5557 34.9332 57.02C37.3878 61.0205 38.205 66.2137 37.4312 72.8955C37.3728 73.3968 36.9474 73.7666 36.4543 73.7666Z" fill="url(#paint12_linear_2379_204638)"/>
<path d="M47.3005 68.186C46.8349 68.186 46.4209 67.8546 46.3333 67.381C45.3365 61.9997 45.5401 56.6204 46.9221 51.823C47.0864 51.2537 47.2689 50.6851 47.4651 50.132C47.6464 49.619 48.2085 49.3505 48.7223 49.5326C49.2348 49.7147 49.5025 50.2776 49.3208 50.7897C49.1379 51.3064 48.9672 51.8372 48.8143 52.368C47.5166 56.873 47.3281 61.9405 48.2697 67.0225C48.3686 67.557 48.0154 68.0712 47.4809 68.1701C47.4201 68.1811 47.3601 68.186 47.3005 68.186Z" fill="url(#paint13_linear_2379_204638)"/>
<path d="M35.3681 75.0547C35.085 75.0547 34.804 74.9334 34.6094 74.6982C34.2622 74.2797 34.3206 73.6592 34.7391 73.3117C40.8966 68.2098 49.1174 64.7142 59.8712 62.6273C60.404 62.5247 60.9215 62.8723 61.0253 63.4063C61.1287 63.9404 60.7799 64.4571 60.2463 64.5609C49.8251 66.5832 41.8926 69.9422 35.9955 74.8288C35.8117 74.98 35.5891 75.0547 35.3681 75.0547Z" fill="url(#paint14_linear_2379_204638)"/>
<path d="M54.4304 52.6533C54.1623 52.6533 53.8955 52.5442 53.7008 52.3301C53.3355 51.9274 53.3655 51.3049 53.7682 50.9395C58.9564 46.2302 63.856 41.5062 66.781 35.5069C67.0191 35.0178 67.6095 34.8167 68.0974 35.0531C68.586 35.2915 68.7892 35.8812 68.5508 36.3698C65.4724 42.683 60.4277 47.5538 55.0918 52.3974C54.9032 52.5685 54.6664 52.6533 54.4304 52.6533Z" fill="url(#paint15_linear_2379_204638)"/>
<path d="M72.3587 28.6795C72.1742 28.6795 71.9872 28.6276 71.8209 28.5194C71.3659 28.2221 71.2378 27.6118 71.5359 27.1564C72.488 25.6993 73.0485 24.1243 73.6418 22.4572C73.7922 22.0342 73.9431 21.6104 74.1004 21.1891C74.2906 20.6793 74.8575 20.4218 75.3673 20.6108C75.877 20.8014 76.1353 21.3679 75.9455 21.8777C75.7918 22.2897 75.6446 22.7033 75.497 23.1173C74.8912 24.8197 74.2646 26.5801 73.1839 28.2335C72.9949 28.5226 72.6798 28.6795 72.3587 28.6795Z" fill="url(#paint16_linear_2379_204638)"/>
<path d="M76.8612 8.31788C76.4188 8.31788 75.9707 8.24489 75.5286 8.09728C73.5513 7.43708 72.4669 5.25414 73.0606 3.12757C73.5055 1.53345 74.7813 0.354584 76.3896 0.0508456C76.7387 -0.0176882 77.1057 -0.0164716 77.4804 0.0516566C78.5628 0.248336 79.6115 0.957195 80.2859 1.94911C80.8913 2.83883 81.1216 3.84575 80.9351 4.78414C80.6804 6.06763 79.9213 7.1593 78.8527 7.77975C78.2371 8.13702 77.5571 8.31788 76.8612 8.31788ZM76.9257 1.96939C76.8685 1.96939 76.8133 1.97466 76.7614 1.9848C75.8892 2.14944 75.1998 2.78976 74.9581 3.65718C74.615 4.88552 75.3117 5.94881 76.1527 6.22943C76.9123 6.48329 77.5035 6.28661 77.8645 6.07614C78.444 5.73955 78.8592 5.12883 79.004 4.40051C79.0867 3.98322 78.9638 3.50552 78.6577 3.05579C78.2793 2.50062 77.6937 2.09104 77.1284 1.98845C77.0583 1.97547 76.9902 1.96939 76.9257 1.96939Z" fill="url(#paint17_linear_2379_204638)"/>
<path d="M21.6834 63.5619C21.3233 63.5619 20.9401 63.5076 20.5269 63.3883C17.6444 62.5582 14.7303 60.5383 12.5303 57.8468C10.3989 55.2385 9.42523 52.6431 9.92605 50.9046C10.3223 49.5303 11.5149 48.6661 12.6682 47.8303C13.2096 47.4382 13.7206 47.0676 14.1131 46.6709C14.4955 46.2845 15.1192 46.2812 15.5053 46.6632C15.8917 47.0453 15.8954 47.6689 15.513 48.0554C15.0073 48.5668 14.4055 49.0027 13.824 49.4245C12.8998 50.0944 12.0267 50.727 11.8186 51.4497C11.2018 53.5921 15.4866 59.8874 21.0719 61.4965C22.2698 61.8433 22.9142 61.235 24.6008 59.2702C24.9731 58.8367 25.3729 58.3708 25.8178 57.8882C26.186 57.4883 26.8093 57.462 27.2091 57.8306C27.609 58.1992 27.6349 58.8217 27.2663 59.2216C26.8381 59.6871 26.4532 60.1356 26.0948 60.5529C24.7249 62.1478 23.5107 63.5619 21.6834 63.5619Z" fill="url(#paint18_linear_2379_204638)"/>
<path d="M16.1256 60.451C15.856 60.451 15.5871 60.3406 15.3925 60.1241C15.0295 59.7198 15.0628 59.0973 15.4671 58.734C16.7595 57.5729 17.9456 56.3616 18.8966 55.2294C19.2458 54.8125 19.8674 54.759 20.2839 55.109C20.7004 55.4589 20.7539 56.0802 20.4043 56.4963C19.395 57.6974 18.1427 58.9781 16.7834 60.1995C16.5948 60.3674 16.3596 60.451 16.1256 60.451Z" fill="url(#paint19_linear_2379_204638)"/>
<path d="M1.43745 76.3235C1.25983 76.3235 1.0814 76.2753 0.922436 76.1779C0.548947 75.948 0.371733 75.4991 0.48893 75.0761C0.903376 73.5793 1.26713 72.0254 1.61872 70.5229C2.01817 68.8172 2.4314 67.0532 2.9237 65.3427C4.11514 61.2068 5.5434 58.2375 7.55521 55.7167C7.89463 55.2918 8.51428 55.2232 8.93886 55.561C9.36385 55.9 9.4332 56.5201 9.09418 56.9451C7.25147 59.2545 5.93189 62.0121 4.81588 65.8877C4.33696 67.5504 3.92981 69.2897 3.53605 70.9718C3.39371 71.5797 3.24934 72.1957 3.10051 72.8141C5.14274 71.4884 7.17726 70.7577 9.16271 70.0448C12.2994 68.9186 15.2626 67.8545 17.8341 64.3954C18.1581 63.9586 18.7761 63.869 19.2116 64.1922C19.648 64.5166 19.7388 65.1339 19.4144 65.5698C16.4881 69.5062 13.1028 70.7224 9.82818 71.898C7.27134 72.8165 4.62772 73.7659 2.10089 76.0672C1.91476 76.2363 1.67671 76.3235 1.43745 76.3235Z" fill="url(#paint20_linear_2379_204638)"/>
<path d="M10.5743 66.2135C10.2093 66.2135 9.84153 66.1693 9.47453 66.0634C8.74661 65.8538 8.25836 65.5091 7.98179 65.0091C7.71333 64.5224 7.67846 63.9547 7.87514 63.2706C7.97003 62.9417 8.10669 62.6161 8.2393 62.3014C8.36339 62.0074 8.48018 61.7292 8.55358 61.4745C8.59576 61.3289 8.61847 61.2052 8.62212 61.1055C8.64117 60.5617 9.09293 60.1188 9.6412 60.1565C10.1846 60.1756 10.6096 60.6322 10.5897 61.1756C10.58 61.4408 10.533 61.7174 10.4454 62.0203C10.3407 62.3849 10.1951 62.7304 10.0548 63.0646C9.93926 63.3391 9.83018 63.5978 9.76772 63.8152C9.73366 63.9344 9.72312 64.0098 9.72068 64.0524C9.76408 64.0788 9.8537 64.123 10.0196 64.1708C10.8107 64.3991 11.801 64.0581 12.8505 63.6984C13.4767 63.4839 14.1247 63.2612 14.7906 63.138C15.3283 63.0378 15.8388 63.3926 15.9382 63.9263C16.0371 64.4608 15.6839 64.975 15.149 65.0735C14.6263 65.1705 14.074 65.3602 13.4896 65.5606C12.5837 65.8716 11.5889 66.2135 10.5743 66.2135ZM9.72068 64.0954H9.72717H9.72068Z" fill="url(#paint21_linear_2379_204638)"/>
<path d="M41.0151 34.3857C40.7584 34.3857 40.5021 34.2856 40.309 34.0877C38.7129 32.4453 39.0106 30.5819 39.3731 29.3231C40.1513 26.6219 42.1724 24.8579 44.6482 24.7188C45.1859 24.6945 45.6555 25.1036 45.6863 25.6471C45.7167 26.19 45.3015 26.6548 44.7585 26.6856C42.8278 26.7939 41.6878 28.401 41.2653 29.8682C40.8849 31.1881 41.0126 31.9866 41.7211 32.715C42.0998 33.1055 42.0913 33.7284 41.7012 34.1071C41.5102 34.2933 41.2628 34.3857 41.0151 34.3857Z" fill="url(#paint22_linear_2379_204638)"/>
<defs>
<linearGradient id="paint0_linear_2379_204638" x1="18.1613" y1="5.87793" x2="51.3628" y2="5.87793" gradientUnits="userSpaceOnUse">
<stop stop-color="#DC2430"/>
<stop offset="1" stop-color="#7B4397"/>
</linearGradient>
<linearGradient id="paint1_linear_2379_204638" x1="57.852" y1="3.09863" x2="73.6347" y2="3.09863" gradientUnits="userSpaceOnUse">
<stop stop-color="#DC2430"/>
<stop offset="1" stop-color="#7B4397"/>
</linearGradient>
<linearGradient id="paint2_linear_2379_204638" x1="19.7062" y1="6.34595" x2="73.5266" y2="6.34595" gradientUnits="userSpaceOnUse">
<stop stop-color="#DC2430"/>
<stop offset="1" stop-color="#7B4397"/>
</linearGradient>
<linearGradient id="paint3_linear_2379_204638" x1="17.3398" y1="42.9697" x2="30.3682" y2="42.9697" gradientUnits="userSpaceOnUse">
<stop stop-color="#DC2430"/>
<stop offset="1" stop-color="#7B4397"/>
</linearGradient>
<linearGradient id="paint4_linear_2379_204638" x1="37.8354" y1="21.0762" x2="53.289" y2="21.0762" gradientUnits="userSpaceOnUse">
<stop stop-color="#DC2430"/>
<stop offset="1" stop-color="#7B4397"/>
</linearGradient>
<linearGradient id="paint5_linear_2379_204638" x1="26.3324" y1="36.3213" x2="39.0463" y2="36.3213" gradientUnits="userSpaceOnUse">
<stop stop-color="#DC2430"/>
<stop offset="1" stop-color="#7B4397"/>
</linearGradient>
<linearGradient id="paint6_linear_2379_204638" x1="57.744" y1="6.41797" x2="71.1501" y2="6.41797" gradientUnits="userSpaceOnUse">
<stop stop-color="#DC2430"/>
<stop offset="1" stop-color="#7B4397"/>
</linearGradient>
<linearGradient id="paint7_linear_2379_204638" x1="69.336" y1="6.99121" x2="74.198" y2="6.99121" gradientUnits="userSpaceOnUse">
<stop stop-color="#DC2430"/>
<stop offset="1" stop-color="#7B4397"/>
</linearGradient>
<linearGradient id="paint8_linear_2379_204638" x1="56.5687" y1="26.2246" x2="64.8401" y2="26.2246" gradientUnits="userSpaceOnUse">
<stop stop-color="#DC2430"/>
<stop offset="1" stop-color="#7B4397"/>
</linearGradient>
<linearGradient id="paint9_linear_2379_204638" x1="1.51652" y1="32.6562" x2="16.985" y2="32.6562" gradientUnits="userSpaceOnUse">
<stop stop-color="#DC2430"/>
<stop offset="1" stop-color="#7B4397"/>
</linearGradient>
<linearGradient id="paint10_linear_2379_204638" x1="11.4201" y1="20.9268" x2="26.2237" y2="20.9268" gradientUnits="userSpaceOnUse">
<stop stop-color="#DC2430"/>
<stop offset="1" stop-color="#7B4397"/>
</linearGradient>
<linearGradient id="paint11_linear_2379_204638" x1="2.72496" y1="10.4785" x2="15.3789" y2="10.4785" gradientUnits="userSpaceOnUse">
<stop stop-color="#DC2430"/>
<stop offset="1" stop-color="#7B4397"/>
</linearGradient>
<linearGradient id="paint12_linear_2379_204638" x1="33.493" y1="56.5498" x2="37.4059" y2="56.5498" gradientUnits="userSpaceOnUse">
<stop stop-color="#DC2430"/>
<stop offset="1" stop-color="#7B4397"/>
</linearGradient>
<linearGradient id="paint13_linear_2379_204638" x1="46.0165" y1="49.4756" x2="49.1333" y2="49.4756" gradientUnits="userSpaceOnUse">
<stop stop-color="#DC2430"/>
<stop offset="1" stop-color="#7B4397"/>
</linearGradient>
<linearGradient id="paint14_linear_2379_204638" x1="36.6045" y1="62.6094" x2="59.2661" y2="62.6094" gradientUnits="userSpaceOnUse">
<stop stop-color="#DC2430"/>
<stop offset="1" stop-color="#7B4397"/>
</linearGradient>
<linearGradient id="paint15_linear_2379_204638" x1="54.7124" y1="34.9541" x2="67.637" y2="34.9541" gradientUnits="userSpaceOnUse">
<stop stop-color="#DC2430"/>
<stop offset="1" stop-color="#7B4397"/>
</linearGradient>
<linearGradient id="paint16_linear_2379_204638" x1="71.7611" y1="20.5488" x2="75.699" y2="20.5488" gradientUnits="userSpaceOnUse">
<stop stop-color="#DC2430"/>
<stop offset="1" stop-color="#7B4397"/>
</linearGradient>
<linearGradient id="paint17_linear_2379_204638" x1="73.5734" y1="0" x2="80.4582" y2="0" gradientUnits="userSpaceOnUse">
<stop stop-color="#DC2430"/>
<stop offset="1" stop-color="#7B4397"/>
</linearGradient>
<linearGradient id="paint18_linear_2379_204638" x1="11.2744" y1="46.3789" x2="26.3448" y2="46.3789" gradientUnits="userSpaceOnUse">
<stop stop-color="#DC2430"/>
<stop offset="1" stop-color="#7B4397"/>
</linearGradient>
<linearGradient id="paint19_linear_2379_204638" x1="15.5985" y1="54.8779" x2="20.2688" y2="54.8779" gradientUnits="userSpaceOnUse">
<stop stop-color="#DC2430"/>
<stop offset="1" stop-color="#7B4397"/>
</linearGradient>
<linearGradient id="paint20_linear_2379_204638" x1="2.04944" y1="55.3467" x2="18.3318" y2="55.3467" gradientUnits="userSpaceOnUse">
<stop stop-color="#DC2430"/>
<stop offset="1" stop-color="#7B4397"/>
</linearGradient>
<linearGradient id="paint21_linear_2379_204638" x1="8.43373" y1="60.1543" x2="15.4078" y2="60.1543" gradientUnits="userSpaceOnUse">
<stop stop-color="#DC2430"/>
<stop offset="1" stop-color="#7B4397"/>
</linearGradient>
<linearGradient id="paint22_linear_2379_204638" x1="39.6361" y1="24.7178" x2="45.2478" y2="24.7178" gradientUnits="userSpaceOnUse">
<stop stop-color="#DC2430"/>
<stop offset="1" stop-color="#7B4397"/>
</linearGradient>
</defs>
</svg>
