<svg width="72" height="100" viewBox="0 0 72 100" fill="none" xmlns="http://www.w3.org/2000/svg">
<path d="M63.965 12.6278C59.851 5.21434 52.1828 3.52288 44.2975 3.15931C36.2594 2.78842 28.1769 3.5912 21.0592 7.60219C19.2126 8.64264 19.3185 11.0583 20.477 12.3969C20.3872 12.9552 20.4551 13.5281 20.6693 14.0533C19.2634 13.5935 18.4406 12.7986 18.809 11.4882C19.5113 8.99157 16.243 7.02341 14.4164 8.93154C9.65533 13.9059 7.12936 20.4399 7.58614 27.3394C7.66569 28.5443 8.40015 29.3637 9.30493 29.6829C8.85157 30.3871 8.38161 31.0835 7.87651 31.7652C6.52959 33.5831 9.45378 35.7548 10.9793 34.1594C14.9732 29.9835 17.5202 25.0585 18.7617 19.4541C21.2139 20.4819 24.1064 20.925 26.5621 20.9538C34.8525 21.0509 43.0804 18.3546 49.9229 13.7443C51.1853 12.8937 51.5802 11.4546 51.3293 10.1818C54.2828 11.0612 56.8512 12.7112 58.4494 15.8516C60.3054 19.4985 65.9717 16.2439 63.965 12.6278ZM41.9233 9.13895C42.2054 9.14383 42.4904 9.15017 42.7754 9.157C39.9132 9.97199 37.0212 10.6498 34.1141 10.927C35.6553 10.3624 37.235 9.87536 38.8703 9.47958C39.1675 9.40735 39.4218 9.28389 39.6555 9.13943C40.41 9.12479 41.1664 9.12528 41.9233 9.13895Z" fill="#E0DFE6"/>
<path d="M66.5458 50.0139C67.3154 49.7264 67.9347 49.0432 68.1064 48.2482C68.8248 46.2513 69.1113 44.1396 69.0459 42.0187C68.9775 39.8012 65.8909 38.4796 64.5176 40.255C64.4341 39.1658 64.3102 38.0746 64.1711 36.9873C63.5918 32.4483 63.563 26.1934 60.9946 22.2829C60.7643 21.932 60.2845 21.6627 59.8546 21.8188C59.837 21.8252 59.4208 21.9174 59.3588 22.0506C58.8708 23.1033 59.0499 24.7279 58.9435 25.8791C58.7414 28.0732 58.6409 30.26 58.6434 32.4624C58.6487 37.2537 59.554 42.8156 57.7732 47.3771C55.1179 54.1795 47.1784 57.1833 43.9746 63.7773C43.347 65.0691 44.6198 66.4102 45.9345 65.7372C50.9947 63.1449 56.4053 59.8429 60.1245 55.3049C57.5624 59.5218 54.3039 63.0355 50.1587 66.1256C48.7103 67.2051 47.2023 68.1973 45.6539 69.1225C45.3669 68.8663 45.0239 68.6653 44.6261 68.5511C37.7812 66.5873 32.8694 75.0129 35.9922 80.7675C36.1137 80.9915 36.5031 81.0159 36.6178 80.7675C36.8521 80.2585 37.0624 79.6685 37.2742 79.0507C38.7046 80.1839 41.2007 80.014 41.8591 77.7165C41.9923 77.2055 43.1128 76.7551 44.0664 76.4042C44.1078 76.6999 44.1893 76.9937 44.3216 77.2836C44.673 78.0547 45.1873 78.5803 45.791 78.9785C45.1795 78.9487 44.5295 79.1947 44.0883 79.7764C42.5242 81.8382 41.965 84.5765 40.1544 86.51C39.1955 87.5343 40.66 88.992 41.6912 88.0468C43.8321 86.084 46.6065 84.1465 47.3834 81.1653C47.5493 80.5284 47.4185 80.0101 47.1267 79.6368C47.6445 79.8306 48.1876 79.9931 48.7372 80.1565C51.1377 80.8715 53.326 82.1096 54.913 84.1046C56.6044 86.2304 56.5381 88.9613 58.0709 91.0437C59.2558 92.6541 62.2996 93.3554 63.3161 91.0437C65.2828 86.571 62.0751 81.2839 58.7 78.2713C56.9436 76.7038 54.9676 75.478 52.7096 74.7781C51.9327 74.5371 49.6371 74.5883 49.071 74.1276C49.029 74.0935 48.9909 74.0417 48.9538 73.9827C49.151 73.8724 49.3511 73.7675 49.5468 73.6552C52.2767 72.0936 54.8783 70.3231 57.275 68.2836C61.9531 64.3029 65.9426 59.2285 67.9786 53.3875C68.4842 51.9366 67.696 50.6785 66.5458 50.0139ZM63.3864 49.8987C63.5123 49.5859 63.626 49.2716 63.7299 48.9563C63.8597 49.1867 64.0257 49.3946 64.2218 49.5707C63.9251 49.6259 63.6475 49.744 63.3864 49.8987Z" fill="#E0DFE6"/>
<path d="M10.0107 48.6833C9.97216 48.5447 9.92629 48.411 9.88481 48.2743C10.121 46.3725 9.45682 44.3844 8.01523 42.9179C6.49409 41.3704 2.9999 42.4016 3.31711 44.8636C3.42106 45.6688 3.54355 46.4721 3.72461 47.2602C3.46059 48.5022 3.80025 49.9194 4.55618 50.9501C5.01638 51.5777 5.76499 52.0511 6.53703 52.1657C7.19927 52.6294 7.96643 52.8704 8.79556 52.6464C10.5461 52.1736 10.3948 50.0585 10.0107 48.6833Z" fill="#E0DFE6"/>
<path d="M35.0129 85.8069C34.4068 85.1993 33.2249 84.9504 32.4792 85.4799C32.0595 85.7781 31.7315 86.1573 31.5544 86.5935C31.1142 86.2422 30.472 86.1109 30.0274 86.452C29.1807 87.102 28.7239 87.8111 28.5916 88.8774C28.4726 89.8369 28.6297 90.9574 29.2319 91.7431C29.9434 92.6713 30.8775 92.9597 31.9711 92.4614C34.0735 91.5039 37.2602 88.0586 35.0129 85.8069Z" fill="#E0DFE6"/>
<path d="M33.5196 93.1256C32.8583 92.9822 32.3005 92.9456 31.6305 93.0949C31.0385 93.2271 30.5476 93.4873 30.0303 93.7923C28.8542 94.4857 29.369 96.3197 30.7198 96.3387C31.325 96.347 31.8862 96.326 32.4703 96.143C33.1126 95.9425 33.5708 95.6326 34.0637 95.1894C34.7377 94.5838 34.4073 93.3184 33.5196 93.1256Z" fill="#E0DFE6"/>
<path d="M41.5659 96.4032C41.1515 95.1607 40.581 94.0105 40.3141 92.7089C40.0408 91.3771 39.9798 89.9951 39.8788 88.6423C39.81 87.7175 38.628 87.0319 37.9116 87.8273C35.3832 90.6334 34.8937 95.4033 36.7706 98.7047C38.3918 101.558 42.7181 99.2034 41.5659 96.4032Z" fill="#E0DFE6"/>
<path d="M40.165 44.8629C38.8132 41.9309 37.7591 39.6362 37.6796 36.3782C37.6698 35.9766 37.275 35.6296 36.867 35.7589C34.0322 36.6584 33.8648 39.9598 34.2244 42.5096C34.7754 46.4186 35.9827 52.0996 38.6844 55.0584C40.2299 56.7509 42.9848 55.3708 43.0404 53.2543C43.1185 50.2974 41.3821 47.5025 40.165 44.8629Z" fill="#E0DFE6"/>
<path d="M29.4582 32.7682C27.3782 31.9586 25.1802 32.5413 23.0335 32.8419C21.3127 33.083 19.1132 33.0952 17.8654 34.425C17.5794 34.7295 17.5321 35.2673 17.8654 35.566C19.2552 36.8119 21.5157 36.663 23.297 36.7699C25.6048 36.9085 27.7706 37.1867 29.8988 36.1384C31.4654 35.3664 30.7978 33.2894 29.4582 32.7682Z" fill="#E0DFE6"/>
<path d="M52.917 33.9019C51.2611 33.4968 49.578 33.202 47.9202 32.7989C46.3947 32.4281 44.9501 31.8981 43.368 31.8683C42.6892 31.8556 42.0801 32.7267 42.5291 33.3299C44.5524 36.0462 48.4014 37.8216 51.5237 38.9572C54.6743 40.1031 56.2277 34.7115 52.917 33.9019Z" fill="#E0DFE6"/>
<path d="M42.0997 65.3834C41.1046 65.5186 40.1793 65.766 39.1623 65.6845C38.219 65.6088 38.0208 67.1261 38.9393 67.334C40.2389 67.6277 41.6063 67.6917 42.7848 67.0085C43.7257 66.4629 43.0362 65.256 42.0997 65.3834Z" fill="#E0DFE6"/>
<path d="M38.6671 89.3828C38.4323 89.3828 38.2025 89.3047 38.0156 89.1573L36.9131 88.2843C35.2929 86.9969 33.6225 85.67 31.8817 84.5353C30.8803 85.1766 29.8579 85.8027 28.8643 86.4122C27.4388 87.2853 25.9645 88.1891 24.561 89.131C24.2653 89.3291 23.89 89.3657 23.562 89.2256C23.2351 89.0871 22.9994 88.7923 22.9364 88.4414C22.3244 85.0307 21.6524 81.677 21.0761 78.8461C20.96 78.2761 21.3279 77.7197 21.8984 77.6036C22.465 77.4869 23.0247 77.8554 23.1409 78.4259C23.6313 80.8342 24.1911 83.6213 24.7255 86.5045C25.7386 85.8554 26.7629 85.2278 27.7629 84.6154C28.9336 83.898 30.1454 83.1557 31.302 82.4013C31.6455 82.1777 32.0862 82.1734 32.4332 82.3891C34.4809 83.6603 36.3836 85.1722 38.2239 86.6343L38.3225 86.7124C39.707 84.0995 41.2565 81.453 43.0358 78.6572C43.3491 78.1653 44.0001 78.0218 44.4905 78.3341C44.981 78.647 45.1259 79.298 44.8136 79.7889C42.8103 82.9347 41.1066 85.8857 39.6036 88.8108C39.4601 89.0905 39.198 89.2915 38.8911 89.3589C38.8174 89.3745 38.7417 89.3828 38.6671 89.3828Z" fill="url(#paint0_linear_2379_204573)"/>
<path d="M57.6654 91.9958C57.3389 91.9958 57.0173 91.845 56.8114 91.56C52.041 84.9728 47.7016 81.4337 42.3862 79.8203C35.1718 84.4287 30.7226 84.253 25.1656 79.1254C17.2929 80.3581 10.0332 83.6947 4.14193 88.792C3.70223 89.1736 3.0356 89.1239 2.65592 88.6851C2.2743 88.2454 2.32261 87.5798 2.7628 87.1991C9.08307 81.729 16.8976 78.1904 25.3627 76.9645C25.6839 76.9167 26.0074 77.0216 26.2407 77.2451C31.3643 82.1311 34.8175 82.256 41.6414 77.7917C41.8967 77.6248 42.209 77.5779 42.5033 77.6594C48.522 79.346 53.3113 83.1335 58.518 90.3239C58.8596 90.7953 58.7542 91.4541 58.2827 91.7952C58.0963 91.9309 57.8796 91.9958 57.6654 91.9958Z" fill="url(#paint1_linear_2379_204573)"/>
<path d="M32.1829 94.2823C28.737 94.2823 27.7976 91.506 27.0431 89.2763C26.7996 88.5569 26.5697 87.8776 26.2755 87.2891C26.0154 86.7684 26.2262 86.1359 26.7469 85.8753C27.2681 85.6162 27.9006 85.8265 28.1607 86.3467C28.5194 87.0651 28.7844 87.8454 29.0396 88.6009C29.8121 90.8838 30.3387 92.1756 32.1834 92.1756C34.6122 92.1756 34.9602 90.8867 35.4028 86.8977C35.4677 86.3194 35.9899 85.9051 36.5667 85.967C37.145 86.0315 37.5613 86.5522 37.4974 87.131C37.106 90.6466 36.7024 94.2823 32.1829 94.2823Z" fill="url(#paint2_linear_2379_204573)"/>
<path d="M26.4607 99.0576C26.3597 99.0576 26.2582 99.0434 26.1577 99.0132C25.5999 98.8458 25.2837 98.2587 25.451 97.7014C25.7741 96.6244 26.2895 95.6332 26.7872 94.6747C27.2606 93.7631 27.7086 92.9023 27.9746 92.0151C28.1415 91.4568 28.7334 91.144 29.2864 91.3084C29.8442 91.4758 30.1604 92.0629 29.993 92.6202C29.6699 93.6972 29.1546 94.6884 28.6568 95.6469C28.1834 96.5585 27.7354 97.4193 27.4695 98.3065C27.3323 98.7633 26.9136 99.0576 26.4607 99.0576Z" fill="url(#paint3_linear_2379_204573)"/>
<path d="M37.4674 99.3501C37.0634 99.3501 36.6788 99.1168 36.5036 98.7245C36.1283 97.8787 35.8746 96.9544 35.6291 96.0614C35.3246 94.955 35.0376 93.9092 34.5467 93.0259C34.2641 92.5169 34.4481 91.8757 34.9561 91.5931C35.4632 91.312 36.1059 91.4935 36.3889 92.0025C37.0024 93.1079 37.3371 94.3255 37.6607 95.5031C37.8959 96.3591 38.1184 97.1682 38.4298 97.8685C38.666 98.4009 38.4264 99.0231 37.8949 99.2598C37.7559 99.3213 37.6104 99.3501 37.4674 99.3501Z" fill="url(#paint4_linear_2379_204573)"/>
<path d="M25.3304 78.3144C24.8195 78.3144 24.3705 77.9421 24.2905 77.4214C22.7347 67.3121 19.87 65.2064 17.1001 63.1699C14.6917 61.3989 12.2009 59.5678 10.6803 53.4852C10.5387 52.9206 10.8828 52.3486 11.4464 52.2071C12.0164 52.0671 12.584 52.4096 12.7245 52.9733C14.0607 58.32 16.0479 59.7801 18.3489 61.4721C21.319 63.6559 24.6858 66.1311 26.3733 77.1007C26.4617 77.6761 26.0673 78.2139 25.4925 78.3027C25.4378 78.31 25.3841 78.3144 25.3304 78.3144Z" fill="url(#paint5_linear_2379_204573)"/>
<path d="M41.9521 80.2112C41.3703 80.2112 40.8984 79.7393 40.8984 79.1576C40.8984 69.9853 48.3167 64.1697 54.2769 59.4964C58.4406 56.2311 62.0373 53.4119 62.3125 50.3837C62.3652 49.804 62.882 49.3804 63.4574 49.4297C64.0371 49.4824 64.4637 49.9948 64.4115 50.5746C64.0542 54.5084 60.1257 57.5888 55.5769 61.1552C49.6846 65.7752 43.0057 71.0111 43.0057 79.158C43.0057 79.7393 42.5338 80.2112 41.9521 80.2112Z" fill="url(#paint6_linear_2379_204573)"/>
<path d="M9.9217 54.0227C2.33356 54.0227 0.671875 44.9783 0.671875 41.4929C0.671875 35.6372 3.76881 34.385 8.4191 34.3054C8.96714 34.3054 9.41563 34.6997 9.48249 35.2273C9.62791 36.3844 9.76163 37.5463 9.89632 38.7107C10.4292 43.3478 10.9817 48.1436 12.3413 52.644C12.4364 52.9598 12.3789 53.3019 12.1846 53.5688C11.9904 53.8358 11.6825 53.9953 11.353 54.0022L11.1076 54.007C10.7167 54.0149 10.3194 54.0227 9.9217 54.0227ZM7.50993 36.4478C3.82347 36.6679 2.77912 37.8733 2.77912 41.4929C2.77912 41.5973 2.97335 51.9154 9.9217 51.9154C8.80268 47.6453 8.29515 43.2322 7.80274 38.9513C7.70611 38.1154 7.60997 37.2804 7.50993 36.4478Z" fill="url(#paint7_linear_2379_204573)"/>
<path d="M65.8807 51.3434C64.2659 51.3434 63.1991 51.3434 62.49 50.5699C61.7423 49.7544 61.839 48.6466 62.0503 46.2188C62.2123 44.3667 62.4563 41.567 62.4563 37.4794C62.4563 36.6678 62.4524 35.8558 62.448 35.0442C62.4436 34.2278 62.4397 33.4123 62.4397 32.5968C62.4397 32.1752 62.6906 31.794 63.0785 31.6281C63.9496 31.2548 64.8593 31.0654 65.7812 31.0654C71.5612 31.0654 71.5612 36.8523 71.5612 41.078C71.5612 49.5626 68.4721 51.3434 65.8807 51.3434ZM64.0497 49.1337C64.3318 49.2357 65.257 49.2357 65.8807 49.2357C68.8337 49.2357 69.454 44.7996 69.454 41.0775C69.454 34.9456 68.6302 33.1722 65.7812 33.1722C65.36 33.1722 64.9525 33.2268 64.5479 33.3391C64.5499 33.9037 64.5528 34.4684 64.5558 35.0325C64.5597 35.848 64.564 36.6639 64.564 37.4784C64.564 41.6583 64.3152 44.5122 64.1502 46.4008C64.0428 47.6286 63.9413 48.7906 64.0497 49.1337Z" fill="url(#paint8_linear_2379_204573)"/>
<path d="M34.4096 62.0676C31.3136 62.0676 28.8545 60.546 27.9903 58.0971C27.796 57.5481 28.0844 56.9469 28.633 56.7531C29.181 56.5584 29.7832 56.8473 29.977 57.3959C30.6446 59.2864 32.7045 59.9599 34.4096 59.9599C35.3808 59.9599 36.3607 59.752 37.1679 59.3748C37.6935 59.1283 38.3215 59.3562 38.5685 59.8838C38.8149 60.4113 38.587 61.0384 38.0595 61.2844C36.9639 61.7968 35.7014 62.0676 34.4096 62.0676Z" fill="url(#paint9_linear_2379_204573)"/>
<path d="M39.0569 70.276C38.5377 70.276 38.0165 70.2458 37.5079 70.1852C36.9306 70.1174 36.5168 69.5938 36.5856 69.0155C36.6534 68.4377 37.1761 68.0146 37.7554 68.0926C40.4853 68.4123 43.3988 67.7252 46.667 65.9839C47.1814 65.7097 47.8187 65.9034 48.0925 66.4173C48.3663 66.9312 48.172 67.569 47.6591 67.8428C44.5886 69.4806 41.7747 70.276 39.0569 70.276Z" fill="url(#paint10_linear_2379_204573)"/>
<path d="M36.283 54.8228C35.7466 54.8228 35.1742 54.7404 34.6271 54.5842C34.0679 54.4246 33.7438 53.8414 33.9034 53.2817C34.063 52.7224 34.6481 52.3989 35.2059 52.558C35.5675 52.6609 35.9399 52.7156 36.283 52.7156C36.993 52.7156 37.3834 52.4833 37.5664 52.3061C35.8335 49.7324 33.1641 45.1123 33.1641 41.0872C33.1641 40.157 33.2949 39.2713 33.4222 38.4148C33.5437 37.5935 33.6579 36.818 33.6579 36.0338C33.6579 35.8391 33.6511 35.6419 33.634 35.4438C33.5852 34.864 34.0161 34.3545 34.5959 34.3052C35.1688 34.2662 35.6851 34.6869 35.7344 35.2671C35.7559 35.5243 35.7652 35.78 35.7652 36.0343C35.7652 36.9732 35.6334 37.8629 35.5065 38.7237C35.385 39.5407 35.2713 40.3122 35.2713 41.0877C35.2713 43.7273 36.8139 47.489 39.5039 51.4072C39.6698 51.6502 39.8015 51.8416 39.8015 52.1734C39.8011 53.4476 38.4561 54.8228 36.283 54.8228Z" fill="url(#paint11_linear_2379_204573)"/>
<path d="M24.4464 42.8508C22.833 42.8508 21.5207 41.54 21.5207 39.9276C21.5207 39.2556 21.7716 38.6758 22.2093 38.2449C20.7809 38.4748 19.311 39.2517 18.1422 40.421C17.7308 40.8324 17.0637 40.8324 16.6523 40.421C16.2409 40.0096 16.2409 39.3424 16.6523 38.9311C18.4453 37.1381 20.8463 36.0674 23.0736 36.0674C25.888 36.0674 27.3149 37.2162 27.3149 39.4815C27.3154 41.966 25.8333 42.8508 24.4464 42.8508ZM24.4308 39.543C24.1892 39.543 23.628 39.5806 23.628 39.9276C23.628 40.3702 24.0023 40.743 24.4464 40.743C24.7187 40.743 25.1652 40.7431 25.2052 39.6426C25.0666 39.6533 24.9266 39.6372 24.7875 39.5904C24.6948 39.5601 24.5684 39.543 24.4308 39.543Z" fill="url(#paint12_linear_2379_204573)"/>
<path d="M48.2076 42.5689C46.765 42.5689 45.6777 41.4699 45.6777 40.0122C45.6777 39.1357 46.2921 38.1568 47.2052 37.679C47.1222 37.6717 47.0393 37.6683 46.9563 37.6683C45.2995 37.6683 43.3699 38.7658 42.2211 39.7062C41.7697 40.0742 41.107 40.0078 40.738 39.5579C40.3696 39.1069 40.4364 38.4432 40.8864 38.0748C41.6072 37.4848 44.1761 35.5605 46.9563 35.5605C49.3998 35.5605 51.3138 37.1925 51.3138 39.2758C51.3138 42.1409 49.3676 42.5689 48.2076 42.5689ZM48.3793 39.493C48.0899 39.493 47.8059 39.877 47.7845 40.0278C47.7849 40.2172 47.8586 40.4612 48.2076 40.4612C48.9933 40.4612 49.1855 40.2831 49.2051 39.4315C49.006 39.5247 48.7761 39.5579 48.5458 39.5105C48.4877 39.4993 48.432 39.493 48.3793 39.493Z" fill="url(#paint13_linear_2379_204573)"/>
<path d="M16.8047 35.4264C16.4646 35.4264 16.1303 35.2619 15.9273 34.9569C15.6042 34.4728 15.735 33.8184 16.2196 33.4958C19.1184 31.5633 22.5169 31.1582 24.8574 31.1582C25.4392 31.1582 25.9111 31.6301 25.9111 32.2118C25.9111 32.7935 25.4392 33.2654 24.8574 33.2654C22.8083 33.2654 19.8485 33.61 17.3884 35.2492C17.2088 35.3693 17.0058 35.4264 16.8047 35.4264Z" fill="url(#paint14_linear_2379_204573)"/>
<path d="M52.8089 34.6096C52.5395 34.6096 52.2696 34.5066 52.0642 34.3007C50.7885 33.0255 49.1014 32.4555 47.3153 31.8523C46.9078 31.7142 46.5032 31.578 46.1075 31.4331C45.5609 31.234 45.2788 30.6298 45.4779 30.0832C45.677 29.5367 46.2827 29.2517 46.8278 29.4537C47.2094 29.5923 47.5983 29.7231 47.9897 29.8558C49.8369 30.4795 51.93 31.1866 53.5546 32.8108C53.966 33.2222 53.966 33.8893 53.5546 34.3007C53.3481 34.5066 53.0787 34.6096 52.8089 34.6096Z" fill="url(#paint15_linear_2379_204573)"/>
<path d="M7.1843 35.6231C6.6348 35.6231 6.17119 35.1966 6.1341 34.6393L6.12385 34.4807C5.97452 32.2377 5.80469 29.6947 5.80469 27.1731C5.80469 12.7601 13.0127 7.90974 16.3014 7.90974C16.6464 7.90974 16.9914 7.94292 17.3282 7.9888C23.219 0.228879 40.0335 0 41.9734 0C56.2161 0 64.3845 8.26794 64.3845 22.6844C64.3845 23.2807 64.3791 23.8766 64.3737 24.4734C64.3689 25.0625 64.3635 25.6525 64.3635 26.242C64.3635 28.1467 64.4128 30.1876 64.7695 32.2099C64.8705 32.7833 64.4874 33.3294 63.915 33.4309C63.3469 33.5344 62.7955 33.1498 62.694 32.5764C62.3085 30.3891 62.2562 28.1462 62.2562 26.242C62.2562 25.6466 62.2616 25.0503 62.267 24.4544C62.2719 23.8644 62.2772 23.2744 62.2772 22.6849C62.2772 9.60754 54.877 2.10773 41.9734 2.10773C27.5555 2.10773 20.5535 6.88832 18.6888 9.71246C18.4589 10.0609 18.048 10.242 17.6303 10.1707C17.1818 10.0931 16.7089 10.018 16.3014 10.018C14.1507 10.018 7.91193 14.2417 7.91193 27.1741C7.91193 29.6259 8.072 32.0235 8.22621 34.3411L8.23695 34.5002C8.2755 35.0804 7.83629 35.5826 7.25555 35.6216C7.23164 35.6226 7.20822 35.6231 7.1843 35.6231Z" fill="url(#paint16_linear_2379_204573)"/>
<path d="M9.148 36.9978C8.76979 36.9978 8.40427 36.7938 8.21589 36.4361C7.94407 35.9217 8.14123 35.2844 8.65559 35.0126C14.8705 31.7321 16.9553 24.8877 17.6443 21.0998C17.7439 20.5551 18.2461 20.1813 18.7975 20.2408C20.6154 20.4434 22.4659 20.5454 24.2989 20.5454C35.0172 20.5454 44.8916 16.7491 50.0914 13.4989C50.5365 13.2198 51.1177 13.3115 51.4545 13.7122C54.0214 16.7511 58.0749 18.8632 63.5035 19.9895C64.0735 20.1076 64.4391 20.6659 64.3214 21.2354C64.2019 21.8054 63.6387 22.17 63.0755 22.0533C57.5712 20.9114 53.3284 18.791 50.4477 15.7467C44.8463 19.0325 34.9625 22.6531 24.2994 22.6531C22.7119 22.6531 21.1117 22.5799 19.5286 22.4335C18.0855 29.1535 14.5972 34.2596 9.63943 36.8758C9.48229 36.9588 9.31393 36.9978 9.148 36.9978Z" fill="url(#paint17_linear_2379_204573)"/>
<defs>
<linearGradient id="paint0_linear_2379_204573" x1="23.0483" y1="77.582" x2="43.3834" y2="77.582" gradientUnits="userSpaceOnUse">
<stop stop-color="#DC2430"/>
<stop offset="1" stop-color="#7B4397"/>
</linearGradient>
<linearGradient id="paint1_linear_2379_204573" x1="7.09178" y1="76.9531" x2="54.9638" y2="76.9531" gradientUnits="userSpaceOnUse">
<stop stop-color="#DC2430"/>
<stop offset="1" stop-color="#7B4397"/>
</linearGradient>
<linearGradient id="paint2_linear_2379_204573" x1="27.109" y1="85.7644" x2="36.7479" y2="85.7644" gradientUnits="userSpaceOnUse">
<stop stop-color="#DC2430"/>
<stop offset="1" stop-color="#7B4397"/>
</linearGradient>
<linearGradient id="paint3_linear_2379_204573" x1="25.7922" y1="91.2646" x2="29.729" y2="91.2646" gradientUnits="userSpaceOnUse">
<stop stop-color="#DC2430"/>
<stop offset="1" stop-color="#7B4397"/>
</linearGradient>
<linearGradient id="paint4_linear_2379_204573" x1="34.7563" y1="91.4609" x2="38.247" y2="91.4609" gradientUnits="userSpaceOnUse">
<stop stop-color="#DC2430"/>
<stop offset="1" stop-color="#7B4397"/>
</linearGradient>
<linearGradient id="paint5_linear_2379_204573" x1="11.9599" y1="52.1758" x2="25.3365" y2="52.1758" gradientUnits="userSpaceOnUse">
<stop stop-color="#DC2430"/>
<stop offset="1" stop-color="#7B4397"/>
</linearGradient>
<linearGradient id="paint6_linear_2379_204573" x1="42.8582" y1="49.4258" x2="62.848" y2="49.4258" gradientUnits="userSpaceOnUse">
<stop stop-color="#DC2430"/>
<stop offset="1" stop-color="#7B4397"/>
</linearGradient>
<linearGradient id="paint7_linear_2379_204573" x1="1.64807" y1="34.3054" x2="11.6053" y2="34.3054" gradientUnits="userSpaceOnUse">
<stop stop-color="#DC2430"/>
<stop offset="1" stop-color="#7B4397"/>
</linearGradient>
<linearGradient id="paint8_linear_2379_204573" x1="62.7037" y1="31.0654" x2="70.917" y2="31.0654" gradientUnits="userSpaceOnUse">
<stop stop-color="#DC2430"/>
<stop offset="1" stop-color="#7B4397"/>
</linearGradient>
<linearGradient id="paint9_linear_2379_204573" x1="28.8245" y1="56.6924" x2="37.9519" y2="56.6924" gradientUnits="userSpaceOnUse">
<stop stop-color="#DC2430"/>
<stop offset="1" stop-color="#7B4397"/>
</linearGradient>
<linearGradient id="paint10_linear_2379_204573" x1="37.548" y1="65.8594" x2="47.4407" y2="65.8594" gradientUnits="userSpaceOnUse">
<stop stop-color="#DC2430"/>
<stop offset="1" stop-color="#7B4397"/>
</linearGradient>
<linearGradient id="paint11_linear_2379_204573" x1="33.7172" y1="34.3027" x2="39.359" y2="34.3027" gradientUnits="userSpaceOnUse">
<stop stop-color="#DC2430"/>
<stop offset="1" stop-color="#7B4397"/>
</linearGradient>
<linearGradient id="paint12_linear_2379_204573" x1="17.258" y1="36.0674" x2="26.5835" y2="36.0674" gradientUnits="userSpaceOnUse">
<stop stop-color="#DC2430"/>
<stop offset="1" stop-color="#7B4397"/>
</linearGradient>
<linearGradient id="paint13_linear_2379_204573" x1="41.4011" y1="35.5605" x2="50.5929" y2="35.5605" gradientUnits="userSpaceOnUse">
<stop stop-color="#DC2430"/>
<stop offset="1" stop-color="#7B4397"/>
</linearGradient>
<linearGradient id="paint14_linear_2379_204573" x1="16.5968" y1="31.1582" x2="25.2337" y2="31.1582" gradientUnits="userSpaceOnUse">
<stop stop-color="#DC2430"/>
<stop offset="1" stop-color="#7B4397"/>
</linearGradient>
<linearGradient id="paint15_linear_2379_204573" x1="46.1181" y1="29.3887" x2="53.2998" y2="29.3887" gradientUnits="userSpaceOnUse">
<stop stop-color="#DC2430"/>
<stop offset="1" stop-color="#7B4397"/>
</linearGradient>
<linearGradient id="paint16_linear_2379_204573" x1="10.7198" y1="0" x2="60.8536" y2="0" gradientUnits="userSpaceOnUse">
<stop stop-color="#DC2430"/>
<stop offset="1" stop-color="#7B4397"/>
</linearGradient>
<linearGradient id="paint17_linear_2379_204573" x1="12.7812" y1="13.3379" x2="60.5935" y2="13.3379" gradientUnits="userSpaceOnUse">
<stop stop-color="#DC2430"/>
<stop offset="1" stop-color="#7B4397"/>
</linearGradient>
</defs>
</svg>
